M48
; DRILL file {KiCad 5.1.4+dfsg1-1~bpo10+1} date Sat Jul 23 13:57:42 2022
; FORMAT={-:-/ absolute / metric / decimal}
; #@! TF.CreationDate,2022-07-23T13:57:42+05:30
; #@! TF.GenerationSoftware,Kicad,Pcbnew,5.1.4+dfsg1-1~bpo10+1
FMAT,2
METRIC
T1C0.400
T2C0.450
T3C0.500
T4C1.000
T5C2.500
%
G90
G05
T1
X22.18Y-23.68
X22.18Y-53.68
X22.18Y-83.68
X23.98Y-36.58
X23.98Y-66.58
X23.98Y-96.58
X26.98Y-33.38
X26.98Y-63.38
X26.98Y-93.38
X37.211Y-33.655
X37.211Y-63.655
X37.211Y-93.655
X38.354Y-37.338
X38.354Y-67.338
X38.354Y-97.338
X40.78Y-27.38
X40.78Y-57.38
X40.78Y-87.38
X42.88Y-44.68
X42.88Y-74.68
X42.88Y-104.68
X44.069Y-37.719
X44.069Y-67.719
X44.069Y-97.719
X45.085Y-19.939
X45.085Y-49.939
X45.085Y-79.939
X45.593Y-27.051
X45.593Y-57.051
X45.593Y-87.051
X52.18Y-23.68
X52.18Y-53.68
X52.18Y-83.68
X53.98Y-36.58
X53.98Y-66.58
X53.98Y-96.58
X56.98Y-33.38
X56.98Y-63.38
X56.98Y-93.38
X67.211Y-33.655
X67.211Y-63.655
X67.211Y-93.655
X68.354Y-37.338
X68.354Y-67.338
X68.354Y-97.338
X70.78Y-27.38
X70.78Y-57.38
X70.78Y-87.38
X72.88Y-44.68
X72.88Y-74.68
X72.88Y-104.68
X74.069Y-37.719
X74.069Y-67.719
X74.069Y-97.719
X75.085Y-19.939
X75.085Y-49.939
X75.085Y-79.939
X75.593Y-27.051
X75.593Y-57.051
X75.593Y-87.051
X82.18Y-23.68
X82.18Y-53.68
X82.18Y-83.68
X83.98Y-36.58
X83.98Y-66.58
X83.98Y-96.58
X86.98Y-33.38
X86.98Y-63.38
X86.98Y-93.38
X97.211Y-33.655
X97.211Y-63.655
X97.211Y-93.655
X98.354Y-37.338
X98.354Y-67.338
X98.354Y-97.338
X100.78Y-27.38
X100.78Y-57.38
X100.78Y-87.38
X102.88Y-44.68
X102.88Y-74.68
X102.88Y-104.68
X104.069Y-37.719
X104.069Y-67.719
X104.069Y-97.719
X105.085Y-19.939
X105.085Y-49.939
X105.085Y-79.939
X105.593Y-27.051
X105.593Y-57.051
X105.593Y-87.051
T3
X30.98Y-22.88
X30.98Y-52.88
X30.98Y-82.88
X60.98Y-22.88
X60.98Y-52.88
X60.98Y-82.88
X90.98Y-22.88
X90.98Y-52.88
X90.98Y-82.88
T4
X63.41Y-50.03
X65.95Y-50.03
X68.49Y-50.03
X71.03Y-50.03
X30.41Y-105.53
X32.95Y-105.53
X35.49Y-105.53
X38.03Y-105.53
X20.7Y-45.53
X23.24Y-45.53
X25.78Y-45.53
X33.41Y-20.03
X35.95Y-20.03
X38.49Y-20.03
X41.03Y-20.03
X30.41Y-45.53
X32.95Y-45.53
X35.49Y-45.53
X38.03Y-45.53
X33.41Y-50.03
X35.95Y-50.03
X38.49Y-50.03
X41.03Y-50.03
X80.7Y-105.53
X83.24Y-105.53
X85.78Y-105.53
X80.7Y-75.53
X83.24Y-75.53
X85.78Y-75.53
X90.41Y-75.53
X92.95Y-75.53
X95.49Y-75.53
X98.03Y-75.53
X20.7Y-105.53
X23.24Y-105.53
X25.78Y-105.53
X60.41Y-45.53
X62.95Y-45.53
X65.49Y-45.53
X68.03Y-45.53
X90.41Y-45.53
X92.95Y-45.53
X95.49Y-45.53
X98.03Y-45.53
X50.7Y-105.53
X53.24Y-105.53
X55.78Y-105.53
X63.41Y-20.03
X65.95Y-20.03
X68.49Y-20.03
X71.03Y-20.03
X80.7Y-45.53
X83.24Y-45.53
X85.78Y-45.53
X30.41Y-75.53
X32.95Y-75.53
X35.49Y-75.53
X38.03Y-75.53
X93.41Y-20.03
X95.95Y-20.03
X98.49Y-20.03
X101.03Y-20.03
X93.41Y-50.03
X95.95Y-50.03
X98.49Y-50.03
X101.03Y-50.03
X90.41Y-105.53
X92.95Y-105.53
X95.49Y-105.53
X98.03Y-105.53
X50.7Y-45.53
X53.24Y-45.53
X55.78Y-45.53
X60.41Y-105.53
X62.95Y-105.53
X65.49Y-105.53
X68.03Y-105.53
X60.41Y-75.53
X62.95Y-75.53
X65.49Y-75.53
X68.03Y-75.53
X20.7Y-75.53
X23.24Y-75.53
X25.78Y-75.53
X63.41Y-80.03
X65.95Y-80.03
X68.49Y-80.03
X71.03Y-80.03
X93.41Y-80.03
X95.95Y-80.03
X98.49Y-80.03
X101.03Y-80.03
X50.7Y-75.53
X53.24Y-75.53
X55.78Y-75.53
X33.41Y-80.03
X35.95Y-80.03
X38.49Y-80.03
X41.03Y-80.03
T5
X45.78Y-45.78
X19.78Y-19.78
X105.78Y-45.78
X75.78Y-45.78
X105.78Y-75.78
X79.78Y-79.78
X79.78Y-49.78
X45.78Y-105.78
X19.78Y-49.78
X105.78Y-105.78
X49.78Y-49.78
X49.78Y-79.78
X19.78Y-79.78
X45.78Y-75.78
X49.78Y-19.78
X79.78Y-19.78
X75.78Y-75.78
X75.78Y-105.78
T2
G00X18.93Y-59.205
M15
G01X19.73Y-59.205
M16
G05
G00X19.73Y-66.355
M15
G01X18.93Y-66.355
M16
G05
G00X18.93Y-29.205
M15
G01X19.73Y-29.205
M16
G05
G00X19.73Y-36.355
M15
G01X18.93Y-36.355
M16
G05
G00X78.93Y-59.205
M15
G01X79.73Y-59.205
M16
G05
G00X79.73Y-66.355
M15
G01X78.93Y-66.355
M16
G05
G00X18.93Y-89.205
M15
G01X19.73Y-89.205
M16
G05
G00X19.73Y-96.355
M15
G01X18.93Y-96.355
M16
G05
G00X78.93Y-89.205
M15
G01X79.73Y-89.205
M16
G05
G00X79.73Y-96.355
M15
G01X78.93Y-96.355
M16
G05
G00X48.93Y-29.205
M15
G01X49.73Y-29.205
M16
G05
G00X49.73Y-36.355
M15
G01X48.93Y-36.355
M16
G05
G00X48.93Y-59.205
M15
G01X49.73Y-59.205
M16
G05
G00X49.73Y-66.355
M15
G01X48.93Y-66.355
M16
G05
G00X78.93Y-29.205
M15
G01X79.73Y-29.205
M16
G05
G00X79.73Y-36.355
M15
G01X78.93Y-36.355
M16
G05
G00X48.93Y-89.205
M15
G01X49.73Y-89.205
M16
G05
G00X49.73Y-96.355
M15
G01X48.93Y-96.355
M16
G05
T0
M30
