G04 #@! TF.GenerationSoftware,KiCad,Pcbnew,5.1.4+dfsg1-1~bpo10+1*
G04 #@! TF.CreationDate,2022-07-23T13:57:56+05:30*
G04 #@! TF.ProjectId,Bolt my,426f6c74-206d-4792-9e6b-696361645f70,1.0*
G04 #@! TF.SameCoordinates,Original*
G04 #@! TF.FileFunction,Legend,Top*
G04 #@! TF.FilePolarity,Positive*
%FSLAX46Y46*%
G04 Gerber Fmt 4.6, Leading zero omitted, Abs format (unit mm)*
G04 Created by KiCad (PCBNEW 5.1.4+dfsg1-1~bpo10+1) date 2022-07-23 13:57:56*
%MOMM*%
%LPD*%
G04 APERTURE LIST*
%ADD10C,0.125000*%
%ADD11C,0.150000*%
%ADD12C,0.120000*%
G04 APERTURE END LIST*
D10*
X106653809Y-71913333D02*
X106153809Y-72032380D01*
X106510952Y-72127619D01*
X106153809Y-72222857D01*
X106653809Y-72341904D01*
X106153809Y-72532380D02*
X106487142Y-72532380D01*
X106653809Y-72532380D02*
X106630000Y-72508571D01*
X106606190Y-72532380D01*
X106630000Y-72556190D01*
X106653809Y-72532380D01*
X106606190Y-72532380D01*
X106415714Y-72937142D02*
X106415714Y-72770476D01*
X106153809Y-72770476D02*
X106653809Y-72770476D01*
X106653809Y-73008571D01*
X106153809Y-73199047D02*
X106487142Y-73199047D01*
X106653809Y-73199047D02*
X106630000Y-73175238D01*
X106606190Y-73199047D01*
X106630000Y-73222857D01*
X106653809Y-73199047D01*
X106606190Y-73199047D01*
D11*
X97813333Y-73632380D02*
X97480000Y-73156190D01*
X97241904Y-73632380D02*
X97241904Y-72632380D01*
X97622857Y-72632380D01*
X97718095Y-72680000D01*
X97765714Y-72727619D01*
X97813333Y-72822857D01*
X97813333Y-72965714D01*
X97765714Y-73060952D01*
X97718095Y-73108571D01*
X97622857Y-73156190D01*
X97241904Y-73156190D01*
X98146666Y-72632380D02*
X98813333Y-73632380D01*
X98813333Y-72632380D02*
X98146666Y-73632380D01*
X100694285Y-81727619D02*
X101265714Y-81727619D01*
X100980000Y-81727619D02*
X100980000Y-82727619D01*
X101075238Y-82584761D01*
X101170476Y-82489523D01*
X101265714Y-82441904D01*
D10*
X88001428Y-70358571D02*
X87977619Y-70334761D01*
X87953809Y-70263333D01*
X87953809Y-70215714D01*
X87977619Y-70144285D01*
X88025238Y-70096666D01*
X88072857Y-70072857D01*
X88168095Y-70049047D01*
X88239523Y-70049047D01*
X88334761Y-70072857D01*
X88382380Y-70096666D01*
X88430000Y-70144285D01*
X88453809Y-70215714D01*
X88453809Y-70263333D01*
X88430000Y-70334761D01*
X88406190Y-70358571D01*
X87953809Y-70810952D02*
X87953809Y-70572857D01*
X88453809Y-70572857D01*
X88453809Y-71072857D02*
X88453809Y-71168095D01*
X88430000Y-71215714D01*
X88382380Y-71263333D01*
X88287142Y-71287142D01*
X88120476Y-71287142D01*
X88025238Y-71263333D01*
X87977619Y-71215714D01*
X87953809Y-71168095D01*
X87953809Y-71072857D01*
X87977619Y-71025238D01*
X88025238Y-70977619D01*
X88120476Y-70953809D01*
X88287142Y-70953809D01*
X88382380Y-70977619D01*
X88430000Y-71025238D01*
X88453809Y-71072857D01*
X88453809Y-71501428D02*
X88049047Y-71501428D01*
X88001428Y-71525238D01*
X87977619Y-71549047D01*
X87953809Y-71596666D01*
X87953809Y-71691904D01*
X87977619Y-71739523D01*
X88001428Y-71763333D01*
X88049047Y-71787142D01*
X88453809Y-71787142D01*
X87953809Y-72025238D02*
X88453809Y-72025238D01*
X88453809Y-72144285D01*
X88430000Y-72215714D01*
X88382380Y-72263333D01*
X88334761Y-72287142D01*
X88239523Y-72310952D01*
X88168095Y-72310952D01*
X88072857Y-72287142D01*
X88025238Y-72263333D01*
X87977619Y-72215714D01*
X87953809Y-72144285D01*
X87953809Y-72025238D01*
D11*
X79389523Y-73032380D02*
X78913333Y-73032380D01*
X78865714Y-73508571D01*
X78913333Y-73460952D01*
X79008571Y-73413333D01*
X79246666Y-73413333D01*
X79341904Y-73460952D01*
X79389523Y-73508571D01*
X79437142Y-73603809D01*
X79437142Y-73841904D01*
X79389523Y-73937142D01*
X79341904Y-73984761D01*
X79246666Y-74032380D01*
X79008571Y-74032380D01*
X78913333Y-73984761D01*
X78865714Y-73937142D01*
X79722857Y-73032380D02*
X80056190Y-74032380D01*
X80389523Y-73032380D01*
D10*
X106653809Y-101913333D02*
X106153809Y-102032380D01*
X106510952Y-102127619D01*
X106153809Y-102222857D01*
X106653809Y-102341904D01*
X106153809Y-102532380D02*
X106487142Y-102532380D01*
X106653809Y-102532380D02*
X106630000Y-102508571D01*
X106606190Y-102532380D01*
X106630000Y-102556190D01*
X106653809Y-102532380D01*
X106606190Y-102532380D01*
X106415714Y-102937142D02*
X106415714Y-102770476D01*
X106153809Y-102770476D02*
X106653809Y-102770476D01*
X106653809Y-103008571D01*
X106153809Y-103199047D02*
X106487142Y-103199047D01*
X106653809Y-103199047D02*
X106630000Y-103175238D01*
X106606190Y-103199047D01*
X106630000Y-103222857D01*
X106653809Y-103199047D01*
X106606190Y-103199047D01*
D11*
X97813333Y-103632380D02*
X97480000Y-103156190D01*
X97241904Y-103632380D02*
X97241904Y-102632380D01*
X97622857Y-102632380D01*
X97718095Y-102680000D01*
X97765714Y-102727619D01*
X97813333Y-102822857D01*
X97813333Y-102965714D01*
X97765714Y-103060952D01*
X97718095Y-103108571D01*
X97622857Y-103156190D01*
X97241904Y-103156190D01*
X98146666Y-102632380D02*
X98813333Y-103632380D01*
X98813333Y-102632380D02*
X98146666Y-103632380D01*
X98865714Y-82632380D02*
X98818095Y-82680000D01*
X98722857Y-82727619D01*
X98484761Y-82727619D01*
X98389523Y-82680000D01*
X98341904Y-82632380D01*
X98294285Y-82537142D01*
X98294285Y-82441904D01*
X98341904Y-82299047D01*
X98913333Y-81727619D01*
X98294285Y-81727619D01*
X90332380Y-72632380D02*
X90427619Y-72632380D01*
X90522857Y-72680000D01*
X90570476Y-72727619D01*
X90618095Y-72822857D01*
X90665714Y-73013333D01*
X90665714Y-73251428D01*
X90618095Y-73441904D01*
X90570476Y-73537142D01*
X90522857Y-73584761D01*
X90427619Y-73632380D01*
X90332380Y-73632380D01*
X90237142Y-73584761D01*
X90189523Y-73537142D01*
X90141904Y-73441904D01*
X90094285Y-73251428D01*
X90094285Y-73013333D01*
X90141904Y-72822857D01*
X90189523Y-72727619D01*
X90237142Y-72680000D01*
X90332380Y-72632380D01*
X96313333Y-52727619D02*
X95694285Y-52727619D01*
X96027619Y-52346666D01*
X95884761Y-52346666D01*
X95789523Y-52299047D01*
X95741904Y-52251428D01*
X95694285Y-52156190D01*
X95694285Y-51918095D01*
X95741904Y-51822857D01*
X95789523Y-51775238D01*
X95884761Y-51727619D01*
X96170476Y-51727619D01*
X96265714Y-51775238D01*
X96313333Y-51822857D01*
X81703809Y-103032380D02*
X82322857Y-103032380D01*
X81989523Y-103413333D01*
X82132380Y-103413333D01*
X82227619Y-103460952D01*
X82275238Y-103508571D01*
X82322857Y-103603809D01*
X82322857Y-103841904D01*
X82275238Y-103937142D01*
X82227619Y-103984761D01*
X82132380Y-104032380D01*
X81846666Y-104032380D01*
X81751428Y-103984761D01*
X81703809Y-103937142D01*
X82751428Y-103937142D02*
X82799047Y-103984761D01*
X82751428Y-104032380D01*
X82703809Y-103984761D01*
X82751428Y-103937142D01*
X82751428Y-104032380D01*
X83132380Y-103032380D02*
X83751428Y-103032380D01*
X83418095Y-103413333D01*
X83560952Y-103413333D01*
X83656190Y-103460952D01*
X83703809Y-103508571D01*
X83751428Y-103603809D01*
X83751428Y-103841904D01*
X83703809Y-103937142D01*
X83656190Y-103984761D01*
X83560952Y-104032380D01*
X83275238Y-104032380D01*
X83180000Y-103984761D01*
X83132380Y-103937142D01*
X84037142Y-103032380D02*
X84370476Y-104032380D01*
X84703809Y-103032380D01*
D10*
X88001428Y-100358571D02*
X87977619Y-100334761D01*
X87953809Y-100263333D01*
X87953809Y-100215714D01*
X87977619Y-100144285D01*
X88025238Y-100096666D01*
X88072857Y-100072857D01*
X88168095Y-100049047D01*
X88239523Y-100049047D01*
X88334761Y-100072857D01*
X88382380Y-100096666D01*
X88430000Y-100144285D01*
X88453809Y-100215714D01*
X88453809Y-100263333D01*
X88430000Y-100334761D01*
X88406190Y-100358571D01*
X87953809Y-100810952D02*
X87953809Y-100572857D01*
X88453809Y-100572857D01*
X88453809Y-101072857D02*
X88453809Y-101168095D01*
X88430000Y-101215714D01*
X88382380Y-101263333D01*
X88287142Y-101287142D01*
X88120476Y-101287142D01*
X88025238Y-101263333D01*
X87977619Y-101215714D01*
X87953809Y-101168095D01*
X87953809Y-101072857D01*
X87977619Y-101025238D01*
X88025238Y-100977619D01*
X88120476Y-100953809D01*
X88287142Y-100953809D01*
X88382380Y-100977619D01*
X88430000Y-101025238D01*
X88453809Y-101072857D01*
X88453809Y-101501428D02*
X88049047Y-101501428D01*
X88001428Y-101525238D01*
X87977619Y-101549047D01*
X87953809Y-101596666D01*
X87953809Y-101691904D01*
X87977619Y-101739523D01*
X88001428Y-101763333D01*
X88049047Y-101787142D01*
X88453809Y-101787142D01*
X87953809Y-102025238D02*
X88453809Y-102025238D01*
X88453809Y-102144285D01*
X88430000Y-102215714D01*
X88382380Y-102263333D01*
X88334761Y-102287142D01*
X88239523Y-102310952D01*
X88168095Y-102310952D01*
X88072857Y-102287142D01*
X88025238Y-102263333D01*
X87977619Y-102215714D01*
X87953809Y-102144285D01*
X87953809Y-102025238D01*
D11*
X93189523Y-82394285D02*
X93189523Y-81727619D01*
X93427619Y-82775238D02*
X93665714Y-82060952D01*
X93046666Y-82060952D01*
X86241904Y-102880000D02*
X86146666Y-102832380D01*
X86003809Y-102832380D01*
X85860952Y-102880000D01*
X85765714Y-102975238D01*
X85718095Y-103070476D01*
X85670476Y-103260952D01*
X85670476Y-103403809D01*
X85718095Y-103594285D01*
X85765714Y-103689523D01*
X85860952Y-103784761D01*
X86003809Y-103832380D01*
X86099047Y-103832380D01*
X86241904Y-103784761D01*
X86289523Y-103737142D01*
X86289523Y-103403809D01*
X86099047Y-103403809D01*
X92065714Y-73346666D02*
X92541904Y-73346666D01*
X91970476Y-73632380D02*
X92303809Y-72632380D01*
X92637142Y-73632380D01*
X93160952Y-72632380D02*
X93256190Y-72632380D01*
X93351428Y-72680000D01*
X93399047Y-72727619D01*
X93446666Y-72822857D01*
X93494285Y-73013333D01*
X93494285Y-73251428D01*
X93446666Y-73441904D01*
X93399047Y-73537142D01*
X93351428Y-73584761D01*
X93256190Y-73632380D01*
X93160952Y-73632380D01*
X93065714Y-73584761D01*
X93018095Y-73537142D01*
X92970476Y-73441904D01*
X92922857Y-73251428D01*
X92922857Y-73013333D01*
X92970476Y-72822857D01*
X93018095Y-72727619D01*
X93065714Y-72680000D01*
X93160952Y-72632380D01*
X98865714Y-52632380D02*
X98818095Y-52680000D01*
X98722857Y-52727619D01*
X98484761Y-52727619D01*
X98389523Y-52680000D01*
X98341904Y-52632380D01*
X98294285Y-52537142D01*
X98294285Y-52441904D01*
X98341904Y-52299047D01*
X98913333Y-51727619D01*
X98294285Y-51727619D01*
X86241904Y-72880000D02*
X86146666Y-72832380D01*
X86003809Y-72832380D01*
X85860952Y-72880000D01*
X85765714Y-72975238D01*
X85718095Y-73070476D01*
X85670476Y-73260952D01*
X85670476Y-73403809D01*
X85718095Y-73594285D01*
X85765714Y-73689523D01*
X85860952Y-73784761D01*
X86003809Y-73832380D01*
X86099047Y-73832380D01*
X86241904Y-73784761D01*
X86289523Y-73737142D01*
X86289523Y-73403809D01*
X86099047Y-73403809D01*
X93189523Y-52394285D02*
X93189523Y-51727619D01*
X93427619Y-52775238D02*
X93665714Y-52060952D01*
X93046666Y-52060952D01*
X81703809Y-73032380D02*
X82322857Y-73032380D01*
X81989523Y-73413333D01*
X82132380Y-73413333D01*
X82227619Y-73460952D01*
X82275238Y-73508571D01*
X82322857Y-73603809D01*
X82322857Y-73841904D01*
X82275238Y-73937142D01*
X82227619Y-73984761D01*
X82132380Y-74032380D01*
X81846666Y-74032380D01*
X81751428Y-73984761D01*
X81703809Y-73937142D01*
X82751428Y-73937142D02*
X82799047Y-73984761D01*
X82751428Y-74032380D01*
X82703809Y-73984761D01*
X82751428Y-73937142D01*
X82751428Y-74032380D01*
X83132380Y-73032380D02*
X83751428Y-73032380D01*
X83418095Y-73413333D01*
X83560952Y-73413333D01*
X83656190Y-73460952D01*
X83703809Y-73508571D01*
X83751428Y-73603809D01*
X83751428Y-73841904D01*
X83703809Y-73937142D01*
X83656190Y-73984761D01*
X83560952Y-74032380D01*
X83275238Y-74032380D01*
X83180000Y-73984761D01*
X83132380Y-73937142D01*
X84037142Y-73032380D02*
X84370476Y-74032380D01*
X84703809Y-73032380D01*
X79389523Y-103032380D02*
X78913333Y-103032380D01*
X78865714Y-103508571D01*
X78913333Y-103460952D01*
X79008571Y-103413333D01*
X79246666Y-103413333D01*
X79341904Y-103460952D01*
X79389523Y-103508571D01*
X79437142Y-103603809D01*
X79437142Y-103841904D01*
X79389523Y-103937142D01*
X79341904Y-103984761D01*
X79246666Y-104032380D01*
X79008571Y-104032380D01*
X78913333Y-103984761D01*
X78865714Y-103937142D01*
X79722857Y-103032380D02*
X80056190Y-104032380D01*
X80389523Y-103032380D01*
X105251428Y-87499047D02*
X105251428Y-87832380D01*
X104727619Y-87975238D02*
X104727619Y-87499047D01*
X105727619Y-87499047D01*
X105727619Y-87975238D01*
X104775238Y-88356190D02*
X104727619Y-88499047D01*
X104727619Y-88737142D01*
X104775238Y-88832380D01*
X104822857Y-88880000D01*
X104918095Y-88927619D01*
X105013333Y-88927619D01*
X105108571Y-88880000D01*
X105156190Y-88832380D01*
X105203809Y-88737142D01*
X105251428Y-88546666D01*
X105299047Y-88451428D01*
X105346666Y-88403809D01*
X105441904Y-88356190D01*
X105537142Y-88356190D01*
X105632380Y-88403809D01*
X105680000Y-88451428D01*
X105727619Y-88546666D01*
X105727619Y-88784761D01*
X105680000Y-88927619D01*
X104727619Y-89356190D02*
X105727619Y-89356190D01*
X105727619Y-89737142D01*
X105680000Y-89832380D01*
X105632380Y-89880000D01*
X105537142Y-89927619D01*
X105394285Y-89927619D01*
X105299047Y-89880000D01*
X105251428Y-89832380D01*
X105203809Y-89737142D01*
X105203809Y-89356190D01*
X105299047Y-90499047D02*
X105346666Y-90403809D01*
X105394285Y-90356190D01*
X105489523Y-90308571D01*
X105537142Y-90308571D01*
X105632380Y-90356190D01*
X105680000Y-90403809D01*
X105727619Y-90499047D01*
X105727619Y-90689523D01*
X105680000Y-90784761D01*
X105632380Y-90832380D01*
X105537142Y-90880000D01*
X105489523Y-90880000D01*
X105394285Y-90832380D01*
X105346666Y-90784761D01*
X105299047Y-90689523D01*
X105299047Y-90499047D01*
X105251428Y-90403809D01*
X105203809Y-90356190D01*
X105108571Y-90308571D01*
X104918095Y-90308571D01*
X104822857Y-90356190D01*
X104775238Y-90403809D01*
X104727619Y-90499047D01*
X104727619Y-90689523D01*
X104775238Y-90784761D01*
X104822857Y-90832380D01*
X104918095Y-90880000D01*
X105108571Y-90880000D01*
X105203809Y-90832380D01*
X105251428Y-90784761D01*
X105299047Y-90689523D01*
X105632380Y-91260952D02*
X105680000Y-91308571D01*
X105727619Y-91403809D01*
X105727619Y-91641904D01*
X105680000Y-91737142D01*
X105632380Y-91784761D01*
X105537142Y-91832380D01*
X105441904Y-91832380D01*
X105299047Y-91784761D01*
X104727619Y-91213333D01*
X104727619Y-91832380D01*
X105727619Y-92689523D02*
X105727619Y-92499047D01*
X105680000Y-92403809D01*
X105632380Y-92356190D01*
X105489523Y-92260952D01*
X105299047Y-92213333D01*
X104918095Y-92213333D01*
X104822857Y-92260952D01*
X104775238Y-92308571D01*
X104727619Y-92403809D01*
X104727619Y-92594285D01*
X104775238Y-92689523D01*
X104822857Y-92737142D01*
X104918095Y-92784761D01*
X105156190Y-92784761D01*
X105251428Y-92737142D01*
X105299047Y-92689523D01*
X105346666Y-92594285D01*
X105346666Y-92403809D01*
X105299047Y-92308571D01*
X105251428Y-92260952D01*
X105156190Y-92213333D01*
X105727619Y-93641904D02*
X105727619Y-93451428D01*
X105680000Y-93356190D01*
X105632380Y-93308571D01*
X105489523Y-93213333D01*
X105299047Y-93165714D01*
X104918095Y-93165714D01*
X104822857Y-93213333D01*
X104775238Y-93260952D01*
X104727619Y-93356190D01*
X104727619Y-93546666D01*
X104775238Y-93641904D01*
X104822857Y-93689523D01*
X104918095Y-93737142D01*
X105156190Y-93737142D01*
X105251428Y-93689523D01*
X105299047Y-93641904D01*
X105346666Y-93546666D01*
X105346666Y-93356190D01*
X105299047Y-93260952D01*
X105251428Y-93213333D01*
X105156190Y-93165714D01*
X104727619Y-95451428D02*
X104727619Y-94880000D01*
X104727619Y-95165714D02*
X105727619Y-95165714D01*
X105584761Y-95070476D01*
X105489523Y-94975238D01*
X105441904Y-94880000D01*
X105632380Y-95832380D02*
X105680000Y-95880000D01*
X105727619Y-95975238D01*
X105727619Y-96213333D01*
X105680000Y-96308571D01*
X105632380Y-96356190D01*
X105537142Y-96403809D01*
X105441904Y-96403809D01*
X105299047Y-96356190D01*
X104727619Y-95784761D01*
X104727619Y-96403809D01*
X105251428Y-96832380D02*
X105251428Y-97165714D01*
X104727619Y-97308571D02*
X104727619Y-96832380D01*
X105727619Y-96832380D01*
X105727619Y-97308571D01*
X100694285Y-21727619D02*
X101265714Y-21727619D01*
X100980000Y-21727619D02*
X100980000Y-22727619D01*
X101075238Y-22584761D01*
X101170476Y-22489523D01*
X101265714Y-22441904D01*
X94618095Y-42632380D02*
X95189523Y-42632380D01*
X94903809Y-43632380D02*
X94903809Y-42632380D01*
X95427619Y-42632380D02*
X96094285Y-43632380D01*
X96094285Y-42632380D02*
X95427619Y-43632380D01*
X100694285Y-51727619D02*
X101265714Y-51727619D01*
X100980000Y-51727619D02*
X100980000Y-52727619D01*
X101075238Y-52584761D01*
X101170476Y-52489523D01*
X101265714Y-52441904D01*
X90332380Y-102632380D02*
X90427619Y-102632380D01*
X90522857Y-102680000D01*
X90570476Y-102727619D01*
X90618095Y-102822857D01*
X90665714Y-103013333D01*
X90665714Y-103251428D01*
X90618095Y-103441904D01*
X90570476Y-103537142D01*
X90522857Y-103584761D01*
X90427619Y-103632380D01*
X90332380Y-103632380D01*
X90237142Y-103584761D01*
X90189523Y-103537142D01*
X90141904Y-103441904D01*
X90094285Y-103251428D01*
X90094285Y-103013333D01*
X90141904Y-102822857D01*
X90189523Y-102727619D01*
X90237142Y-102680000D01*
X90332380Y-102632380D01*
D10*
X106653809Y-41913333D02*
X106153809Y-42032380D01*
X106510952Y-42127619D01*
X106153809Y-42222857D01*
X106653809Y-42341904D01*
X106153809Y-42532380D02*
X106487142Y-42532380D01*
X106653809Y-42532380D02*
X106630000Y-42508571D01*
X106606190Y-42532380D01*
X106630000Y-42556190D01*
X106653809Y-42532380D01*
X106606190Y-42532380D01*
X106415714Y-42937142D02*
X106415714Y-42770476D01*
X106153809Y-42770476D02*
X106653809Y-42770476D01*
X106653809Y-43008571D01*
X106153809Y-43199047D02*
X106487142Y-43199047D01*
X106653809Y-43199047D02*
X106630000Y-43175238D01*
X106606190Y-43199047D01*
X106630000Y-43222857D01*
X106653809Y-43199047D01*
X106606190Y-43199047D01*
D11*
X97813333Y-43632380D02*
X97480000Y-43156190D01*
X97241904Y-43632380D02*
X97241904Y-42632380D01*
X97622857Y-42632380D01*
X97718095Y-42680000D01*
X97765714Y-42727619D01*
X97813333Y-42822857D01*
X97813333Y-42965714D01*
X97765714Y-43060952D01*
X97718095Y-43108571D01*
X97622857Y-43156190D01*
X97241904Y-43156190D01*
X98146666Y-42632380D02*
X98813333Y-43632380D01*
X98813333Y-42632380D02*
X98146666Y-43632380D01*
X92065714Y-103346666D02*
X92541904Y-103346666D01*
X91970476Y-103632380D02*
X92303809Y-102632380D01*
X92637142Y-103632380D01*
X93160952Y-102632380D02*
X93256190Y-102632380D01*
X93351428Y-102680000D01*
X93399047Y-102727619D01*
X93446666Y-102822857D01*
X93494285Y-103013333D01*
X93494285Y-103251428D01*
X93446666Y-103441904D01*
X93399047Y-103537142D01*
X93351428Y-103584761D01*
X93256190Y-103632380D01*
X93160952Y-103632380D01*
X93065714Y-103584761D01*
X93018095Y-103537142D01*
X92970476Y-103441904D01*
X92922857Y-103251428D01*
X92922857Y-103013333D01*
X92970476Y-102822857D01*
X93018095Y-102727619D01*
X93065714Y-102680000D01*
X93160952Y-102632380D01*
X96313333Y-82727619D02*
X95694285Y-82727619D01*
X96027619Y-82346666D01*
X95884761Y-82346666D01*
X95789523Y-82299047D01*
X95741904Y-82251428D01*
X95694285Y-82156190D01*
X95694285Y-81918095D01*
X95741904Y-81822857D01*
X95789523Y-81775238D01*
X95884761Y-81727619D01*
X96170476Y-81727619D01*
X96265714Y-81775238D01*
X96313333Y-81822857D01*
X94618095Y-102632380D02*
X95189523Y-102632380D01*
X94903809Y-103632380D02*
X94903809Y-102632380D01*
X95427619Y-102632380D02*
X96094285Y-103632380D01*
X96094285Y-102632380D02*
X95427619Y-103632380D01*
X96313333Y-22727619D02*
X95694285Y-22727619D01*
X96027619Y-22346666D01*
X95884761Y-22346666D01*
X95789523Y-22299047D01*
X95741904Y-22251428D01*
X95694285Y-22156190D01*
X95694285Y-21918095D01*
X95741904Y-21822857D01*
X95789523Y-21775238D01*
X95884761Y-21727619D01*
X96170476Y-21727619D01*
X96265714Y-21775238D01*
X96313333Y-21822857D01*
X94618095Y-72632380D02*
X95189523Y-72632380D01*
X94903809Y-73632380D02*
X94903809Y-72632380D01*
X95427619Y-72632380D02*
X96094285Y-73632380D01*
X96094285Y-72632380D02*
X95427619Y-73632380D01*
X105251428Y-27499047D02*
X105251428Y-27832380D01*
X104727619Y-27975238D02*
X104727619Y-27499047D01*
X105727619Y-27499047D01*
X105727619Y-27975238D01*
X104775238Y-28356190D02*
X104727619Y-28499047D01*
X104727619Y-28737142D01*
X104775238Y-28832380D01*
X104822857Y-28880000D01*
X104918095Y-28927619D01*
X105013333Y-28927619D01*
X105108571Y-28880000D01*
X105156190Y-28832380D01*
X105203809Y-28737142D01*
X105251428Y-28546666D01*
X105299047Y-28451428D01*
X105346666Y-28403809D01*
X105441904Y-28356190D01*
X105537142Y-28356190D01*
X105632380Y-28403809D01*
X105680000Y-28451428D01*
X105727619Y-28546666D01*
X105727619Y-28784761D01*
X105680000Y-28927619D01*
X104727619Y-29356190D02*
X105727619Y-29356190D01*
X105727619Y-29737142D01*
X105680000Y-29832380D01*
X105632380Y-29880000D01*
X105537142Y-29927619D01*
X105394285Y-29927619D01*
X105299047Y-29880000D01*
X105251428Y-29832380D01*
X105203809Y-29737142D01*
X105203809Y-29356190D01*
X105299047Y-30499047D02*
X105346666Y-30403809D01*
X105394285Y-30356190D01*
X105489523Y-30308571D01*
X105537142Y-30308571D01*
X105632380Y-30356190D01*
X105680000Y-30403809D01*
X105727619Y-30499047D01*
X105727619Y-30689523D01*
X105680000Y-30784761D01*
X105632380Y-30832380D01*
X105537142Y-30880000D01*
X105489523Y-30880000D01*
X105394285Y-30832380D01*
X105346666Y-30784761D01*
X105299047Y-30689523D01*
X105299047Y-30499047D01*
X105251428Y-30403809D01*
X105203809Y-30356190D01*
X105108571Y-30308571D01*
X104918095Y-30308571D01*
X104822857Y-30356190D01*
X104775238Y-30403809D01*
X104727619Y-30499047D01*
X104727619Y-30689523D01*
X104775238Y-30784761D01*
X104822857Y-30832380D01*
X104918095Y-30880000D01*
X105108571Y-30880000D01*
X105203809Y-30832380D01*
X105251428Y-30784761D01*
X105299047Y-30689523D01*
X105632380Y-31260952D02*
X105680000Y-31308571D01*
X105727619Y-31403809D01*
X105727619Y-31641904D01*
X105680000Y-31737142D01*
X105632380Y-31784761D01*
X105537142Y-31832380D01*
X105441904Y-31832380D01*
X105299047Y-31784761D01*
X104727619Y-31213333D01*
X104727619Y-31832380D01*
X105727619Y-32689523D02*
X105727619Y-32499047D01*
X105680000Y-32403809D01*
X105632380Y-32356190D01*
X105489523Y-32260952D01*
X105299047Y-32213333D01*
X104918095Y-32213333D01*
X104822857Y-32260952D01*
X104775238Y-32308571D01*
X104727619Y-32403809D01*
X104727619Y-32594285D01*
X104775238Y-32689523D01*
X104822857Y-32737142D01*
X104918095Y-32784761D01*
X105156190Y-32784761D01*
X105251428Y-32737142D01*
X105299047Y-32689523D01*
X105346666Y-32594285D01*
X105346666Y-32403809D01*
X105299047Y-32308571D01*
X105251428Y-32260952D01*
X105156190Y-32213333D01*
X105727619Y-33641904D02*
X105727619Y-33451428D01*
X105680000Y-33356190D01*
X105632380Y-33308571D01*
X105489523Y-33213333D01*
X105299047Y-33165714D01*
X104918095Y-33165714D01*
X104822857Y-33213333D01*
X104775238Y-33260952D01*
X104727619Y-33356190D01*
X104727619Y-33546666D01*
X104775238Y-33641904D01*
X104822857Y-33689523D01*
X104918095Y-33737142D01*
X105156190Y-33737142D01*
X105251428Y-33689523D01*
X105299047Y-33641904D01*
X105346666Y-33546666D01*
X105346666Y-33356190D01*
X105299047Y-33260952D01*
X105251428Y-33213333D01*
X105156190Y-33165714D01*
X104727619Y-35451428D02*
X104727619Y-34880000D01*
X104727619Y-35165714D02*
X105727619Y-35165714D01*
X105584761Y-35070476D01*
X105489523Y-34975238D01*
X105441904Y-34880000D01*
X105632380Y-35832380D02*
X105680000Y-35880000D01*
X105727619Y-35975238D01*
X105727619Y-36213333D01*
X105680000Y-36308571D01*
X105632380Y-36356190D01*
X105537142Y-36403809D01*
X105441904Y-36403809D01*
X105299047Y-36356190D01*
X104727619Y-35784761D01*
X104727619Y-36403809D01*
X105251428Y-36832380D02*
X105251428Y-37165714D01*
X104727619Y-37308571D02*
X104727619Y-36832380D01*
X105727619Y-36832380D01*
X105727619Y-37308571D01*
D10*
X88001428Y-40358571D02*
X87977619Y-40334761D01*
X87953809Y-40263333D01*
X87953809Y-40215714D01*
X87977619Y-40144285D01*
X88025238Y-40096666D01*
X88072857Y-40072857D01*
X88168095Y-40049047D01*
X88239523Y-40049047D01*
X88334761Y-40072857D01*
X88382380Y-40096666D01*
X88430000Y-40144285D01*
X88453809Y-40215714D01*
X88453809Y-40263333D01*
X88430000Y-40334761D01*
X88406190Y-40358571D01*
X87953809Y-40810952D02*
X87953809Y-40572857D01*
X88453809Y-40572857D01*
X88453809Y-41072857D02*
X88453809Y-41168095D01*
X88430000Y-41215714D01*
X88382380Y-41263333D01*
X88287142Y-41287142D01*
X88120476Y-41287142D01*
X88025238Y-41263333D01*
X87977619Y-41215714D01*
X87953809Y-41168095D01*
X87953809Y-41072857D01*
X87977619Y-41025238D01*
X88025238Y-40977619D01*
X88120476Y-40953809D01*
X88287142Y-40953809D01*
X88382380Y-40977619D01*
X88430000Y-41025238D01*
X88453809Y-41072857D01*
X88453809Y-41501428D02*
X88049047Y-41501428D01*
X88001428Y-41525238D01*
X87977619Y-41549047D01*
X87953809Y-41596666D01*
X87953809Y-41691904D01*
X87977619Y-41739523D01*
X88001428Y-41763333D01*
X88049047Y-41787142D01*
X88453809Y-41787142D01*
X87953809Y-42025238D02*
X88453809Y-42025238D01*
X88453809Y-42144285D01*
X88430000Y-42215714D01*
X88382380Y-42263333D01*
X88334761Y-42287142D01*
X88239523Y-42310952D01*
X88168095Y-42310952D01*
X88072857Y-42287142D01*
X88025238Y-42263333D01*
X87977619Y-42215714D01*
X87953809Y-42144285D01*
X87953809Y-42025238D01*
D11*
X93189523Y-22394285D02*
X93189523Y-21727619D01*
X93427619Y-22775238D02*
X93665714Y-22060952D01*
X93046666Y-22060952D01*
X86241904Y-42880000D02*
X86146666Y-42832380D01*
X86003809Y-42832380D01*
X85860952Y-42880000D01*
X85765714Y-42975238D01*
X85718095Y-43070476D01*
X85670476Y-43260952D01*
X85670476Y-43403809D01*
X85718095Y-43594285D01*
X85765714Y-43689523D01*
X85860952Y-43784761D01*
X86003809Y-43832380D01*
X86099047Y-43832380D01*
X86241904Y-43784761D01*
X86289523Y-43737142D01*
X86289523Y-43403809D01*
X86099047Y-43403809D01*
X92065714Y-43346666D02*
X92541904Y-43346666D01*
X91970476Y-43632380D02*
X92303809Y-42632380D01*
X92637142Y-43632380D01*
X93160952Y-42632380D02*
X93256190Y-42632380D01*
X93351428Y-42680000D01*
X93399047Y-42727619D01*
X93446666Y-42822857D01*
X93494285Y-43013333D01*
X93494285Y-43251428D01*
X93446666Y-43441904D01*
X93399047Y-43537142D01*
X93351428Y-43584761D01*
X93256190Y-43632380D01*
X93160952Y-43632380D01*
X93065714Y-43584761D01*
X93018095Y-43537142D01*
X92970476Y-43441904D01*
X92922857Y-43251428D01*
X92922857Y-43013333D01*
X92970476Y-42822857D01*
X93018095Y-42727619D01*
X93065714Y-42680000D01*
X93160952Y-42632380D01*
X81703809Y-43032380D02*
X82322857Y-43032380D01*
X81989523Y-43413333D01*
X82132380Y-43413333D01*
X82227619Y-43460952D01*
X82275238Y-43508571D01*
X82322857Y-43603809D01*
X82322857Y-43841904D01*
X82275238Y-43937142D01*
X82227619Y-43984761D01*
X82132380Y-44032380D01*
X81846666Y-44032380D01*
X81751428Y-43984761D01*
X81703809Y-43937142D01*
X82751428Y-43937142D02*
X82799047Y-43984761D01*
X82751428Y-44032380D01*
X82703809Y-43984761D01*
X82751428Y-43937142D01*
X82751428Y-44032380D01*
X83132380Y-43032380D02*
X83751428Y-43032380D01*
X83418095Y-43413333D01*
X83560952Y-43413333D01*
X83656190Y-43460952D01*
X83703809Y-43508571D01*
X83751428Y-43603809D01*
X83751428Y-43841904D01*
X83703809Y-43937142D01*
X83656190Y-43984761D01*
X83560952Y-44032380D01*
X83275238Y-44032380D01*
X83180000Y-43984761D01*
X83132380Y-43937142D01*
X84037142Y-43032380D02*
X84370476Y-44032380D01*
X84703809Y-43032380D01*
X79389523Y-43032380D02*
X78913333Y-43032380D01*
X78865714Y-43508571D01*
X78913333Y-43460952D01*
X79008571Y-43413333D01*
X79246666Y-43413333D01*
X79341904Y-43460952D01*
X79389523Y-43508571D01*
X79437142Y-43603809D01*
X79437142Y-43841904D01*
X79389523Y-43937142D01*
X79341904Y-43984761D01*
X79246666Y-44032380D01*
X79008571Y-44032380D01*
X78913333Y-43984761D01*
X78865714Y-43937142D01*
X79722857Y-43032380D02*
X80056190Y-44032380D01*
X80389523Y-43032380D01*
X105251428Y-57499047D02*
X105251428Y-57832380D01*
X104727619Y-57975238D02*
X104727619Y-57499047D01*
X105727619Y-57499047D01*
X105727619Y-57975238D01*
X104775238Y-58356190D02*
X104727619Y-58499047D01*
X104727619Y-58737142D01*
X104775238Y-58832380D01*
X104822857Y-58880000D01*
X104918095Y-58927619D01*
X105013333Y-58927619D01*
X105108571Y-58880000D01*
X105156190Y-58832380D01*
X105203809Y-58737142D01*
X105251428Y-58546666D01*
X105299047Y-58451428D01*
X105346666Y-58403809D01*
X105441904Y-58356190D01*
X105537142Y-58356190D01*
X105632380Y-58403809D01*
X105680000Y-58451428D01*
X105727619Y-58546666D01*
X105727619Y-58784761D01*
X105680000Y-58927619D01*
X104727619Y-59356190D02*
X105727619Y-59356190D01*
X105727619Y-59737142D01*
X105680000Y-59832380D01*
X105632380Y-59880000D01*
X105537142Y-59927619D01*
X105394285Y-59927619D01*
X105299047Y-59880000D01*
X105251428Y-59832380D01*
X105203809Y-59737142D01*
X105203809Y-59356190D01*
X105299047Y-60499047D02*
X105346666Y-60403809D01*
X105394285Y-60356190D01*
X105489523Y-60308571D01*
X105537142Y-60308571D01*
X105632380Y-60356190D01*
X105680000Y-60403809D01*
X105727619Y-60499047D01*
X105727619Y-60689523D01*
X105680000Y-60784761D01*
X105632380Y-60832380D01*
X105537142Y-60880000D01*
X105489523Y-60880000D01*
X105394285Y-60832380D01*
X105346666Y-60784761D01*
X105299047Y-60689523D01*
X105299047Y-60499047D01*
X105251428Y-60403809D01*
X105203809Y-60356190D01*
X105108571Y-60308571D01*
X104918095Y-60308571D01*
X104822857Y-60356190D01*
X104775238Y-60403809D01*
X104727619Y-60499047D01*
X104727619Y-60689523D01*
X104775238Y-60784761D01*
X104822857Y-60832380D01*
X104918095Y-60880000D01*
X105108571Y-60880000D01*
X105203809Y-60832380D01*
X105251428Y-60784761D01*
X105299047Y-60689523D01*
X105632380Y-61260952D02*
X105680000Y-61308571D01*
X105727619Y-61403809D01*
X105727619Y-61641904D01*
X105680000Y-61737142D01*
X105632380Y-61784761D01*
X105537142Y-61832380D01*
X105441904Y-61832380D01*
X105299047Y-61784761D01*
X104727619Y-61213333D01*
X104727619Y-61832380D01*
X105727619Y-62689523D02*
X105727619Y-62499047D01*
X105680000Y-62403809D01*
X105632380Y-62356190D01*
X105489523Y-62260952D01*
X105299047Y-62213333D01*
X104918095Y-62213333D01*
X104822857Y-62260952D01*
X104775238Y-62308571D01*
X104727619Y-62403809D01*
X104727619Y-62594285D01*
X104775238Y-62689523D01*
X104822857Y-62737142D01*
X104918095Y-62784761D01*
X105156190Y-62784761D01*
X105251428Y-62737142D01*
X105299047Y-62689523D01*
X105346666Y-62594285D01*
X105346666Y-62403809D01*
X105299047Y-62308571D01*
X105251428Y-62260952D01*
X105156190Y-62213333D01*
X105727619Y-63641904D02*
X105727619Y-63451428D01*
X105680000Y-63356190D01*
X105632380Y-63308571D01*
X105489523Y-63213333D01*
X105299047Y-63165714D01*
X104918095Y-63165714D01*
X104822857Y-63213333D01*
X104775238Y-63260952D01*
X104727619Y-63356190D01*
X104727619Y-63546666D01*
X104775238Y-63641904D01*
X104822857Y-63689523D01*
X104918095Y-63737142D01*
X105156190Y-63737142D01*
X105251428Y-63689523D01*
X105299047Y-63641904D01*
X105346666Y-63546666D01*
X105346666Y-63356190D01*
X105299047Y-63260952D01*
X105251428Y-63213333D01*
X105156190Y-63165714D01*
X104727619Y-65451428D02*
X104727619Y-64880000D01*
X104727619Y-65165714D02*
X105727619Y-65165714D01*
X105584761Y-65070476D01*
X105489523Y-64975238D01*
X105441904Y-64880000D01*
X105632380Y-65832380D02*
X105680000Y-65880000D01*
X105727619Y-65975238D01*
X105727619Y-66213333D01*
X105680000Y-66308571D01*
X105632380Y-66356190D01*
X105537142Y-66403809D01*
X105441904Y-66403809D01*
X105299047Y-66356190D01*
X104727619Y-65784761D01*
X104727619Y-66403809D01*
X105251428Y-66832380D02*
X105251428Y-67165714D01*
X104727619Y-67308571D02*
X104727619Y-66832380D01*
X105727619Y-66832380D01*
X105727619Y-67308571D01*
X90332380Y-42632380D02*
X90427619Y-42632380D01*
X90522857Y-42680000D01*
X90570476Y-42727619D01*
X90618095Y-42822857D01*
X90665714Y-43013333D01*
X90665714Y-43251428D01*
X90618095Y-43441904D01*
X90570476Y-43537142D01*
X90522857Y-43584761D01*
X90427619Y-43632380D01*
X90332380Y-43632380D01*
X90237142Y-43584761D01*
X90189523Y-43537142D01*
X90141904Y-43441904D01*
X90094285Y-43251428D01*
X90094285Y-43013333D01*
X90141904Y-42822857D01*
X90189523Y-42727619D01*
X90237142Y-42680000D01*
X90332380Y-42632380D01*
X98865714Y-22632380D02*
X98818095Y-22680000D01*
X98722857Y-22727619D01*
X98484761Y-22727619D01*
X98389523Y-22680000D01*
X98341904Y-22632380D01*
X98294285Y-22537142D01*
X98294285Y-22441904D01*
X98341904Y-22299047D01*
X98913333Y-21727619D01*
X98294285Y-21727619D01*
D10*
X76653809Y-71913333D02*
X76153809Y-72032380D01*
X76510952Y-72127619D01*
X76153809Y-72222857D01*
X76653809Y-72341904D01*
X76153809Y-72532380D02*
X76487142Y-72532380D01*
X76653809Y-72532380D02*
X76630000Y-72508571D01*
X76606190Y-72532380D01*
X76630000Y-72556190D01*
X76653809Y-72532380D01*
X76606190Y-72532380D01*
X76415714Y-72937142D02*
X76415714Y-72770476D01*
X76153809Y-72770476D02*
X76653809Y-72770476D01*
X76653809Y-73008571D01*
X76153809Y-73199047D02*
X76487142Y-73199047D01*
X76653809Y-73199047D02*
X76630000Y-73175238D01*
X76606190Y-73199047D01*
X76630000Y-73222857D01*
X76653809Y-73199047D01*
X76606190Y-73199047D01*
D11*
X67813333Y-73632380D02*
X67480000Y-73156190D01*
X67241904Y-73632380D02*
X67241904Y-72632380D01*
X67622857Y-72632380D01*
X67718095Y-72680000D01*
X67765714Y-72727619D01*
X67813333Y-72822857D01*
X67813333Y-72965714D01*
X67765714Y-73060952D01*
X67718095Y-73108571D01*
X67622857Y-73156190D01*
X67241904Y-73156190D01*
X68146666Y-72632380D02*
X68813333Y-73632380D01*
X68813333Y-72632380D02*
X68146666Y-73632380D01*
X70694285Y-81727619D02*
X71265714Y-81727619D01*
X70980000Y-81727619D02*
X70980000Y-82727619D01*
X71075238Y-82584761D01*
X71170476Y-82489523D01*
X71265714Y-82441904D01*
D10*
X58001428Y-70358571D02*
X57977619Y-70334761D01*
X57953809Y-70263333D01*
X57953809Y-70215714D01*
X57977619Y-70144285D01*
X58025238Y-70096666D01*
X58072857Y-70072857D01*
X58168095Y-70049047D01*
X58239523Y-70049047D01*
X58334761Y-70072857D01*
X58382380Y-70096666D01*
X58430000Y-70144285D01*
X58453809Y-70215714D01*
X58453809Y-70263333D01*
X58430000Y-70334761D01*
X58406190Y-70358571D01*
X57953809Y-70810952D02*
X57953809Y-70572857D01*
X58453809Y-70572857D01*
X58453809Y-71072857D02*
X58453809Y-71168095D01*
X58430000Y-71215714D01*
X58382380Y-71263333D01*
X58287142Y-71287142D01*
X58120476Y-71287142D01*
X58025238Y-71263333D01*
X57977619Y-71215714D01*
X57953809Y-71168095D01*
X57953809Y-71072857D01*
X57977619Y-71025238D01*
X58025238Y-70977619D01*
X58120476Y-70953809D01*
X58287142Y-70953809D01*
X58382380Y-70977619D01*
X58430000Y-71025238D01*
X58453809Y-71072857D01*
X58453809Y-71501428D02*
X58049047Y-71501428D01*
X58001428Y-71525238D01*
X57977619Y-71549047D01*
X57953809Y-71596666D01*
X57953809Y-71691904D01*
X57977619Y-71739523D01*
X58001428Y-71763333D01*
X58049047Y-71787142D01*
X58453809Y-71787142D01*
X57953809Y-72025238D02*
X58453809Y-72025238D01*
X58453809Y-72144285D01*
X58430000Y-72215714D01*
X58382380Y-72263333D01*
X58334761Y-72287142D01*
X58239523Y-72310952D01*
X58168095Y-72310952D01*
X58072857Y-72287142D01*
X58025238Y-72263333D01*
X57977619Y-72215714D01*
X57953809Y-72144285D01*
X57953809Y-72025238D01*
D11*
X49389523Y-73032380D02*
X48913333Y-73032380D01*
X48865714Y-73508571D01*
X48913333Y-73460952D01*
X49008571Y-73413333D01*
X49246666Y-73413333D01*
X49341904Y-73460952D01*
X49389523Y-73508571D01*
X49437142Y-73603809D01*
X49437142Y-73841904D01*
X49389523Y-73937142D01*
X49341904Y-73984761D01*
X49246666Y-74032380D01*
X49008571Y-74032380D01*
X48913333Y-73984761D01*
X48865714Y-73937142D01*
X49722857Y-73032380D02*
X50056190Y-74032380D01*
X50389523Y-73032380D01*
D10*
X76653809Y-101913333D02*
X76153809Y-102032380D01*
X76510952Y-102127619D01*
X76153809Y-102222857D01*
X76653809Y-102341904D01*
X76153809Y-102532380D02*
X76487142Y-102532380D01*
X76653809Y-102532380D02*
X76630000Y-102508571D01*
X76606190Y-102532380D01*
X76630000Y-102556190D01*
X76653809Y-102532380D01*
X76606190Y-102532380D01*
X76415714Y-102937142D02*
X76415714Y-102770476D01*
X76153809Y-102770476D02*
X76653809Y-102770476D01*
X76653809Y-103008571D01*
X76153809Y-103199047D02*
X76487142Y-103199047D01*
X76653809Y-103199047D02*
X76630000Y-103175238D01*
X76606190Y-103199047D01*
X76630000Y-103222857D01*
X76653809Y-103199047D01*
X76606190Y-103199047D01*
D11*
X67813333Y-103632380D02*
X67480000Y-103156190D01*
X67241904Y-103632380D02*
X67241904Y-102632380D01*
X67622857Y-102632380D01*
X67718095Y-102680000D01*
X67765714Y-102727619D01*
X67813333Y-102822857D01*
X67813333Y-102965714D01*
X67765714Y-103060952D01*
X67718095Y-103108571D01*
X67622857Y-103156190D01*
X67241904Y-103156190D01*
X68146666Y-102632380D02*
X68813333Y-103632380D01*
X68813333Y-102632380D02*
X68146666Y-103632380D01*
X68865714Y-82632380D02*
X68818095Y-82680000D01*
X68722857Y-82727619D01*
X68484761Y-82727619D01*
X68389523Y-82680000D01*
X68341904Y-82632380D01*
X68294285Y-82537142D01*
X68294285Y-82441904D01*
X68341904Y-82299047D01*
X68913333Y-81727619D01*
X68294285Y-81727619D01*
X60332380Y-72632380D02*
X60427619Y-72632380D01*
X60522857Y-72680000D01*
X60570476Y-72727619D01*
X60618095Y-72822857D01*
X60665714Y-73013333D01*
X60665714Y-73251428D01*
X60618095Y-73441904D01*
X60570476Y-73537142D01*
X60522857Y-73584761D01*
X60427619Y-73632380D01*
X60332380Y-73632380D01*
X60237142Y-73584761D01*
X60189523Y-73537142D01*
X60141904Y-73441904D01*
X60094285Y-73251428D01*
X60094285Y-73013333D01*
X60141904Y-72822857D01*
X60189523Y-72727619D01*
X60237142Y-72680000D01*
X60332380Y-72632380D01*
X66313333Y-52727619D02*
X65694285Y-52727619D01*
X66027619Y-52346666D01*
X65884761Y-52346666D01*
X65789523Y-52299047D01*
X65741904Y-52251428D01*
X65694285Y-52156190D01*
X65694285Y-51918095D01*
X65741904Y-51822857D01*
X65789523Y-51775238D01*
X65884761Y-51727619D01*
X66170476Y-51727619D01*
X66265714Y-51775238D01*
X66313333Y-51822857D01*
X51703809Y-103032380D02*
X52322857Y-103032380D01*
X51989523Y-103413333D01*
X52132380Y-103413333D01*
X52227619Y-103460952D01*
X52275238Y-103508571D01*
X52322857Y-103603809D01*
X52322857Y-103841904D01*
X52275238Y-103937142D01*
X52227619Y-103984761D01*
X52132380Y-104032380D01*
X51846666Y-104032380D01*
X51751428Y-103984761D01*
X51703809Y-103937142D01*
X52751428Y-103937142D02*
X52799047Y-103984761D01*
X52751428Y-104032380D01*
X52703809Y-103984761D01*
X52751428Y-103937142D01*
X52751428Y-104032380D01*
X53132380Y-103032380D02*
X53751428Y-103032380D01*
X53418095Y-103413333D01*
X53560952Y-103413333D01*
X53656190Y-103460952D01*
X53703809Y-103508571D01*
X53751428Y-103603809D01*
X53751428Y-103841904D01*
X53703809Y-103937142D01*
X53656190Y-103984761D01*
X53560952Y-104032380D01*
X53275238Y-104032380D01*
X53180000Y-103984761D01*
X53132380Y-103937142D01*
X54037142Y-103032380D02*
X54370476Y-104032380D01*
X54703809Y-103032380D01*
D10*
X58001428Y-100358571D02*
X57977619Y-100334761D01*
X57953809Y-100263333D01*
X57953809Y-100215714D01*
X57977619Y-100144285D01*
X58025238Y-100096666D01*
X58072857Y-100072857D01*
X58168095Y-100049047D01*
X58239523Y-100049047D01*
X58334761Y-100072857D01*
X58382380Y-100096666D01*
X58430000Y-100144285D01*
X58453809Y-100215714D01*
X58453809Y-100263333D01*
X58430000Y-100334761D01*
X58406190Y-100358571D01*
X57953809Y-100810952D02*
X57953809Y-100572857D01*
X58453809Y-100572857D01*
X58453809Y-101072857D02*
X58453809Y-101168095D01*
X58430000Y-101215714D01*
X58382380Y-101263333D01*
X58287142Y-101287142D01*
X58120476Y-101287142D01*
X58025238Y-101263333D01*
X57977619Y-101215714D01*
X57953809Y-101168095D01*
X57953809Y-101072857D01*
X57977619Y-101025238D01*
X58025238Y-100977619D01*
X58120476Y-100953809D01*
X58287142Y-100953809D01*
X58382380Y-100977619D01*
X58430000Y-101025238D01*
X58453809Y-101072857D01*
X58453809Y-101501428D02*
X58049047Y-101501428D01*
X58001428Y-101525238D01*
X57977619Y-101549047D01*
X57953809Y-101596666D01*
X57953809Y-101691904D01*
X57977619Y-101739523D01*
X58001428Y-101763333D01*
X58049047Y-101787142D01*
X58453809Y-101787142D01*
X57953809Y-102025238D02*
X58453809Y-102025238D01*
X58453809Y-102144285D01*
X58430000Y-102215714D01*
X58382380Y-102263333D01*
X58334761Y-102287142D01*
X58239523Y-102310952D01*
X58168095Y-102310952D01*
X58072857Y-102287142D01*
X58025238Y-102263333D01*
X57977619Y-102215714D01*
X57953809Y-102144285D01*
X57953809Y-102025238D01*
D11*
X63189523Y-82394285D02*
X63189523Y-81727619D01*
X63427619Y-82775238D02*
X63665714Y-82060952D01*
X63046666Y-82060952D01*
X56241904Y-102880000D02*
X56146666Y-102832380D01*
X56003809Y-102832380D01*
X55860952Y-102880000D01*
X55765714Y-102975238D01*
X55718095Y-103070476D01*
X55670476Y-103260952D01*
X55670476Y-103403809D01*
X55718095Y-103594285D01*
X55765714Y-103689523D01*
X55860952Y-103784761D01*
X56003809Y-103832380D01*
X56099047Y-103832380D01*
X56241904Y-103784761D01*
X56289523Y-103737142D01*
X56289523Y-103403809D01*
X56099047Y-103403809D01*
X62065714Y-73346666D02*
X62541904Y-73346666D01*
X61970476Y-73632380D02*
X62303809Y-72632380D01*
X62637142Y-73632380D01*
X63160952Y-72632380D02*
X63256190Y-72632380D01*
X63351428Y-72680000D01*
X63399047Y-72727619D01*
X63446666Y-72822857D01*
X63494285Y-73013333D01*
X63494285Y-73251428D01*
X63446666Y-73441904D01*
X63399047Y-73537142D01*
X63351428Y-73584761D01*
X63256190Y-73632380D01*
X63160952Y-73632380D01*
X63065714Y-73584761D01*
X63018095Y-73537142D01*
X62970476Y-73441904D01*
X62922857Y-73251428D01*
X62922857Y-73013333D01*
X62970476Y-72822857D01*
X63018095Y-72727619D01*
X63065714Y-72680000D01*
X63160952Y-72632380D01*
X68865714Y-52632380D02*
X68818095Y-52680000D01*
X68722857Y-52727619D01*
X68484761Y-52727619D01*
X68389523Y-52680000D01*
X68341904Y-52632380D01*
X68294285Y-52537142D01*
X68294285Y-52441904D01*
X68341904Y-52299047D01*
X68913333Y-51727619D01*
X68294285Y-51727619D01*
X56241904Y-72880000D02*
X56146666Y-72832380D01*
X56003809Y-72832380D01*
X55860952Y-72880000D01*
X55765714Y-72975238D01*
X55718095Y-73070476D01*
X55670476Y-73260952D01*
X55670476Y-73403809D01*
X55718095Y-73594285D01*
X55765714Y-73689523D01*
X55860952Y-73784761D01*
X56003809Y-73832380D01*
X56099047Y-73832380D01*
X56241904Y-73784761D01*
X56289523Y-73737142D01*
X56289523Y-73403809D01*
X56099047Y-73403809D01*
X63189523Y-52394285D02*
X63189523Y-51727619D01*
X63427619Y-52775238D02*
X63665714Y-52060952D01*
X63046666Y-52060952D01*
X51703809Y-73032380D02*
X52322857Y-73032380D01*
X51989523Y-73413333D01*
X52132380Y-73413333D01*
X52227619Y-73460952D01*
X52275238Y-73508571D01*
X52322857Y-73603809D01*
X52322857Y-73841904D01*
X52275238Y-73937142D01*
X52227619Y-73984761D01*
X52132380Y-74032380D01*
X51846666Y-74032380D01*
X51751428Y-73984761D01*
X51703809Y-73937142D01*
X52751428Y-73937142D02*
X52799047Y-73984761D01*
X52751428Y-74032380D01*
X52703809Y-73984761D01*
X52751428Y-73937142D01*
X52751428Y-74032380D01*
X53132380Y-73032380D02*
X53751428Y-73032380D01*
X53418095Y-73413333D01*
X53560952Y-73413333D01*
X53656190Y-73460952D01*
X53703809Y-73508571D01*
X53751428Y-73603809D01*
X53751428Y-73841904D01*
X53703809Y-73937142D01*
X53656190Y-73984761D01*
X53560952Y-74032380D01*
X53275238Y-74032380D01*
X53180000Y-73984761D01*
X53132380Y-73937142D01*
X54037142Y-73032380D02*
X54370476Y-74032380D01*
X54703809Y-73032380D01*
X49389523Y-103032380D02*
X48913333Y-103032380D01*
X48865714Y-103508571D01*
X48913333Y-103460952D01*
X49008571Y-103413333D01*
X49246666Y-103413333D01*
X49341904Y-103460952D01*
X49389523Y-103508571D01*
X49437142Y-103603809D01*
X49437142Y-103841904D01*
X49389523Y-103937142D01*
X49341904Y-103984761D01*
X49246666Y-104032380D01*
X49008571Y-104032380D01*
X48913333Y-103984761D01*
X48865714Y-103937142D01*
X49722857Y-103032380D02*
X50056190Y-104032380D01*
X50389523Y-103032380D01*
X75251428Y-87499047D02*
X75251428Y-87832380D01*
X74727619Y-87975238D02*
X74727619Y-87499047D01*
X75727619Y-87499047D01*
X75727619Y-87975238D01*
X74775238Y-88356190D02*
X74727619Y-88499047D01*
X74727619Y-88737142D01*
X74775238Y-88832380D01*
X74822857Y-88880000D01*
X74918095Y-88927619D01*
X75013333Y-88927619D01*
X75108571Y-88880000D01*
X75156190Y-88832380D01*
X75203809Y-88737142D01*
X75251428Y-88546666D01*
X75299047Y-88451428D01*
X75346666Y-88403809D01*
X75441904Y-88356190D01*
X75537142Y-88356190D01*
X75632380Y-88403809D01*
X75680000Y-88451428D01*
X75727619Y-88546666D01*
X75727619Y-88784761D01*
X75680000Y-88927619D01*
X74727619Y-89356190D02*
X75727619Y-89356190D01*
X75727619Y-89737142D01*
X75680000Y-89832380D01*
X75632380Y-89880000D01*
X75537142Y-89927619D01*
X75394285Y-89927619D01*
X75299047Y-89880000D01*
X75251428Y-89832380D01*
X75203809Y-89737142D01*
X75203809Y-89356190D01*
X75299047Y-90499047D02*
X75346666Y-90403809D01*
X75394285Y-90356190D01*
X75489523Y-90308571D01*
X75537142Y-90308571D01*
X75632380Y-90356190D01*
X75680000Y-90403809D01*
X75727619Y-90499047D01*
X75727619Y-90689523D01*
X75680000Y-90784761D01*
X75632380Y-90832380D01*
X75537142Y-90880000D01*
X75489523Y-90880000D01*
X75394285Y-90832380D01*
X75346666Y-90784761D01*
X75299047Y-90689523D01*
X75299047Y-90499047D01*
X75251428Y-90403809D01*
X75203809Y-90356190D01*
X75108571Y-90308571D01*
X74918095Y-90308571D01*
X74822857Y-90356190D01*
X74775238Y-90403809D01*
X74727619Y-90499047D01*
X74727619Y-90689523D01*
X74775238Y-90784761D01*
X74822857Y-90832380D01*
X74918095Y-90880000D01*
X75108571Y-90880000D01*
X75203809Y-90832380D01*
X75251428Y-90784761D01*
X75299047Y-90689523D01*
X75632380Y-91260952D02*
X75680000Y-91308571D01*
X75727619Y-91403809D01*
X75727619Y-91641904D01*
X75680000Y-91737142D01*
X75632380Y-91784761D01*
X75537142Y-91832380D01*
X75441904Y-91832380D01*
X75299047Y-91784761D01*
X74727619Y-91213333D01*
X74727619Y-91832380D01*
X75727619Y-92689523D02*
X75727619Y-92499047D01*
X75680000Y-92403809D01*
X75632380Y-92356190D01*
X75489523Y-92260952D01*
X75299047Y-92213333D01*
X74918095Y-92213333D01*
X74822857Y-92260952D01*
X74775238Y-92308571D01*
X74727619Y-92403809D01*
X74727619Y-92594285D01*
X74775238Y-92689523D01*
X74822857Y-92737142D01*
X74918095Y-92784761D01*
X75156190Y-92784761D01*
X75251428Y-92737142D01*
X75299047Y-92689523D01*
X75346666Y-92594285D01*
X75346666Y-92403809D01*
X75299047Y-92308571D01*
X75251428Y-92260952D01*
X75156190Y-92213333D01*
X75727619Y-93641904D02*
X75727619Y-93451428D01*
X75680000Y-93356190D01*
X75632380Y-93308571D01*
X75489523Y-93213333D01*
X75299047Y-93165714D01*
X74918095Y-93165714D01*
X74822857Y-93213333D01*
X74775238Y-93260952D01*
X74727619Y-93356190D01*
X74727619Y-93546666D01*
X74775238Y-93641904D01*
X74822857Y-93689523D01*
X74918095Y-93737142D01*
X75156190Y-93737142D01*
X75251428Y-93689523D01*
X75299047Y-93641904D01*
X75346666Y-93546666D01*
X75346666Y-93356190D01*
X75299047Y-93260952D01*
X75251428Y-93213333D01*
X75156190Y-93165714D01*
X74727619Y-95451428D02*
X74727619Y-94880000D01*
X74727619Y-95165714D02*
X75727619Y-95165714D01*
X75584761Y-95070476D01*
X75489523Y-94975238D01*
X75441904Y-94880000D01*
X75632380Y-95832380D02*
X75680000Y-95880000D01*
X75727619Y-95975238D01*
X75727619Y-96213333D01*
X75680000Y-96308571D01*
X75632380Y-96356190D01*
X75537142Y-96403809D01*
X75441904Y-96403809D01*
X75299047Y-96356190D01*
X74727619Y-95784761D01*
X74727619Y-96403809D01*
X75251428Y-96832380D02*
X75251428Y-97165714D01*
X74727619Y-97308571D02*
X74727619Y-96832380D01*
X75727619Y-96832380D01*
X75727619Y-97308571D01*
X70694285Y-21727619D02*
X71265714Y-21727619D01*
X70980000Y-21727619D02*
X70980000Y-22727619D01*
X71075238Y-22584761D01*
X71170476Y-22489523D01*
X71265714Y-22441904D01*
X64618095Y-42632380D02*
X65189523Y-42632380D01*
X64903809Y-43632380D02*
X64903809Y-42632380D01*
X65427619Y-42632380D02*
X66094285Y-43632380D01*
X66094285Y-42632380D02*
X65427619Y-43632380D01*
X70694285Y-51727619D02*
X71265714Y-51727619D01*
X70980000Y-51727619D02*
X70980000Y-52727619D01*
X71075238Y-52584761D01*
X71170476Y-52489523D01*
X71265714Y-52441904D01*
X60332380Y-102632380D02*
X60427619Y-102632380D01*
X60522857Y-102680000D01*
X60570476Y-102727619D01*
X60618095Y-102822857D01*
X60665714Y-103013333D01*
X60665714Y-103251428D01*
X60618095Y-103441904D01*
X60570476Y-103537142D01*
X60522857Y-103584761D01*
X60427619Y-103632380D01*
X60332380Y-103632380D01*
X60237142Y-103584761D01*
X60189523Y-103537142D01*
X60141904Y-103441904D01*
X60094285Y-103251428D01*
X60094285Y-103013333D01*
X60141904Y-102822857D01*
X60189523Y-102727619D01*
X60237142Y-102680000D01*
X60332380Y-102632380D01*
D10*
X76653809Y-41913333D02*
X76153809Y-42032380D01*
X76510952Y-42127619D01*
X76153809Y-42222857D01*
X76653809Y-42341904D01*
X76153809Y-42532380D02*
X76487142Y-42532380D01*
X76653809Y-42532380D02*
X76630000Y-42508571D01*
X76606190Y-42532380D01*
X76630000Y-42556190D01*
X76653809Y-42532380D01*
X76606190Y-42532380D01*
X76415714Y-42937142D02*
X76415714Y-42770476D01*
X76153809Y-42770476D02*
X76653809Y-42770476D01*
X76653809Y-43008571D01*
X76153809Y-43199047D02*
X76487142Y-43199047D01*
X76653809Y-43199047D02*
X76630000Y-43175238D01*
X76606190Y-43199047D01*
X76630000Y-43222857D01*
X76653809Y-43199047D01*
X76606190Y-43199047D01*
D11*
X67813333Y-43632380D02*
X67480000Y-43156190D01*
X67241904Y-43632380D02*
X67241904Y-42632380D01*
X67622857Y-42632380D01*
X67718095Y-42680000D01*
X67765714Y-42727619D01*
X67813333Y-42822857D01*
X67813333Y-42965714D01*
X67765714Y-43060952D01*
X67718095Y-43108571D01*
X67622857Y-43156190D01*
X67241904Y-43156190D01*
X68146666Y-42632380D02*
X68813333Y-43632380D01*
X68813333Y-42632380D02*
X68146666Y-43632380D01*
X62065714Y-103346666D02*
X62541904Y-103346666D01*
X61970476Y-103632380D02*
X62303809Y-102632380D01*
X62637142Y-103632380D01*
X63160952Y-102632380D02*
X63256190Y-102632380D01*
X63351428Y-102680000D01*
X63399047Y-102727619D01*
X63446666Y-102822857D01*
X63494285Y-103013333D01*
X63494285Y-103251428D01*
X63446666Y-103441904D01*
X63399047Y-103537142D01*
X63351428Y-103584761D01*
X63256190Y-103632380D01*
X63160952Y-103632380D01*
X63065714Y-103584761D01*
X63018095Y-103537142D01*
X62970476Y-103441904D01*
X62922857Y-103251428D01*
X62922857Y-103013333D01*
X62970476Y-102822857D01*
X63018095Y-102727619D01*
X63065714Y-102680000D01*
X63160952Y-102632380D01*
X66313333Y-82727619D02*
X65694285Y-82727619D01*
X66027619Y-82346666D01*
X65884761Y-82346666D01*
X65789523Y-82299047D01*
X65741904Y-82251428D01*
X65694285Y-82156190D01*
X65694285Y-81918095D01*
X65741904Y-81822857D01*
X65789523Y-81775238D01*
X65884761Y-81727619D01*
X66170476Y-81727619D01*
X66265714Y-81775238D01*
X66313333Y-81822857D01*
X64618095Y-102632380D02*
X65189523Y-102632380D01*
X64903809Y-103632380D02*
X64903809Y-102632380D01*
X65427619Y-102632380D02*
X66094285Y-103632380D01*
X66094285Y-102632380D02*
X65427619Y-103632380D01*
X66313333Y-22727619D02*
X65694285Y-22727619D01*
X66027619Y-22346666D01*
X65884761Y-22346666D01*
X65789523Y-22299047D01*
X65741904Y-22251428D01*
X65694285Y-22156190D01*
X65694285Y-21918095D01*
X65741904Y-21822857D01*
X65789523Y-21775238D01*
X65884761Y-21727619D01*
X66170476Y-21727619D01*
X66265714Y-21775238D01*
X66313333Y-21822857D01*
X64618095Y-72632380D02*
X65189523Y-72632380D01*
X64903809Y-73632380D02*
X64903809Y-72632380D01*
X65427619Y-72632380D02*
X66094285Y-73632380D01*
X66094285Y-72632380D02*
X65427619Y-73632380D01*
X75251428Y-27499047D02*
X75251428Y-27832380D01*
X74727619Y-27975238D02*
X74727619Y-27499047D01*
X75727619Y-27499047D01*
X75727619Y-27975238D01*
X74775238Y-28356190D02*
X74727619Y-28499047D01*
X74727619Y-28737142D01*
X74775238Y-28832380D01*
X74822857Y-28880000D01*
X74918095Y-28927619D01*
X75013333Y-28927619D01*
X75108571Y-28880000D01*
X75156190Y-28832380D01*
X75203809Y-28737142D01*
X75251428Y-28546666D01*
X75299047Y-28451428D01*
X75346666Y-28403809D01*
X75441904Y-28356190D01*
X75537142Y-28356190D01*
X75632380Y-28403809D01*
X75680000Y-28451428D01*
X75727619Y-28546666D01*
X75727619Y-28784761D01*
X75680000Y-28927619D01*
X74727619Y-29356190D02*
X75727619Y-29356190D01*
X75727619Y-29737142D01*
X75680000Y-29832380D01*
X75632380Y-29880000D01*
X75537142Y-29927619D01*
X75394285Y-29927619D01*
X75299047Y-29880000D01*
X75251428Y-29832380D01*
X75203809Y-29737142D01*
X75203809Y-29356190D01*
X75299047Y-30499047D02*
X75346666Y-30403809D01*
X75394285Y-30356190D01*
X75489523Y-30308571D01*
X75537142Y-30308571D01*
X75632380Y-30356190D01*
X75680000Y-30403809D01*
X75727619Y-30499047D01*
X75727619Y-30689523D01*
X75680000Y-30784761D01*
X75632380Y-30832380D01*
X75537142Y-30880000D01*
X75489523Y-30880000D01*
X75394285Y-30832380D01*
X75346666Y-30784761D01*
X75299047Y-30689523D01*
X75299047Y-30499047D01*
X75251428Y-30403809D01*
X75203809Y-30356190D01*
X75108571Y-30308571D01*
X74918095Y-30308571D01*
X74822857Y-30356190D01*
X74775238Y-30403809D01*
X74727619Y-30499047D01*
X74727619Y-30689523D01*
X74775238Y-30784761D01*
X74822857Y-30832380D01*
X74918095Y-30880000D01*
X75108571Y-30880000D01*
X75203809Y-30832380D01*
X75251428Y-30784761D01*
X75299047Y-30689523D01*
X75632380Y-31260952D02*
X75680000Y-31308571D01*
X75727619Y-31403809D01*
X75727619Y-31641904D01*
X75680000Y-31737142D01*
X75632380Y-31784761D01*
X75537142Y-31832380D01*
X75441904Y-31832380D01*
X75299047Y-31784761D01*
X74727619Y-31213333D01*
X74727619Y-31832380D01*
X75727619Y-32689523D02*
X75727619Y-32499047D01*
X75680000Y-32403809D01*
X75632380Y-32356190D01*
X75489523Y-32260952D01*
X75299047Y-32213333D01*
X74918095Y-32213333D01*
X74822857Y-32260952D01*
X74775238Y-32308571D01*
X74727619Y-32403809D01*
X74727619Y-32594285D01*
X74775238Y-32689523D01*
X74822857Y-32737142D01*
X74918095Y-32784761D01*
X75156190Y-32784761D01*
X75251428Y-32737142D01*
X75299047Y-32689523D01*
X75346666Y-32594285D01*
X75346666Y-32403809D01*
X75299047Y-32308571D01*
X75251428Y-32260952D01*
X75156190Y-32213333D01*
X75727619Y-33641904D02*
X75727619Y-33451428D01*
X75680000Y-33356190D01*
X75632380Y-33308571D01*
X75489523Y-33213333D01*
X75299047Y-33165714D01*
X74918095Y-33165714D01*
X74822857Y-33213333D01*
X74775238Y-33260952D01*
X74727619Y-33356190D01*
X74727619Y-33546666D01*
X74775238Y-33641904D01*
X74822857Y-33689523D01*
X74918095Y-33737142D01*
X75156190Y-33737142D01*
X75251428Y-33689523D01*
X75299047Y-33641904D01*
X75346666Y-33546666D01*
X75346666Y-33356190D01*
X75299047Y-33260952D01*
X75251428Y-33213333D01*
X75156190Y-33165714D01*
X74727619Y-35451428D02*
X74727619Y-34880000D01*
X74727619Y-35165714D02*
X75727619Y-35165714D01*
X75584761Y-35070476D01*
X75489523Y-34975238D01*
X75441904Y-34880000D01*
X75632380Y-35832380D02*
X75680000Y-35880000D01*
X75727619Y-35975238D01*
X75727619Y-36213333D01*
X75680000Y-36308571D01*
X75632380Y-36356190D01*
X75537142Y-36403809D01*
X75441904Y-36403809D01*
X75299047Y-36356190D01*
X74727619Y-35784761D01*
X74727619Y-36403809D01*
X75251428Y-36832380D02*
X75251428Y-37165714D01*
X74727619Y-37308571D02*
X74727619Y-36832380D01*
X75727619Y-36832380D01*
X75727619Y-37308571D01*
D10*
X58001428Y-40358571D02*
X57977619Y-40334761D01*
X57953809Y-40263333D01*
X57953809Y-40215714D01*
X57977619Y-40144285D01*
X58025238Y-40096666D01*
X58072857Y-40072857D01*
X58168095Y-40049047D01*
X58239523Y-40049047D01*
X58334761Y-40072857D01*
X58382380Y-40096666D01*
X58430000Y-40144285D01*
X58453809Y-40215714D01*
X58453809Y-40263333D01*
X58430000Y-40334761D01*
X58406190Y-40358571D01*
X57953809Y-40810952D02*
X57953809Y-40572857D01*
X58453809Y-40572857D01*
X58453809Y-41072857D02*
X58453809Y-41168095D01*
X58430000Y-41215714D01*
X58382380Y-41263333D01*
X58287142Y-41287142D01*
X58120476Y-41287142D01*
X58025238Y-41263333D01*
X57977619Y-41215714D01*
X57953809Y-41168095D01*
X57953809Y-41072857D01*
X57977619Y-41025238D01*
X58025238Y-40977619D01*
X58120476Y-40953809D01*
X58287142Y-40953809D01*
X58382380Y-40977619D01*
X58430000Y-41025238D01*
X58453809Y-41072857D01*
X58453809Y-41501428D02*
X58049047Y-41501428D01*
X58001428Y-41525238D01*
X57977619Y-41549047D01*
X57953809Y-41596666D01*
X57953809Y-41691904D01*
X57977619Y-41739523D01*
X58001428Y-41763333D01*
X58049047Y-41787142D01*
X58453809Y-41787142D01*
X57953809Y-42025238D02*
X58453809Y-42025238D01*
X58453809Y-42144285D01*
X58430000Y-42215714D01*
X58382380Y-42263333D01*
X58334761Y-42287142D01*
X58239523Y-42310952D01*
X58168095Y-42310952D01*
X58072857Y-42287142D01*
X58025238Y-42263333D01*
X57977619Y-42215714D01*
X57953809Y-42144285D01*
X57953809Y-42025238D01*
D11*
X63189523Y-22394285D02*
X63189523Y-21727619D01*
X63427619Y-22775238D02*
X63665714Y-22060952D01*
X63046666Y-22060952D01*
X56241904Y-42880000D02*
X56146666Y-42832380D01*
X56003809Y-42832380D01*
X55860952Y-42880000D01*
X55765714Y-42975238D01*
X55718095Y-43070476D01*
X55670476Y-43260952D01*
X55670476Y-43403809D01*
X55718095Y-43594285D01*
X55765714Y-43689523D01*
X55860952Y-43784761D01*
X56003809Y-43832380D01*
X56099047Y-43832380D01*
X56241904Y-43784761D01*
X56289523Y-43737142D01*
X56289523Y-43403809D01*
X56099047Y-43403809D01*
X62065714Y-43346666D02*
X62541904Y-43346666D01*
X61970476Y-43632380D02*
X62303809Y-42632380D01*
X62637142Y-43632380D01*
X63160952Y-42632380D02*
X63256190Y-42632380D01*
X63351428Y-42680000D01*
X63399047Y-42727619D01*
X63446666Y-42822857D01*
X63494285Y-43013333D01*
X63494285Y-43251428D01*
X63446666Y-43441904D01*
X63399047Y-43537142D01*
X63351428Y-43584761D01*
X63256190Y-43632380D01*
X63160952Y-43632380D01*
X63065714Y-43584761D01*
X63018095Y-43537142D01*
X62970476Y-43441904D01*
X62922857Y-43251428D01*
X62922857Y-43013333D01*
X62970476Y-42822857D01*
X63018095Y-42727619D01*
X63065714Y-42680000D01*
X63160952Y-42632380D01*
X51703809Y-43032380D02*
X52322857Y-43032380D01*
X51989523Y-43413333D01*
X52132380Y-43413333D01*
X52227619Y-43460952D01*
X52275238Y-43508571D01*
X52322857Y-43603809D01*
X52322857Y-43841904D01*
X52275238Y-43937142D01*
X52227619Y-43984761D01*
X52132380Y-44032380D01*
X51846666Y-44032380D01*
X51751428Y-43984761D01*
X51703809Y-43937142D01*
X52751428Y-43937142D02*
X52799047Y-43984761D01*
X52751428Y-44032380D01*
X52703809Y-43984761D01*
X52751428Y-43937142D01*
X52751428Y-44032380D01*
X53132380Y-43032380D02*
X53751428Y-43032380D01*
X53418095Y-43413333D01*
X53560952Y-43413333D01*
X53656190Y-43460952D01*
X53703809Y-43508571D01*
X53751428Y-43603809D01*
X53751428Y-43841904D01*
X53703809Y-43937142D01*
X53656190Y-43984761D01*
X53560952Y-44032380D01*
X53275238Y-44032380D01*
X53180000Y-43984761D01*
X53132380Y-43937142D01*
X54037142Y-43032380D02*
X54370476Y-44032380D01*
X54703809Y-43032380D01*
X49389523Y-43032380D02*
X48913333Y-43032380D01*
X48865714Y-43508571D01*
X48913333Y-43460952D01*
X49008571Y-43413333D01*
X49246666Y-43413333D01*
X49341904Y-43460952D01*
X49389523Y-43508571D01*
X49437142Y-43603809D01*
X49437142Y-43841904D01*
X49389523Y-43937142D01*
X49341904Y-43984761D01*
X49246666Y-44032380D01*
X49008571Y-44032380D01*
X48913333Y-43984761D01*
X48865714Y-43937142D01*
X49722857Y-43032380D02*
X50056190Y-44032380D01*
X50389523Y-43032380D01*
X75251428Y-57499047D02*
X75251428Y-57832380D01*
X74727619Y-57975238D02*
X74727619Y-57499047D01*
X75727619Y-57499047D01*
X75727619Y-57975238D01*
X74775238Y-58356190D02*
X74727619Y-58499047D01*
X74727619Y-58737142D01*
X74775238Y-58832380D01*
X74822857Y-58880000D01*
X74918095Y-58927619D01*
X75013333Y-58927619D01*
X75108571Y-58880000D01*
X75156190Y-58832380D01*
X75203809Y-58737142D01*
X75251428Y-58546666D01*
X75299047Y-58451428D01*
X75346666Y-58403809D01*
X75441904Y-58356190D01*
X75537142Y-58356190D01*
X75632380Y-58403809D01*
X75680000Y-58451428D01*
X75727619Y-58546666D01*
X75727619Y-58784761D01*
X75680000Y-58927619D01*
X74727619Y-59356190D02*
X75727619Y-59356190D01*
X75727619Y-59737142D01*
X75680000Y-59832380D01*
X75632380Y-59880000D01*
X75537142Y-59927619D01*
X75394285Y-59927619D01*
X75299047Y-59880000D01*
X75251428Y-59832380D01*
X75203809Y-59737142D01*
X75203809Y-59356190D01*
X75299047Y-60499047D02*
X75346666Y-60403809D01*
X75394285Y-60356190D01*
X75489523Y-60308571D01*
X75537142Y-60308571D01*
X75632380Y-60356190D01*
X75680000Y-60403809D01*
X75727619Y-60499047D01*
X75727619Y-60689523D01*
X75680000Y-60784761D01*
X75632380Y-60832380D01*
X75537142Y-60880000D01*
X75489523Y-60880000D01*
X75394285Y-60832380D01*
X75346666Y-60784761D01*
X75299047Y-60689523D01*
X75299047Y-60499047D01*
X75251428Y-60403809D01*
X75203809Y-60356190D01*
X75108571Y-60308571D01*
X74918095Y-60308571D01*
X74822857Y-60356190D01*
X74775238Y-60403809D01*
X74727619Y-60499047D01*
X74727619Y-60689523D01*
X74775238Y-60784761D01*
X74822857Y-60832380D01*
X74918095Y-60880000D01*
X75108571Y-60880000D01*
X75203809Y-60832380D01*
X75251428Y-60784761D01*
X75299047Y-60689523D01*
X75632380Y-61260952D02*
X75680000Y-61308571D01*
X75727619Y-61403809D01*
X75727619Y-61641904D01*
X75680000Y-61737142D01*
X75632380Y-61784761D01*
X75537142Y-61832380D01*
X75441904Y-61832380D01*
X75299047Y-61784761D01*
X74727619Y-61213333D01*
X74727619Y-61832380D01*
X75727619Y-62689523D02*
X75727619Y-62499047D01*
X75680000Y-62403809D01*
X75632380Y-62356190D01*
X75489523Y-62260952D01*
X75299047Y-62213333D01*
X74918095Y-62213333D01*
X74822857Y-62260952D01*
X74775238Y-62308571D01*
X74727619Y-62403809D01*
X74727619Y-62594285D01*
X74775238Y-62689523D01*
X74822857Y-62737142D01*
X74918095Y-62784761D01*
X75156190Y-62784761D01*
X75251428Y-62737142D01*
X75299047Y-62689523D01*
X75346666Y-62594285D01*
X75346666Y-62403809D01*
X75299047Y-62308571D01*
X75251428Y-62260952D01*
X75156190Y-62213333D01*
X75727619Y-63641904D02*
X75727619Y-63451428D01*
X75680000Y-63356190D01*
X75632380Y-63308571D01*
X75489523Y-63213333D01*
X75299047Y-63165714D01*
X74918095Y-63165714D01*
X74822857Y-63213333D01*
X74775238Y-63260952D01*
X74727619Y-63356190D01*
X74727619Y-63546666D01*
X74775238Y-63641904D01*
X74822857Y-63689523D01*
X74918095Y-63737142D01*
X75156190Y-63737142D01*
X75251428Y-63689523D01*
X75299047Y-63641904D01*
X75346666Y-63546666D01*
X75346666Y-63356190D01*
X75299047Y-63260952D01*
X75251428Y-63213333D01*
X75156190Y-63165714D01*
X74727619Y-65451428D02*
X74727619Y-64880000D01*
X74727619Y-65165714D02*
X75727619Y-65165714D01*
X75584761Y-65070476D01*
X75489523Y-64975238D01*
X75441904Y-64880000D01*
X75632380Y-65832380D02*
X75680000Y-65880000D01*
X75727619Y-65975238D01*
X75727619Y-66213333D01*
X75680000Y-66308571D01*
X75632380Y-66356190D01*
X75537142Y-66403809D01*
X75441904Y-66403809D01*
X75299047Y-66356190D01*
X74727619Y-65784761D01*
X74727619Y-66403809D01*
X75251428Y-66832380D02*
X75251428Y-67165714D01*
X74727619Y-67308571D02*
X74727619Y-66832380D01*
X75727619Y-66832380D01*
X75727619Y-67308571D01*
X60332380Y-42632380D02*
X60427619Y-42632380D01*
X60522857Y-42680000D01*
X60570476Y-42727619D01*
X60618095Y-42822857D01*
X60665714Y-43013333D01*
X60665714Y-43251428D01*
X60618095Y-43441904D01*
X60570476Y-43537142D01*
X60522857Y-43584761D01*
X60427619Y-43632380D01*
X60332380Y-43632380D01*
X60237142Y-43584761D01*
X60189523Y-43537142D01*
X60141904Y-43441904D01*
X60094285Y-43251428D01*
X60094285Y-43013333D01*
X60141904Y-42822857D01*
X60189523Y-42727619D01*
X60237142Y-42680000D01*
X60332380Y-42632380D01*
X68865714Y-22632380D02*
X68818095Y-22680000D01*
X68722857Y-22727619D01*
X68484761Y-22727619D01*
X68389523Y-22680000D01*
X68341904Y-22632380D01*
X68294285Y-22537142D01*
X68294285Y-22441904D01*
X68341904Y-22299047D01*
X68913333Y-21727619D01*
X68294285Y-21727619D01*
X40694285Y-81727619D02*
X41265714Y-81727619D01*
X40980000Y-81727619D02*
X40980000Y-82727619D01*
X41075238Y-82584761D01*
X41170476Y-82489523D01*
X41265714Y-82441904D01*
X34618095Y-102632380D02*
X35189523Y-102632380D01*
X34903809Y-103632380D02*
X34903809Y-102632380D01*
X35427619Y-102632380D02*
X36094285Y-103632380D01*
X36094285Y-102632380D02*
X35427619Y-103632380D01*
D10*
X46653809Y-101913333D02*
X46153809Y-102032380D01*
X46510952Y-102127619D01*
X46153809Y-102222857D01*
X46653809Y-102341904D01*
X46153809Y-102532380D02*
X46487142Y-102532380D01*
X46653809Y-102532380D02*
X46630000Y-102508571D01*
X46606190Y-102532380D01*
X46630000Y-102556190D01*
X46653809Y-102532380D01*
X46606190Y-102532380D01*
X46415714Y-102937142D02*
X46415714Y-102770476D01*
X46153809Y-102770476D02*
X46653809Y-102770476D01*
X46653809Y-103008571D01*
X46153809Y-103199047D02*
X46487142Y-103199047D01*
X46653809Y-103199047D02*
X46630000Y-103175238D01*
X46606190Y-103199047D01*
X46630000Y-103222857D01*
X46653809Y-103199047D01*
X46606190Y-103199047D01*
D11*
X37813333Y-103632380D02*
X37480000Y-103156190D01*
X37241904Y-103632380D02*
X37241904Y-102632380D01*
X37622857Y-102632380D01*
X37718095Y-102680000D01*
X37765714Y-102727619D01*
X37813333Y-102822857D01*
X37813333Y-102965714D01*
X37765714Y-103060952D01*
X37718095Y-103108571D01*
X37622857Y-103156190D01*
X37241904Y-103156190D01*
X38146666Y-102632380D02*
X38813333Y-103632380D01*
X38813333Y-102632380D02*
X38146666Y-103632380D01*
X36313333Y-82727619D02*
X35694285Y-82727619D01*
X36027619Y-82346666D01*
X35884761Y-82346666D01*
X35789523Y-82299047D01*
X35741904Y-82251428D01*
X35694285Y-82156190D01*
X35694285Y-81918095D01*
X35741904Y-81822857D01*
X35789523Y-81775238D01*
X35884761Y-81727619D01*
X36170476Y-81727619D01*
X36265714Y-81775238D01*
X36313333Y-81822857D01*
X45251428Y-87499047D02*
X45251428Y-87832380D01*
X44727619Y-87975238D02*
X44727619Y-87499047D01*
X45727619Y-87499047D01*
X45727619Y-87975238D01*
X44775238Y-88356190D02*
X44727619Y-88499047D01*
X44727619Y-88737142D01*
X44775238Y-88832380D01*
X44822857Y-88880000D01*
X44918095Y-88927619D01*
X45013333Y-88927619D01*
X45108571Y-88880000D01*
X45156190Y-88832380D01*
X45203809Y-88737142D01*
X45251428Y-88546666D01*
X45299047Y-88451428D01*
X45346666Y-88403809D01*
X45441904Y-88356190D01*
X45537142Y-88356190D01*
X45632380Y-88403809D01*
X45680000Y-88451428D01*
X45727619Y-88546666D01*
X45727619Y-88784761D01*
X45680000Y-88927619D01*
X44727619Y-89356190D02*
X45727619Y-89356190D01*
X45727619Y-89737142D01*
X45680000Y-89832380D01*
X45632380Y-89880000D01*
X45537142Y-89927619D01*
X45394285Y-89927619D01*
X45299047Y-89880000D01*
X45251428Y-89832380D01*
X45203809Y-89737142D01*
X45203809Y-89356190D01*
X45299047Y-90499047D02*
X45346666Y-90403809D01*
X45394285Y-90356190D01*
X45489523Y-90308571D01*
X45537142Y-90308571D01*
X45632380Y-90356190D01*
X45680000Y-90403809D01*
X45727619Y-90499047D01*
X45727619Y-90689523D01*
X45680000Y-90784761D01*
X45632380Y-90832380D01*
X45537142Y-90880000D01*
X45489523Y-90880000D01*
X45394285Y-90832380D01*
X45346666Y-90784761D01*
X45299047Y-90689523D01*
X45299047Y-90499047D01*
X45251428Y-90403809D01*
X45203809Y-90356190D01*
X45108571Y-90308571D01*
X44918095Y-90308571D01*
X44822857Y-90356190D01*
X44775238Y-90403809D01*
X44727619Y-90499047D01*
X44727619Y-90689523D01*
X44775238Y-90784761D01*
X44822857Y-90832380D01*
X44918095Y-90880000D01*
X45108571Y-90880000D01*
X45203809Y-90832380D01*
X45251428Y-90784761D01*
X45299047Y-90689523D01*
X45632380Y-91260952D02*
X45680000Y-91308571D01*
X45727619Y-91403809D01*
X45727619Y-91641904D01*
X45680000Y-91737142D01*
X45632380Y-91784761D01*
X45537142Y-91832380D01*
X45441904Y-91832380D01*
X45299047Y-91784761D01*
X44727619Y-91213333D01*
X44727619Y-91832380D01*
X45727619Y-92689523D02*
X45727619Y-92499047D01*
X45680000Y-92403809D01*
X45632380Y-92356190D01*
X45489523Y-92260952D01*
X45299047Y-92213333D01*
X44918095Y-92213333D01*
X44822857Y-92260952D01*
X44775238Y-92308571D01*
X44727619Y-92403809D01*
X44727619Y-92594285D01*
X44775238Y-92689523D01*
X44822857Y-92737142D01*
X44918095Y-92784761D01*
X45156190Y-92784761D01*
X45251428Y-92737142D01*
X45299047Y-92689523D01*
X45346666Y-92594285D01*
X45346666Y-92403809D01*
X45299047Y-92308571D01*
X45251428Y-92260952D01*
X45156190Y-92213333D01*
X45727619Y-93641904D02*
X45727619Y-93451428D01*
X45680000Y-93356190D01*
X45632380Y-93308571D01*
X45489523Y-93213333D01*
X45299047Y-93165714D01*
X44918095Y-93165714D01*
X44822857Y-93213333D01*
X44775238Y-93260952D01*
X44727619Y-93356190D01*
X44727619Y-93546666D01*
X44775238Y-93641904D01*
X44822857Y-93689523D01*
X44918095Y-93737142D01*
X45156190Y-93737142D01*
X45251428Y-93689523D01*
X45299047Y-93641904D01*
X45346666Y-93546666D01*
X45346666Y-93356190D01*
X45299047Y-93260952D01*
X45251428Y-93213333D01*
X45156190Y-93165714D01*
X44727619Y-95451428D02*
X44727619Y-94880000D01*
X44727619Y-95165714D02*
X45727619Y-95165714D01*
X45584761Y-95070476D01*
X45489523Y-94975238D01*
X45441904Y-94880000D01*
X45632380Y-95832380D02*
X45680000Y-95880000D01*
X45727619Y-95975238D01*
X45727619Y-96213333D01*
X45680000Y-96308571D01*
X45632380Y-96356190D01*
X45537142Y-96403809D01*
X45441904Y-96403809D01*
X45299047Y-96356190D01*
X44727619Y-95784761D01*
X44727619Y-96403809D01*
X45251428Y-96832380D02*
X45251428Y-97165714D01*
X44727619Y-97308571D02*
X44727619Y-96832380D01*
X45727619Y-96832380D01*
X45727619Y-97308571D01*
D10*
X28001428Y-100358571D02*
X27977619Y-100334761D01*
X27953809Y-100263333D01*
X27953809Y-100215714D01*
X27977619Y-100144285D01*
X28025238Y-100096666D01*
X28072857Y-100072857D01*
X28168095Y-100049047D01*
X28239523Y-100049047D01*
X28334761Y-100072857D01*
X28382380Y-100096666D01*
X28430000Y-100144285D01*
X28453809Y-100215714D01*
X28453809Y-100263333D01*
X28430000Y-100334761D01*
X28406190Y-100358571D01*
X27953809Y-100810952D02*
X27953809Y-100572857D01*
X28453809Y-100572857D01*
X28453809Y-101072857D02*
X28453809Y-101168095D01*
X28430000Y-101215714D01*
X28382380Y-101263333D01*
X28287142Y-101287142D01*
X28120476Y-101287142D01*
X28025238Y-101263333D01*
X27977619Y-101215714D01*
X27953809Y-101168095D01*
X27953809Y-101072857D01*
X27977619Y-101025238D01*
X28025238Y-100977619D01*
X28120476Y-100953809D01*
X28287142Y-100953809D01*
X28382380Y-100977619D01*
X28430000Y-101025238D01*
X28453809Y-101072857D01*
X28453809Y-101501428D02*
X28049047Y-101501428D01*
X28001428Y-101525238D01*
X27977619Y-101549047D01*
X27953809Y-101596666D01*
X27953809Y-101691904D01*
X27977619Y-101739523D01*
X28001428Y-101763333D01*
X28049047Y-101787142D01*
X28453809Y-101787142D01*
X27953809Y-102025238D02*
X28453809Y-102025238D01*
X28453809Y-102144285D01*
X28430000Y-102215714D01*
X28382380Y-102263333D01*
X28334761Y-102287142D01*
X28239523Y-102310952D01*
X28168095Y-102310952D01*
X28072857Y-102287142D01*
X28025238Y-102263333D01*
X27977619Y-102215714D01*
X27953809Y-102144285D01*
X27953809Y-102025238D01*
D11*
X33189523Y-82394285D02*
X33189523Y-81727619D01*
X33427619Y-82775238D02*
X33665714Y-82060952D01*
X33046666Y-82060952D01*
X26241904Y-102880000D02*
X26146666Y-102832380D01*
X26003809Y-102832380D01*
X25860952Y-102880000D01*
X25765714Y-102975238D01*
X25718095Y-103070476D01*
X25670476Y-103260952D01*
X25670476Y-103403809D01*
X25718095Y-103594285D01*
X25765714Y-103689523D01*
X25860952Y-103784761D01*
X26003809Y-103832380D01*
X26099047Y-103832380D01*
X26241904Y-103784761D01*
X26289523Y-103737142D01*
X26289523Y-103403809D01*
X26099047Y-103403809D01*
X32065714Y-103346666D02*
X32541904Y-103346666D01*
X31970476Y-103632380D02*
X32303809Y-102632380D01*
X32637142Y-103632380D01*
X33160952Y-102632380D02*
X33256190Y-102632380D01*
X33351428Y-102680000D01*
X33399047Y-102727619D01*
X33446666Y-102822857D01*
X33494285Y-103013333D01*
X33494285Y-103251428D01*
X33446666Y-103441904D01*
X33399047Y-103537142D01*
X33351428Y-103584761D01*
X33256190Y-103632380D01*
X33160952Y-103632380D01*
X33065714Y-103584761D01*
X33018095Y-103537142D01*
X32970476Y-103441904D01*
X32922857Y-103251428D01*
X32922857Y-103013333D01*
X32970476Y-102822857D01*
X33018095Y-102727619D01*
X33065714Y-102680000D01*
X33160952Y-102632380D01*
X21703809Y-103032380D02*
X22322857Y-103032380D01*
X21989523Y-103413333D01*
X22132380Y-103413333D01*
X22227619Y-103460952D01*
X22275238Y-103508571D01*
X22322857Y-103603809D01*
X22322857Y-103841904D01*
X22275238Y-103937142D01*
X22227619Y-103984761D01*
X22132380Y-104032380D01*
X21846666Y-104032380D01*
X21751428Y-103984761D01*
X21703809Y-103937142D01*
X22751428Y-103937142D02*
X22799047Y-103984761D01*
X22751428Y-104032380D01*
X22703809Y-103984761D01*
X22751428Y-103937142D01*
X22751428Y-104032380D01*
X23132380Y-103032380D02*
X23751428Y-103032380D01*
X23418095Y-103413333D01*
X23560952Y-103413333D01*
X23656190Y-103460952D01*
X23703809Y-103508571D01*
X23751428Y-103603809D01*
X23751428Y-103841904D01*
X23703809Y-103937142D01*
X23656190Y-103984761D01*
X23560952Y-104032380D01*
X23275238Y-104032380D01*
X23180000Y-103984761D01*
X23132380Y-103937142D01*
X24037142Y-103032380D02*
X24370476Y-104032380D01*
X24703809Y-103032380D01*
X19389523Y-103032380D02*
X18913333Y-103032380D01*
X18865714Y-103508571D01*
X18913333Y-103460952D01*
X19008571Y-103413333D01*
X19246666Y-103413333D01*
X19341904Y-103460952D01*
X19389523Y-103508571D01*
X19437142Y-103603809D01*
X19437142Y-103841904D01*
X19389523Y-103937142D01*
X19341904Y-103984761D01*
X19246666Y-104032380D01*
X19008571Y-104032380D01*
X18913333Y-103984761D01*
X18865714Y-103937142D01*
X19722857Y-103032380D02*
X20056190Y-104032380D01*
X20389523Y-103032380D01*
X30332380Y-102632380D02*
X30427619Y-102632380D01*
X30522857Y-102680000D01*
X30570476Y-102727619D01*
X30618095Y-102822857D01*
X30665714Y-103013333D01*
X30665714Y-103251428D01*
X30618095Y-103441904D01*
X30570476Y-103537142D01*
X30522857Y-103584761D01*
X30427619Y-103632380D01*
X30332380Y-103632380D01*
X30237142Y-103584761D01*
X30189523Y-103537142D01*
X30141904Y-103441904D01*
X30094285Y-103251428D01*
X30094285Y-103013333D01*
X30141904Y-102822857D01*
X30189523Y-102727619D01*
X30237142Y-102680000D01*
X30332380Y-102632380D01*
X38865714Y-82632380D02*
X38818095Y-82680000D01*
X38722857Y-82727619D01*
X38484761Y-82727619D01*
X38389523Y-82680000D01*
X38341904Y-82632380D01*
X38294285Y-82537142D01*
X38294285Y-82441904D01*
X38341904Y-82299047D01*
X38913333Y-81727619D01*
X38294285Y-81727619D01*
X40694285Y-51727619D02*
X41265714Y-51727619D01*
X40980000Y-51727619D02*
X40980000Y-52727619D01*
X41075238Y-52584761D01*
X41170476Y-52489523D01*
X41265714Y-52441904D01*
X34618095Y-72632380D02*
X35189523Y-72632380D01*
X34903809Y-73632380D02*
X34903809Y-72632380D01*
X35427619Y-72632380D02*
X36094285Y-73632380D01*
X36094285Y-72632380D02*
X35427619Y-73632380D01*
D10*
X46653809Y-71913333D02*
X46153809Y-72032380D01*
X46510952Y-72127619D01*
X46153809Y-72222857D01*
X46653809Y-72341904D01*
X46153809Y-72532380D02*
X46487142Y-72532380D01*
X46653809Y-72532380D02*
X46630000Y-72508571D01*
X46606190Y-72532380D01*
X46630000Y-72556190D01*
X46653809Y-72532380D01*
X46606190Y-72532380D01*
X46415714Y-72937142D02*
X46415714Y-72770476D01*
X46153809Y-72770476D02*
X46653809Y-72770476D01*
X46653809Y-73008571D01*
X46153809Y-73199047D02*
X46487142Y-73199047D01*
X46653809Y-73199047D02*
X46630000Y-73175238D01*
X46606190Y-73199047D01*
X46630000Y-73222857D01*
X46653809Y-73199047D01*
X46606190Y-73199047D01*
D11*
X37813333Y-73632380D02*
X37480000Y-73156190D01*
X37241904Y-73632380D02*
X37241904Y-72632380D01*
X37622857Y-72632380D01*
X37718095Y-72680000D01*
X37765714Y-72727619D01*
X37813333Y-72822857D01*
X37813333Y-72965714D01*
X37765714Y-73060952D01*
X37718095Y-73108571D01*
X37622857Y-73156190D01*
X37241904Y-73156190D01*
X38146666Y-72632380D02*
X38813333Y-73632380D01*
X38813333Y-72632380D02*
X38146666Y-73632380D01*
X36313333Y-52727619D02*
X35694285Y-52727619D01*
X36027619Y-52346666D01*
X35884761Y-52346666D01*
X35789523Y-52299047D01*
X35741904Y-52251428D01*
X35694285Y-52156190D01*
X35694285Y-51918095D01*
X35741904Y-51822857D01*
X35789523Y-51775238D01*
X35884761Y-51727619D01*
X36170476Y-51727619D01*
X36265714Y-51775238D01*
X36313333Y-51822857D01*
X45251428Y-57499047D02*
X45251428Y-57832380D01*
X44727619Y-57975238D02*
X44727619Y-57499047D01*
X45727619Y-57499047D01*
X45727619Y-57975238D01*
X44775238Y-58356190D02*
X44727619Y-58499047D01*
X44727619Y-58737142D01*
X44775238Y-58832380D01*
X44822857Y-58880000D01*
X44918095Y-58927619D01*
X45013333Y-58927619D01*
X45108571Y-58880000D01*
X45156190Y-58832380D01*
X45203809Y-58737142D01*
X45251428Y-58546666D01*
X45299047Y-58451428D01*
X45346666Y-58403809D01*
X45441904Y-58356190D01*
X45537142Y-58356190D01*
X45632380Y-58403809D01*
X45680000Y-58451428D01*
X45727619Y-58546666D01*
X45727619Y-58784761D01*
X45680000Y-58927619D01*
X44727619Y-59356190D02*
X45727619Y-59356190D01*
X45727619Y-59737142D01*
X45680000Y-59832380D01*
X45632380Y-59880000D01*
X45537142Y-59927619D01*
X45394285Y-59927619D01*
X45299047Y-59880000D01*
X45251428Y-59832380D01*
X45203809Y-59737142D01*
X45203809Y-59356190D01*
X45299047Y-60499047D02*
X45346666Y-60403809D01*
X45394285Y-60356190D01*
X45489523Y-60308571D01*
X45537142Y-60308571D01*
X45632380Y-60356190D01*
X45680000Y-60403809D01*
X45727619Y-60499047D01*
X45727619Y-60689523D01*
X45680000Y-60784761D01*
X45632380Y-60832380D01*
X45537142Y-60880000D01*
X45489523Y-60880000D01*
X45394285Y-60832380D01*
X45346666Y-60784761D01*
X45299047Y-60689523D01*
X45299047Y-60499047D01*
X45251428Y-60403809D01*
X45203809Y-60356190D01*
X45108571Y-60308571D01*
X44918095Y-60308571D01*
X44822857Y-60356190D01*
X44775238Y-60403809D01*
X44727619Y-60499047D01*
X44727619Y-60689523D01*
X44775238Y-60784761D01*
X44822857Y-60832380D01*
X44918095Y-60880000D01*
X45108571Y-60880000D01*
X45203809Y-60832380D01*
X45251428Y-60784761D01*
X45299047Y-60689523D01*
X45632380Y-61260952D02*
X45680000Y-61308571D01*
X45727619Y-61403809D01*
X45727619Y-61641904D01*
X45680000Y-61737142D01*
X45632380Y-61784761D01*
X45537142Y-61832380D01*
X45441904Y-61832380D01*
X45299047Y-61784761D01*
X44727619Y-61213333D01*
X44727619Y-61832380D01*
X45727619Y-62689523D02*
X45727619Y-62499047D01*
X45680000Y-62403809D01*
X45632380Y-62356190D01*
X45489523Y-62260952D01*
X45299047Y-62213333D01*
X44918095Y-62213333D01*
X44822857Y-62260952D01*
X44775238Y-62308571D01*
X44727619Y-62403809D01*
X44727619Y-62594285D01*
X44775238Y-62689523D01*
X44822857Y-62737142D01*
X44918095Y-62784761D01*
X45156190Y-62784761D01*
X45251428Y-62737142D01*
X45299047Y-62689523D01*
X45346666Y-62594285D01*
X45346666Y-62403809D01*
X45299047Y-62308571D01*
X45251428Y-62260952D01*
X45156190Y-62213333D01*
X45727619Y-63641904D02*
X45727619Y-63451428D01*
X45680000Y-63356190D01*
X45632380Y-63308571D01*
X45489523Y-63213333D01*
X45299047Y-63165714D01*
X44918095Y-63165714D01*
X44822857Y-63213333D01*
X44775238Y-63260952D01*
X44727619Y-63356190D01*
X44727619Y-63546666D01*
X44775238Y-63641904D01*
X44822857Y-63689523D01*
X44918095Y-63737142D01*
X45156190Y-63737142D01*
X45251428Y-63689523D01*
X45299047Y-63641904D01*
X45346666Y-63546666D01*
X45346666Y-63356190D01*
X45299047Y-63260952D01*
X45251428Y-63213333D01*
X45156190Y-63165714D01*
X44727619Y-65451428D02*
X44727619Y-64880000D01*
X44727619Y-65165714D02*
X45727619Y-65165714D01*
X45584761Y-65070476D01*
X45489523Y-64975238D01*
X45441904Y-64880000D01*
X45632380Y-65832380D02*
X45680000Y-65880000D01*
X45727619Y-65975238D01*
X45727619Y-66213333D01*
X45680000Y-66308571D01*
X45632380Y-66356190D01*
X45537142Y-66403809D01*
X45441904Y-66403809D01*
X45299047Y-66356190D01*
X44727619Y-65784761D01*
X44727619Y-66403809D01*
X45251428Y-66832380D02*
X45251428Y-67165714D01*
X44727619Y-67308571D02*
X44727619Y-66832380D01*
X45727619Y-66832380D01*
X45727619Y-67308571D01*
D10*
X28001428Y-70358571D02*
X27977619Y-70334761D01*
X27953809Y-70263333D01*
X27953809Y-70215714D01*
X27977619Y-70144285D01*
X28025238Y-70096666D01*
X28072857Y-70072857D01*
X28168095Y-70049047D01*
X28239523Y-70049047D01*
X28334761Y-70072857D01*
X28382380Y-70096666D01*
X28430000Y-70144285D01*
X28453809Y-70215714D01*
X28453809Y-70263333D01*
X28430000Y-70334761D01*
X28406190Y-70358571D01*
X27953809Y-70810952D02*
X27953809Y-70572857D01*
X28453809Y-70572857D01*
X28453809Y-71072857D02*
X28453809Y-71168095D01*
X28430000Y-71215714D01*
X28382380Y-71263333D01*
X28287142Y-71287142D01*
X28120476Y-71287142D01*
X28025238Y-71263333D01*
X27977619Y-71215714D01*
X27953809Y-71168095D01*
X27953809Y-71072857D01*
X27977619Y-71025238D01*
X28025238Y-70977619D01*
X28120476Y-70953809D01*
X28287142Y-70953809D01*
X28382380Y-70977619D01*
X28430000Y-71025238D01*
X28453809Y-71072857D01*
X28453809Y-71501428D02*
X28049047Y-71501428D01*
X28001428Y-71525238D01*
X27977619Y-71549047D01*
X27953809Y-71596666D01*
X27953809Y-71691904D01*
X27977619Y-71739523D01*
X28001428Y-71763333D01*
X28049047Y-71787142D01*
X28453809Y-71787142D01*
X27953809Y-72025238D02*
X28453809Y-72025238D01*
X28453809Y-72144285D01*
X28430000Y-72215714D01*
X28382380Y-72263333D01*
X28334761Y-72287142D01*
X28239523Y-72310952D01*
X28168095Y-72310952D01*
X28072857Y-72287142D01*
X28025238Y-72263333D01*
X27977619Y-72215714D01*
X27953809Y-72144285D01*
X27953809Y-72025238D01*
D11*
X33189523Y-52394285D02*
X33189523Y-51727619D01*
X33427619Y-52775238D02*
X33665714Y-52060952D01*
X33046666Y-52060952D01*
X26241904Y-72880000D02*
X26146666Y-72832380D01*
X26003809Y-72832380D01*
X25860952Y-72880000D01*
X25765714Y-72975238D01*
X25718095Y-73070476D01*
X25670476Y-73260952D01*
X25670476Y-73403809D01*
X25718095Y-73594285D01*
X25765714Y-73689523D01*
X25860952Y-73784761D01*
X26003809Y-73832380D01*
X26099047Y-73832380D01*
X26241904Y-73784761D01*
X26289523Y-73737142D01*
X26289523Y-73403809D01*
X26099047Y-73403809D01*
X32065714Y-73346666D02*
X32541904Y-73346666D01*
X31970476Y-73632380D02*
X32303809Y-72632380D01*
X32637142Y-73632380D01*
X33160952Y-72632380D02*
X33256190Y-72632380D01*
X33351428Y-72680000D01*
X33399047Y-72727619D01*
X33446666Y-72822857D01*
X33494285Y-73013333D01*
X33494285Y-73251428D01*
X33446666Y-73441904D01*
X33399047Y-73537142D01*
X33351428Y-73584761D01*
X33256190Y-73632380D01*
X33160952Y-73632380D01*
X33065714Y-73584761D01*
X33018095Y-73537142D01*
X32970476Y-73441904D01*
X32922857Y-73251428D01*
X32922857Y-73013333D01*
X32970476Y-72822857D01*
X33018095Y-72727619D01*
X33065714Y-72680000D01*
X33160952Y-72632380D01*
X21703809Y-73032380D02*
X22322857Y-73032380D01*
X21989523Y-73413333D01*
X22132380Y-73413333D01*
X22227619Y-73460952D01*
X22275238Y-73508571D01*
X22322857Y-73603809D01*
X22322857Y-73841904D01*
X22275238Y-73937142D01*
X22227619Y-73984761D01*
X22132380Y-74032380D01*
X21846666Y-74032380D01*
X21751428Y-73984761D01*
X21703809Y-73937142D01*
X22751428Y-73937142D02*
X22799047Y-73984761D01*
X22751428Y-74032380D01*
X22703809Y-73984761D01*
X22751428Y-73937142D01*
X22751428Y-74032380D01*
X23132380Y-73032380D02*
X23751428Y-73032380D01*
X23418095Y-73413333D01*
X23560952Y-73413333D01*
X23656190Y-73460952D01*
X23703809Y-73508571D01*
X23751428Y-73603809D01*
X23751428Y-73841904D01*
X23703809Y-73937142D01*
X23656190Y-73984761D01*
X23560952Y-74032380D01*
X23275238Y-74032380D01*
X23180000Y-73984761D01*
X23132380Y-73937142D01*
X24037142Y-73032380D02*
X24370476Y-74032380D01*
X24703809Y-73032380D01*
X19389523Y-73032380D02*
X18913333Y-73032380D01*
X18865714Y-73508571D01*
X18913333Y-73460952D01*
X19008571Y-73413333D01*
X19246666Y-73413333D01*
X19341904Y-73460952D01*
X19389523Y-73508571D01*
X19437142Y-73603809D01*
X19437142Y-73841904D01*
X19389523Y-73937142D01*
X19341904Y-73984761D01*
X19246666Y-74032380D01*
X19008571Y-74032380D01*
X18913333Y-73984761D01*
X18865714Y-73937142D01*
X19722857Y-73032380D02*
X20056190Y-74032380D01*
X20389523Y-73032380D01*
X30332380Y-72632380D02*
X30427619Y-72632380D01*
X30522857Y-72680000D01*
X30570476Y-72727619D01*
X30618095Y-72822857D01*
X30665714Y-73013333D01*
X30665714Y-73251428D01*
X30618095Y-73441904D01*
X30570476Y-73537142D01*
X30522857Y-73584761D01*
X30427619Y-73632380D01*
X30332380Y-73632380D01*
X30237142Y-73584761D01*
X30189523Y-73537142D01*
X30141904Y-73441904D01*
X30094285Y-73251428D01*
X30094285Y-73013333D01*
X30141904Y-72822857D01*
X30189523Y-72727619D01*
X30237142Y-72680000D01*
X30332380Y-72632380D01*
X38865714Y-52632380D02*
X38818095Y-52680000D01*
X38722857Y-52727619D01*
X38484761Y-52727619D01*
X38389523Y-52680000D01*
X38341904Y-52632380D01*
X38294285Y-52537142D01*
X38294285Y-52441904D01*
X38341904Y-52299047D01*
X38913333Y-51727619D01*
X38294285Y-51727619D01*
X45251428Y-27499047D02*
X45251428Y-27832380D01*
X44727619Y-27975238D02*
X44727619Y-27499047D01*
X45727619Y-27499047D01*
X45727619Y-27975238D01*
X44775238Y-28356190D02*
X44727619Y-28499047D01*
X44727619Y-28737142D01*
X44775238Y-28832380D01*
X44822857Y-28880000D01*
X44918095Y-28927619D01*
X45013333Y-28927619D01*
X45108571Y-28880000D01*
X45156190Y-28832380D01*
X45203809Y-28737142D01*
X45251428Y-28546666D01*
X45299047Y-28451428D01*
X45346666Y-28403809D01*
X45441904Y-28356190D01*
X45537142Y-28356190D01*
X45632380Y-28403809D01*
X45680000Y-28451428D01*
X45727619Y-28546666D01*
X45727619Y-28784761D01*
X45680000Y-28927619D01*
X44727619Y-29356190D02*
X45727619Y-29356190D01*
X45727619Y-29737142D01*
X45680000Y-29832380D01*
X45632380Y-29880000D01*
X45537142Y-29927619D01*
X45394285Y-29927619D01*
X45299047Y-29880000D01*
X45251428Y-29832380D01*
X45203809Y-29737142D01*
X45203809Y-29356190D01*
X45299047Y-30499047D02*
X45346666Y-30403809D01*
X45394285Y-30356190D01*
X45489523Y-30308571D01*
X45537142Y-30308571D01*
X45632380Y-30356190D01*
X45680000Y-30403809D01*
X45727619Y-30499047D01*
X45727619Y-30689523D01*
X45680000Y-30784761D01*
X45632380Y-30832380D01*
X45537142Y-30880000D01*
X45489523Y-30880000D01*
X45394285Y-30832380D01*
X45346666Y-30784761D01*
X45299047Y-30689523D01*
X45299047Y-30499047D01*
X45251428Y-30403809D01*
X45203809Y-30356190D01*
X45108571Y-30308571D01*
X44918095Y-30308571D01*
X44822857Y-30356190D01*
X44775238Y-30403809D01*
X44727619Y-30499047D01*
X44727619Y-30689523D01*
X44775238Y-30784761D01*
X44822857Y-30832380D01*
X44918095Y-30880000D01*
X45108571Y-30880000D01*
X45203809Y-30832380D01*
X45251428Y-30784761D01*
X45299047Y-30689523D01*
X45632380Y-31260952D02*
X45680000Y-31308571D01*
X45727619Y-31403809D01*
X45727619Y-31641904D01*
X45680000Y-31737142D01*
X45632380Y-31784761D01*
X45537142Y-31832380D01*
X45441904Y-31832380D01*
X45299047Y-31784761D01*
X44727619Y-31213333D01*
X44727619Y-31832380D01*
X45727619Y-32689523D02*
X45727619Y-32499047D01*
X45680000Y-32403809D01*
X45632380Y-32356190D01*
X45489523Y-32260952D01*
X45299047Y-32213333D01*
X44918095Y-32213333D01*
X44822857Y-32260952D01*
X44775238Y-32308571D01*
X44727619Y-32403809D01*
X44727619Y-32594285D01*
X44775238Y-32689523D01*
X44822857Y-32737142D01*
X44918095Y-32784761D01*
X45156190Y-32784761D01*
X45251428Y-32737142D01*
X45299047Y-32689523D01*
X45346666Y-32594285D01*
X45346666Y-32403809D01*
X45299047Y-32308571D01*
X45251428Y-32260952D01*
X45156190Y-32213333D01*
X45727619Y-33641904D02*
X45727619Y-33451428D01*
X45680000Y-33356190D01*
X45632380Y-33308571D01*
X45489523Y-33213333D01*
X45299047Y-33165714D01*
X44918095Y-33165714D01*
X44822857Y-33213333D01*
X44775238Y-33260952D01*
X44727619Y-33356190D01*
X44727619Y-33546666D01*
X44775238Y-33641904D01*
X44822857Y-33689523D01*
X44918095Y-33737142D01*
X45156190Y-33737142D01*
X45251428Y-33689523D01*
X45299047Y-33641904D01*
X45346666Y-33546666D01*
X45346666Y-33356190D01*
X45299047Y-33260952D01*
X45251428Y-33213333D01*
X45156190Y-33165714D01*
X44727619Y-35451428D02*
X44727619Y-34880000D01*
X44727619Y-35165714D02*
X45727619Y-35165714D01*
X45584761Y-35070476D01*
X45489523Y-34975238D01*
X45441904Y-34880000D01*
X45632380Y-35832380D02*
X45680000Y-35880000D01*
X45727619Y-35975238D01*
X45727619Y-36213333D01*
X45680000Y-36308571D01*
X45632380Y-36356190D01*
X45537142Y-36403809D01*
X45441904Y-36403809D01*
X45299047Y-36356190D01*
X44727619Y-35784761D01*
X44727619Y-36403809D01*
X45251428Y-36832380D02*
X45251428Y-37165714D01*
X44727619Y-37308571D02*
X44727619Y-36832380D01*
X45727619Y-36832380D01*
X45727619Y-37308571D01*
D10*
X46653809Y-41913333D02*
X46153809Y-42032380D01*
X46510952Y-42127619D01*
X46153809Y-42222857D01*
X46653809Y-42341904D01*
X46153809Y-42532380D02*
X46487142Y-42532380D01*
X46653809Y-42532380D02*
X46630000Y-42508571D01*
X46606190Y-42532380D01*
X46630000Y-42556190D01*
X46653809Y-42532380D01*
X46606190Y-42532380D01*
X46415714Y-42937142D02*
X46415714Y-42770476D01*
X46153809Y-42770476D02*
X46653809Y-42770476D01*
X46653809Y-43008571D01*
X46153809Y-43199047D02*
X46487142Y-43199047D01*
X46653809Y-43199047D02*
X46630000Y-43175238D01*
X46606190Y-43199047D01*
X46630000Y-43222857D01*
X46653809Y-43199047D01*
X46606190Y-43199047D01*
X28001428Y-40358571D02*
X27977619Y-40334761D01*
X27953809Y-40263333D01*
X27953809Y-40215714D01*
X27977619Y-40144285D01*
X28025238Y-40096666D01*
X28072857Y-40072857D01*
X28168095Y-40049047D01*
X28239523Y-40049047D01*
X28334761Y-40072857D01*
X28382380Y-40096666D01*
X28430000Y-40144285D01*
X28453809Y-40215714D01*
X28453809Y-40263333D01*
X28430000Y-40334761D01*
X28406190Y-40358571D01*
X27953809Y-40810952D02*
X27953809Y-40572857D01*
X28453809Y-40572857D01*
X28453809Y-41072857D02*
X28453809Y-41168095D01*
X28430000Y-41215714D01*
X28382380Y-41263333D01*
X28287142Y-41287142D01*
X28120476Y-41287142D01*
X28025238Y-41263333D01*
X27977619Y-41215714D01*
X27953809Y-41168095D01*
X27953809Y-41072857D01*
X27977619Y-41025238D01*
X28025238Y-40977619D01*
X28120476Y-40953809D01*
X28287142Y-40953809D01*
X28382380Y-40977619D01*
X28430000Y-41025238D01*
X28453809Y-41072857D01*
X28453809Y-41501428D02*
X28049047Y-41501428D01*
X28001428Y-41525238D01*
X27977619Y-41549047D01*
X27953809Y-41596666D01*
X27953809Y-41691904D01*
X27977619Y-41739523D01*
X28001428Y-41763333D01*
X28049047Y-41787142D01*
X28453809Y-41787142D01*
X27953809Y-42025238D02*
X28453809Y-42025238D01*
X28453809Y-42144285D01*
X28430000Y-42215714D01*
X28382380Y-42263333D01*
X28334761Y-42287142D01*
X28239523Y-42310952D01*
X28168095Y-42310952D01*
X28072857Y-42287142D01*
X28025238Y-42263333D01*
X27977619Y-42215714D01*
X27953809Y-42144285D01*
X27953809Y-42025238D01*
D11*
X37813333Y-43632380D02*
X37480000Y-43156190D01*
X37241904Y-43632380D02*
X37241904Y-42632380D01*
X37622857Y-42632380D01*
X37718095Y-42680000D01*
X37765714Y-42727619D01*
X37813333Y-42822857D01*
X37813333Y-42965714D01*
X37765714Y-43060952D01*
X37718095Y-43108571D01*
X37622857Y-43156190D01*
X37241904Y-43156190D01*
X38146666Y-42632380D02*
X38813333Y-43632380D01*
X38813333Y-42632380D02*
X38146666Y-43632380D01*
X34618095Y-42632380D02*
X35189523Y-42632380D01*
X34903809Y-43632380D02*
X34903809Y-42632380D01*
X35427619Y-42632380D02*
X36094285Y-43632380D01*
X36094285Y-42632380D02*
X35427619Y-43632380D01*
X32065714Y-43346666D02*
X32541904Y-43346666D01*
X31970476Y-43632380D02*
X32303809Y-42632380D01*
X32637142Y-43632380D01*
X33160952Y-42632380D02*
X33256190Y-42632380D01*
X33351428Y-42680000D01*
X33399047Y-42727619D01*
X33446666Y-42822857D01*
X33494285Y-43013333D01*
X33494285Y-43251428D01*
X33446666Y-43441904D01*
X33399047Y-43537142D01*
X33351428Y-43584761D01*
X33256190Y-43632380D01*
X33160952Y-43632380D01*
X33065714Y-43584761D01*
X33018095Y-43537142D01*
X32970476Y-43441904D01*
X32922857Y-43251428D01*
X32922857Y-43013333D01*
X32970476Y-42822857D01*
X33018095Y-42727619D01*
X33065714Y-42680000D01*
X33160952Y-42632380D01*
X30332380Y-42632380D02*
X30427619Y-42632380D01*
X30522857Y-42680000D01*
X30570476Y-42727619D01*
X30618095Y-42822857D01*
X30665714Y-43013333D01*
X30665714Y-43251428D01*
X30618095Y-43441904D01*
X30570476Y-43537142D01*
X30522857Y-43584761D01*
X30427619Y-43632380D01*
X30332380Y-43632380D01*
X30237142Y-43584761D01*
X30189523Y-43537142D01*
X30141904Y-43441904D01*
X30094285Y-43251428D01*
X30094285Y-43013333D01*
X30141904Y-42822857D01*
X30189523Y-42727619D01*
X30237142Y-42680000D01*
X30332380Y-42632380D01*
X26241904Y-42880000D02*
X26146666Y-42832380D01*
X26003809Y-42832380D01*
X25860952Y-42880000D01*
X25765714Y-42975238D01*
X25718095Y-43070476D01*
X25670476Y-43260952D01*
X25670476Y-43403809D01*
X25718095Y-43594285D01*
X25765714Y-43689523D01*
X25860952Y-43784761D01*
X26003809Y-43832380D01*
X26099047Y-43832380D01*
X26241904Y-43784761D01*
X26289523Y-43737142D01*
X26289523Y-43403809D01*
X26099047Y-43403809D01*
X21703809Y-43032380D02*
X22322857Y-43032380D01*
X21989523Y-43413333D01*
X22132380Y-43413333D01*
X22227619Y-43460952D01*
X22275238Y-43508571D01*
X22322857Y-43603809D01*
X22322857Y-43841904D01*
X22275238Y-43937142D01*
X22227619Y-43984761D01*
X22132380Y-44032380D01*
X21846666Y-44032380D01*
X21751428Y-43984761D01*
X21703809Y-43937142D01*
X22751428Y-43937142D02*
X22799047Y-43984761D01*
X22751428Y-44032380D01*
X22703809Y-43984761D01*
X22751428Y-43937142D01*
X22751428Y-44032380D01*
X23132380Y-43032380D02*
X23751428Y-43032380D01*
X23418095Y-43413333D01*
X23560952Y-43413333D01*
X23656190Y-43460952D01*
X23703809Y-43508571D01*
X23751428Y-43603809D01*
X23751428Y-43841904D01*
X23703809Y-43937142D01*
X23656190Y-43984761D01*
X23560952Y-44032380D01*
X23275238Y-44032380D01*
X23180000Y-43984761D01*
X23132380Y-43937142D01*
X24037142Y-43032380D02*
X24370476Y-44032380D01*
X24703809Y-43032380D01*
X19389523Y-43032380D02*
X18913333Y-43032380D01*
X18865714Y-43508571D01*
X18913333Y-43460952D01*
X19008571Y-43413333D01*
X19246666Y-43413333D01*
X19341904Y-43460952D01*
X19389523Y-43508571D01*
X19437142Y-43603809D01*
X19437142Y-43841904D01*
X19389523Y-43937142D01*
X19341904Y-43984761D01*
X19246666Y-44032380D01*
X19008571Y-44032380D01*
X18913333Y-43984761D01*
X18865714Y-43937142D01*
X19722857Y-43032380D02*
X20056190Y-44032380D01*
X20389523Y-43032380D01*
X33189523Y-22394285D02*
X33189523Y-21727619D01*
X33427619Y-22775238D02*
X33665714Y-22060952D01*
X33046666Y-22060952D01*
X36313333Y-22727619D02*
X35694285Y-22727619D01*
X36027619Y-22346666D01*
X35884761Y-22346666D01*
X35789523Y-22299047D01*
X35741904Y-22251428D01*
X35694285Y-22156190D01*
X35694285Y-21918095D01*
X35741904Y-21822857D01*
X35789523Y-21775238D01*
X35884761Y-21727619D01*
X36170476Y-21727619D01*
X36265714Y-21775238D01*
X36313333Y-21822857D01*
X38865714Y-22632380D02*
X38818095Y-22680000D01*
X38722857Y-22727619D01*
X38484761Y-22727619D01*
X38389523Y-22680000D01*
X38341904Y-22632380D01*
X38294285Y-22537142D01*
X38294285Y-22441904D01*
X38341904Y-22299047D01*
X38913333Y-21727619D01*
X38294285Y-21727619D01*
X40694285Y-21727619D02*
X41265714Y-21727619D01*
X40980000Y-21727619D02*
X40980000Y-22727619D01*
X41075238Y-22584761D01*
X41170476Y-22489523D01*
X41265714Y-22441904D01*
D12*
X102360000Y-80030000D02*
X102360000Y-81360000D01*
X102360000Y-81360000D02*
X101030000Y-81360000D01*
X99760000Y-81360000D02*
X92080000Y-81360000D01*
X92080000Y-78700000D02*
X92080000Y-81360000D01*
X99760000Y-78700000D02*
X92080000Y-78700000D01*
X99760000Y-78700000D02*
X99760000Y-81360000D01*
X82070000Y-69059437D02*
X81320000Y-69809437D01*
X84090000Y-69059437D02*
X84840000Y-69809437D01*
X81320000Y-69809437D02*
X81320000Y-72440000D01*
X84840000Y-69809437D02*
X84840000Y-72440000D01*
X84840000Y-72440000D02*
X84090000Y-72440000D01*
X81320000Y-72440000D02*
X82070000Y-72440000D01*
X89660000Y-54660000D02*
X90280000Y-54660000D01*
X89660000Y-56780000D02*
X89660000Y-54660000D01*
X89660000Y-70900000D02*
X89660000Y-68780000D01*
X90280000Y-70900000D02*
X89660000Y-70900000D01*
X87110000Y-75530000D02*
X87110000Y-76860000D01*
X87110000Y-76860000D02*
X85780000Y-76860000D01*
X84510000Y-76860000D02*
X79370000Y-76860000D01*
X79370000Y-74200000D02*
X79370000Y-76860000D01*
X84510000Y-74200000D02*
X79370000Y-74200000D01*
X84510000Y-74200000D02*
X84510000Y-76860000D01*
X85620000Y-69445000D02*
X85620000Y-72305000D01*
X87540000Y-69445000D02*
X85620000Y-69445000D01*
X87540000Y-72305000D02*
X87540000Y-69445000D01*
X99360000Y-75530000D02*
X99360000Y-76860000D01*
X99360000Y-76860000D02*
X98030000Y-76860000D01*
X96760000Y-76860000D02*
X89080000Y-76860000D01*
X89080000Y-74200000D02*
X89080000Y-76860000D01*
X96760000Y-74200000D02*
X89080000Y-74200000D01*
X96760000Y-74200000D02*
X96760000Y-76860000D01*
X85170000Y-79959437D02*
X84420000Y-80709437D01*
X87190000Y-79959437D02*
X87940000Y-80709437D01*
X84420000Y-80709437D02*
X84420000Y-83340000D01*
X87940000Y-80709437D02*
X87940000Y-83340000D01*
X87940000Y-83340000D02*
X87190000Y-83340000D01*
X84420000Y-83340000D02*
X85170000Y-83340000D01*
X85620000Y-99445000D02*
X85620000Y-102305000D01*
X87540000Y-99445000D02*
X85620000Y-99445000D01*
X87540000Y-102305000D02*
X87540000Y-99445000D01*
X87110000Y-105530000D02*
X87110000Y-106860000D01*
X87110000Y-106860000D02*
X85780000Y-106860000D01*
X84510000Y-106860000D02*
X79370000Y-106860000D01*
X79370000Y-104200000D02*
X79370000Y-106860000D01*
X84510000Y-104200000D02*
X79370000Y-104200000D01*
X84510000Y-104200000D02*
X84510000Y-106860000D01*
X89660000Y-84660000D02*
X90280000Y-84660000D01*
X89660000Y-86780000D02*
X89660000Y-84660000D01*
X89660000Y-100900000D02*
X89660000Y-98780000D01*
X90280000Y-100900000D02*
X89660000Y-100900000D01*
X85870000Y-95918748D02*
X85870000Y-96441252D01*
X87290000Y-95918748D02*
X87290000Y-96441252D01*
X102360000Y-50030000D02*
X102360000Y-51360000D01*
X102360000Y-51360000D02*
X101030000Y-51360000D01*
X99760000Y-51360000D02*
X92080000Y-51360000D01*
X92080000Y-48700000D02*
X92080000Y-51360000D01*
X99760000Y-48700000D02*
X92080000Y-48700000D01*
X99760000Y-48700000D02*
X99760000Y-51360000D01*
X87290000Y-35918748D02*
X87290000Y-36441252D01*
X85870000Y-35918748D02*
X85870000Y-36441252D01*
X84420000Y-23340000D02*
X85170000Y-23340000D01*
X87940000Y-23340000D02*
X87190000Y-23340000D01*
X87940000Y-20709437D02*
X87940000Y-23340000D01*
X84420000Y-20709437D02*
X84420000Y-23340000D01*
X87190000Y-19959437D02*
X87940000Y-20709437D01*
X85170000Y-19959437D02*
X84420000Y-20709437D01*
X81320000Y-42440000D02*
X82070000Y-42440000D01*
X84840000Y-42440000D02*
X84090000Y-42440000D01*
X84840000Y-39809437D02*
X84840000Y-42440000D01*
X81320000Y-39809437D02*
X81320000Y-42440000D01*
X84090000Y-39059437D02*
X84840000Y-39809437D01*
X82070000Y-39059437D02*
X81320000Y-39809437D01*
X96760000Y-44200000D02*
X96760000Y-46860000D01*
X96760000Y-44200000D02*
X89080000Y-44200000D01*
X89080000Y-44200000D02*
X89080000Y-46860000D01*
X96760000Y-46860000D02*
X89080000Y-46860000D01*
X99360000Y-46860000D02*
X98030000Y-46860000D01*
X99360000Y-45530000D02*
X99360000Y-46860000D01*
X99760000Y-18700000D02*
X99760000Y-21360000D01*
X99760000Y-18700000D02*
X92080000Y-18700000D01*
X92080000Y-18700000D02*
X92080000Y-21360000D01*
X99760000Y-21360000D02*
X92080000Y-21360000D01*
X102360000Y-21360000D02*
X101030000Y-21360000D01*
X102360000Y-20030000D02*
X102360000Y-21360000D01*
X87540000Y-42305000D02*
X87540000Y-39445000D01*
X87540000Y-39445000D02*
X85620000Y-39445000D01*
X85620000Y-39445000D02*
X85620000Y-42305000D01*
X84510000Y-44200000D02*
X84510000Y-46860000D01*
X84510000Y-44200000D02*
X79370000Y-44200000D01*
X79370000Y-44200000D02*
X79370000Y-46860000D01*
X84510000Y-46860000D02*
X79370000Y-46860000D01*
X87110000Y-46860000D02*
X85780000Y-46860000D01*
X87110000Y-45530000D02*
X87110000Y-46860000D01*
X99360000Y-105530000D02*
X99360000Y-106860000D01*
X99360000Y-106860000D02*
X98030000Y-106860000D01*
X96760000Y-106860000D02*
X89080000Y-106860000D01*
X89080000Y-104200000D02*
X89080000Y-106860000D01*
X96760000Y-104200000D02*
X89080000Y-104200000D01*
X96760000Y-104200000D02*
X96760000Y-106860000D01*
X82070000Y-99059437D02*
X81320000Y-99809437D01*
X84090000Y-99059437D02*
X84840000Y-99809437D01*
X81320000Y-99809437D02*
X81320000Y-102440000D01*
X84840000Y-99809437D02*
X84840000Y-102440000D01*
X84840000Y-102440000D02*
X84090000Y-102440000D01*
X81320000Y-102440000D02*
X82070000Y-102440000D01*
X90280000Y-40900000D02*
X89660000Y-40900000D01*
X89660000Y-40900000D02*
X89660000Y-38780000D01*
X89660000Y-26780000D02*
X89660000Y-24660000D01*
X89660000Y-24660000D02*
X90280000Y-24660000D01*
X85870000Y-65918748D02*
X85870000Y-66441252D01*
X87290000Y-65918748D02*
X87290000Y-66441252D01*
X85170000Y-49959437D02*
X84420000Y-50709437D01*
X87190000Y-49959437D02*
X87940000Y-50709437D01*
X84420000Y-50709437D02*
X84420000Y-53340000D01*
X87940000Y-50709437D02*
X87940000Y-53340000D01*
X87940000Y-53340000D02*
X87190000Y-53340000D01*
X84420000Y-53340000D02*
X85170000Y-53340000D01*
X72360000Y-80030000D02*
X72360000Y-81360000D01*
X72360000Y-81360000D02*
X71030000Y-81360000D01*
X69760000Y-81360000D02*
X62080000Y-81360000D01*
X62080000Y-78700000D02*
X62080000Y-81360000D01*
X69760000Y-78700000D02*
X62080000Y-78700000D01*
X69760000Y-78700000D02*
X69760000Y-81360000D01*
X52070000Y-69059437D02*
X51320000Y-69809437D01*
X54090000Y-69059437D02*
X54840000Y-69809437D01*
X51320000Y-69809437D02*
X51320000Y-72440000D01*
X54840000Y-69809437D02*
X54840000Y-72440000D01*
X54840000Y-72440000D02*
X54090000Y-72440000D01*
X51320000Y-72440000D02*
X52070000Y-72440000D01*
X59660000Y-54660000D02*
X60280000Y-54660000D01*
X59660000Y-56780000D02*
X59660000Y-54660000D01*
X59660000Y-70900000D02*
X59660000Y-68780000D01*
X60280000Y-70900000D02*
X59660000Y-70900000D01*
X57110000Y-75530000D02*
X57110000Y-76860000D01*
X57110000Y-76860000D02*
X55780000Y-76860000D01*
X54510000Y-76860000D02*
X49370000Y-76860000D01*
X49370000Y-74200000D02*
X49370000Y-76860000D01*
X54510000Y-74200000D02*
X49370000Y-74200000D01*
X54510000Y-74200000D02*
X54510000Y-76860000D01*
X55620000Y-69445000D02*
X55620000Y-72305000D01*
X57540000Y-69445000D02*
X55620000Y-69445000D01*
X57540000Y-72305000D02*
X57540000Y-69445000D01*
X69360000Y-75530000D02*
X69360000Y-76860000D01*
X69360000Y-76860000D02*
X68030000Y-76860000D01*
X66760000Y-76860000D02*
X59080000Y-76860000D01*
X59080000Y-74200000D02*
X59080000Y-76860000D01*
X66760000Y-74200000D02*
X59080000Y-74200000D01*
X66760000Y-74200000D02*
X66760000Y-76860000D01*
X55170000Y-79959437D02*
X54420000Y-80709437D01*
X57190000Y-79959437D02*
X57940000Y-80709437D01*
X54420000Y-80709437D02*
X54420000Y-83340000D01*
X57940000Y-80709437D02*
X57940000Y-83340000D01*
X57940000Y-83340000D02*
X57190000Y-83340000D01*
X54420000Y-83340000D02*
X55170000Y-83340000D01*
X55620000Y-99445000D02*
X55620000Y-102305000D01*
X57540000Y-99445000D02*
X55620000Y-99445000D01*
X57540000Y-102305000D02*
X57540000Y-99445000D01*
X57110000Y-105530000D02*
X57110000Y-106860000D01*
X57110000Y-106860000D02*
X55780000Y-106860000D01*
X54510000Y-106860000D02*
X49370000Y-106860000D01*
X49370000Y-104200000D02*
X49370000Y-106860000D01*
X54510000Y-104200000D02*
X49370000Y-104200000D01*
X54510000Y-104200000D02*
X54510000Y-106860000D01*
X59660000Y-84660000D02*
X60280000Y-84660000D01*
X59660000Y-86780000D02*
X59660000Y-84660000D01*
X59660000Y-100900000D02*
X59660000Y-98780000D01*
X60280000Y-100900000D02*
X59660000Y-100900000D01*
X55870000Y-95918748D02*
X55870000Y-96441252D01*
X57290000Y-95918748D02*
X57290000Y-96441252D01*
X72360000Y-50030000D02*
X72360000Y-51360000D01*
X72360000Y-51360000D02*
X71030000Y-51360000D01*
X69760000Y-51360000D02*
X62080000Y-51360000D01*
X62080000Y-48700000D02*
X62080000Y-51360000D01*
X69760000Y-48700000D02*
X62080000Y-48700000D01*
X69760000Y-48700000D02*
X69760000Y-51360000D01*
X57290000Y-35918748D02*
X57290000Y-36441252D01*
X55870000Y-35918748D02*
X55870000Y-36441252D01*
X54420000Y-23340000D02*
X55170000Y-23340000D01*
X57940000Y-23340000D02*
X57190000Y-23340000D01*
X57940000Y-20709437D02*
X57940000Y-23340000D01*
X54420000Y-20709437D02*
X54420000Y-23340000D01*
X57190000Y-19959437D02*
X57940000Y-20709437D01*
X55170000Y-19959437D02*
X54420000Y-20709437D01*
X51320000Y-42440000D02*
X52070000Y-42440000D01*
X54840000Y-42440000D02*
X54090000Y-42440000D01*
X54840000Y-39809437D02*
X54840000Y-42440000D01*
X51320000Y-39809437D02*
X51320000Y-42440000D01*
X54090000Y-39059437D02*
X54840000Y-39809437D01*
X52070000Y-39059437D02*
X51320000Y-39809437D01*
X66760000Y-44200000D02*
X66760000Y-46860000D01*
X66760000Y-44200000D02*
X59080000Y-44200000D01*
X59080000Y-44200000D02*
X59080000Y-46860000D01*
X66760000Y-46860000D02*
X59080000Y-46860000D01*
X69360000Y-46860000D02*
X68030000Y-46860000D01*
X69360000Y-45530000D02*
X69360000Y-46860000D01*
X69760000Y-18700000D02*
X69760000Y-21360000D01*
X69760000Y-18700000D02*
X62080000Y-18700000D01*
X62080000Y-18700000D02*
X62080000Y-21360000D01*
X69760000Y-21360000D02*
X62080000Y-21360000D01*
X72360000Y-21360000D02*
X71030000Y-21360000D01*
X72360000Y-20030000D02*
X72360000Y-21360000D01*
X57540000Y-42305000D02*
X57540000Y-39445000D01*
X57540000Y-39445000D02*
X55620000Y-39445000D01*
X55620000Y-39445000D02*
X55620000Y-42305000D01*
X54510000Y-44200000D02*
X54510000Y-46860000D01*
X54510000Y-44200000D02*
X49370000Y-44200000D01*
X49370000Y-44200000D02*
X49370000Y-46860000D01*
X54510000Y-46860000D02*
X49370000Y-46860000D01*
X57110000Y-46860000D02*
X55780000Y-46860000D01*
X57110000Y-45530000D02*
X57110000Y-46860000D01*
X69360000Y-105530000D02*
X69360000Y-106860000D01*
X69360000Y-106860000D02*
X68030000Y-106860000D01*
X66760000Y-106860000D02*
X59080000Y-106860000D01*
X59080000Y-104200000D02*
X59080000Y-106860000D01*
X66760000Y-104200000D02*
X59080000Y-104200000D01*
X66760000Y-104200000D02*
X66760000Y-106860000D01*
X52070000Y-99059437D02*
X51320000Y-99809437D01*
X54090000Y-99059437D02*
X54840000Y-99809437D01*
X51320000Y-99809437D02*
X51320000Y-102440000D01*
X54840000Y-99809437D02*
X54840000Y-102440000D01*
X54840000Y-102440000D02*
X54090000Y-102440000D01*
X51320000Y-102440000D02*
X52070000Y-102440000D01*
X60280000Y-40900000D02*
X59660000Y-40900000D01*
X59660000Y-40900000D02*
X59660000Y-38780000D01*
X59660000Y-26780000D02*
X59660000Y-24660000D01*
X59660000Y-24660000D02*
X60280000Y-24660000D01*
X55870000Y-65918748D02*
X55870000Y-66441252D01*
X57290000Y-65918748D02*
X57290000Y-66441252D01*
X55170000Y-49959437D02*
X54420000Y-50709437D01*
X57190000Y-49959437D02*
X57940000Y-50709437D01*
X54420000Y-50709437D02*
X54420000Y-53340000D01*
X57940000Y-50709437D02*
X57940000Y-53340000D01*
X57940000Y-53340000D02*
X57190000Y-53340000D01*
X54420000Y-53340000D02*
X55170000Y-53340000D01*
X27290000Y-95918748D02*
X27290000Y-96441252D01*
X25870000Y-95918748D02*
X25870000Y-96441252D01*
X24420000Y-83340000D02*
X25170000Y-83340000D01*
X27940000Y-83340000D02*
X27190000Y-83340000D01*
X27940000Y-80709437D02*
X27940000Y-83340000D01*
X24420000Y-80709437D02*
X24420000Y-83340000D01*
X27190000Y-79959437D02*
X27940000Y-80709437D01*
X25170000Y-79959437D02*
X24420000Y-80709437D01*
X21320000Y-102440000D02*
X22070000Y-102440000D01*
X24840000Y-102440000D02*
X24090000Y-102440000D01*
X24840000Y-99809437D02*
X24840000Y-102440000D01*
X21320000Y-99809437D02*
X21320000Y-102440000D01*
X24090000Y-99059437D02*
X24840000Y-99809437D01*
X22070000Y-99059437D02*
X21320000Y-99809437D01*
X36760000Y-104200000D02*
X36760000Y-106860000D01*
X36760000Y-104200000D02*
X29080000Y-104200000D01*
X29080000Y-104200000D02*
X29080000Y-106860000D01*
X36760000Y-106860000D02*
X29080000Y-106860000D01*
X39360000Y-106860000D02*
X38030000Y-106860000D01*
X39360000Y-105530000D02*
X39360000Y-106860000D01*
X39760000Y-78700000D02*
X39760000Y-81360000D01*
X39760000Y-78700000D02*
X32080000Y-78700000D01*
X32080000Y-78700000D02*
X32080000Y-81360000D01*
X39760000Y-81360000D02*
X32080000Y-81360000D01*
X42360000Y-81360000D02*
X41030000Y-81360000D01*
X42360000Y-80030000D02*
X42360000Y-81360000D01*
X27540000Y-102305000D02*
X27540000Y-99445000D01*
X27540000Y-99445000D02*
X25620000Y-99445000D01*
X25620000Y-99445000D02*
X25620000Y-102305000D01*
X24510000Y-104200000D02*
X24510000Y-106860000D01*
X24510000Y-104200000D02*
X19370000Y-104200000D01*
X19370000Y-104200000D02*
X19370000Y-106860000D01*
X24510000Y-106860000D02*
X19370000Y-106860000D01*
X27110000Y-106860000D02*
X25780000Y-106860000D01*
X27110000Y-105530000D02*
X27110000Y-106860000D01*
X30280000Y-100900000D02*
X29660000Y-100900000D01*
X29660000Y-100900000D02*
X29660000Y-98780000D01*
X29660000Y-86780000D02*
X29660000Y-84660000D01*
X29660000Y-84660000D02*
X30280000Y-84660000D01*
X27290000Y-65918748D02*
X27290000Y-66441252D01*
X25870000Y-65918748D02*
X25870000Y-66441252D01*
X24420000Y-53340000D02*
X25170000Y-53340000D01*
X27940000Y-53340000D02*
X27190000Y-53340000D01*
X27940000Y-50709437D02*
X27940000Y-53340000D01*
X24420000Y-50709437D02*
X24420000Y-53340000D01*
X27190000Y-49959437D02*
X27940000Y-50709437D01*
X25170000Y-49959437D02*
X24420000Y-50709437D01*
X21320000Y-72440000D02*
X22070000Y-72440000D01*
X24840000Y-72440000D02*
X24090000Y-72440000D01*
X24840000Y-69809437D02*
X24840000Y-72440000D01*
X21320000Y-69809437D02*
X21320000Y-72440000D01*
X24090000Y-69059437D02*
X24840000Y-69809437D01*
X22070000Y-69059437D02*
X21320000Y-69809437D01*
X36760000Y-74200000D02*
X36760000Y-76860000D01*
X36760000Y-74200000D02*
X29080000Y-74200000D01*
X29080000Y-74200000D02*
X29080000Y-76860000D01*
X36760000Y-76860000D02*
X29080000Y-76860000D01*
X39360000Y-76860000D02*
X38030000Y-76860000D01*
X39360000Y-75530000D02*
X39360000Y-76860000D01*
X39760000Y-48700000D02*
X39760000Y-51360000D01*
X39760000Y-48700000D02*
X32080000Y-48700000D01*
X32080000Y-48700000D02*
X32080000Y-51360000D01*
X39760000Y-51360000D02*
X32080000Y-51360000D01*
X42360000Y-51360000D02*
X41030000Y-51360000D01*
X42360000Y-50030000D02*
X42360000Y-51360000D01*
X27540000Y-72305000D02*
X27540000Y-69445000D01*
X27540000Y-69445000D02*
X25620000Y-69445000D01*
X25620000Y-69445000D02*
X25620000Y-72305000D01*
X24510000Y-74200000D02*
X24510000Y-76860000D01*
X24510000Y-74200000D02*
X19370000Y-74200000D01*
X19370000Y-74200000D02*
X19370000Y-76860000D01*
X24510000Y-76860000D02*
X19370000Y-76860000D01*
X27110000Y-76860000D02*
X25780000Y-76860000D01*
X27110000Y-75530000D02*
X27110000Y-76860000D01*
X30280000Y-70900000D02*
X29660000Y-70900000D01*
X29660000Y-70900000D02*
X29660000Y-68780000D01*
X29660000Y-56780000D02*
X29660000Y-54660000D01*
X29660000Y-54660000D02*
X30280000Y-54660000D01*
X29660000Y-24660000D02*
X30280000Y-24660000D01*
X29660000Y-26780000D02*
X29660000Y-24660000D01*
X29660000Y-40900000D02*
X29660000Y-38780000D01*
X30280000Y-40900000D02*
X29660000Y-40900000D01*
X25870000Y-35918748D02*
X25870000Y-36441252D01*
X27290000Y-35918748D02*
X27290000Y-36441252D01*
X27110000Y-45530000D02*
X27110000Y-46860000D01*
X27110000Y-46860000D02*
X25780000Y-46860000D01*
X24510000Y-46860000D02*
X19370000Y-46860000D01*
X19370000Y-44200000D02*
X19370000Y-46860000D01*
X24510000Y-44200000D02*
X19370000Y-44200000D01*
X24510000Y-44200000D02*
X24510000Y-46860000D01*
X39360000Y-45530000D02*
X39360000Y-46860000D01*
X39360000Y-46860000D02*
X38030000Y-46860000D01*
X36760000Y-46860000D02*
X29080000Y-46860000D01*
X29080000Y-44200000D02*
X29080000Y-46860000D01*
X36760000Y-44200000D02*
X29080000Y-44200000D01*
X36760000Y-44200000D02*
X36760000Y-46860000D01*
X42360000Y-20030000D02*
X42360000Y-21360000D01*
X42360000Y-21360000D02*
X41030000Y-21360000D01*
X39760000Y-21360000D02*
X32080000Y-21360000D01*
X32080000Y-18700000D02*
X32080000Y-21360000D01*
X39760000Y-18700000D02*
X32080000Y-18700000D01*
X39760000Y-18700000D02*
X39760000Y-21360000D01*
X25620000Y-39445000D02*
X25620000Y-42305000D01*
X27540000Y-39445000D02*
X25620000Y-39445000D01*
X27540000Y-42305000D02*
X27540000Y-39445000D01*
X25170000Y-19959437D02*
X24420000Y-20709437D01*
X27190000Y-19959437D02*
X27940000Y-20709437D01*
X24420000Y-20709437D02*
X24420000Y-23340000D01*
X27940000Y-20709437D02*
X27940000Y-23340000D01*
X27940000Y-23340000D02*
X27190000Y-23340000D01*
X24420000Y-23340000D02*
X25170000Y-23340000D01*
X22070000Y-39059437D02*
X21320000Y-39809437D01*
X24090000Y-39059437D02*
X24840000Y-39809437D01*
X21320000Y-39809437D02*
X21320000Y-42440000D01*
X24840000Y-39809437D02*
X24840000Y-42440000D01*
X24840000Y-42440000D02*
X24090000Y-42440000D01*
X21320000Y-42440000D02*
X22070000Y-42440000D01*
M02*
