G04 #@! TF.GenerationSoftware,KiCad,Pcbnew,5.1.4+dfsg1-1~bpo10+1*
G04 #@! TF.CreationDate,2022-07-19T17:35:19+05:30*
G04 #@! TF.ProjectId,UNO-TH_Rev3e,554e4f2d-5448-45f5-9265-7633652e6b69,rev?*
G04 #@! TF.SameCoordinates,Original*
G04 #@! TF.FileFunction,Paste,Bot*
G04 #@! TF.FilePolarity,Positive*
%FSLAX46Y46*%
G04 Gerber Fmt 4.6, Leading zero omitted, Abs format (unit mm)*
G04 Created by KiCad (PCBNEW 5.1.4+dfsg1-1~bpo10+1) date 2022-07-19 17:35:19*
%MOMM*%
%LPD*%
G04 APERTURE LIST*
%ADD10C,0.100000*%
%ADD11C,1.051560*%
G04 APERTURE END LIST*
D10*
G36*
X125357456Y-90292173D02*
G01*
X125362559Y-90292930D01*
X125367565Y-90294184D01*
X125372423Y-90295922D01*
X125377087Y-90298128D01*
X125381513Y-90300781D01*
X125385657Y-90303855D01*
X125389480Y-90307320D01*
X125392945Y-90311143D01*
X125396019Y-90315287D01*
X125398672Y-90319713D01*
X125400878Y-90324377D01*
X125402616Y-90329235D01*
X125403870Y-90334241D01*
X125404627Y-90339344D01*
X125404880Y-90344498D01*
X125404880Y-91722702D01*
X125404627Y-91727856D01*
X125403870Y-91732959D01*
X125402616Y-91737965D01*
X125400878Y-91742823D01*
X125398672Y-91747487D01*
X125396019Y-91751913D01*
X125392945Y-91756057D01*
X125389480Y-91759880D01*
X125385657Y-91763345D01*
X125381513Y-91766419D01*
X125377087Y-91769072D01*
X125372423Y-91771278D01*
X125367565Y-91773016D01*
X125362559Y-91774270D01*
X125357456Y-91775027D01*
X125352302Y-91775280D01*
X124405898Y-91775280D01*
X124400744Y-91775027D01*
X124395641Y-91774270D01*
X124390635Y-91773016D01*
X124385777Y-91771278D01*
X124381113Y-91769072D01*
X124376687Y-91766419D01*
X124372543Y-91763345D01*
X124368720Y-91759880D01*
X124365255Y-91756057D01*
X124362181Y-91751913D01*
X124359528Y-91747487D01*
X124357322Y-91742823D01*
X124355584Y-91737965D01*
X124354330Y-91732959D01*
X124353573Y-91727856D01*
X124353320Y-91722702D01*
X124353320Y-90344498D01*
X124353573Y-90339344D01*
X124354330Y-90334241D01*
X124355584Y-90329235D01*
X124357322Y-90324377D01*
X124359528Y-90319713D01*
X124362181Y-90315287D01*
X124365255Y-90311143D01*
X124368720Y-90307320D01*
X124372543Y-90303855D01*
X124376687Y-90300781D01*
X124381113Y-90298128D01*
X124385777Y-90295922D01*
X124390635Y-90294184D01*
X124395641Y-90292930D01*
X124400744Y-90292173D01*
X124405898Y-90291920D01*
X125352302Y-90291920D01*
X125357456Y-90292173D01*
X125357456Y-90292173D01*
G37*
D11*
X124879100Y-91033600D03*
D10*
G36*
X126881456Y-90292173D02*
G01*
X126886559Y-90292930D01*
X126891565Y-90294184D01*
X126896423Y-90295922D01*
X126901087Y-90298128D01*
X126905513Y-90300781D01*
X126909657Y-90303855D01*
X126913480Y-90307320D01*
X126916945Y-90311143D01*
X126920019Y-90315287D01*
X126922672Y-90319713D01*
X126924878Y-90324377D01*
X126926616Y-90329235D01*
X126927870Y-90334241D01*
X126928627Y-90339344D01*
X126928880Y-90344498D01*
X126928880Y-91722702D01*
X126928627Y-91727856D01*
X126927870Y-91732959D01*
X126926616Y-91737965D01*
X126924878Y-91742823D01*
X126922672Y-91747487D01*
X126920019Y-91751913D01*
X126916945Y-91756057D01*
X126913480Y-91759880D01*
X126909657Y-91763345D01*
X126905513Y-91766419D01*
X126901087Y-91769072D01*
X126896423Y-91771278D01*
X126891565Y-91773016D01*
X126886559Y-91774270D01*
X126881456Y-91775027D01*
X126876302Y-91775280D01*
X125929898Y-91775280D01*
X125924744Y-91775027D01*
X125919641Y-91774270D01*
X125914635Y-91773016D01*
X125909777Y-91771278D01*
X125905113Y-91769072D01*
X125900687Y-91766419D01*
X125896543Y-91763345D01*
X125892720Y-91759880D01*
X125889255Y-91756057D01*
X125886181Y-91751913D01*
X125883528Y-91747487D01*
X125881322Y-91742823D01*
X125879584Y-91737965D01*
X125878330Y-91732959D01*
X125877573Y-91727856D01*
X125877320Y-91722702D01*
X125877320Y-90344498D01*
X125877573Y-90339344D01*
X125878330Y-90334241D01*
X125879584Y-90329235D01*
X125881322Y-90324377D01*
X125883528Y-90319713D01*
X125886181Y-90315287D01*
X125889255Y-90311143D01*
X125892720Y-90307320D01*
X125896543Y-90303855D01*
X125900687Y-90300781D01*
X125905113Y-90298128D01*
X125909777Y-90295922D01*
X125914635Y-90294184D01*
X125919641Y-90292930D01*
X125924744Y-90292173D01*
X125929898Y-90291920D01*
X126876302Y-90291920D01*
X126881456Y-90292173D01*
X126881456Y-90292173D01*
G37*
D11*
X126403100Y-91033600D03*
M02*
