G04 #@! TF.GenerationSoftware,KiCad,Pcbnew,5.1.4+dfsg1-1~bpo10+1*
G04 #@! TF.CreationDate,2022-07-19T17:35:19+05:30*
G04 #@! TF.ProjectId,UNO-TH_Rev3e,554e4f2d-5448-45f5-9265-7633652e6b69,rev?*
G04 #@! TF.SameCoordinates,Original*
G04 #@! TF.FileFunction,Legend,Top*
G04 #@! TF.FilePolarity,Positive*
%FSLAX46Y46*%
G04 Gerber Fmt 4.6, Leading zero omitted, Abs format (unit mm)*
G04 Created by KiCad (PCBNEW 5.1.4+dfsg1-1~bpo10+1) date 2022-07-19 17:35:19*
%MOMM*%
%LPD*%
G04 APERTURE LIST*
%ADD10C,0.304800*%
%ADD11C,0.254000*%
%ADD12C,0.170688*%
%ADD13C,0.121920*%
%ADD14C,0.251460*%
%ADD15C,0.335280*%
%ADD16C,0.142240*%
%ADD17C,0.190500*%
%ADD18C,0.137160*%
%ADD19C,0.266700*%
%ADD20C,0.476250*%
%ADD21C,0.203200*%
%ADD22C,0.145288*%
%ADD23C,0.262128*%
%ADD24C,0.127000*%
%ADD25C,0.152400*%
%ADD26C,0.101600*%
%ADD27C,0.100000*%
%ADD28C,0.070000*%
%ADD29C,0.050800*%
%ADD30C,0.220000*%
%ADD31C,0.150000*%
%ADD32C,0.120650*%
%ADD33C,0.061772*%
%ADD34C,0.202692*%
%ADD35C,0.077216*%
%ADD36C,0.097536*%
%ADD37C,0.065024*%
%ADD38C,0.115824*%
%ADD39C,0.096520*%
%ADD40C,0.046329*%
G04 APERTURE END LIST*
D10*
X174282100Y-85572600D02*
X176060100Y-85572600D01*
X176060100Y-85572600D02*
X175171100Y-84683600D01*
X175171100Y-84683600D02*
X174282100Y-85572600D01*
X178727100Y-84683600D02*
X176949100Y-84683600D01*
X176949100Y-84683600D02*
X177838100Y-85572600D01*
X177838100Y-85572600D02*
X178727100Y-84683600D01*
X174663100Y-85445600D02*
X175171100Y-84937600D01*
X175171100Y-84937600D02*
X175679100Y-85445600D01*
X175679100Y-85445600D02*
X174917100Y-85445600D01*
X174917100Y-85445600D02*
X175298100Y-85191600D01*
X177330100Y-84810600D02*
X178346100Y-84810600D01*
X178346100Y-84810600D02*
X177838100Y-85318600D01*
X177838100Y-85318600D02*
X177457100Y-84937600D01*
X177457100Y-84937600D02*
X177965100Y-84937600D01*
X177838100Y-85064600D02*
X177838100Y-85191600D01*
X152692100Y-86588600D02*
X144564100Y-86588600D01*
X144564100Y-86588600D02*
X143421100Y-85445600D01*
X171488100Y-86588600D02*
X163360100Y-86588600D01*
X172631100Y-85445600D02*
X171488100Y-86588600D01*
D11*
X136563100Y-82905600D02*
G75*
G03X136563100Y-82905600I-254000J0D01*
G01*
D12*
X152244247Y-125939973D02*
X151600780Y-125939973D01*
X151536433Y-126583440D01*
X151600780Y-126519093D01*
X151729473Y-126454746D01*
X152051207Y-126454746D01*
X152179900Y-126519093D01*
X152244247Y-126583440D01*
X152308593Y-126712133D01*
X152308593Y-127033866D01*
X152244247Y-127162560D01*
X152179900Y-127226906D01*
X152051207Y-127291253D01*
X151729473Y-127291253D01*
X151600780Y-127226906D01*
X151536433Y-127162560D01*
X152694673Y-125939973D02*
X153145100Y-127291253D01*
X153595527Y-125939973D01*
D13*
X164462795Y-127021666D02*
X164922414Y-127021666D01*
X164370871Y-127297438D02*
X164692605Y-126332238D01*
X165014338Y-127297438D01*
X165519919Y-126332238D02*
X165611843Y-126332238D01*
X165703767Y-126378200D01*
X165749728Y-126424161D01*
X165795690Y-126516085D01*
X165841652Y-126699933D01*
X165841652Y-126929742D01*
X165795690Y-127113590D01*
X165749728Y-127205514D01*
X165703767Y-127251476D01*
X165611843Y-127297438D01*
X165519919Y-127297438D01*
X165427995Y-127251476D01*
X165382033Y-127205514D01*
X165336071Y-127113590D01*
X165290109Y-126929742D01*
X165290109Y-126699933D01*
X165336071Y-126516085D01*
X165382033Y-126424161D01*
X165427995Y-126378200D01*
X165519919Y-126332238D01*
D14*
X165223897Y-125046740D02*
X165982269Y-125046740D01*
X165072223Y-125501762D02*
X165603083Y-123909182D01*
X166133943Y-125501762D01*
X166664803Y-125501762D02*
X166664803Y-123909182D01*
X167574849Y-125501762D01*
X167574849Y-123909182D01*
X168257383Y-125046740D02*
X169015754Y-125046740D01*
X168105709Y-125501762D02*
X168636569Y-123909182D01*
X169167429Y-125501762D01*
X170456660Y-125501762D02*
X169698289Y-125501762D01*
X169698289Y-123909182D01*
X171290869Y-123909182D02*
X171594217Y-123909182D01*
X171745891Y-123985020D01*
X171897566Y-124136694D01*
X171973403Y-124440042D01*
X171973403Y-124970902D01*
X171897566Y-125274251D01*
X171745891Y-125425925D01*
X171594217Y-125501762D01*
X171290869Y-125501762D01*
X171139194Y-125425925D01*
X170987520Y-125274251D01*
X170911683Y-124970902D01*
X170911683Y-124440042D01*
X170987520Y-124136694D01*
X171139194Y-123985020D01*
X171290869Y-123909182D01*
X173490146Y-123985020D02*
X173338471Y-123909182D01*
X173110960Y-123909182D01*
X172883449Y-123985020D01*
X172731774Y-124136694D01*
X172655937Y-124288368D01*
X172580100Y-124591717D01*
X172580100Y-124819228D01*
X172655937Y-125122577D01*
X172731774Y-125274251D01*
X172883449Y-125425925D01*
X173110960Y-125501762D01*
X173262634Y-125501762D01*
X173490146Y-125425925D01*
X173565983Y-125350088D01*
X173565983Y-124819228D01*
X173262634Y-124819228D01*
X175461911Y-125501762D02*
X175461911Y-123909182D01*
X176220283Y-125501762D02*
X176220283Y-123909182D01*
X177130329Y-125501762D01*
X177130329Y-123909182D01*
X153906134Y-87183562D02*
X153906134Y-85590982D01*
X154285320Y-85590982D01*
X154512831Y-85666820D01*
X154664506Y-85818494D01*
X154740343Y-85970168D01*
X154816180Y-86273517D01*
X154816180Y-86501028D01*
X154740343Y-86804377D01*
X154664506Y-86956051D01*
X154512831Y-87107725D01*
X154285320Y-87183562D01*
X153906134Y-87183562D01*
X155498714Y-87183562D02*
X155498714Y-85590982D01*
X157091294Y-85666820D02*
X156939620Y-85590982D01*
X156712109Y-85590982D01*
X156484597Y-85666820D01*
X156332923Y-85818494D01*
X156257086Y-85970168D01*
X156181249Y-86273517D01*
X156181249Y-86501028D01*
X156257086Y-86804377D01*
X156332923Y-86956051D01*
X156484597Y-87107725D01*
X156712109Y-87183562D01*
X156863783Y-87183562D01*
X157091294Y-87107725D01*
X157167131Y-87031888D01*
X157167131Y-86501028D01*
X156863783Y-86501028D01*
X157849666Y-87183562D02*
X157849666Y-85590982D01*
X158380526Y-85590982D02*
X159290571Y-85590982D01*
X158835549Y-87183562D02*
X158835549Y-85590982D01*
X159745594Y-86728540D02*
X160503966Y-86728540D01*
X159593920Y-87183562D02*
X160124780Y-85590982D01*
X160655640Y-87183562D01*
X161944871Y-87183562D02*
X161186500Y-87183562D01*
X161186500Y-85590982D01*
D15*
X155574612Y-92688833D02*
X156838565Y-92688833D01*
X155321822Y-93447204D02*
X156206589Y-90792904D01*
X157091355Y-93447204D01*
X157976122Y-93447204D02*
X157976122Y-91677671D01*
X157976122Y-92183252D02*
X158102517Y-91930461D01*
X158228912Y-91804066D01*
X158481703Y-91677671D01*
X158734493Y-91677671D01*
X160756817Y-93447204D02*
X160756817Y-90792904D01*
X160756817Y-93320809D02*
X160504027Y-93447204D01*
X159998446Y-93447204D01*
X159745655Y-93320809D01*
X159619260Y-93194414D01*
X159492865Y-92941623D01*
X159492865Y-92183252D01*
X159619260Y-91930461D01*
X159745655Y-91804066D01*
X159998446Y-91677671D01*
X160504027Y-91677671D01*
X160756817Y-91804066D01*
X163158327Y-91677671D02*
X163158327Y-93447204D01*
X162020770Y-91677671D02*
X162020770Y-93068019D01*
X162147165Y-93320809D01*
X162399955Y-93447204D01*
X162779141Y-93447204D01*
X163031932Y-93320809D01*
X163158327Y-93194414D01*
X164422279Y-93447204D02*
X164422279Y-91677671D01*
X164422279Y-90792904D02*
X164295884Y-90919300D01*
X164422279Y-91045695D01*
X164548674Y-90919300D01*
X164422279Y-90792904D01*
X164422279Y-91045695D01*
X165686232Y-91677671D02*
X165686232Y-93447204D01*
X165686232Y-91930461D02*
X165812627Y-91804066D01*
X166065417Y-91677671D01*
X166444603Y-91677671D01*
X166697393Y-91804066D01*
X166823789Y-92056857D01*
X166823789Y-93447204D01*
X168466927Y-93447204D02*
X168214136Y-93320809D01*
X168087741Y-93194414D01*
X167961346Y-92941623D01*
X167961346Y-92183252D01*
X168087741Y-91930461D01*
X168214136Y-91804066D01*
X168466927Y-91677671D01*
X168846112Y-91677671D01*
X169098903Y-91804066D01*
X169225298Y-91930461D01*
X169351693Y-92183252D01*
X169351693Y-92941623D01*
X169225298Y-93194414D01*
X169098903Y-93320809D01*
X168846112Y-93447204D01*
X168466927Y-93447204D01*
D16*
X138128753Y-87236816D02*
X138128753Y-86593349D01*
X138514833Y-87365509D02*
X137163553Y-86915082D01*
X138514833Y-86464656D01*
X138514833Y-85242069D02*
X137871366Y-85692496D01*
X138514833Y-86014229D02*
X137163553Y-86014229D01*
X137163553Y-85499456D01*
X137227900Y-85370762D01*
X137292246Y-85306416D01*
X137420940Y-85242069D01*
X137613980Y-85242069D01*
X137742673Y-85306416D01*
X137807020Y-85370762D01*
X137871366Y-85499456D01*
X137871366Y-86014229D01*
X137807020Y-84662949D02*
X137807020Y-84212522D01*
X138514833Y-84019482D02*
X138514833Y-84662949D01*
X137163553Y-84662949D01*
X137163553Y-84019482D01*
X137807020Y-82989936D02*
X137807020Y-83440362D01*
X138514833Y-83440362D02*
X137163553Y-83440362D01*
X137163553Y-82796896D01*
D17*
X176500563Y-101671747D02*
X175811134Y-101671747D01*
X176155848Y-101671747D02*
X176155848Y-100465247D01*
X176040944Y-100637604D01*
X175926039Y-100752509D01*
X175811134Y-100809961D01*
D16*
X139884100Y-85717896D02*
X139819753Y-85846589D01*
X139819753Y-86039629D01*
X139884100Y-86232669D01*
X140012793Y-86361362D01*
X140141486Y-86425709D01*
X140398873Y-86490056D01*
X140591913Y-86490056D01*
X140849300Y-86425709D01*
X140977993Y-86361362D01*
X141106686Y-86232669D01*
X141171033Y-86039629D01*
X141171033Y-85910936D01*
X141106686Y-85717896D01*
X141042340Y-85653549D01*
X140591913Y-85653549D01*
X140591913Y-85910936D01*
X141171033Y-85074429D02*
X139819753Y-85074429D01*
X141171033Y-84302269D01*
X139819753Y-84302269D01*
X141171033Y-83658802D02*
X139819753Y-83658802D01*
X139819753Y-83337069D01*
X139884100Y-83144029D01*
X140012793Y-83015336D01*
X140141486Y-82950989D01*
X140398873Y-82886642D01*
X140591913Y-82886642D01*
X140849300Y-82950989D01*
X140977993Y-83015336D01*
X141106686Y-83144029D01*
X141171033Y-83337069D01*
X141171033Y-83658802D01*
D18*
X107667624Y-80002742D02*
X107667624Y-78916892D01*
X108029574Y-79692500D01*
X108391524Y-78916892D01*
X108391524Y-80002742D01*
X108908596Y-79899328D02*
X108960303Y-79951035D01*
X108908596Y-80002742D01*
X108856888Y-79951035D01*
X108908596Y-79899328D01*
X108908596Y-80002742D01*
X109787617Y-79433964D02*
X109942738Y-79485671D01*
X109994446Y-79537378D01*
X110046153Y-79640792D01*
X110046153Y-79795914D01*
X109994446Y-79899328D01*
X109942738Y-79951035D01*
X109839324Y-80002742D01*
X109425667Y-80002742D01*
X109425667Y-78916892D01*
X109787617Y-78916892D01*
X109891031Y-78968600D01*
X109942738Y-79020307D01*
X109994446Y-79123721D01*
X109994446Y-79227135D01*
X109942738Y-79330550D01*
X109891031Y-79382257D01*
X109787617Y-79433964D01*
X109425667Y-79433964D01*
X110976881Y-80002742D02*
X110976881Y-79433964D01*
X110925174Y-79330550D01*
X110821760Y-79278842D01*
X110614931Y-79278842D01*
X110511517Y-79330550D01*
X110976881Y-79951035D02*
X110873467Y-80002742D01*
X110614931Y-80002742D01*
X110511517Y-79951035D01*
X110459810Y-79847621D01*
X110459810Y-79744207D01*
X110511517Y-79640792D01*
X110614931Y-79589085D01*
X110873467Y-79589085D01*
X110976881Y-79537378D01*
X111493953Y-79278842D02*
X111493953Y-80002742D01*
X111493953Y-79382257D02*
X111545660Y-79330550D01*
X111649074Y-79278842D01*
X111804196Y-79278842D01*
X111907610Y-79330550D01*
X111959317Y-79433964D01*
X111959317Y-80002742D01*
X112372974Y-79278842D02*
X112941753Y-79278842D01*
X112372974Y-80002742D01*
X112941753Y-80002742D01*
X113355410Y-80002742D02*
X113355410Y-79278842D01*
X113355410Y-78916892D02*
X113303703Y-78968600D01*
X113355410Y-79020307D01*
X113407117Y-78968600D01*
X113355410Y-78916892D01*
X113355410Y-79020307D01*
X103454853Y-81907742D02*
X103454853Y-80821892D01*
X103713388Y-80821892D01*
X103868510Y-80873600D01*
X103971924Y-80977014D01*
X104023631Y-81080428D01*
X104075338Y-81287257D01*
X104075338Y-81442378D01*
X104023631Y-81649207D01*
X103971924Y-81752621D01*
X103868510Y-81856035D01*
X103713388Y-81907742D01*
X103454853Y-81907742D01*
X104540703Y-81804328D02*
X104592410Y-81856035D01*
X104540703Y-81907742D01*
X104488996Y-81856035D01*
X104540703Y-81804328D01*
X104540703Y-81907742D01*
X105678260Y-81804328D02*
X105626553Y-81856035D01*
X105471431Y-81907742D01*
X105368017Y-81907742D01*
X105212896Y-81856035D01*
X105109481Y-81752621D01*
X105057774Y-81649207D01*
X105006067Y-81442378D01*
X105006067Y-81287257D01*
X105057774Y-81080428D01*
X105109481Y-80977014D01*
X105212896Y-80873600D01*
X105368017Y-80821892D01*
X105471431Y-80821892D01*
X105626553Y-80873600D01*
X105678260Y-80925307D01*
X106608988Y-81183842D02*
X106608988Y-81907742D01*
X106143624Y-81183842D02*
X106143624Y-81752621D01*
X106195331Y-81856035D01*
X106298746Y-81907742D01*
X106453867Y-81907742D01*
X106557281Y-81856035D01*
X106608988Y-81804328D01*
X107591424Y-81907742D02*
X107591424Y-81338964D01*
X107539717Y-81235550D01*
X107436303Y-81183842D01*
X107229474Y-81183842D01*
X107126060Y-81235550D01*
X107591424Y-81856035D02*
X107488010Y-81907742D01*
X107229474Y-81907742D01*
X107126060Y-81856035D01*
X107074353Y-81752621D01*
X107074353Y-81649207D01*
X107126060Y-81545792D01*
X107229474Y-81494085D01*
X107488010Y-81494085D01*
X107591424Y-81442378D01*
X108108496Y-81907742D02*
X108108496Y-81183842D01*
X108108496Y-81390671D02*
X108160203Y-81287257D01*
X108211910Y-81235550D01*
X108315324Y-81183842D01*
X108418738Y-81183842D01*
X108625567Y-81183842D02*
X109039224Y-81183842D01*
X108780688Y-80821892D02*
X108780688Y-81752621D01*
X108832396Y-81856035D01*
X108935810Y-81907742D01*
X109039224Y-81907742D01*
X109401174Y-81907742D02*
X109401174Y-81183842D01*
X109401174Y-80821892D02*
X109349467Y-80873600D01*
X109401174Y-80925307D01*
X109452881Y-80873600D01*
X109401174Y-80821892D01*
X109401174Y-80925307D01*
X110331903Y-81856035D02*
X110228488Y-81907742D01*
X110021660Y-81907742D01*
X109918246Y-81856035D01*
X109866538Y-81752621D01*
X109866538Y-81338964D01*
X109918246Y-81235550D01*
X110021660Y-81183842D01*
X110228488Y-81183842D01*
X110331903Y-81235550D01*
X110383610Y-81338964D01*
X110383610Y-81442378D01*
X109866538Y-81545792D01*
X111004096Y-81907742D02*
X110900681Y-81856035D01*
X110848974Y-81752621D01*
X110848974Y-80821892D01*
X111572874Y-81907742D02*
X111469460Y-81856035D01*
X111417753Y-81752621D01*
X111417753Y-80821892D01*
X112400188Y-81856035D02*
X112296774Y-81907742D01*
X112089946Y-81907742D01*
X111986531Y-81856035D01*
X111934824Y-81752621D01*
X111934824Y-81338964D01*
X111986531Y-81235550D01*
X112089946Y-81183842D01*
X112296774Y-81183842D01*
X112400188Y-81235550D01*
X112451896Y-81338964D01*
X112451896Y-81442378D01*
X111934824Y-81545792D01*
X112865553Y-81856035D02*
X112968967Y-81907742D01*
X113175796Y-81907742D01*
X113279210Y-81856035D01*
X113330917Y-81752621D01*
X113330917Y-81700914D01*
X113279210Y-81597500D01*
X113175796Y-81545792D01*
X113020674Y-81545792D01*
X112917260Y-81494085D01*
X112865553Y-81390671D01*
X112865553Y-81338964D01*
X112917260Y-81235550D01*
X113020674Y-81183842D01*
X113175796Y-81183842D01*
X113279210Y-81235550D01*
X107488010Y-86733742D02*
X107488010Y-85647892D01*
X107746546Y-85647892D01*
X107901667Y-85699600D01*
X108005081Y-85803014D01*
X108056788Y-85906428D01*
X108108496Y-86113257D01*
X108108496Y-86268378D01*
X108056788Y-86475207D01*
X108005081Y-86578621D01*
X107901667Y-86682035D01*
X107746546Y-86733742D01*
X107488010Y-86733742D01*
X108573860Y-86630328D02*
X108625567Y-86682035D01*
X108573860Y-86733742D01*
X108522153Y-86682035D01*
X108573860Y-86630328D01*
X108573860Y-86733742D01*
X109090931Y-86733742D02*
X109090931Y-85647892D01*
X109452881Y-86423500D01*
X109814831Y-85647892D01*
X109814831Y-86733742D01*
X110745560Y-86682035D02*
X110642146Y-86733742D01*
X110435317Y-86733742D01*
X110331903Y-86682035D01*
X110280196Y-86578621D01*
X110280196Y-86164964D01*
X110331903Y-86061550D01*
X110435317Y-86009842D01*
X110642146Y-86009842D01*
X110745560Y-86061550D01*
X110797267Y-86164964D01*
X110797267Y-86268378D01*
X110280196Y-86371792D01*
X111417753Y-86733742D02*
X111314338Y-86682035D01*
X111262631Y-86578621D01*
X111262631Y-85647892D01*
X111986531Y-86733742D02*
X111883117Y-86682035D01*
X111831410Y-86578621D01*
X111831410Y-85647892D01*
X112400188Y-86733742D02*
X112400188Y-86009842D01*
X112400188Y-85647892D02*
X112348481Y-85699600D01*
X112400188Y-85751307D01*
X112451896Y-85699600D01*
X112400188Y-85647892D01*
X112400188Y-85751307D01*
X112865553Y-86682035D02*
X112968967Y-86733742D01*
X113175796Y-86733742D01*
X113279210Y-86682035D01*
X113330917Y-86578621D01*
X113330917Y-86526914D01*
X113279210Y-86423500D01*
X113175796Y-86371792D01*
X113020674Y-86371792D01*
X112917260Y-86320085D01*
X112865553Y-86216671D01*
X112865553Y-86164964D01*
X112917260Y-86061550D01*
X113020674Y-86009842D01*
X113175796Y-86009842D01*
X113279210Y-86061550D01*
D16*
X174513073Y-88006250D02*
X174513073Y-87234090D01*
X175864353Y-87620170D02*
X174513073Y-87620170D01*
X174513073Y-86912357D02*
X175864353Y-86011504D01*
X174513073Y-86011504D02*
X175864353Y-86912357D01*
X178408753Y-87053250D02*
X177765286Y-87503677D01*
X178408753Y-87825410D02*
X177057473Y-87825410D01*
X177057473Y-87310637D01*
X177121820Y-87181944D01*
X177186166Y-87117597D01*
X177314860Y-87053250D01*
X177507900Y-87053250D01*
X177636593Y-87117597D01*
X177700940Y-87181944D01*
X177765286Y-87310637D01*
X177765286Y-87825410D01*
X177057473Y-86602824D02*
X178408753Y-85701970D01*
X177057473Y-85701970D02*
X178408753Y-86602824D01*
D13*
X143996688Y-94679830D02*
X144437922Y-94679830D01*
X144217305Y-95451990D02*
X144217305Y-94679830D01*
X144621770Y-94679830D02*
X145136543Y-95451990D01*
X145136543Y-94679830D02*
X144621770Y-95451990D01*
X144506429Y-97981830D02*
X144249043Y-97614135D01*
X144065195Y-97981830D02*
X144065195Y-97209670D01*
X144359351Y-97209670D01*
X144432890Y-97246440D01*
X144469660Y-97283209D01*
X144506429Y-97356748D01*
X144506429Y-97467057D01*
X144469660Y-97540596D01*
X144432890Y-97577365D01*
X144359351Y-97614135D01*
X144065195Y-97614135D01*
X144763816Y-97209670D02*
X145278589Y-97981830D01*
X145278589Y-97209670D02*
X144763816Y-97981830D01*
D18*
X106764110Y-84048600D02*
X106660696Y-83996892D01*
X106505574Y-83996892D01*
X106350453Y-84048600D01*
X106247038Y-84152014D01*
X106195331Y-84255428D01*
X106143624Y-84462257D01*
X106143624Y-84617378D01*
X106195331Y-84824207D01*
X106247038Y-84927621D01*
X106350453Y-85031035D01*
X106505574Y-85082742D01*
X106608988Y-85082742D01*
X106764110Y-85031035D01*
X106815817Y-84979328D01*
X106815817Y-84617378D01*
X106608988Y-84617378D01*
X107281181Y-84979328D02*
X107332888Y-85031035D01*
X107281181Y-85082742D01*
X107229474Y-85031035D01*
X107281181Y-84979328D01*
X107281181Y-85082742D01*
X107798253Y-85082742D02*
X107798253Y-83996892D01*
X108160203Y-84772500D01*
X108522153Y-83996892D01*
X108522153Y-85082742D01*
X109504588Y-85082742D02*
X109504588Y-84513964D01*
X109452881Y-84410550D01*
X109349467Y-84358842D01*
X109142638Y-84358842D01*
X109039224Y-84410550D01*
X109504588Y-85031035D02*
X109401174Y-85082742D01*
X109142638Y-85082742D01*
X109039224Y-85031035D01*
X108987517Y-84927621D01*
X108987517Y-84824207D01*
X109039224Y-84720792D01*
X109142638Y-84669085D01*
X109401174Y-84669085D01*
X109504588Y-84617378D01*
X110021660Y-85082742D02*
X110021660Y-84358842D01*
X110021660Y-84565671D02*
X110073367Y-84462257D01*
X110125074Y-84410550D01*
X110228488Y-84358842D01*
X110331903Y-84358842D01*
X110538731Y-84358842D02*
X110952388Y-84358842D01*
X110693853Y-83996892D02*
X110693853Y-84927621D01*
X110745560Y-85031035D01*
X110848974Y-85082742D01*
X110952388Y-85082742D01*
X111314338Y-85082742D02*
X111314338Y-84358842D01*
X111314338Y-83996892D02*
X111262631Y-84048600D01*
X111314338Y-84100307D01*
X111366046Y-84048600D01*
X111314338Y-83996892D01*
X111314338Y-84100307D01*
X111831410Y-84358842D02*
X111831410Y-85082742D01*
X111831410Y-84462257D02*
X111883117Y-84410550D01*
X111986531Y-84358842D01*
X112141653Y-84358842D01*
X112245067Y-84410550D01*
X112296774Y-84513964D01*
X112296774Y-85082742D01*
X112968967Y-85082742D02*
X112865553Y-85031035D01*
X112813846Y-84979328D01*
X112762138Y-84875914D01*
X112762138Y-84565671D01*
X112813846Y-84462257D01*
X112865553Y-84410550D01*
X112968967Y-84358842D01*
X113124088Y-84358842D01*
X113227503Y-84410550D01*
X113279210Y-84462257D01*
X113330917Y-84565671D01*
X113330917Y-84875914D01*
X113279210Y-84979328D01*
X113227503Y-85031035D01*
X113124088Y-85082742D01*
X112968967Y-85082742D01*
D19*
X145774621Y-75459166D02*
X145774621Y-73770066D01*
X146337655Y-74976566D01*
X146900688Y-73770066D01*
X146900688Y-75459166D01*
X147624588Y-74976566D02*
X148428921Y-74976566D01*
X147463721Y-75459166D02*
X148026755Y-73770066D01*
X148589788Y-75459166D01*
X149152821Y-75459166D02*
X149152821Y-73770066D01*
X149554988Y-73770066D01*
X149796288Y-73850500D01*
X149957155Y-74011366D01*
X150037588Y-74172233D01*
X150118021Y-74493966D01*
X150118021Y-74735266D01*
X150037588Y-75057000D01*
X149957155Y-75217866D01*
X149796288Y-75378733D01*
X149554988Y-75459166D01*
X149152821Y-75459166D01*
X150841921Y-74574400D02*
X151404955Y-74574400D01*
X151646255Y-75459166D02*
X150841921Y-75459166D01*
X150841921Y-73770066D01*
X151646255Y-73770066D01*
X153657088Y-75459166D02*
X153657088Y-73770066D01*
X154461421Y-75459166D02*
X154461421Y-73770066D01*
X155426621Y-75459166D01*
X155426621Y-73770066D01*
X157839621Y-75332166D02*
X157839621Y-73643066D01*
X158402655Y-73643066D02*
X159367855Y-73643066D01*
X158885255Y-75332166D02*
X158885255Y-73643066D01*
X159850455Y-74849566D02*
X160654788Y-74849566D01*
X159689588Y-75332166D02*
X160252621Y-73643066D01*
X160815655Y-75332166D01*
X162183021Y-75332166D02*
X161378688Y-75332166D01*
X161378688Y-73643066D01*
X163067788Y-74527833D02*
X163067788Y-75332166D01*
X162504755Y-73643066D02*
X163067788Y-74527833D01*
X163630821Y-73643066D01*
D18*
X108884103Y-82345892D02*
X109504588Y-82345892D01*
X109194346Y-83431742D02*
X109194346Y-82345892D01*
X109866538Y-83328328D02*
X109918246Y-83380035D01*
X109866538Y-83431742D01*
X109814831Y-83380035D01*
X109866538Y-83328328D01*
X109866538Y-83431742D01*
X110383610Y-83431742D02*
X110383610Y-82345892D01*
X111366046Y-82707842D02*
X111366046Y-83586864D01*
X111314338Y-83690278D01*
X111262631Y-83741985D01*
X111159217Y-83793692D01*
X111004096Y-83793692D01*
X110900681Y-83741985D01*
X111366046Y-83380035D02*
X111262631Y-83431742D01*
X111055803Y-83431742D01*
X110952388Y-83380035D01*
X110900681Y-83328328D01*
X110848974Y-83224914D01*
X110848974Y-82914671D01*
X110900681Y-82811257D01*
X110952388Y-82759550D01*
X111055803Y-82707842D01*
X111262631Y-82707842D01*
X111366046Y-82759550D01*
X112038238Y-83431742D02*
X111934824Y-83380035D01*
X111883117Y-83328328D01*
X111831410Y-83224914D01*
X111831410Y-82914671D01*
X111883117Y-82811257D01*
X111934824Y-82759550D01*
X112038238Y-82707842D01*
X112193360Y-82707842D01*
X112296774Y-82759550D01*
X112348481Y-82811257D01*
X112400188Y-82914671D01*
X112400188Y-83224914D01*
X112348481Y-83328328D01*
X112296774Y-83380035D01*
X112193360Y-83431742D01*
X112038238Y-83431742D01*
X113279210Y-83380035D02*
X113175796Y-83431742D01*
X112968967Y-83431742D01*
X112865553Y-83380035D01*
X112813846Y-83276621D01*
X112813846Y-82862964D01*
X112865553Y-82759550D01*
X112968967Y-82707842D01*
X113175796Y-82707842D01*
X113279210Y-82759550D01*
X113330917Y-82862964D01*
X113330917Y-82966378D01*
X112813846Y-83069792D01*
D20*
X155878817Y-94223719D02*
X155878817Y-96665445D01*
X156022448Y-96952707D01*
X156166079Y-97096338D01*
X156453341Y-97239969D01*
X157027864Y-97239969D01*
X157315126Y-97096338D01*
X157458757Y-96952707D01*
X157602388Y-96665445D01*
X157602388Y-94223719D01*
X159038698Y-97239969D02*
X159038698Y-94223719D01*
X160762269Y-97239969D01*
X160762269Y-94223719D01*
X162773102Y-94223719D02*
X163347626Y-94223719D01*
X163634888Y-94367350D01*
X163922150Y-94654611D01*
X164065781Y-95229135D01*
X164065781Y-96234552D01*
X163922150Y-96809076D01*
X163634888Y-97096338D01*
X163347626Y-97239969D01*
X162773102Y-97239969D01*
X162485841Y-97096338D01*
X162198579Y-96809076D01*
X162054948Y-96234552D01*
X162054948Y-95229135D01*
X162198579Y-94654611D01*
X162485841Y-94367350D01*
X162773102Y-94223719D01*
D16*
X147420753Y-126042250D02*
X146777286Y-126492677D01*
X147420753Y-126814410D02*
X146069473Y-126814410D01*
X146069473Y-126299637D01*
X146133820Y-126170944D01*
X146198166Y-126106597D01*
X146326860Y-126042250D01*
X146519900Y-126042250D01*
X146648593Y-126106597D01*
X146712940Y-126170944D01*
X146777286Y-126299637D01*
X146777286Y-126814410D01*
X146712940Y-125463130D02*
X146712940Y-125012704D01*
X147420753Y-124819664D02*
X147420753Y-125463130D01*
X146069473Y-125463130D01*
X146069473Y-124819664D01*
X147356406Y-124304890D02*
X147420753Y-124111850D01*
X147420753Y-123790117D01*
X147356406Y-123661424D01*
X147292060Y-123597077D01*
X147163366Y-123532730D01*
X147034673Y-123532730D01*
X146905980Y-123597077D01*
X146841633Y-123661424D01*
X146777286Y-123790117D01*
X146712940Y-124047504D01*
X146648593Y-124176197D01*
X146584246Y-124240544D01*
X146455553Y-124304890D01*
X146326860Y-124304890D01*
X146198166Y-124240544D01*
X146133820Y-124176197D01*
X146069473Y-124047504D01*
X146069473Y-123725770D01*
X146133820Y-123532730D01*
X146712940Y-122953610D02*
X146712940Y-122503184D01*
X147420753Y-122310144D02*
X147420753Y-122953610D01*
X146069473Y-122953610D01*
X146069473Y-122310144D01*
X146069473Y-121924064D02*
X146069473Y-121151904D01*
X147420753Y-121537984D02*
X146069473Y-121537984D01*
X148863473Y-127070104D02*
X148863473Y-126233597D01*
X149378246Y-126684024D01*
X149378246Y-126490984D01*
X149442593Y-126362290D01*
X149506940Y-126297944D01*
X149635633Y-126233597D01*
X149957366Y-126233597D01*
X150086060Y-126297944D01*
X150150406Y-126362290D01*
X150214753Y-126490984D01*
X150214753Y-126877064D01*
X150150406Y-127005757D01*
X150086060Y-127070104D01*
X148863473Y-125847517D02*
X150214753Y-125397090D01*
X148863473Y-124946664D01*
X148863473Y-124624930D02*
X148863473Y-123788424D01*
X149378246Y-124238850D01*
X149378246Y-124045810D01*
X149442593Y-123917117D01*
X149506940Y-123852770D01*
X149635633Y-123788424D01*
X149957366Y-123788424D01*
X150086060Y-123852770D01*
X150150406Y-123917117D01*
X150214753Y-124045810D01*
X150214753Y-124431890D01*
X150150406Y-124560584D01*
X150086060Y-124624930D01*
D21*
X170950103Y-90657438D02*
X171501646Y-90657438D01*
X171225875Y-91622638D02*
X171225875Y-90657438D01*
X171823380Y-91622638D02*
X171823380Y-90657438D01*
X172145113Y-91346866D01*
X172466846Y-90657438D01*
X172466846Y-91622638D01*
D13*
X167002795Y-127021666D02*
X167462414Y-127021666D01*
X166910871Y-127297438D02*
X167232605Y-126332238D01*
X167554338Y-127297438D01*
X168381652Y-127297438D02*
X167830109Y-127297438D01*
X168105881Y-127297438D02*
X168105881Y-126332238D01*
X168013957Y-126470123D01*
X167922033Y-126562047D01*
X167830109Y-126608009D01*
X169542795Y-127021666D02*
X170002414Y-127021666D01*
X169450871Y-127297438D02*
X169772605Y-126332238D01*
X170094338Y-127297438D01*
X170370109Y-126424161D02*
X170416071Y-126378200D01*
X170507995Y-126332238D01*
X170737805Y-126332238D01*
X170829728Y-126378200D01*
X170875690Y-126424161D01*
X170921652Y-126516085D01*
X170921652Y-126608009D01*
X170875690Y-126745895D01*
X170324148Y-127297438D01*
X170921652Y-127297438D01*
X172082795Y-127021666D02*
X172542414Y-127021666D01*
X171990871Y-127297438D02*
X172312605Y-126332238D01*
X172634338Y-127297438D01*
X172864148Y-126332238D02*
X173461652Y-126332238D01*
X173139919Y-126699933D01*
X173277805Y-126699933D01*
X173369728Y-126745895D01*
X173415690Y-126791857D01*
X173461652Y-126883780D01*
X173461652Y-127113590D01*
X173415690Y-127205514D01*
X173369728Y-127251476D01*
X173277805Y-127297438D01*
X173002033Y-127297438D01*
X172910109Y-127251476D01*
X172864148Y-127205514D01*
X174622795Y-127021666D02*
X175082414Y-127021666D01*
X174530871Y-127297438D02*
X174852605Y-126332238D01*
X175174338Y-127297438D01*
X175909728Y-126653971D02*
X175909728Y-127297438D01*
X175679919Y-126286276D02*
X175450109Y-126975704D01*
X176047614Y-126975704D01*
X177162795Y-127021666D02*
X177622414Y-127021666D01*
X177070871Y-127297438D02*
X177392605Y-126332238D01*
X177714338Y-127297438D01*
X178495690Y-126332238D02*
X178036071Y-126332238D01*
X177990109Y-126791857D01*
X178036071Y-126745895D01*
X178127995Y-126699933D01*
X178357805Y-126699933D01*
X178449728Y-126745895D01*
X178495690Y-126791857D01*
X178541652Y-126883780D01*
X178541652Y-127113590D01*
X178495690Y-127205514D01*
X178449728Y-127251476D01*
X178357805Y-127297438D01*
X178127995Y-127297438D01*
X178036071Y-127251476D01*
X177990109Y-127205514D01*
D12*
X158773740Y-125939973D02*
X159224167Y-127291253D01*
X159674593Y-125939973D01*
X160125020Y-127291253D02*
X160125020Y-125939973D01*
X160768487Y-127291253D02*
X160768487Y-125939973D01*
X161540647Y-127291253D01*
X161540647Y-125939973D01*
X155364993Y-126017520D02*
X155236300Y-125953173D01*
X155043260Y-125953173D01*
X154850220Y-126017520D01*
X154721527Y-126146213D01*
X154657180Y-126274906D01*
X154592833Y-126532293D01*
X154592833Y-126725333D01*
X154657180Y-126982720D01*
X154721527Y-127111413D01*
X154850220Y-127240106D01*
X155043260Y-127304453D01*
X155171953Y-127304453D01*
X155364993Y-127240106D01*
X155429340Y-127175760D01*
X155429340Y-126725333D01*
X155171953Y-126725333D01*
X156008460Y-127304453D02*
X156008460Y-125953173D01*
X156780620Y-127304453D01*
X156780620Y-125953173D01*
X157424087Y-127304453D02*
X157424087Y-125953173D01*
X157745820Y-125953173D01*
X157938860Y-126017520D01*
X158067553Y-126146213D01*
X158131900Y-126274906D01*
X158196247Y-126532293D01*
X158196247Y-126725333D01*
X158131900Y-126982720D01*
X158067553Y-127111413D01*
X157938860Y-127240106D01*
X157745820Y-127304453D01*
X157424087Y-127304453D01*
X143692033Y-84306867D02*
X143692033Y-85079027D01*
X143692033Y-84692947D02*
X142340753Y-84692947D01*
X142533793Y-84821640D01*
X142662486Y-84950333D01*
X142726833Y-85079027D01*
X142340753Y-83856440D02*
X142340753Y-83019933D01*
X142855526Y-83470360D01*
X142855526Y-83277320D01*
X142919873Y-83148627D01*
X142984220Y-83084280D01*
X143112913Y-83019933D01*
X143434646Y-83019933D01*
X143563340Y-83084280D01*
X143627686Y-83148627D01*
X143692033Y-83277320D01*
X143692033Y-83663400D01*
X143627686Y-83792093D01*
X143563340Y-83856440D01*
X146232033Y-84306867D02*
X146232033Y-85079027D01*
X146232033Y-84692947D02*
X144880753Y-84692947D01*
X145073793Y-84821640D01*
X145202486Y-84950333D01*
X145266833Y-85079027D01*
X145009446Y-83792093D02*
X144945100Y-83727747D01*
X144880753Y-83599053D01*
X144880753Y-83277320D01*
X144945100Y-83148627D01*
X145009446Y-83084280D01*
X145138140Y-83019933D01*
X145266833Y-83019933D01*
X145459873Y-83084280D01*
X146232033Y-83856440D01*
X146232033Y-83019933D01*
X148772033Y-84306867D02*
X148772033Y-85079027D01*
X148772033Y-84692947D02*
X147420753Y-84692947D01*
X147613793Y-84821640D01*
X147742486Y-84950333D01*
X147806833Y-85079027D01*
X148772033Y-83019933D02*
X148772033Y-83792093D01*
X148772033Y-83406013D02*
X147420753Y-83406013D01*
X147613793Y-83534707D01*
X147742486Y-83663400D01*
X147806833Y-83792093D01*
X151312033Y-84306867D02*
X151312033Y-85079027D01*
X151312033Y-84692947D02*
X149960753Y-84692947D01*
X150153793Y-84821640D01*
X150282486Y-84950333D01*
X150346833Y-85079027D01*
X149960753Y-83470360D02*
X149960753Y-83341667D01*
X150025100Y-83212973D01*
X150089446Y-83148627D01*
X150218140Y-83084280D01*
X150475526Y-83019933D01*
X150797260Y-83019933D01*
X151054646Y-83084280D01*
X151183340Y-83148627D01*
X151247686Y-83212973D01*
X151312033Y-83341667D01*
X151312033Y-83470360D01*
X151247686Y-83599053D01*
X151183340Y-83663400D01*
X151054646Y-83727747D01*
X150797260Y-83792093D01*
X150475526Y-83792093D01*
X150218140Y-83727747D01*
X150089446Y-83663400D01*
X150025100Y-83599053D01*
X149960753Y-83470360D01*
X153852033Y-83663400D02*
X153852033Y-83406013D01*
X153787686Y-83277320D01*
X153723340Y-83212973D01*
X153530300Y-83084280D01*
X153272913Y-83019933D01*
X152758140Y-83019933D01*
X152629446Y-83084280D01*
X152565100Y-83148627D01*
X152500753Y-83277320D01*
X152500753Y-83534707D01*
X152565100Y-83663400D01*
X152629446Y-83727747D01*
X152758140Y-83792093D01*
X153079873Y-83792093D01*
X153208566Y-83727747D01*
X153272913Y-83663400D01*
X153337260Y-83534707D01*
X153337260Y-83277320D01*
X153272913Y-83148627D01*
X153208566Y-83084280D01*
X153079873Y-83019933D01*
X155619873Y-83534707D02*
X155555526Y-83663400D01*
X155491180Y-83727747D01*
X155362486Y-83792093D01*
X155298140Y-83792093D01*
X155169446Y-83727747D01*
X155105100Y-83663400D01*
X155040753Y-83534707D01*
X155040753Y-83277320D01*
X155105100Y-83148627D01*
X155169446Y-83084280D01*
X155298140Y-83019933D01*
X155362486Y-83019933D01*
X155491180Y-83084280D01*
X155555526Y-83148627D01*
X155619873Y-83277320D01*
X155619873Y-83534707D01*
X155684220Y-83663400D01*
X155748566Y-83727747D01*
X155877260Y-83792093D01*
X156134646Y-83792093D01*
X156263340Y-83727747D01*
X156327686Y-83663400D01*
X156392033Y-83534707D01*
X156392033Y-83277320D01*
X156327686Y-83148627D01*
X156263340Y-83084280D01*
X156134646Y-83019933D01*
X155877260Y-83019933D01*
X155748566Y-83084280D01*
X155684220Y-83148627D01*
X155619873Y-83277320D01*
X159104753Y-83856440D02*
X159104753Y-82955587D01*
X160456033Y-83534707D01*
X161644753Y-83148627D02*
X161644753Y-83406013D01*
X161709100Y-83534707D01*
X161773446Y-83599053D01*
X161966486Y-83727747D01*
X162223873Y-83792093D01*
X162738646Y-83792093D01*
X162867340Y-83727747D01*
X162931686Y-83663400D01*
X162996033Y-83534707D01*
X162996033Y-83277320D01*
X162931686Y-83148627D01*
X162867340Y-83084280D01*
X162738646Y-83019933D01*
X162416913Y-83019933D01*
X162288220Y-83084280D01*
X162223873Y-83148627D01*
X162159526Y-83277320D01*
X162159526Y-83534707D01*
X162223873Y-83663400D01*
X162288220Y-83727747D01*
X162416913Y-83792093D01*
X164184753Y-83084280D02*
X164184753Y-83727747D01*
X164828220Y-83792093D01*
X164763873Y-83727747D01*
X164699526Y-83599053D01*
X164699526Y-83277320D01*
X164763873Y-83148627D01*
X164828220Y-83084280D01*
X164956913Y-83019933D01*
X165278646Y-83019933D01*
X165407340Y-83084280D01*
X165471686Y-83148627D01*
X165536033Y-83277320D01*
X165536033Y-83599053D01*
X165471686Y-83727747D01*
X165407340Y-83792093D01*
X167175180Y-83148627D02*
X168076033Y-83148627D01*
X166660406Y-83470360D02*
X167625606Y-83792093D01*
X167625606Y-82955587D01*
X169264753Y-83856440D02*
X169264753Y-83019933D01*
X169779526Y-83470360D01*
X169779526Y-83277320D01*
X169843873Y-83148627D01*
X169908220Y-83084280D01*
X170036913Y-83019933D01*
X170358646Y-83019933D01*
X170487340Y-83084280D01*
X170551686Y-83148627D01*
X170616033Y-83277320D01*
X170616033Y-83663400D01*
X170551686Y-83792093D01*
X170487340Y-83856440D01*
X171933446Y-83792093D02*
X171869100Y-83727747D01*
X171804753Y-83599053D01*
X171804753Y-83277320D01*
X171869100Y-83148627D01*
X171933446Y-83084280D01*
X172062140Y-83019933D01*
X172190833Y-83019933D01*
X172383873Y-83084280D01*
X173156033Y-83856440D01*
X173156033Y-83019933D01*
X175696033Y-83019933D02*
X175696033Y-83792093D01*
X175696033Y-83406013D02*
X174344753Y-83406013D01*
X174537793Y-83534707D01*
X174666486Y-83663400D01*
X174730833Y-83792093D01*
X176884753Y-83470360D02*
X176884753Y-83341667D01*
X176949100Y-83212973D01*
X177013446Y-83148627D01*
X177142140Y-83084280D01*
X177399526Y-83019933D01*
X177721260Y-83019933D01*
X177978646Y-83084280D01*
X178107340Y-83148627D01*
X178171686Y-83212973D01*
X178236033Y-83341667D01*
X178236033Y-83470360D01*
X178171686Y-83599053D01*
X178107340Y-83663400D01*
X177978646Y-83727747D01*
X177721260Y-83792093D01*
X177399526Y-83792093D01*
X177142140Y-83727747D01*
X177013446Y-83663400D01*
X176949100Y-83599053D01*
X176884753Y-83470360D01*
D22*
X155755676Y-88923948D02*
X155502885Y-88923948D01*
X155502885Y-87407205D01*
X155755676Y-87407205D01*
X156109582Y-87862228D02*
X156867954Y-87862228D01*
X156412931Y-87407205D02*
X156109582Y-88772274D01*
X156766838Y-88317251D02*
X156008466Y-88317251D01*
X156463489Y-88772274D02*
X156766838Y-87407205D01*
X157221861Y-88013902D02*
X158030790Y-88013902D01*
X158030790Y-88317251D02*
X157221861Y-88317251D01*
X158536371Y-88570041D02*
X158536371Y-87508321D01*
X158940836Y-87508321D01*
X159041952Y-87558880D01*
X159092510Y-87609438D01*
X159143068Y-87710554D01*
X159143068Y-87862228D01*
X159092510Y-87963344D01*
X159041952Y-88013902D01*
X158940836Y-88064460D01*
X158536371Y-88064460D01*
X159496975Y-87508321D02*
X159749765Y-88570041D01*
X159951998Y-87811670D01*
X160154230Y-88570041D01*
X160407021Y-87508321D01*
X160811485Y-88570041D02*
X160811485Y-87508321D01*
X161165392Y-88266693D01*
X161519299Y-87508321D01*
X161519299Y-88570041D01*
X161923763Y-88923948D02*
X162176554Y-88923948D01*
X162176554Y-87407205D01*
X161923763Y-87407205D01*
X148123728Y-86037930D02*
X148123728Y-85279558D01*
X147668705Y-85734581D02*
X149033774Y-86037930D01*
X148578751Y-85380675D02*
X148578751Y-86139046D01*
X149033774Y-85684023D02*
X147668705Y-85380675D01*
X150663728Y-86037930D02*
X150663728Y-85279558D01*
X150208705Y-85734581D02*
X151573774Y-86037930D01*
X151118751Y-85380675D02*
X151118751Y-86139046D01*
X151573774Y-85684023D02*
X150208705Y-85380675D01*
X164760728Y-84767930D02*
X164760728Y-84009558D01*
X164305705Y-84464581D02*
X165670774Y-84767930D01*
X165215751Y-84110675D02*
X165215751Y-84869046D01*
X165670774Y-84414023D02*
X164305705Y-84110675D01*
X169840728Y-84767930D02*
X169840728Y-84009558D01*
X169385705Y-84464581D02*
X170750774Y-84767930D01*
X170295751Y-84110675D02*
X170295751Y-84869046D01*
X170750774Y-84414023D02*
X169385705Y-84110675D01*
X162347728Y-84767930D02*
X162347728Y-84009558D01*
X161892705Y-84464581D02*
X163257774Y-84767930D01*
X162802751Y-84110675D02*
X162802751Y-84869046D01*
X163257774Y-84414023D02*
X161892705Y-84110675D01*
X153076728Y-84767930D02*
X153076728Y-84009558D01*
X152621705Y-84464581D02*
X153986774Y-84767930D01*
X153531751Y-84110675D02*
X153531751Y-84869046D01*
X153986774Y-84414023D02*
X152621705Y-84110675D01*
D23*
X147189937Y-98187328D02*
X147585209Y-99570781D01*
X147980482Y-98582600D01*
X148375754Y-99570781D01*
X148771027Y-98187328D01*
X149363935Y-98187328D02*
X149759207Y-99570781D01*
X150154480Y-98582600D01*
X150549752Y-99570781D01*
X150945025Y-98187328D01*
X151537933Y-98187328D02*
X151933206Y-99570781D01*
X152328478Y-98582600D01*
X152723750Y-99570781D01*
X153119023Y-98187328D01*
X153909567Y-99373145D02*
X154008386Y-99471963D01*
X153909567Y-99570781D01*
X153810749Y-99471963D01*
X153909567Y-99373145D01*
X153909567Y-99570781D01*
X155787111Y-99570781D02*
X155787111Y-98483782D01*
X155688293Y-98286146D01*
X155490657Y-98187328D01*
X155095385Y-98187328D01*
X154897748Y-98286146D01*
X155787111Y-99471963D02*
X155589475Y-99570781D01*
X155095385Y-99570781D01*
X154897748Y-99471963D01*
X154798930Y-99274327D01*
X154798930Y-99076691D01*
X154897748Y-98879055D01*
X155095385Y-98780237D01*
X155589475Y-98780237D01*
X155787111Y-98681419D01*
X156775292Y-99570781D02*
X156775292Y-98187328D01*
X156775292Y-98582600D02*
X156874110Y-98384964D01*
X156972928Y-98286146D01*
X157170565Y-98187328D01*
X157368201Y-98187328D01*
X158949290Y-99570781D02*
X158949290Y-97495601D01*
X158949290Y-99471963D02*
X158751654Y-99570781D01*
X158356382Y-99570781D01*
X158158746Y-99471963D01*
X158059927Y-99373145D01*
X157961109Y-99175509D01*
X157961109Y-98582600D01*
X158059927Y-98384964D01*
X158158746Y-98286146D01*
X158356382Y-98187328D01*
X158751654Y-98187328D01*
X158949290Y-98286146D01*
X160826834Y-98187328D02*
X160826834Y-99570781D01*
X159937471Y-98187328D02*
X159937471Y-99274327D01*
X160036289Y-99471963D01*
X160233926Y-99570781D01*
X160530380Y-99570781D01*
X160728016Y-99471963D01*
X160826834Y-99373145D01*
X161815015Y-99570781D02*
X161815015Y-98187328D01*
X161815015Y-97495601D02*
X161716197Y-97594420D01*
X161815015Y-97693238D01*
X161913833Y-97594420D01*
X161815015Y-97495601D01*
X161815015Y-97693238D01*
X162803196Y-98187328D02*
X162803196Y-99570781D01*
X162803196Y-98384964D02*
X162902014Y-98286146D01*
X163099650Y-98187328D01*
X163396105Y-98187328D01*
X163593741Y-98286146D01*
X163692559Y-98483782D01*
X163692559Y-99570781D01*
X164977194Y-99570781D02*
X164779558Y-99471963D01*
X164680740Y-99373145D01*
X164581922Y-99175509D01*
X164581922Y-98582600D01*
X164680740Y-98384964D01*
X164779558Y-98286146D01*
X164977194Y-98187328D01*
X165273648Y-98187328D01*
X165471285Y-98286146D01*
X165570103Y-98384964D01*
X165668921Y-98582600D01*
X165668921Y-99175509D01*
X165570103Y-99373145D01*
X165471285Y-99471963D01*
X165273648Y-99570781D01*
X164977194Y-99570781D01*
X166558284Y-99373145D02*
X166657102Y-99471963D01*
X166558284Y-99570781D01*
X166459466Y-99471963D01*
X166558284Y-99373145D01*
X166558284Y-99570781D01*
X168435827Y-99471963D02*
X168238191Y-99570781D01*
X167842919Y-99570781D01*
X167645283Y-99471963D01*
X167546465Y-99373145D01*
X167447647Y-99175509D01*
X167447647Y-98582600D01*
X167546465Y-98384964D01*
X167645283Y-98286146D01*
X167842919Y-98187328D01*
X168238191Y-98187328D01*
X168435827Y-98286146D01*
X170214553Y-99471963D02*
X170016917Y-99570781D01*
X169621645Y-99570781D01*
X169424008Y-99471963D01*
X169325190Y-99373145D01*
X169226372Y-99175509D01*
X169226372Y-98582600D01*
X169325190Y-98384964D01*
X169424008Y-98286146D01*
X169621645Y-98187328D01*
X170016917Y-98187328D01*
X170214553Y-98286146D01*
D16*
X145261753Y-126814410D02*
X143910473Y-126814410D01*
X143910473Y-125913557D02*
X143910473Y-125656170D01*
X143974820Y-125527477D01*
X144103513Y-125398784D01*
X144360900Y-125334437D01*
X144811326Y-125334437D01*
X145068713Y-125398784D01*
X145197406Y-125527477D01*
X145261753Y-125656170D01*
X145261753Y-125913557D01*
X145197406Y-126042250D01*
X145068713Y-126170944D01*
X144811326Y-126235290D01*
X144360900Y-126235290D01*
X144103513Y-126170944D01*
X143974820Y-126042250D01*
X143910473Y-125913557D01*
X145261753Y-123983157D02*
X144618286Y-124433584D01*
X145261753Y-124755317D02*
X143910473Y-124755317D01*
X143910473Y-124240544D01*
X143974820Y-124111850D01*
X144039166Y-124047504D01*
X144167860Y-123983157D01*
X144360900Y-123983157D01*
X144489593Y-124047504D01*
X144553940Y-124111850D01*
X144618286Y-124240544D01*
X144618286Y-124755317D01*
X144553940Y-123404037D02*
X144553940Y-122953610D01*
X145261753Y-122760570D02*
X145261753Y-123404037D01*
X143910473Y-123404037D01*
X143910473Y-122760570D01*
X144553940Y-121731024D02*
X144553940Y-122181450D01*
X145261753Y-122181450D02*
X143910473Y-122181450D01*
X143910473Y-121537984D01*
X136404606Y-77742957D02*
X136468953Y-77549917D01*
X136468953Y-77228184D01*
X136404606Y-77099490D01*
X136340260Y-77035144D01*
X136211566Y-76970797D01*
X136082873Y-76970797D01*
X135954180Y-77035144D01*
X135889833Y-77099490D01*
X135825486Y-77228184D01*
X135761140Y-77485570D01*
X135696793Y-77614264D01*
X135632446Y-77678610D01*
X135503753Y-77742957D01*
X135375060Y-77742957D01*
X135246366Y-77678610D01*
X135182020Y-77614264D01*
X135117673Y-77485570D01*
X135117673Y-77163837D01*
X135182020Y-76970797D01*
X136468953Y-76391677D02*
X135117673Y-76391677D01*
X135117673Y-76069944D01*
X135182020Y-75876904D01*
X135310713Y-75748210D01*
X135439406Y-75683864D01*
X135696793Y-75619517D01*
X135889833Y-75619517D01*
X136147220Y-75683864D01*
X136275913Y-75748210D01*
X136404606Y-75876904D01*
X136468953Y-76069944D01*
X136468953Y-76391677D01*
X136082873Y-75104744D02*
X136082873Y-74461277D01*
X136468953Y-75233437D02*
X135117673Y-74783010D01*
X136468953Y-74332584D01*
X133610606Y-77615957D02*
X133674953Y-77422917D01*
X133674953Y-77101184D01*
X133610606Y-76972490D01*
X133546260Y-76908144D01*
X133417566Y-76843797D01*
X133288873Y-76843797D01*
X133160180Y-76908144D01*
X133095833Y-76972490D01*
X133031486Y-77101184D01*
X132967140Y-77358570D01*
X132902793Y-77487264D01*
X132838446Y-77551610D01*
X132709753Y-77615957D01*
X132581060Y-77615957D01*
X132452366Y-77551610D01*
X132388020Y-77487264D01*
X132323673Y-77358570D01*
X132323673Y-77036837D01*
X132388020Y-76843797D01*
X133546260Y-75492517D02*
X133610606Y-75556864D01*
X133674953Y-75749904D01*
X133674953Y-75878597D01*
X133610606Y-76071637D01*
X133481913Y-76200330D01*
X133353220Y-76264677D01*
X133095833Y-76329024D01*
X132902793Y-76329024D01*
X132645406Y-76264677D01*
X132516713Y-76200330D01*
X132388020Y-76071637D01*
X132323673Y-75878597D01*
X132323673Y-75749904D01*
X132388020Y-75556864D01*
X132452366Y-75492517D01*
X133674953Y-74269930D02*
X133674953Y-74913397D01*
X132323673Y-74913397D01*
D24*
X115887500Y-128346200D02*
X115887500Y-119380000D01*
X112407700Y-128371600D02*
X120180100Y-128371600D01*
X112407700Y-119380000D02*
X112407700Y-128371600D01*
X115887500Y-119380000D02*
X112407700Y-119380000D01*
X125895100Y-119380000D02*
X115887500Y-119380000D01*
X125895100Y-120751600D02*
X125895100Y-119380000D01*
X125895100Y-128371600D02*
X125577600Y-128371600D01*
X125895100Y-126149100D02*
X125895100Y-128371600D01*
D25*
X142024100Y-118084600D02*
X142024100Y-112496600D01*
X179108100Y-118084600D02*
X142024100Y-118084600D01*
X179108100Y-118084600D02*
X179108100Y-115925600D01*
X179108100Y-112496600D02*
X142024100Y-112496600D01*
X179108100Y-114655600D02*
G75*
G03X179108100Y-115925600I0J-635000D01*
G01*
X179108100Y-114655600D02*
X179108100Y-112496600D01*
X176568100Y-105638600D02*
X176568100Y-106908600D01*
X181013100Y-107543600D02*
X177203100Y-107543600D01*
X181648100Y-106908600D02*
X181013100Y-107543600D01*
X181648100Y-105638600D02*
X181648100Y-106908600D01*
X181013100Y-105003600D02*
X181648100Y-105638600D01*
X176568100Y-106908600D02*
X177203100Y-107543600D01*
X177203100Y-105003600D02*
X176568100Y-105638600D01*
X176568100Y-100558600D02*
X176568100Y-101828600D01*
X176568100Y-103098600D02*
X176568100Y-104368600D01*
X181013100Y-105003600D02*
X177203100Y-105003600D01*
X181013100Y-102463600D02*
X177203100Y-102463600D01*
X181648100Y-104368600D02*
X181013100Y-105003600D01*
X181648100Y-103098600D02*
X181648100Y-104368600D01*
X181013100Y-102463600D02*
X181648100Y-103098600D01*
X181648100Y-101828600D02*
X181013100Y-102463600D01*
X181648100Y-100558600D02*
X181648100Y-101828600D01*
X181013100Y-99923600D02*
X181648100Y-100558600D01*
X177203100Y-99923600D02*
X181013100Y-99923600D01*
X176568100Y-104368600D02*
X177203100Y-105003600D01*
X177203100Y-102463600D02*
X176568100Y-103098600D01*
X176568100Y-101828600D02*
X177203100Y-102463600D01*
X177203100Y-99923600D02*
X176568100Y-100558600D01*
X159296100Y-79603600D02*
X160566100Y-79603600D01*
X161201100Y-80238600D02*
X160566100Y-79603600D01*
X160566100Y-82143600D02*
X161201100Y-81508600D01*
X158661100Y-80238600D02*
X159296100Y-79603600D01*
X158661100Y-81508600D02*
X158661100Y-80238600D01*
X159296100Y-82143600D02*
X158661100Y-81508600D01*
X160566100Y-82143600D02*
X159296100Y-82143600D01*
X177076100Y-79603600D02*
X178346100Y-79603600D01*
X178981100Y-80238600D02*
X178346100Y-79603600D01*
X178346100Y-82143600D02*
X178981100Y-81508600D01*
X178981100Y-81508600D02*
X178981100Y-80238600D01*
X175806100Y-79603600D02*
X176441100Y-80238600D01*
X174536100Y-79603600D02*
X175806100Y-79603600D01*
X173901100Y-80238600D02*
X174536100Y-79603600D01*
X173901100Y-81508600D02*
X173901100Y-80238600D01*
X174536100Y-82143600D02*
X173901100Y-81508600D01*
X175806100Y-82143600D02*
X174536100Y-82143600D01*
X176441100Y-81508600D02*
X175806100Y-82143600D01*
X176441100Y-80238600D02*
X177076100Y-79603600D01*
X176441100Y-81508600D02*
X176441100Y-80238600D01*
X177076100Y-82143600D02*
X176441100Y-81508600D01*
X178346100Y-82143600D02*
X177076100Y-82143600D01*
X169456100Y-79603600D02*
X170726100Y-79603600D01*
X171361100Y-80238600D02*
X170726100Y-79603600D01*
X170726100Y-82143600D02*
X171361100Y-81508600D01*
X173266100Y-79603600D02*
X173901100Y-80238600D01*
X171996100Y-79603600D02*
X173266100Y-79603600D01*
X171361100Y-80238600D02*
X171996100Y-79603600D01*
X171361100Y-81508600D02*
X171361100Y-80238600D01*
X171996100Y-82143600D02*
X171361100Y-81508600D01*
X173266100Y-82143600D02*
X171996100Y-82143600D01*
X173901100Y-81508600D02*
X173266100Y-82143600D01*
X168186100Y-79603600D02*
X168821100Y-80238600D01*
X166916100Y-79603600D02*
X168186100Y-79603600D01*
X166281100Y-80238600D02*
X166916100Y-79603600D01*
X166281100Y-81508600D02*
X166281100Y-80238600D01*
X166916100Y-82143600D02*
X166281100Y-81508600D01*
X168186100Y-82143600D02*
X166916100Y-82143600D01*
X168821100Y-81508600D02*
X168186100Y-82143600D01*
X168821100Y-80238600D02*
X169456100Y-79603600D01*
X168821100Y-81508600D02*
X168821100Y-80238600D01*
X169456100Y-82143600D02*
X168821100Y-81508600D01*
X170726100Y-82143600D02*
X169456100Y-82143600D01*
X161836100Y-79603600D02*
X163106100Y-79603600D01*
X163741100Y-80238600D02*
X163106100Y-79603600D01*
X163106100Y-82143600D02*
X163741100Y-81508600D01*
X165646100Y-79603600D02*
X166281100Y-80238600D01*
X164376100Y-79603600D02*
X165646100Y-79603600D01*
X163741100Y-80238600D02*
X164376100Y-79603600D01*
X163741100Y-81508600D02*
X163741100Y-80238600D01*
X164376100Y-82143600D02*
X163741100Y-81508600D01*
X165646100Y-82143600D02*
X164376100Y-82143600D01*
X166281100Y-81508600D02*
X165646100Y-82143600D01*
X161201100Y-80238600D02*
X161836100Y-79603600D01*
X161201100Y-81508600D02*
X161201100Y-80238600D01*
X161836100Y-82143600D02*
X161201100Y-81508600D01*
X163106100Y-82143600D02*
X161836100Y-82143600D01*
X132372100Y-79603600D02*
X133642100Y-79603600D01*
X134277100Y-80238600D02*
X133642100Y-79603600D01*
X133642100Y-82143600D02*
X134277100Y-81508600D01*
X131737100Y-80238600D02*
X132372100Y-79603600D01*
X131737100Y-81508600D02*
X131737100Y-80238600D01*
X132372100Y-82143600D02*
X131737100Y-81508600D01*
X133642100Y-82143600D02*
X132372100Y-82143600D01*
X155232100Y-79603600D02*
X156502100Y-79603600D01*
X157137100Y-80238600D02*
X156502100Y-79603600D01*
X156502100Y-82143600D02*
X157137100Y-81508600D01*
X157137100Y-81508600D02*
X157137100Y-80238600D01*
X153962100Y-79603600D02*
X154597100Y-80238600D01*
X152692100Y-79603600D02*
X153962100Y-79603600D01*
X152057100Y-80238600D02*
X152692100Y-79603600D01*
X152057100Y-81508600D02*
X152057100Y-80238600D01*
X152692100Y-82143600D02*
X152057100Y-81508600D01*
X153962100Y-82143600D02*
X152692100Y-82143600D01*
X154597100Y-81508600D02*
X153962100Y-82143600D01*
X154597100Y-80238600D02*
X155232100Y-79603600D01*
X154597100Y-81508600D02*
X154597100Y-80238600D01*
X155232100Y-82143600D02*
X154597100Y-81508600D01*
X156502100Y-82143600D02*
X155232100Y-82143600D01*
X147612100Y-79603600D02*
X148882100Y-79603600D01*
X149517100Y-80238600D02*
X148882100Y-79603600D01*
X148882100Y-82143600D02*
X149517100Y-81508600D01*
X151422100Y-79603600D02*
X152057100Y-80238600D01*
X150152100Y-79603600D02*
X151422100Y-79603600D01*
X149517100Y-80238600D02*
X150152100Y-79603600D01*
X149517100Y-81508600D02*
X149517100Y-80238600D01*
X150152100Y-82143600D02*
X149517100Y-81508600D01*
X151422100Y-82143600D02*
X150152100Y-82143600D01*
X152057100Y-81508600D02*
X151422100Y-82143600D01*
X146342100Y-79603600D02*
X146977100Y-80238600D01*
X145072100Y-79603600D02*
X146342100Y-79603600D01*
X144437100Y-80238600D02*
X145072100Y-79603600D01*
X144437100Y-81508600D02*
X144437100Y-80238600D01*
X145072100Y-82143600D02*
X144437100Y-81508600D01*
X146342100Y-82143600D02*
X145072100Y-82143600D01*
X146977100Y-81508600D02*
X146342100Y-82143600D01*
X146977100Y-80238600D02*
X147612100Y-79603600D01*
X146977100Y-81508600D02*
X146977100Y-80238600D01*
X147612100Y-82143600D02*
X146977100Y-81508600D01*
X148882100Y-82143600D02*
X147612100Y-82143600D01*
X139992100Y-79603600D02*
X141262100Y-79603600D01*
X141897100Y-80238600D02*
X141262100Y-79603600D01*
X141262100Y-82143600D02*
X141897100Y-81508600D01*
X143802100Y-79603600D02*
X144437100Y-80238600D01*
X142532100Y-79603600D02*
X143802100Y-79603600D01*
X141897100Y-80238600D02*
X142532100Y-79603600D01*
X141897100Y-81508600D02*
X141897100Y-80238600D01*
X142532100Y-82143600D02*
X141897100Y-81508600D01*
X143802100Y-82143600D02*
X142532100Y-82143600D01*
X144437100Y-81508600D02*
X143802100Y-82143600D01*
X138722100Y-79603600D02*
X139357100Y-80238600D01*
X137452100Y-79603600D02*
X138722100Y-79603600D01*
X136817100Y-80238600D02*
X137452100Y-79603600D01*
X136817100Y-81508600D02*
X136817100Y-80238600D01*
X137452100Y-82143600D02*
X136817100Y-81508600D01*
X138722100Y-82143600D02*
X137452100Y-82143600D01*
X139357100Y-81508600D02*
X138722100Y-82143600D01*
X139357100Y-80238600D02*
X139992100Y-79603600D01*
X139357100Y-81508600D02*
X139357100Y-80238600D01*
X139992100Y-82143600D02*
X139357100Y-81508600D01*
X141262100Y-82143600D02*
X139992100Y-82143600D01*
X136182100Y-79603600D02*
X136817100Y-80238600D01*
X134912100Y-79603600D02*
X136182100Y-79603600D01*
X134277100Y-80238600D02*
X134912100Y-79603600D01*
X134277100Y-81508600D02*
X134277100Y-80238600D01*
X134912100Y-82143600D02*
X134277100Y-81508600D01*
X136182100Y-82143600D02*
X134912100Y-82143600D01*
X136817100Y-81508600D02*
X136182100Y-82143600D01*
X178346100Y-130403600D02*
X177076100Y-130403600D01*
X176441100Y-129768600D02*
X177076100Y-130403600D01*
X177076100Y-127863600D02*
X176441100Y-128498600D01*
X178981100Y-129768600D02*
X178346100Y-130403600D01*
X178981100Y-128498600D02*
X178981100Y-129768600D01*
X178346100Y-127863600D02*
X178981100Y-128498600D01*
X177076100Y-127863600D02*
X178346100Y-127863600D01*
X165646100Y-130403600D02*
X164376100Y-130403600D01*
X163741100Y-129768600D02*
X164376100Y-130403600D01*
X164376100Y-127863600D02*
X163741100Y-128498600D01*
X163741100Y-128498600D02*
X163741100Y-129768600D01*
X166916100Y-130403600D02*
X166281100Y-129768600D01*
X168186100Y-130403600D02*
X166916100Y-130403600D01*
X168821100Y-129768600D02*
X168186100Y-130403600D01*
X168821100Y-128498600D02*
X168821100Y-129768600D01*
X168186100Y-127863600D02*
X168821100Y-128498600D01*
X166916100Y-127863600D02*
X168186100Y-127863600D01*
X166281100Y-128498600D02*
X166916100Y-127863600D01*
X166281100Y-129768600D02*
X165646100Y-130403600D01*
X166281100Y-128498600D02*
X166281100Y-129768600D01*
X165646100Y-127863600D02*
X166281100Y-128498600D01*
X164376100Y-127863600D02*
X165646100Y-127863600D01*
X173266100Y-130403600D02*
X171996100Y-130403600D01*
X171361100Y-129768600D02*
X171996100Y-130403600D01*
X171996100Y-127863600D02*
X171361100Y-128498600D01*
X169456100Y-130403600D02*
X168821100Y-129768600D01*
X170726100Y-130403600D02*
X169456100Y-130403600D01*
X171361100Y-129768600D02*
X170726100Y-130403600D01*
X171361100Y-128498600D02*
X171361100Y-129768600D01*
X170726100Y-127863600D02*
X171361100Y-128498600D01*
X169456100Y-127863600D02*
X170726100Y-127863600D01*
X168821100Y-128498600D02*
X169456100Y-127863600D01*
X174536100Y-130403600D02*
X173901100Y-129768600D01*
X175806100Y-130403600D02*
X174536100Y-130403600D01*
X176441100Y-129768600D02*
X175806100Y-130403600D01*
X176441100Y-128498600D02*
X176441100Y-129768600D01*
X175806100Y-127863600D02*
X176441100Y-128498600D01*
X174536100Y-127863600D02*
X175806100Y-127863600D01*
X173901100Y-128498600D02*
X174536100Y-127863600D01*
X173901100Y-129768600D02*
X173266100Y-130403600D01*
X173901100Y-128498600D02*
X173901100Y-129768600D01*
X173266100Y-127863600D02*
X173901100Y-128498600D01*
X171996100Y-127863600D02*
X173266100Y-127863600D01*
D26*
X140688100Y-119579600D02*
G75*
G02X140688100Y-125479600I-950000J-2950000D01*
G01*
X138788100Y-119579600D02*
G75*
G03X138788100Y-125479600I950000J-2950000D01*
G01*
X142988100Y-125779600D02*
X140688100Y-125779600D01*
X142988100Y-120979600D02*
X142988100Y-125779600D01*
X141288100Y-119279600D02*
X142988100Y-120979600D01*
X140688100Y-119279600D02*
X141288100Y-119279600D01*
X138188100Y-119279600D02*
X138788100Y-119279600D01*
X136488100Y-120979600D02*
X138188100Y-119279600D01*
X136488100Y-125779600D02*
X136488100Y-120979600D01*
X138788100Y-125779600D02*
X136488100Y-125779600D01*
X133576100Y-119579600D02*
G75*
G02X133576100Y-125479600I-950000J-2950000D01*
G01*
X131676100Y-119579600D02*
G75*
G03X131676100Y-125479600I950000J-2950000D01*
G01*
X135876100Y-125779600D02*
X133576100Y-125779600D01*
X135876100Y-120979600D02*
X135876100Y-125779600D01*
X134176100Y-119279600D02*
X135876100Y-120979600D01*
X133576100Y-119279600D02*
X134176100Y-119279600D01*
X131076100Y-119279600D02*
X131676100Y-119279600D01*
X129376100Y-120979600D02*
X131076100Y-119279600D01*
X129376100Y-125779600D02*
X129376100Y-120979600D01*
X131676100Y-125779600D02*
X129376100Y-125779600D01*
D27*
G36*
X172631100Y-94947600D02*
G01*
X172631100Y-95247600D01*
X172931100Y-95247600D01*
X172931100Y-94947600D01*
X172631100Y-94947600D01*
G37*
G36*
X172631100Y-95622600D02*
G01*
X172631100Y-95772600D01*
X172931100Y-95772600D01*
X172931100Y-95622600D01*
X172631100Y-95622600D01*
G37*
G36*
X172631100Y-94422600D02*
G01*
X172631100Y-94572600D01*
X172931100Y-94572600D01*
X172931100Y-94422600D01*
X172631100Y-94422600D01*
G37*
G36*
X142151100Y-97533600D02*
G01*
X142151100Y-97233600D01*
X141851100Y-97233600D01*
X141851100Y-97533600D01*
X142151100Y-97533600D01*
G37*
G36*
X142151100Y-96858600D02*
G01*
X142151100Y-96708600D01*
X141851100Y-96708600D01*
X141851100Y-96858600D01*
X142151100Y-96858600D01*
G37*
G36*
X142151100Y-98058600D02*
G01*
X142151100Y-97908600D01*
X141851100Y-97908600D01*
X141851100Y-98058600D01*
X142151100Y-98058600D01*
G37*
G36*
X142151100Y-95247600D02*
G01*
X142151100Y-94947600D01*
X141851100Y-94947600D01*
X141851100Y-95247600D01*
X142151100Y-95247600D01*
G37*
G36*
X142151100Y-94572600D02*
G01*
X142151100Y-94422600D01*
X141851100Y-94422600D01*
X141851100Y-94572600D01*
X142151100Y-94572600D01*
G37*
G36*
X142151100Y-95772600D02*
G01*
X142151100Y-95622600D01*
X141851100Y-95622600D01*
X141851100Y-95772600D01*
X142151100Y-95772600D01*
G37*
D21*
X135608100Y-127879600D02*
X135608100Y-129879600D01*
X136631100Y-128879600D02*
X135608100Y-127879600D01*
X135608100Y-129879600D02*
X136631100Y-128879600D01*
D26*
X138061700Y-126974600D02*
X133540500Y-126974600D01*
X138061700Y-130784600D02*
X133540500Y-130784600D01*
D11*
X123621100Y-99473600D02*
X123621100Y-87673600D01*
X107871100Y-99473600D02*
X123621100Y-99473600D01*
X107871100Y-87673600D02*
X107871100Y-99473600D01*
X123621100Y-87673600D02*
X107871100Y-87673600D01*
D21*
X120180100Y-117551200D02*
X120180100Y-110998000D01*
X123736100Y-117551200D02*
X120180100Y-117551200D01*
X123736100Y-110998000D02*
X123736100Y-117551200D01*
X120180100Y-110998000D02*
X123736100Y-110998000D01*
D27*
G36*
X142151100Y-89359600D02*
G01*
X142151100Y-89659600D01*
X142451100Y-89659600D01*
X142451100Y-89359600D01*
X142151100Y-89359600D01*
G37*
G36*
X142151100Y-90034600D02*
G01*
X142151100Y-90184600D01*
X142451100Y-90184600D01*
X142451100Y-90034600D01*
X142151100Y-90034600D01*
G37*
G36*
X142151100Y-88834600D02*
G01*
X142151100Y-88984600D01*
X142451100Y-88984600D01*
X142451100Y-88834600D01*
X142151100Y-88834600D01*
G37*
D25*
X121958100Y-103708200D02*
X122720100Y-103708200D01*
X121958100Y-106603800D02*
X121958100Y-103708200D01*
X122720100Y-106603800D02*
X121958100Y-106603800D01*
X122720100Y-103708200D02*
X122720100Y-106603800D01*
D24*
X132866300Y-98602600D02*
G75*
G03X132866300Y-98602600I-316200J0D01*
G01*
X131967600Y-99502600D02*
X136650100Y-99502600D01*
X131650100Y-99185100D02*
X131967600Y-99502600D01*
X131650100Y-94502600D02*
X131650100Y-99185100D01*
X136650100Y-94502600D02*
X131650100Y-94502600D01*
X136650100Y-99502600D02*
X136650100Y-94502600D01*
D25*
X130594100Y-82905600D02*
X129324100Y-82905600D01*
X128689100Y-87350600D02*
X128689100Y-83540600D01*
X129324100Y-87985600D02*
X128689100Y-87350600D01*
X130594100Y-87985600D02*
X129324100Y-87985600D01*
X131229100Y-87350600D02*
X130594100Y-87985600D01*
X129324100Y-82905600D02*
X128689100Y-83540600D01*
X131229100Y-83540600D02*
X130594100Y-82905600D01*
X135674100Y-82905600D02*
X134404100Y-82905600D01*
X133134100Y-82905600D02*
X131864100Y-82905600D01*
X131229100Y-87350600D02*
X131229100Y-83540600D01*
X133769100Y-87350600D02*
X133769100Y-83540600D01*
X131864100Y-87985600D02*
X131229100Y-87350600D01*
X133134100Y-87985600D02*
X131864100Y-87985600D01*
X133769100Y-87350600D02*
X133134100Y-87985600D01*
X134404100Y-87985600D02*
X133769100Y-87350600D01*
X135674100Y-87985600D02*
X134404100Y-87985600D01*
X136309100Y-87350600D02*
X135674100Y-87985600D01*
X136309100Y-83540600D02*
X136309100Y-87350600D01*
X131864100Y-82905600D02*
X131229100Y-83540600D01*
X133769100Y-83540600D02*
X133134100Y-82905600D01*
X134404100Y-82905600D02*
X133769100Y-83540600D01*
X136309100Y-83540600D02*
X135674100Y-82905600D01*
D27*
G36*
X122181100Y-86438600D02*
G01*
X121481100Y-86438600D01*
X121481100Y-86738600D01*
X122181100Y-86738600D01*
X122181100Y-86438600D01*
G37*
D28*
X120831100Y-85963600D02*
X122831100Y-85963600D01*
X122831100Y-87213600D02*
X120831100Y-87213600D01*
D24*
X123131100Y-86588600D02*
X120631100Y-86588600D01*
D25*
X140754100Y-103352600D02*
X143548100Y-103352600D01*
X140500100Y-105130600D02*
X140500100Y-103606600D01*
X143802100Y-105130600D02*
X143802100Y-103606600D01*
X143802100Y-105130600D02*
G75*
G02X143548100Y-105384600I-254000J0D01*
G01*
X140754100Y-105384600D02*
G75*
G02X140500100Y-105130600I0J254000D01*
G01*
X140754100Y-103352600D02*
G75*
G03X140500100Y-103606600I0J-254000D01*
G01*
X143802100Y-103606600D02*
G75*
G03X143548100Y-103352600I-254000J0D01*
G01*
X143548100Y-105384600D02*
X140754100Y-105384600D01*
X136309100Y-92430600D02*
X136309100Y-91160600D01*
X136309100Y-89890600D02*
X136309100Y-88620600D01*
X131864100Y-87985600D02*
X135674100Y-87985600D01*
X131864100Y-90525600D02*
X135674100Y-90525600D01*
X131229100Y-88620600D02*
X131864100Y-87985600D01*
X131229100Y-89890600D02*
X131229100Y-88620600D01*
X131864100Y-90525600D02*
X131229100Y-89890600D01*
X131229100Y-91160600D02*
X131864100Y-90525600D01*
X131229100Y-92430600D02*
X131229100Y-91160600D01*
X131864100Y-93065600D02*
X131229100Y-92430600D01*
X135674100Y-93065600D02*
X131864100Y-93065600D01*
X136309100Y-88620600D02*
X135674100Y-87985600D01*
X135674100Y-90525600D02*
X136309100Y-89890600D01*
X136309100Y-91160600D02*
X135674100Y-90525600D01*
X135674100Y-93065600D02*
X136309100Y-92430600D01*
D29*
X134551700Y-112299200D02*
G75*
G03X134551700Y-112299200I-500000J0D01*
G01*
D25*
X131637100Y-110150600D02*
X131637100Y-110054600D01*
X131637100Y-110800600D02*
X131637100Y-110607600D01*
X131637100Y-111450600D02*
X131637100Y-111257600D01*
X131637100Y-112100600D02*
X131637100Y-111907600D01*
X131637100Y-112654600D02*
X131637100Y-112557600D01*
X134887100Y-110150600D02*
X134887100Y-110054600D01*
X134887100Y-110800600D02*
X134887100Y-110607600D01*
X134887100Y-111450600D02*
X134887100Y-111257600D01*
X134887100Y-112100600D02*
X134887100Y-111907600D01*
X134887100Y-112694600D02*
X134887100Y-112557600D01*
X134562100Y-109729600D02*
G75*
G02X134887100Y-110054600I0J-325000D01*
G01*
X134887100Y-112654600D02*
G75*
G02X134562100Y-112979600I-325000J0D01*
G01*
X131637100Y-112654600D02*
G75*
G03X131962100Y-112979600I325000J0D01*
G01*
X131962100Y-109729600D02*
G75*
G03X131637100Y-110054600I0J-325000D01*
G01*
X134562100Y-112979600D02*
X131962100Y-112979600D01*
X131962100Y-109729600D02*
X134562100Y-109729600D01*
D24*
X121761100Y-82270600D02*
G75*
G03X121761100Y-82270600I-1200000J0D01*
G01*
X122061100Y-82270600D02*
G75*
G03X122061100Y-82270600I-1500000J0D01*
G01*
X119561100Y-84270600D02*
X117711100Y-84270600D01*
X121561100Y-84270600D02*
X123411100Y-84270600D01*
X121561100Y-80270600D02*
X123411100Y-80270600D01*
X117711100Y-80270600D02*
X119561100Y-80270600D01*
X119561100Y-84270600D02*
X119561100Y-84470600D01*
X119561100Y-84070600D02*
X119561100Y-84270600D01*
X121561100Y-84070600D02*
X119561100Y-84070600D01*
X121561100Y-84270600D02*
X121561100Y-84070600D01*
X121561100Y-84470600D02*
X121561100Y-84270600D01*
X119561100Y-84470600D02*
X121561100Y-84470600D01*
X119561100Y-80270600D02*
X119561100Y-80470600D01*
X119561100Y-80070600D02*
X119561100Y-80270600D01*
X121561100Y-80070600D02*
X119561100Y-80070600D01*
X121561100Y-80270600D02*
X121561100Y-80070600D01*
X121561100Y-80470600D02*
X121561100Y-80270600D01*
X119561100Y-80470600D02*
X121561100Y-80470600D01*
X117461100Y-82770600D02*
X117711100Y-82770600D01*
X117461100Y-81770600D02*
X117461100Y-82770600D01*
X117711100Y-81770600D02*
X117461100Y-81770600D01*
X117711100Y-82770600D02*
X117711100Y-84270600D01*
X117711100Y-80270600D02*
X117711100Y-81770600D01*
X123411100Y-84270600D02*
X123411100Y-80270600D01*
D30*
X157086100Y-105981600D02*
X157086100Y-107581600D01*
X153886100Y-105981600D02*
X153886100Y-107581600D01*
D25*
X136992100Y-115011600D02*
X136992100Y-115105600D01*
X136992100Y-117761600D02*
X136992100Y-117855600D01*
X135372100Y-117855600D02*
X135372100Y-117761600D01*
X135372100Y-115105600D02*
X135372100Y-115011600D01*
X135372100Y-116955600D02*
X135372100Y-116861600D01*
X135372100Y-116005600D02*
X135372100Y-115911600D01*
X136992100Y-115911600D02*
X136992100Y-116955600D01*
X135372100Y-115011600D02*
X136992100Y-115011600D01*
X136992100Y-117855600D02*
X135372100Y-117855600D01*
X160566100Y-130403600D02*
X159296100Y-130403600D01*
X158661100Y-129768600D02*
X159296100Y-130403600D01*
X159296100Y-127863600D02*
X158661100Y-128498600D01*
X161201100Y-129768600D02*
X160566100Y-130403600D01*
X161201100Y-128498600D02*
X161201100Y-129768600D01*
X160566100Y-127863600D02*
X161201100Y-128498600D01*
X159296100Y-127863600D02*
X160566100Y-127863600D01*
X142786100Y-130403600D02*
X141516100Y-130403600D01*
X140881100Y-129768600D02*
X141516100Y-130403600D01*
X141516100Y-127863600D02*
X140881100Y-128498600D01*
X140881100Y-128498600D02*
X140881100Y-129768600D01*
X144056100Y-130403600D02*
X143421100Y-129768600D01*
X145326100Y-130403600D02*
X144056100Y-130403600D01*
X145961100Y-129768600D02*
X145326100Y-130403600D01*
X145961100Y-128498600D02*
X145961100Y-129768600D01*
X145326100Y-127863600D02*
X145961100Y-128498600D01*
X144056100Y-127863600D02*
X145326100Y-127863600D01*
X143421100Y-128498600D02*
X144056100Y-127863600D01*
X143421100Y-129768600D02*
X142786100Y-130403600D01*
X143421100Y-128498600D02*
X143421100Y-129768600D01*
X142786100Y-127863600D02*
X143421100Y-128498600D01*
X141516100Y-127863600D02*
X142786100Y-127863600D01*
X150406100Y-130403600D02*
X149136100Y-130403600D01*
X148501100Y-129768600D02*
X149136100Y-130403600D01*
X149136100Y-127863600D02*
X148501100Y-128498600D01*
X146596100Y-130403600D02*
X145961100Y-129768600D01*
X147866100Y-130403600D02*
X146596100Y-130403600D01*
X148501100Y-129768600D02*
X147866100Y-130403600D01*
X148501100Y-128498600D02*
X148501100Y-129768600D01*
X147866100Y-127863600D02*
X148501100Y-128498600D01*
X146596100Y-127863600D02*
X147866100Y-127863600D01*
X145961100Y-128498600D02*
X146596100Y-127863600D01*
X151676100Y-130403600D02*
X151041100Y-129768600D01*
X152946100Y-130403600D02*
X151676100Y-130403600D01*
X153581100Y-129768600D02*
X152946100Y-130403600D01*
X153581100Y-128498600D02*
X153581100Y-129768600D01*
X152946100Y-127863600D02*
X153581100Y-128498600D01*
X151676100Y-127863600D02*
X152946100Y-127863600D01*
X151041100Y-128498600D02*
X151676100Y-127863600D01*
X151041100Y-129768600D02*
X150406100Y-130403600D01*
X151041100Y-128498600D02*
X151041100Y-129768600D01*
X150406100Y-127863600D02*
X151041100Y-128498600D01*
X149136100Y-127863600D02*
X150406100Y-127863600D01*
X158026100Y-130403600D02*
X156756100Y-130403600D01*
X156121100Y-129768600D02*
X156756100Y-130403600D01*
X156756100Y-127863600D02*
X156121100Y-128498600D01*
X154216100Y-130403600D02*
X153581100Y-129768600D01*
X155486100Y-130403600D02*
X154216100Y-130403600D01*
X156121100Y-129768600D02*
X155486100Y-130403600D01*
X156121100Y-128498600D02*
X156121100Y-129768600D01*
X155486100Y-127863600D02*
X156121100Y-128498600D01*
X154216100Y-127863600D02*
X155486100Y-127863600D01*
X153581100Y-128498600D02*
X154216100Y-127863600D01*
X158661100Y-129768600D02*
X158026100Y-130403600D01*
X158661100Y-128498600D02*
X158661100Y-129768600D01*
X158026100Y-127863600D02*
X158661100Y-128498600D01*
X156756100Y-127863600D02*
X158026100Y-127863600D01*
D27*
G36*
X172859700Y-102870000D02*
G01*
X172859700Y-103479600D01*
X174434500Y-103479600D01*
X174434500Y-102870000D01*
X172859700Y-102870000D01*
G37*
D21*
X173147100Y-104233600D02*
X174147100Y-104233600D01*
X173647100Y-103233600D02*
X173147100Y-104233600D01*
X174147100Y-104233600D02*
X173647100Y-103233600D01*
D27*
G36*
X128079500Y-86309200D02*
G01*
X128079500Y-85699600D01*
X126504700Y-85699600D01*
X126504700Y-86309200D01*
X128079500Y-86309200D01*
G37*
D21*
X127792100Y-84945600D02*
X126792100Y-84945600D01*
X127292100Y-85945600D02*
X127792100Y-84945600D01*
X126792100Y-84945600D02*
X127292100Y-85945600D01*
D29*
X136563100Y-103733600D02*
G75*
G02X136563100Y-107289600I0J-1778000D01*
G01*
D25*
X136563100Y-103225600D02*
G75*
G02X136563100Y-107797600I0J-2286000D01*
G01*
X129705100Y-103225600D02*
G75*
G03X129705100Y-107797600I0J-2286000D01*
G01*
D29*
X129705100Y-103733600D02*
G75*
G03X129705100Y-107289600I0J-1778000D01*
G01*
X129705100Y-107289600D02*
X136563100Y-107289600D01*
X136563100Y-103733600D02*
X129705100Y-103733600D01*
D25*
X129705100Y-107797600D02*
X136563100Y-107797600D01*
X136563100Y-103225600D02*
X129705100Y-103225600D01*
D27*
G36*
X152977100Y-123695600D02*
G01*
X153677100Y-123695600D01*
X153677100Y-123395600D01*
X152977100Y-123395600D01*
X152977100Y-123695600D01*
G37*
D28*
X154327100Y-124170600D02*
X152327100Y-124170600D01*
X152327100Y-122920600D02*
X154327100Y-122920600D01*
D24*
X152027100Y-123545600D02*
X154527100Y-123545600D01*
D31*
D32*
X180019279Y-111486647D02*
X180823612Y-111486647D01*
X180019279Y-112693147D01*
X180823612Y-112693147D01*
X181283232Y-111486647D02*
X181283232Y-112463338D01*
X181340684Y-112578242D01*
X181398136Y-112635695D01*
X181513041Y-112693147D01*
X181742851Y-112693147D01*
X181857755Y-112635695D01*
X181915208Y-112578242D01*
X181972660Y-112463338D01*
X181972660Y-111486647D01*
X183064255Y-111888814D02*
X183064255Y-112693147D01*
X182776993Y-111429195D02*
X182489732Y-112290980D01*
X183236612Y-112290980D01*
X182225647Y-99557915D02*
X181019147Y-99557915D01*
X182110742Y-98293963D02*
X182168195Y-98351415D01*
X182225647Y-98523772D01*
X182225647Y-98638677D01*
X182168195Y-98811034D01*
X182053290Y-98925939D01*
X181938385Y-98983391D01*
X181708576Y-99040844D01*
X181536219Y-99040844D01*
X181306409Y-98983391D01*
X181191504Y-98925939D01*
X181076600Y-98811034D01*
X181019147Y-98638677D01*
X181019147Y-98523772D01*
X181076600Y-98351415D01*
X181134052Y-98293963D01*
X182168195Y-97834344D02*
X182225647Y-97661987D01*
X182225647Y-97374725D01*
X182168195Y-97259820D01*
X182110742Y-97202367D01*
X181995838Y-97144915D01*
X181880933Y-97144915D01*
X181766028Y-97202367D01*
X181708576Y-97259820D01*
X181651123Y-97374725D01*
X181593671Y-97604534D01*
X181536219Y-97719439D01*
X181478766Y-97776891D01*
X181363861Y-97834344D01*
X181248957Y-97834344D01*
X181134052Y-97776891D01*
X181076600Y-97719439D01*
X181019147Y-97604534D01*
X181019147Y-97317272D01*
X181076600Y-97144915D01*
X182225647Y-96627844D02*
X181019147Y-96627844D01*
X181019147Y-96168225D01*
X181076600Y-96053320D01*
X181134052Y-95995867D01*
X181248957Y-95938415D01*
X181421314Y-95938415D01*
X181536219Y-95995867D01*
X181593671Y-96053320D01*
X181651123Y-96168225D01*
X181651123Y-96627844D01*
X181134052Y-95478796D02*
X181076600Y-95421344D01*
X181019147Y-95306439D01*
X181019147Y-95019177D01*
X181076600Y-94904272D01*
X181134052Y-94846820D01*
X181248957Y-94789367D01*
X181363861Y-94789367D01*
X181536219Y-94846820D01*
X182225647Y-95536248D01*
X182225647Y-94789367D01*
D33*
X127830333Y-102480291D02*
X127793564Y-102517060D01*
X127683255Y-102553830D01*
X127609716Y-102553830D01*
X127499407Y-102517060D01*
X127425868Y-102443521D01*
X127389099Y-102369982D01*
X127352329Y-102222904D01*
X127352329Y-102112596D01*
X127389099Y-101965518D01*
X127425868Y-101891979D01*
X127499407Y-101818440D01*
X127609716Y-101781670D01*
X127683255Y-101781670D01*
X127793564Y-101818440D01*
X127830333Y-101855209D01*
X128124489Y-101855209D02*
X128161259Y-101818440D01*
X128234798Y-101781670D01*
X128418646Y-101781670D01*
X128492185Y-101818440D01*
X128528954Y-101855209D01*
X128565724Y-101928748D01*
X128565724Y-102002287D01*
X128528954Y-102112596D01*
X128087720Y-102553830D01*
X128565724Y-102553830D01*
D34*
X172071969Y-92411973D02*
X172329356Y-92411973D01*
X172458049Y-92476320D01*
X172586743Y-92605013D01*
X172651089Y-92862400D01*
X172651089Y-93312826D01*
X172586743Y-93570213D01*
X172458049Y-93698906D01*
X172329356Y-93763253D01*
X172071969Y-93763253D01*
X171943276Y-93698906D01*
X171814583Y-93570213D01*
X171750236Y-93312826D01*
X171750236Y-92862400D01*
X171814583Y-92605013D01*
X171943276Y-92476320D01*
X172071969Y-92411973D01*
X173230209Y-93763253D02*
X173230209Y-92411973D01*
X174002369Y-93763253D01*
X174002369Y-92411973D01*
X175353649Y-93763253D02*
X174581489Y-93763253D01*
X174967569Y-93763253D02*
X174967569Y-92411973D01*
X174838876Y-92605013D01*
X174710183Y-92733706D01*
X174581489Y-92798053D01*
D35*
X138194138Y-131001830D02*
X138194138Y-130229670D01*
X138377985Y-130229670D01*
X138488294Y-130266440D01*
X138561833Y-130339979D01*
X138598602Y-130413518D01*
X138635372Y-130560596D01*
X138635372Y-130670904D01*
X138598602Y-130817982D01*
X138561833Y-130891521D01*
X138488294Y-130965060D01*
X138377985Y-131001830D01*
X138194138Y-131001830D01*
X139370762Y-131001830D02*
X138929528Y-131001830D01*
X139150145Y-131001830D02*
X139150145Y-130229670D01*
X139076606Y-130339979D01*
X139003067Y-130413518D01*
X138929528Y-130450287D01*
D32*
X124621879Y-85959647D02*
X125426212Y-87166147D01*
X125426212Y-85959647D02*
X124621879Y-87166147D01*
X125828379Y-86074552D02*
X125885832Y-86017100D01*
X126000736Y-85959647D01*
X126287998Y-85959647D01*
X126402903Y-86017100D01*
X126460355Y-86074552D01*
X126517808Y-86189457D01*
X126517808Y-86304361D01*
X126460355Y-86476719D01*
X125770927Y-87166147D01*
X126517808Y-87166147D01*
X120643347Y-116448915D02*
X121620038Y-116448915D01*
X121734942Y-116391463D01*
X121792395Y-116334010D01*
X121849847Y-116219106D01*
X121849847Y-115989296D01*
X121792395Y-115874391D01*
X121734942Y-115816939D01*
X121620038Y-115759487D01*
X120643347Y-115759487D01*
X121849847Y-114552987D02*
X121849847Y-115242415D01*
X121849847Y-114897701D02*
X120643347Y-114897701D01*
X120815704Y-115012606D01*
X120930609Y-115127510D01*
X120988061Y-115242415D01*
D36*
X125550109Y-115354723D02*
X125513340Y-115317953D01*
X125476570Y-115244414D01*
X125476570Y-115060567D01*
X125513340Y-114987028D01*
X125550109Y-114950258D01*
X125623648Y-114913489D01*
X125697187Y-114913489D01*
X125807496Y-114950258D01*
X126248730Y-115391493D01*
X126248730Y-114913489D01*
X126239330Y-117075489D02*
X126239330Y-117516723D01*
X126239330Y-117296106D02*
X125467170Y-117296106D01*
X125577479Y-117369645D01*
X125651018Y-117443184D01*
X125687787Y-117516723D01*
X118866557Y-111791428D02*
X119381330Y-111791428D01*
X118572400Y-111975275D02*
X119123943Y-112159123D01*
X119123943Y-111681119D01*
X125467170Y-113080093D02*
X125467170Y-112602089D01*
X125761326Y-112859475D01*
X125761326Y-112749167D01*
X125798096Y-112675628D01*
X125834865Y-112638858D01*
X125908404Y-112602089D01*
X126092252Y-112602089D01*
X126165791Y-112638858D01*
X126202560Y-112675628D01*
X126239330Y-112749167D01*
X126239330Y-112969784D01*
X126202560Y-113043323D01*
X126165791Y-113080093D01*
D35*
X143715372Y-87875291D02*
X143678602Y-87912060D01*
X143568294Y-87948830D01*
X143494755Y-87948830D01*
X143384446Y-87912060D01*
X143310907Y-87838521D01*
X143274138Y-87764982D01*
X143237368Y-87617904D01*
X143237368Y-87507596D01*
X143274138Y-87360518D01*
X143310907Y-87286979D01*
X143384446Y-87213440D01*
X143494755Y-87176670D01*
X143568294Y-87176670D01*
X143678602Y-87213440D01*
X143715372Y-87250209D01*
X144377223Y-87434057D02*
X144377223Y-87948830D01*
X144193376Y-87139900D02*
X144009528Y-87691443D01*
X144487532Y-87691443D01*
D32*
X115680671Y-106267748D02*
X115680671Y-106669915D01*
X116312647Y-106669915D02*
X115106147Y-106669915D01*
X115106147Y-106095391D01*
X116312647Y-105003796D02*
X116312647Y-105693225D01*
X116312647Y-105348510D02*
X115106147Y-105348510D01*
X115278504Y-105463415D01*
X115393409Y-105578320D01*
X115450861Y-105693225D01*
X142317212Y-99243242D02*
X142259760Y-99300695D01*
X142087403Y-99358147D01*
X141972498Y-99358147D01*
X141800141Y-99300695D01*
X141685236Y-99185790D01*
X141627784Y-99070885D01*
X141570332Y-98841076D01*
X141570332Y-98668719D01*
X141627784Y-98438909D01*
X141685236Y-98324004D01*
X141800141Y-98209100D01*
X141972498Y-98151647D01*
X142087403Y-98151647D01*
X142259760Y-98209100D01*
X142317212Y-98266552D01*
X142719379Y-98151647D02*
X143523712Y-98151647D01*
X143006641Y-99358147D01*
D34*
X141978049Y-88175253D02*
X141334583Y-88175253D01*
X141334583Y-86823973D01*
X142299783Y-86823973D02*
X143136289Y-86823973D01*
X142685863Y-87338746D01*
X142878903Y-87338746D01*
X143007596Y-87403093D01*
X143071943Y-87467440D01*
X143136289Y-87596133D01*
X143136289Y-87917866D01*
X143071943Y-88046560D01*
X143007596Y-88110906D01*
X142878903Y-88175253D01*
X142492823Y-88175253D01*
X142364129Y-88110906D01*
X142299783Y-88046560D01*
D32*
X125834427Y-102469647D02*
X126523855Y-102469647D01*
X126179141Y-103676147D02*
X126179141Y-102469647D01*
X127557998Y-103676147D02*
X126868570Y-103676147D01*
X127213284Y-103676147D02*
X127213284Y-102469647D01*
X127098379Y-102642004D01*
X126983474Y-102756909D01*
X126868570Y-102814361D01*
D35*
X133277791Y-114742327D02*
X133314560Y-114779097D01*
X133351330Y-114889405D01*
X133351330Y-114962944D01*
X133314560Y-115073253D01*
X133241021Y-115146792D01*
X133167482Y-115183561D01*
X133020404Y-115220331D01*
X132910096Y-115220331D01*
X132763018Y-115183561D01*
X132689479Y-115146792D01*
X132615940Y-115073253D01*
X132579170Y-114962944D01*
X132579170Y-114889405D01*
X132615940Y-114779097D01*
X132652709Y-114742327D01*
X133351330Y-114006937D02*
X133351330Y-114448171D01*
X133351330Y-114227554D02*
X132579170Y-114227554D01*
X132689479Y-114301093D01*
X132763018Y-114374632D01*
X132799787Y-114448171D01*
D32*
X131715784Y-98038647D02*
X131715784Y-99015338D01*
X131773236Y-99130242D01*
X131830689Y-99187695D01*
X131945593Y-99245147D01*
X132175403Y-99245147D01*
X132290308Y-99187695D01*
X132347760Y-99130242D01*
X132405212Y-99015338D01*
X132405212Y-98038647D01*
X132864832Y-98038647D02*
X133611712Y-98038647D01*
X133209546Y-98498266D01*
X133381903Y-98498266D01*
X133496808Y-98555719D01*
X133554260Y-98613171D01*
X133611712Y-98728076D01*
X133611712Y-99015338D01*
X133554260Y-99130242D01*
X133496808Y-99187695D01*
X133381903Y-99245147D01*
X133037189Y-99245147D01*
X132922284Y-99187695D01*
X132864832Y-99130242D01*
D37*
X132113330Y-99472022D02*
X132113330Y-99913256D01*
X132113330Y-99692639D02*
X131341170Y-99692639D01*
X131451479Y-99766178D01*
X131525018Y-99839717D01*
X131561787Y-99913256D01*
D32*
X142317212Y-100894242D02*
X142259760Y-100951695D01*
X142087403Y-101009147D01*
X141972498Y-101009147D01*
X141800141Y-100951695D01*
X141685236Y-100836790D01*
X141627784Y-100721885D01*
X141570332Y-100492076D01*
X141570332Y-100319719D01*
X141627784Y-100089909D01*
X141685236Y-99975004D01*
X141800141Y-99860100D01*
X141972498Y-99802647D01*
X142087403Y-99802647D01*
X142259760Y-99860100D01*
X142317212Y-99917552D01*
X143408808Y-99802647D02*
X142834284Y-99802647D01*
X142776832Y-100377171D01*
X142834284Y-100319719D01*
X142949189Y-100262266D01*
X143236451Y-100262266D01*
X143351355Y-100319719D01*
X143408808Y-100377171D01*
X143466260Y-100492076D01*
X143466260Y-100779338D01*
X143408808Y-100894242D01*
X143351355Y-100951695D01*
X143236451Y-101009147D01*
X142949189Y-101009147D01*
X142834284Y-100951695D01*
X142776832Y-100894242D01*
X136674784Y-88563147D02*
X136674784Y-87356647D01*
X137938736Y-88448242D02*
X137881284Y-88505695D01*
X137708927Y-88563147D01*
X137594022Y-88563147D01*
X137421665Y-88505695D01*
X137306760Y-88390790D01*
X137249308Y-88275885D01*
X137191855Y-88046076D01*
X137191855Y-87873719D01*
X137249308Y-87643909D01*
X137306760Y-87529004D01*
X137421665Y-87414100D01*
X137594022Y-87356647D01*
X137708927Y-87356647D01*
X137881284Y-87414100D01*
X137938736Y-87471552D01*
X138398355Y-88505695D02*
X138570712Y-88563147D01*
X138857974Y-88563147D01*
X138972879Y-88505695D01*
X139030332Y-88448242D01*
X139087784Y-88333338D01*
X139087784Y-88218433D01*
X139030332Y-88103528D01*
X138972879Y-88046076D01*
X138857974Y-87988623D01*
X138628165Y-87931171D01*
X138513260Y-87873719D01*
X138455808Y-87816266D01*
X138398355Y-87701361D01*
X138398355Y-87586457D01*
X138455808Y-87471552D01*
X138513260Y-87414100D01*
X138628165Y-87356647D01*
X138915427Y-87356647D01*
X139087784Y-87414100D01*
X139604855Y-88563147D02*
X139604855Y-87356647D01*
X140064474Y-87356647D01*
X140179379Y-87414100D01*
X140236832Y-87471552D01*
X140294284Y-87586457D01*
X140294284Y-87758814D01*
X140236832Y-87873719D01*
X140179379Y-87931171D01*
X140064474Y-87988623D01*
X139604855Y-87988623D01*
X141443332Y-88563147D02*
X140753903Y-88563147D01*
X141098617Y-88563147D02*
X141098617Y-87356647D01*
X140983712Y-87529004D01*
X140868808Y-87643909D01*
X140753903Y-87701361D01*
D35*
X128571598Y-92494670D02*
X129086372Y-92494670D01*
X128571598Y-93266830D01*
X129086372Y-93266830D01*
X129784993Y-93266830D02*
X129343758Y-93266830D01*
X129564376Y-93266830D02*
X129564376Y-92494670D01*
X129490837Y-92604979D01*
X129417298Y-92678518D01*
X129343758Y-92715287D01*
X128571598Y-98209670D02*
X129086372Y-98209670D01*
X128571598Y-98981830D01*
X129086372Y-98981830D01*
X129343758Y-98283209D02*
X129380528Y-98246440D01*
X129454067Y-98209670D01*
X129637915Y-98209670D01*
X129711454Y-98246440D01*
X129748223Y-98283209D01*
X129784993Y-98356748D01*
X129784993Y-98430287D01*
X129748223Y-98540596D01*
X129306989Y-98981830D01*
X129784993Y-98981830D01*
D32*
X124676308Y-84943647D02*
X124101784Y-84943647D01*
X124101784Y-83737147D01*
X125710451Y-84943647D02*
X125021022Y-84943647D01*
X125365736Y-84943647D02*
X125365736Y-83737147D01*
X125250832Y-83909504D01*
X125135927Y-84024409D01*
X125021022Y-84081861D01*
D38*
X141200467Y-103188830D02*
X140943080Y-102821135D01*
X140759233Y-103188830D02*
X140759233Y-102416670D01*
X141053389Y-102416670D01*
X141126928Y-102453440D01*
X141163697Y-102490209D01*
X141200467Y-102563748D01*
X141200467Y-102674057D01*
X141163697Y-102747596D01*
X141126928Y-102784365D01*
X141053389Y-102821135D01*
X140759233Y-102821135D01*
X141531393Y-102784365D02*
X141788779Y-102784365D01*
X141899088Y-103188830D02*
X141531393Y-103188830D01*
X141531393Y-102416670D01*
X141899088Y-102416670D01*
X142193244Y-103152060D02*
X142303553Y-103188830D01*
X142487400Y-103188830D01*
X142560939Y-103152060D01*
X142597709Y-103115291D01*
X142634478Y-103041752D01*
X142634478Y-102968213D01*
X142597709Y-102894674D01*
X142560939Y-102857904D01*
X142487400Y-102821135D01*
X142340322Y-102784365D01*
X142266783Y-102747596D01*
X142230014Y-102710826D01*
X142193244Y-102637287D01*
X142193244Y-102563748D01*
X142230014Y-102490209D01*
X142266783Y-102453440D01*
X142340322Y-102416670D01*
X142524170Y-102416670D01*
X142634478Y-102453440D01*
X142965404Y-102784365D02*
X143222791Y-102784365D01*
X143333099Y-103188830D02*
X142965404Y-103188830D01*
X142965404Y-102416670D01*
X143333099Y-102416670D01*
X143553717Y-102416670D02*
X143994951Y-102416670D01*
X143774334Y-103188830D02*
X143774334Y-102416670D01*
X144252337Y-102894674D02*
X144840650Y-102894674D01*
X145208345Y-102784365D02*
X145465732Y-102784365D01*
X145576040Y-103188830D02*
X145208345Y-103188830D01*
X145208345Y-102416670D01*
X145576040Y-102416670D01*
X145906966Y-103188830D02*
X145906966Y-102416670D01*
X146348200Y-103188830D01*
X146348200Y-102416670D01*
X147120360Y-103188830D02*
X146679126Y-103188830D01*
X146899743Y-103188830D02*
X146899743Y-102416670D01*
X146826204Y-102526979D01*
X146752665Y-102600518D01*
X146679126Y-102637287D01*
D32*
X157430212Y-109772147D02*
X157028046Y-109197623D01*
X156740784Y-109772147D02*
X156740784Y-108565647D01*
X157200403Y-108565647D01*
X157315308Y-108623100D01*
X157372760Y-108680552D01*
X157430212Y-108795457D01*
X157430212Y-108967814D01*
X157372760Y-109082719D01*
X157315308Y-109140171D01*
X157200403Y-109197623D01*
X156740784Y-109197623D01*
X157889832Y-108680552D02*
X157947284Y-108623100D01*
X158062189Y-108565647D01*
X158349451Y-108565647D01*
X158464355Y-108623100D01*
X158521808Y-108680552D01*
X158579260Y-108795457D01*
X158579260Y-108910361D01*
X158521808Y-109082719D01*
X157832379Y-109772147D01*
X158579260Y-109772147D01*
D35*
X139574330Y-89723327D02*
X139206635Y-89980714D01*
X139574330Y-90164561D02*
X138802170Y-90164561D01*
X138802170Y-89870405D01*
X138838940Y-89796866D01*
X138875709Y-89760097D01*
X138949248Y-89723327D01*
X139059557Y-89723327D01*
X139133096Y-89760097D01*
X139169865Y-89796866D01*
X139206635Y-89870405D01*
X139206635Y-90164561D01*
X139574330Y-89392401D02*
X138802170Y-89392401D01*
X139574330Y-88951167D01*
X138802170Y-88951167D01*
X138875709Y-88620241D02*
X138838940Y-88583472D01*
X138802170Y-88509933D01*
X138802170Y-88326085D01*
X138838940Y-88252546D01*
X138875709Y-88215777D01*
X138949248Y-88179007D01*
X139022787Y-88179007D01*
X139133096Y-88215777D01*
X139574330Y-88657011D01*
X139574330Y-88179007D01*
X144654330Y-109027327D02*
X144286635Y-109284714D01*
X144654330Y-109468561D02*
X143882170Y-109468561D01*
X143882170Y-109174405D01*
X143918940Y-109100866D01*
X143955709Y-109064097D01*
X144029248Y-109027327D01*
X144139557Y-109027327D01*
X144213096Y-109064097D01*
X144249865Y-109100866D01*
X144286635Y-109174405D01*
X144286635Y-109468561D01*
X144654330Y-108696401D02*
X143882170Y-108696401D01*
X144654330Y-108255167D01*
X143882170Y-108255167D01*
X144654330Y-107483007D02*
X144654330Y-107924241D01*
X144654330Y-107703624D02*
X143882170Y-107703624D01*
X143992479Y-107777163D01*
X144066018Y-107850702D01*
X144102787Y-107924241D01*
D32*
X160097212Y-107879242D02*
X160039760Y-107936695D01*
X159867403Y-107994147D01*
X159752498Y-107994147D01*
X159580141Y-107936695D01*
X159465236Y-107821790D01*
X159407784Y-107706885D01*
X159350332Y-107477076D01*
X159350332Y-107304719D01*
X159407784Y-107074909D01*
X159465236Y-106960004D01*
X159580141Y-106845100D01*
X159752498Y-106787647D01*
X159867403Y-106787647D01*
X160039760Y-106845100D01*
X160097212Y-106902552D01*
X161131355Y-106787647D02*
X160901546Y-106787647D01*
X160786641Y-106845100D01*
X160729189Y-106902552D01*
X160614284Y-107074909D01*
X160556832Y-107304719D01*
X160556832Y-107764338D01*
X160614284Y-107879242D01*
X160671736Y-107936695D01*
X160786641Y-107994147D01*
X161016451Y-107994147D01*
X161131355Y-107936695D01*
X161188808Y-107879242D01*
X161246260Y-107764338D01*
X161246260Y-107477076D01*
X161188808Y-107362171D01*
X161131355Y-107304719D01*
X161016451Y-107247266D01*
X160786641Y-107247266D01*
X160671736Y-107304719D01*
X160614284Y-107362171D01*
X160556832Y-107477076D01*
D35*
X128475372Y-90415291D02*
X128438602Y-90452060D01*
X128328294Y-90488830D01*
X128254755Y-90488830D01*
X128144446Y-90452060D01*
X128070907Y-90378521D01*
X128034138Y-90304982D01*
X127997368Y-90157904D01*
X127997368Y-90047596D01*
X128034138Y-89900518D01*
X128070907Y-89826979D01*
X128144446Y-89753440D01*
X128254755Y-89716670D01*
X128328294Y-89716670D01*
X128438602Y-89753440D01*
X128475372Y-89790209D01*
X128916606Y-90047596D02*
X128843067Y-90010826D01*
X128806298Y-89974057D01*
X128769528Y-89900518D01*
X128769528Y-89863748D01*
X128806298Y-89790209D01*
X128843067Y-89753440D01*
X128916606Y-89716670D01*
X129063684Y-89716670D01*
X129137223Y-89753440D01*
X129173993Y-89790209D01*
X129210762Y-89863748D01*
X129210762Y-89900518D01*
X129173993Y-89974057D01*
X129137223Y-90010826D01*
X129063684Y-90047596D01*
X128916606Y-90047596D01*
X128843067Y-90084365D01*
X128806298Y-90121135D01*
X128769528Y-90194674D01*
X128769528Y-90341752D01*
X128806298Y-90415291D01*
X128843067Y-90452060D01*
X128916606Y-90488830D01*
X129063684Y-90488830D01*
X129137223Y-90452060D01*
X129173993Y-90415291D01*
X129210762Y-90341752D01*
X129210762Y-90194674D01*
X129173993Y-90121135D01*
X129137223Y-90084365D01*
X129063684Y-90047596D01*
D32*
X175113647Y-98741487D02*
X174539123Y-99143653D01*
X175113647Y-99430915D02*
X173907147Y-99430915D01*
X173907147Y-98971296D01*
X173964600Y-98856391D01*
X174022052Y-98798939D01*
X174136957Y-98741487D01*
X174309314Y-98741487D01*
X174424219Y-98798939D01*
X174481671Y-98856391D01*
X174539123Y-98971296D01*
X174539123Y-99430915D01*
X175113647Y-98224415D02*
X173907147Y-98224415D01*
X175113647Y-97534987D01*
X173907147Y-97534987D01*
X174309314Y-96443391D02*
X175113647Y-96443391D01*
X173849695Y-96730653D02*
X174711480Y-97017915D01*
X174711480Y-96271034D01*
D35*
X129541330Y-96073327D02*
X129173635Y-96330714D01*
X129541330Y-96514561D02*
X128769170Y-96514561D01*
X128769170Y-96220405D01*
X128805940Y-96146866D01*
X128842709Y-96110097D01*
X128916248Y-96073327D01*
X129026557Y-96073327D01*
X129100096Y-96110097D01*
X129136865Y-96146866D01*
X129173635Y-96220405D01*
X129173635Y-96514561D01*
X129541330Y-95742401D02*
X128769170Y-95742401D01*
X129541330Y-95301167D01*
X128769170Y-95301167D01*
X128769170Y-95007011D02*
X128769170Y-94529007D01*
X129063326Y-94786394D01*
X129063326Y-94676085D01*
X129100096Y-94602546D01*
X129136865Y-94565777D01*
X129210404Y-94529007D01*
X129394252Y-94529007D01*
X129467791Y-94565777D01*
X129504560Y-94602546D01*
X129541330Y-94676085D01*
X129541330Y-94896702D01*
X129504560Y-94970241D01*
X129467791Y-95007011D01*
X138865791Y-116520327D02*
X138902560Y-116557097D01*
X138939330Y-116667405D01*
X138939330Y-116740944D01*
X138902560Y-116851253D01*
X138829021Y-116924792D01*
X138755482Y-116961561D01*
X138608404Y-116998331D01*
X138498096Y-116998331D01*
X138351018Y-116961561D01*
X138277479Y-116924792D01*
X138203940Y-116851253D01*
X138167170Y-116740944D01*
X138167170Y-116667405D01*
X138203940Y-116557097D01*
X138240709Y-116520327D01*
X138167170Y-116262941D02*
X138167170Y-115784937D01*
X138461326Y-116042323D01*
X138461326Y-115932015D01*
X138498096Y-115858476D01*
X138534865Y-115821706D01*
X138608404Y-115784937D01*
X138792252Y-115784937D01*
X138865791Y-115821706D01*
X138902560Y-115858476D01*
X138939330Y-115932015D01*
X138939330Y-116152632D01*
X138902560Y-116226171D01*
X138865791Y-116262941D01*
X132335330Y-100518327D02*
X131967635Y-100775714D01*
X132335330Y-100959561D02*
X131563170Y-100959561D01*
X131563170Y-100665405D01*
X131599940Y-100591866D01*
X131636709Y-100555097D01*
X131710248Y-100518327D01*
X131820557Y-100518327D01*
X131894096Y-100555097D01*
X131930865Y-100591866D01*
X131967635Y-100665405D01*
X131967635Y-100959561D01*
X132335330Y-99782937D02*
X132335330Y-100224171D01*
X132335330Y-100003554D02*
X131563170Y-100003554D01*
X131673479Y-100077093D01*
X131747018Y-100150632D01*
X131783787Y-100224171D01*
D33*
X131767333Y-102734291D02*
X131730564Y-102771060D01*
X131620255Y-102807830D01*
X131546716Y-102807830D01*
X131436407Y-102771060D01*
X131362868Y-102697521D01*
X131326099Y-102623982D01*
X131289329Y-102476904D01*
X131289329Y-102366596D01*
X131326099Y-102219518D01*
X131362868Y-102145979D01*
X131436407Y-102072440D01*
X131546716Y-102035670D01*
X131620255Y-102035670D01*
X131730564Y-102072440D01*
X131767333Y-102109209D01*
X132135028Y-102807830D02*
X132282107Y-102807830D01*
X132355646Y-102771060D01*
X132392415Y-102734291D01*
X132465954Y-102623982D01*
X132502724Y-102476904D01*
X132502724Y-102182748D01*
X132465954Y-102109209D01*
X132429185Y-102072440D01*
X132355646Y-102035670D01*
X132208567Y-102035670D01*
X132135028Y-102072440D01*
X132098259Y-102109209D01*
X132061489Y-102182748D01*
X132061489Y-102366596D01*
X132098259Y-102440135D01*
X132135028Y-102476904D01*
X132208567Y-102513674D01*
X132355646Y-102513674D01*
X132429185Y-102476904D01*
X132465954Y-102440135D01*
X132502724Y-102366596D01*
X136212333Y-101210291D02*
X136175564Y-101247060D01*
X136065255Y-101283830D01*
X135991716Y-101283830D01*
X135881407Y-101247060D01*
X135807868Y-101173521D01*
X135771099Y-101099982D01*
X135734329Y-100952904D01*
X135734329Y-100842596D01*
X135771099Y-100695518D01*
X135807868Y-100621979D01*
X135881407Y-100548440D01*
X135991716Y-100511670D01*
X136065255Y-100511670D01*
X136175564Y-100548440D01*
X136212333Y-100585209D01*
X136947724Y-101283830D02*
X136506489Y-101283830D01*
X136727107Y-101283830D02*
X136727107Y-100511670D01*
X136653567Y-100621979D01*
X136580028Y-100695518D01*
X136506489Y-100732287D01*
X137683114Y-101283830D02*
X137241880Y-101283830D01*
X137462497Y-101283830D02*
X137462497Y-100511670D01*
X137388958Y-100621979D01*
X137315419Y-100695518D01*
X137241880Y-100732287D01*
D32*
X129330147Y-92355201D02*
X130191933Y-92355201D01*
X130364290Y-92412653D01*
X130479195Y-92527558D01*
X130536647Y-92699915D01*
X130536647Y-92814820D01*
X130536647Y-91780677D02*
X129330147Y-91780677D01*
X129330147Y-91321058D01*
X129387600Y-91206153D01*
X129445052Y-91148701D01*
X129559957Y-91091248D01*
X129732314Y-91091248D01*
X129847219Y-91148701D01*
X129904671Y-91206153D01*
X129962123Y-91321058D01*
X129962123Y-91780677D01*
X129445052Y-90631629D02*
X129387600Y-90574177D01*
X129330147Y-90459272D01*
X129330147Y-90172010D01*
X129387600Y-90057106D01*
X129445052Y-89999653D01*
X129559957Y-89942201D01*
X129674861Y-89942201D01*
X129847219Y-89999653D01*
X130536647Y-90689082D01*
X130536647Y-89942201D01*
X136166784Y-112121647D02*
X136166784Y-113098338D01*
X136224236Y-113213242D01*
X136281689Y-113270695D01*
X136396593Y-113328147D01*
X136626403Y-113328147D01*
X136741308Y-113270695D01*
X136798760Y-113213242D01*
X136856212Y-113098338D01*
X136856212Y-112121647D01*
X138005260Y-112121647D02*
X137430736Y-112121647D01*
X137373284Y-112696171D01*
X137430736Y-112638719D01*
X137545641Y-112581266D01*
X137832903Y-112581266D01*
X137947808Y-112638719D01*
X138005260Y-112696171D01*
X138062712Y-112811076D01*
X138062712Y-113098338D01*
X138005260Y-113213242D01*
X137947808Y-113270695D01*
X137832903Y-113328147D01*
X137545641Y-113328147D01*
X137430736Y-113270695D01*
X137373284Y-113213242D01*
D39*
X118600528Y-86713147D02*
X118198361Y-86138623D01*
X117911099Y-86713147D02*
X117911099Y-85506647D01*
X118370718Y-85506647D01*
X118485623Y-85564100D01*
X118543076Y-85621552D01*
X118600528Y-85736457D01*
X118600528Y-85908814D01*
X118543076Y-86023719D01*
X118485623Y-86081171D01*
X118370718Y-86138623D01*
X117911099Y-86138623D01*
X119117599Y-86081171D02*
X119519766Y-86081171D01*
X119692123Y-86713147D02*
X119117599Y-86713147D01*
X119117599Y-85506647D01*
X119692123Y-85506647D01*
X120151742Y-86655695D02*
X120324099Y-86713147D01*
X120611361Y-86713147D01*
X120726266Y-86655695D01*
X120783718Y-86598242D01*
X120841171Y-86483338D01*
X120841171Y-86368433D01*
X120783718Y-86253528D01*
X120726266Y-86196076D01*
X120611361Y-86138623D01*
X120381552Y-86081171D01*
X120266647Y-86023719D01*
X120209195Y-85966266D01*
X120151742Y-85851361D01*
X120151742Y-85736457D01*
X120209195Y-85621552D01*
X120266647Y-85564100D01*
X120381552Y-85506647D01*
X120668814Y-85506647D01*
X120841171Y-85564100D01*
X121358242Y-86081171D02*
X121760409Y-86081171D01*
X121932766Y-86713147D02*
X121358242Y-86713147D01*
X121358242Y-85506647D01*
X121932766Y-85506647D01*
X122277480Y-85506647D02*
X122966909Y-85506647D01*
X122622195Y-86713147D02*
X122622195Y-85506647D01*
X124001052Y-86713147D02*
X123311623Y-86713147D01*
X123656338Y-86713147D02*
X123656338Y-85506647D01*
X123541433Y-85679004D01*
X123426528Y-85793909D01*
X123311623Y-85851361D01*
D33*
X116752170Y-78156909D02*
X116752170Y-77715674D01*
X117524330Y-77936292D02*
X116752170Y-77936292D01*
X117487560Y-77495057D02*
X117524330Y-77384749D01*
X117524330Y-77200901D01*
X117487560Y-77127362D01*
X117450791Y-77090592D01*
X117377252Y-77053823D01*
X117303713Y-77053823D01*
X117230174Y-77090592D01*
X117193404Y-77127362D01*
X117156635Y-77200901D01*
X117119865Y-77347979D01*
X117083096Y-77421518D01*
X117046326Y-77458288D01*
X116972787Y-77495057D01*
X116899248Y-77495057D01*
X116825709Y-77458288D01*
X116788940Y-77421518D01*
X116752170Y-77347979D01*
X116752170Y-77164132D01*
X116788940Y-77053823D01*
X117009557Y-76391972D02*
X117524330Y-76391972D01*
X116715400Y-76575819D02*
X117266943Y-76759667D01*
X117266943Y-76281663D01*
X116825709Y-76024276D02*
X116788940Y-75987507D01*
X116752170Y-75913968D01*
X116752170Y-75730120D01*
X116788940Y-75656581D01*
X116825709Y-75619812D01*
X116899248Y-75583042D01*
X116972787Y-75583042D01*
X117083096Y-75619812D01*
X117524330Y-76061046D01*
X117524330Y-75583042D01*
X116752170Y-75105038D02*
X116752170Y-75031499D01*
X116788940Y-74957960D01*
X116825709Y-74921191D01*
X116899248Y-74884421D01*
X117046326Y-74847652D01*
X117230174Y-74847652D01*
X117377252Y-74884421D01*
X117450791Y-74921191D01*
X117487560Y-74957960D01*
X117524330Y-75031499D01*
X117524330Y-75105038D01*
X117487560Y-75178577D01*
X117450791Y-75215347D01*
X117377252Y-75252116D01*
X117230174Y-75288886D01*
X117046326Y-75288886D01*
X116899248Y-75252116D01*
X116825709Y-75215347D01*
X116788940Y-75178577D01*
X116752170Y-75105038D01*
X116752170Y-74590265D02*
X116752170Y-74112261D01*
X117046326Y-74369648D01*
X117046326Y-74259339D01*
X117083096Y-74185800D01*
X117119865Y-74149031D01*
X117193404Y-74112261D01*
X117377252Y-74112261D01*
X117450791Y-74149031D01*
X117487560Y-74185800D01*
X117524330Y-74259339D01*
X117524330Y-74479956D01*
X117487560Y-74553495D01*
X117450791Y-74590265D01*
X117524330Y-73376871D02*
X117524330Y-73818105D01*
X117524330Y-73597488D02*
X116752170Y-73597488D01*
X116862479Y-73671027D01*
X116936018Y-73744566D01*
X116972787Y-73818105D01*
X117230174Y-73045945D02*
X117230174Y-72457632D01*
X117524330Y-71685472D02*
X117524330Y-72126707D01*
X117524330Y-71906090D02*
X116752170Y-71906090D01*
X116862479Y-71979629D01*
X116936018Y-72053168D01*
X116972787Y-72126707D01*
X116752170Y-71023621D02*
X116752170Y-71170699D01*
X116788940Y-71244238D01*
X116825709Y-71281008D01*
X116936018Y-71354547D01*
X117083096Y-71391316D01*
X117377252Y-71391316D01*
X117450791Y-71354547D01*
X117487560Y-71317777D01*
X117524330Y-71244238D01*
X117524330Y-71097160D01*
X117487560Y-71023621D01*
X117450791Y-70986852D01*
X117377252Y-70950082D01*
X117193404Y-70950082D01*
X117119865Y-70986852D01*
X117083096Y-71023621D01*
X117046326Y-71097160D01*
X117046326Y-71244238D01*
X117083096Y-71317777D01*
X117119865Y-71354547D01*
X117193404Y-71391316D01*
X116752170Y-70472078D02*
X116752170Y-70398539D01*
X116788940Y-70325000D01*
X116825709Y-70288231D01*
X116899248Y-70251461D01*
X117046326Y-70214692D01*
X117230174Y-70214692D01*
X117377252Y-70251461D01*
X117450791Y-70288231D01*
X117487560Y-70325000D01*
X117524330Y-70398539D01*
X117524330Y-70472078D01*
X117487560Y-70545617D01*
X117450791Y-70582387D01*
X117377252Y-70619156D01*
X117230174Y-70655926D01*
X117046326Y-70655926D01*
X116899248Y-70619156D01*
X116825709Y-70582387D01*
X116788940Y-70545617D01*
X116752170Y-70472078D01*
X117524330Y-69442532D02*
X117156635Y-69699918D01*
X117524330Y-69883766D02*
X116752170Y-69883766D01*
X116752170Y-69589610D01*
X116788940Y-69516071D01*
X116825709Y-69479301D01*
X116899248Y-69442532D01*
X117009557Y-69442532D01*
X117083096Y-69479301D01*
X117119865Y-69516071D01*
X117156635Y-69589610D01*
X117156635Y-69883766D01*
X117230174Y-69111606D02*
X117230174Y-68523293D01*
X116752170Y-68265907D02*
X116752170Y-67824672D01*
X117524330Y-68045290D02*
X116752170Y-68045290D01*
X117524330Y-67126052D02*
X117156635Y-67383438D01*
X117524330Y-67567286D02*
X116752170Y-67567286D01*
X116752170Y-67273130D01*
X116788940Y-67199591D01*
X116825709Y-67162821D01*
X116899248Y-67126052D01*
X117009557Y-67126052D01*
X117083096Y-67162821D01*
X117119865Y-67199591D01*
X117156635Y-67273130D01*
X117156635Y-67567286D01*
X117230174Y-66795126D02*
X117230174Y-66206813D01*
X116752170Y-65912657D02*
X116752170Y-65397884D01*
X117524330Y-65728810D01*
X116825709Y-65140497D02*
X116788940Y-65103728D01*
X116752170Y-65030189D01*
X116752170Y-64846341D01*
X116788940Y-64772802D01*
X116825709Y-64736032D01*
X116899248Y-64699263D01*
X116972787Y-64699263D01*
X117083096Y-64736032D01*
X117524330Y-65177267D01*
X117524330Y-64699263D01*
X116752170Y-64037412D02*
X116752170Y-64184490D01*
X116788940Y-64258029D01*
X116825709Y-64294798D01*
X116936018Y-64368337D01*
X117083096Y-64405107D01*
X117377252Y-64405107D01*
X117450791Y-64368337D01*
X117487560Y-64331568D01*
X117524330Y-64258029D01*
X117524330Y-64110951D01*
X117487560Y-64037412D01*
X117450791Y-64000642D01*
X117377252Y-63963872D01*
X117193404Y-63963872D01*
X117119865Y-64000642D01*
X117083096Y-64037412D01*
X117046326Y-64110951D01*
X117046326Y-64258029D01*
X117083096Y-64331568D01*
X117119865Y-64368337D01*
X117193404Y-64405107D01*
X116752170Y-63485869D02*
X116752170Y-63412330D01*
X116788940Y-63338791D01*
X116825709Y-63302021D01*
X116899248Y-63265252D01*
X117046326Y-63228482D01*
X117230174Y-63228482D01*
X117377252Y-63265252D01*
X117450791Y-63302021D01*
X117487560Y-63338791D01*
X117524330Y-63412330D01*
X117524330Y-63485869D01*
X117487560Y-63559408D01*
X117450791Y-63596177D01*
X117377252Y-63632947D01*
X117230174Y-63669716D01*
X117046326Y-63669716D01*
X116899248Y-63632947D01*
X116825709Y-63596177D01*
X116788940Y-63559408D01*
X116752170Y-63485869D01*
D32*
X154631593Y-104799623D02*
X154631593Y-105374147D01*
X154229427Y-104167647D02*
X154631593Y-104799623D01*
X155033760Y-104167647D01*
X155378474Y-104282552D02*
X155435927Y-104225100D01*
X155550832Y-104167647D01*
X155838093Y-104167647D01*
X155952998Y-104225100D01*
X156010451Y-104282552D01*
X156067903Y-104397457D01*
X156067903Y-104512361D01*
X156010451Y-104684719D01*
X155321022Y-105374147D01*
X156067903Y-105374147D01*
D33*
X137278170Y-114304600D02*
X137903252Y-114304600D01*
X137976791Y-114267831D01*
X138013560Y-114231061D01*
X138050330Y-114157522D01*
X138050330Y-114010444D01*
X138013560Y-113936905D01*
X137976791Y-113900135D01*
X137903252Y-113863366D01*
X137278170Y-113863366D01*
X137351709Y-113532440D02*
X137314940Y-113495671D01*
X137278170Y-113422132D01*
X137278170Y-113238284D01*
X137314940Y-113164745D01*
X137351709Y-113127975D01*
X137425248Y-113091206D01*
X137498787Y-113091206D01*
X137609096Y-113127975D01*
X138050330Y-113569210D01*
X138050330Y-113091206D01*
D32*
X141170584Y-127247347D02*
X141170584Y-126040847D01*
X141630203Y-126040847D01*
X141745108Y-126098300D01*
X141802560Y-126155752D01*
X141860012Y-126270657D01*
X141860012Y-126443014D01*
X141802560Y-126557919D01*
X141745108Y-126615371D01*
X141630203Y-126672823D01*
X141170584Y-126672823D01*
X142606893Y-126040847D02*
X142836703Y-126040847D01*
X142951608Y-126098300D01*
X143066512Y-126213204D01*
X143123965Y-126443014D01*
X143123965Y-126845180D01*
X143066512Y-127074990D01*
X142951608Y-127189895D01*
X142836703Y-127247347D01*
X142606893Y-127247347D01*
X142491989Y-127189895D01*
X142377084Y-127074990D01*
X142319632Y-126845180D01*
X142319632Y-126443014D01*
X142377084Y-126213204D01*
X142491989Y-126098300D01*
X142606893Y-126040847D01*
X143526132Y-126040847D02*
X143813393Y-127247347D01*
X144043203Y-126385561D01*
X144273012Y-127247347D01*
X144560274Y-126040847D01*
X145019893Y-126615371D02*
X145422060Y-126615371D01*
X145594417Y-127247347D02*
X145019893Y-127247347D01*
X145019893Y-126040847D01*
X145594417Y-126040847D01*
X146800917Y-127247347D02*
X146398751Y-126672823D01*
X146111489Y-127247347D02*
X146111489Y-126040847D01*
X146571108Y-126040847D01*
X146686012Y-126098300D01*
X146743465Y-126155752D01*
X146800917Y-126270657D01*
X146800917Y-126443014D01*
X146743465Y-126557919D01*
X146686012Y-126615371D01*
X146571108Y-126672823D01*
X146111489Y-126672823D01*
X147949965Y-127247347D02*
X147260536Y-127247347D01*
X147605251Y-127247347D02*
X147605251Y-126040847D01*
X147490346Y-126213204D01*
X147375441Y-126328109D01*
X147260536Y-126385561D01*
D39*
X175140099Y-102025147D02*
X175140099Y-100818647D01*
X175427361Y-100818647D01*
X175599718Y-100876100D01*
X175714623Y-100991004D01*
X175772076Y-101105909D01*
X175829528Y-101335719D01*
X175829528Y-101508076D01*
X175772076Y-101737885D01*
X175714623Y-101852790D01*
X175599718Y-101967695D01*
X175427361Y-102025147D01*
X175140099Y-102025147D01*
X176289147Y-100933552D02*
X176346599Y-100876100D01*
X176461504Y-100818647D01*
X176748766Y-100818647D01*
X176863671Y-100876100D01*
X176921123Y-100933552D01*
X176978576Y-101048457D01*
X176978576Y-101163361D01*
X176921123Y-101335719D01*
X176231695Y-102025147D01*
X176978576Y-102025147D01*
X126091647Y-86746600D02*
X124885147Y-86746600D01*
X124885147Y-86459338D01*
X124942600Y-86286981D01*
X125057504Y-86172076D01*
X125172409Y-86114623D01*
X125402219Y-86057171D01*
X125574576Y-86057171D01*
X125804385Y-86114623D01*
X125919290Y-86172076D01*
X126034195Y-86286981D01*
X126091647Y-86459338D01*
X126091647Y-86746600D01*
X124885147Y-85655004D02*
X124885147Y-84908123D01*
X125344766Y-85310290D01*
X125344766Y-85137933D01*
X125402219Y-85023028D01*
X125459671Y-84965576D01*
X125574576Y-84908123D01*
X125861838Y-84908123D01*
X125976742Y-84965576D01*
X126034195Y-85023028D01*
X126091647Y-85137933D01*
X126091647Y-85482647D01*
X126034195Y-85597552D01*
X125976742Y-85655004D01*
D32*
X138809593Y-107546623D02*
X138809593Y-108121147D01*
X138407427Y-106914647D02*
X138809593Y-107546623D01*
X139211760Y-106914647D01*
X140245903Y-108121147D02*
X139556474Y-108121147D01*
X139901189Y-108121147D02*
X139901189Y-106914647D01*
X139786284Y-107087004D01*
X139671379Y-107201909D01*
X139556474Y-107259361D01*
D40*
X151865870Y-125105522D02*
X151590099Y-125105522D01*
X151590099Y-124526402D01*
X152031333Y-124581557D02*
X152058910Y-124553980D01*
X152114065Y-124526402D01*
X152251950Y-124526402D01*
X152307105Y-124553980D01*
X152334682Y-124581557D01*
X152362259Y-124636711D01*
X152362259Y-124691865D01*
X152334682Y-124774597D01*
X152003756Y-125105522D01*
X152362259Y-125105522D01*
D39*
X160462528Y-121722242D02*
X160405076Y-121779695D01*
X160232718Y-121837147D01*
X160117814Y-121837147D01*
X159945457Y-121779695D01*
X159830552Y-121664790D01*
X159773099Y-121549885D01*
X159715647Y-121320076D01*
X159715647Y-121147719D01*
X159773099Y-120917909D01*
X159830552Y-120803004D01*
X159945457Y-120688100D01*
X160117814Y-120630647D01*
X160232718Y-120630647D01*
X160405076Y-120688100D01*
X160462528Y-120745552D01*
X161611576Y-121837147D02*
X160922147Y-121837147D01*
X161266861Y-121837147D02*
X161266861Y-120630647D01*
X161151957Y-120803004D01*
X161037052Y-120917909D01*
X160922147Y-120975361D01*
X162358457Y-120630647D02*
X162473361Y-120630647D01*
X162588266Y-120688100D01*
X162645718Y-120745552D01*
X162703171Y-120860457D01*
X162760623Y-121090266D01*
X162760623Y-121377528D01*
X162703171Y-121607338D01*
X162645718Y-121722242D01*
X162588266Y-121779695D01*
X162473361Y-121837147D01*
X162358457Y-121837147D01*
X162243552Y-121779695D01*
X162186099Y-121722242D01*
X162128647Y-121607338D01*
X162071195Y-121377528D01*
X162071195Y-121090266D01*
X162128647Y-120860457D01*
X162186099Y-120745552D01*
X162243552Y-120688100D01*
X162358457Y-120630647D01*
M02*
