G04 #@! TF.GenerationSoftware,KiCad,Pcbnew,5.1.4+dfsg1-1~bpo10+1*
G04 #@! TF.CreationDate,2022-07-19T17:35:19+05:30*
G04 #@! TF.ProjectId,UNO-TH_Rev3e,554e4f2d-5448-45f5-9265-7633652e6b69,rev?*
G04 #@! TF.SameCoordinates,Original*
G04 #@! TF.FileFunction,Soldermask,Bot*
G04 #@! TF.FilePolarity,Negative*
%FSLAX46Y46*%
G04 Gerber Fmt 4.6, Leading zero omitted, Abs format (unit mm)*
G04 Created by KiCad (PCBNEW 5.1.4+dfsg1-1~bpo10+1) date 2022-07-19 17:35:19*
%MOMM*%
%LPD*%
G04 APERTURE LIST*
%ADD10C,0.100000*%
G04 APERTURE END LIST*
D10*
G36*
X125717300Y-91948000D02*
G01*
X125564900Y-91948000D01*
X125564900Y-90119200D01*
X125717300Y-90119200D01*
X125717300Y-91948000D01*
G37*
G36*
X114299048Y-131231461D02*
G01*
X114383615Y-131257114D01*
X114461552Y-131298772D01*
X114529865Y-131354835D01*
X114585928Y-131423148D01*
X114627586Y-131501085D01*
X114653239Y-131585652D01*
X114661901Y-131673599D01*
X114661901Y-131673601D01*
X114653239Y-131761548D01*
X114627586Y-131846115D01*
X114585928Y-131924052D01*
X114529865Y-131992365D01*
X114461552Y-132048428D01*
X114383615Y-132090086D01*
X114299048Y-132115739D01*
X114211101Y-132124401D01*
X114211099Y-132124401D01*
X114123152Y-132115739D01*
X114038585Y-132090086D01*
X113960648Y-132048428D01*
X113892335Y-131992365D01*
X113836272Y-131924052D01*
X113794614Y-131846115D01*
X113768961Y-131761548D01*
X113760299Y-131673601D01*
X113760299Y-131673599D01*
X113768961Y-131585652D01*
X113794614Y-131501085D01*
X113836272Y-131423148D01*
X113892335Y-131354835D01*
X113960648Y-131298772D01*
X114038585Y-131257114D01*
X114123152Y-131231461D01*
X114211099Y-131222799D01*
X114211101Y-131222799D01*
X114299048Y-131231461D01*
X114299048Y-131231461D01*
G37*
G36*
X128556356Y-127524898D02*
G01*
X128662679Y-127546047D01*
X128963142Y-127670503D01*
X129233551Y-127851185D01*
X129463515Y-128081149D01*
X129567370Y-128236579D01*
X129644198Y-128351560D01*
X129644633Y-128352610D01*
X129758962Y-128628624D01*
X129768653Y-128652022D01*
X129831863Y-128969796D01*
X129832100Y-128970991D01*
X129832100Y-129296209D01*
X129768653Y-129615179D01*
X129742255Y-129678909D01*
X129644633Y-129914591D01*
X129644197Y-129915642D01*
X129463515Y-130186051D01*
X129233551Y-130416015D01*
X128963142Y-130596697D01*
X128662679Y-130721153D01*
X128556356Y-130742302D01*
X128343711Y-130784600D01*
X128018489Y-130784600D01*
X127805844Y-130742302D01*
X127699521Y-130721153D01*
X127399058Y-130596697D01*
X127128649Y-130416015D01*
X126898685Y-130186051D01*
X126718003Y-129915642D01*
X126717568Y-129914591D01*
X126619945Y-129678909D01*
X126593547Y-129615179D01*
X126530100Y-129296209D01*
X126530100Y-128970991D01*
X126530338Y-128969796D01*
X126593547Y-128652022D01*
X126603239Y-128628624D01*
X126717567Y-128352610D01*
X126718002Y-128351560D01*
X126794830Y-128236579D01*
X126898685Y-128081149D01*
X127128649Y-127851185D01*
X127399058Y-127670503D01*
X127699521Y-127546047D01*
X127805844Y-127524898D01*
X128018489Y-127482600D01*
X128343711Y-127482600D01*
X128556356Y-127524898D01*
X128556356Y-127524898D01*
G37*
G36*
X123364026Y-126373341D02*
G01*
X123496096Y-126399611D01*
X123869318Y-126554205D01*
X124038402Y-126667183D01*
X124205208Y-126778639D01*
X124490861Y-127064292D01*
X124715296Y-127400184D01*
X124869889Y-127773405D01*
X124948700Y-128169612D01*
X124948700Y-128573588D01*
X124933098Y-128652022D01*
X124869889Y-128969796D01*
X124787628Y-129168391D01*
X124715296Y-129343016D01*
X124517809Y-129638578D01*
X124490860Y-129678909D01*
X124205209Y-129964560D01*
X123869318Y-130188995D01*
X123496096Y-130343589D01*
X123364026Y-130369859D01*
X123099888Y-130422400D01*
X122695912Y-130422400D01*
X122431774Y-130369859D01*
X122299704Y-130343589D01*
X121926482Y-130188995D01*
X121590591Y-129964560D01*
X121304940Y-129678909D01*
X121277992Y-129638578D01*
X121080504Y-129343016D01*
X121008172Y-129168391D01*
X120925911Y-128969796D01*
X120862702Y-128652022D01*
X120847100Y-128573588D01*
X120847100Y-128169612D01*
X120925911Y-127773405D01*
X121080504Y-127400184D01*
X121304939Y-127064292D01*
X121590592Y-126778639D01*
X121757398Y-126667183D01*
X121926482Y-126554205D01*
X122299704Y-126399611D01*
X122431774Y-126373341D01*
X122695912Y-126320800D01*
X123099888Y-126320800D01*
X123364026Y-126373341D01*
X123364026Y-126373341D01*
G37*
G36*
X177860477Y-128027026D02*
G01*
X177966741Y-128059261D01*
X178004118Y-128070599D01*
X178136490Y-128141354D01*
X178136492Y-128141355D01*
X178136491Y-128141355D01*
X178252522Y-128236578D01*
X178330670Y-128331802D01*
X178347746Y-128352609D01*
X178418501Y-128484981D01*
X178429839Y-128522358D01*
X178462074Y-128628622D01*
X178473100Y-128740574D01*
X178473100Y-129526626D01*
X178462074Y-129638578D01*
X178429839Y-129744842D01*
X178418501Y-129782219D01*
X178347746Y-129914591D01*
X178252522Y-130030622D01*
X178136491Y-130125846D01*
X178004119Y-130196601D01*
X177966742Y-130207939D01*
X177860478Y-130240174D01*
X177711100Y-130254886D01*
X177561723Y-130240174D01*
X177455459Y-130207939D01*
X177418082Y-130196601D01*
X177285710Y-130125846D01*
X177169679Y-130030622D01*
X177074455Y-129914591D01*
X177003698Y-129782215D01*
X176960126Y-129638579D01*
X176949100Y-129526627D01*
X176949100Y-128740574D01*
X176955971Y-128670815D01*
X176960126Y-128628623D01*
X177003698Y-128484986D01*
X177003699Y-128484982D01*
X177074454Y-128352610D01*
X177088934Y-128334966D01*
X177169678Y-128236578D01*
X177285708Y-128141355D01*
X177285707Y-128141355D01*
X177285709Y-128141354D01*
X177418081Y-128070599D01*
X177455458Y-128059261D01*
X177561722Y-128027026D01*
X177711100Y-128012314D01*
X177860477Y-128027026D01*
X177860477Y-128027026D01*
G37*
G36*
X149920477Y-128027026D02*
G01*
X150026741Y-128059261D01*
X150064118Y-128070599D01*
X150196490Y-128141354D01*
X150196492Y-128141355D01*
X150196491Y-128141355D01*
X150312522Y-128236578D01*
X150390670Y-128331802D01*
X150407746Y-128352609D01*
X150478501Y-128484981D01*
X150489839Y-128522358D01*
X150522074Y-128628622D01*
X150533100Y-128740574D01*
X150533100Y-129526626D01*
X150522074Y-129638578D01*
X150489839Y-129744842D01*
X150478501Y-129782219D01*
X150407746Y-129914591D01*
X150312522Y-130030622D01*
X150196491Y-130125846D01*
X150064119Y-130196601D01*
X150026742Y-130207939D01*
X149920478Y-130240174D01*
X149771100Y-130254886D01*
X149621723Y-130240174D01*
X149515459Y-130207939D01*
X149478082Y-130196601D01*
X149345710Y-130125846D01*
X149229679Y-130030622D01*
X149134455Y-129914591D01*
X149063698Y-129782215D01*
X149020126Y-129638579D01*
X149009100Y-129526627D01*
X149009100Y-128740574D01*
X149015971Y-128670815D01*
X149020126Y-128628623D01*
X149063698Y-128484986D01*
X149063699Y-128484982D01*
X149134454Y-128352610D01*
X149148934Y-128334966D01*
X149229678Y-128236578D01*
X149345708Y-128141355D01*
X149345707Y-128141355D01*
X149345709Y-128141354D01*
X149478081Y-128070599D01*
X149515458Y-128059261D01*
X149621722Y-128027026D01*
X149771100Y-128012314D01*
X149920477Y-128027026D01*
X149920477Y-128027026D01*
G37*
G36*
X142300477Y-128027026D02*
G01*
X142406741Y-128059261D01*
X142444118Y-128070599D01*
X142576490Y-128141354D01*
X142576492Y-128141355D01*
X142576491Y-128141355D01*
X142692522Y-128236578D01*
X142770670Y-128331802D01*
X142787746Y-128352609D01*
X142858501Y-128484981D01*
X142869839Y-128522358D01*
X142902074Y-128628622D01*
X142913100Y-128740574D01*
X142913100Y-129526626D01*
X142902074Y-129638578D01*
X142869839Y-129744842D01*
X142858501Y-129782219D01*
X142787746Y-129914591D01*
X142692522Y-130030622D01*
X142576491Y-130125846D01*
X142444119Y-130196601D01*
X142406742Y-130207939D01*
X142300478Y-130240174D01*
X142151100Y-130254886D01*
X142001723Y-130240174D01*
X141895459Y-130207939D01*
X141858082Y-130196601D01*
X141725710Y-130125846D01*
X141609679Y-130030622D01*
X141514455Y-129914591D01*
X141443698Y-129782215D01*
X141400126Y-129638579D01*
X141389100Y-129526627D01*
X141389100Y-128740574D01*
X141395971Y-128670815D01*
X141400126Y-128628623D01*
X141443698Y-128484986D01*
X141443699Y-128484982D01*
X141514454Y-128352610D01*
X141528934Y-128334966D01*
X141609678Y-128236578D01*
X141725708Y-128141355D01*
X141725707Y-128141355D01*
X141725709Y-128141354D01*
X141858081Y-128070599D01*
X141895458Y-128059261D01*
X142001722Y-128027026D01*
X142151100Y-128012314D01*
X142300477Y-128027026D01*
X142300477Y-128027026D01*
G37*
G36*
X144840477Y-128027026D02*
G01*
X144946741Y-128059261D01*
X144984118Y-128070599D01*
X145116490Y-128141354D01*
X145116492Y-128141355D01*
X145116491Y-128141355D01*
X145232522Y-128236578D01*
X145310670Y-128331802D01*
X145327746Y-128352609D01*
X145398501Y-128484981D01*
X145409839Y-128522358D01*
X145442074Y-128628622D01*
X145453100Y-128740574D01*
X145453100Y-129526626D01*
X145442074Y-129638578D01*
X145409839Y-129744842D01*
X145398501Y-129782219D01*
X145327746Y-129914591D01*
X145232522Y-130030622D01*
X145116491Y-130125846D01*
X144984119Y-130196601D01*
X144946742Y-130207939D01*
X144840478Y-130240174D01*
X144691100Y-130254886D01*
X144541723Y-130240174D01*
X144435459Y-130207939D01*
X144398082Y-130196601D01*
X144265710Y-130125846D01*
X144149679Y-130030622D01*
X144054455Y-129914591D01*
X143983698Y-129782215D01*
X143940126Y-129638579D01*
X143929100Y-129526627D01*
X143929100Y-128740574D01*
X143935971Y-128670815D01*
X143940126Y-128628623D01*
X143983698Y-128484986D01*
X143983699Y-128484982D01*
X144054454Y-128352610D01*
X144068934Y-128334966D01*
X144149678Y-128236578D01*
X144265708Y-128141355D01*
X144265707Y-128141355D01*
X144265709Y-128141354D01*
X144398081Y-128070599D01*
X144435458Y-128059261D01*
X144541722Y-128027026D01*
X144691100Y-128012314D01*
X144840477Y-128027026D01*
X144840477Y-128027026D01*
G37*
G36*
X147380477Y-128027026D02*
G01*
X147486741Y-128059261D01*
X147524118Y-128070599D01*
X147656490Y-128141354D01*
X147656492Y-128141355D01*
X147656491Y-128141355D01*
X147772522Y-128236578D01*
X147850670Y-128331802D01*
X147867746Y-128352609D01*
X147938501Y-128484981D01*
X147949839Y-128522358D01*
X147982074Y-128628622D01*
X147993100Y-128740574D01*
X147993100Y-129526626D01*
X147982074Y-129638578D01*
X147949839Y-129744842D01*
X147938501Y-129782219D01*
X147867746Y-129914591D01*
X147772522Y-130030622D01*
X147656491Y-130125846D01*
X147524119Y-130196601D01*
X147486742Y-130207939D01*
X147380478Y-130240174D01*
X147231100Y-130254886D01*
X147081723Y-130240174D01*
X146975459Y-130207939D01*
X146938082Y-130196601D01*
X146805710Y-130125846D01*
X146689679Y-130030622D01*
X146594455Y-129914591D01*
X146523698Y-129782215D01*
X146480126Y-129638579D01*
X146469100Y-129526627D01*
X146469100Y-128740574D01*
X146475971Y-128670815D01*
X146480126Y-128628623D01*
X146523698Y-128484986D01*
X146523699Y-128484982D01*
X146594454Y-128352610D01*
X146608934Y-128334966D01*
X146689678Y-128236578D01*
X146805708Y-128141355D01*
X146805707Y-128141355D01*
X146805709Y-128141354D01*
X146938081Y-128070599D01*
X146975458Y-128059261D01*
X147081722Y-128027026D01*
X147231100Y-128012314D01*
X147380477Y-128027026D01*
X147380477Y-128027026D01*
G37*
G36*
X152460477Y-128027026D02*
G01*
X152566741Y-128059261D01*
X152604118Y-128070599D01*
X152736490Y-128141354D01*
X152736492Y-128141355D01*
X152736491Y-128141355D01*
X152852522Y-128236578D01*
X152930670Y-128331802D01*
X152947746Y-128352609D01*
X153018501Y-128484981D01*
X153029839Y-128522358D01*
X153062074Y-128628622D01*
X153073100Y-128740574D01*
X153073100Y-129526626D01*
X153062074Y-129638578D01*
X153029839Y-129744842D01*
X153018501Y-129782219D01*
X152947746Y-129914591D01*
X152852522Y-130030622D01*
X152736491Y-130125846D01*
X152604119Y-130196601D01*
X152566742Y-130207939D01*
X152460478Y-130240174D01*
X152311100Y-130254886D01*
X152161723Y-130240174D01*
X152055459Y-130207939D01*
X152018082Y-130196601D01*
X151885710Y-130125846D01*
X151769679Y-130030622D01*
X151674455Y-129914591D01*
X151603698Y-129782215D01*
X151560126Y-129638579D01*
X151549100Y-129526627D01*
X151549100Y-128740574D01*
X151555971Y-128670815D01*
X151560126Y-128628623D01*
X151603698Y-128484986D01*
X151603699Y-128484982D01*
X151674454Y-128352610D01*
X151688934Y-128334966D01*
X151769678Y-128236578D01*
X151885708Y-128141355D01*
X151885707Y-128141355D01*
X151885709Y-128141354D01*
X152018081Y-128070599D01*
X152055458Y-128059261D01*
X152161722Y-128027026D01*
X152311100Y-128012314D01*
X152460477Y-128027026D01*
X152460477Y-128027026D01*
G37*
G36*
X155000477Y-128027026D02*
G01*
X155106741Y-128059261D01*
X155144118Y-128070599D01*
X155276490Y-128141354D01*
X155276492Y-128141355D01*
X155276491Y-128141355D01*
X155392522Y-128236578D01*
X155470670Y-128331802D01*
X155487746Y-128352609D01*
X155558501Y-128484981D01*
X155569839Y-128522358D01*
X155602074Y-128628622D01*
X155613100Y-128740574D01*
X155613100Y-129526626D01*
X155602074Y-129638578D01*
X155569839Y-129744842D01*
X155558501Y-129782219D01*
X155487746Y-129914591D01*
X155392522Y-130030622D01*
X155276491Y-130125846D01*
X155144119Y-130196601D01*
X155106742Y-130207939D01*
X155000478Y-130240174D01*
X154851100Y-130254886D01*
X154701723Y-130240174D01*
X154595459Y-130207939D01*
X154558082Y-130196601D01*
X154425710Y-130125846D01*
X154309679Y-130030622D01*
X154214455Y-129914591D01*
X154143698Y-129782215D01*
X154100126Y-129638579D01*
X154089100Y-129526627D01*
X154089100Y-128740574D01*
X154095971Y-128670815D01*
X154100126Y-128628623D01*
X154143698Y-128484986D01*
X154143699Y-128484982D01*
X154214454Y-128352610D01*
X154228934Y-128334966D01*
X154309678Y-128236578D01*
X154425708Y-128141355D01*
X154425707Y-128141355D01*
X154425709Y-128141354D01*
X154558081Y-128070599D01*
X154595458Y-128059261D01*
X154701722Y-128027026D01*
X154851100Y-128012314D01*
X155000477Y-128027026D01*
X155000477Y-128027026D01*
G37*
G36*
X160080477Y-128027026D02*
G01*
X160186741Y-128059261D01*
X160224118Y-128070599D01*
X160356490Y-128141354D01*
X160356492Y-128141355D01*
X160356491Y-128141355D01*
X160472522Y-128236578D01*
X160550670Y-128331802D01*
X160567746Y-128352609D01*
X160638501Y-128484981D01*
X160649839Y-128522358D01*
X160682074Y-128628622D01*
X160693100Y-128740574D01*
X160693100Y-129526626D01*
X160682074Y-129638578D01*
X160649839Y-129744842D01*
X160638501Y-129782219D01*
X160567746Y-129914591D01*
X160472522Y-130030622D01*
X160356491Y-130125846D01*
X160224119Y-130196601D01*
X160186742Y-130207939D01*
X160080478Y-130240174D01*
X159931100Y-130254886D01*
X159781723Y-130240174D01*
X159675459Y-130207939D01*
X159638082Y-130196601D01*
X159505710Y-130125846D01*
X159389679Y-130030622D01*
X159294455Y-129914591D01*
X159223698Y-129782215D01*
X159180126Y-129638579D01*
X159169100Y-129526627D01*
X159169100Y-128740574D01*
X159175971Y-128670815D01*
X159180126Y-128628623D01*
X159223698Y-128484986D01*
X159223699Y-128484982D01*
X159294454Y-128352610D01*
X159308934Y-128334966D01*
X159389678Y-128236578D01*
X159505708Y-128141355D01*
X159505707Y-128141355D01*
X159505709Y-128141354D01*
X159638081Y-128070599D01*
X159675458Y-128059261D01*
X159781722Y-128027026D01*
X159931100Y-128012314D01*
X160080477Y-128027026D01*
X160080477Y-128027026D01*
G37*
G36*
X165160477Y-128027026D02*
G01*
X165266741Y-128059261D01*
X165304118Y-128070599D01*
X165436490Y-128141354D01*
X165436492Y-128141355D01*
X165436491Y-128141355D01*
X165552522Y-128236578D01*
X165630670Y-128331802D01*
X165647746Y-128352609D01*
X165718501Y-128484981D01*
X165729839Y-128522358D01*
X165762074Y-128628622D01*
X165773100Y-128740574D01*
X165773100Y-129526626D01*
X165762074Y-129638578D01*
X165729839Y-129744842D01*
X165718501Y-129782219D01*
X165647746Y-129914591D01*
X165552522Y-130030622D01*
X165436491Y-130125846D01*
X165304119Y-130196601D01*
X165266742Y-130207939D01*
X165160478Y-130240174D01*
X165011100Y-130254886D01*
X164861723Y-130240174D01*
X164755459Y-130207939D01*
X164718082Y-130196601D01*
X164585710Y-130125846D01*
X164469679Y-130030622D01*
X164374455Y-129914591D01*
X164303698Y-129782215D01*
X164260126Y-129638579D01*
X164249100Y-129526627D01*
X164249100Y-128740574D01*
X164255971Y-128670815D01*
X164260126Y-128628623D01*
X164303698Y-128484986D01*
X164303699Y-128484982D01*
X164374454Y-128352610D01*
X164388934Y-128334966D01*
X164469678Y-128236578D01*
X164585708Y-128141355D01*
X164585707Y-128141355D01*
X164585709Y-128141354D01*
X164718081Y-128070599D01*
X164755458Y-128059261D01*
X164861722Y-128027026D01*
X165011100Y-128012314D01*
X165160477Y-128027026D01*
X165160477Y-128027026D01*
G37*
G36*
X167700477Y-128027026D02*
G01*
X167806741Y-128059261D01*
X167844118Y-128070599D01*
X167976490Y-128141354D01*
X167976492Y-128141355D01*
X167976491Y-128141355D01*
X168092522Y-128236578D01*
X168170670Y-128331802D01*
X168187746Y-128352609D01*
X168258501Y-128484981D01*
X168269839Y-128522358D01*
X168302074Y-128628622D01*
X168313100Y-128740574D01*
X168313100Y-129526626D01*
X168302074Y-129638578D01*
X168269839Y-129744842D01*
X168258501Y-129782219D01*
X168187746Y-129914591D01*
X168092522Y-130030622D01*
X167976491Y-130125846D01*
X167844119Y-130196601D01*
X167806742Y-130207939D01*
X167700478Y-130240174D01*
X167551100Y-130254886D01*
X167401723Y-130240174D01*
X167295459Y-130207939D01*
X167258082Y-130196601D01*
X167125710Y-130125846D01*
X167009679Y-130030622D01*
X166914455Y-129914591D01*
X166843698Y-129782215D01*
X166800126Y-129638579D01*
X166789100Y-129526627D01*
X166789100Y-128740574D01*
X166795971Y-128670815D01*
X166800126Y-128628623D01*
X166843698Y-128484986D01*
X166843699Y-128484982D01*
X166914454Y-128352610D01*
X166928934Y-128334966D01*
X167009678Y-128236578D01*
X167125708Y-128141355D01*
X167125707Y-128141355D01*
X167125709Y-128141354D01*
X167258081Y-128070599D01*
X167295458Y-128059261D01*
X167401722Y-128027026D01*
X167551100Y-128012314D01*
X167700477Y-128027026D01*
X167700477Y-128027026D01*
G37*
G36*
X170240477Y-128027026D02*
G01*
X170346741Y-128059261D01*
X170384118Y-128070599D01*
X170516490Y-128141354D01*
X170516492Y-128141355D01*
X170516491Y-128141355D01*
X170632522Y-128236578D01*
X170710670Y-128331802D01*
X170727746Y-128352609D01*
X170798501Y-128484981D01*
X170809839Y-128522358D01*
X170842074Y-128628622D01*
X170853100Y-128740574D01*
X170853100Y-129526626D01*
X170842074Y-129638578D01*
X170809839Y-129744842D01*
X170798501Y-129782219D01*
X170727746Y-129914591D01*
X170632522Y-130030622D01*
X170516491Y-130125846D01*
X170384119Y-130196601D01*
X170346742Y-130207939D01*
X170240478Y-130240174D01*
X170091100Y-130254886D01*
X169941723Y-130240174D01*
X169835459Y-130207939D01*
X169798082Y-130196601D01*
X169665710Y-130125846D01*
X169549679Y-130030622D01*
X169454455Y-129914591D01*
X169383698Y-129782215D01*
X169340126Y-129638579D01*
X169329100Y-129526627D01*
X169329100Y-128740574D01*
X169335971Y-128670815D01*
X169340126Y-128628623D01*
X169383698Y-128484986D01*
X169383699Y-128484982D01*
X169454454Y-128352610D01*
X169468934Y-128334966D01*
X169549678Y-128236578D01*
X169665708Y-128141355D01*
X169665707Y-128141355D01*
X169665709Y-128141354D01*
X169798081Y-128070599D01*
X169835458Y-128059261D01*
X169941722Y-128027026D01*
X170091100Y-128012314D01*
X170240477Y-128027026D01*
X170240477Y-128027026D01*
G37*
G36*
X172780477Y-128027026D02*
G01*
X172886741Y-128059261D01*
X172924118Y-128070599D01*
X173056490Y-128141354D01*
X173056492Y-128141355D01*
X173056491Y-128141355D01*
X173172522Y-128236578D01*
X173250670Y-128331802D01*
X173267746Y-128352609D01*
X173338501Y-128484981D01*
X173349839Y-128522358D01*
X173382074Y-128628622D01*
X173393100Y-128740574D01*
X173393100Y-129526626D01*
X173382074Y-129638578D01*
X173349839Y-129744842D01*
X173338501Y-129782219D01*
X173267746Y-129914591D01*
X173172522Y-130030622D01*
X173056491Y-130125846D01*
X172924119Y-130196601D01*
X172886742Y-130207939D01*
X172780478Y-130240174D01*
X172631100Y-130254886D01*
X172481723Y-130240174D01*
X172375459Y-130207939D01*
X172338082Y-130196601D01*
X172205710Y-130125846D01*
X172089679Y-130030622D01*
X171994455Y-129914591D01*
X171923698Y-129782215D01*
X171880126Y-129638579D01*
X171869100Y-129526627D01*
X171869100Y-128740574D01*
X171875971Y-128670815D01*
X171880126Y-128628623D01*
X171923698Y-128484986D01*
X171923699Y-128484982D01*
X171994454Y-128352610D01*
X172008934Y-128334966D01*
X172089678Y-128236578D01*
X172205708Y-128141355D01*
X172205707Y-128141355D01*
X172205709Y-128141354D01*
X172338081Y-128070599D01*
X172375458Y-128059261D01*
X172481722Y-128027026D01*
X172631100Y-128012314D01*
X172780477Y-128027026D01*
X172780477Y-128027026D01*
G37*
G36*
X175320477Y-128027026D02*
G01*
X175426741Y-128059261D01*
X175464118Y-128070599D01*
X175596490Y-128141354D01*
X175596492Y-128141355D01*
X175596491Y-128141355D01*
X175712522Y-128236578D01*
X175790670Y-128331802D01*
X175807746Y-128352609D01*
X175878501Y-128484981D01*
X175889839Y-128522358D01*
X175922074Y-128628622D01*
X175933100Y-128740574D01*
X175933100Y-129526626D01*
X175922074Y-129638578D01*
X175889839Y-129744842D01*
X175878501Y-129782219D01*
X175807746Y-129914591D01*
X175712522Y-130030622D01*
X175596491Y-130125846D01*
X175464119Y-130196601D01*
X175426742Y-130207939D01*
X175320478Y-130240174D01*
X175171100Y-130254886D01*
X175021723Y-130240174D01*
X174915459Y-130207939D01*
X174878082Y-130196601D01*
X174745710Y-130125846D01*
X174629679Y-130030622D01*
X174534455Y-129914591D01*
X174463698Y-129782215D01*
X174420126Y-129638579D01*
X174409100Y-129526627D01*
X174409100Y-128740574D01*
X174415971Y-128670815D01*
X174420126Y-128628623D01*
X174463698Y-128484986D01*
X174463699Y-128484982D01*
X174534454Y-128352610D01*
X174548934Y-128334966D01*
X174629678Y-128236578D01*
X174745708Y-128141355D01*
X174745707Y-128141355D01*
X174745709Y-128141354D01*
X174878081Y-128070599D01*
X174915458Y-128059261D01*
X175021722Y-128027026D01*
X175171100Y-128012314D01*
X175320477Y-128027026D01*
X175320477Y-128027026D01*
G37*
G36*
X157540477Y-128027026D02*
G01*
X157646741Y-128059261D01*
X157684118Y-128070599D01*
X157816490Y-128141354D01*
X157816492Y-128141355D01*
X157816491Y-128141355D01*
X157932522Y-128236578D01*
X158010670Y-128331802D01*
X158027746Y-128352609D01*
X158098501Y-128484981D01*
X158109839Y-128522358D01*
X158142074Y-128628622D01*
X158153100Y-128740574D01*
X158153100Y-129526626D01*
X158142074Y-129638578D01*
X158109839Y-129744842D01*
X158098501Y-129782219D01*
X158027746Y-129914591D01*
X157932522Y-130030622D01*
X157816491Y-130125846D01*
X157684119Y-130196601D01*
X157646742Y-130207939D01*
X157540478Y-130240174D01*
X157391100Y-130254886D01*
X157241723Y-130240174D01*
X157135459Y-130207939D01*
X157098082Y-130196601D01*
X156965710Y-130125846D01*
X156849679Y-130030622D01*
X156754455Y-129914591D01*
X156683698Y-129782215D01*
X156640126Y-129638579D01*
X156629100Y-129526627D01*
X156629100Y-128740574D01*
X156635971Y-128670815D01*
X156640126Y-128628623D01*
X156683698Y-128484986D01*
X156683699Y-128484982D01*
X156754454Y-128352610D01*
X156768934Y-128334966D01*
X156849678Y-128236578D01*
X156965708Y-128141355D01*
X156965707Y-128141355D01*
X156965709Y-128141354D01*
X157098081Y-128070599D01*
X157135458Y-128059261D01*
X157241722Y-128027026D01*
X157391100Y-128012314D01*
X157540477Y-128027026D01*
X157540477Y-128027026D01*
G37*
G36*
X180626356Y-122444898D02*
G01*
X180732679Y-122466047D01*
X181033142Y-122590503D01*
X181303551Y-122771185D01*
X181533515Y-123001149D01*
X181714197Y-123271558D01*
X181814973Y-123514852D01*
X181838653Y-123572022D01*
X181902100Y-123890989D01*
X181902100Y-124216211D01*
X181877632Y-124339218D01*
X181838653Y-124535179D01*
X181714197Y-124835642D01*
X181533515Y-125106051D01*
X181303551Y-125336015D01*
X181033142Y-125516697D01*
X180732679Y-125641153D01*
X180626356Y-125662302D01*
X180413711Y-125704600D01*
X180088489Y-125704600D01*
X179875844Y-125662302D01*
X179769521Y-125641153D01*
X179469058Y-125516697D01*
X179198649Y-125336015D01*
X178968685Y-125106051D01*
X178788003Y-124835642D01*
X178663547Y-124535179D01*
X178624568Y-124339218D01*
X178600100Y-124216211D01*
X178600100Y-123890989D01*
X178663547Y-123572022D01*
X178687228Y-123514852D01*
X178788003Y-123271558D01*
X178968685Y-123001149D01*
X179198649Y-122771185D01*
X179469058Y-122590503D01*
X179769521Y-122466047D01*
X179875844Y-122444898D01*
X180088489Y-122402600D01*
X180413711Y-122402600D01*
X180626356Y-122444898D01*
X180626356Y-122444898D01*
G37*
G36*
X120366826Y-121369541D02*
G01*
X120498896Y-121395811D01*
X120872118Y-121550405D01*
X121208009Y-121774840D01*
X121493660Y-122060491D01*
X121658095Y-122306585D01*
X121718096Y-122396384D01*
X121872689Y-122769605D01*
X121951500Y-123165812D01*
X121951500Y-123569788D01*
X121907015Y-123793428D01*
X121872689Y-123965996D01*
X121718095Y-124339218D01*
X121493660Y-124675109D01*
X121208009Y-124960760D01*
X120872118Y-125185195D01*
X120498896Y-125339789D01*
X120366826Y-125366059D01*
X120102688Y-125418600D01*
X119698712Y-125418600D01*
X119434574Y-125366059D01*
X119302504Y-125339789D01*
X118929282Y-125185195D01*
X118593391Y-124960760D01*
X118307740Y-124675109D01*
X118083305Y-124339218D01*
X117928711Y-123965996D01*
X117894385Y-123793428D01*
X117849900Y-123569788D01*
X117849900Y-123165812D01*
X117928711Y-122769605D01*
X118083304Y-122396384D01*
X118143306Y-122306585D01*
X118307740Y-122060491D01*
X118593391Y-121774840D01*
X118929282Y-121550405D01*
X119302504Y-121395811D01*
X119434574Y-121369541D01*
X119698712Y-121317000D01*
X120102688Y-121317000D01*
X120366826Y-121369541D01*
X120366826Y-121369541D01*
G37*
G36*
X126361226Y-121369541D02*
G01*
X126493296Y-121395811D01*
X126866518Y-121550405D01*
X127202409Y-121774840D01*
X127488060Y-122060491D01*
X127652495Y-122306585D01*
X127712496Y-122396384D01*
X127867089Y-122769605D01*
X127945900Y-123165812D01*
X127945900Y-123569788D01*
X127901415Y-123793428D01*
X127867089Y-123965996D01*
X127712495Y-124339218D01*
X127488060Y-124675109D01*
X127202409Y-124960760D01*
X126866518Y-125185195D01*
X126493296Y-125339789D01*
X126361226Y-125366059D01*
X126097088Y-125418600D01*
X125693112Y-125418600D01*
X125428974Y-125366059D01*
X125296904Y-125339789D01*
X124923682Y-125185195D01*
X124587791Y-124960760D01*
X124302140Y-124675109D01*
X124077705Y-124339218D01*
X123923111Y-123965996D01*
X123888785Y-123793428D01*
X123844300Y-123569788D01*
X123844300Y-123165812D01*
X123923111Y-122769605D01*
X124077704Y-122396384D01*
X124137706Y-122306585D01*
X124302140Y-122060491D01*
X124587791Y-121774840D01*
X124923682Y-121550405D01*
X125296904Y-121395811D01*
X125428974Y-121369541D01*
X125693112Y-121317000D01*
X126097088Y-121317000D01*
X126361226Y-121369541D01*
X126361226Y-121369541D01*
G37*
G36*
X146745478Y-117994026D02*
G01*
X146851742Y-118026261D01*
X146889119Y-118037599D01*
X147021491Y-118108354D01*
X147137522Y-118203578D01*
X147232746Y-118319609D01*
X147303501Y-118451981D01*
X147303502Y-118451985D01*
X147347074Y-118595622D01*
X147358100Y-118707574D01*
X147358100Y-119493626D01*
X147347074Y-119605578D01*
X147314839Y-119711842D01*
X147303501Y-119749219D01*
X147232746Y-119881591D01*
X147232745Y-119881592D01*
X147137522Y-119997622D01*
X147039134Y-120078366D01*
X147021490Y-120092846D01*
X146889118Y-120163601D01*
X146851741Y-120174939D01*
X146745477Y-120207174D01*
X146596100Y-120221886D01*
X146446722Y-120207174D01*
X146340458Y-120174939D01*
X146303081Y-120163601D01*
X146170709Y-120092846D01*
X146149902Y-120075770D01*
X146054678Y-119997622D01*
X145959455Y-119881591D01*
X145959454Y-119881590D01*
X145888699Y-119749218D01*
X145877361Y-119711841D01*
X145845126Y-119605577D01*
X145834100Y-119493625D01*
X145834100Y-118707574D01*
X145845126Y-118595622D01*
X145845126Y-118595621D01*
X145888698Y-118451985D01*
X145959455Y-118319609D01*
X146054679Y-118203578D01*
X146170710Y-118108354D01*
X146303082Y-118037599D01*
X146340459Y-118026261D01*
X146446723Y-117994026D01*
X146596100Y-117979314D01*
X146745478Y-117994026D01*
X146745478Y-117994026D01*
G37*
G36*
X144205478Y-117994026D02*
G01*
X144311742Y-118026261D01*
X144349119Y-118037599D01*
X144481491Y-118108354D01*
X144597522Y-118203578D01*
X144692746Y-118319609D01*
X144763501Y-118451981D01*
X144763502Y-118451985D01*
X144807074Y-118595622D01*
X144818100Y-118707574D01*
X144818100Y-119493626D01*
X144807074Y-119605578D01*
X144774839Y-119711842D01*
X144763501Y-119749219D01*
X144692746Y-119881591D01*
X144692745Y-119881592D01*
X144597522Y-119997622D01*
X144499134Y-120078366D01*
X144481490Y-120092846D01*
X144349118Y-120163601D01*
X144311741Y-120174939D01*
X144205477Y-120207174D01*
X144056100Y-120221886D01*
X143906722Y-120207174D01*
X143800458Y-120174939D01*
X143763081Y-120163601D01*
X143630709Y-120092846D01*
X143609902Y-120075770D01*
X143514678Y-119997622D01*
X143419455Y-119881591D01*
X143419454Y-119881590D01*
X143348699Y-119749218D01*
X143337361Y-119711841D01*
X143305126Y-119605577D01*
X143294100Y-119493625D01*
X143294100Y-118707574D01*
X143305126Y-118595622D01*
X143305126Y-118595621D01*
X143348698Y-118451985D01*
X143419455Y-118319609D01*
X143514679Y-118203578D01*
X143630710Y-118108354D01*
X143763082Y-118037599D01*
X143800459Y-118026261D01*
X143906723Y-117994026D01*
X144056100Y-117979314D01*
X144205478Y-117994026D01*
X144205478Y-117994026D01*
G37*
G36*
X149285478Y-117994026D02*
G01*
X149391742Y-118026261D01*
X149429119Y-118037599D01*
X149561491Y-118108354D01*
X149677522Y-118203578D01*
X149772746Y-118319609D01*
X149843501Y-118451981D01*
X149843502Y-118451985D01*
X149887074Y-118595622D01*
X149898100Y-118707574D01*
X149898100Y-119493626D01*
X149887074Y-119605578D01*
X149854839Y-119711842D01*
X149843501Y-119749219D01*
X149772746Y-119881591D01*
X149772745Y-119881592D01*
X149677522Y-119997622D01*
X149579134Y-120078366D01*
X149561490Y-120092846D01*
X149429118Y-120163601D01*
X149391741Y-120174939D01*
X149285477Y-120207174D01*
X149136100Y-120221886D01*
X148986722Y-120207174D01*
X148880458Y-120174939D01*
X148843081Y-120163601D01*
X148710709Y-120092846D01*
X148689902Y-120075770D01*
X148594678Y-119997622D01*
X148499455Y-119881591D01*
X148499454Y-119881590D01*
X148428699Y-119749218D01*
X148417361Y-119711841D01*
X148385126Y-119605577D01*
X148374100Y-119493625D01*
X148374100Y-118707574D01*
X148385126Y-118595622D01*
X148385126Y-118595621D01*
X148428698Y-118451985D01*
X148499455Y-118319609D01*
X148594679Y-118203578D01*
X148710710Y-118108354D01*
X148843082Y-118037599D01*
X148880459Y-118026261D01*
X148986723Y-117994026D01*
X149136100Y-117979314D01*
X149285478Y-117994026D01*
X149285478Y-117994026D01*
G37*
G36*
X151825478Y-117994026D02*
G01*
X151931742Y-118026261D01*
X151969119Y-118037599D01*
X152101491Y-118108354D01*
X152217522Y-118203578D01*
X152312746Y-118319609D01*
X152383501Y-118451981D01*
X152383502Y-118451985D01*
X152427074Y-118595622D01*
X152438100Y-118707574D01*
X152438100Y-119493626D01*
X152427074Y-119605578D01*
X152394839Y-119711842D01*
X152383501Y-119749219D01*
X152312746Y-119881591D01*
X152312745Y-119881592D01*
X152217522Y-119997622D01*
X152119134Y-120078366D01*
X152101490Y-120092846D01*
X151969118Y-120163601D01*
X151931741Y-120174939D01*
X151825477Y-120207174D01*
X151676100Y-120221886D01*
X151526722Y-120207174D01*
X151420458Y-120174939D01*
X151383081Y-120163601D01*
X151250709Y-120092846D01*
X151229902Y-120075770D01*
X151134678Y-119997622D01*
X151039455Y-119881591D01*
X151039454Y-119881590D01*
X150968699Y-119749218D01*
X150957361Y-119711841D01*
X150925126Y-119605577D01*
X150914100Y-119493625D01*
X150914100Y-118707574D01*
X150925126Y-118595622D01*
X150925126Y-118595621D01*
X150968698Y-118451985D01*
X151039455Y-118319609D01*
X151134679Y-118203578D01*
X151250710Y-118108354D01*
X151383082Y-118037599D01*
X151420459Y-118026261D01*
X151526723Y-117994026D01*
X151676100Y-117979314D01*
X151825478Y-117994026D01*
X151825478Y-117994026D01*
G37*
G36*
X154365478Y-117994026D02*
G01*
X154471742Y-118026261D01*
X154509119Y-118037599D01*
X154641491Y-118108354D01*
X154757522Y-118203578D01*
X154852746Y-118319609D01*
X154923501Y-118451981D01*
X154923502Y-118451985D01*
X154967074Y-118595622D01*
X154978100Y-118707574D01*
X154978100Y-119493626D01*
X154967074Y-119605578D01*
X154934839Y-119711842D01*
X154923501Y-119749219D01*
X154852746Y-119881591D01*
X154852745Y-119881592D01*
X154757522Y-119997622D01*
X154659134Y-120078366D01*
X154641490Y-120092846D01*
X154509118Y-120163601D01*
X154471741Y-120174939D01*
X154365477Y-120207174D01*
X154216100Y-120221886D01*
X154066722Y-120207174D01*
X153960458Y-120174939D01*
X153923081Y-120163601D01*
X153790709Y-120092846D01*
X153769902Y-120075770D01*
X153674678Y-119997622D01*
X153579455Y-119881591D01*
X153579454Y-119881590D01*
X153508699Y-119749218D01*
X153497361Y-119711841D01*
X153465126Y-119605577D01*
X153454100Y-119493625D01*
X153454100Y-118707574D01*
X153465126Y-118595622D01*
X153465126Y-118595621D01*
X153508698Y-118451985D01*
X153579455Y-118319609D01*
X153674679Y-118203578D01*
X153790710Y-118108354D01*
X153923082Y-118037599D01*
X153960459Y-118026261D01*
X154066723Y-117994026D01*
X154216100Y-117979314D01*
X154365478Y-117994026D01*
X154365478Y-117994026D01*
G37*
G36*
X156905478Y-117994026D02*
G01*
X157011742Y-118026261D01*
X157049119Y-118037599D01*
X157181491Y-118108354D01*
X157297522Y-118203578D01*
X157392746Y-118319609D01*
X157463501Y-118451981D01*
X157463502Y-118451985D01*
X157507074Y-118595622D01*
X157518100Y-118707574D01*
X157518100Y-119493626D01*
X157507074Y-119605578D01*
X157474839Y-119711842D01*
X157463501Y-119749219D01*
X157392746Y-119881591D01*
X157392745Y-119881592D01*
X157297522Y-119997622D01*
X157199134Y-120078366D01*
X157181490Y-120092846D01*
X157049118Y-120163601D01*
X157011741Y-120174939D01*
X156905477Y-120207174D01*
X156756100Y-120221886D01*
X156606722Y-120207174D01*
X156500458Y-120174939D01*
X156463081Y-120163601D01*
X156330709Y-120092846D01*
X156309902Y-120075770D01*
X156214678Y-119997622D01*
X156119455Y-119881591D01*
X156119454Y-119881590D01*
X156048699Y-119749218D01*
X156037361Y-119711841D01*
X156005126Y-119605577D01*
X155994100Y-119493625D01*
X155994100Y-118707574D01*
X156005126Y-118595622D01*
X156005126Y-118595621D01*
X156048698Y-118451985D01*
X156119455Y-118319609D01*
X156214679Y-118203578D01*
X156330710Y-118108354D01*
X156463082Y-118037599D01*
X156500459Y-118026261D01*
X156606723Y-117994026D01*
X156756100Y-117979314D01*
X156905478Y-117994026D01*
X156905478Y-117994026D01*
G37*
G36*
X161985478Y-117994026D02*
G01*
X162091742Y-118026261D01*
X162129119Y-118037599D01*
X162261491Y-118108354D01*
X162377522Y-118203578D01*
X162472746Y-118319609D01*
X162543501Y-118451981D01*
X162543502Y-118451985D01*
X162587074Y-118595622D01*
X162598100Y-118707574D01*
X162598100Y-119493626D01*
X162587074Y-119605578D01*
X162554839Y-119711842D01*
X162543501Y-119749219D01*
X162472746Y-119881591D01*
X162472745Y-119881592D01*
X162377522Y-119997622D01*
X162279134Y-120078366D01*
X162261490Y-120092846D01*
X162129118Y-120163601D01*
X162091741Y-120174939D01*
X161985477Y-120207174D01*
X161836100Y-120221886D01*
X161686722Y-120207174D01*
X161580458Y-120174939D01*
X161543081Y-120163601D01*
X161410709Y-120092846D01*
X161389902Y-120075770D01*
X161294678Y-119997622D01*
X161199455Y-119881591D01*
X161199454Y-119881590D01*
X161128699Y-119749218D01*
X161117361Y-119711841D01*
X161085126Y-119605577D01*
X161074100Y-119493625D01*
X161074100Y-118707574D01*
X161085126Y-118595622D01*
X161085126Y-118595621D01*
X161128698Y-118451985D01*
X161199455Y-118319609D01*
X161294679Y-118203578D01*
X161410710Y-118108354D01*
X161543082Y-118037599D01*
X161580459Y-118026261D01*
X161686723Y-117994026D01*
X161836100Y-117979314D01*
X161985478Y-117994026D01*
X161985478Y-117994026D01*
G37*
G36*
X167065478Y-117994026D02*
G01*
X167171742Y-118026261D01*
X167209119Y-118037599D01*
X167341491Y-118108354D01*
X167457522Y-118203578D01*
X167552746Y-118319609D01*
X167623501Y-118451981D01*
X167623502Y-118451985D01*
X167667074Y-118595622D01*
X167678100Y-118707574D01*
X167678100Y-119493626D01*
X167667074Y-119605578D01*
X167634839Y-119711842D01*
X167623501Y-119749219D01*
X167552746Y-119881591D01*
X167552745Y-119881592D01*
X167457522Y-119997622D01*
X167359134Y-120078366D01*
X167341490Y-120092846D01*
X167209118Y-120163601D01*
X167171741Y-120174939D01*
X167065477Y-120207174D01*
X166916100Y-120221886D01*
X166766722Y-120207174D01*
X166660458Y-120174939D01*
X166623081Y-120163601D01*
X166490709Y-120092846D01*
X166469902Y-120075770D01*
X166374678Y-119997622D01*
X166279455Y-119881591D01*
X166279454Y-119881590D01*
X166208699Y-119749218D01*
X166197361Y-119711841D01*
X166165126Y-119605577D01*
X166154100Y-119493625D01*
X166154100Y-118707574D01*
X166165126Y-118595622D01*
X166165126Y-118595621D01*
X166208698Y-118451985D01*
X166279455Y-118319609D01*
X166374679Y-118203578D01*
X166490710Y-118108354D01*
X166623082Y-118037599D01*
X166660459Y-118026261D01*
X166766723Y-117994026D01*
X166916100Y-117979314D01*
X167065478Y-117994026D01*
X167065478Y-117994026D01*
G37*
G36*
X169605478Y-117994026D02*
G01*
X169711742Y-118026261D01*
X169749119Y-118037599D01*
X169881491Y-118108354D01*
X169997522Y-118203578D01*
X170092746Y-118319609D01*
X170163501Y-118451981D01*
X170163502Y-118451985D01*
X170207074Y-118595622D01*
X170218100Y-118707574D01*
X170218100Y-119493626D01*
X170207074Y-119605578D01*
X170174839Y-119711842D01*
X170163501Y-119749219D01*
X170092746Y-119881591D01*
X170092745Y-119881592D01*
X169997522Y-119997622D01*
X169899134Y-120078366D01*
X169881490Y-120092846D01*
X169749118Y-120163601D01*
X169711741Y-120174939D01*
X169605477Y-120207174D01*
X169456100Y-120221886D01*
X169306722Y-120207174D01*
X169200458Y-120174939D01*
X169163081Y-120163601D01*
X169030709Y-120092846D01*
X169009902Y-120075770D01*
X168914678Y-119997622D01*
X168819455Y-119881591D01*
X168819454Y-119881590D01*
X168748699Y-119749218D01*
X168737361Y-119711841D01*
X168705126Y-119605577D01*
X168694100Y-119493625D01*
X168694100Y-118707574D01*
X168705126Y-118595622D01*
X168705126Y-118595621D01*
X168748698Y-118451985D01*
X168819455Y-118319609D01*
X168914679Y-118203578D01*
X169030710Y-118108354D01*
X169163082Y-118037599D01*
X169200459Y-118026261D01*
X169306723Y-117994026D01*
X169456100Y-117979314D01*
X169605478Y-117994026D01*
X169605478Y-117994026D01*
G37*
G36*
X172145478Y-117994026D02*
G01*
X172251742Y-118026261D01*
X172289119Y-118037599D01*
X172421491Y-118108354D01*
X172537522Y-118203578D01*
X172632746Y-118319609D01*
X172703501Y-118451981D01*
X172703502Y-118451985D01*
X172747074Y-118595622D01*
X172758100Y-118707574D01*
X172758100Y-119493626D01*
X172747074Y-119605578D01*
X172714839Y-119711842D01*
X172703501Y-119749219D01*
X172632746Y-119881591D01*
X172632745Y-119881592D01*
X172537522Y-119997622D01*
X172439134Y-120078366D01*
X172421490Y-120092846D01*
X172289118Y-120163601D01*
X172251741Y-120174939D01*
X172145477Y-120207174D01*
X171996100Y-120221886D01*
X171846722Y-120207174D01*
X171740458Y-120174939D01*
X171703081Y-120163601D01*
X171570709Y-120092846D01*
X171549902Y-120075770D01*
X171454678Y-119997622D01*
X171359455Y-119881591D01*
X171359454Y-119881590D01*
X171288699Y-119749218D01*
X171277361Y-119711841D01*
X171245126Y-119605577D01*
X171234100Y-119493625D01*
X171234100Y-118707574D01*
X171245126Y-118595622D01*
X171245126Y-118595621D01*
X171288698Y-118451985D01*
X171359455Y-118319609D01*
X171454679Y-118203578D01*
X171570710Y-118108354D01*
X171703082Y-118037599D01*
X171740459Y-118026261D01*
X171846723Y-117994026D01*
X171996100Y-117979314D01*
X172145478Y-117994026D01*
X172145478Y-117994026D01*
G37*
G36*
X174685478Y-117994026D02*
G01*
X174791742Y-118026261D01*
X174829119Y-118037599D01*
X174961491Y-118108354D01*
X175077522Y-118203578D01*
X175172746Y-118319609D01*
X175243501Y-118451981D01*
X175243502Y-118451985D01*
X175287074Y-118595622D01*
X175298100Y-118707574D01*
X175298100Y-119493626D01*
X175287074Y-119605578D01*
X175254839Y-119711842D01*
X175243501Y-119749219D01*
X175172746Y-119881591D01*
X175172745Y-119881592D01*
X175077522Y-119997622D01*
X174979134Y-120078366D01*
X174961490Y-120092846D01*
X174829118Y-120163601D01*
X174791741Y-120174939D01*
X174685477Y-120207174D01*
X174536100Y-120221886D01*
X174386722Y-120207174D01*
X174280458Y-120174939D01*
X174243081Y-120163601D01*
X174110709Y-120092846D01*
X174089902Y-120075770D01*
X173994678Y-119997622D01*
X173899455Y-119881591D01*
X173899454Y-119881590D01*
X173828699Y-119749218D01*
X173817361Y-119711841D01*
X173785126Y-119605577D01*
X173774100Y-119493625D01*
X173774100Y-118707574D01*
X173785126Y-118595622D01*
X173785126Y-118595621D01*
X173828698Y-118451985D01*
X173899455Y-118319609D01*
X173994679Y-118203578D01*
X174110710Y-118108354D01*
X174243082Y-118037599D01*
X174280459Y-118026261D01*
X174386723Y-117994026D01*
X174536100Y-117979314D01*
X174685478Y-117994026D01*
X174685478Y-117994026D01*
G37*
G36*
X177225478Y-117994026D02*
G01*
X177331742Y-118026261D01*
X177369119Y-118037599D01*
X177501491Y-118108354D01*
X177617522Y-118203578D01*
X177712746Y-118319609D01*
X177783501Y-118451981D01*
X177783502Y-118451985D01*
X177827074Y-118595622D01*
X177838100Y-118707574D01*
X177838100Y-119493626D01*
X177827074Y-119605578D01*
X177794839Y-119711842D01*
X177783501Y-119749219D01*
X177712746Y-119881591D01*
X177712745Y-119881592D01*
X177617522Y-119997622D01*
X177519134Y-120078366D01*
X177501490Y-120092846D01*
X177369118Y-120163601D01*
X177331741Y-120174939D01*
X177225477Y-120207174D01*
X177076100Y-120221886D01*
X176926722Y-120207174D01*
X176820458Y-120174939D01*
X176783081Y-120163601D01*
X176650709Y-120092846D01*
X176629902Y-120075770D01*
X176534678Y-119997622D01*
X176439455Y-119881591D01*
X176439454Y-119881590D01*
X176368699Y-119749218D01*
X176357361Y-119711841D01*
X176325126Y-119605577D01*
X176314100Y-119493625D01*
X176314100Y-118707574D01*
X176325126Y-118595622D01*
X176325126Y-118595621D01*
X176368698Y-118451985D01*
X176439455Y-118319609D01*
X176534679Y-118203578D01*
X176650710Y-118108354D01*
X176783082Y-118037599D01*
X176820459Y-118026261D01*
X176926723Y-117994026D01*
X177076100Y-117979314D01*
X177225478Y-117994026D01*
X177225478Y-117994026D01*
G37*
G36*
X159445478Y-117994026D02*
G01*
X159551742Y-118026261D01*
X159589119Y-118037599D01*
X159721491Y-118108354D01*
X159837522Y-118203578D01*
X159932746Y-118319609D01*
X160003501Y-118451981D01*
X160003502Y-118451985D01*
X160047074Y-118595622D01*
X160058100Y-118707574D01*
X160058100Y-119493626D01*
X160047074Y-119605578D01*
X160014839Y-119711842D01*
X160003501Y-119749219D01*
X159932746Y-119881591D01*
X159932745Y-119881592D01*
X159837522Y-119997622D01*
X159739134Y-120078366D01*
X159721490Y-120092846D01*
X159589118Y-120163601D01*
X159551741Y-120174939D01*
X159445477Y-120207174D01*
X159296100Y-120221886D01*
X159146722Y-120207174D01*
X159040458Y-120174939D01*
X159003081Y-120163601D01*
X158870709Y-120092846D01*
X158849902Y-120075770D01*
X158754678Y-119997622D01*
X158659455Y-119881591D01*
X158659454Y-119881590D01*
X158588699Y-119749218D01*
X158577361Y-119711841D01*
X158545126Y-119605577D01*
X158534100Y-119493625D01*
X158534100Y-118707574D01*
X158545126Y-118595622D01*
X158545126Y-118595621D01*
X158588698Y-118451985D01*
X158659455Y-118319609D01*
X158754679Y-118203578D01*
X158870710Y-118108354D01*
X159003082Y-118037599D01*
X159040459Y-118026261D01*
X159146723Y-117994026D01*
X159296100Y-117979314D01*
X159445478Y-117994026D01*
X159445478Y-117994026D01*
G37*
G36*
X164525478Y-117994026D02*
G01*
X164631742Y-118026261D01*
X164669119Y-118037599D01*
X164801491Y-118108354D01*
X164917522Y-118203578D01*
X165012746Y-118319609D01*
X165083501Y-118451981D01*
X165083502Y-118451985D01*
X165127074Y-118595622D01*
X165138100Y-118707574D01*
X165138100Y-119493626D01*
X165127074Y-119605578D01*
X165094839Y-119711842D01*
X165083501Y-119749219D01*
X165012746Y-119881591D01*
X165012745Y-119881592D01*
X164917522Y-119997622D01*
X164819134Y-120078366D01*
X164801490Y-120092846D01*
X164669118Y-120163601D01*
X164631741Y-120174939D01*
X164525477Y-120207174D01*
X164376100Y-120221886D01*
X164226722Y-120207174D01*
X164120458Y-120174939D01*
X164083081Y-120163601D01*
X163950709Y-120092846D01*
X163929902Y-120075770D01*
X163834678Y-119997622D01*
X163739455Y-119881591D01*
X163739454Y-119881590D01*
X163668699Y-119749218D01*
X163657361Y-119711841D01*
X163625126Y-119605577D01*
X163614100Y-119493625D01*
X163614100Y-118707574D01*
X163625126Y-118595622D01*
X163625126Y-118595621D01*
X163668698Y-118451985D01*
X163739455Y-118319609D01*
X163834679Y-118203578D01*
X163950710Y-118108354D01*
X164083082Y-118037599D01*
X164120459Y-118026261D01*
X164226723Y-117994026D01*
X164376100Y-117979314D01*
X164525478Y-117994026D01*
X164525478Y-117994026D01*
G37*
G36*
X164525478Y-110374026D02*
G01*
X164631742Y-110406261D01*
X164669119Y-110417599D01*
X164801491Y-110488354D01*
X164917522Y-110583578D01*
X165012746Y-110699609D01*
X165083501Y-110831981D01*
X165083502Y-110831985D01*
X165127074Y-110975622D01*
X165138100Y-111087574D01*
X165138100Y-111873626D01*
X165127074Y-111985578D01*
X165094839Y-112091842D01*
X165083501Y-112129219D01*
X165012746Y-112261591D01*
X165012745Y-112261592D01*
X164917522Y-112377622D01*
X164819134Y-112458366D01*
X164801490Y-112472846D01*
X164669118Y-112543601D01*
X164631741Y-112554939D01*
X164525477Y-112587174D01*
X164376100Y-112601886D01*
X164226722Y-112587174D01*
X164120458Y-112554939D01*
X164083081Y-112543601D01*
X163950709Y-112472846D01*
X163929902Y-112455770D01*
X163834678Y-112377622D01*
X163739455Y-112261591D01*
X163739454Y-112261590D01*
X163668699Y-112129218D01*
X163657361Y-112091841D01*
X163625126Y-111985577D01*
X163614100Y-111873625D01*
X163614100Y-111087573D01*
X163625126Y-110975621D01*
X163668698Y-110831985D01*
X163739455Y-110699609D01*
X163834679Y-110583578D01*
X163950710Y-110488354D01*
X164083082Y-110417599D01*
X164120459Y-110406261D01*
X164226723Y-110374026D01*
X164376100Y-110359314D01*
X164525478Y-110374026D01*
X164525478Y-110374026D01*
G37*
G36*
X151825478Y-110374026D02*
G01*
X151931742Y-110406261D01*
X151969119Y-110417599D01*
X152101491Y-110488354D01*
X152217522Y-110583578D01*
X152312746Y-110699609D01*
X152383501Y-110831981D01*
X152383502Y-110831985D01*
X152427074Y-110975622D01*
X152438100Y-111087574D01*
X152438100Y-111873626D01*
X152427074Y-111985578D01*
X152394839Y-112091842D01*
X152383501Y-112129219D01*
X152312746Y-112261591D01*
X152312745Y-112261592D01*
X152217522Y-112377622D01*
X152119134Y-112458366D01*
X152101490Y-112472846D01*
X151969118Y-112543601D01*
X151931741Y-112554939D01*
X151825477Y-112587174D01*
X151676100Y-112601886D01*
X151526722Y-112587174D01*
X151420458Y-112554939D01*
X151383081Y-112543601D01*
X151250709Y-112472846D01*
X151229902Y-112455770D01*
X151134678Y-112377622D01*
X151039455Y-112261591D01*
X151039454Y-112261590D01*
X150968699Y-112129218D01*
X150957361Y-112091841D01*
X150925126Y-111985577D01*
X150914100Y-111873625D01*
X150914100Y-111087573D01*
X150925126Y-110975621D01*
X150968698Y-110831985D01*
X151039455Y-110699609D01*
X151134679Y-110583578D01*
X151250710Y-110488354D01*
X151383082Y-110417599D01*
X151420459Y-110406261D01*
X151526723Y-110374026D01*
X151676100Y-110359314D01*
X151825478Y-110374026D01*
X151825478Y-110374026D01*
G37*
G36*
X149285478Y-110374026D02*
G01*
X149391742Y-110406261D01*
X149429119Y-110417599D01*
X149561491Y-110488354D01*
X149677522Y-110583578D01*
X149772746Y-110699609D01*
X149843501Y-110831981D01*
X149843502Y-110831985D01*
X149887074Y-110975622D01*
X149898100Y-111087574D01*
X149898100Y-111873626D01*
X149887074Y-111985578D01*
X149854839Y-112091842D01*
X149843501Y-112129219D01*
X149772746Y-112261591D01*
X149772745Y-112261592D01*
X149677522Y-112377622D01*
X149579134Y-112458366D01*
X149561490Y-112472846D01*
X149429118Y-112543601D01*
X149391741Y-112554939D01*
X149285477Y-112587174D01*
X149136100Y-112601886D01*
X148986722Y-112587174D01*
X148880458Y-112554939D01*
X148843081Y-112543601D01*
X148710709Y-112472846D01*
X148689902Y-112455770D01*
X148594678Y-112377622D01*
X148499455Y-112261591D01*
X148499454Y-112261590D01*
X148428699Y-112129218D01*
X148417361Y-112091841D01*
X148385126Y-111985577D01*
X148374100Y-111873625D01*
X148374100Y-111087573D01*
X148385126Y-110975621D01*
X148428698Y-110831985D01*
X148499455Y-110699609D01*
X148594679Y-110583578D01*
X148710710Y-110488354D01*
X148843082Y-110417599D01*
X148880459Y-110406261D01*
X148986723Y-110374026D01*
X149136100Y-110359314D01*
X149285478Y-110374026D01*
X149285478Y-110374026D01*
G37*
G36*
X146745478Y-110374026D02*
G01*
X146851742Y-110406261D01*
X146889119Y-110417599D01*
X147021491Y-110488354D01*
X147137522Y-110583578D01*
X147232746Y-110699609D01*
X147303501Y-110831981D01*
X147303502Y-110831985D01*
X147347074Y-110975622D01*
X147358100Y-111087574D01*
X147358100Y-111873626D01*
X147347074Y-111985578D01*
X147314839Y-112091842D01*
X147303501Y-112129219D01*
X147232746Y-112261591D01*
X147232745Y-112261592D01*
X147137522Y-112377622D01*
X147039134Y-112458366D01*
X147021490Y-112472846D01*
X146889118Y-112543601D01*
X146851741Y-112554939D01*
X146745477Y-112587174D01*
X146596100Y-112601886D01*
X146446722Y-112587174D01*
X146340458Y-112554939D01*
X146303081Y-112543601D01*
X146170709Y-112472846D01*
X146149902Y-112455770D01*
X146054678Y-112377622D01*
X145959455Y-112261591D01*
X145959454Y-112261590D01*
X145888699Y-112129218D01*
X145877361Y-112091841D01*
X145845126Y-111985577D01*
X145834100Y-111873625D01*
X145834100Y-111087573D01*
X145845126Y-110975621D01*
X145888698Y-110831985D01*
X145959455Y-110699609D01*
X146054679Y-110583578D01*
X146170710Y-110488354D01*
X146303082Y-110417599D01*
X146340459Y-110406261D01*
X146446723Y-110374026D01*
X146596100Y-110359314D01*
X146745478Y-110374026D01*
X146745478Y-110374026D01*
G37*
G36*
X144205478Y-110374026D02*
G01*
X144311742Y-110406261D01*
X144349119Y-110417599D01*
X144481491Y-110488354D01*
X144597522Y-110583578D01*
X144692746Y-110699609D01*
X144763501Y-110831981D01*
X144763502Y-110831985D01*
X144807074Y-110975622D01*
X144818100Y-111087574D01*
X144818100Y-111873626D01*
X144807074Y-111985578D01*
X144774839Y-112091842D01*
X144763501Y-112129219D01*
X144692746Y-112261591D01*
X144692745Y-112261592D01*
X144597522Y-112377622D01*
X144499134Y-112458366D01*
X144481490Y-112472846D01*
X144349118Y-112543601D01*
X144311741Y-112554939D01*
X144205477Y-112587174D01*
X144056100Y-112601886D01*
X143906722Y-112587174D01*
X143800458Y-112554939D01*
X143763081Y-112543601D01*
X143630709Y-112472846D01*
X143609902Y-112455770D01*
X143514678Y-112377622D01*
X143419455Y-112261591D01*
X143419454Y-112261590D01*
X143348699Y-112129218D01*
X143337361Y-112091841D01*
X143305126Y-111985577D01*
X143294100Y-111873625D01*
X143294100Y-111087573D01*
X143305126Y-110975621D01*
X143348698Y-110831985D01*
X143419455Y-110699609D01*
X143514679Y-110583578D01*
X143630710Y-110488354D01*
X143763082Y-110417599D01*
X143800459Y-110406261D01*
X143906723Y-110374026D01*
X144056100Y-110359314D01*
X144205478Y-110374026D01*
X144205478Y-110374026D01*
G37*
G36*
X156905478Y-110374026D02*
G01*
X157011742Y-110406261D01*
X157049119Y-110417599D01*
X157181491Y-110488354D01*
X157297522Y-110583578D01*
X157392746Y-110699609D01*
X157463501Y-110831981D01*
X157463502Y-110831985D01*
X157507074Y-110975622D01*
X157518100Y-111087574D01*
X157518100Y-111873626D01*
X157507074Y-111985578D01*
X157474839Y-112091842D01*
X157463501Y-112129219D01*
X157392746Y-112261591D01*
X157392745Y-112261592D01*
X157297522Y-112377622D01*
X157199134Y-112458366D01*
X157181490Y-112472846D01*
X157049118Y-112543601D01*
X157011741Y-112554939D01*
X156905477Y-112587174D01*
X156756100Y-112601886D01*
X156606722Y-112587174D01*
X156500458Y-112554939D01*
X156463081Y-112543601D01*
X156330709Y-112472846D01*
X156309902Y-112455770D01*
X156214678Y-112377622D01*
X156119455Y-112261591D01*
X156119454Y-112261590D01*
X156048699Y-112129218D01*
X156037361Y-112091841D01*
X156005126Y-111985577D01*
X155994100Y-111873625D01*
X155994100Y-111087573D01*
X156005126Y-110975621D01*
X156048698Y-110831985D01*
X156119455Y-110699609D01*
X156214679Y-110583578D01*
X156330710Y-110488354D01*
X156463082Y-110417599D01*
X156500459Y-110406261D01*
X156606723Y-110374026D01*
X156756100Y-110359314D01*
X156905478Y-110374026D01*
X156905478Y-110374026D01*
G37*
G36*
X159445478Y-110374026D02*
G01*
X159551742Y-110406261D01*
X159589119Y-110417599D01*
X159721491Y-110488354D01*
X159837522Y-110583578D01*
X159932746Y-110699609D01*
X160003501Y-110831981D01*
X160003502Y-110831985D01*
X160047074Y-110975622D01*
X160058100Y-111087574D01*
X160058100Y-111873626D01*
X160047074Y-111985578D01*
X160014839Y-112091842D01*
X160003501Y-112129219D01*
X159932746Y-112261591D01*
X159932745Y-112261592D01*
X159837522Y-112377622D01*
X159739134Y-112458366D01*
X159721490Y-112472846D01*
X159589118Y-112543601D01*
X159551741Y-112554939D01*
X159445477Y-112587174D01*
X159296100Y-112601886D01*
X159146722Y-112587174D01*
X159040458Y-112554939D01*
X159003081Y-112543601D01*
X158870709Y-112472846D01*
X158849902Y-112455770D01*
X158754678Y-112377622D01*
X158659455Y-112261591D01*
X158659454Y-112261590D01*
X158588699Y-112129218D01*
X158577361Y-112091841D01*
X158545126Y-111985577D01*
X158534100Y-111873625D01*
X158534100Y-111087573D01*
X158545126Y-110975621D01*
X158588698Y-110831985D01*
X158659455Y-110699609D01*
X158754679Y-110583578D01*
X158870710Y-110488354D01*
X159003082Y-110417599D01*
X159040459Y-110406261D01*
X159146723Y-110374026D01*
X159296100Y-110359314D01*
X159445478Y-110374026D01*
X159445478Y-110374026D01*
G37*
G36*
X161985478Y-110374026D02*
G01*
X162091742Y-110406261D01*
X162129119Y-110417599D01*
X162261491Y-110488354D01*
X162377522Y-110583578D01*
X162472746Y-110699609D01*
X162543501Y-110831981D01*
X162543502Y-110831985D01*
X162587074Y-110975622D01*
X162598100Y-111087574D01*
X162598100Y-111873626D01*
X162587074Y-111985578D01*
X162554839Y-112091842D01*
X162543501Y-112129219D01*
X162472746Y-112261591D01*
X162472745Y-112261592D01*
X162377522Y-112377622D01*
X162279134Y-112458366D01*
X162261490Y-112472846D01*
X162129118Y-112543601D01*
X162091741Y-112554939D01*
X161985477Y-112587174D01*
X161836100Y-112601886D01*
X161686722Y-112587174D01*
X161580458Y-112554939D01*
X161543081Y-112543601D01*
X161410709Y-112472846D01*
X161389902Y-112455770D01*
X161294678Y-112377622D01*
X161199455Y-112261591D01*
X161199454Y-112261590D01*
X161128699Y-112129218D01*
X161117361Y-112091841D01*
X161085126Y-111985577D01*
X161074100Y-111873625D01*
X161074100Y-111087573D01*
X161085126Y-110975621D01*
X161128698Y-110831985D01*
X161199455Y-110699609D01*
X161294679Y-110583578D01*
X161410710Y-110488354D01*
X161543082Y-110417599D01*
X161580459Y-110406261D01*
X161686723Y-110374026D01*
X161836100Y-110359314D01*
X161985478Y-110374026D01*
X161985478Y-110374026D01*
G37*
G36*
X167065478Y-110374026D02*
G01*
X167171742Y-110406261D01*
X167209119Y-110417599D01*
X167341491Y-110488354D01*
X167457522Y-110583578D01*
X167552746Y-110699609D01*
X167623501Y-110831981D01*
X167623502Y-110831985D01*
X167667074Y-110975622D01*
X167678100Y-111087574D01*
X167678100Y-111873626D01*
X167667074Y-111985578D01*
X167634839Y-112091842D01*
X167623501Y-112129219D01*
X167552746Y-112261591D01*
X167552745Y-112261592D01*
X167457522Y-112377622D01*
X167359134Y-112458366D01*
X167341490Y-112472846D01*
X167209118Y-112543601D01*
X167171741Y-112554939D01*
X167065477Y-112587174D01*
X166916100Y-112601886D01*
X166766722Y-112587174D01*
X166660458Y-112554939D01*
X166623081Y-112543601D01*
X166490709Y-112472846D01*
X166469902Y-112455770D01*
X166374678Y-112377622D01*
X166279455Y-112261591D01*
X166279454Y-112261590D01*
X166208699Y-112129218D01*
X166197361Y-112091841D01*
X166165126Y-111985577D01*
X166154100Y-111873625D01*
X166154100Y-111087573D01*
X166165126Y-110975621D01*
X166208698Y-110831985D01*
X166279455Y-110699609D01*
X166374679Y-110583578D01*
X166490710Y-110488354D01*
X166623082Y-110417599D01*
X166660459Y-110406261D01*
X166766723Y-110374026D01*
X166916100Y-110359314D01*
X167065478Y-110374026D01*
X167065478Y-110374026D01*
G37*
G36*
X169605478Y-110374026D02*
G01*
X169711742Y-110406261D01*
X169749119Y-110417599D01*
X169881491Y-110488354D01*
X169997522Y-110583578D01*
X170092746Y-110699609D01*
X170163501Y-110831981D01*
X170163502Y-110831985D01*
X170207074Y-110975622D01*
X170218100Y-111087574D01*
X170218100Y-111873626D01*
X170207074Y-111985578D01*
X170174839Y-112091842D01*
X170163501Y-112129219D01*
X170092746Y-112261591D01*
X170092745Y-112261592D01*
X169997522Y-112377622D01*
X169899134Y-112458366D01*
X169881490Y-112472846D01*
X169749118Y-112543601D01*
X169711741Y-112554939D01*
X169605477Y-112587174D01*
X169456100Y-112601886D01*
X169306722Y-112587174D01*
X169200458Y-112554939D01*
X169163081Y-112543601D01*
X169030709Y-112472846D01*
X169009902Y-112455770D01*
X168914678Y-112377622D01*
X168819455Y-112261591D01*
X168819454Y-112261590D01*
X168748699Y-112129218D01*
X168737361Y-112091841D01*
X168705126Y-111985577D01*
X168694100Y-111873625D01*
X168694100Y-111087573D01*
X168705126Y-110975621D01*
X168748698Y-110831985D01*
X168819455Y-110699609D01*
X168914679Y-110583578D01*
X169030710Y-110488354D01*
X169163082Y-110417599D01*
X169200459Y-110406261D01*
X169306723Y-110374026D01*
X169456100Y-110359314D01*
X169605478Y-110374026D01*
X169605478Y-110374026D01*
G37*
G36*
X172145478Y-110374026D02*
G01*
X172251742Y-110406261D01*
X172289119Y-110417599D01*
X172421491Y-110488354D01*
X172537522Y-110583578D01*
X172632746Y-110699609D01*
X172703501Y-110831981D01*
X172703502Y-110831985D01*
X172747074Y-110975622D01*
X172758100Y-111087574D01*
X172758100Y-111873626D01*
X172747074Y-111985578D01*
X172714839Y-112091842D01*
X172703501Y-112129219D01*
X172632746Y-112261591D01*
X172632745Y-112261592D01*
X172537522Y-112377622D01*
X172439134Y-112458366D01*
X172421490Y-112472846D01*
X172289118Y-112543601D01*
X172251741Y-112554939D01*
X172145477Y-112587174D01*
X171996100Y-112601886D01*
X171846722Y-112587174D01*
X171740458Y-112554939D01*
X171703081Y-112543601D01*
X171570709Y-112472846D01*
X171549902Y-112455770D01*
X171454678Y-112377622D01*
X171359455Y-112261591D01*
X171359454Y-112261590D01*
X171288699Y-112129218D01*
X171277361Y-112091841D01*
X171245126Y-111985577D01*
X171234100Y-111873625D01*
X171234100Y-111087573D01*
X171245126Y-110975621D01*
X171288698Y-110831985D01*
X171359455Y-110699609D01*
X171454679Y-110583578D01*
X171570710Y-110488354D01*
X171703082Y-110417599D01*
X171740459Y-110406261D01*
X171846723Y-110374026D01*
X171996100Y-110359314D01*
X172145478Y-110374026D01*
X172145478Y-110374026D01*
G37*
G36*
X174685478Y-110374026D02*
G01*
X174791742Y-110406261D01*
X174829119Y-110417599D01*
X174961491Y-110488354D01*
X175077522Y-110583578D01*
X175172746Y-110699609D01*
X175243501Y-110831981D01*
X175243502Y-110831985D01*
X175287074Y-110975622D01*
X175298100Y-111087574D01*
X175298100Y-111873626D01*
X175287074Y-111985578D01*
X175254839Y-112091842D01*
X175243501Y-112129219D01*
X175172746Y-112261591D01*
X175172745Y-112261592D01*
X175077522Y-112377622D01*
X174979134Y-112458366D01*
X174961490Y-112472846D01*
X174829118Y-112543601D01*
X174791741Y-112554939D01*
X174685477Y-112587174D01*
X174536100Y-112601886D01*
X174386722Y-112587174D01*
X174280458Y-112554939D01*
X174243081Y-112543601D01*
X174110709Y-112472846D01*
X174089902Y-112455770D01*
X173994678Y-112377622D01*
X173899455Y-112261591D01*
X173899454Y-112261590D01*
X173828699Y-112129218D01*
X173817361Y-112091841D01*
X173785126Y-111985577D01*
X173774100Y-111873625D01*
X173774100Y-111087573D01*
X173785126Y-110975621D01*
X173828698Y-110831985D01*
X173899455Y-110699609D01*
X173994679Y-110583578D01*
X174110710Y-110488354D01*
X174243082Y-110417599D01*
X174280459Y-110406261D01*
X174386723Y-110374026D01*
X174536100Y-110359314D01*
X174685478Y-110374026D01*
X174685478Y-110374026D01*
G37*
G36*
X154365478Y-110374026D02*
G01*
X154471742Y-110406261D01*
X154509119Y-110417599D01*
X154641491Y-110488354D01*
X154757522Y-110583578D01*
X154852746Y-110699609D01*
X154923501Y-110831981D01*
X154923502Y-110831985D01*
X154967074Y-110975622D01*
X154978100Y-111087574D01*
X154978100Y-111873626D01*
X154967074Y-111985578D01*
X154934839Y-112091842D01*
X154923501Y-112129219D01*
X154852746Y-112261591D01*
X154852745Y-112261592D01*
X154757522Y-112377622D01*
X154659134Y-112458366D01*
X154641490Y-112472846D01*
X154509118Y-112543601D01*
X154471741Y-112554939D01*
X154365477Y-112587174D01*
X154216100Y-112601886D01*
X154066722Y-112587174D01*
X153960458Y-112554939D01*
X153923081Y-112543601D01*
X153790709Y-112472846D01*
X153769902Y-112455770D01*
X153674678Y-112377622D01*
X153579455Y-112261591D01*
X153579454Y-112261590D01*
X153508699Y-112129218D01*
X153497361Y-112091841D01*
X153465126Y-111985577D01*
X153454100Y-111873625D01*
X153454100Y-111087573D01*
X153465126Y-110975621D01*
X153508698Y-110831985D01*
X153579455Y-110699609D01*
X153674679Y-110583578D01*
X153790710Y-110488354D01*
X153923082Y-110417599D01*
X153960459Y-110406261D01*
X154066723Y-110374026D01*
X154216100Y-110359314D01*
X154365478Y-110374026D01*
X154365478Y-110374026D01*
G37*
G36*
X177225478Y-110374026D02*
G01*
X177331742Y-110406261D01*
X177369119Y-110417599D01*
X177501491Y-110488354D01*
X177617522Y-110583578D01*
X177712746Y-110699609D01*
X177783501Y-110831981D01*
X177783502Y-110831985D01*
X177827074Y-110975622D01*
X177838100Y-111087574D01*
X177838100Y-111873626D01*
X177827074Y-111985578D01*
X177794839Y-112091842D01*
X177783501Y-112129219D01*
X177712746Y-112261591D01*
X177712745Y-112261592D01*
X177617522Y-112377622D01*
X177519134Y-112458366D01*
X177501490Y-112472846D01*
X177369118Y-112543601D01*
X177331741Y-112554939D01*
X177225477Y-112587174D01*
X177076100Y-112601886D01*
X176926722Y-112587174D01*
X176820458Y-112554939D01*
X176783081Y-112543601D01*
X176650709Y-112472846D01*
X176629902Y-112455770D01*
X176534678Y-112377622D01*
X176439455Y-112261591D01*
X176439454Y-112261590D01*
X176368699Y-112129218D01*
X176357361Y-112091841D01*
X176325126Y-111985577D01*
X176314100Y-111873625D01*
X176314100Y-111087573D01*
X176325126Y-110975621D01*
X176368698Y-110831985D01*
X176439455Y-110699609D01*
X176534679Y-110583578D01*
X176650710Y-110488354D01*
X176783082Y-110417599D01*
X176820459Y-110406261D01*
X176926723Y-110374026D01*
X177076100Y-110359314D01*
X177225478Y-110374026D01*
X177225478Y-110374026D01*
G37*
G36*
X133222048Y-110149461D02*
G01*
X133306615Y-110175114D01*
X133384552Y-110216772D01*
X133452865Y-110272835D01*
X133508928Y-110341148D01*
X133550586Y-110419085D01*
X133576239Y-110503652D01*
X133584901Y-110591599D01*
X133584901Y-110591601D01*
X133576239Y-110679548D01*
X133550586Y-110764115D01*
X133508928Y-110842052D01*
X133452865Y-110910365D01*
X133384552Y-110966428D01*
X133306615Y-111008086D01*
X133222048Y-111033739D01*
X133134101Y-111042401D01*
X133134099Y-111042401D01*
X133046152Y-111033739D01*
X132961585Y-111008086D01*
X132883648Y-110966428D01*
X132815335Y-110910365D01*
X132759272Y-110842052D01*
X132717614Y-110764115D01*
X132691961Y-110679548D01*
X132683299Y-110591601D01*
X132683299Y-110591599D01*
X132691961Y-110503652D01*
X132717614Y-110419085D01*
X132759272Y-110341148D01*
X132815335Y-110272835D01*
X132883648Y-110216772D01*
X132961585Y-110175114D01*
X133046152Y-110149461D01*
X133134099Y-110140799D01*
X133134101Y-110140799D01*
X133222048Y-110149461D01*
X133222048Y-110149461D01*
G37*
G36*
X126364048Y-109768461D02*
G01*
X126448615Y-109794114D01*
X126526552Y-109835772D01*
X126594865Y-109891835D01*
X126650928Y-109960148D01*
X126692586Y-110038085D01*
X126718239Y-110122652D01*
X126726901Y-110210599D01*
X126726901Y-110210601D01*
X126718239Y-110298548D01*
X126692586Y-110383115D01*
X126650928Y-110461052D01*
X126594865Y-110529365D01*
X126526552Y-110585428D01*
X126448615Y-110627086D01*
X126364048Y-110652739D01*
X126276101Y-110661401D01*
X126276099Y-110661401D01*
X126188152Y-110652739D01*
X126103585Y-110627086D01*
X126025648Y-110585428D01*
X125957335Y-110529365D01*
X125901272Y-110461052D01*
X125859614Y-110383115D01*
X125833961Y-110298548D01*
X125825299Y-110210601D01*
X125825299Y-110210599D01*
X125833961Y-110122652D01*
X125859614Y-110038085D01*
X125901272Y-109960148D01*
X125957335Y-109891835D01*
X126025648Y-109835772D01*
X126103585Y-109794114D01*
X126188152Y-109768461D01*
X126276099Y-109759799D01*
X126276101Y-109759799D01*
X126364048Y-109768461D01*
X126364048Y-109768461D01*
G37*
G36*
X144271048Y-107863461D02*
G01*
X144355615Y-107889114D01*
X144433552Y-107930772D01*
X144501865Y-107986835D01*
X144557928Y-108055148D01*
X144599586Y-108133085D01*
X144625239Y-108217652D01*
X144633901Y-108305599D01*
X144633901Y-108305601D01*
X144625239Y-108393548D01*
X144599586Y-108478115D01*
X144557928Y-108556052D01*
X144501865Y-108624365D01*
X144433552Y-108680428D01*
X144355615Y-108722086D01*
X144271048Y-108747739D01*
X144183101Y-108756401D01*
X144183099Y-108756401D01*
X144095152Y-108747739D01*
X144010585Y-108722086D01*
X143932648Y-108680428D01*
X143864335Y-108624365D01*
X143808272Y-108556052D01*
X143766614Y-108478115D01*
X143740961Y-108393548D01*
X143732299Y-108305601D01*
X143732299Y-108305599D01*
X143740961Y-108217652D01*
X143766614Y-108133085D01*
X143808272Y-108055148D01*
X143864335Y-107986835D01*
X143932648Y-107930772D01*
X144010585Y-107889114D01*
X144095152Y-107863461D01*
X144183099Y-107854799D01*
X144183101Y-107854799D01*
X144271048Y-107863461D01*
X144271048Y-107863461D01*
G37*
G36*
X180618977Y-105479534D02*
G01*
X180769261Y-105541784D01*
X180769263Y-105541785D01*
X180904517Y-105632159D01*
X181019541Y-105747183D01*
X181109915Y-105882437D01*
X181109916Y-105882439D01*
X181172166Y-106032723D01*
X181203900Y-106192264D01*
X181203900Y-106354936D01*
X181172166Y-106514477D01*
X181109916Y-106664761D01*
X181109915Y-106664763D01*
X181019541Y-106800017D01*
X180904517Y-106915041D01*
X180769263Y-107005415D01*
X180769262Y-107005416D01*
X180769261Y-107005416D01*
X180618977Y-107067666D01*
X180459436Y-107099400D01*
X180296764Y-107099400D01*
X180137223Y-107067666D01*
X179986939Y-107005416D01*
X179986938Y-107005416D01*
X179986937Y-107005415D01*
X179851683Y-106915041D01*
X179736659Y-106800017D01*
X179646285Y-106664763D01*
X179646284Y-106664761D01*
X179584034Y-106514477D01*
X179552300Y-106354936D01*
X179552300Y-106192264D01*
X179584034Y-106032723D01*
X179646284Y-105882439D01*
X179646285Y-105882437D01*
X179736659Y-105747183D01*
X179851683Y-105632159D01*
X179986937Y-105541785D01*
X179986939Y-105541784D01*
X180137223Y-105479534D01*
X180296764Y-105447800D01*
X180459436Y-105447800D01*
X180618977Y-105479534D01*
X180618977Y-105479534D01*
G37*
G36*
X178078977Y-105479534D02*
G01*
X178229261Y-105541784D01*
X178229263Y-105541785D01*
X178364517Y-105632159D01*
X178479541Y-105747183D01*
X178569915Y-105882437D01*
X178569916Y-105882439D01*
X178632166Y-106032723D01*
X178663900Y-106192264D01*
X178663900Y-106354936D01*
X178632166Y-106514477D01*
X178569916Y-106664761D01*
X178569915Y-106664763D01*
X178479541Y-106800017D01*
X178364517Y-106915041D01*
X178229263Y-107005415D01*
X178229262Y-107005416D01*
X178229261Y-107005416D01*
X178078977Y-107067666D01*
X177919436Y-107099400D01*
X177756764Y-107099400D01*
X177597223Y-107067666D01*
X177446939Y-107005416D01*
X177446938Y-107005416D01*
X177446937Y-107005415D01*
X177311683Y-106915041D01*
X177196659Y-106800017D01*
X177106285Y-106664763D01*
X177106284Y-106664761D01*
X177044034Y-106514477D01*
X177012300Y-106354936D01*
X177012300Y-106192264D01*
X177044034Y-106032723D01*
X177106284Y-105882439D01*
X177106285Y-105882437D01*
X177196659Y-105747183D01*
X177311683Y-105632159D01*
X177446937Y-105541785D01*
X177446939Y-105541784D01*
X177597223Y-105479534D01*
X177756764Y-105447800D01*
X177919436Y-105447800D01*
X178078977Y-105479534D01*
X178078977Y-105479534D01*
G37*
G36*
X130767535Y-104639682D02*
G01*
X130853412Y-104656764D01*
X131015199Y-104723779D01*
X131160804Y-104821069D01*
X131284631Y-104944896D01*
X131381921Y-105090501D01*
X131448936Y-105252288D01*
X131483100Y-105424041D01*
X131483100Y-105599159D01*
X131448936Y-105770912D01*
X131381921Y-105932699D01*
X131284631Y-106078304D01*
X131160804Y-106202131D01*
X131015199Y-106299421D01*
X130853412Y-106366436D01*
X130767535Y-106383518D01*
X130681660Y-106400600D01*
X130506540Y-106400600D01*
X130334788Y-106366436D01*
X130173001Y-106299421D01*
X130027396Y-106202131D01*
X129903569Y-106078304D01*
X129806279Y-105932699D01*
X129739264Y-105770912D01*
X129705100Y-105599159D01*
X129705100Y-105424041D01*
X129739264Y-105252288D01*
X129806279Y-105090501D01*
X129903569Y-104944896D01*
X130027396Y-104821069D01*
X130173001Y-104723779D01*
X130334788Y-104656764D01*
X130506540Y-104622600D01*
X130681660Y-104622600D01*
X130767535Y-104639682D01*
X130767535Y-104639682D01*
G37*
G36*
X135847535Y-104639682D02*
G01*
X135933412Y-104656764D01*
X136095199Y-104723779D01*
X136240804Y-104821069D01*
X136364631Y-104944896D01*
X136461921Y-105090501D01*
X136528936Y-105252288D01*
X136563100Y-105424041D01*
X136563100Y-105599159D01*
X136528936Y-105770912D01*
X136461921Y-105932699D01*
X136364631Y-106078304D01*
X136240804Y-106202131D01*
X136095199Y-106299421D01*
X135933412Y-106366436D01*
X135847535Y-106383518D01*
X135761660Y-106400600D01*
X135586540Y-106400600D01*
X135414788Y-106366436D01*
X135253001Y-106299421D01*
X135107396Y-106202131D01*
X134983569Y-106078304D01*
X134886279Y-105932699D01*
X134819264Y-105770912D01*
X134785100Y-105599159D01*
X134785100Y-105424041D01*
X134819264Y-105252288D01*
X134886279Y-105090501D01*
X134983569Y-104944896D01*
X135107396Y-104821069D01*
X135253001Y-104723779D01*
X135414788Y-104656764D01*
X135586540Y-104622600D01*
X135761660Y-104622600D01*
X135847535Y-104639682D01*
X135847535Y-104639682D01*
G37*
G36*
X180618977Y-102939534D02*
G01*
X180769261Y-103001784D01*
X180769263Y-103001785D01*
X180904517Y-103092159D01*
X181019541Y-103207183D01*
X181019542Y-103207185D01*
X181109916Y-103342439D01*
X181172166Y-103492723D01*
X181203900Y-103652264D01*
X181203900Y-103814936D01*
X181172166Y-103974477D01*
X181109916Y-104124761D01*
X181109915Y-104124763D01*
X181019541Y-104260017D01*
X180904517Y-104375041D01*
X180769263Y-104465415D01*
X180769262Y-104465416D01*
X180769261Y-104465416D01*
X180618977Y-104527666D01*
X180459436Y-104559400D01*
X180296764Y-104559400D01*
X180137223Y-104527666D01*
X179986939Y-104465416D01*
X179986938Y-104465416D01*
X179986937Y-104465415D01*
X179851683Y-104375041D01*
X179736659Y-104260017D01*
X179646285Y-104124763D01*
X179646284Y-104124761D01*
X179584034Y-103974477D01*
X179552300Y-103814936D01*
X179552300Y-103652264D01*
X179584034Y-103492723D01*
X179646284Y-103342439D01*
X179736658Y-103207185D01*
X179736659Y-103207183D01*
X179851683Y-103092159D01*
X179986937Y-103001785D01*
X179986939Y-103001784D01*
X180137223Y-102939534D01*
X180296764Y-102907800D01*
X180459436Y-102907800D01*
X180618977Y-102939534D01*
X180618977Y-102939534D01*
G37*
G36*
X178078977Y-102939534D02*
G01*
X178229261Y-103001784D01*
X178229263Y-103001785D01*
X178364517Y-103092159D01*
X178479541Y-103207183D01*
X178479542Y-103207185D01*
X178569916Y-103342439D01*
X178632166Y-103492723D01*
X178663900Y-103652264D01*
X178663900Y-103814936D01*
X178632166Y-103974477D01*
X178569916Y-104124761D01*
X178569915Y-104124763D01*
X178479541Y-104260017D01*
X178364517Y-104375041D01*
X178229263Y-104465415D01*
X178229262Y-104465416D01*
X178229261Y-104465416D01*
X178078977Y-104527666D01*
X177919436Y-104559400D01*
X177756764Y-104559400D01*
X177597223Y-104527666D01*
X177446939Y-104465416D01*
X177446938Y-104465416D01*
X177446937Y-104465415D01*
X177311683Y-104375041D01*
X177196659Y-104260017D01*
X177106285Y-104124763D01*
X177106284Y-104124761D01*
X177044034Y-103974477D01*
X177012300Y-103814936D01*
X177012300Y-103652264D01*
X177044034Y-103492723D01*
X177106284Y-103342439D01*
X177196658Y-103207185D01*
X177196659Y-103207183D01*
X177311683Y-103092159D01*
X177446937Y-103001785D01*
X177446939Y-103001784D01*
X177597223Y-102939534D01*
X177756764Y-102907800D01*
X177919436Y-102907800D01*
X178078977Y-102939534D01*
X178078977Y-102939534D01*
G37*
G36*
X140207048Y-101386461D02*
G01*
X140291615Y-101412114D01*
X140369552Y-101453772D01*
X140437865Y-101509835D01*
X140493928Y-101578148D01*
X140535586Y-101656085D01*
X140561239Y-101740652D01*
X140569901Y-101828599D01*
X140569901Y-101828601D01*
X140561239Y-101916548D01*
X140535586Y-102001115D01*
X140493928Y-102079052D01*
X140437865Y-102147365D01*
X140369552Y-102203428D01*
X140291615Y-102245086D01*
X140207048Y-102270739D01*
X140119101Y-102279401D01*
X140119099Y-102279401D01*
X140031152Y-102270739D01*
X139946585Y-102245086D01*
X139868648Y-102203428D01*
X139800335Y-102147365D01*
X139744272Y-102079052D01*
X139702614Y-102001115D01*
X139676961Y-101916548D01*
X139668299Y-101828601D01*
X139668299Y-101828599D01*
X139676961Y-101740652D01*
X139702614Y-101656085D01*
X139744272Y-101578148D01*
X139800335Y-101509835D01*
X139868648Y-101453772D01*
X139946585Y-101412114D01*
X140031152Y-101386461D01*
X140119099Y-101377799D01*
X140119101Y-101377799D01*
X140207048Y-101386461D01*
X140207048Y-101386461D01*
G37*
G36*
X180618977Y-100399534D02*
G01*
X180769261Y-100461784D01*
X180769263Y-100461785D01*
X180904517Y-100552159D01*
X181019541Y-100667183D01*
X181109915Y-100802437D01*
X181109916Y-100802439D01*
X181172166Y-100952723D01*
X181203900Y-101112264D01*
X181203900Y-101274936D01*
X181172166Y-101434477D01*
X181116681Y-101568428D01*
X181109915Y-101584763D01*
X181019541Y-101720017D01*
X180904517Y-101835041D01*
X180769263Y-101925415D01*
X180769262Y-101925416D01*
X180769261Y-101925416D01*
X180618977Y-101987666D01*
X180459436Y-102019400D01*
X180296764Y-102019400D01*
X180137223Y-101987666D01*
X179986939Y-101925416D01*
X179986938Y-101925416D01*
X179986937Y-101925415D01*
X179851683Y-101835041D01*
X179736659Y-101720017D01*
X179646285Y-101584763D01*
X179639519Y-101568428D01*
X179584034Y-101434477D01*
X179552300Y-101274936D01*
X179552300Y-101112264D01*
X179584034Y-100952723D01*
X179646284Y-100802439D01*
X179646285Y-100802437D01*
X179736659Y-100667183D01*
X179851683Y-100552159D01*
X179986937Y-100461785D01*
X179986939Y-100461784D01*
X180137223Y-100399534D01*
X180296764Y-100367800D01*
X180459436Y-100367800D01*
X180618977Y-100399534D01*
X180618977Y-100399534D01*
G37*
G36*
X178078977Y-100399534D02*
G01*
X178229261Y-100461784D01*
X178229263Y-100461785D01*
X178364517Y-100552159D01*
X178479541Y-100667183D01*
X178569915Y-100802437D01*
X178569916Y-100802439D01*
X178632166Y-100952723D01*
X178663900Y-101112264D01*
X178663900Y-101274936D01*
X178632166Y-101434477D01*
X178576681Y-101568428D01*
X178569915Y-101584763D01*
X178479541Y-101720017D01*
X178364517Y-101835041D01*
X178229263Y-101925415D01*
X178229262Y-101925416D01*
X178229261Y-101925416D01*
X178078977Y-101987666D01*
X177919436Y-102019400D01*
X177756764Y-102019400D01*
X177597223Y-101987666D01*
X177446939Y-101925416D01*
X177446938Y-101925416D01*
X177446937Y-101925415D01*
X177311683Y-101835041D01*
X177196659Y-101720017D01*
X177106285Y-101584763D01*
X177099519Y-101568428D01*
X177044034Y-101434477D01*
X177012300Y-101274936D01*
X177012300Y-101112264D01*
X177044034Y-100952723D01*
X177106284Y-100802439D01*
X177106285Y-100802437D01*
X177196659Y-100667183D01*
X177311683Y-100552159D01*
X177446937Y-100461785D01*
X177446939Y-100461784D01*
X177597223Y-100399534D01*
X177756764Y-100367800D01*
X177919436Y-100367800D01*
X178078977Y-100399534D01*
X178078977Y-100399534D01*
G37*
G36*
X124205048Y-100370461D02*
G01*
X124289615Y-100396114D01*
X124367552Y-100437772D01*
X124435865Y-100493835D01*
X124491928Y-100562148D01*
X124533586Y-100640085D01*
X124559239Y-100724652D01*
X124567901Y-100812599D01*
X124567901Y-100812601D01*
X124559239Y-100900548D01*
X124533586Y-100985115D01*
X124491928Y-101063052D01*
X124435865Y-101131365D01*
X124367552Y-101187428D01*
X124289615Y-101229086D01*
X124205048Y-101254739D01*
X124117101Y-101263401D01*
X124117099Y-101263401D01*
X124029152Y-101254739D01*
X123944585Y-101229086D01*
X123866648Y-101187428D01*
X123798335Y-101131365D01*
X123742272Y-101063052D01*
X123700614Y-100985115D01*
X123674961Y-100900548D01*
X123666299Y-100812601D01*
X123666299Y-100812599D01*
X123674961Y-100724652D01*
X123700614Y-100640085D01*
X123742272Y-100562148D01*
X123798335Y-100493835D01*
X123866648Y-100437772D01*
X123944585Y-100396114D01*
X124029152Y-100370461D01*
X124117099Y-100361799D01*
X124117101Y-100361799D01*
X124205048Y-100370461D01*
X124205048Y-100370461D01*
G37*
G36*
X118504953Y-97978546D02*
G01*
X118806835Y-98103590D01*
X119078523Y-98285126D01*
X119309574Y-98516177D01*
X119491110Y-98787865D01*
X119616154Y-99089747D01*
X119679900Y-99410221D01*
X119679900Y-99736979D01*
X119616154Y-100057453D01*
X119491110Y-100359335D01*
X119309574Y-100631023D01*
X119078523Y-100862074D01*
X118806835Y-101043610D01*
X118504953Y-101168654D01*
X118184479Y-101232400D01*
X117857721Y-101232400D01*
X117537247Y-101168654D01*
X117235365Y-101043610D01*
X116963677Y-100862074D01*
X116732626Y-100631023D01*
X116551090Y-100359335D01*
X116426046Y-100057453D01*
X116362300Y-99736979D01*
X116362300Y-99410221D01*
X116426046Y-99089747D01*
X116551090Y-98787865D01*
X116732626Y-98516177D01*
X116963677Y-98285126D01*
X117235365Y-98103590D01*
X117537247Y-97978546D01*
X117857721Y-97914800D01*
X118184479Y-97914800D01*
X118504953Y-97978546D01*
X118504953Y-97978546D01*
G37*
G36*
X165353048Y-99227461D02*
G01*
X165437615Y-99253114D01*
X165515552Y-99294772D01*
X165583865Y-99350835D01*
X165639928Y-99419148D01*
X165681586Y-99497085D01*
X165707239Y-99581652D01*
X165715901Y-99669599D01*
X165715901Y-99669601D01*
X165707239Y-99757548D01*
X165681586Y-99842115D01*
X165639928Y-99920052D01*
X165583865Y-99988365D01*
X165515552Y-100044428D01*
X165437615Y-100086086D01*
X165353048Y-100111739D01*
X165265101Y-100120401D01*
X165265099Y-100120401D01*
X165177152Y-100111739D01*
X165092585Y-100086086D01*
X165014648Y-100044428D01*
X164946335Y-99988365D01*
X164890272Y-99920052D01*
X164848614Y-99842115D01*
X164822961Y-99757548D01*
X164814299Y-99669601D01*
X164814299Y-99669599D01*
X164822961Y-99581652D01*
X164848614Y-99497085D01*
X164890272Y-99419148D01*
X164946335Y-99350835D01*
X165014648Y-99294772D01*
X165092585Y-99253114D01*
X165177152Y-99227461D01*
X165265099Y-99218799D01*
X165265101Y-99218799D01*
X165353048Y-99227461D01*
X165353048Y-99227461D01*
G37*
G36*
X166750048Y-97068461D02*
G01*
X166834615Y-97094114D01*
X166912552Y-97135772D01*
X166980865Y-97191835D01*
X167036928Y-97260148D01*
X167078586Y-97338085D01*
X167104239Y-97422652D01*
X167112901Y-97510599D01*
X167112901Y-97510601D01*
X167104239Y-97598548D01*
X167078586Y-97683115D01*
X167036928Y-97761052D01*
X166980865Y-97829365D01*
X166912552Y-97885428D01*
X166834615Y-97927086D01*
X166750048Y-97952739D01*
X166662101Y-97961401D01*
X166662099Y-97961401D01*
X166574152Y-97952739D01*
X166489585Y-97927086D01*
X166411648Y-97885428D01*
X166343335Y-97829365D01*
X166287272Y-97761052D01*
X166245614Y-97683115D01*
X166219961Y-97598548D01*
X166211299Y-97510601D01*
X166211299Y-97510599D01*
X166219961Y-97422652D01*
X166245614Y-97338085D01*
X166287272Y-97260148D01*
X166343335Y-97191835D01*
X166411648Y-97135772D01*
X166489585Y-97094114D01*
X166574152Y-97068461D01*
X166662099Y-97059799D01*
X166662101Y-97059799D01*
X166750048Y-97068461D01*
X166750048Y-97068461D01*
G37*
G36*
X180626356Y-94504898D02*
G01*
X180732679Y-94526047D01*
X181033142Y-94650503D01*
X181303551Y-94831185D01*
X181533515Y-95061149D01*
X181714197Y-95331558D01*
X181838653Y-95632021D01*
X181854681Y-95712600D01*
X181902100Y-95950989D01*
X181902100Y-96276211D01*
X181883149Y-96371483D01*
X181838653Y-96595179D01*
X181714197Y-96895642D01*
X181533515Y-97166051D01*
X181303551Y-97396015D01*
X181033142Y-97576697D01*
X180732679Y-97701153D01*
X180626356Y-97722302D01*
X180413711Y-97764600D01*
X180088489Y-97764600D01*
X179875844Y-97722302D01*
X179769521Y-97701153D01*
X179469058Y-97576697D01*
X179198649Y-97396015D01*
X178968685Y-97166051D01*
X178788003Y-96895642D01*
X178663547Y-96595179D01*
X178619051Y-96371483D01*
X178600100Y-96276211D01*
X178600100Y-95950989D01*
X178647519Y-95712600D01*
X178663547Y-95632021D01*
X178788003Y-95331558D01*
X178968685Y-95061149D01*
X179198649Y-94831185D01*
X179469058Y-94650503D01*
X179769521Y-94526047D01*
X179875844Y-94504898D01*
X180088489Y-94462600D01*
X180413711Y-94462600D01*
X180626356Y-94504898D01*
X180626356Y-94504898D01*
G37*
G36*
X170941048Y-96179461D02*
G01*
X171025615Y-96205114D01*
X171103552Y-96246772D01*
X171171865Y-96302835D01*
X171227928Y-96371148D01*
X171269586Y-96449085D01*
X171295239Y-96533652D01*
X171303901Y-96621599D01*
X171303901Y-96621601D01*
X171295239Y-96709548D01*
X171269586Y-96794115D01*
X171227928Y-96872052D01*
X171171865Y-96940365D01*
X171103552Y-96996428D01*
X171025615Y-97038086D01*
X170941048Y-97063739D01*
X170853101Y-97072401D01*
X170853099Y-97072401D01*
X170765152Y-97063739D01*
X170680585Y-97038086D01*
X170602648Y-96996428D01*
X170534335Y-96940365D01*
X170478272Y-96872052D01*
X170436614Y-96794115D01*
X170410961Y-96709548D01*
X170402299Y-96621601D01*
X170402299Y-96621599D01*
X170410961Y-96533652D01*
X170436614Y-96449085D01*
X170478272Y-96371148D01*
X170534335Y-96302835D01*
X170602648Y-96246772D01*
X170680585Y-96205114D01*
X170765152Y-96179461D01*
X170853099Y-96170799D01*
X170853101Y-96170799D01*
X170941048Y-96179461D01*
X170941048Y-96179461D01*
G37*
G36*
X145668048Y-95544461D02*
G01*
X145752615Y-95570114D01*
X145830552Y-95611772D01*
X145898865Y-95667835D01*
X145954928Y-95736148D01*
X145996586Y-95814085D01*
X146022239Y-95898652D01*
X146030901Y-95986599D01*
X146030901Y-95986601D01*
X146022239Y-96074548D01*
X145996586Y-96159115D01*
X145954928Y-96237052D01*
X145898865Y-96305365D01*
X145830552Y-96361428D01*
X145752615Y-96403086D01*
X145668048Y-96428739D01*
X145580101Y-96437401D01*
X145580099Y-96437401D01*
X145492152Y-96428739D01*
X145407585Y-96403086D01*
X145329648Y-96361428D01*
X145261335Y-96305365D01*
X145205272Y-96237052D01*
X145163614Y-96159115D01*
X145137961Y-96074548D01*
X145129299Y-95986601D01*
X145129299Y-95986599D01*
X145137961Y-95898652D01*
X145163614Y-95814085D01*
X145205272Y-95736148D01*
X145261335Y-95667835D01*
X145329648Y-95611772D01*
X145407585Y-95570114D01*
X145492152Y-95544461D01*
X145580099Y-95535799D01*
X145580101Y-95535799D01*
X145668048Y-95544461D01*
X145668048Y-95544461D01*
G37*
G36*
X120990412Y-93968764D02*
G01*
X121152199Y-94035779D01*
X121297804Y-94133069D01*
X121421631Y-94256896D01*
X121512438Y-94392799D01*
X121518922Y-94402503D01*
X121585936Y-94564289D01*
X121608503Y-94677739D01*
X121615616Y-94701188D01*
X121627167Y-94722799D01*
X121642713Y-94741741D01*
X121661655Y-94757286D01*
X121683265Y-94768837D01*
X121706714Y-94775950D01*
X121731100Y-94778352D01*
X121755486Y-94775950D01*
X121778935Y-94768837D01*
X121800546Y-94757286D01*
X121819488Y-94741740D01*
X121835033Y-94722798D01*
X121846584Y-94701188D01*
X121853697Y-94677739D01*
X121876264Y-94564289D01*
X121943278Y-94402503D01*
X121949762Y-94392799D01*
X122040569Y-94256896D01*
X122164396Y-94133069D01*
X122310001Y-94035779D01*
X122471788Y-93968764D01*
X122643540Y-93934600D01*
X122818660Y-93934600D01*
X122990412Y-93968764D01*
X123152199Y-94035779D01*
X123297804Y-94133069D01*
X123421631Y-94256896D01*
X123512438Y-94392799D01*
X123518922Y-94402503D01*
X123585936Y-94564289D01*
X123620100Y-94736040D01*
X123620100Y-94911160D01*
X123613167Y-94946012D01*
X123585936Y-95082912D01*
X123518921Y-95244699D01*
X123421631Y-95390304D01*
X123297804Y-95514131D01*
X123152199Y-95611421D01*
X122990412Y-95678436D01*
X122818660Y-95712600D01*
X122643540Y-95712600D01*
X122471788Y-95678436D01*
X122310001Y-95611421D01*
X122164396Y-95514131D01*
X122040569Y-95390304D01*
X121943279Y-95244699D01*
X121876264Y-95082912D01*
X121853697Y-94969461D01*
X121846584Y-94946012D01*
X121835033Y-94924401D01*
X121819487Y-94905459D01*
X121800545Y-94889914D01*
X121778935Y-94878363D01*
X121755486Y-94871250D01*
X121731100Y-94868848D01*
X121706714Y-94871250D01*
X121683265Y-94878363D01*
X121661654Y-94889914D01*
X121642712Y-94905460D01*
X121627167Y-94924402D01*
X121615616Y-94946012D01*
X121608503Y-94969461D01*
X121585936Y-95082912D01*
X121518921Y-95244699D01*
X121421631Y-95390304D01*
X121297804Y-95514131D01*
X121152199Y-95611421D01*
X120990412Y-95678436D01*
X120818660Y-95712600D01*
X120643540Y-95712600D01*
X120471788Y-95678436D01*
X120310001Y-95611421D01*
X120164396Y-95514131D01*
X120040569Y-95390304D01*
X119943279Y-95244699D01*
X119943278Y-95244697D01*
X119940337Y-95240296D01*
X119933760Y-95227988D01*
X119918219Y-95209048D01*
X119861335Y-95162365D01*
X119805272Y-95094052D01*
X119763614Y-95016115D01*
X119737961Y-94931548D01*
X119729299Y-94843601D01*
X119729299Y-94843599D01*
X119737961Y-94755652D01*
X119763614Y-94671085D01*
X119805272Y-94593148D01*
X119861335Y-94524835D01*
X119888365Y-94502652D01*
X119901346Y-94489671D01*
X119920204Y-94458208D01*
X119943278Y-94402503D01*
X119949762Y-94392799D01*
X120040569Y-94256896D01*
X120164396Y-94133069D01*
X120310001Y-94035779D01*
X120471788Y-93968764D01*
X120643540Y-93934600D01*
X120818660Y-93934600D01*
X120990412Y-93968764D01*
X120990412Y-93968764D01*
G37*
G36*
X145668048Y-92496461D02*
G01*
X145752615Y-92522114D01*
X145830552Y-92563772D01*
X145898865Y-92619835D01*
X145954928Y-92688148D01*
X145996586Y-92766085D01*
X146022239Y-92850652D01*
X146030901Y-92938599D01*
X146030901Y-92938601D01*
X146022239Y-93026548D01*
X145996586Y-93111115D01*
X145954928Y-93189052D01*
X145898865Y-93257365D01*
X145830552Y-93313428D01*
X145752615Y-93355086D01*
X145668048Y-93380739D01*
X145580101Y-93389401D01*
X145580099Y-93389401D01*
X145492152Y-93380739D01*
X145407585Y-93355086D01*
X145329648Y-93313428D01*
X145261335Y-93257365D01*
X145205272Y-93189052D01*
X145163614Y-93111115D01*
X145137961Y-93026548D01*
X145129299Y-92938601D01*
X145129299Y-92938599D01*
X145137961Y-92850652D01*
X145163614Y-92766085D01*
X145205272Y-92688148D01*
X145261335Y-92619835D01*
X145329648Y-92563772D01*
X145407585Y-92522114D01*
X145492152Y-92496461D01*
X145580099Y-92487799D01*
X145580101Y-92487799D01*
X145668048Y-92496461D01*
X145668048Y-92496461D01*
G37*
G36*
X120904535Y-91451682D02*
G01*
X120990412Y-91468764D01*
X121152199Y-91535779D01*
X121297804Y-91633069D01*
X121421631Y-91756896D01*
X121518921Y-91902501D01*
X121518922Y-91902503D01*
X121529803Y-91928772D01*
X121581322Y-92053148D01*
X121585936Y-92064289D01*
X121608503Y-92177739D01*
X121615616Y-92201188D01*
X121627167Y-92222799D01*
X121642713Y-92241741D01*
X121661655Y-92257286D01*
X121683265Y-92268837D01*
X121706714Y-92275950D01*
X121731100Y-92278352D01*
X121755486Y-92275950D01*
X121778935Y-92268837D01*
X121800546Y-92257286D01*
X121819488Y-92241740D01*
X121835033Y-92222798D01*
X121846584Y-92201188D01*
X121853697Y-92177739D01*
X121876264Y-92064289D01*
X121880879Y-92053148D01*
X121932397Y-91928772D01*
X121943278Y-91902503D01*
X121943279Y-91902501D01*
X122040569Y-91756896D01*
X122164396Y-91633069D01*
X122310001Y-91535779D01*
X122471788Y-91468764D01*
X122643540Y-91434600D01*
X122818660Y-91434600D01*
X122904535Y-91451682D01*
X122990412Y-91468764D01*
X123152199Y-91535779D01*
X123297804Y-91633069D01*
X123421631Y-91756896D01*
X123518921Y-91902501D01*
X123518922Y-91902503D01*
X123529803Y-91928772D01*
X123581322Y-92053148D01*
X123585936Y-92064289D01*
X123616045Y-92215652D01*
X123620100Y-92236041D01*
X123620100Y-92411159D01*
X123585936Y-92582912D01*
X123518921Y-92744699D01*
X123421631Y-92890304D01*
X123297804Y-93014131D01*
X123152199Y-93111421D01*
X122990412Y-93178436D01*
X122938726Y-93188717D01*
X122818660Y-93212600D01*
X122643540Y-93212600D01*
X122523474Y-93188717D01*
X122471788Y-93178436D01*
X122310001Y-93111421D01*
X122164396Y-93014131D01*
X122040569Y-92890304D01*
X121943279Y-92744699D01*
X121876264Y-92582912D01*
X121853697Y-92469461D01*
X121846584Y-92446012D01*
X121835033Y-92424401D01*
X121819487Y-92405459D01*
X121800545Y-92389914D01*
X121778935Y-92378363D01*
X121755486Y-92371250D01*
X121731100Y-92368848D01*
X121706714Y-92371250D01*
X121683265Y-92378363D01*
X121661654Y-92389914D01*
X121642712Y-92405460D01*
X121627167Y-92424402D01*
X121615616Y-92446012D01*
X121608503Y-92469461D01*
X121585936Y-92582912D01*
X121518921Y-92744699D01*
X121421631Y-92890304D01*
X121297804Y-93014131D01*
X121152199Y-93111421D01*
X120990412Y-93178436D01*
X120938726Y-93188717D01*
X120818660Y-93212600D01*
X120643540Y-93212600D01*
X120523474Y-93188717D01*
X120471788Y-93178436D01*
X120310001Y-93111421D01*
X120164396Y-93014131D01*
X120040569Y-92890304D01*
X119943279Y-92744699D01*
X119920204Y-92688992D01*
X119908653Y-92667381D01*
X119886776Y-92643244D01*
X119861335Y-92622365D01*
X119805272Y-92554052D01*
X119763614Y-92476115D01*
X119737961Y-92391548D01*
X119729299Y-92303601D01*
X119729299Y-92303599D01*
X119737961Y-92215652D01*
X119763614Y-92131085D01*
X119805272Y-92053148D01*
X119861335Y-91984835D01*
X119913470Y-91942049D01*
X119926447Y-91929072D01*
X119940061Y-91908697D01*
X119942294Y-91903976D01*
X119943278Y-91902503D01*
X119943279Y-91902501D01*
X120040569Y-91756896D01*
X120164396Y-91633069D01*
X120310001Y-91535779D01*
X120471788Y-91468764D01*
X120643540Y-91434600D01*
X120818660Y-91434600D01*
X120904535Y-91451682D01*
X120904535Y-91451682D01*
G37*
G36*
X132758412Y-90940764D02*
G01*
X132920199Y-91007779D01*
X133065804Y-91105069D01*
X133189631Y-91228896D01*
X133286921Y-91374501D01*
X133353936Y-91536288D01*
X133388100Y-91708041D01*
X133388100Y-91883159D01*
X133353936Y-92054912D01*
X133286921Y-92216699D01*
X133189631Y-92362304D01*
X133065804Y-92486131D01*
X132920199Y-92583421D01*
X132758412Y-92650436D01*
X132673224Y-92667381D01*
X132586660Y-92684600D01*
X132411540Y-92684600D01*
X132324976Y-92667381D01*
X132239788Y-92650436D01*
X132078001Y-92583421D01*
X131932396Y-92486131D01*
X131808569Y-92362304D01*
X131711279Y-92216699D01*
X131644264Y-92054912D01*
X131610100Y-91883159D01*
X131610100Y-91708041D01*
X131644264Y-91536288D01*
X131711279Y-91374501D01*
X131808569Y-91228896D01*
X131932396Y-91105069D01*
X132078001Y-91007779D01*
X132239788Y-90940764D01*
X132325665Y-90923682D01*
X132411540Y-90906600D01*
X132586660Y-90906600D01*
X132758412Y-90940764D01*
X132758412Y-90940764D01*
G37*
G36*
X135298412Y-90940764D02*
G01*
X135460199Y-91007779D01*
X135605804Y-91105069D01*
X135729631Y-91228896D01*
X135826921Y-91374501D01*
X135893936Y-91536288D01*
X135928100Y-91708041D01*
X135928100Y-91883159D01*
X135893936Y-92054912D01*
X135826921Y-92216699D01*
X135729631Y-92362304D01*
X135605804Y-92486131D01*
X135460199Y-92583421D01*
X135298412Y-92650436D01*
X135213224Y-92667381D01*
X135126660Y-92684600D01*
X134951540Y-92684600D01*
X134864976Y-92667381D01*
X134779788Y-92650436D01*
X134618001Y-92583421D01*
X134472396Y-92486131D01*
X134348569Y-92362304D01*
X134251279Y-92216699D01*
X134184264Y-92054912D01*
X134150100Y-91883159D01*
X134150100Y-91708041D01*
X134184264Y-91536288D01*
X134251279Y-91374501D01*
X134348569Y-91228896D01*
X134472396Y-91105069D01*
X134618001Y-91007779D01*
X134779788Y-90940764D01*
X134865665Y-90923682D01*
X134951540Y-90906600D01*
X135126660Y-90906600D01*
X135298412Y-90940764D01*
X135298412Y-90940764D01*
G37*
G36*
X127038100Y-91884500D02*
G01*
X125768100Y-91884500D01*
X125768100Y-90182700D01*
X127038100Y-90182700D01*
X127038100Y-91884500D01*
X127038100Y-91884500D01*
G37*
G36*
X125514100Y-91884500D02*
G01*
X124244100Y-91884500D01*
X124244100Y-90182700D01*
X125514100Y-90182700D01*
X125514100Y-91884500D01*
X125514100Y-91884500D01*
G37*
G36*
X129285048Y-89321461D02*
G01*
X129369615Y-89347114D01*
X129447552Y-89388772D01*
X129515865Y-89444835D01*
X129571928Y-89513148D01*
X129613586Y-89591085D01*
X129639239Y-89675652D01*
X129647901Y-89763599D01*
X129647901Y-89763601D01*
X129639239Y-89851548D01*
X129613586Y-89936115D01*
X129571928Y-90014052D01*
X129515865Y-90082365D01*
X129447552Y-90138428D01*
X129369615Y-90180086D01*
X129285048Y-90205739D01*
X129197101Y-90214401D01*
X129197099Y-90214401D01*
X129109152Y-90205739D01*
X129024585Y-90180086D01*
X128946648Y-90138428D01*
X128878335Y-90082365D01*
X128822272Y-90014052D01*
X128780614Y-89936115D01*
X128754961Y-89851548D01*
X128746299Y-89763601D01*
X128746299Y-89763599D01*
X128754961Y-89675652D01*
X128780614Y-89591085D01*
X128822272Y-89513148D01*
X128878335Y-89444835D01*
X128946648Y-89388772D01*
X129024585Y-89347114D01*
X129109152Y-89321461D01*
X129197099Y-89312799D01*
X129197101Y-89312799D01*
X129285048Y-89321461D01*
X129285048Y-89321461D01*
G37*
G36*
X135298412Y-88400764D02*
G01*
X135376366Y-88433054D01*
X135438216Y-88458673D01*
X135460199Y-88467779D01*
X135605804Y-88565069D01*
X135729631Y-88688896D01*
X135826921Y-88834501D01*
X135893936Y-88996288D01*
X135928100Y-89168041D01*
X135928100Y-89343159D01*
X135893936Y-89514912D01*
X135826921Y-89676699D01*
X135729631Y-89822304D01*
X135605804Y-89946131D01*
X135460199Y-90043421D01*
X135298412Y-90110436D01*
X135212535Y-90127518D01*
X135126660Y-90144600D01*
X134951540Y-90144600D01*
X134865665Y-90127518D01*
X134779788Y-90110436D01*
X134618001Y-90043421D01*
X134472396Y-89946131D01*
X134348569Y-89822304D01*
X134251279Y-89676699D01*
X134184264Y-89514912D01*
X134150100Y-89343159D01*
X134150100Y-89168041D01*
X134184264Y-88996288D01*
X134251279Y-88834501D01*
X134348569Y-88688896D01*
X134472396Y-88565069D01*
X134618001Y-88467779D01*
X134639985Y-88458673D01*
X134701834Y-88433054D01*
X134779788Y-88400764D01*
X134951540Y-88366600D01*
X135126660Y-88366600D01*
X135298412Y-88400764D01*
X135298412Y-88400764D01*
G37*
G36*
X132758412Y-88400764D02*
G01*
X132836366Y-88433054D01*
X132898216Y-88458673D01*
X132920199Y-88467779D01*
X133065804Y-88565069D01*
X133189631Y-88688896D01*
X133286921Y-88834501D01*
X133353936Y-88996288D01*
X133388100Y-89168041D01*
X133388100Y-89343159D01*
X133353936Y-89514912D01*
X133286921Y-89676699D01*
X133189631Y-89822304D01*
X133065804Y-89946131D01*
X132920199Y-90043421D01*
X132758412Y-90110436D01*
X132672535Y-90127518D01*
X132586660Y-90144600D01*
X132411540Y-90144600D01*
X132325665Y-90127518D01*
X132239788Y-90110436D01*
X132078001Y-90043421D01*
X131932396Y-89946131D01*
X131808569Y-89822304D01*
X131711279Y-89676699D01*
X131644264Y-89514912D01*
X131610100Y-89343159D01*
X131610100Y-89168041D01*
X131644264Y-88996288D01*
X131711279Y-88834501D01*
X131808569Y-88688896D01*
X131932396Y-88565069D01*
X132078001Y-88467779D01*
X132099985Y-88458673D01*
X132161834Y-88433054D01*
X132239788Y-88400764D01*
X132411540Y-88366600D01*
X132586660Y-88366600D01*
X132758412Y-88400764D01*
X132758412Y-88400764D01*
G37*
G36*
X123316048Y-88432461D02*
G01*
X123400615Y-88458114D01*
X123478552Y-88499772D01*
X123546865Y-88555835D01*
X123602928Y-88624148D01*
X123644586Y-88702085D01*
X123670239Y-88786652D01*
X123678901Y-88874599D01*
X123678901Y-88874601D01*
X123670239Y-88962548D01*
X123644586Y-89047115D01*
X123602928Y-89125052D01*
X123546865Y-89193365D01*
X123478552Y-89249428D01*
X123400615Y-89291086D01*
X123316048Y-89316739D01*
X123228101Y-89325401D01*
X123228099Y-89325401D01*
X123140152Y-89316739D01*
X123055585Y-89291086D01*
X122977648Y-89249428D01*
X122909335Y-89193365D01*
X122853272Y-89125052D01*
X122811614Y-89047115D01*
X122785961Y-88962548D01*
X122777299Y-88874601D01*
X122777299Y-88874599D01*
X122785961Y-88786652D01*
X122811614Y-88702085D01*
X122853272Y-88624148D01*
X122909335Y-88555835D01*
X122977648Y-88499772D01*
X123055585Y-88458114D01*
X123140152Y-88432461D01*
X123228099Y-88423799D01*
X123228101Y-88423799D01*
X123316048Y-88432461D01*
X123316048Y-88432461D01*
G37*
G36*
X118504953Y-85978546D02*
G01*
X118806835Y-86103590D01*
X119078523Y-86285126D01*
X119309574Y-86516177D01*
X119491110Y-86787865D01*
X119616154Y-87089747D01*
X119679900Y-87410221D01*
X119679900Y-87736979D01*
X119616154Y-88057453D01*
X119491110Y-88359335D01*
X119309574Y-88631023D01*
X119078523Y-88862074D01*
X118806835Y-89043610D01*
X118504953Y-89168654D01*
X118184479Y-89232400D01*
X117857721Y-89232400D01*
X117537247Y-89168654D01*
X117235365Y-89043610D01*
X116963677Y-88862074D01*
X116732626Y-88631023D01*
X116551090Y-88359335D01*
X116426046Y-88057453D01*
X116362300Y-87736979D01*
X116362300Y-87410221D01*
X116426046Y-87089747D01*
X116551090Y-86787865D01*
X116732626Y-86516177D01*
X116963677Y-86285126D01*
X117235365Y-86103590D01*
X117537247Y-85978546D01*
X117857721Y-85914800D01*
X118184479Y-85914800D01*
X118504953Y-85978546D01*
X118504953Y-85978546D01*
G37*
G36*
X139826048Y-88051461D02*
G01*
X139910615Y-88077114D01*
X139988552Y-88118772D01*
X140056865Y-88174835D01*
X140112928Y-88243148D01*
X140154586Y-88321085D01*
X140180239Y-88405652D01*
X140188901Y-88493599D01*
X140188901Y-88493601D01*
X140180239Y-88581548D01*
X140154586Y-88666115D01*
X140112928Y-88744052D01*
X140056865Y-88812365D01*
X139988552Y-88868428D01*
X139910615Y-88910086D01*
X139826048Y-88935739D01*
X139738101Y-88944401D01*
X139738099Y-88944401D01*
X139650152Y-88935739D01*
X139565585Y-88910086D01*
X139487648Y-88868428D01*
X139419335Y-88812365D01*
X139363272Y-88744052D01*
X139321614Y-88666115D01*
X139295961Y-88581548D01*
X139287299Y-88493601D01*
X139287299Y-88493599D01*
X139295961Y-88405652D01*
X139321614Y-88321085D01*
X139363272Y-88243148D01*
X139419335Y-88174835D01*
X139487648Y-88118772D01*
X139565585Y-88077114D01*
X139650152Y-88051461D01*
X139738099Y-88042799D01*
X139738101Y-88042799D01*
X139826048Y-88051461D01*
X139826048Y-88051461D01*
G37*
G36*
X130199977Y-85921534D02*
G01*
X130350261Y-85983784D01*
X130350263Y-85983785D01*
X130485517Y-86074159D01*
X130600541Y-86189183D01*
X130690915Y-86324437D01*
X130690916Y-86324439D01*
X130753166Y-86474723D01*
X130784900Y-86634264D01*
X130784900Y-86796936D01*
X130753166Y-86956477D01*
X130697964Y-87089746D01*
X130690915Y-87106763D01*
X130600541Y-87242017D01*
X130485517Y-87357041D01*
X130350263Y-87447415D01*
X130350262Y-87447416D01*
X130350261Y-87447416D01*
X130199977Y-87509666D01*
X130040436Y-87541400D01*
X129877764Y-87541400D01*
X129718223Y-87509666D01*
X129567939Y-87447416D01*
X129567938Y-87447416D01*
X129567937Y-87447415D01*
X129432683Y-87357041D01*
X129317659Y-87242017D01*
X129227285Y-87106763D01*
X129220236Y-87089746D01*
X129165034Y-86956477D01*
X129133300Y-86796936D01*
X129133300Y-86634264D01*
X129165034Y-86474723D01*
X129227284Y-86324439D01*
X129227285Y-86324437D01*
X129317659Y-86189183D01*
X129432683Y-86074159D01*
X129567937Y-85983785D01*
X129567939Y-85983784D01*
X129718223Y-85921534D01*
X129877764Y-85889800D01*
X130040436Y-85889800D01*
X130199977Y-85921534D01*
X130199977Y-85921534D01*
G37*
G36*
X135279977Y-85921534D02*
G01*
X135430261Y-85983784D01*
X135430263Y-85983785D01*
X135565517Y-86074159D01*
X135680541Y-86189183D01*
X135770915Y-86324437D01*
X135770916Y-86324439D01*
X135833166Y-86474723D01*
X135864900Y-86634264D01*
X135864900Y-86796936D01*
X135833166Y-86956477D01*
X135777964Y-87089746D01*
X135770915Y-87106763D01*
X135680541Y-87242017D01*
X135565517Y-87357041D01*
X135430263Y-87447415D01*
X135430262Y-87447416D01*
X135430261Y-87447416D01*
X135279977Y-87509666D01*
X135120436Y-87541400D01*
X134957764Y-87541400D01*
X134798223Y-87509666D01*
X134647939Y-87447416D01*
X134647938Y-87447416D01*
X134647937Y-87447415D01*
X134512683Y-87357041D01*
X134397659Y-87242017D01*
X134307285Y-87106763D01*
X134300236Y-87089746D01*
X134245034Y-86956477D01*
X134213300Y-86796936D01*
X134213300Y-86634264D01*
X134245034Y-86474723D01*
X134307284Y-86324439D01*
X134307285Y-86324437D01*
X134397659Y-86189183D01*
X134512683Y-86074159D01*
X134647937Y-85983785D01*
X134647939Y-85983784D01*
X134798223Y-85921534D01*
X134957764Y-85889800D01*
X135120436Y-85889800D01*
X135279977Y-85921534D01*
X135279977Y-85921534D01*
G37*
G36*
X132739977Y-85921534D02*
G01*
X132890261Y-85983784D01*
X132890263Y-85983785D01*
X133025517Y-86074159D01*
X133140541Y-86189183D01*
X133230915Y-86324437D01*
X133230916Y-86324439D01*
X133293166Y-86474723D01*
X133324900Y-86634264D01*
X133324900Y-86796936D01*
X133293166Y-86956477D01*
X133237964Y-87089746D01*
X133230915Y-87106763D01*
X133140541Y-87242017D01*
X133025517Y-87357041D01*
X132890263Y-87447415D01*
X132890262Y-87447416D01*
X132890261Y-87447416D01*
X132739977Y-87509666D01*
X132580436Y-87541400D01*
X132417764Y-87541400D01*
X132258223Y-87509666D01*
X132107939Y-87447416D01*
X132107938Y-87447416D01*
X132107937Y-87447415D01*
X131972683Y-87357041D01*
X131857659Y-87242017D01*
X131767285Y-87106763D01*
X131760236Y-87089746D01*
X131705034Y-86956477D01*
X131673300Y-86796936D01*
X131673300Y-86634264D01*
X131705034Y-86474723D01*
X131767284Y-86324439D01*
X131767285Y-86324437D01*
X131857659Y-86189183D01*
X131972683Y-86074159D01*
X132107937Y-85983785D01*
X132107939Y-85983784D01*
X132258223Y-85921534D01*
X132417764Y-85889800D01*
X132580436Y-85889800D01*
X132739977Y-85921534D01*
X132739977Y-85921534D01*
G37*
G36*
X135279977Y-83381534D02*
G01*
X135430261Y-83443784D01*
X135430263Y-83443785D01*
X135565517Y-83534159D01*
X135680541Y-83649183D01*
X135770915Y-83784437D01*
X135770916Y-83784439D01*
X135833166Y-83934723D01*
X135864900Y-84094264D01*
X135864900Y-84256936D01*
X135833166Y-84416477D01*
X135777681Y-84550428D01*
X135770915Y-84566763D01*
X135680541Y-84702017D01*
X135565517Y-84817041D01*
X135430263Y-84907415D01*
X135430262Y-84907416D01*
X135430261Y-84907416D01*
X135279977Y-84969666D01*
X135120436Y-85001400D01*
X134957764Y-85001400D01*
X134798223Y-84969666D01*
X134647939Y-84907416D01*
X134647938Y-84907416D01*
X134647937Y-84907415D01*
X134512683Y-84817041D01*
X134397659Y-84702017D01*
X134307285Y-84566763D01*
X134300519Y-84550428D01*
X134245034Y-84416477D01*
X134213300Y-84256936D01*
X134213300Y-84094264D01*
X134245034Y-83934723D01*
X134307284Y-83784439D01*
X134307285Y-83784437D01*
X134397659Y-83649183D01*
X134512683Y-83534159D01*
X134647937Y-83443785D01*
X134647939Y-83443784D01*
X134798223Y-83381534D01*
X134957764Y-83349800D01*
X135120436Y-83349800D01*
X135279977Y-83381534D01*
X135279977Y-83381534D01*
G37*
G36*
X130199977Y-83381534D02*
G01*
X130350261Y-83443784D01*
X130350263Y-83443785D01*
X130485517Y-83534159D01*
X130600541Y-83649183D01*
X130690915Y-83784437D01*
X130690916Y-83784439D01*
X130753166Y-83934723D01*
X130784900Y-84094264D01*
X130784900Y-84256936D01*
X130753166Y-84416477D01*
X130697681Y-84550428D01*
X130690915Y-84566763D01*
X130600541Y-84702017D01*
X130485517Y-84817041D01*
X130350263Y-84907415D01*
X130350262Y-84907416D01*
X130350261Y-84907416D01*
X130199977Y-84969666D01*
X130040436Y-85001400D01*
X129877764Y-85001400D01*
X129718223Y-84969666D01*
X129567939Y-84907416D01*
X129567938Y-84907416D01*
X129567937Y-84907415D01*
X129432683Y-84817041D01*
X129317659Y-84702017D01*
X129227285Y-84566763D01*
X129220519Y-84550428D01*
X129165034Y-84416477D01*
X129133300Y-84256936D01*
X129133300Y-84094264D01*
X129165034Y-83934723D01*
X129227284Y-83784439D01*
X129227285Y-83784437D01*
X129317659Y-83649183D01*
X129432683Y-83534159D01*
X129567937Y-83443785D01*
X129567939Y-83443784D01*
X129718223Y-83381534D01*
X129877764Y-83349800D01*
X130040436Y-83349800D01*
X130199977Y-83381534D01*
X130199977Y-83381534D01*
G37*
G36*
X132739977Y-83381534D02*
G01*
X132890261Y-83443784D01*
X132890263Y-83443785D01*
X133025517Y-83534159D01*
X133140541Y-83649183D01*
X133230915Y-83784437D01*
X133230916Y-83784439D01*
X133293166Y-83934723D01*
X133324900Y-84094264D01*
X133324900Y-84256936D01*
X133293166Y-84416477D01*
X133237681Y-84550428D01*
X133230915Y-84566763D01*
X133140541Y-84702017D01*
X133025517Y-84817041D01*
X132890263Y-84907415D01*
X132890262Y-84907416D01*
X132890261Y-84907416D01*
X132739977Y-84969666D01*
X132580436Y-85001400D01*
X132417764Y-85001400D01*
X132258223Y-84969666D01*
X132107939Y-84907416D01*
X132107938Y-84907416D01*
X132107937Y-84907415D01*
X131972683Y-84817041D01*
X131857659Y-84702017D01*
X131767285Y-84566763D01*
X131760519Y-84550428D01*
X131705034Y-84416477D01*
X131673300Y-84256936D01*
X131673300Y-84094264D01*
X131705034Y-83934723D01*
X131767284Y-83784439D01*
X131767285Y-83784437D01*
X131857659Y-83649183D01*
X131972683Y-83534159D01*
X132107937Y-83443785D01*
X132107939Y-83443784D01*
X132258223Y-83381534D01*
X132417764Y-83349800D01*
X132580436Y-83349800D01*
X132739977Y-83381534D01*
X132739977Y-83381534D01*
G37*
G36*
X129826356Y-79264898D02*
G01*
X129932679Y-79286047D01*
X130233142Y-79410503D01*
X130503551Y-79591185D01*
X130733515Y-79821149D01*
X130914197Y-80091558D01*
X130914198Y-80091560D01*
X130950650Y-80179563D01*
X131038653Y-80392021D01*
X131102100Y-80710991D01*
X131102100Y-81036209D01*
X131038653Y-81355179D01*
X130969465Y-81522214D01*
X130914633Y-81654591D01*
X130914197Y-81655642D01*
X130733515Y-81926051D01*
X130503551Y-82156015D01*
X130233142Y-82336697D01*
X129932679Y-82461153D01*
X129826356Y-82482302D01*
X129613711Y-82524600D01*
X129288489Y-82524600D01*
X129075844Y-82482302D01*
X128969521Y-82461153D01*
X128669058Y-82336697D01*
X128398649Y-82156015D01*
X128168685Y-81926051D01*
X127988003Y-81655642D01*
X127987568Y-81654591D01*
X127932735Y-81522214D01*
X127863547Y-81355179D01*
X127800100Y-81036209D01*
X127800100Y-80710991D01*
X127863547Y-80392021D01*
X127951550Y-80179563D01*
X127988002Y-80091560D01*
X127988003Y-80091558D01*
X128168685Y-79821149D01*
X128398649Y-79591185D01*
X128669058Y-79410503D01*
X128969521Y-79286047D01*
X129075844Y-79264898D01*
X129288489Y-79222600D01*
X129613711Y-79222600D01*
X129826356Y-79264898D01*
X129826356Y-79264898D01*
G37*
G36*
X133156478Y-79767026D02*
G01*
X133262742Y-79799261D01*
X133300119Y-79810599D01*
X133432491Y-79881354D01*
X133548522Y-79976578D01*
X133643746Y-80092609D01*
X133714501Y-80224981D01*
X133714502Y-80224985D01*
X133758074Y-80368622D01*
X133769100Y-80480574D01*
X133769100Y-81266626D01*
X133758074Y-81378578D01*
X133725839Y-81484842D01*
X133714501Y-81522219D01*
X133643746Y-81654591D01*
X133643745Y-81654592D01*
X133548522Y-81770622D01*
X133450134Y-81851366D01*
X133432490Y-81865846D01*
X133300118Y-81936601D01*
X133262741Y-81947939D01*
X133156477Y-81980174D01*
X133007100Y-81994886D01*
X132857722Y-81980174D01*
X132751458Y-81947939D01*
X132714081Y-81936601D01*
X132581709Y-81865846D01*
X132560902Y-81848770D01*
X132465678Y-81770622D01*
X132384934Y-81672234D01*
X132370454Y-81654590D01*
X132299699Y-81522218D01*
X132288361Y-81484841D01*
X132256126Y-81378577D01*
X132245100Y-81266625D01*
X132245100Y-80480573D01*
X132256126Y-80368621D01*
X132299698Y-80224985D01*
X132370455Y-80092609D01*
X132465679Y-79976578D01*
X132581710Y-79881354D01*
X132714082Y-79810599D01*
X132751459Y-79799261D01*
X132857723Y-79767026D01*
X133007100Y-79752314D01*
X133156478Y-79767026D01*
X133156478Y-79767026D01*
G37*
G36*
X150936478Y-79767026D02*
G01*
X151042742Y-79799261D01*
X151080119Y-79810599D01*
X151212491Y-79881354D01*
X151328522Y-79976578D01*
X151423746Y-80092609D01*
X151494501Y-80224981D01*
X151494502Y-80224985D01*
X151538074Y-80368622D01*
X151549100Y-80480574D01*
X151549100Y-81266626D01*
X151538074Y-81378578D01*
X151505839Y-81484842D01*
X151494501Y-81522219D01*
X151423746Y-81654591D01*
X151423745Y-81654592D01*
X151328522Y-81770622D01*
X151230134Y-81851366D01*
X151212490Y-81865846D01*
X151080118Y-81936601D01*
X151042741Y-81947939D01*
X150936477Y-81980174D01*
X150787100Y-81994886D01*
X150637722Y-81980174D01*
X150531458Y-81947939D01*
X150494081Y-81936601D01*
X150361709Y-81865846D01*
X150340902Y-81848770D01*
X150245678Y-81770622D01*
X150164934Y-81672234D01*
X150150454Y-81654590D01*
X150079699Y-81522218D01*
X150068361Y-81484841D01*
X150036126Y-81378577D01*
X150025100Y-81266625D01*
X150025100Y-80480573D01*
X150036126Y-80368621D01*
X150079698Y-80224985D01*
X150150455Y-80092609D01*
X150245679Y-79976578D01*
X150361710Y-79881354D01*
X150494082Y-79810599D01*
X150531459Y-79799261D01*
X150637723Y-79767026D01*
X150787100Y-79752314D01*
X150936478Y-79767026D01*
X150936478Y-79767026D01*
G37*
G36*
X170240478Y-79767026D02*
G01*
X170346742Y-79799261D01*
X170384119Y-79810599D01*
X170516491Y-79881354D01*
X170632522Y-79976578D01*
X170727746Y-80092609D01*
X170798501Y-80224981D01*
X170798502Y-80224985D01*
X170842074Y-80368622D01*
X170853100Y-80480574D01*
X170853100Y-81266626D01*
X170842074Y-81378578D01*
X170809839Y-81484842D01*
X170798501Y-81522219D01*
X170727746Y-81654591D01*
X170727745Y-81654592D01*
X170632522Y-81770622D01*
X170534134Y-81851366D01*
X170516490Y-81865846D01*
X170384118Y-81936601D01*
X170346741Y-81947939D01*
X170240477Y-81980174D01*
X170091100Y-81994886D01*
X169941722Y-81980174D01*
X169835458Y-81947939D01*
X169798081Y-81936601D01*
X169665709Y-81865846D01*
X169644902Y-81848770D01*
X169549678Y-81770622D01*
X169468934Y-81672234D01*
X169454454Y-81654590D01*
X169383699Y-81522218D01*
X169372361Y-81484841D01*
X169340126Y-81378577D01*
X169329100Y-81266625D01*
X169329100Y-80480573D01*
X169340126Y-80368621D01*
X169383698Y-80224985D01*
X169454455Y-80092609D01*
X169549679Y-79976578D01*
X169665710Y-79881354D01*
X169798082Y-79810599D01*
X169835459Y-79799261D01*
X169941723Y-79767026D01*
X170091100Y-79752314D01*
X170240478Y-79767026D01*
X170240478Y-79767026D01*
G37*
G36*
X167700478Y-79767026D02*
G01*
X167806742Y-79799261D01*
X167844119Y-79810599D01*
X167976491Y-79881354D01*
X168092522Y-79976578D01*
X168187746Y-80092609D01*
X168258501Y-80224981D01*
X168258502Y-80224985D01*
X168302074Y-80368622D01*
X168313100Y-80480574D01*
X168313100Y-81266626D01*
X168302074Y-81378578D01*
X168269839Y-81484842D01*
X168258501Y-81522219D01*
X168187746Y-81654591D01*
X168187745Y-81654592D01*
X168092522Y-81770622D01*
X167994134Y-81851366D01*
X167976490Y-81865846D01*
X167844118Y-81936601D01*
X167806741Y-81947939D01*
X167700477Y-81980174D01*
X167551100Y-81994886D01*
X167401722Y-81980174D01*
X167295458Y-81947939D01*
X167258081Y-81936601D01*
X167125709Y-81865846D01*
X167104902Y-81848770D01*
X167009678Y-81770622D01*
X166928934Y-81672234D01*
X166914454Y-81654590D01*
X166843699Y-81522218D01*
X166832361Y-81484841D01*
X166800126Y-81378577D01*
X166789100Y-81266625D01*
X166789100Y-80480573D01*
X166800126Y-80368621D01*
X166843698Y-80224985D01*
X166914455Y-80092609D01*
X167009679Y-79976578D01*
X167125710Y-79881354D01*
X167258082Y-79810599D01*
X167295459Y-79799261D01*
X167401723Y-79767026D01*
X167551100Y-79752314D01*
X167700478Y-79767026D01*
X167700478Y-79767026D01*
G37*
G36*
X165160478Y-79767026D02*
G01*
X165266742Y-79799261D01*
X165304119Y-79810599D01*
X165436491Y-79881354D01*
X165552522Y-79976578D01*
X165647746Y-80092609D01*
X165718501Y-80224981D01*
X165718502Y-80224985D01*
X165762074Y-80368622D01*
X165773100Y-80480574D01*
X165773100Y-81266626D01*
X165762074Y-81378578D01*
X165729839Y-81484842D01*
X165718501Y-81522219D01*
X165647746Y-81654591D01*
X165647745Y-81654592D01*
X165552522Y-81770622D01*
X165454134Y-81851366D01*
X165436490Y-81865846D01*
X165304118Y-81936601D01*
X165266741Y-81947939D01*
X165160477Y-81980174D01*
X165011100Y-81994886D01*
X164861722Y-81980174D01*
X164755458Y-81947939D01*
X164718081Y-81936601D01*
X164585709Y-81865846D01*
X164564902Y-81848770D01*
X164469678Y-81770622D01*
X164388934Y-81672234D01*
X164374454Y-81654590D01*
X164303699Y-81522218D01*
X164292361Y-81484841D01*
X164260126Y-81378577D01*
X164249100Y-81266625D01*
X164249100Y-80480573D01*
X164260126Y-80368621D01*
X164303698Y-80224985D01*
X164374455Y-80092609D01*
X164469679Y-79976578D01*
X164585710Y-79881354D01*
X164718082Y-79810599D01*
X164755459Y-79799261D01*
X164861723Y-79767026D01*
X165011100Y-79752314D01*
X165160478Y-79767026D01*
X165160478Y-79767026D01*
G37*
G36*
X162620478Y-79767026D02*
G01*
X162726742Y-79799261D01*
X162764119Y-79810599D01*
X162896491Y-79881354D01*
X163012522Y-79976578D01*
X163107746Y-80092609D01*
X163178501Y-80224981D01*
X163178502Y-80224985D01*
X163222074Y-80368622D01*
X163233100Y-80480574D01*
X163233100Y-81266626D01*
X163222074Y-81378578D01*
X163189839Y-81484842D01*
X163178501Y-81522219D01*
X163107746Y-81654591D01*
X163107745Y-81654592D01*
X163012522Y-81770622D01*
X162914134Y-81851366D01*
X162896490Y-81865846D01*
X162764118Y-81936601D01*
X162726741Y-81947939D01*
X162620477Y-81980174D01*
X162471100Y-81994886D01*
X162321722Y-81980174D01*
X162215458Y-81947939D01*
X162178081Y-81936601D01*
X162045709Y-81865846D01*
X162024902Y-81848770D01*
X161929678Y-81770622D01*
X161848934Y-81672234D01*
X161834454Y-81654590D01*
X161763699Y-81522218D01*
X161752361Y-81484841D01*
X161720126Y-81378577D01*
X161709100Y-81266625D01*
X161709100Y-80480573D01*
X161720126Y-80368621D01*
X161763698Y-80224985D01*
X161834455Y-80092609D01*
X161929679Y-79976578D01*
X162045710Y-79881354D01*
X162178082Y-79810599D01*
X162215459Y-79799261D01*
X162321723Y-79767026D01*
X162471100Y-79752314D01*
X162620478Y-79767026D01*
X162620478Y-79767026D01*
G37*
G36*
X160080478Y-79767026D02*
G01*
X160186742Y-79799261D01*
X160224119Y-79810599D01*
X160356491Y-79881354D01*
X160472522Y-79976578D01*
X160567746Y-80092609D01*
X160638501Y-80224981D01*
X160638502Y-80224985D01*
X160682074Y-80368622D01*
X160693100Y-80480574D01*
X160693100Y-81266626D01*
X160682074Y-81378578D01*
X160649839Y-81484842D01*
X160638501Y-81522219D01*
X160567746Y-81654591D01*
X160567745Y-81654592D01*
X160472522Y-81770622D01*
X160374134Y-81851366D01*
X160356490Y-81865846D01*
X160224118Y-81936601D01*
X160186741Y-81947939D01*
X160080477Y-81980174D01*
X159931100Y-81994886D01*
X159781722Y-81980174D01*
X159675458Y-81947939D01*
X159638081Y-81936601D01*
X159505709Y-81865846D01*
X159484902Y-81848770D01*
X159389678Y-81770622D01*
X159308934Y-81672234D01*
X159294454Y-81654590D01*
X159223699Y-81522218D01*
X159212361Y-81484841D01*
X159180126Y-81378577D01*
X159169100Y-81266625D01*
X159169100Y-80480573D01*
X159180126Y-80368621D01*
X159223698Y-80224985D01*
X159294455Y-80092609D01*
X159389679Y-79976578D01*
X159505710Y-79881354D01*
X159638082Y-79810599D01*
X159675459Y-79799261D01*
X159781723Y-79767026D01*
X159931100Y-79752314D01*
X160080478Y-79767026D01*
X160080478Y-79767026D01*
G37*
G36*
X135696478Y-79767026D02*
G01*
X135802742Y-79799261D01*
X135840119Y-79810599D01*
X135972491Y-79881354D01*
X136088522Y-79976578D01*
X136183746Y-80092609D01*
X136254501Y-80224981D01*
X136254502Y-80224985D01*
X136298074Y-80368622D01*
X136309100Y-80480574D01*
X136309100Y-81266626D01*
X136298074Y-81378578D01*
X136265839Y-81484842D01*
X136254501Y-81522219D01*
X136183746Y-81654591D01*
X136183745Y-81654592D01*
X136088522Y-81770622D01*
X135990134Y-81851366D01*
X135972490Y-81865846D01*
X135840118Y-81936601D01*
X135802741Y-81947939D01*
X135696477Y-81980174D01*
X135547100Y-81994886D01*
X135397722Y-81980174D01*
X135291458Y-81947939D01*
X135254081Y-81936601D01*
X135121709Y-81865846D01*
X135100902Y-81848770D01*
X135005678Y-81770622D01*
X134924934Y-81672234D01*
X134910454Y-81654590D01*
X134839699Y-81522218D01*
X134828361Y-81484841D01*
X134796126Y-81378577D01*
X134785100Y-81266625D01*
X134785100Y-80480573D01*
X134796126Y-80368621D01*
X134839698Y-80224985D01*
X134910455Y-80092609D01*
X135005679Y-79976578D01*
X135121710Y-79881354D01*
X135254082Y-79810599D01*
X135291459Y-79799261D01*
X135397723Y-79767026D01*
X135547100Y-79752314D01*
X135696478Y-79767026D01*
X135696478Y-79767026D01*
G37*
G36*
X138236478Y-79767026D02*
G01*
X138342742Y-79799261D01*
X138380119Y-79810599D01*
X138512491Y-79881354D01*
X138628522Y-79976578D01*
X138723746Y-80092609D01*
X138794501Y-80224981D01*
X138794502Y-80224985D01*
X138838074Y-80368622D01*
X138849100Y-80480574D01*
X138849100Y-81266626D01*
X138838074Y-81378578D01*
X138805839Y-81484842D01*
X138794501Y-81522219D01*
X138723746Y-81654591D01*
X138723745Y-81654592D01*
X138628522Y-81770622D01*
X138530134Y-81851366D01*
X138512490Y-81865846D01*
X138380118Y-81936601D01*
X138342741Y-81947939D01*
X138236477Y-81980174D01*
X138087100Y-81994886D01*
X137937722Y-81980174D01*
X137831458Y-81947939D01*
X137794081Y-81936601D01*
X137661709Y-81865846D01*
X137640902Y-81848770D01*
X137545678Y-81770622D01*
X137464934Y-81672234D01*
X137450454Y-81654590D01*
X137379699Y-81522218D01*
X137368361Y-81484841D01*
X137336126Y-81378577D01*
X137325100Y-81266625D01*
X137325100Y-80480573D01*
X137336126Y-80368621D01*
X137379698Y-80224985D01*
X137450455Y-80092609D01*
X137545679Y-79976578D01*
X137661710Y-79881354D01*
X137794082Y-79810599D01*
X137831459Y-79799261D01*
X137937723Y-79767026D01*
X138087100Y-79752314D01*
X138236478Y-79767026D01*
X138236478Y-79767026D01*
G37*
G36*
X140776478Y-79767026D02*
G01*
X140882742Y-79799261D01*
X140920119Y-79810599D01*
X141052491Y-79881354D01*
X141168522Y-79976578D01*
X141263746Y-80092609D01*
X141334501Y-80224981D01*
X141334502Y-80224985D01*
X141378074Y-80368622D01*
X141389100Y-80480574D01*
X141389100Y-81266626D01*
X141378074Y-81378578D01*
X141345839Y-81484842D01*
X141334501Y-81522219D01*
X141263746Y-81654591D01*
X141263745Y-81654592D01*
X141168522Y-81770622D01*
X141070134Y-81851366D01*
X141052490Y-81865846D01*
X140920118Y-81936601D01*
X140882741Y-81947939D01*
X140776477Y-81980174D01*
X140627100Y-81994886D01*
X140477722Y-81980174D01*
X140371458Y-81947939D01*
X140334081Y-81936601D01*
X140201709Y-81865846D01*
X140180902Y-81848770D01*
X140085678Y-81770622D01*
X140004934Y-81672234D01*
X139990454Y-81654590D01*
X139919699Y-81522218D01*
X139908361Y-81484841D01*
X139876126Y-81378577D01*
X139865100Y-81266625D01*
X139865100Y-80480573D01*
X139876126Y-80368621D01*
X139919698Y-80224985D01*
X139990455Y-80092609D01*
X140085679Y-79976578D01*
X140201710Y-79881354D01*
X140334082Y-79810599D01*
X140371459Y-79799261D01*
X140477723Y-79767026D01*
X140627100Y-79752314D01*
X140776478Y-79767026D01*
X140776478Y-79767026D01*
G37*
G36*
X143316478Y-79767026D02*
G01*
X143422742Y-79799261D01*
X143460119Y-79810599D01*
X143592491Y-79881354D01*
X143708522Y-79976578D01*
X143803746Y-80092609D01*
X143874501Y-80224981D01*
X143874502Y-80224985D01*
X143918074Y-80368622D01*
X143929100Y-80480574D01*
X143929100Y-81266626D01*
X143918074Y-81378578D01*
X143885839Y-81484842D01*
X143874501Y-81522219D01*
X143803746Y-81654591D01*
X143803745Y-81654592D01*
X143708522Y-81770622D01*
X143610134Y-81851366D01*
X143592490Y-81865846D01*
X143460118Y-81936601D01*
X143422741Y-81947939D01*
X143316477Y-81980174D01*
X143167100Y-81994886D01*
X143017722Y-81980174D01*
X142911458Y-81947939D01*
X142874081Y-81936601D01*
X142741709Y-81865846D01*
X142720902Y-81848770D01*
X142625678Y-81770622D01*
X142544934Y-81672234D01*
X142530454Y-81654590D01*
X142459699Y-81522218D01*
X142448361Y-81484841D01*
X142416126Y-81378577D01*
X142405100Y-81266625D01*
X142405100Y-80480573D01*
X142416126Y-80368621D01*
X142459698Y-80224985D01*
X142530455Y-80092609D01*
X142625679Y-79976578D01*
X142741710Y-79881354D01*
X142874082Y-79810599D01*
X142911459Y-79799261D01*
X143017723Y-79767026D01*
X143167100Y-79752314D01*
X143316478Y-79767026D01*
X143316478Y-79767026D01*
G37*
G36*
X145856478Y-79767026D02*
G01*
X145962742Y-79799261D01*
X146000119Y-79810599D01*
X146132491Y-79881354D01*
X146248522Y-79976578D01*
X146343746Y-80092609D01*
X146414501Y-80224981D01*
X146414502Y-80224985D01*
X146458074Y-80368622D01*
X146469100Y-80480574D01*
X146469100Y-81266626D01*
X146458074Y-81378578D01*
X146425839Y-81484842D01*
X146414501Y-81522219D01*
X146343746Y-81654591D01*
X146343745Y-81654592D01*
X146248522Y-81770622D01*
X146150134Y-81851366D01*
X146132490Y-81865846D01*
X146000118Y-81936601D01*
X145962741Y-81947939D01*
X145856477Y-81980174D01*
X145707100Y-81994886D01*
X145557722Y-81980174D01*
X145451458Y-81947939D01*
X145414081Y-81936601D01*
X145281709Y-81865846D01*
X145260902Y-81848770D01*
X145165678Y-81770622D01*
X145084934Y-81672234D01*
X145070454Y-81654590D01*
X144999699Y-81522218D01*
X144988361Y-81484841D01*
X144956126Y-81378577D01*
X144945100Y-81266625D01*
X144945100Y-80480573D01*
X144956126Y-80368621D01*
X144999698Y-80224985D01*
X145070455Y-80092609D01*
X145165679Y-79976578D01*
X145281710Y-79881354D01*
X145414082Y-79810599D01*
X145451459Y-79799261D01*
X145557723Y-79767026D01*
X145707100Y-79752314D01*
X145856478Y-79767026D01*
X145856478Y-79767026D01*
G37*
G36*
X148396478Y-79767026D02*
G01*
X148502742Y-79799261D01*
X148540119Y-79810599D01*
X148672491Y-79881354D01*
X148788522Y-79976578D01*
X148883746Y-80092609D01*
X148954501Y-80224981D01*
X148954502Y-80224985D01*
X148998074Y-80368622D01*
X149009100Y-80480574D01*
X149009100Y-81266626D01*
X148998074Y-81378578D01*
X148965839Y-81484842D01*
X148954501Y-81522219D01*
X148883746Y-81654591D01*
X148883745Y-81654592D01*
X148788522Y-81770622D01*
X148690134Y-81851366D01*
X148672490Y-81865846D01*
X148540118Y-81936601D01*
X148502741Y-81947939D01*
X148396477Y-81980174D01*
X148247100Y-81994886D01*
X148097722Y-81980174D01*
X147991458Y-81947939D01*
X147954081Y-81936601D01*
X147821709Y-81865846D01*
X147800902Y-81848770D01*
X147705678Y-81770622D01*
X147624934Y-81672234D01*
X147610454Y-81654590D01*
X147539699Y-81522218D01*
X147528361Y-81484841D01*
X147496126Y-81378577D01*
X147485100Y-81266625D01*
X147485100Y-80480573D01*
X147496126Y-80368621D01*
X147539698Y-80224985D01*
X147610455Y-80092609D01*
X147705679Y-79976578D01*
X147821710Y-79881354D01*
X147954082Y-79810599D01*
X147991459Y-79799261D01*
X148097723Y-79767026D01*
X148247100Y-79752314D01*
X148396478Y-79767026D01*
X148396478Y-79767026D01*
G37*
G36*
X153476478Y-79767026D02*
G01*
X153582742Y-79799261D01*
X153620119Y-79810599D01*
X153752491Y-79881354D01*
X153868522Y-79976578D01*
X153963746Y-80092609D01*
X154034501Y-80224981D01*
X154034502Y-80224985D01*
X154078074Y-80368622D01*
X154089100Y-80480574D01*
X154089100Y-81266626D01*
X154078074Y-81378578D01*
X154045839Y-81484842D01*
X154034501Y-81522219D01*
X153963746Y-81654591D01*
X153963745Y-81654592D01*
X153868522Y-81770622D01*
X153770134Y-81851366D01*
X153752490Y-81865846D01*
X153620118Y-81936601D01*
X153582741Y-81947939D01*
X153476477Y-81980174D01*
X153327100Y-81994886D01*
X153177722Y-81980174D01*
X153071458Y-81947939D01*
X153034081Y-81936601D01*
X152901709Y-81865846D01*
X152880902Y-81848770D01*
X152785678Y-81770622D01*
X152704934Y-81672234D01*
X152690454Y-81654590D01*
X152619699Y-81522218D01*
X152608361Y-81484841D01*
X152576126Y-81378577D01*
X152565100Y-81266625D01*
X152565100Y-80480573D01*
X152576126Y-80368621D01*
X152619698Y-80224985D01*
X152690455Y-80092609D01*
X152785679Y-79976578D01*
X152901710Y-79881354D01*
X153034082Y-79810599D01*
X153071459Y-79799261D01*
X153177723Y-79767026D01*
X153327100Y-79752314D01*
X153476478Y-79767026D01*
X153476478Y-79767026D01*
G37*
G36*
X156016478Y-79767026D02*
G01*
X156122742Y-79799261D01*
X156160119Y-79810599D01*
X156292491Y-79881354D01*
X156408522Y-79976578D01*
X156503746Y-80092609D01*
X156574501Y-80224981D01*
X156574502Y-80224985D01*
X156618074Y-80368622D01*
X156629100Y-80480574D01*
X156629100Y-81266626D01*
X156618074Y-81378578D01*
X156585839Y-81484842D01*
X156574501Y-81522219D01*
X156503746Y-81654591D01*
X156503745Y-81654592D01*
X156408522Y-81770622D01*
X156310134Y-81851366D01*
X156292490Y-81865846D01*
X156160118Y-81936601D01*
X156122741Y-81947939D01*
X156016477Y-81980174D01*
X155867100Y-81994886D01*
X155717722Y-81980174D01*
X155611458Y-81947939D01*
X155574081Y-81936601D01*
X155441709Y-81865846D01*
X155420902Y-81848770D01*
X155325678Y-81770622D01*
X155244934Y-81672234D01*
X155230454Y-81654590D01*
X155159699Y-81522218D01*
X155148361Y-81484841D01*
X155116126Y-81378577D01*
X155105100Y-81266625D01*
X155105100Y-80480573D01*
X155116126Y-80368621D01*
X155159698Y-80224985D01*
X155230455Y-80092609D01*
X155325679Y-79976578D01*
X155441710Y-79881354D01*
X155574082Y-79810599D01*
X155611459Y-79799261D01*
X155717723Y-79767026D01*
X155867100Y-79752314D01*
X156016478Y-79767026D01*
X156016478Y-79767026D01*
G37*
G36*
X177860478Y-79767026D02*
G01*
X177966742Y-79799261D01*
X178004119Y-79810599D01*
X178136491Y-79881354D01*
X178252522Y-79976578D01*
X178347746Y-80092609D01*
X178418501Y-80224981D01*
X178418502Y-80224985D01*
X178462074Y-80368622D01*
X178473100Y-80480574D01*
X178473100Y-81266626D01*
X178462074Y-81378578D01*
X178429839Y-81484842D01*
X178418501Y-81522219D01*
X178347746Y-81654591D01*
X178347745Y-81654592D01*
X178252522Y-81770622D01*
X178154134Y-81851366D01*
X178136490Y-81865846D01*
X178004118Y-81936601D01*
X177966741Y-81947939D01*
X177860477Y-81980174D01*
X177711100Y-81994886D01*
X177561722Y-81980174D01*
X177455458Y-81947939D01*
X177418081Y-81936601D01*
X177285709Y-81865846D01*
X177264902Y-81848770D01*
X177169678Y-81770622D01*
X177088934Y-81672234D01*
X177074454Y-81654590D01*
X177003699Y-81522218D01*
X176992361Y-81484841D01*
X176960126Y-81378577D01*
X176949100Y-81266625D01*
X176949100Y-80480573D01*
X176960126Y-80368621D01*
X177003698Y-80224985D01*
X177074455Y-80092609D01*
X177169679Y-79976578D01*
X177285710Y-79881354D01*
X177418082Y-79810599D01*
X177455459Y-79799261D01*
X177561723Y-79767026D01*
X177711100Y-79752314D01*
X177860478Y-79767026D01*
X177860478Y-79767026D01*
G37*
G36*
X175320478Y-79767026D02*
G01*
X175426742Y-79799261D01*
X175464119Y-79810599D01*
X175596491Y-79881354D01*
X175712522Y-79976578D01*
X175807746Y-80092609D01*
X175878501Y-80224981D01*
X175878502Y-80224985D01*
X175922074Y-80368622D01*
X175933100Y-80480574D01*
X175933100Y-81266626D01*
X175922074Y-81378578D01*
X175889839Y-81484842D01*
X175878501Y-81522219D01*
X175807746Y-81654591D01*
X175807745Y-81654592D01*
X175712522Y-81770622D01*
X175614134Y-81851366D01*
X175596490Y-81865846D01*
X175464118Y-81936601D01*
X175426741Y-81947939D01*
X175320477Y-81980174D01*
X175171100Y-81994886D01*
X175021722Y-81980174D01*
X174915458Y-81947939D01*
X174878081Y-81936601D01*
X174745709Y-81865846D01*
X174724902Y-81848770D01*
X174629678Y-81770622D01*
X174548934Y-81672234D01*
X174534454Y-81654590D01*
X174463699Y-81522218D01*
X174452361Y-81484841D01*
X174420126Y-81378577D01*
X174409100Y-81266625D01*
X174409100Y-80480573D01*
X174420126Y-80368621D01*
X174463698Y-80224985D01*
X174534455Y-80092609D01*
X174629679Y-79976578D01*
X174745710Y-79881354D01*
X174878082Y-79810599D01*
X174915459Y-79799261D01*
X175021723Y-79767026D01*
X175171100Y-79752314D01*
X175320478Y-79767026D01*
X175320478Y-79767026D01*
G37*
G36*
X172780478Y-79767026D02*
G01*
X172886742Y-79799261D01*
X172924119Y-79810599D01*
X173056491Y-79881354D01*
X173172522Y-79976578D01*
X173267746Y-80092609D01*
X173338501Y-80224981D01*
X173338502Y-80224985D01*
X173382074Y-80368622D01*
X173393100Y-80480574D01*
X173393100Y-81266626D01*
X173382074Y-81378578D01*
X173349839Y-81484842D01*
X173338501Y-81522219D01*
X173267746Y-81654591D01*
X173267745Y-81654592D01*
X173172522Y-81770622D01*
X173074134Y-81851366D01*
X173056490Y-81865846D01*
X172924118Y-81936601D01*
X172886741Y-81947939D01*
X172780477Y-81980174D01*
X172631100Y-81994886D01*
X172481722Y-81980174D01*
X172375458Y-81947939D01*
X172338081Y-81936601D01*
X172205709Y-81865846D01*
X172184902Y-81848770D01*
X172089678Y-81770622D01*
X172008934Y-81672234D01*
X171994454Y-81654590D01*
X171923699Y-81522218D01*
X171912361Y-81484841D01*
X171880126Y-81378577D01*
X171869100Y-81266625D01*
X171869100Y-80480573D01*
X171880126Y-80368621D01*
X171923698Y-80224985D01*
X171994455Y-80092609D01*
X172089679Y-79976578D01*
X172205710Y-79881354D01*
X172338082Y-79810599D01*
X172375459Y-79799261D01*
X172481723Y-79767026D01*
X172631100Y-79752314D01*
X172780478Y-79767026D01*
X172780478Y-79767026D01*
G37*
M02*
