M48
; DRILL file {KiCad (6.0.7)} date Sun Sep 25 13:17:01 2022
; FORMAT={-:-/ absolute / metric / decimal}
; #@! TF.CreationDate,2022-09-25T13:17:01+05:30
; #@! TF.GenerationSoftware,Kicad,Pcbnew,(6.0.7)
; #@! TF.FileFunction,MixedPlating,1,2
FMAT,2
METRIC
; #@! TA.AperFunction,Plated,PTH,ComponentDrill
T1C0.750
; #@! TA.AperFunction,Plated,PTH,ComponentDrill
T2C0.800
; #@! TA.AperFunction,Plated,PTH,ComponentDrill
T3C0.900
; #@! TA.AperFunction,Plated,PTH,ComponentDrill
T4C0.950
; #@! TA.AperFunction,Plated,PTH,ComponentDrill
T5C1.000
; #@! TA.AperFunction,Plated,PTH,ComponentDrill
T6C1.016
; #@! TA.AperFunction,Plated,PTH,ComponentDrill
T7C1.100
; #@! TA.AperFunction,Plated,PTH,ComponentDrill
T8C1.170
; #@! TA.AperFunction,Plated,PTH,ComponentDrill
T9C1.200
; #@! TA.AperFunction,Plated,PTH,ComponentDrill
T10C1.300
; #@! TA.AperFunction,Plated,PTH,ComponentDrill
T11C1.400
; #@! TA.AperFunction,Plated,PTH,ComponentDrill
T12C1.500
; #@! TA.AperFunction,Plated,PTH,ComponentDrill
T13C1.600
; #@! TA.AperFunction,NonPlated,NPTH,ComponentDrill
T14C2.700
; #@! TA.AperFunction,NonPlated,NPTH,ComponentDrill
T15C3.200
%
G90
G05
T1
X151.898Y-66.103
X151.898Y-67.564
X151.898Y-69.025
T2
X128.51Y-59.85
X131.01Y-59.85
X150.53Y-127.38
X150.53Y-137.54
X159.772Y-72.644
X159.772Y-82.804
T3
X144.151Y-114.681
X144.151Y-117.221
X144.151Y-119.761
X144.151Y-122.301
X144.151Y-124.841
X144.151Y-127.381
X144.151Y-129.921
X144.151Y-132.461
X144.151Y-135.001
X144.151Y-137.541
X144.151Y-140.081
X144.151Y-142.621
X144.151Y-145.161
X144.151Y-147.701
X144.151Y-150.241
X144.151Y-152.781
X144.151Y-155.321
X144.151Y-157.861
X144.151Y-160.401
X144.151Y-162.941
X159.391Y-114.681
X159.391Y-117.221
X159.391Y-119.761
X159.391Y-122.301
X159.391Y-124.841
X159.391Y-127.381
X159.391Y-129.921
X159.391Y-132.461
X159.391Y-135.001
X159.391Y-137.541
X159.391Y-140.081
X159.391Y-142.621
X159.391Y-145.161
X159.391Y-147.701
X159.391Y-150.241
X159.391Y-152.781
X159.391Y-155.321
X159.391Y-157.861
X159.391Y-160.401
X159.391Y-162.941
T4
X131.76Y-158.06
X131.76Y-160.56
X131.76Y-163.06
X137.76Y-158.06
X137.76Y-160.56
X137.76Y-163.06
T5
X24.76Y-52.23
X24.76Y-54.77
X24.76Y-57.31
X105.01Y-114.56
X105.01Y-133.56
X109.51Y-100.21
X114.51Y-100.21
X119.51Y-107.45
X119.51Y-142.56
X121.16Y-43.06
X121.16Y-45.6
X121.16Y-48.14
X123.51Y-87.56
X127.86Y-169.35
X128.51Y-87.56
X130.4Y-169.35
X132.94Y-169.35
X135.48Y-169.35
T6
X127.514Y-134.874
X127.514Y-137.414
X127.514Y-139.954
X127.514Y-142.494
X127.514Y-145.034
X127.514Y-147.574
X137.674Y-134.874
X137.674Y-137.414
X137.674Y-139.954
X137.674Y-142.494
X137.674Y-145.034
X137.674Y-147.574
T7
X126.01Y-75.06
X128.55Y-75.06
X131.09Y-75.06
T8
X158.088Y-98.044
T9
X88.66Y-85.24
X91.66Y-80.54
X94.66Y-85.24
T10
X54.01Y-169.06
X59.09Y-169.06
X87.24Y-169.08
X92.32Y-169.08
X102.91Y-170.35
X107.99Y-170.35
X113.07Y-170.35
X118.15Y-170.35
X154.01Y-40.48
X154.01Y-45.56
X154.01Y-50.64
T11
X66.86Y-169.08
X79.56Y-169.08
T12
X138.088Y-98.044
T13
X24.062Y-110.494
X24.062Y-129.794
X24.062Y-149.094
X96.962Y-110.494
X96.962Y-129.794
X96.962Y-149.094
T14
X26.26Y-40.31
X26.26Y-92.31
X85.26Y-40.31
X95.26Y-93.31
T15
X32.907Y-110.494
X32.907Y-129.794
X32.907Y-149.094
X47.66Y-32.06
X47.66Y-172.1
X88.517Y-110.494
X88.517Y-129.794
X88.517Y-149.094
X141.66Y-32.06
X141.66Y-172.06
T0
M30
