G04 #@! TF.GenerationSoftware,KiCad,Pcbnew,(6.0.7)*
G04 #@! TF.CreationDate,2022-09-25T13:17:08+05:30*
G04 #@! TF.ProjectId,OstronElectronicsStack,4f737472-6f6e-4456-9c65-6374726f6e69,1.0*
G04 #@! TF.SameCoordinates,Original*
G04 #@! TF.FileFunction,Soldermask,Bot*
G04 #@! TF.FilePolarity,Negative*
%FSLAX46Y46*%
G04 Gerber Fmt 4.6, Leading zero omitted, Abs format (unit mm)*
G04 Created by KiCad (PCBNEW (6.0.7)) date 2022-09-25 13:17:08*
%MOMM*%
%LPD*%
G01*
G04 APERTURE LIST*
G04 Aperture macros list*
%AMRoundRect*
0 Rectangle with rounded corners*
0 $1 Rounding radius*
0 $2 $3 $4 $5 $6 $7 $8 $9 X,Y pos of 4 corners*
0 Add a 4 corners polygon primitive as box body*
4,1,4,$2,$3,$4,$5,$6,$7,$8,$9,$2,$3,0*
0 Add four circle primitives for the rounded corners*
1,1,$1+$1,$2,$3*
1,1,$1+$1,$4,$5*
1,1,$1+$1,$6,$7*
1,1,$1+$1,$8,$9*
0 Add four rect primitives between the rounded corners*
20,1,$1+$1,$2,$3,$4,$5,0*
20,1,$1+$1,$4,$5,$6,$7,0*
20,1,$1+$1,$6,$7,$8,$9,0*
20,1,$1+$1,$8,$9,$2,$3,0*%
G04 Aperture macros list end*
%ADD10C,3.302000*%
%ADD11C,4.302000*%
%ADD12C,2.802000*%
%ADD13C,2.352000*%
%ADD14C,1.857000*%
%ADD15C,2.102000*%
%ADD16C,1.702000*%
%ADD17C,2.902000*%
%ADD18O,2.902000X2.902000*%
%ADD19C,1.802000*%
%ADD20O,1.802000X1.802000*%
%ADD21RoundRect,0.926000X-0.875000X-0.875000X0.875000X-0.875000X0.875000X0.875000X-0.875000X0.875000X0*%
%ADD22RoundRect,0.801000X-0.750000X-1.000000X0.750000X-1.000000X0.750000X1.000000X-0.750000X1.000000X0*%
%ADD23RoundRect,0.051000X-1.750000X-1.750000X1.750000X-1.750000X1.750000X1.750000X-1.750000X1.750000X0*%
%ADD24C,2.702000*%
%ADD25C,1.152000*%
%ADD26O,1.702000X1.702000*%
%ADD27C,2.007000*%
%ADD28O,2.007000X2.102000*%
%ADD29C,1.626000*%
%ADD30RoundRect,0.051000X0.762000X0.762000X-0.762000X0.762000X-0.762000X-0.762000X0.762000X-0.762000X0*%
%ADD31C,1.560000*%
G04 APERTURE END LIST*
D10*
X32907000Y-110494000D03*
X32907000Y-149094000D03*
X88517000Y-129794000D03*
X88517000Y-149094000D03*
X32907000Y-129794000D03*
X88517000Y-110494000D03*
X24062000Y-110494000D03*
X96962000Y-110494000D03*
X24062000Y-129794000D03*
X96962000Y-129794000D03*
X24062000Y-149094000D03*
X96962000Y-149094000D03*
D11*
X141660000Y-172060000D03*
X141660000Y-32060000D03*
X47660000Y-32060000D03*
D12*
X26260000Y-40310000D03*
X26260000Y-92310000D03*
X95260000Y-93310000D03*
X85260000Y-40310000D03*
D13*
X138088000Y-98044000D03*
D14*
X158088000Y-98044000D03*
D15*
X123510000Y-87560000D03*
X128510000Y-87560000D03*
D16*
X131010000Y-59850000D03*
X128510000Y-59850000D03*
D17*
X79560000Y-169080000D03*
D18*
X66860000Y-169080000D03*
D19*
X24760000Y-57310000D03*
D20*
X24760000Y-54770000D03*
X24760000Y-52230000D03*
D21*
X91660000Y-80540000D03*
D22*
X88660000Y-85240000D03*
D23*
X94660000Y-85240000D03*
D19*
X109510000Y-100210000D03*
X114510000Y-100210000D03*
X105010000Y-114560000D03*
X105010000Y-133560000D03*
X119510000Y-142560000D03*
D24*
X102910000Y-170350000D03*
X107990000Y-170350000D03*
X113070000Y-170350000D03*
X118150000Y-170350000D03*
D19*
X127860000Y-169350000D03*
D20*
X130400000Y-169350000D03*
X132940000Y-169350000D03*
X135480000Y-169350000D03*
D24*
X54010000Y-169060000D03*
X59090000Y-169060000D03*
X154010000Y-50640000D03*
X154010000Y-45560000D03*
X154010000Y-40480000D03*
D19*
X121160000Y-43060000D03*
D20*
X121160000Y-45600000D03*
X121160000Y-48140000D03*
D25*
X151898000Y-66103500D03*
X151898000Y-67564000D03*
X151898000Y-69024500D03*
D16*
X159772000Y-72644000D03*
D26*
X159772000Y-82804000D03*
D27*
X126010000Y-75060000D03*
D28*
X128550000Y-75060000D03*
X131090000Y-75060000D03*
D29*
X127514000Y-145034000D03*
X137674000Y-145034000D03*
D30*
X127514000Y-147574000D03*
D29*
X127514000Y-134874000D03*
X127514000Y-137414000D03*
X127514000Y-139954000D03*
X127514000Y-142494000D03*
D30*
X137674000Y-147574000D03*
D29*
X137674000Y-134874000D03*
X137674000Y-137414000D03*
X137674000Y-139954000D03*
X137674000Y-142494000D03*
X159391000Y-114681000D03*
X144151000Y-157861000D03*
X159391000Y-119761000D03*
X159391000Y-117221000D03*
X144151000Y-160401000D03*
X144151000Y-162941000D03*
X144151000Y-155321000D03*
X144151000Y-124841000D03*
X144151000Y-127381000D03*
X144151000Y-129921000D03*
X144151000Y-132461000D03*
X144151000Y-135001000D03*
X144151000Y-137541000D03*
X144151000Y-140081000D03*
X144151000Y-142621000D03*
X159391000Y-152781000D03*
X159391000Y-150241000D03*
X159391000Y-147701000D03*
X159391000Y-145161000D03*
X159391000Y-142621000D03*
X159391000Y-140081000D03*
X144151000Y-145161000D03*
X144151000Y-147701000D03*
X159391000Y-137541000D03*
X159391000Y-135001000D03*
X159391000Y-132461000D03*
X159391000Y-129921000D03*
X159391000Y-127381000D03*
X159391000Y-124841000D03*
X159391000Y-122301000D03*
X144151000Y-150241000D03*
X144151000Y-152781000D03*
X159391000Y-162941000D03*
X159391000Y-160401000D03*
X159391000Y-157861000D03*
X159391000Y-155321000D03*
X144151000Y-117221000D03*
X144151000Y-119761000D03*
X144151000Y-122301000D03*
X144151000Y-114681000D03*
D31*
X137760000Y-160560000D03*
X131760000Y-160560000D03*
X137760000Y-158060000D03*
X131760000Y-158060000D03*
X137760000Y-163060000D03*
X131760000Y-163060000D03*
D16*
X150530000Y-127380000D03*
D26*
X150530000Y-137540000D03*
D19*
X119510000Y-107450000D03*
D24*
X87240000Y-169080000D03*
X92320000Y-169080000D03*
D11*
X47660000Y-172100000D03*
M02*
