G04 #@! TF.GenerationSoftware,KiCad,Pcbnew,5.1.4+dfsg1-1~bpo10+1*
G04 #@! TF.CreationDate,2022-07-21T16:49:21+05:30*
G04 #@! TF.ProjectId,555timer,35353574-696d-4657-922e-6b696361645f,rev?*
G04 #@! TF.SameCoordinates,Original*
G04 #@! TF.FileFunction,Soldermask,Top*
G04 #@! TF.FilePolarity,Negative*
%FSLAX46Y46*%
G04 Gerber Fmt 4.6, Leading zero omitted, Abs format (unit mm)*
G04 Created by KiCad (PCBNEW 5.1.4+dfsg1-1~bpo10+1) date 2022-07-21 16:49:21*
%MOMM*%
%LPD*%
G04 APERTURE LIST*
%ADD10C,0.100000*%
G04 APERTURE END LIST*
D10*
G36*
X60192228Y-105607703D02*
G01*
X60347100Y-105671853D01*
X60486481Y-105764985D01*
X60605015Y-105883519D01*
X60698147Y-106022900D01*
X60762297Y-106177772D01*
X60795000Y-106342184D01*
X60795000Y-106509816D01*
X60762297Y-106674228D01*
X60698147Y-106829100D01*
X60605015Y-106968481D01*
X60486481Y-107087015D01*
X60347100Y-107180147D01*
X60192228Y-107244297D01*
X60027816Y-107277000D01*
X59860184Y-107277000D01*
X59695772Y-107244297D01*
X59540900Y-107180147D01*
X59401519Y-107087015D01*
X59282985Y-106968481D01*
X59189853Y-106829100D01*
X59125703Y-106674228D01*
X59093000Y-106509816D01*
X59093000Y-106342184D01*
X59125703Y-106177772D01*
X59189853Y-106022900D01*
X59282985Y-105883519D01*
X59401519Y-105764985D01*
X59540900Y-105671853D01*
X59695772Y-105607703D01*
X59860184Y-105575000D01*
X60027816Y-105575000D01*
X60192228Y-105607703D01*
X60192228Y-105607703D01*
G37*
G36*
X104706823Y-105587313D02*
G01*
X104867242Y-105635976D01*
X104934361Y-105671852D01*
X105015078Y-105714996D01*
X105144659Y-105821341D01*
X105251004Y-105950922D01*
X105251005Y-105950924D01*
X105330024Y-106098758D01*
X105378687Y-106259177D01*
X105395117Y-106426000D01*
X105378687Y-106592823D01*
X105330024Y-106753242D01*
X105289477Y-106829100D01*
X105251004Y-106901078D01*
X105144659Y-107030659D01*
X105015078Y-107137004D01*
X105015076Y-107137005D01*
X104867242Y-107216024D01*
X104706823Y-107264687D01*
X104581804Y-107277000D01*
X103698196Y-107277000D01*
X103573177Y-107264687D01*
X103412758Y-107216024D01*
X103264924Y-107137005D01*
X103264922Y-107137004D01*
X103135341Y-107030659D01*
X103028996Y-106901078D01*
X102990523Y-106829100D01*
X102949976Y-106753242D01*
X102901313Y-106592823D01*
X102884883Y-106426000D01*
X102901313Y-106259177D01*
X102949976Y-106098758D01*
X103028995Y-105950924D01*
X103028996Y-105950922D01*
X103135341Y-105821341D01*
X103264922Y-105714996D01*
X103345639Y-105671852D01*
X103412758Y-105635976D01*
X103573177Y-105587313D01*
X103698196Y-105575000D01*
X104581804Y-105575000D01*
X104706823Y-105587313D01*
X104706823Y-105587313D01*
G37*
G36*
X109468228Y-105607703D02*
G01*
X109623100Y-105671853D01*
X109762481Y-105764985D01*
X109881015Y-105883519D01*
X109974147Y-106022900D01*
X110038297Y-106177772D01*
X110071000Y-106342184D01*
X110071000Y-106509816D01*
X110038297Y-106674228D01*
X109974147Y-106829100D01*
X109881015Y-106968481D01*
X109762481Y-107087015D01*
X109623100Y-107180147D01*
X109468228Y-107244297D01*
X109303816Y-107277000D01*
X109136184Y-107277000D01*
X108971772Y-107244297D01*
X108816900Y-107180147D01*
X108677519Y-107087015D01*
X108558985Y-106968481D01*
X108465853Y-106829100D01*
X108401703Y-106674228D01*
X108369000Y-106509816D01*
X108369000Y-106342184D01*
X108401703Y-106177772D01*
X108465853Y-106022900D01*
X108558985Y-105883519D01*
X108677519Y-105764985D01*
X108816900Y-105671853D01*
X108971772Y-105607703D01*
X109136184Y-105575000D01*
X109303816Y-105575000D01*
X109468228Y-105607703D01*
X109468228Y-105607703D01*
G37*
G36*
X97086823Y-105587313D02*
G01*
X97247242Y-105635976D01*
X97314361Y-105671852D01*
X97395078Y-105714996D01*
X97524659Y-105821341D01*
X97631004Y-105950922D01*
X97631005Y-105950924D01*
X97710024Y-106098758D01*
X97758687Y-106259177D01*
X97775117Y-106426000D01*
X97758687Y-106592823D01*
X97710024Y-106753242D01*
X97669477Y-106829100D01*
X97631004Y-106901078D01*
X97524659Y-107030659D01*
X97395078Y-107137004D01*
X97395076Y-107137005D01*
X97247242Y-107216024D01*
X97086823Y-107264687D01*
X96961804Y-107277000D01*
X96078196Y-107277000D01*
X95953177Y-107264687D01*
X95792758Y-107216024D01*
X95644924Y-107137005D01*
X95644922Y-107137004D01*
X95515341Y-107030659D01*
X95408996Y-106901078D01*
X95370523Y-106829100D01*
X95329976Y-106753242D01*
X95281313Y-106592823D01*
X95264883Y-106426000D01*
X95281313Y-106259177D01*
X95329976Y-106098758D01*
X95408995Y-105950924D01*
X95408996Y-105950922D01*
X95515341Y-105821341D01*
X95644922Y-105714996D01*
X95725639Y-105671852D01*
X95792758Y-105635976D01*
X95953177Y-105587313D01*
X96078196Y-105575000D01*
X96961804Y-105575000D01*
X97086823Y-105587313D01*
X97086823Y-105587313D01*
G37*
G36*
X55430823Y-105587313D02*
G01*
X55591242Y-105635976D01*
X55658361Y-105671852D01*
X55739078Y-105714996D01*
X55868659Y-105821341D01*
X55975004Y-105950922D01*
X55975005Y-105950924D01*
X56054024Y-106098758D01*
X56102687Y-106259177D01*
X56119117Y-106426000D01*
X56102687Y-106592823D01*
X56054024Y-106753242D01*
X56013477Y-106829100D01*
X55975004Y-106901078D01*
X55868659Y-107030659D01*
X55739078Y-107137004D01*
X55739076Y-107137005D01*
X55591242Y-107216024D01*
X55430823Y-107264687D01*
X55305804Y-107277000D01*
X54422196Y-107277000D01*
X54297177Y-107264687D01*
X54136758Y-107216024D01*
X53988924Y-107137005D01*
X53988922Y-107137004D01*
X53859341Y-107030659D01*
X53752996Y-106901078D01*
X53714523Y-106829100D01*
X53673976Y-106753242D01*
X53625313Y-106592823D01*
X53608883Y-106426000D01*
X53625313Y-106259177D01*
X53673976Y-106098758D01*
X53752995Y-105950924D01*
X53752996Y-105950922D01*
X53859341Y-105821341D01*
X53988922Y-105714996D01*
X54069639Y-105671852D01*
X54136758Y-105635976D01*
X54297177Y-105587313D01*
X54422196Y-105575000D01*
X55305804Y-105575000D01*
X55430823Y-105587313D01*
X55430823Y-105587313D01*
G37*
G36*
X47810823Y-105587313D02*
G01*
X47971242Y-105635976D01*
X48038361Y-105671852D01*
X48119078Y-105714996D01*
X48248659Y-105821341D01*
X48355004Y-105950922D01*
X48355005Y-105950924D01*
X48434024Y-106098758D01*
X48482687Y-106259177D01*
X48499117Y-106426000D01*
X48482687Y-106592823D01*
X48434024Y-106753242D01*
X48393477Y-106829100D01*
X48355004Y-106901078D01*
X48248659Y-107030659D01*
X48119078Y-107137004D01*
X48119076Y-107137005D01*
X47971242Y-107216024D01*
X47810823Y-107264687D01*
X47685804Y-107277000D01*
X46802196Y-107277000D01*
X46677177Y-107264687D01*
X46516758Y-107216024D01*
X46368924Y-107137005D01*
X46368922Y-107137004D01*
X46239341Y-107030659D01*
X46132996Y-106901078D01*
X46094523Y-106829100D01*
X46053976Y-106753242D01*
X46005313Y-106592823D01*
X45988883Y-106426000D01*
X46005313Y-106259177D01*
X46053976Y-106098758D01*
X46132995Y-105950924D01*
X46132996Y-105950922D01*
X46239341Y-105821341D01*
X46368922Y-105714996D01*
X46449639Y-105671852D01*
X46516758Y-105635976D01*
X46677177Y-105587313D01*
X46802196Y-105575000D01*
X47685804Y-105575000D01*
X47810823Y-105587313D01*
X47810823Y-105587313D01*
G37*
G36*
X83647000Y-106253000D02*
G01*
X80945000Y-106253000D01*
X80945000Y-103551000D01*
X83647000Y-103551000D01*
X83647000Y-106253000D01*
X83647000Y-106253000D01*
G37*
G36*
X34371000Y-106253000D02*
G01*
X31669000Y-106253000D01*
X31669000Y-103551000D01*
X34371000Y-103551000D01*
X34371000Y-106253000D01*
X34371000Y-106253000D01*
G37*
G36*
X43723000Y-105651500D02*
G01*
X41621000Y-105651500D01*
X41621000Y-103644500D01*
X43723000Y-103644500D01*
X43723000Y-105651500D01*
X43723000Y-105651500D01*
G37*
G36*
X92999000Y-105651500D02*
G01*
X90897000Y-105651500D01*
X90897000Y-103644500D01*
X92999000Y-103644500D01*
X92999000Y-105651500D01*
X92999000Y-105651500D01*
G37*
G36*
X66161183Y-103886000D02*
G01*
X66264893Y-103906629D01*
X66405206Y-103964748D01*
X66531484Y-104049125D01*
X66638875Y-104156516D01*
X66723252Y-104282794D01*
X66781371Y-104423107D01*
X66811000Y-104572063D01*
X66811000Y-104723937D01*
X66781371Y-104872893D01*
X66723252Y-105013206D01*
X66638875Y-105139484D01*
X66531484Y-105246875D01*
X66405206Y-105331252D01*
X66264893Y-105389371D01*
X66165589Y-105409124D01*
X66115938Y-105419000D01*
X65964062Y-105419000D01*
X65914411Y-105409124D01*
X65815107Y-105389371D01*
X65674794Y-105331252D01*
X65548516Y-105246875D01*
X65441125Y-105139484D01*
X65356748Y-105013206D01*
X65298629Y-104872893D01*
X65269000Y-104723937D01*
X65269000Y-104572063D01*
X65298629Y-104423107D01*
X65356748Y-104282794D01*
X65441125Y-104156516D01*
X65548516Y-104049125D01*
X65674794Y-103964748D01*
X65815107Y-103906629D01*
X65918817Y-103886000D01*
X65964062Y-103877000D01*
X66115938Y-103877000D01*
X66161183Y-103886000D01*
X66161183Y-103886000D01*
G37*
G36*
X120517183Y-103886000D02*
G01*
X120620893Y-103906629D01*
X120761206Y-103964748D01*
X120887484Y-104049125D01*
X120994875Y-104156516D01*
X121079252Y-104282794D01*
X121137371Y-104423107D01*
X121167000Y-104572063D01*
X121167000Y-104723937D01*
X121137371Y-104872893D01*
X121079252Y-105013206D01*
X120994875Y-105139484D01*
X120887484Y-105246875D01*
X120761206Y-105331252D01*
X120620893Y-105389371D01*
X120521589Y-105409124D01*
X120471938Y-105419000D01*
X120320062Y-105419000D01*
X120270411Y-105409124D01*
X120171107Y-105389371D01*
X120030794Y-105331252D01*
X119904516Y-105246875D01*
X119797125Y-105139484D01*
X119712748Y-105013206D01*
X119654629Y-104872893D01*
X119625000Y-104723937D01*
X119625000Y-104572063D01*
X119654629Y-104423107D01*
X119712748Y-104282794D01*
X119797125Y-104156516D01*
X119904516Y-104049125D01*
X120030794Y-103964748D01*
X120171107Y-103906629D01*
X120274817Y-103886000D01*
X120320062Y-103877000D01*
X120471938Y-103877000D01*
X120517183Y-103886000D01*
X120517183Y-103886000D01*
G37*
G36*
X117977183Y-103886000D02*
G01*
X118080893Y-103906629D01*
X118221206Y-103964748D01*
X118347484Y-104049125D01*
X118454875Y-104156516D01*
X118539252Y-104282794D01*
X118597371Y-104423107D01*
X118627000Y-104572063D01*
X118627000Y-104723937D01*
X118597371Y-104872893D01*
X118539252Y-105013206D01*
X118454875Y-105139484D01*
X118347484Y-105246875D01*
X118221206Y-105331252D01*
X118080893Y-105389371D01*
X117981589Y-105409124D01*
X117931938Y-105419000D01*
X117780062Y-105419000D01*
X117730411Y-105409124D01*
X117631107Y-105389371D01*
X117490794Y-105331252D01*
X117364516Y-105246875D01*
X117257125Y-105139484D01*
X117172748Y-105013206D01*
X117114629Y-104872893D01*
X117085000Y-104723937D01*
X117085000Y-104572063D01*
X117114629Y-104423107D01*
X117172748Y-104282794D01*
X117257125Y-104156516D01*
X117364516Y-104049125D01*
X117490794Y-103964748D01*
X117631107Y-103906629D01*
X117734817Y-103886000D01*
X117780062Y-103877000D01*
X117931938Y-103877000D01*
X117977183Y-103886000D01*
X117977183Y-103886000D01*
G37*
G36*
X115437183Y-103886000D02*
G01*
X115540893Y-103906629D01*
X115681206Y-103964748D01*
X115807484Y-104049125D01*
X115914875Y-104156516D01*
X115999252Y-104282794D01*
X116057371Y-104423107D01*
X116087000Y-104572063D01*
X116087000Y-104723937D01*
X116057371Y-104872893D01*
X115999252Y-105013206D01*
X115914875Y-105139484D01*
X115807484Y-105246875D01*
X115681206Y-105331252D01*
X115540893Y-105389371D01*
X115441589Y-105409124D01*
X115391938Y-105419000D01*
X115240062Y-105419000D01*
X115190411Y-105409124D01*
X115091107Y-105389371D01*
X114950794Y-105331252D01*
X114824516Y-105246875D01*
X114717125Y-105139484D01*
X114632748Y-105013206D01*
X114574629Y-104872893D01*
X114545000Y-104723937D01*
X114545000Y-104572063D01*
X114574629Y-104423107D01*
X114632748Y-104282794D01*
X114717125Y-104156516D01*
X114824516Y-104049125D01*
X114950794Y-103964748D01*
X115091107Y-103906629D01*
X115194817Y-103886000D01*
X115240062Y-103877000D01*
X115391938Y-103877000D01*
X115437183Y-103886000D01*
X115437183Y-103886000D01*
G37*
G36*
X68701183Y-103886000D02*
G01*
X68804893Y-103906629D01*
X68945206Y-103964748D01*
X69071484Y-104049125D01*
X69178875Y-104156516D01*
X69263252Y-104282794D01*
X69321371Y-104423107D01*
X69351000Y-104572063D01*
X69351000Y-104723937D01*
X69321371Y-104872893D01*
X69263252Y-105013206D01*
X69178875Y-105139484D01*
X69071484Y-105246875D01*
X68945206Y-105331252D01*
X68804893Y-105389371D01*
X68705589Y-105409124D01*
X68655938Y-105419000D01*
X68504062Y-105419000D01*
X68454411Y-105409124D01*
X68355107Y-105389371D01*
X68214794Y-105331252D01*
X68088516Y-105246875D01*
X67981125Y-105139484D01*
X67896748Y-105013206D01*
X67838629Y-104872893D01*
X67809000Y-104723937D01*
X67809000Y-104572063D01*
X67838629Y-104423107D01*
X67896748Y-104282794D01*
X67981125Y-104156516D01*
X68088516Y-104049125D01*
X68214794Y-103964748D01*
X68355107Y-103906629D01*
X68458817Y-103886000D01*
X68504062Y-103877000D01*
X68655938Y-103877000D01*
X68701183Y-103886000D01*
X68701183Y-103886000D01*
G37*
G36*
X71241183Y-103886000D02*
G01*
X71344893Y-103906629D01*
X71485206Y-103964748D01*
X71611484Y-104049125D01*
X71718875Y-104156516D01*
X71803252Y-104282794D01*
X71861371Y-104423107D01*
X71891000Y-104572063D01*
X71891000Y-104723937D01*
X71861371Y-104872893D01*
X71803252Y-105013206D01*
X71718875Y-105139484D01*
X71611484Y-105246875D01*
X71485206Y-105331252D01*
X71344893Y-105389371D01*
X71245589Y-105409124D01*
X71195938Y-105419000D01*
X71044062Y-105419000D01*
X70994411Y-105409124D01*
X70895107Y-105389371D01*
X70754794Y-105331252D01*
X70628516Y-105246875D01*
X70521125Y-105139484D01*
X70436748Y-105013206D01*
X70378629Y-104872893D01*
X70349000Y-104723937D01*
X70349000Y-104572063D01*
X70378629Y-104423107D01*
X70436748Y-104282794D01*
X70521125Y-104156516D01*
X70628516Y-104049125D01*
X70754794Y-103964748D01*
X70895107Y-103906629D01*
X70998817Y-103886000D01*
X71044062Y-103877000D01*
X71195938Y-103877000D01*
X71241183Y-103886000D01*
X71241183Y-103886000D01*
G37*
G36*
X47810823Y-103047313D02*
G01*
X47971242Y-103095976D01*
X48103906Y-103166886D01*
X48119078Y-103174996D01*
X48248659Y-103281341D01*
X48355004Y-103410922D01*
X48355005Y-103410924D01*
X48434024Y-103558758D01*
X48482687Y-103719177D01*
X48499117Y-103886000D01*
X48482687Y-104052823D01*
X48434024Y-104213242D01*
X48363114Y-104345906D01*
X48355004Y-104361078D01*
X48248659Y-104490659D01*
X48119078Y-104597004D01*
X48119076Y-104597005D01*
X47971242Y-104676024D01*
X47810823Y-104724687D01*
X47685804Y-104737000D01*
X46802196Y-104737000D01*
X46677177Y-104724687D01*
X46516758Y-104676024D01*
X46368924Y-104597005D01*
X46368922Y-104597004D01*
X46239341Y-104490659D01*
X46132996Y-104361078D01*
X46124886Y-104345906D01*
X46053976Y-104213242D01*
X46005313Y-104052823D01*
X45988883Y-103886000D01*
X46005313Y-103719177D01*
X46053976Y-103558758D01*
X46132995Y-103410924D01*
X46132996Y-103410922D01*
X46239341Y-103281341D01*
X46368922Y-103174996D01*
X46384094Y-103166886D01*
X46516758Y-103095976D01*
X46677177Y-103047313D01*
X46802196Y-103035000D01*
X47685804Y-103035000D01*
X47810823Y-103047313D01*
X47810823Y-103047313D01*
G37*
G36*
X104706823Y-103047313D02*
G01*
X104867242Y-103095976D01*
X104999906Y-103166886D01*
X105015078Y-103174996D01*
X105144659Y-103281341D01*
X105251004Y-103410922D01*
X105251005Y-103410924D01*
X105330024Y-103558758D01*
X105378687Y-103719177D01*
X105395117Y-103886000D01*
X105378687Y-104052823D01*
X105330024Y-104213242D01*
X105259114Y-104345906D01*
X105251004Y-104361078D01*
X105144659Y-104490659D01*
X105015078Y-104597004D01*
X105015076Y-104597005D01*
X104867242Y-104676024D01*
X104706823Y-104724687D01*
X104581804Y-104737000D01*
X103698196Y-104737000D01*
X103573177Y-104724687D01*
X103412758Y-104676024D01*
X103264924Y-104597005D01*
X103264922Y-104597004D01*
X103135341Y-104490659D01*
X103028996Y-104361078D01*
X103020886Y-104345906D01*
X102949976Y-104213242D01*
X102901313Y-104052823D01*
X102884883Y-103886000D01*
X102901313Y-103719177D01*
X102949976Y-103558758D01*
X103028995Y-103410924D01*
X103028996Y-103410922D01*
X103135341Y-103281341D01*
X103264922Y-103174996D01*
X103280094Y-103166886D01*
X103412758Y-103095976D01*
X103573177Y-103047313D01*
X103698196Y-103035000D01*
X104581804Y-103035000D01*
X104706823Y-103047313D01*
X104706823Y-103047313D01*
G37*
G36*
X97086823Y-103047313D02*
G01*
X97247242Y-103095976D01*
X97379906Y-103166886D01*
X97395078Y-103174996D01*
X97524659Y-103281341D01*
X97631004Y-103410922D01*
X97631005Y-103410924D01*
X97710024Y-103558758D01*
X97758687Y-103719177D01*
X97775117Y-103886000D01*
X97758687Y-104052823D01*
X97710024Y-104213242D01*
X97639114Y-104345906D01*
X97631004Y-104361078D01*
X97524659Y-104490659D01*
X97395078Y-104597004D01*
X97395076Y-104597005D01*
X97247242Y-104676024D01*
X97086823Y-104724687D01*
X96961804Y-104737000D01*
X96078196Y-104737000D01*
X95953177Y-104724687D01*
X95792758Y-104676024D01*
X95644924Y-104597005D01*
X95644922Y-104597004D01*
X95515341Y-104490659D01*
X95408996Y-104361078D01*
X95400886Y-104345906D01*
X95329976Y-104213242D01*
X95281313Y-104052823D01*
X95264883Y-103886000D01*
X95281313Y-103719177D01*
X95329976Y-103558758D01*
X95408995Y-103410924D01*
X95408996Y-103410922D01*
X95515341Y-103281341D01*
X95644922Y-103174996D01*
X95660094Y-103166886D01*
X95792758Y-103095976D01*
X95953177Y-103047313D01*
X96078196Y-103035000D01*
X96961804Y-103035000D01*
X97086823Y-103047313D01*
X97086823Y-103047313D01*
G37*
G36*
X55430823Y-103047313D02*
G01*
X55591242Y-103095976D01*
X55723906Y-103166886D01*
X55739078Y-103174996D01*
X55868659Y-103281341D01*
X55975004Y-103410922D01*
X55975005Y-103410924D01*
X56054024Y-103558758D01*
X56102687Y-103719177D01*
X56119117Y-103886000D01*
X56102687Y-104052823D01*
X56054024Y-104213242D01*
X55983114Y-104345906D01*
X55975004Y-104361078D01*
X55868659Y-104490659D01*
X55739078Y-104597004D01*
X55739076Y-104597005D01*
X55591242Y-104676024D01*
X55430823Y-104724687D01*
X55305804Y-104737000D01*
X54422196Y-104737000D01*
X54297177Y-104724687D01*
X54136758Y-104676024D01*
X53988924Y-104597005D01*
X53988922Y-104597004D01*
X53859341Y-104490659D01*
X53752996Y-104361078D01*
X53744886Y-104345906D01*
X53673976Y-104213242D01*
X53625313Y-104052823D01*
X53608883Y-103886000D01*
X53625313Y-103719177D01*
X53673976Y-103558758D01*
X53752995Y-103410924D01*
X53752996Y-103410922D01*
X53859341Y-103281341D01*
X53988922Y-103174996D01*
X54004094Y-103166886D01*
X54136758Y-103095976D01*
X54297177Y-103047313D01*
X54422196Y-103035000D01*
X55305804Y-103035000D01*
X55430823Y-103047313D01*
X55430823Y-103047313D01*
G37*
G36*
X92093936Y-101109340D02*
G01*
X92192220Y-101119020D01*
X92381381Y-101176401D01*
X92555712Y-101269583D01*
X92708515Y-101394985D01*
X92833917Y-101547788D01*
X92927099Y-101722119D01*
X92984480Y-101911280D01*
X93003855Y-102108000D01*
X92984480Y-102304720D01*
X92927099Y-102493881D01*
X92833917Y-102668212D01*
X92708515Y-102821015D01*
X92555712Y-102946417D01*
X92381381Y-103039599D01*
X92192220Y-103096980D01*
X92093936Y-103106660D01*
X92044795Y-103111500D01*
X91851205Y-103111500D01*
X91802064Y-103106660D01*
X91703780Y-103096980D01*
X91514619Y-103039599D01*
X91340288Y-102946417D01*
X91187485Y-102821015D01*
X91062083Y-102668212D01*
X90968901Y-102493881D01*
X90911520Y-102304720D01*
X90892145Y-102108000D01*
X90911520Y-101911280D01*
X90968901Y-101722119D01*
X91062083Y-101547788D01*
X91187485Y-101394985D01*
X91340288Y-101269583D01*
X91514619Y-101176401D01*
X91703780Y-101119020D01*
X91802064Y-101109340D01*
X91851205Y-101104500D01*
X92044795Y-101104500D01*
X92093936Y-101109340D01*
X92093936Y-101109340D01*
G37*
G36*
X42817936Y-101109340D02*
G01*
X42916220Y-101119020D01*
X43105381Y-101176401D01*
X43279712Y-101269583D01*
X43432515Y-101394985D01*
X43557917Y-101547788D01*
X43651099Y-101722119D01*
X43708480Y-101911280D01*
X43727855Y-102108000D01*
X43708480Y-102304720D01*
X43651099Y-102493881D01*
X43557917Y-102668212D01*
X43432515Y-102821015D01*
X43279712Y-102946417D01*
X43105381Y-103039599D01*
X42916220Y-103096980D01*
X42817936Y-103106660D01*
X42768795Y-103111500D01*
X42575205Y-103111500D01*
X42526064Y-103106660D01*
X42427780Y-103096980D01*
X42238619Y-103039599D01*
X42064288Y-102946417D01*
X41911485Y-102821015D01*
X41786083Y-102668212D01*
X41692901Y-102493881D01*
X41635520Y-102304720D01*
X41616145Y-102108000D01*
X41635520Y-101911280D01*
X41692901Y-101722119D01*
X41786083Y-101547788D01*
X41911485Y-101394985D01*
X42064288Y-101269583D01*
X42238619Y-101176401D01*
X42427780Y-101119020D01*
X42526064Y-101109340D01*
X42575205Y-101104500D01*
X42768795Y-101104500D01*
X42817936Y-101109340D01*
X42817936Y-101109340D01*
G37*
G36*
X47810823Y-100507313D02*
G01*
X47971242Y-100555976D01*
X48103906Y-100626886D01*
X48119078Y-100634996D01*
X48248659Y-100741341D01*
X48355004Y-100870922D01*
X48355005Y-100870924D01*
X48434024Y-101018758D01*
X48482687Y-101179177D01*
X48499117Y-101346000D01*
X48482687Y-101512823D01*
X48434024Y-101673242D01*
X48363114Y-101805906D01*
X48355004Y-101821078D01*
X48248659Y-101950659D01*
X48119078Y-102057004D01*
X48119076Y-102057005D01*
X47971242Y-102136024D01*
X47810823Y-102184687D01*
X47685804Y-102197000D01*
X46802196Y-102197000D01*
X46677177Y-102184687D01*
X46516758Y-102136024D01*
X46368924Y-102057005D01*
X46368922Y-102057004D01*
X46239341Y-101950659D01*
X46132996Y-101821078D01*
X46124886Y-101805906D01*
X46053976Y-101673242D01*
X46005313Y-101512823D01*
X45988883Y-101346000D01*
X46005313Y-101179177D01*
X46053976Y-101018758D01*
X46132995Y-100870924D01*
X46132996Y-100870922D01*
X46239341Y-100741341D01*
X46368922Y-100634996D01*
X46384094Y-100626886D01*
X46516758Y-100555976D01*
X46677177Y-100507313D01*
X46802196Y-100495000D01*
X47685804Y-100495000D01*
X47810823Y-100507313D01*
X47810823Y-100507313D01*
G37*
G36*
X55430823Y-100507313D02*
G01*
X55591242Y-100555976D01*
X55723906Y-100626886D01*
X55739078Y-100634996D01*
X55868659Y-100741341D01*
X55975004Y-100870922D01*
X55975005Y-100870924D01*
X56054024Y-101018758D01*
X56102687Y-101179177D01*
X56119117Y-101346000D01*
X56102687Y-101512823D01*
X56054024Y-101673242D01*
X55983114Y-101805906D01*
X55975004Y-101821078D01*
X55868659Y-101950659D01*
X55739078Y-102057004D01*
X55739076Y-102057005D01*
X55591242Y-102136024D01*
X55430823Y-102184687D01*
X55305804Y-102197000D01*
X54422196Y-102197000D01*
X54297177Y-102184687D01*
X54136758Y-102136024D01*
X53988924Y-102057005D01*
X53988922Y-102057004D01*
X53859341Y-101950659D01*
X53752996Y-101821078D01*
X53744886Y-101805906D01*
X53673976Y-101673242D01*
X53625313Y-101512823D01*
X53608883Y-101346000D01*
X53625313Y-101179177D01*
X53673976Y-101018758D01*
X53752995Y-100870924D01*
X53752996Y-100870922D01*
X53859341Y-100741341D01*
X53988922Y-100634996D01*
X54004094Y-100626886D01*
X54136758Y-100555976D01*
X54297177Y-100507313D01*
X54422196Y-100495000D01*
X55305804Y-100495000D01*
X55430823Y-100507313D01*
X55430823Y-100507313D01*
G37*
G36*
X104706823Y-100507313D02*
G01*
X104867242Y-100555976D01*
X104999906Y-100626886D01*
X105015078Y-100634996D01*
X105144659Y-100741341D01*
X105251004Y-100870922D01*
X105251005Y-100870924D01*
X105330024Y-101018758D01*
X105378687Y-101179177D01*
X105395117Y-101346000D01*
X105378687Y-101512823D01*
X105330024Y-101673242D01*
X105259114Y-101805906D01*
X105251004Y-101821078D01*
X105144659Y-101950659D01*
X105015078Y-102057004D01*
X105015076Y-102057005D01*
X104867242Y-102136024D01*
X104706823Y-102184687D01*
X104581804Y-102197000D01*
X103698196Y-102197000D01*
X103573177Y-102184687D01*
X103412758Y-102136024D01*
X103264924Y-102057005D01*
X103264922Y-102057004D01*
X103135341Y-101950659D01*
X103028996Y-101821078D01*
X103020886Y-101805906D01*
X102949976Y-101673242D01*
X102901313Y-101512823D01*
X102884883Y-101346000D01*
X102901313Y-101179177D01*
X102949976Y-101018758D01*
X103028995Y-100870924D01*
X103028996Y-100870922D01*
X103135341Y-100741341D01*
X103264922Y-100634996D01*
X103280094Y-100626886D01*
X103412758Y-100555976D01*
X103573177Y-100507313D01*
X103698196Y-100495000D01*
X104581804Y-100495000D01*
X104706823Y-100507313D01*
X104706823Y-100507313D01*
G37*
G36*
X97086823Y-100507313D02*
G01*
X97247242Y-100555976D01*
X97379906Y-100626886D01*
X97395078Y-100634996D01*
X97524659Y-100741341D01*
X97631004Y-100870922D01*
X97631005Y-100870924D01*
X97710024Y-101018758D01*
X97758687Y-101179177D01*
X97775117Y-101346000D01*
X97758687Y-101512823D01*
X97710024Y-101673242D01*
X97639114Y-101805906D01*
X97631004Y-101821078D01*
X97524659Y-101950659D01*
X97395078Y-102057004D01*
X97395076Y-102057005D01*
X97247242Y-102136024D01*
X97086823Y-102184687D01*
X96961804Y-102197000D01*
X96078196Y-102197000D01*
X95953177Y-102184687D01*
X95792758Y-102136024D01*
X95644924Y-102057005D01*
X95644922Y-102057004D01*
X95515341Y-101950659D01*
X95408996Y-101821078D01*
X95400886Y-101805906D01*
X95329976Y-101673242D01*
X95281313Y-101512823D01*
X95264883Y-101346000D01*
X95281313Y-101179177D01*
X95329976Y-101018758D01*
X95408995Y-100870924D01*
X95408996Y-100870922D01*
X95515341Y-100741341D01*
X95644922Y-100634996D01*
X95660094Y-100626886D01*
X95792758Y-100555976D01*
X95953177Y-100507313D01*
X96078196Y-100495000D01*
X96961804Y-100495000D01*
X97086823Y-100507313D01*
X97086823Y-100507313D01*
G37*
G36*
X82690072Y-98522918D02*
G01*
X82815576Y-98574903D01*
X82935939Y-98624759D01*
X83047328Y-98699187D01*
X83157211Y-98772609D01*
X83345391Y-98960789D01*
X83493242Y-99182063D01*
X83595082Y-99427928D01*
X83628519Y-99596025D01*
X83647000Y-99688938D01*
X83647000Y-99955062D01*
X83595082Y-100216072D01*
X83493241Y-100461939D01*
X83345390Y-100683212D01*
X83157212Y-100871390D01*
X82935939Y-101019241D01*
X82935938Y-101019242D01*
X82935937Y-101019242D01*
X82690072Y-101121082D01*
X82429063Y-101173000D01*
X82162937Y-101173000D01*
X81901928Y-101121082D01*
X81656063Y-101019242D01*
X81656062Y-101019242D01*
X81656061Y-101019241D01*
X81434788Y-100871390D01*
X81246610Y-100683212D01*
X81098759Y-100461939D01*
X80996918Y-100216072D01*
X80945000Y-99955062D01*
X80945000Y-99688938D01*
X80963482Y-99596025D01*
X80996918Y-99427928D01*
X81098758Y-99182063D01*
X81246609Y-98960789D01*
X81434789Y-98772609D01*
X81544672Y-98699187D01*
X81656061Y-98624759D01*
X81776425Y-98574903D01*
X81901928Y-98522918D01*
X82162937Y-98471000D01*
X82429063Y-98471000D01*
X82690072Y-98522918D01*
X82690072Y-98522918D01*
G37*
G36*
X33414072Y-98522918D02*
G01*
X33539576Y-98574903D01*
X33659939Y-98624759D01*
X33771328Y-98699187D01*
X33881211Y-98772609D01*
X34069391Y-98960789D01*
X34217242Y-99182063D01*
X34319082Y-99427928D01*
X34352519Y-99596025D01*
X34371000Y-99688938D01*
X34371000Y-99955062D01*
X34319082Y-100216072D01*
X34217241Y-100461939D01*
X34069390Y-100683212D01*
X33881212Y-100871390D01*
X33659939Y-101019241D01*
X33659938Y-101019242D01*
X33659937Y-101019242D01*
X33414072Y-101121082D01*
X33153063Y-101173000D01*
X32886937Y-101173000D01*
X32625928Y-101121082D01*
X32380063Y-101019242D01*
X32380062Y-101019242D01*
X32380061Y-101019241D01*
X32158788Y-100871390D01*
X31970610Y-100683212D01*
X31822759Y-100461939D01*
X31720918Y-100216072D01*
X31669000Y-99955062D01*
X31669000Y-99688938D01*
X31687482Y-99596025D01*
X31720918Y-99427928D01*
X31822758Y-99182063D01*
X31970609Y-98960789D01*
X32158789Y-98772609D01*
X32268672Y-98699187D01*
X32380061Y-98624759D01*
X32500425Y-98574903D01*
X32625928Y-98522918D01*
X32886937Y-98471000D01*
X33153063Y-98471000D01*
X33414072Y-98522918D01*
X33414072Y-98522918D01*
G37*
G36*
X92093936Y-98569340D02*
G01*
X92192220Y-98579020D01*
X92381381Y-98636401D01*
X92555712Y-98729583D01*
X92708515Y-98854985D01*
X92833917Y-99007788D01*
X92927099Y-99182119D01*
X92984480Y-99371280D01*
X93003855Y-99568000D01*
X92984480Y-99764720D01*
X92927099Y-99953881D01*
X92833917Y-100128212D01*
X92708515Y-100281015D01*
X92555712Y-100406417D01*
X92381381Y-100499599D01*
X92192220Y-100556980D01*
X92093936Y-100566660D01*
X92044795Y-100571500D01*
X91851205Y-100571500D01*
X91802064Y-100566660D01*
X91703780Y-100556980D01*
X91514619Y-100499599D01*
X91340288Y-100406417D01*
X91187485Y-100281015D01*
X91062083Y-100128212D01*
X90968901Y-99953881D01*
X90911520Y-99764720D01*
X90892145Y-99568000D01*
X90911520Y-99371280D01*
X90968901Y-99182119D01*
X91062083Y-99007788D01*
X91187485Y-98854985D01*
X91340288Y-98729583D01*
X91514619Y-98636401D01*
X91703780Y-98579020D01*
X91802064Y-98569340D01*
X91851205Y-98564500D01*
X92044795Y-98564500D01*
X92093936Y-98569340D01*
X92093936Y-98569340D01*
G37*
G36*
X42817936Y-98569340D02*
G01*
X42916220Y-98579020D01*
X43105381Y-98636401D01*
X43279712Y-98729583D01*
X43432515Y-98854985D01*
X43557917Y-99007788D01*
X43651099Y-99182119D01*
X43708480Y-99371280D01*
X43727855Y-99568000D01*
X43708480Y-99764720D01*
X43651099Y-99953881D01*
X43557917Y-100128212D01*
X43432515Y-100281015D01*
X43279712Y-100406417D01*
X43105381Y-100499599D01*
X42916220Y-100556980D01*
X42817936Y-100566660D01*
X42768795Y-100571500D01*
X42575205Y-100571500D01*
X42526064Y-100566660D01*
X42427780Y-100556980D01*
X42238619Y-100499599D01*
X42064288Y-100406417D01*
X41911485Y-100281015D01*
X41786083Y-100128212D01*
X41692901Y-99953881D01*
X41635520Y-99764720D01*
X41616145Y-99568000D01*
X41635520Y-99371280D01*
X41692901Y-99182119D01*
X41786083Y-99007788D01*
X41911485Y-98854985D01*
X42064288Y-98729583D01*
X42238619Y-98636401D01*
X42427780Y-98579020D01*
X42526064Y-98569340D01*
X42575205Y-98564500D01*
X42768795Y-98564500D01*
X42817936Y-98569340D01*
X42817936Y-98569340D01*
G37*
G36*
X55430823Y-97967313D02*
G01*
X55591242Y-98015976D01*
X55723906Y-98086886D01*
X55739078Y-98094996D01*
X55868659Y-98201341D01*
X55975004Y-98330922D01*
X55975005Y-98330924D01*
X56054024Y-98478758D01*
X56102687Y-98639177D01*
X56119117Y-98806000D01*
X56102687Y-98972823D01*
X56054024Y-99133242D01*
X55983114Y-99265906D01*
X55975004Y-99281078D01*
X55868659Y-99410659D01*
X55739078Y-99517004D01*
X55739076Y-99517005D01*
X55591242Y-99596024D01*
X55430823Y-99644687D01*
X55305804Y-99657000D01*
X54422196Y-99657000D01*
X54297177Y-99644687D01*
X54136758Y-99596024D01*
X53988924Y-99517005D01*
X53988922Y-99517004D01*
X53859341Y-99410659D01*
X53752996Y-99281078D01*
X53744886Y-99265906D01*
X53673976Y-99133242D01*
X53625313Y-98972823D01*
X53608883Y-98806000D01*
X53625313Y-98639177D01*
X53673976Y-98478758D01*
X53752995Y-98330924D01*
X53752996Y-98330922D01*
X53859341Y-98201341D01*
X53988922Y-98094996D01*
X54004094Y-98086886D01*
X54136758Y-98015976D01*
X54297177Y-97967313D01*
X54422196Y-97955000D01*
X55305804Y-97955000D01*
X55430823Y-97967313D01*
X55430823Y-97967313D01*
G37*
G36*
X48495000Y-99657000D02*
G01*
X45993000Y-99657000D01*
X45993000Y-97955000D01*
X48495000Y-97955000D01*
X48495000Y-99657000D01*
X48495000Y-99657000D01*
G37*
G36*
X60110823Y-97967313D02*
G01*
X60271242Y-98015976D01*
X60403906Y-98086886D01*
X60419078Y-98094996D01*
X60548659Y-98201341D01*
X60655004Y-98330922D01*
X60655005Y-98330924D01*
X60734024Y-98478758D01*
X60782687Y-98639177D01*
X60799117Y-98806000D01*
X60782687Y-98972823D01*
X60734024Y-99133242D01*
X60663114Y-99265906D01*
X60655004Y-99281078D01*
X60548659Y-99410659D01*
X60419078Y-99517004D01*
X60419076Y-99517005D01*
X60271242Y-99596024D01*
X60110823Y-99644687D01*
X59985804Y-99657000D01*
X59902196Y-99657000D01*
X59777177Y-99644687D01*
X59616758Y-99596024D01*
X59468924Y-99517005D01*
X59468922Y-99517004D01*
X59339341Y-99410659D01*
X59232996Y-99281078D01*
X59224886Y-99265906D01*
X59153976Y-99133242D01*
X59105313Y-98972823D01*
X59088883Y-98806000D01*
X59105313Y-98639177D01*
X59153976Y-98478758D01*
X59232995Y-98330924D01*
X59232996Y-98330922D01*
X59339341Y-98201341D01*
X59468922Y-98094996D01*
X59484094Y-98086886D01*
X59616758Y-98015976D01*
X59777177Y-97967313D01*
X59902196Y-97955000D01*
X59985804Y-97955000D01*
X60110823Y-97967313D01*
X60110823Y-97967313D01*
G37*
G36*
X97771000Y-99657000D02*
G01*
X95269000Y-99657000D01*
X95269000Y-97955000D01*
X97771000Y-97955000D01*
X97771000Y-99657000D01*
X97771000Y-99657000D01*
G37*
G36*
X109386823Y-97967313D02*
G01*
X109547242Y-98015976D01*
X109679906Y-98086886D01*
X109695078Y-98094996D01*
X109824659Y-98201341D01*
X109931004Y-98330922D01*
X109931005Y-98330924D01*
X110010024Y-98478758D01*
X110058687Y-98639177D01*
X110075117Y-98806000D01*
X110058687Y-98972823D01*
X110010024Y-99133242D01*
X109939114Y-99265906D01*
X109931004Y-99281078D01*
X109824659Y-99410659D01*
X109695078Y-99517004D01*
X109695076Y-99517005D01*
X109547242Y-99596024D01*
X109386823Y-99644687D01*
X109261804Y-99657000D01*
X109178196Y-99657000D01*
X109053177Y-99644687D01*
X108892758Y-99596024D01*
X108744924Y-99517005D01*
X108744922Y-99517004D01*
X108615341Y-99410659D01*
X108508996Y-99281078D01*
X108500886Y-99265906D01*
X108429976Y-99133242D01*
X108381313Y-98972823D01*
X108364883Y-98806000D01*
X108381313Y-98639177D01*
X108429976Y-98478758D01*
X108508995Y-98330924D01*
X108508996Y-98330922D01*
X108615341Y-98201341D01*
X108744922Y-98094996D01*
X108760094Y-98086886D01*
X108892758Y-98015976D01*
X109053177Y-97967313D01*
X109178196Y-97955000D01*
X109261804Y-97955000D01*
X109386823Y-97967313D01*
X109386823Y-97967313D01*
G37*
G36*
X104706823Y-97967313D02*
G01*
X104867242Y-98015976D01*
X104999906Y-98086886D01*
X105015078Y-98094996D01*
X105144659Y-98201341D01*
X105251004Y-98330922D01*
X105251005Y-98330924D01*
X105330024Y-98478758D01*
X105378687Y-98639177D01*
X105395117Y-98806000D01*
X105378687Y-98972823D01*
X105330024Y-99133242D01*
X105259114Y-99265906D01*
X105251004Y-99281078D01*
X105144659Y-99410659D01*
X105015078Y-99517004D01*
X105015076Y-99517005D01*
X104867242Y-99596024D01*
X104706823Y-99644687D01*
X104581804Y-99657000D01*
X103698196Y-99657000D01*
X103573177Y-99644687D01*
X103412758Y-99596024D01*
X103264924Y-99517005D01*
X103264922Y-99517004D01*
X103135341Y-99410659D01*
X103028996Y-99281078D01*
X103020886Y-99265906D01*
X102949976Y-99133242D01*
X102901313Y-98972823D01*
X102884883Y-98806000D01*
X102901313Y-98639177D01*
X102949976Y-98478758D01*
X103028995Y-98330924D01*
X103028996Y-98330922D01*
X103135341Y-98201341D01*
X103264922Y-98094996D01*
X103280094Y-98086886D01*
X103412758Y-98015976D01*
X103573177Y-97967313D01*
X103698196Y-97955000D01*
X104581804Y-97955000D01*
X104706823Y-97967313D01*
X104706823Y-97967313D01*
G37*
G36*
X72833000Y-98995000D02*
G01*
X70931000Y-98995000D01*
X70931000Y-97093000D01*
X72833000Y-97093000D01*
X72833000Y-98995000D01*
X72833000Y-98995000D01*
G37*
G36*
X64194425Y-97106760D02*
G01*
X64194428Y-97106761D01*
X64194429Y-97106761D01*
X64373693Y-97161140D01*
X64373696Y-97161142D01*
X64373697Y-97161142D01*
X64538903Y-97249446D01*
X64683712Y-97368288D01*
X64802554Y-97513097D01*
X64890858Y-97678303D01*
X64890860Y-97678307D01*
X64945239Y-97857571D01*
X64945240Y-97857575D01*
X64963601Y-98044000D01*
X64945240Y-98230425D01*
X64945239Y-98230428D01*
X64945239Y-98230429D01*
X64890860Y-98409693D01*
X64890858Y-98409696D01*
X64890858Y-98409697D01*
X64802554Y-98574903D01*
X64683712Y-98719712D01*
X64538903Y-98838554D01*
X64373697Y-98926858D01*
X64373693Y-98926860D01*
X64194429Y-98981239D01*
X64194428Y-98981239D01*
X64194425Y-98981240D01*
X64054718Y-98995000D01*
X63961282Y-98995000D01*
X63821575Y-98981240D01*
X63821572Y-98981239D01*
X63821571Y-98981239D01*
X63642307Y-98926860D01*
X63642303Y-98926858D01*
X63477097Y-98838554D01*
X63332288Y-98719712D01*
X63213446Y-98574903D01*
X63125142Y-98409697D01*
X63125142Y-98409696D01*
X63125140Y-98409693D01*
X63070761Y-98230429D01*
X63070761Y-98230428D01*
X63070760Y-98230425D01*
X63052399Y-98044000D01*
X63070760Y-97857575D01*
X63070761Y-97857571D01*
X63125140Y-97678307D01*
X63125142Y-97678303D01*
X63213446Y-97513097D01*
X63332288Y-97368288D01*
X63477097Y-97249446D01*
X63642303Y-97161142D01*
X63642304Y-97161142D01*
X63642307Y-97161140D01*
X63821571Y-97106761D01*
X63821572Y-97106761D01*
X63821575Y-97106760D01*
X63961282Y-97093000D01*
X64054718Y-97093000D01*
X64194425Y-97106760D01*
X64194425Y-97106760D01*
G37*
G36*
X113470425Y-97106760D02*
G01*
X113470428Y-97106761D01*
X113470429Y-97106761D01*
X113649693Y-97161140D01*
X113649696Y-97161142D01*
X113649697Y-97161142D01*
X113814903Y-97249446D01*
X113959712Y-97368288D01*
X114078554Y-97513097D01*
X114166858Y-97678303D01*
X114166860Y-97678307D01*
X114221239Y-97857571D01*
X114221240Y-97857575D01*
X114239601Y-98044000D01*
X114221240Y-98230425D01*
X114221239Y-98230428D01*
X114221239Y-98230429D01*
X114166860Y-98409693D01*
X114166858Y-98409696D01*
X114166858Y-98409697D01*
X114078554Y-98574903D01*
X113959712Y-98719712D01*
X113814903Y-98838554D01*
X113649697Y-98926858D01*
X113649693Y-98926860D01*
X113470429Y-98981239D01*
X113470428Y-98981239D01*
X113470425Y-98981240D01*
X113330718Y-98995000D01*
X113237282Y-98995000D01*
X113097575Y-98981240D01*
X113097572Y-98981239D01*
X113097571Y-98981239D01*
X112918307Y-98926860D01*
X112918303Y-98926858D01*
X112753097Y-98838554D01*
X112608288Y-98719712D01*
X112489446Y-98574903D01*
X112401142Y-98409697D01*
X112401142Y-98409696D01*
X112401140Y-98409693D01*
X112346761Y-98230429D01*
X112346761Y-98230428D01*
X112346760Y-98230425D01*
X112328399Y-98044000D01*
X112346760Y-97857575D01*
X112346761Y-97857571D01*
X112401140Y-97678307D01*
X112401142Y-97678303D01*
X112489446Y-97513097D01*
X112608288Y-97368288D01*
X112753097Y-97249446D01*
X112918303Y-97161142D01*
X112918304Y-97161142D01*
X112918307Y-97161140D01*
X113097571Y-97106761D01*
X113097572Y-97106761D01*
X113097575Y-97106760D01*
X113237282Y-97093000D01*
X113330718Y-97093000D01*
X113470425Y-97106760D01*
X113470425Y-97106760D01*
G37*
G36*
X122109000Y-98995000D02*
G01*
X120207000Y-98995000D01*
X120207000Y-97093000D01*
X122109000Y-97093000D01*
X122109000Y-98995000D01*
X122109000Y-98995000D01*
G37*
G36*
X83647000Y-92915000D02*
G01*
X80945000Y-92915000D01*
X80945000Y-90213000D01*
X83647000Y-90213000D01*
X83647000Y-92915000D01*
X83647000Y-92915000D01*
G37*
G36*
X34371000Y-92915000D02*
G01*
X31669000Y-92915000D01*
X31669000Y-90213000D01*
X34371000Y-90213000D01*
X34371000Y-92915000D01*
X34371000Y-92915000D01*
G37*
G36*
X53334228Y-89859703D02*
G01*
X53489100Y-89923853D01*
X53628481Y-90016985D01*
X53747015Y-90135519D01*
X53840147Y-90274900D01*
X53904297Y-90429772D01*
X53937000Y-90594184D01*
X53937000Y-90761816D01*
X53904297Y-90926228D01*
X53840147Y-91081100D01*
X53747015Y-91220481D01*
X53628481Y-91339015D01*
X53489100Y-91432147D01*
X53334228Y-91496297D01*
X53169816Y-91529000D01*
X53002184Y-91529000D01*
X52837772Y-91496297D01*
X52682900Y-91432147D01*
X52543519Y-91339015D01*
X52424985Y-91220481D01*
X52331853Y-91081100D01*
X52267703Y-90926228D01*
X52235000Y-90761816D01*
X52235000Y-90594184D01*
X52267703Y-90429772D01*
X52331853Y-90274900D01*
X52424985Y-90135519D01*
X52543519Y-90016985D01*
X52682900Y-89923853D01*
X52837772Y-89859703D01*
X53002184Y-89827000D01*
X53169816Y-89827000D01*
X53334228Y-89859703D01*
X53334228Y-89859703D01*
G37*
G36*
X102610228Y-89859703D02*
G01*
X102765100Y-89923853D01*
X102904481Y-90016985D01*
X103023015Y-90135519D01*
X103116147Y-90274900D01*
X103180297Y-90429772D01*
X103213000Y-90594184D01*
X103213000Y-90761816D01*
X103180297Y-90926228D01*
X103116147Y-91081100D01*
X103023015Y-91220481D01*
X102904481Y-91339015D01*
X102765100Y-91432147D01*
X102610228Y-91496297D01*
X102445816Y-91529000D01*
X102278184Y-91529000D01*
X102113772Y-91496297D01*
X101958900Y-91432147D01*
X101819519Y-91339015D01*
X101700985Y-91220481D01*
X101607853Y-91081100D01*
X101543703Y-90926228D01*
X101511000Y-90761816D01*
X101511000Y-90594184D01*
X101543703Y-90429772D01*
X101607853Y-90274900D01*
X101700985Y-90135519D01*
X101819519Y-90016985D01*
X101958900Y-89923853D01*
X102113772Y-89859703D01*
X102278184Y-89827000D01*
X102445816Y-89827000D01*
X102610228Y-89859703D01*
X102610228Y-89859703D01*
G37*
G36*
X43777000Y-91529000D02*
G01*
X42075000Y-91529000D01*
X42075000Y-89827000D01*
X43777000Y-89827000D01*
X43777000Y-91529000D01*
X43777000Y-91529000D01*
G37*
G36*
X57398228Y-89859703D02*
G01*
X57553100Y-89923853D01*
X57692481Y-90016985D01*
X57811015Y-90135519D01*
X57904147Y-90274900D01*
X57968297Y-90429772D01*
X58001000Y-90594184D01*
X58001000Y-90761816D01*
X57968297Y-90926228D01*
X57904147Y-91081100D01*
X57811015Y-91220481D01*
X57692481Y-91339015D01*
X57553100Y-91432147D01*
X57398228Y-91496297D01*
X57233816Y-91529000D01*
X57066184Y-91529000D01*
X56901772Y-91496297D01*
X56746900Y-91432147D01*
X56607519Y-91339015D01*
X56488985Y-91220481D01*
X56395853Y-91081100D01*
X56331703Y-90926228D01*
X56299000Y-90761816D01*
X56299000Y-90594184D01*
X56331703Y-90429772D01*
X56395853Y-90274900D01*
X56488985Y-90135519D01*
X56607519Y-90016985D01*
X56746900Y-89923853D01*
X56901772Y-89859703D01*
X57066184Y-89827000D01*
X57233816Y-89827000D01*
X57398228Y-89859703D01*
X57398228Y-89859703D01*
G37*
G36*
X49270228Y-89859703D02*
G01*
X49425100Y-89923853D01*
X49564481Y-90016985D01*
X49683015Y-90135519D01*
X49776147Y-90274900D01*
X49840297Y-90429772D01*
X49873000Y-90594184D01*
X49873000Y-90761816D01*
X49840297Y-90926228D01*
X49776147Y-91081100D01*
X49683015Y-91220481D01*
X49564481Y-91339015D01*
X49425100Y-91432147D01*
X49270228Y-91496297D01*
X49105816Y-91529000D01*
X48938184Y-91529000D01*
X48773772Y-91496297D01*
X48618900Y-91432147D01*
X48479519Y-91339015D01*
X48360985Y-91220481D01*
X48267853Y-91081100D01*
X48203703Y-90926228D01*
X48171000Y-90761816D01*
X48171000Y-90594184D01*
X48203703Y-90429772D01*
X48267853Y-90274900D01*
X48360985Y-90135519D01*
X48479519Y-90016985D01*
X48618900Y-89923853D01*
X48773772Y-89859703D01*
X48938184Y-89827000D01*
X49105816Y-89827000D01*
X49270228Y-89859703D01*
X49270228Y-89859703D01*
G37*
G36*
X106674228Y-89859703D02*
G01*
X106829100Y-89923853D01*
X106968481Y-90016985D01*
X107087015Y-90135519D01*
X107180147Y-90274900D01*
X107244297Y-90429772D01*
X107277000Y-90594184D01*
X107277000Y-90761816D01*
X107244297Y-90926228D01*
X107180147Y-91081100D01*
X107087015Y-91220481D01*
X106968481Y-91339015D01*
X106829100Y-91432147D01*
X106674228Y-91496297D01*
X106509816Y-91529000D01*
X106342184Y-91529000D01*
X106177772Y-91496297D01*
X106022900Y-91432147D01*
X105883519Y-91339015D01*
X105764985Y-91220481D01*
X105671853Y-91081100D01*
X105607703Y-90926228D01*
X105575000Y-90761816D01*
X105575000Y-90594184D01*
X105607703Y-90429772D01*
X105671853Y-90274900D01*
X105764985Y-90135519D01*
X105883519Y-90016985D01*
X106022900Y-89923853D01*
X106177772Y-89859703D01*
X106342184Y-89827000D01*
X106509816Y-89827000D01*
X106674228Y-89859703D01*
X106674228Y-89859703D01*
G37*
G36*
X93053000Y-91529000D02*
G01*
X91351000Y-91529000D01*
X91351000Y-89827000D01*
X93053000Y-89827000D01*
X93053000Y-91529000D01*
X93053000Y-91529000D01*
G37*
G36*
X98546228Y-89859703D02*
G01*
X98701100Y-89923853D01*
X98840481Y-90016985D01*
X98959015Y-90135519D01*
X99052147Y-90274900D01*
X99116297Y-90429772D01*
X99149000Y-90594184D01*
X99149000Y-90761816D01*
X99116297Y-90926228D01*
X99052147Y-91081100D01*
X98959015Y-91220481D01*
X98840481Y-91339015D01*
X98701100Y-91432147D01*
X98546228Y-91496297D01*
X98381816Y-91529000D01*
X98214184Y-91529000D01*
X98049772Y-91496297D01*
X97894900Y-91432147D01*
X97755519Y-91339015D01*
X97636985Y-91220481D01*
X97543853Y-91081100D01*
X97479703Y-90926228D01*
X97447000Y-90761816D01*
X97447000Y-90594184D01*
X97479703Y-90429772D01*
X97543853Y-90274900D01*
X97636985Y-90135519D01*
X97755519Y-90016985D01*
X97894900Y-89923853D01*
X98049772Y-89859703D01*
X98214184Y-89827000D01*
X98381816Y-89827000D01*
X98546228Y-89859703D01*
X98546228Y-89859703D01*
G37*
G36*
X114235000Y-91375000D02*
G01*
X112333000Y-91375000D01*
X112333000Y-89473000D01*
X114235000Y-89473000D01*
X114235000Y-91375000D01*
X114235000Y-91375000D01*
G37*
G36*
X121344425Y-89486760D02*
G01*
X121344428Y-89486761D01*
X121344429Y-89486761D01*
X121523693Y-89541140D01*
X121523696Y-89541142D01*
X121523697Y-89541142D01*
X121688903Y-89629446D01*
X121833712Y-89748288D01*
X121952554Y-89893097D01*
X121968993Y-89923853D01*
X122040860Y-90058307D01*
X122064282Y-90135520D01*
X122095240Y-90237575D01*
X122113601Y-90424000D01*
X122095240Y-90610425D01*
X122095239Y-90610428D01*
X122095239Y-90610429D01*
X122040860Y-90789693D01*
X122040858Y-90789696D01*
X122040858Y-90789697D01*
X121952554Y-90954903D01*
X121833712Y-91099712D01*
X121688903Y-91218554D01*
X121523697Y-91306858D01*
X121523693Y-91306860D01*
X121344429Y-91361239D01*
X121344428Y-91361239D01*
X121344425Y-91361240D01*
X121204718Y-91375000D01*
X121111282Y-91375000D01*
X120971575Y-91361240D01*
X120971572Y-91361239D01*
X120971571Y-91361239D01*
X120792307Y-91306860D01*
X120792303Y-91306858D01*
X120627097Y-91218554D01*
X120482288Y-91099712D01*
X120363446Y-90954903D01*
X120275142Y-90789697D01*
X120275142Y-90789696D01*
X120275140Y-90789693D01*
X120220761Y-90610429D01*
X120220761Y-90610428D01*
X120220760Y-90610425D01*
X120202399Y-90424000D01*
X120220760Y-90237575D01*
X120251718Y-90135520D01*
X120275140Y-90058307D01*
X120347007Y-89923853D01*
X120363446Y-89893097D01*
X120482288Y-89748288D01*
X120627097Y-89629446D01*
X120792303Y-89541142D01*
X120792304Y-89541142D01*
X120792307Y-89541140D01*
X120971571Y-89486761D01*
X120971572Y-89486761D01*
X120971575Y-89486760D01*
X121111282Y-89473000D01*
X121204718Y-89473000D01*
X121344425Y-89486760D01*
X121344425Y-89486760D01*
G37*
G36*
X72068425Y-89486760D02*
G01*
X72068428Y-89486761D01*
X72068429Y-89486761D01*
X72247693Y-89541140D01*
X72247696Y-89541142D01*
X72247697Y-89541142D01*
X72412903Y-89629446D01*
X72557712Y-89748288D01*
X72676554Y-89893097D01*
X72692993Y-89923853D01*
X72764860Y-90058307D01*
X72788282Y-90135520D01*
X72819240Y-90237575D01*
X72837601Y-90424000D01*
X72819240Y-90610425D01*
X72819239Y-90610428D01*
X72819239Y-90610429D01*
X72764860Y-90789693D01*
X72764858Y-90789696D01*
X72764858Y-90789697D01*
X72676554Y-90954903D01*
X72557712Y-91099712D01*
X72412903Y-91218554D01*
X72247697Y-91306858D01*
X72247693Y-91306860D01*
X72068429Y-91361239D01*
X72068428Y-91361239D01*
X72068425Y-91361240D01*
X71928718Y-91375000D01*
X71835282Y-91375000D01*
X71695575Y-91361240D01*
X71695572Y-91361239D01*
X71695571Y-91361239D01*
X71516307Y-91306860D01*
X71516303Y-91306858D01*
X71351097Y-91218554D01*
X71206288Y-91099712D01*
X71087446Y-90954903D01*
X70999142Y-90789697D01*
X70999142Y-90789696D01*
X70999140Y-90789693D01*
X70944761Y-90610429D01*
X70944761Y-90610428D01*
X70944760Y-90610425D01*
X70926399Y-90424000D01*
X70944760Y-90237575D01*
X70975718Y-90135520D01*
X70999140Y-90058307D01*
X71071007Y-89923853D01*
X71087446Y-89893097D01*
X71206288Y-89748288D01*
X71351097Y-89629446D01*
X71516303Y-89541142D01*
X71516304Y-89541142D01*
X71516307Y-89541140D01*
X71695571Y-89486761D01*
X71695572Y-89486761D01*
X71695575Y-89486760D01*
X71835282Y-89473000D01*
X71928718Y-89473000D01*
X72068425Y-89486760D01*
X72068425Y-89486760D01*
G37*
G36*
X64959000Y-91375000D02*
G01*
X63057000Y-91375000D01*
X63057000Y-89473000D01*
X64959000Y-89473000D01*
X64959000Y-91375000D01*
X64959000Y-91375000D01*
G37*
G36*
X43174228Y-87359703D02*
G01*
X43329100Y-87423853D01*
X43468481Y-87516985D01*
X43587015Y-87635519D01*
X43680147Y-87774900D01*
X43744297Y-87929772D01*
X43777000Y-88094184D01*
X43777000Y-88261816D01*
X43744297Y-88426228D01*
X43680147Y-88581100D01*
X43587015Y-88720481D01*
X43468481Y-88839015D01*
X43329100Y-88932147D01*
X43174228Y-88996297D01*
X43009816Y-89029000D01*
X42842184Y-89029000D01*
X42677772Y-88996297D01*
X42522900Y-88932147D01*
X42383519Y-88839015D01*
X42264985Y-88720481D01*
X42171853Y-88581100D01*
X42107703Y-88426228D01*
X42075000Y-88261816D01*
X42075000Y-88094184D01*
X42107703Y-87929772D01*
X42171853Y-87774900D01*
X42264985Y-87635519D01*
X42383519Y-87516985D01*
X42522900Y-87423853D01*
X42677772Y-87359703D01*
X42842184Y-87327000D01*
X43009816Y-87327000D01*
X43174228Y-87359703D01*
X43174228Y-87359703D01*
G37*
G36*
X49270228Y-87359703D02*
G01*
X49425100Y-87423853D01*
X49564481Y-87516985D01*
X49683015Y-87635519D01*
X49776147Y-87774900D01*
X49840297Y-87929772D01*
X49873000Y-88094184D01*
X49873000Y-88261816D01*
X49840297Y-88426228D01*
X49776147Y-88581100D01*
X49683015Y-88720481D01*
X49564481Y-88839015D01*
X49425100Y-88932147D01*
X49270228Y-88996297D01*
X49105816Y-89029000D01*
X48938184Y-89029000D01*
X48773772Y-88996297D01*
X48618900Y-88932147D01*
X48479519Y-88839015D01*
X48360985Y-88720481D01*
X48267853Y-88581100D01*
X48203703Y-88426228D01*
X48171000Y-88261816D01*
X48171000Y-88094184D01*
X48203703Y-87929772D01*
X48267853Y-87774900D01*
X48360985Y-87635519D01*
X48479519Y-87516985D01*
X48618900Y-87423853D01*
X48773772Y-87359703D01*
X48938184Y-87327000D01*
X49105816Y-87327000D01*
X49270228Y-87359703D01*
X49270228Y-87359703D01*
G37*
G36*
X53334228Y-87359703D02*
G01*
X53489100Y-87423853D01*
X53628481Y-87516985D01*
X53747015Y-87635519D01*
X53840147Y-87774900D01*
X53904297Y-87929772D01*
X53937000Y-88094184D01*
X53937000Y-88261816D01*
X53904297Y-88426228D01*
X53840147Y-88581100D01*
X53747015Y-88720481D01*
X53628481Y-88839015D01*
X53489100Y-88932147D01*
X53334228Y-88996297D01*
X53169816Y-89029000D01*
X53002184Y-89029000D01*
X52837772Y-88996297D01*
X52682900Y-88932147D01*
X52543519Y-88839015D01*
X52424985Y-88720481D01*
X52331853Y-88581100D01*
X52267703Y-88426228D01*
X52235000Y-88261816D01*
X52235000Y-88094184D01*
X52267703Y-87929772D01*
X52331853Y-87774900D01*
X52424985Y-87635519D01*
X52543519Y-87516985D01*
X52682900Y-87423853D01*
X52837772Y-87359703D01*
X53002184Y-87327000D01*
X53169816Y-87327000D01*
X53334228Y-87359703D01*
X53334228Y-87359703D01*
G37*
G36*
X102610228Y-87359703D02*
G01*
X102765100Y-87423853D01*
X102904481Y-87516985D01*
X103023015Y-87635519D01*
X103116147Y-87774900D01*
X103180297Y-87929772D01*
X103213000Y-88094184D01*
X103213000Y-88261816D01*
X103180297Y-88426228D01*
X103116147Y-88581100D01*
X103023015Y-88720481D01*
X102904481Y-88839015D01*
X102765100Y-88932147D01*
X102610228Y-88996297D01*
X102445816Y-89029000D01*
X102278184Y-89029000D01*
X102113772Y-88996297D01*
X101958900Y-88932147D01*
X101819519Y-88839015D01*
X101700985Y-88720481D01*
X101607853Y-88581100D01*
X101543703Y-88426228D01*
X101511000Y-88261816D01*
X101511000Y-88094184D01*
X101543703Y-87929772D01*
X101607853Y-87774900D01*
X101700985Y-87635519D01*
X101819519Y-87516985D01*
X101958900Y-87423853D01*
X102113772Y-87359703D01*
X102278184Y-87327000D01*
X102445816Y-87327000D01*
X102610228Y-87359703D01*
X102610228Y-87359703D01*
G37*
G36*
X92450228Y-87359703D02*
G01*
X92605100Y-87423853D01*
X92744481Y-87516985D01*
X92863015Y-87635519D01*
X92956147Y-87774900D01*
X93020297Y-87929772D01*
X93053000Y-88094184D01*
X93053000Y-88261816D01*
X93020297Y-88426228D01*
X92956147Y-88581100D01*
X92863015Y-88720481D01*
X92744481Y-88839015D01*
X92605100Y-88932147D01*
X92450228Y-88996297D01*
X92285816Y-89029000D01*
X92118184Y-89029000D01*
X91953772Y-88996297D01*
X91798900Y-88932147D01*
X91659519Y-88839015D01*
X91540985Y-88720481D01*
X91447853Y-88581100D01*
X91383703Y-88426228D01*
X91351000Y-88261816D01*
X91351000Y-88094184D01*
X91383703Y-87929772D01*
X91447853Y-87774900D01*
X91540985Y-87635519D01*
X91659519Y-87516985D01*
X91798900Y-87423853D01*
X91953772Y-87359703D01*
X92118184Y-87327000D01*
X92285816Y-87327000D01*
X92450228Y-87359703D01*
X92450228Y-87359703D01*
G37*
G36*
X98546228Y-87359703D02*
G01*
X98701100Y-87423853D01*
X98840481Y-87516985D01*
X98959015Y-87635519D01*
X99052147Y-87774900D01*
X99116297Y-87929772D01*
X99149000Y-88094184D01*
X99149000Y-88261816D01*
X99116297Y-88426228D01*
X99052147Y-88581100D01*
X98959015Y-88720481D01*
X98840481Y-88839015D01*
X98701100Y-88932147D01*
X98546228Y-88996297D01*
X98381816Y-89029000D01*
X98214184Y-89029000D01*
X98049772Y-88996297D01*
X97894900Y-88932147D01*
X97755519Y-88839015D01*
X97636985Y-88720481D01*
X97543853Y-88581100D01*
X97479703Y-88426228D01*
X97447000Y-88261816D01*
X97447000Y-88094184D01*
X97479703Y-87929772D01*
X97543853Y-87774900D01*
X97636985Y-87635519D01*
X97755519Y-87516985D01*
X97894900Y-87423853D01*
X98049772Y-87359703D01*
X98214184Y-87327000D01*
X98381816Y-87327000D01*
X98546228Y-87359703D01*
X98546228Y-87359703D01*
G37*
G36*
X106674228Y-87359703D02*
G01*
X106829100Y-87423853D01*
X106968481Y-87516985D01*
X107087015Y-87635519D01*
X107180147Y-87774900D01*
X107244297Y-87929772D01*
X107277000Y-88094184D01*
X107277000Y-88261816D01*
X107244297Y-88426228D01*
X107180147Y-88581100D01*
X107087015Y-88720481D01*
X106968481Y-88839015D01*
X106829100Y-88932147D01*
X106674228Y-88996297D01*
X106509816Y-89029000D01*
X106342184Y-89029000D01*
X106177772Y-88996297D01*
X106022900Y-88932147D01*
X105883519Y-88839015D01*
X105764985Y-88720481D01*
X105671853Y-88581100D01*
X105607703Y-88426228D01*
X105575000Y-88261816D01*
X105575000Y-88094184D01*
X105607703Y-87929772D01*
X105671853Y-87774900D01*
X105764985Y-87635519D01*
X105883519Y-87516985D01*
X106022900Y-87423853D01*
X106177772Y-87359703D01*
X106342184Y-87327000D01*
X106509816Y-87327000D01*
X106674228Y-87359703D01*
X106674228Y-87359703D01*
G37*
G36*
X57398228Y-87359703D02*
G01*
X57553100Y-87423853D01*
X57692481Y-87516985D01*
X57811015Y-87635519D01*
X57904147Y-87774900D01*
X57968297Y-87929772D01*
X58001000Y-88094184D01*
X58001000Y-88261816D01*
X57968297Y-88426228D01*
X57904147Y-88581100D01*
X57811015Y-88720481D01*
X57692481Y-88839015D01*
X57553100Y-88932147D01*
X57398228Y-88996297D01*
X57233816Y-89029000D01*
X57066184Y-89029000D01*
X56901772Y-88996297D01*
X56746900Y-88932147D01*
X56607519Y-88839015D01*
X56488985Y-88720481D01*
X56395853Y-88581100D01*
X56331703Y-88426228D01*
X56299000Y-88261816D01*
X56299000Y-88094184D01*
X56331703Y-87929772D01*
X56395853Y-87774900D01*
X56488985Y-87635519D01*
X56607519Y-87516985D01*
X56746900Y-87423853D01*
X56901772Y-87359703D01*
X57066184Y-87327000D01*
X57233816Y-87327000D01*
X57398228Y-87359703D01*
X57398228Y-87359703D01*
G37*
G36*
X82690072Y-85184918D02*
G01*
X82897317Y-85270761D01*
X82935939Y-85286759D01*
X83030242Y-85349771D01*
X83157211Y-85434609D01*
X83345391Y-85622789D01*
X83493242Y-85844063D01*
X83595082Y-86089928D01*
X83628716Y-86259015D01*
X83647000Y-86350938D01*
X83647000Y-86617062D01*
X83595082Y-86878072D01*
X83493241Y-87123939D01*
X83345390Y-87345212D01*
X83157212Y-87533390D01*
X82935939Y-87681241D01*
X82935938Y-87681242D01*
X82935937Y-87681242D01*
X82690072Y-87783082D01*
X82429063Y-87835000D01*
X82162937Y-87835000D01*
X81901928Y-87783082D01*
X81656063Y-87681242D01*
X81656062Y-87681242D01*
X81656061Y-87681241D01*
X81434788Y-87533390D01*
X81246610Y-87345212D01*
X81098759Y-87123939D01*
X80996918Y-86878072D01*
X80945000Y-86617062D01*
X80945000Y-86350938D01*
X80963285Y-86259015D01*
X80996918Y-86089928D01*
X81098758Y-85844063D01*
X81246609Y-85622789D01*
X81434789Y-85434609D01*
X81561758Y-85349771D01*
X81656061Y-85286759D01*
X81694684Y-85270761D01*
X81901928Y-85184918D01*
X82162937Y-85133000D01*
X82429063Y-85133000D01*
X82690072Y-85184918D01*
X82690072Y-85184918D01*
G37*
G36*
X33414072Y-85184918D02*
G01*
X33621317Y-85270761D01*
X33659939Y-85286759D01*
X33754242Y-85349771D01*
X33881211Y-85434609D01*
X34069391Y-85622789D01*
X34217242Y-85844063D01*
X34319082Y-86089928D01*
X34352716Y-86259015D01*
X34371000Y-86350938D01*
X34371000Y-86617062D01*
X34319082Y-86878072D01*
X34217241Y-87123939D01*
X34069390Y-87345212D01*
X33881212Y-87533390D01*
X33659939Y-87681241D01*
X33659938Y-87681242D01*
X33659937Y-87681242D01*
X33414072Y-87783082D01*
X33153063Y-87835000D01*
X32886937Y-87835000D01*
X32625928Y-87783082D01*
X32380063Y-87681242D01*
X32380062Y-87681242D01*
X32380061Y-87681241D01*
X32158788Y-87533390D01*
X31970610Y-87345212D01*
X31822759Y-87123939D01*
X31720918Y-86878072D01*
X31669000Y-86617062D01*
X31669000Y-86350938D01*
X31687285Y-86259015D01*
X31720918Y-86089928D01*
X31822758Y-85844063D01*
X31970609Y-85622789D01*
X32158789Y-85434609D01*
X32285758Y-85349771D01*
X32380061Y-85286759D01*
X32418684Y-85270761D01*
X32625928Y-85184918D01*
X32886937Y-85133000D01*
X33153063Y-85133000D01*
X33414072Y-85184918D01*
X33414072Y-85184918D01*
G37*
G36*
X122086823Y-84759313D02*
G01*
X122247242Y-84807976D01*
X122314361Y-84843852D01*
X122395078Y-84886996D01*
X122524659Y-84993341D01*
X122631004Y-85122922D01*
X122631005Y-85122924D01*
X122710024Y-85270758D01*
X122758687Y-85431177D01*
X122775117Y-85598000D01*
X122758687Y-85764823D01*
X122710024Y-85925242D01*
X122669477Y-86001100D01*
X122631004Y-86073078D01*
X122524659Y-86202659D01*
X122395078Y-86309004D01*
X122395076Y-86309005D01*
X122247242Y-86388024D01*
X122086823Y-86436687D01*
X121961804Y-86449000D01*
X121878196Y-86449000D01*
X121753177Y-86436687D01*
X121592758Y-86388024D01*
X121444924Y-86309005D01*
X121444922Y-86309004D01*
X121315341Y-86202659D01*
X121208996Y-86073078D01*
X121170523Y-86001100D01*
X121129976Y-85925242D01*
X121081313Y-85764823D01*
X121064883Y-85598000D01*
X121081313Y-85431177D01*
X121129976Y-85270758D01*
X121208995Y-85122924D01*
X121208996Y-85122922D01*
X121315341Y-84993341D01*
X121444922Y-84886996D01*
X121525639Y-84843852D01*
X121592758Y-84807976D01*
X121753177Y-84759313D01*
X121878196Y-84747000D01*
X121961804Y-84747000D01*
X122086823Y-84759313D01*
X122086823Y-84759313D01*
G37*
G36*
X72810823Y-84759313D02*
G01*
X72971242Y-84807976D01*
X73038361Y-84843852D01*
X73119078Y-84886996D01*
X73248659Y-84993341D01*
X73355004Y-85122922D01*
X73355005Y-85122924D01*
X73434024Y-85270758D01*
X73482687Y-85431177D01*
X73499117Y-85598000D01*
X73482687Y-85764823D01*
X73434024Y-85925242D01*
X73393477Y-86001100D01*
X73355004Y-86073078D01*
X73248659Y-86202659D01*
X73119078Y-86309004D01*
X73119076Y-86309005D01*
X72971242Y-86388024D01*
X72810823Y-86436687D01*
X72685804Y-86449000D01*
X72602196Y-86449000D01*
X72477177Y-86436687D01*
X72316758Y-86388024D01*
X72168924Y-86309005D01*
X72168922Y-86309004D01*
X72039341Y-86202659D01*
X71932996Y-86073078D01*
X71894523Y-86001100D01*
X71853976Y-85925242D01*
X71805313Y-85764823D01*
X71788883Y-85598000D01*
X71805313Y-85431177D01*
X71853976Y-85270758D01*
X71932995Y-85122924D01*
X71932996Y-85122922D01*
X72039341Y-84993341D01*
X72168922Y-84886996D01*
X72249639Y-84843852D01*
X72316758Y-84807976D01*
X72477177Y-84759313D01*
X72602196Y-84747000D01*
X72685804Y-84747000D01*
X72810823Y-84759313D01*
X72810823Y-84759313D01*
G37*
G36*
X114548228Y-84779703D02*
G01*
X114703100Y-84843853D01*
X114842481Y-84936985D01*
X114961015Y-85055519D01*
X115054147Y-85194900D01*
X115118297Y-85349772D01*
X115151000Y-85514184D01*
X115151000Y-85681816D01*
X115118297Y-85846228D01*
X115054147Y-86001100D01*
X114961015Y-86140481D01*
X114842481Y-86259015D01*
X114703100Y-86352147D01*
X114548228Y-86416297D01*
X114383816Y-86449000D01*
X114216184Y-86449000D01*
X114051772Y-86416297D01*
X113896900Y-86352147D01*
X113757519Y-86259015D01*
X113638985Y-86140481D01*
X113545853Y-86001100D01*
X113481703Y-85846228D01*
X113449000Y-85681816D01*
X113449000Y-85514184D01*
X113481703Y-85349772D01*
X113545853Y-85194900D01*
X113638985Y-85055519D01*
X113757519Y-84936985D01*
X113896900Y-84843853D01*
X114051772Y-84779703D01*
X114216184Y-84747000D01*
X114383816Y-84747000D01*
X114548228Y-84779703D01*
X114548228Y-84779703D01*
G37*
G36*
X65272228Y-84779703D02*
G01*
X65427100Y-84843853D01*
X65566481Y-84936985D01*
X65685015Y-85055519D01*
X65778147Y-85194900D01*
X65842297Y-85349772D01*
X65875000Y-85514184D01*
X65875000Y-85681816D01*
X65842297Y-85846228D01*
X65778147Y-86001100D01*
X65685015Y-86140481D01*
X65566481Y-86259015D01*
X65427100Y-86352147D01*
X65272228Y-86416297D01*
X65107816Y-86449000D01*
X64940184Y-86449000D01*
X64775772Y-86416297D01*
X64620900Y-86352147D01*
X64481519Y-86259015D01*
X64362985Y-86140481D01*
X64269853Y-86001100D01*
X64205703Y-85846228D01*
X64173000Y-85681816D01*
X64173000Y-85514184D01*
X64205703Y-85349772D01*
X64269853Y-85194900D01*
X64362985Y-85055519D01*
X64481519Y-84936985D01*
X64620900Y-84843853D01*
X64775772Y-84779703D01*
X64940184Y-84747000D01*
X65107816Y-84747000D01*
X65272228Y-84779703D01*
X65272228Y-84779703D01*
G37*
G36*
X60192228Y-77921703D02*
G01*
X60347100Y-77985853D01*
X60486481Y-78078985D01*
X60605015Y-78197519D01*
X60698147Y-78336900D01*
X60762297Y-78491772D01*
X60795000Y-78656184D01*
X60795000Y-78823816D01*
X60762297Y-78988228D01*
X60698147Y-79143100D01*
X60605015Y-79282481D01*
X60486481Y-79401015D01*
X60347100Y-79494147D01*
X60192228Y-79558297D01*
X60027816Y-79591000D01*
X59860184Y-79591000D01*
X59695772Y-79558297D01*
X59540900Y-79494147D01*
X59401519Y-79401015D01*
X59282985Y-79282481D01*
X59189853Y-79143100D01*
X59125703Y-78988228D01*
X59093000Y-78823816D01*
X59093000Y-78656184D01*
X59125703Y-78491772D01*
X59189853Y-78336900D01*
X59282985Y-78197519D01*
X59401519Y-78078985D01*
X59540900Y-77985853D01*
X59695772Y-77921703D01*
X59860184Y-77889000D01*
X60027816Y-77889000D01*
X60192228Y-77921703D01*
X60192228Y-77921703D01*
G37*
G36*
X55430823Y-77901313D02*
G01*
X55591242Y-77949976D01*
X55658361Y-77985852D01*
X55739078Y-78028996D01*
X55868659Y-78135341D01*
X55975004Y-78264922D01*
X55975005Y-78264924D01*
X56054024Y-78412758D01*
X56102687Y-78573177D01*
X56119117Y-78740000D01*
X56102687Y-78906823D01*
X56054024Y-79067242D01*
X56013477Y-79143100D01*
X55975004Y-79215078D01*
X55868659Y-79344659D01*
X55739078Y-79451004D01*
X55739076Y-79451005D01*
X55591242Y-79530024D01*
X55430823Y-79578687D01*
X55305804Y-79591000D01*
X54422196Y-79591000D01*
X54297177Y-79578687D01*
X54136758Y-79530024D01*
X53988924Y-79451005D01*
X53988922Y-79451004D01*
X53859341Y-79344659D01*
X53752996Y-79215078D01*
X53714523Y-79143100D01*
X53673976Y-79067242D01*
X53625313Y-78906823D01*
X53608883Y-78740000D01*
X53625313Y-78573177D01*
X53673976Y-78412758D01*
X53752995Y-78264924D01*
X53752996Y-78264922D01*
X53859341Y-78135341D01*
X53988922Y-78028996D01*
X54069639Y-77985852D01*
X54136758Y-77949976D01*
X54297177Y-77901313D01*
X54422196Y-77889000D01*
X55305804Y-77889000D01*
X55430823Y-77901313D01*
X55430823Y-77901313D01*
G37*
G36*
X109468228Y-77921703D02*
G01*
X109623100Y-77985853D01*
X109762481Y-78078985D01*
X109881015Y-78197519D01*
X109974147Y-78336900D01*
X110038297Y-78491772D01*
X110071000Y-78656184D01*
X110071000Y-78823816D01*
X110038297Y-78988228D01*
X109974147Y-79143100D01*
X109881015Y-79282481D01*
X109762481Y-79401015D01*
X109623100Y-79494147D01*
X109468228Y-79558297D01*
X109303816Y-79591000D01*
X109136184Y-79591000D01*
X108971772Y-79558297D01*
X108816900Y-79494147D01*
X108677519Y-79401015D01*
X108558985Y-79282481D01*
X108465853Y-79143100D01*
X108401703Y-78988228D01*
X108369000Y-78823816D01*
X108369000Y-78656184D01*
X108401703Y-78491772D01*
X108465853Y-78336900D01*
X108558985Y-78197519D01*
X108677519Y-78078985D01*
X108816900Y-77985853D01*
X108971772Y-77921703D01*
X109136184Y-77889000D01*
X109303816Y-77889000D01*
X109468228Y-77921703D01*
X109468228Y-77921703D01*
G37*
G36*
X104706823Y-77901313D02*
G01*
X104867242Y-77949976D01*
X104934361Y-77985852D01*
X105015078Y-78028996D01*
X105144659Y-78135341D01*
X105251004Y-78264922D01*
X105251005Y-78264924D01*
X105330024Y-78412758D01*
X105378687Y-78573177D01*
X105395117Y-78740000D01*
X105378687Y-78906823D01*
X105330024Y-79067242D01*
X105289477Y-79143100D01*
X105251004Y-79215078D01*
X105144659Y-79344659D01*
X105015078Y-79451004D01*
X105015076Y-79451005D01*
X104867242Y-79530024D01*
X104706823Y-79578687D01*
X104581804Y-79591000D01*
X103698196Y-79591000D01*
X103573177Y-79578687D01*
X103412758Y-79530024D01*
X103264924Y-79451005D01*
X103264922Y-79451004D01*
X103135341Y-79344659D01*
X103028996Y-79215078D01*
X102990523Y-79143100D01*
X102949976Y-79067242D01*
X102901313Y-78906823D01*
X102884883Y-78740000D01*
X102901313Y-78573177D01*
X102949976Y-78412758D01*
X103028995Y-78264924D01*
X103028996Y-78264922D01*
X103135341Y-78135341D01*
X103264922Y-78028996D01*
X103345639Y-77985852D01*
X103412758Y-77949976D01*
X103573177Y-77901313D01*
X103698196Y-77889000D01*
X104581804Y-77889000D01*
X104706823Y-77901313D01*
X104706823Y-77901313D01*
G37*
G36*
X97086823Y-77901313D02*
G01*
X97247242Y-77949976D01*
X97314361Y-77985852D01*
X97395078Y-78028996D01*
X97524659Y-78135341D01*
X97631004Y-78264922D01*
X97631005Y-78264924D01*
X97710024Y-78412758D01*
X97758687Y-78573177D01*
X97775117Y-78740000D01*
X97758687Y-78906823D01*
X97710024Y-79067242D01*
X97669477Y-79143100D01*
X97631004Y-79215078D01*
X97524659Y-79344659D01*
X97395078Y-79451004D01*
X97395076Y-79451005D01*
X97247242Y-79530024D01*
X97086823Y-79578687D01*
X96961804Y-79591000D01*
X96078196Y-79591000D01*
X95953177Y-79578687D01*
X95792758Y-79530024D01*
X95644924Y-79451005D01*
X95644922Y-79451004D01*
X95515341Y-79344659D01*
X95408996Y-79215078D01*
X95370523Y-79143100D01*
X95329976Y-79067242D01*
X95281313Y-78906823D01*
X95264883Y-78740000D01*
X95281313Y-78573177D01*
X95329976Y-78412758D01*
X95408995Y-78264924D01*
X95408996Y-78264922D01*
X95515341Y-78135341D01*
X95644922Y-78028996D01*
X95725639Y-77985852D01*
X95792758Y-77949976D01*
X95953177Y-77901313D01*
X96078196Y-77889000D01*
X96961804Y-77889000D01*
X97086823Y-77901313D01*
X97086823Y-77901313D01*
G37*
G36*
X47810823Y-77901313D02*
G01*
X47971242Y-77949976D01*
X48038361Y-77985852D01*
X48119078Y-78028996D01*
X48248659Y-78135341D01*
X48355004Y-78264922D01*
X48355005Y-78264924D01*
X48434024Y-78412758D01*
X48482687Y-78573177D01*
X48499117Y-78740000D01*
X48482687Y-78906823D01*
X48434024Y-79067242D01*
X48393477Y-79143100D01*
X48355004Y-79215078D01*
X48248659Y-79344659D01*
X48119078Y-79451004D01*
X48119076Y-79451005D01*
X47971242Y-79530024D01*
X47810823Y-79578687D01*
X47685804Y-79591000D01*
X46802196Y-79591000D01*
X46677177Y-79578687D01*
X46516758Y-79530024D01*
X46368924Y-79451005D01*
X46368922Y-79451004D01*
X46239341Y-79344659D01*
X46132996Y-79215078D01*
X46094523Y-79143100D01*
X46053976Y-79067242D01*
X46005313Y-78906823D01*
X45988883Y-78740000D01*
X46005313Y-78573177D01*
X46053976Y-78412758D01*
X46132995Y-78264924D01*
X46132996Y-78264922D01*
X46239341Y-78135341D01*
X46368922Y-78028996D01*
X46449639Y-77985852D01*
X46516758Y-77949976D01*
X46677177Y-77901313D01*
X46802196Y-77889000D01*
X47685804Y-77889000D01*
X47810823Y-77901313D01*
X47810823Y-77901313D01*
G37*
G36*
X34371000Y-78567000D02*
G01*
X31669000Y-78567000D01*
X31669000Y-75865000D01*
X34371000Y-75865000D01*
X34371000Y-78567000D01*
X34371000Y-78567000D01*
G37*
G36*
X83647000Y-78567000D02*
G01*
X80945000Y-78567000D01*
X80945000Y-75865000D01*
X83647000Y-75865000D01*
X83647000Y-78567000D01*
X83647000Y-78567000D01*
G37*
G36*
X43723000Y-77965500D02*
G01*
X41621000Y-77965500D01*
X41621000Y-75958500D01*
X43723000Y-75958500D01*
X43723000Y-77965500D01*
X43723000Y-77965500D01*
G37*
G36*
X92999000Y-77965500D02*
G01*
X90897000Y-77965500D01*
X90897000Y-75958500D01*
X92999000Y-75958500D01*
X92999000Y-77965500D01*
X92999000Y-77965500D01*
G37*
G36*
X115437183Y-76200000D02*
G01*
X115540893Y-76220629D01*
X115681206Y-76278748D01*
X115807484Y-76363125D01*
X115914875Y-76470516D01*
X115999252Y-76596794D01*
X116057371Y-76737107D01*
X116087000Y-76886063D01*
X116087000Y-77037937D01*
X116057371Y-77186893D01*
X115999252Y-77327206D01*
X115914875Y-77453484D01*
X115807484Y-77560875D01*
X115681206Y-77645252D01*
X115540893Y-77703371D01*
X115441589Y-77723124D01*
X115391938Y-77733000D01*
X115240062Y-77733000D01*
X115190411Y-77723124D01*
X115091107Y-77703371D01*
X114950794Y-77645252D01*
X114824516Y-77560875D01*
X114717125Y-77453484D01*
X114632748Y-77327206D01*
X114574629Y-77186893D01*
X114545000Y-77037937D01*
X114545000Y-76886063D01*
X114574629Y-76737107D01*
X114632748Y-76596794D01*
X114717125Y-76470516D01*
X114824516Y-76363125D01*
X114950794Y-76278748D01*
X115091107Y-76220629D01*
X115194817Y-76200000D01*
X115240062Y-76191000D01*
X115391938Y-76191000D01*
X115437183Y-76200000D01*
X115437183Y-76200000D01*
G37*
G36*
X117977183Y-76200000D02*
G01*
X118080893Y-76220629D01*
X118221206Y-76278748D01*
X118347484Y-76363125D01*
X118454875Y-76470516D01*
X118539252Y-76596794D01*
X118597371Y-76737107D01*
X118627000Y-76886063D01*
X118627000Y-77037937D01*
X118597371Y-77186893D01*
X118539252Y-77327206D01*
X118454875Y-77453484D01*
X118347484Y-77560875D01*
X118221206Y-77645252D01*
X118080893Y-77703371D01*
X117981589Y-77723124D01*
X117931938Y-77733000D01*
X117780062Y-77733000D01*
X117730411Y-77723124D01*
X117631107Y-77703371D01*
X117490794Y-77645252D01*
X117364516Y-77560875D01*
X117257125Y-77453484D01*
X117172748Y-77327206D01*
X117114629Y-77186893D01*
X117085000Y-77037937D01*
X117085000Y-76886063D01*
X117114629Y-76737107D01*
X117172748Y-76596794D01*
X117257125Y-76470516D01*
X117364516Y-76363125D01*
X117490794Y-76278748D01*
X117631107Y-76220629D01*
X117734817Y-76200000D01*
X117780062Y-76191000D01*
X117931938Y-76191000D01*
X117977183Y-76200000D01*
X117977183Y-76200000D01*
G37*
G36*
X120517183Y-76200000D02*
G01*
X120620893Y-76220629D01*
X120761206Y-76278748D01*
X120887484Y-76363125D01*
X120994875Y-76470516D01*
X121079252Y-76596794D01*
X121137371Y-76737107D01*
X121167000Y-76886063D01*
X121167000Y-77037937D01*
X121137371Y-77186893D01*
X121079252Y-77327206D01*
X120994875Y-77453484D01*
X120887484Y-77560875D01*
X120761206Y-77645252D01*
X120620893Y-77703371D01*
X120521589Y-77723124D01*
X120471938Y-77733000D01*
X120320062Y-77733000D01*
X120270411Y-77723124D01*
X120171107Y-77703371D01*
X120030794Y-77645252D01*
X119904516Y-77560875D01*
X119797125Y-77453484D01*
X119712748Y-77327206D01*
X119654629Y-77186893D01*
X119625000Y-77037937D01*
X119625000Y-76886063D01*
X119654629Y-76737107D01*
X119712748Y-76596794D01*
X119797125Y-76470516D01*
X119904516Y-76363125D01*
X120030794Y-76278748D01*
X120171107Y-76220629D01*
X120274817Y-76200000D01*
X120320062Y-76191000D01*
X120471938Y-76191000D01*
X120517183Y-76200000D01*
X120517183Y-76200000D01*
G37*
G36*
X68701183Y-76200000D02*
G01*
X68804893Y-76220629D01*
X68945206Y-76278748D01*
X69071484Y-76363125D01*
X69178875Y-76470516D01*
X69263252Y-76596794D01*
X69321371Y-76737107D01*
X69351000Y-76886063D01*
X69351000Y-77037937D01*
X69321371Y-77186893D01*
X69263252Y-77327206D01*
X69178875Y-77453484D01*
X69071484Y-77560875D01*
X68945206Y-77645252D01*
X68804893Y-77703371D01*
X68705589Y-77723124D01*
X68655938Y-77733000D01*
X68504062Y-77733000D01*
X68454411Y-77723124D01*
X68355107Y-77703371D01*
X68214794Y-77645252D01*
X68088516Y-77560875D01*
X67981125Y-77453484D01*
X67896748Y-77327206D01*
X67838629Y-77186893D01*
X67809000Y-77037937D01*
X67809000Y-76886063D01*
X67838629Y-76737107D01*
X67896748Y-76596794D01*
X67981125Y-76470516D01*
X68088516Y-76363125D01*
X68214794Y-76278748D01*
X68355107Y-76220629D01*
X68458817Y-76200000D01*
X68504062Y-76191000D01*
X68655938Y-76191000D01*
X68701183Y-76200000D01*
X68701183Y-76200000D01*
G37*
G36*
X66161183Y-76200000D02*
G01*
X66264893Y-76220629D01*
X66405206Y-76278748D01*
X66531484Y-76363125D01*
X66638875Y-76470516D01*
X66723252Y-76596794D01*
X66781371Y-76737107D01*
X66811000Y-76886063D01*
X66811000Y-77037937D01*
X66781371Y-77186893D01*
X66723252Y-77327206D01*
X66638875Y-77453484D01*
X66531484Y-77560875D01*
X66405206Y-77645252D01*
X66264893Y-77703371D01*
X66165589Y-77723124D01*
X66115938Y-77733000D01*
X65964062Y-77733000D01*
X65914411Y-77723124D01*
X65815107Y-77703371D01*
X65674794Y-77645252D01*
X65548516Y-77560875D01*
X65441125Y-77453484D01*
X65356748Y-77327206D01*
X65298629Y-77186893D01*
X65269000Y-77037937D01*
X65269000Y-76886063D01*
X65298629Y-76737107D01*
X65356748Y-76596794D01*
X65441125Y-76470516D01*
X65548516Y-76363125D01*
X65674794Y-76278748D01*
X65815107Y-76220629D01*
X65918817Y-76200000D01*
X65964062Y-76191000D01*
X66115938Y-76191000D01*
X66161183Y-76200000D01*
X66161183Y-76200000D01*
G37*
G36*
X71241183Y-76200000D02*
G01*
X71344893Y-76220629D01*
X71485206Y-76278748D01*
X71611484Y-76363125D01*
X71718875Y-76470516D01*
X71803252Y-76596794D01*
X71861371Y-76737107D01*
X71891000Y-76886063D01*
X71891000Y-77037937D01*
X71861371Y-77186893D01*
X71803252Y-77327206D01*
X71718875Y-77453484D01*
X71611484Y-77560875D01*
X71485206Y-77645252D01*
X71344893Y-77703371D01*
X71245589Y-77723124D01*
X71195938Y-77733000D01*
X71044062Y-77733000D01*
X70994411Y-77723124D01*
X70895107Y-77703371D01*
X70754794Y-77645252D01*
X70628516Y-77560875D01*
X70521125Y-77453484D01*
X70436748Y-77327206D01*
X70378629Y-77186893D01*
X70349000Y-77037937D01*
X70349000Y-76886063D01*
X70378629Y-76737107D01*
X70436748Y-76596794D01*
X70521125Y-76470516D01*
X70628516Y-76363125D01*
X70754794Y-76278748D01*
X70895107Y-76220629D01*
X70998817Y-76200000D01*
X71044062Y-76191000D01*
X71195938Y-76191000D01*
X71241183Y-76200000D01*
X71241183Y-76200000D01*
G37*
G36*
X97086823Y-75361313D02*
G01*
X97247242Y-75409976D01*
X97379906Y-75480886D01*
X97395078Y-75488996D01*
X97524659Y-75595341D01*
X97631004Y-75724922D01*
X97631005Y-75724924D01*
X97710024Y-75872758D01*
X97758687Y-76033177D01*
X97775117Y-76200000D01*
X97758687Y-76366823D01*
X97710024Y-76527242D01*
X97639114Y-76659906D01*
X97631004Y-76675078D01*
X97524659Y-76804659D01*
X97395078Y-76911004D01*
X97395076Y-76911005D01*
X97247242Y-76990024D01*
X97086823Y-77038687D01*
X96961804Y-77051000D01*
X96078196Y-77051000D01*
X95953177Y-77038687D01*
X95792758Y-76990024D01*
X95644924Y-76911005D01*
X95644922Y-76911004D01*
X95515341Y-76804659D01*
X95408996Y-76675078D01*
X95400886Y-76659906D01*
X95329976Y-76527242D01*
X95281313Y-76366823D01*
X95264883Y-76200000D01*
X95281313Y-76033177D01*
X95329976Y-75872758D01*
X95408995Y-75724924D01*
X95408996Y-75724922D01*
X95515341Y-75595341D01*
X95644922Y-75488996D01*
X95660094Y-75480886D01*
X95792758Y-75409976D01*
X95953177Y-75361313D01*
X96078196Y-75349000D01*
X96961804Y-75349000D01*
X97086823Y-75361313D01*
X97086823Y-75361313D01*
G37*
G36*
X47810823Y-75361313D02*
G01*
X47971242Y-75409976D01*
X48103906Y-75480886D01*
X48119078Y-75488996D01*
X48248659Y-75595341D01*
X48355004Y-75724922D01*
X48355005Y-75724924D01*
X48434024Y-75872758D01*
X48482687Y-76033177D01*
X48499117Y-76200000D01*
X48482687Y-76366823D01*
X48434024Y-76527242D01*
X48363114Y-76659906D01*
X48355004Y-76675078D01*
X48248659Y-76804659D01*
X48119078Y-76911004D01*
X48119076Y-76911005D01*
X47971242Y-76990024D01*
X47810823Y-77038687D01*
X47685804Y-77051000D01*
X46802196Y-77051000D01*
X46677177Y-77038687D01*
X46516758Y-76990024D01*
X46368924Y-76911005D01*
X46368922Y-76911004D01*
X46239341Y-76804659D01*
X46132996Y-76675078D01*
X46124886Y-76659906D01*
X46053976Y-76527242D01*
X46005313Y-76366823D01*
X45988883Y-76200000D01*
X46005313Y-76033177D01*
X46053976Y-75872758D01*
X46132995Y-75724924D01*
X46132996Y-75724922D01*
X46239341Y-75595341D01*
X46368922Y-75488996D01*
X46384094Y-75480886D01*
X46516758Y-75409976D01*
X46677177Y-75361313D01*
X46802196Y-75349000D01*
X47685804Y-75349000D01*
X47810823Y-75361313D01*
X47810823Y-75361313D01*
G37*
G36*
X55430823Y-75361313D02*
G01*
X55591242Y-75409976D01*
X55723906Y-75480886D01*
X55739078Y-75488996D01*
X55868659Y-75595341D01*
X55975004Y-75724922D01*
X55975005Y-75724924D01*
X56054024Y-75872758D01*
X56102687Y-76033177D01*
X56119117Y-76200000D01*
X56102687Y-76366823D01*
X56054024Y-76527242D01*
X55983114Y-76659906D01*
X55975004Y-76675078D01*
X55868659Y-76804659D01*
X55739078Y-76911004D01*
X55739076Y-76911005D01*
X55591242Y-76990024D01*
X55430823Y-77038687D01*
X55305804Y-77051000D01*
X54422196Y-77051000D01*
X54297177Y-77038687D01*
X54136758Y-76990024D01*
X53988924Y-76911005D01*
X53988922Y-76911004D01*
X53859341Y-76804659D01*
X53752996Y-76675078D01*
X53744886Y-76659906D01*
X53673976Y-76527242D01*
X53625313Y-76366823D01*
X53608883Y-76200000D01*
X53625313Y-76033177D01*
X53673976Y-75872758D01*
X53752995Y-75724924D01*
X53752996Y-75724922D01*
X53859341Y-75595341D01*
X53988922Y-75488996D01*
X54004094Y-75480886D01*
X54136758Y-75409976D01*
X54297177Y-75361313D01*
X54422196Y-75349000D01*
X55305804Y-75349000D01*
X55430823Y-75361313D01*
X55430823Y-75361313D01*
G37*
G36*
X104706823Y-75361313D02*
G01*
X104867242Y-75409976D01*
X104999906Y-75480886D01*
X105015078Y-75488996D01*
X105144659Y-75595341D01*
X105251004Y-75724922D01*
X105251005Y-75724924D01*
X105330024Y-75872758D01*
X105378687Y-76033177D01*
X105395117Y-76200000D01*
X105378687Y-76366823D01*
X105330024Y-76527242D01*
X105259114Y-76659906D01*
X105251004Y-76675078D01*
X105144659Y-76804659D01*
X105015078Y-76911004D01*
X105015076Y-76911005D01*
X104867242Y-76990024D01*
X104706823Y-77038687D01*
X104581804Y-77051000D01*
X103698196Y-77051000D01*
X103573177Y-77038687D01*
X103412758Y-76990024D01*
X103264924Y-76911005D01*
X103264922Y-76911004D01*
X103135341Y-76804659D01*
X103028996Y-76675078D01*
X103020886Y-76659906D01*
X102949976Y-76527242D01*
X102901313Y-76366823D01*
X102884883Y-76200000D01*
X102901313Y-76033177D01*
X102949976Y-75872758D01*
X103028995Y-75724924D01*
X103028996Y-75724922D01*
X103135341Y-75595341D01*
X103264922Y-75488996D01*
X103280094Y-75480886D01*
X103412758Y-75409976D01*
X103573177Y-75361313D01*
X103698196Y-75349000D01*
X104581804Y-75349000D01*
X104706823Y-75361313D01*
X104706823Y-75361313D01*
G37*
G36*
X42817936Y-73423340D02*
G01*
X42916220Y-73433020D01*
X43105381Y-73490401D01*
X43279712Y-73583583D01*
X43432515Y-73708985D01*
X43557917Y-73861788D01*
X43651099Y-74036119D01*
X43708480Y-74225280D01*
X43727855Y-74422000D01*
X43708480Y-74618720D01*
X43651099Y-74807881D01*
X43557917Y-74982212D01*
X43432515Y-75135015D01*
X43279712Y-75260417D01*
X43105381Y-75353599D01*
X42916220Y-75410980D01*
X42817936Y-75420660D01*
X42768795Y-75425500D01*
X42575205Y-75425500D01*
X42526064Y-75420660D01*
X42427780Y-75410980D01*
X42238619Y-75353599D01*
X42064288Y-75260417D01*
X41911485Y-75135015D01*
X41786083Y-74982212D01*
X41692901Y-74807881D01*
X41635520Y-74618720D01*
X41616145Y-74422000D01*
X41635520Y-74225280D01*
X41692901Y-74036119D01*
X41786083Y-73861788D01*
X41911485Y-73708985D01*
X42064288Y-73583583D01*
X42238619Y-73490401D01*
X42427780Y-73433020D01*
X42526064Y-73423340D01*
X42575205Y-73418500D01*
X42768795Y-73418500D01*
X42817936Y-73423340D01*
X42817936Y-73423340D01*
G37*
G36*
X92093936Y-73423340D02*
G01*
X92192220Y-73433020D01*
X92381381Y-73490401D01*
X92555712Y-73583583D01*
X92708515Y-73708985D01*
X92833917Y-73861788D01*
X92927099Y-74036119D01*
X92984480Y-74225280D01*
X93003855Y-74422000D01*
X92984480Y-74618720D01*
X92927099Y-74807881D01*
X92833917Y-74982212D01*
X92708515Y-75135015D01*
X92555712Y-75260417D01*
X92381381Y-75353599D01*
X92192220Y-75410980D01*
X92093936Y-75420660D01*
X92044795Y-75425500D01*
X91851205Y-75425500D01*
X91802064Y-75420660D01*
X91703780Y-75410980D01*
X91514619Y-75353599D01*
X91340288Y-75260417D01*
X91187485Y-75135015D01*
X91062083Y-74982212D01*
X90968901Y-74807881D01*
X90911520Y-74618720D01*
X90892145Y-74422000D01*
X90911520Y-74225280D01*
X90968901Y-74036119D01*
X91062083Y-73861788D01*
X91187485Y-73708985D01*
X91340288Y-73583583D01*
X91514619Y-73490401D01*
X91703780Y-73433020D01*
X91802064Y-73423340D01*
X91851205Y-73418500D01*
X92044795Y-73418500D01*
X92093936Y-73423340D01*
X92093936Y-73423340D01*
G37*
G36*
X55430823Y-72821313D02*
G01*
X55591242Y-72869976D01*
X55723906Y-72940886D01*
X55739078Y-72948996D01*
X55868659Y-73055341D01*
X55975004Y-73184922D01*
X55975005Y-73184924D01*
X56054024Y-73332758D01*
X56102687Y-73493177D01*
X56119117Y-73660000D01*
X56102687Y-73826823D01*
X56054024Y-73987242D01*
X55983114Y-74119906D01*
X55975004Y-74135078D01*
X55868659Y-74264659D01*
X55739078Y-74371004D01*
X55739076Y-74371005D01*
X55591242Y-74450024D01*
X55430823Y-74498687D01*
X55305804Y-74511000D01*
X54422196Y-74511000D01*
X54297177Y-74498687D01*
X54136758Y-74450024D01*
X53988924Y-74371005D01*
X53988922Y-74371004D01*
X53859341Y-74264659D01*
X53752996Y-74135078D01*
X53744886Y-74119906D01*
X53673976Y-73987242D01*
X53625313Y-73826823D01*
X53608883Y-73660000D01*
X53625313Y-73493177D01*
X53673976Y-73332758D01*
X53752995Y-73184924D01*
X53752996Y-73184922D01*
X53859341Y-73055341D01*
X53988922Y-72948996D01*
X54004094Y-72940886D01*
X54136758Y-72869976D01*
X54297177Y-72821313D01*
X54422196Y-72809000D01*
X55305804Y-72809000D01*
X55430823Y-72821313D01*
X55430823Y-72821313D01*
G37*
G36*
X104706823Y-72821313D02*
G01*
X104867242Y-72869976D01*
X104999906Y-72940886D01*
X105015078Y-72948996D01*
X105144659Y-73055341D01*
X105251004Y-73184922D01*
X105251005Y-73184924D01*
X105330024Y-73332758D01*
X105378687Y-73493177D01*
X105395117Y-73660000D01*
X105378687Y-73826823D01*
X105330024Y-73987242D01*
X105259114Y-74119906D01*
X105251004Y-74135078D01*
X105144659Y-74264659D01*
X105015078Y-74371004D01*
X105015076Y-74371005D01*
X104867242Y-74450024D01*
X104706823Y-74498687D01*
X104581804Y-74511000D01*
X103698196Y-74511000D01*
X103573177Y-74498687D01*
X103412758Y-74450024D01*
X103264924Y-74371005D01*
X103264922Y-74371004D01*
X103135341Y-74264659D01*
X103028996Y-74135078D01*
X103020886Y-74119906D01*
X102949976Y-73987242D01*
X102901313Y-73826823D01*
X102884883Y-73660000D01*
X102901313Y-73493177D01*
X102949976Y-73332758D01*
X103028995Y-73184924D01*
X103028996Y-73184922D01*
X103135341Y-73055341D01*
X103264922Y-72948996D01*
X103280094Y-72940886D01*
X103412758Y-72869976D01*
X103573177Y-72821313D01*
X103698196Y-72809000D01*
X104581804Y-72809000D01*
X104706823Y-72821313D01*
X104706823Y-72821313D01*
G37*
G36*
X97086823Y-72821313D02*
G01*
X97247242Y-72869976D01*
X97379906Y-72940886D01*
X97395078Y-72948996D01*
X97524659Y-73055341D01*
X97631004Y-73184922D01*
X97631005Y-73184924D01*
X97710024Y-73332758D01*
X97758687Y-73493177D01*
X97775117Y-73660000D01*
X97758687Y-73826823D01*
X97710024Y-73987242D01*
X97639114Y-74119906D01*
X97631004Y-74135078D01*
X97524659Y-74264659D01*
X97395078Y-74371004D01*
X97395076Y-74371005D01*
X97247242Y-74450024D01*
X97086823Y-74498687D01*
X96961804Y-74511000D01*
X96078196Y-74511000D01*
X95953177Y-74498687D01*
X95792758Y-74450024D01*
X95644924Y-74371005D01*
X95644922Y-74371004D01*
X95515341Y-74264659D01*
X95408996Y-74135078D01*
X95400886Y-74119906D01*
X95329976Y-73987242D01*
X95281313Y-73826823D01*
X95264883Y-73660000D01*
X95281313Y-73493177D01*
X95329976Y-73332758D01*
X95408995Y-73184924D01*
X95408996Y-73184922D01*
X95515341Y-73055341D01*
X95644922Y-72948996D01*
X95660094Y-72940886D01*
X95792758Y-72869976D01*
X95953177Y-72821313D01*
X96078196Y-72809000D01*
X96961804Y-72809000D01*
X97086823Y-72821313D01*
X97086823Y-72821313D01*
G37*
G36*
X47810823Y-72821313D02*
G01*
X47971242Y-72869976D01*
X48103906Y-72940886D01*
X48119078Y-72948996D01*
X48248659Y-73055341D01*
X48355004Y-73184922D01*
X48355005Y-73184924D01*
X48434024Y-73332758D01*
X48482687Y-73493177D01*
X48499117Y-73660000D01*
X48482687Y-73826823D01*
X48434024Y-73987242D01*
X48363114Y-74119906D01*
X48355004Y-74135078D01*
X48248659Y-74264659D01*
X48119078Y-74371004D01*
X48119076Y-74371005D01*
X47971242Y-74450024D01*
X47810823Y-74498687D01*
X47685804Y-74511000D01*
X46802196Y-74511000D01*
X46677177Y-74498687D01*
X46516758Y-74450024D01*
X46368924Y-74371005D01*
X46368922Y-74371004D01*
X46239341Y-74264659D01*
X46132996Y-74135078D01*
X46124886Y-74119906D01*
X46053976Y-73987242D01*
X46005313Y-73826823D01*
X45988883Y-73660000D01*
X46005313Y-73493177D01*
X46053976Y-73332758D01*
X46132995Y-73184924D01*
X46132996Y-73184922D01*
X46239341Y-73055341D01*
X46368922Y-72948996D01*
X46384094Y-72940886D01*
X46516758Y-72869976D01*
X46677177Y-72821313D01*
X46802196Y-72809000D01*
X47685804Y-72809000D01*
X47810823Y-72821313D01*
X47810823Y-72821313D01*
G37*
G36*
X33414072Y-70836918D02*
G01*
X33539576Y-70888903D01*
X33659939Y-70938759D01*
X33771328Y-71013187D01*
X33881211Y-71086609D01*
X34069391Y-71274789D01*
X34217242Y-71496063D01*
X34319082Y-71741928D01*
X34352519Y-71910025D01*
X34371000Y-72002938D01*
X34371000Y-72269062D01*
X34319082Y-72530072D01*
X34217241Y-72775939D01*
X34069390Y-72997212D01*
X33881212Y-73185390D01*
X33659939Y-73333241D01*
X33659938Y-73333242D01*
X33659937Y-73333242D01*
X33414072Y-73435082D01*
X33153063Y-73487000D01*
X32886937Y-73487000D01*
X32625928Y-73435082D01*
X32380063Y-73333242D01*
X32380062Y-73333242D01*
X32380061Y-73333241D01*
X32158788Y-73185390D01*
X31970610Y-72997212D01*
X31822759Y-72775939D01*
X31720918Y-72530072D01*
X31669000Y-72269062D01*
X31669000Y-72002938D01*
X31687482Y-71910025D01*
X31720918Y-71741928D01*
X31822758Y-71496063D01*
X31970609Y-71274789D01*
X32158789Y-71086609D01*
X32268672Y-71013187D01*
X32380061Y-70938759D01*
X32500425Y-70888903D01*
X32625928Y-70836918D01*
X32886937Y-70785000D01*
X33153063Y-70785000D01*
X33414072Y-70836918D01*
X33414072Y-70836918D01*
G37*
G36*
X82690072Y-70836918D02*
G01*
X82815576Y-70888903D01*
X82935939Y-70938759D01*
X83047328Y-71013187D01*
X83157211Y-71086609D01*
X83345391Y-71274789D01*
X83493242Y-71496063D01*
X83595082Y-71741928D01*
X83628519Y-71910025D01*
X83647000Y-72002938D01*
X83647000Y-72269062D01*
X83595082Y-72530072D01*
X83493241Y-72775939D01*
X83345390Y-72997212D01*
X83157212Y-73185390D01*
X82935939Y-73333241D01*
X82935938Y-73333242D01*
X82935937Y-73333242D01*
X82690072Y-73435082D01*
X82429063Y-73487000D01*
X82162937Y-73487000D01*
X81901928Y-73435082D01*
X81656063Y-73333242D01*
X81656062Y-73333242D01*
X81656061Y-73333241D01*
X81434788Y-73185390D01*
X81246610Y-72997212D01*
X81098759Y-72775939D01*
X80996918Y-72530072D01*
X80945000Y-72269062D01*
X80945000Y-72002938D01*
X80963482Y-71910025D01*
X80996918Y-71741928D01*
X81098758Y-71496063D01*
X81246609Y-71274789D01*
X81434789Y-71086609D01*
X81544672Y-71013187D01*
X81656061Y-70938759D01*
X81776425Y-70888903D01*
X81901928Y-70836918D01*
X82162937Y-70785000D01*
X82429063Y-70785000D01*
X82690072Y-70836918D01*
X82690072Y-70836918D01*
G37*
G36*
X42817936Y-70883340D02*
G01*
X42916220Y-70893020D01*
X43105381Y-70950401D01*
X43279712Y-71043583D01*
X43432515Y-71168985D01*
X43557917Y-71321788D01*
X43651099Y-71496119D01*
X43708480Y-71685280D01*
X43727855Y-71882000D01*
X43708480Y-72078720D01*
X43651099Y-72267881D01*
X43557917Y-72442212D01*
X43432515Y-72595015D01*
X43279712Y-72720417D01*
X43105381Y-72813599D01*
X42916220Y-72870980D01*
X42817936Y-72880660D01*
X42768795Y-72885500D01*
X42575205Y-72885500D01*
X42526064Y-72880660D01*
X42427780Y-72870980D01*
X42238619Y-72813599D01*
X42064288Y-72720417D01*
X41911485Y-72595015D01*
X41786083Y-72442212D01*
X41692901Y-72267881D01*
X41635520Y-72078720D01*
X41616145Y-71882000D01*
X41635520Y-71685280D01*
X41692901Y-71496119D01*
X41786083Y-71321788D01*
X41911485Y-71168985D01*
X42064288Y-71043583D01*
X42238619Y-70950401D01*
X42427780Y-70893020D01*
X42526064Y-70883340D01*
X42575205Y-70878500D01*
X42768795Y-70878500D01*
X42817936Y-70883340D01*
X42817936Y-70883340D01*
G37*
G36*
X92093936Y-70883340D02*
G01*
X92192220Y-70893020D01*
X92381381Y-70950401D01*
X92555712Y-71043583D01*
X92708515Y-71168985D01*
X92833917Y-71321788D01*
X92927099Y-71496119D01*
X92984480Y-71685280D01*
X93003855Y-71882000D01*
X92984480Y-72078720D01*
X92927099Y-72267881D01*
X92833917Y-72442212D01*
X92708515Y-72595015D01*
X92555712Y-72720417D01*
X92381381Y-72813599D01*
X92192220Y-72870980D01*
X92093936Y-72880660D01*
X92044795Y-72885500D01*
X91851205Y-72885500D01*
X91802064Y-72880660D01*
X91703780Y-72870980D01*
X91514619Y-72813599D01*
X91340288Y-72720417D01*
X91187485Y-72595015D01*
X91062083Y-72442212D01*
X90968901Y-72267881D01*
X90911520Y-72078720D01*
X90892145Y-71882000D01*
X90911520Y-71685280D01*
X90968901Y-71496119D01*
X91062083Y-71321788D01*
X91187485Y-71168985D01*
X91340288Y-71043583D01*
X91514619Y-70950401D01*
X91703780Y-70893020D01*
X91802064Y-70883340D01*
X91851205Y-70878500D01*
X92044795Y-70878500D01*
X92093936Y-70883340D01*
X92093936Y-70883340D01*
G37*
G36*
X48495000Y-71971000D02*
G01*
X45993000Y-71971000D01*
X45993000Y-70269000D01*
X48495000Y-70269000D01*
X48495000Y-71971000D01*
X48495000Y-71971000D01*
G37*
G36*
X60110823Y-70281313D02*
G01*
X60271242Y-70329976D01*
X60403906Y-70400886D01*
X60419078Y-70408996D01*
X60548659Y-70515341D01*
X60655004Y-70644922D01*
X60655005Y-70644924D01*
X60734024Y-70792758D01*
X60782687Y-70953177D01*
X60799117Y-71120000D01*
X60782687Y-71286823D01*
X60734024Y-71447242D01*
X60663114Y-71579906D01*
X60655004Y-71595078D01*
X60548659Y-71724659D01*
X60419078Y-71831004D01*
X60419076Y-71831005D01*
X60271242Y-71910024D01*
X60110823Y-71958687D01*
X59985804Y-71971000D01*
X59902196Y-71971000D01*
X59777177Y-71958687D01*
X59616758Y-71910024D01*
X59468924Y-71831005D01*
X59468922Y-71831004D01*
X59339341Y-71724659D01*
X59232996Y-71595078D01*
X59224886Y-71579906D01*
X59153976Y-71447242D01*
X59105313Y-71286823D01*
X59088883Y-71120000D01*
X59105313Y-70953177D01*
X59153976Y-70792758D01*
X59232995Y-70644924D01*
X59232996Y-70644922D01*
X59339341Y-70515341D01*
X59468922Y-70408996D01*
X59484094Y-70400886D01*
X59616758Y-70329976D01*
X59777177Y-70281313D01*
X59902196Y-70269000D01*
X59985804Y-70269000D01*
X60110823Y-70281313D01*
X60110823Y-70281313D01*
G37*
G36*
X55430823Y-70281313D02*
G01*
X55591242Y-70329976D01*
X55723906Y-70400886D01*
X55739078Y-70408996D01*
X55868659Y-70515341D01*
X55975004Y-70644922D01*
X55975005Y-70644924D01*
X56054024Y-70792758D01*
X56102687Y-70953177D01*
X56119117Y-71120000D01*
X56102687Y-71286823D01*
X56054024Y-71447242D01*
X55983114Y-71579906D01*
X55975004Y-71595078D01*
X55868659Y-71724659D01*
X55739078Y-71831004D01*
X55739076Y-71831005D01*
X55591242Y-71910024D01*
X55430823Y-71958687D01*
X55305804Y-71971000D01*
X54422196Y-71971000D01*
X54297177Y-71958687D01*
X54136758Y-71910024D01*
X53988924Y-71831005D01*
X53988922Y-71831004D01*
X53859341Y-71724659D01*
X53752996Y-71595078D01*
X53744886Y-71579906D01*
X53673976Y-71447242D01*
X53625313Y-71286823D01*
X53608883Y-71120000D01*
X53625313Y-70953177D01*
X53673976Y-70792758D01*
X53752995Y-70644924D01*
X53752996Y-70644922D01*
X53859341Y-70515341D01*
X53988922Y-70408996D01*
X54004094Y-70400886D01*
X54136758Y-70329976D01*
X54297177Y-70281313D01*
X54422196Y-70269000D01*
X55305804Y-70269000D01*
X55430823Y-70281313D01*
X55430823Y-70281313D01*
G37*
G36*
X97771000Y-71971000D02*
G01*
X95269000Y-71971000D01*
X95269000Y-70269000D01*
X97771000Y-70269000D01*
X97771000Y-71971000D01*
X97771000Y-71971000D01*
G37*
G36*
X104706823Y-70281313D02*
G01*
X104867242Y-70329976D01*
X104999906Y-70400886D01*
X105015078Y-70408996D01*
X105144659Y-70515341D01*
X105251004Y-70644922D01*
X105251005Y-70644924D01*
X105330024Y-70792758D01*
X105378687Y-70953177D01*
X105395117Y-71120000D01*
X105378687Y-71286823D01*
X105330024Y-71447242D01*
X105259114Y-71579906D01*
X105251004Y-71595078D01*
X105144659Y-71724659D01*
X105015078Y-71831004D01*
X105015076Y-71831005D01*
X104867242Y-71910024D01*
X104706823Y-71958687D01*
X104581804Y-71971000D01*
X103698196Y-71971000D01*
X103573177Y-71958687D01*
X103412758Y-71910024D01*
X103264924Y-71831005D01*
X103264922Y-71831004D01*
X103135341Y-71724659D01*
X103028996Y-71595078D01*
X103020886Y-71579906D01*
X102949976Y-71447242D01*
X102901313Y-71286823D01*
X102884883Y-71120000D01*
X102901313Y-70953177D01*
X102949976Y-70792758D01*
X103028995Y-70644924D01*
X103028996Y-70644922D01*
X103135341Y-70515341D01*
X103264922Y-70408996D01*
X103280094Y-70400886D01*
X103412758Y-70329976D01*
X103573177Y-70281313D01*
X103698196Y-70269000D01*
X104581804Y-70269000D01*
X104706823Y-70281313D01*
X104706823Y-70281313D01*
G37*
G36*
X109386823Y-70281313D02*
G01*
X109547242Y-70329976D01*
X109679906Y-70400886D01*
X109695078Y-70408996D01*
X109824659Y-70515341D01*
X109931004Y-70644922D01*
X109931005Y-70644924D01*
X110010024Y-70792758D01*
X110058687Y-70953177D01*
X110075117Y-71120000D01*
X110058687Y-71286823D01*
X110010024Y-71447242D01*
X109939114Y-71579906D01*
X109931004Y-71595078D01*
X109824659Y-71724659D01*
X109695078Y-71831004D01*
X109695076Y-71831005D01*
X109547242Y-71910024D01*
X109386823Y-71958687D01*
X109261804Y-71971000D01*
X109178196Y-71971000D01*
X109053177Y-71958687D01*
X108892758Y-71910024D01*
X108744924Y-71831005D01*
X108744922Y-71831004D01*
X108615341Y-71724659D01*
X108508996Y-71595078D01*
X108500886Y-71579906D01*
X108429976Y-71447242D01*
X108381313Y-71286823D01*
X108364883Y-71120000D01*
X108381313Y-70953177D01*
X108429976Y-70792758D01*
X108508995Y-70644924D01*
X108508996Y-70644922D01*
X108615341Y-70515341D01*
X108744922Y-70408996D01*
X108760094Y-70400886D01*
X108892758Y-70329976D01*
X109053177Y-70281313D01*
X109178196Y-70269000D01*
X109261804Y-70269000D01*
X109386823Y-70281313D01*
X109386823Y-70281313D01*
G37*
G36*
X122109000Y-71309000D02*
G01*
X120207000Y-71309000D01*
X120207000Y-69407000D01*
X122109000Y-69407000D01*
X122109000Y-71309000D01*
X122109000Y-71309000D01*
G37*
G36*
X72833000Y-71309000D02*
G01*
X70931000Y-71309000D01*
X70931000Y-69407000D01*
X72833000Y-69407000D01*
X72833000Y-71309000D01*
X72833000Y-71309000D01*
G37*
G36*
X64194425Y-69420760D02*
G01*
X64194428Y-69420761D01*
X64194429Y-69420761D01*
X64373693Y-69475140D01*
X64373696Y-69475142D01*
X64373697Y-69475142D01*
X64538903Y-69563446D01*
X64683712Y-69682288D01*
X64802554Y-69827097D01*
X64890858Y-69992303D01*
X64890860Y-69992307D01*
X64945239Y-70171571D01*
X64945240Y-70171575D01*
X64963601Y-70358000D01*
X64945240Y-70544425D01*
X64945239Y-70544428D01*
X64945239Y-70544429D01*
X64890860Y-70723693D01*
X64890858Y-70723696D01*
X64890858Y-70723697D01*
X64802554Y-70888903D01*
X64683712Y-71033712D01*
X64538903Y-71152554D01*
X64373697Y-71240858D01*
X64373693Y-71240860D01*
X64194429Y-71295239D01*
X64194428Y-71295239D01*
X64194425Y-71295240D01*
X64054718Y-71309000D01*
X63961282Y-71309000D01*
X63821575Y-71295240D01*
X63821572Y-71295239D01*
X63821571Y-71295239D01*
X63642307Y-71240860D01*
X63642303Y-71240858D01*
X63477097Y-71152554D01*
X63332288Y-71033712D01*
X63213446Y-70888903D01*
X63125142Y-70723697D01*
X63125142Y-70723696D01*
X63125140Y-70723693D01*
X63070761Y-70544429D01*
X63070761Y-70544428D01*
X63070760Y-70544425D01*
X63052399Y-70358000D01*
X63070760Y-70171575D01*
X63070761Y-70171571D01*
X63125140Y-69992307D01*
X63125142Y-69992303D01*
X63213446Y-69827097D01*
X63332288Y-69682288D01*
X63477097Y-69563446D01*
X63642303Y-69475142D01*
X63642304Y-69475142D01*
X63642307Y-69475140D01*
X63821571Y-69420761D01*
X63821572Y-69420761D01*
X63821575Y-69420760D01*
X63961282Y-69407000D01*
X64054718Y-69407000D01*
X64194425Y-69420760D01*
X64194425Y-69420760D01*
G37*
G36*
X113470425Y-69420760D02*
G01*
X113470428Y-69420761D01*
X113470429Y-69420761D01*
X113649693Y-69475140D01*
X113649696Y-69475142D01*
X113649697Y-69475142D01*
X113814903Y-69563446D01*
X113959712Y-69682288D01*
X114078554Y-69827097D01*
X114166858Y-69992303D01*
X114166860Y-69992307D01*
X114221239Y-70171571D01*
X114221240Y-70171575D01*
X114239601Y-70358000D01*
X114221240Y-70544425D01*
X114221239Y-70544428D01*
X114221239Y-70544429D01*
X114166860Y-70723693D01*
X114166858Y-70723696D01*
X114166858Y-70723697D01*
X114078554Y-70888903D01*
X113959712Y-71033712D01*
X113814903Y-71152554D01*
X113649697Y-71240858D01*
X113649693Y-71240860D01*
X113470429Y-71295239D01*
X113470428Y-71295239D01*
X113470425Y-71295240D01*
X113330718Y-71309000D01*
X113237282Y-71309000D01*
X113097575Y-71295240D01*
X113097572Y-71295239D01*
X113097571Y-71295239D01*
X112918307Y-71240860D01*
X112918303Y-71240858D01*
X112753097Y-71152554D01*
X112608288Y-71033712D01*
X112489446Y-70888903D01*
X112401142Y-70723697D01*
X112401142Y-70723696D01*
X112401140Y-70723693D01*
X112346761Y-70544429D01*
X112346761Y-70544428D01*
X112346760Y-70544425D01*
X112328399Y-70358000D01*
X112346760Y-70171575D01*
X112346761Y-70171571D01*
X112401140Y-69992307D01*
X112401142Y-69992303D01*
X112489446Y-69827097D01*
X112608288Y-69682288D01*
X112753097Y-69563446D01*
X112918303Y-69475142D01*
X112918304Y-69475142D01*
X112918307Y-69475140D01*
X113097571Y-69420761D01*
X113097572Y-69420761D01*
X113097575Y-69420760D01*
X113237282Y-69407000D01*
X113330718Y-69407000D01*
X113470425Y-69420760D01*
X113470425Y-69420760D01*
G37*
G36*
X83647000Y-65229000D02*
G01*
X80945000Y-65229000D01*
X80945000Y-62527000D01*
X83647000Y-62527000D01*
X83647000Y-65229000D01*
X83647000Y-65229000D01*
G37*
G36*
X34371000Y-65229000D02*
G01*
X31669000Y-65229000D01*
X31669000Y-62527000D01*
X34371000Y-62527000D01*
X34371000Y-65229000D01*
X34371000Y-65229000D01*
G37*
G36*
X49270228Y-62173703D02*
G01*
X49425100Y-62237853D01*
X49564481Y-62330985D01*
X49683015Y-62449519D01*
X49776147Y-62588900D01*
X49840297Y-62743772D01*
X49873000Y-62908184D01*
X49873000Y-63075816D01*
X49840297Y-63240228D01*
X49776147Y-63395100D01*
X49683015Y-63534481D01*
X49564481Y-63653015D01*
X49425100Y-63746147D01*
X49270228Y-63810297D01*
X49105816Y-63843000D01*
X48938184Y-63843000D01*
X48773772Y-63810297D01*
X48618900Y-63746147D01*
X48479519Y-63653015D01*
X48360985Y-63534481D01*
X48267853Y-63395100D01*
X48203703Y-63240228D01*
X48171000Y-63075816D01*
X48171000Y-62908184D01*
X48203703Y-62743772D01*
X48267853Y-62588900D01*
X48360985Y-62449519D01*
X48479519Y-62330985D01*
X48618900Y-62237853D01*
X48773772Y-62173703D01*
X48938184Y-62141000D01*
X49105816Y-62141000D01*
X49270228Y-62173703D01*
X49270228Y-62173703D01*
G37*
G36*
X93053000Y-63843000D02*
G01*
X91351000Y-63843000D01*
X91351000Y-62141000D01*
X93053000Y-62141000D01*
X93053000Y-63843000D01*
X93053000Y-63843000D01*
G37*
G36*
X98546228Y-62173703D02*
G01*
X98701100Y-62237853D01*
X98840481Y-62330985D01*
X98959015Y-62449519D01*
X99052147Y-62588900D01*
X99116297Y-62743772D01*
X99149000Y-62908184D01*
X99149000Y-63075816D01*
X99116297Y-63240228D01*
X99052147Y-63395100D01*
X98959015Y-63534481D01*
X98840481Y-63653015D01*
X98701100Y-63746147D01*
X98546228Y-63810297D01*
X98381816Y-63843000D01*
X98214184Y-63843000D01*
X98049772Y-63810297D01*
X97894900Y-63746147D01*
X97755519Y-63653015D01*
X97636985Y-63534481D01*
X97543853Y-63395100D01*
X97479703Y-63240228D01*
X97447000Y-63075816D01*
X97447000Y-62908184D01*
X97479703Y-62743772D01*
X97543853Y-62588900D01*
X97636985Y-62449519D01*
X97755519Y-62330985D01*
X97894900Y-62237853D01*
X98049772Y-62173703D01*
X98214184Y-62141000D01*
X98381816Y-62141000D01*
X98546228Y-62173703D01*
X98546228Y-62173703D01*
G37*
G36*
X53334228Y-62173703D02*
G01*
X53489100Y-62237853D01*
X53628481Y-62330985D01*
X53747015Y-62449519D01*
X53840147Y-62588900D01*
X53904297Y-62743772D01*
X53937000Y-62908184D01*
X53937000Y-63075816D01*
X53904297Y-63240228D01*
X53840147Y-63395100D01*
X53747015Y-63534481D01*
X53628481Y-63653015D01*
X53489100Y-63746147D01*
X53334228Y-63810297D01*
X53169816Y-63843000D01*
X53002184Y-63843000D01*
X52837772Y-63810297D01*
X52682900Y-63746147D01*
X52543519Y-63653015D01*
X52424985Y-63534481D01*
X52331853Y-63395100D01*
X52267703Y-63240228D01*
X52235000Y-63075816D01*
X52235000Y-62908184D01*
X52267703Y-62743772D01*
X52331853Y-62588900D01*
X52424985Y-62449519D01*
X52543519Y-62330985D01*
X52682900Y-62237853D01*
X52837772Y-62173703D01*
X53002184Y-62141000D01*
X53169816Y-62141000D01*
X53334228Y-62173703D01*
X53334228Y-62173703D01*
G37*
G36*
X43777000Y-63843000D02*
G01*
X42075000Y-63843000D01*
X42075000Y-62141000D01*
X43777000Y-62141000D01*
X43777000Y-63843000D01*
X43777000Y-63843000D01*
G37*
G36*
X106674228Y-62173703D02*
G01*
X106829100Y-62237853D01*
X106968481Y-62330985D01*
X107087015Y-62449519D01*
X107180147Y-62588900D01*
X107244297Y-62743772D01*
X107277000Y-62908184D01*
X107277000Y-63075816D01*
X107244297Y-63240228D01*
X107180147Y-63395100D01*
X107087015Y-63534481D01*
X106968481Y-63653015D01*
X106829100Y-63746147D01*
X106674228Y-63810297D01*
X106509816Y-63843000D01*
X106342184Y-63843000D01*
X106177772Y-63810297D01*
X106022900Y-63746147D01*
X105883519Y-63653015D01*
X105764985Y-63534481D01*
X105671853Y-63395100D01*
X105607703Y-63240228D01*
X105575000Y-63075816D01*
X105575000Y-62908184D01*
X105607703Y-62743772D01*
X105671853Y-62588900D01*
X105764985Y-62449519D01*
X105883519Y-62330985D01*
X106022900Y-62237853D01*
X106177772Y-62173703D01*
X106342184Y-62141000D01*
X106509816Y-62141000D01*
X106674228Y-62173703D01*
X106674228Y-62173703D01*
G37*
G36*
X57398228Y-62173703D02*
G01*
X57553100Y-62237853D01*
X57692481Y-62330985D01*
X57811015Y-62449519D01*
X57904147Y-62588900D01*
X57968297Y-62743772D01*
X58001000Y-62908184D01*
X58001000Y-63075816D01*
X57968297Y-63240228D01*
X57904147Y-63395100D01*
X57811015Y-63534481D01*
X57692481Y-63653015D01*
X57553100Y-63746147D01*
X57398228Y-63810297D01*
X57233816Y-63843000D01*
X57066184Y-63843000D01*
X56901772Y-63810297D01*
X56746900Y-63746147D01*
X56607519Y-63653015D01*
X56488985Y-63534481D01*
X56395853Y-63395100D01*
X56331703Y-63240228D01*
X56299000Y-63075816D01*
X56299000Y-62908184D01*
X56331703Y-62743772D01*
X56395853Y-62588900D01*
X56488985Y-62449519D01*
X56607519Y-62330985D01*
X56746900Y-62237853D01*
X56901772Y-62173703D01*
X57066184Y-62141000D01*
X57233816Y-62141000D01*
X57398228Y-62173703D01*
X57398228Y-62173703D01*
G37*
G36*
X102610228Y-62173703D02*
G01*
X102765100Y-62237853D01*
X102904481Y-62330985D01*
X103023015Y-62449519D01*
X103116147Y-62588900D01*
X103180297Y-62743772D01*
X103213000Y-62908184D01*
X103213000Y-63075816D01*
X103180297Y-63240228D01*
X103116147Y-63395100D01*
X103023015Y-63534481D01*
X102904481Y-63653015D01*
X102765100Y-63746147D01*
X102610228Y-63810297D01*
X102445816Y-63843000D01*
X102278184Y-63843000D01*
X102113772Y-63810297D01*
X101958900Y-63746147D01*
X101819519Y-63653015D01*
X101700985Y-63534481D01*
X101607853Y-63395100D01*
X101543703Y-63240228D01*
X101511000Y-63075816D01*
X101511000Y-62908184D01*
X101543703Y-62743772D01*
X101607853Y-62588900D01*
X101700985Y-62449519D01*
X101819519Y-62330985D01*
X101958900Y-62237853D01*
X102113772Y-62173703D01*
X102278184Y-62141000D01*
X102445816Y-62141000D01*
X102610228Y-62173703D01*
X102610228Y-62173703D01*
G37*
G36*
X72068425Y-61800760D02*
G01*
X72068428Y-61800761D01*
X72068429Y-61800761D01*
X72247693Y-61855140D01*
X72247696Y-61855142D01*
X72247697Y-61855142D01*
X72412903Y-61943446D01*
X72557712Y-62062288D01*
X72676554Y-62207097D01*
X72692993Y-62237853D01*
X72764860Y-62372307D01*
X72788282Y-62449520D01*
X72819240Y-62551575D01*
X72837601Y-62738000D01*
X72819240Y-62924425D01*
X72819239Y-62924428D01*
X72819239Y-62924429D01*
X72764860Y-63103693D01*
X72764858Y-63103696D01*
X72764858Y-63103697D01*
X72676554Y-63268903D01*
X72557712Y-63413712D01*
X72412903Y-63532554D01*
X72247697Y-63620858D01*
X72247693Y-63620860D01*
X72068429Y-63675239D01*
X72068428Y-63675239D01*
X72068425Y-63675240D01*
X71928718Y-63689000D01*
X71835282Y-63689000D01*
X71695575Y-63675240D01*
X71695572Y-63675239D01*
X71695571Y-63675239D01*
X71516307Y-63620860D01*
X71516303Y-63620858D01*
X71351097Y-63532554D01*
X71206288Y-63413712D01*
X71087446Y-63268903D01*
X70999142Y-63103697D01*
X70999142Y-63103696D01*
X70999140Y-63103693D01*
X70944761Y-62924429D01*
X70944761Y-62924428D01*
X70944760Y-62924425D01*
X70926399Y-62738000D01*
X70944760Y-62551575D01*
X70975718Y-62449520D01*
X70999140Y-62372307D01*
X71071007Y-62237853D01*
X71087446Y-62207097D01*
X71206288Y-62062288D01*
X71351097Y-61943446D01*
X71516303Y-61855142D01*
X71516304Y-61855142D01*
X71516307Y-61855140D01*
X71695571Y-61800761D01*
X71695572Y-61800761D01*
X71695575Y-61800760D01*
X71835282Y-61787000D01*
X71928718Y-61787000D01*
X72068425Y-61800760D01*
X72068425Y-61800760D01*
G37*
G36*
X64959000Y-63689000D02*
G01*
X63057000Y-63689000D01*
X63057000Y-61787000D01*
X64959000Y-61787000D01*
X64959000Y-63689000D01*
X64959000Y-63689000D01*
G37*
G36*
X114235000Y-63689000D02*
G01*
X112333000Y-63689000D01*
X112333000Y-61787000D01*
X114235000Y-61787000D01*
X114235000Y-63689000D01*
X114235000Y-63689000D01*
G37*
G36*
X121344425Y-61800760D02*
G01*
X121344428Y-61800761D01*
X121344429Y-61800761D01*
X121523693Y-61855140D01*
X121523696Y-61855142D01*
X121523697Y-61855142D01*
X121688903Y-61943446D01*
X121833712Y-62062288D01*
X121952554Y-62207097D01*
X121968993Y-62237853D01*
X122040860Y-62372307D01*
X122064282Y-62449520D01*
X122095240Y-62551575D01*
X122113601Y-62738000D01*
X122095240Y-62924425D01*
X122095239Y-62924428D01*
X122095239Y-62924429D01*
X122040860Y-63103693D01*
X122040858Y-63103696D01*
X122040858Y-63103697D01*
X121952554Y-63268903D01*
X121833712Y-63413712D01*
X121688903Y-63532554D01*
X121523697Y-63620858D01*
X121523693Y-63620860D01*
X121344429Y-63675239D01*
X121344428Y-63675239D01*
X121344425Y-63675240D01*
X121204718Y-63689000D01*
X121111282Y-63689000D01*
X120971575Y-63675240D01*
X120971572Y-63675239D01*
X120971571Y-63675239D01*
X120792307Y-63620860D01*
X120792303Y-63620858D01*
X120627097Y-63532554D01*
X120482288Y-63413712D01*
X120363446Y-63268903D01*
X120275142Y-63103697D01*
X120275142Y-63103696D01*
X120275140Y-63103693D01*
X120220761Y-62924429D01*
X120220761Y-62924428D01*
X120220760Y-62924425D01*
X120202399Y-62738000D01*
X120220760Y-62551575D01*
X120251718Y-62449520D01*
X120275140Y-62372307D01*
X120347007Y-62237853D01*
X120363446Y-62207097D01*
X120482288Y-62062288D01*
X120627097Y-61943446D01*
X120792303Y-61855142D01*
X120792304Y-61855142D01*
X120792307Y-61855140D01*
X120971571Y-61800761D01*
X120971572Y-61800761D01*
X120971575Y-61800760D01*
X121111282Y-61787000D01*
X121204718Y-61787000D01*
X121344425Y-61800760D01*
X121344425Y-61800760D01*
G37*
G36*
X49270228Y-59673703D02*
G01*
X49425100Y-59737853D01*
X49564481Y-59830985D01*
X49683015Y-59949519D01*
X49776147Y-60088900D01*
X49840297Y-60243772D01*
X49873000Y-60408184D01*
X49873000Y-60575816D01*
X49840297Y-60740228D01*
X49776147Y-60895100D01*
X49683015Y-61034481D01*
X49564481Y-61153015D01*
X49425100Y-61246147D01*
X49270228Y-61310297D01*
X49105816Y-61343000D01*
X48938184Y-61343000D01*
X48773772Y-61310297D01*
X48618900Y-61246147D01*
X48479519Y-61153015D01*
X48360985Y-61034481D01*
X48267853Y-60895100D01*
X48203703Y-60740228D01*
X48171000Y-60575816D01*
X48171000Y-60408184D01*
X48203703Y-60243772D01*
X48267853Y-60088900D01*
X48360985Y-59949519D01*
X48479519Y-59830985D01*
X48618900Y-59737853D01*
X48773772Y-59673703D01*
X48938184Y-59641000D01*
X49105816Y-59641000D01*
X49270228Y-59673703D01*
X49270228Y-59673703D01*
G37*
G36*
X102610228Y-59673703D02*
G01*
X102765100Y-59737853D01*
X102904481Y-59830985D01*
X103023015Y-59949519D01*
X103116147Y-60088900D01*
X103180297Y-60243772D01*
X103213000Y-60408184D01*
X103213000Y-60575816D01*
X103180297Y-60740228D01*
X103116147Y-60895100D01*
X103023015Y-61034481D01*
X102904481Y-61153015D01*
X102765100Y-61246147D01*
X102610228Y-61310297D01*
X102445816Y-61343000D01*
X102278184Y-61343000D01*
X102113772Y-61310297D01*
X101958900Y-61246147D01*
X101819519Y-61153015D01*
X101700985Y-61034481D01*
X101607853Y-60895100D01*
X101543703Y-60740228D01*
X101511000Y-60575816D01*
X101511000Y-60408184D01*
X101543703Y-60243772D01*
X101607853Y-60088900D01*
X101700985Y-59949519D01*
X101819519Y-59830985D01*
X101958900Y-59737853D01*
X102113772Y-59673703D01*
X102278184Y-59641000D01*
X102445816Y-59641000D01*
X102610228Y-59673703D01*
X102610228Y-59673703D01*
G37*
G36*
X57398228Y-59673703D02*
G01*
X57553100Y-59737853D01*
X57692481Y-59830985D01*
X57811015Y-59949519D01*
X57904147Y-60088900D01*
X57968297Y-60243772D01*
X58001000Y-60408184D01*
X58001000Y-60575816D01*
X57968297Y-60740228D01*
X57904147Y-60895100D01*
X57811015Y-61034481D01*
X57692481Y-61153015D01*
X57553100Y-61246147D01*
X57398228Y-61310297D01*
X57233816Y-61343000D01*
X57066184Y-61343000D01*
X56901772Y-61310297D01*
X56746900Y-61246147D01*
X56607519Y-61153015D01*
X56488985Y-61034481D01*
X56395853Y-60895100D01*
X56331703Y-60740228D01*
X56299000Y-60575816D01*
X56299000Y-60408184D01*
X56331703Y-60243772D01*
X56395853Y-60088900D01*
X56488985Y-59949519D01*
X56607519Y-59830985D01*
X56746900Y-59737853D01*
X56901772Y-59673703D01*
X57066184Y-59641000D01*
X57233816Y-59641000D01*
X57398228Y-59673703D01*
X57398228Y-59673703D01*
G37*
G36*
X92450228Y-59673703D02*
G01*
X92605100Y-59737853D01*
X92744481Y-59830985D01*
X92863015Y-59949519D01*
X92956147Y-60088900D01*
X93020297Y-60243772D01*
X93053000Y-60408184D01*
X93053000Y-60575816D01*
X93020297Y-60740228D01*
X92956147Y-60895100D01*
X92863015Y-61034481D01*
X92744481Y-61153015D01*
X92605100Y-61246147D01*
X92450228Y-61310297D01*
X92285816Y-61343000D01*
X92118184Y-61343000D01*
X91953772Y-61310297D01*
X91798900Y-61246147D01*
X91659519Y-61153015D01*
X91540985Y-61034481D01*
X91447853Y-60895100D01*
X91383703Y-60740228D01*
X91351000Y-60575816D01*
X91351000Y-60408184D01*
X91383703Y-60243772D01*
X91447853Y-60088900D01*
X91540985Y-59949519D01*
X91659519Y-59830985D01*
X91798900Y-59737853D01*
X91953772Y-59673703D01*
X92118184Y-59641000D01*
X92285816Y-59641000D01*
X92450228Y-59673703D01*
X92450228Y-59673703D01*
G37*
G36*
X53334228Y-59673703D02*
G01*
X53489100Y-59737853D01*
X53628481Y-59830985D01*
X53747015Y-59949519D01*
X53840147Y-60088900D01*
X53904297Y-60243772D01*
X53937000Y-60408184D01*
X53937000Y-60575816D01*
X53904297Y-60740228D01*
X53840147Y-60895100D01*
X53747015Y-61034481D01*
X53628481Y-61153015D01*
X53489100Y-61246147D01*
X53334228Y-61310297D01*
X53169816Y-61343000D01*
X53002184Y-61343000D01*
X52837772Y-61310297D01*
X52682900Y-61246147D01*
X52543519Y-61153015D01*
X52424985Y-61034481D01*
X52331853Y-60895100D01*
X52267703Y-60740228D01*
X52235000Y-60575816D01*
X52235000Y-60408184D01*
X52267703Y-60243772D01*
X52331853Y-60088900D01*
X52424985Y-59949519D01*
X52543519Y-59830985D01*
X52682900Y-59737853D01*
X52837772Y-59673703D01*
X53002184Y-59641000D01*
X53169816Y-59641000D01*
X53334228Y-59673703D01*
X53334228Y-59673703D01*
G37*
G36*
X98546228Y-59673703D02*
G01*
X98701100Y-59737853D01*
X98840481Y-59830985D01*
X98959015Y-59949519D01*
X99052147Y-60088900D01*
X99116297Y-60243772D01*
X99149000Y-60408184D01*
X99149000Y-60575816D01*
X99116297Y-60740228D01*
X99052147Y-60895100D01*
X98959015Y-61034481D01*
X98840481Y-61153015D01*
X98701100Y-61246147D01*
X98546228Y-61310297D01*
X98381816Y-61343000D01*
X98214184Y-61343000D01*
X98049772Y-61310297D01*
X97894900Y-61246147D01*
X97755519Y-61153015D01*
X97636985Y-61034481D01*
X97543853Y-60895100D01*
X97479703Y-60740228D01*
X97447000Y-60575816D01*
X97447000Y-60408184D01*
X97479703Y-60243772D01*
X97543853Y-60088900D01*
X97636985Y-59949519D01*
X97755519Y-59830985D01*
X97894900Y-59737853D01*
X98049772Y-59673703D01*
X98214184Y-59641000D01*
X98381816Y-59641000D01*
X98546228Y-59673703D01*
X98546228Y-59673703D01*
G37*
G36*
X43174228Y-59673703D02*
G01*
X43329100Y-59737853D01*
X43468481Y-59830985D01*
X43587015Y-59949519D01*
X43680147Y-60088900D01*
X43744297Y-60243772D01*
X43777000Y-60408184D01*
X43777000Y-60575816D01*
X43744297Y-60740228D01*
X43680147Y-60895100D01*
X43587015Y-61034481D01*
X43468481Y-61153015D01*
X43329100Y-61246147D01*
X43174228Y-61310297D01*
X43009816Y-61343000D01*
X42842184Y-61343000D01*
X42677772Y-61310297D01*
X42522900Y-61246147D01*
X42383519Y-61153015D01*
X42264985Y-61034481D01*
X42171853Y-60895100D01*
X42107703Y-60740228D01*
X42075000Y-60575816D01*
X42075000Y-60408184D01*
X42107703Y-60243772D01*
X42171853Y-60088900D01*
X42264985Y-59949519D01*
X42383519Y-59830985D01*
X42522900Y-59737853D01*
X42677772Y-59673703D01*
X42842184Y-59641000D01*
X43009816Y-59641000D01*
X43174228Y-59673703D01*
X43174228Y-59673703D01*
G37*
G36*
X106674228Y-59673703D02*
G01*
X106829100Y-59737853D01*
X106968481Y-59830985D01*
X107087015Y-59949519D01*
X107180147Y-60088900D01*
X107244297Y-60243772D01*
X107277000Y-60408184D01*
X107277000Y-60575816D01*
X107244297Y-60740228D01*
X107180147Y-60895100D01*
X107087015Y-61034481D01*
X106968481Y-61153015D01*
X106829100Y-61246147D01*
X106674228Y-61310297D01*
X106509816Y-61343000D01*
X106342184Y-61343000D01*
X106177772Y-61310297D01*
X106022900Y-61246147D01*
X105883519Y-61153015D01*
X105764985Y-61034481D01*
X105671853Y-60895100D01*
X105607703Y-60740228D01*
X105575000Y-60575816D01*
X105575000Y-60408184D01*
X105607703Y-60243772D01*
X105671853Y-60088900D01*
X105764985Y-59949519D01*
X105883519Y-59830985D01*
X106022900Y-59737853D01*
X106177772Y-59673703D01*
X106342184Y-59641000D01*
X106509816Y-59641000D01*
X106674228Y-59673703D01*
X106674228Y-59673703D01*
G37*
G36*
X82690072Y-57498918D02*
G01*
X82897317Y-57584761D01*
X82935939Y-57600759D01*
X83030242Y-57663771D01*
X83157211Y-57748609D01*
X83345391Y-57936789D01*
X83493242Y-58158063D01*
X83595082Y-58403928D01*
X83628716Y-58573015D01*
X83647000Y-58664938D01*
X83647000Y-58931062D01*
X83595082Y-59192072D01*
X83493241Y-59437939D01*
X83345390Y-59659212D01*
X83157212Y-59847390D01*
X82935939Y-59995241D01*
X82935938Y-59995242D01*
X82935937Y-59995242D01*
X82690072Y-60097082D01*
X82429063Y-60149000D01*
X82162937Y-60149000D01*
X81901928Y-60097082D01*
X81656063Y-59995242D01*
X81656062Y-59995242D01*
X81656061Y-59995241D01*
X81434788Y-59847390D01*
X81246610Y-59659212D01*
X81098759Y-59437939D01*
X80996918Y-59192072D01*
X80945000Y-58931062D01*
X80945000Y-58664938D01*
X80963285Y-58573015D01*
X80996918Y-58403928D01*
X81098758Y-58158063D01*
X81246609Y-57936789D01*
X81434789Y-57748609D01*
X81561758Y-57663771D01*
X81656061Y-57600759D01*
X81694684Y-57584761D01*
X81901928Y-57498918D01*
X82162937Y-57447000D01*
X82429063Y-57447000D01*
X82690072Y-57498918D01*
X82690072Y-57498918D01*
G37*
G36*
X33414072Y-57498918D02*
G01*
X33621317Y-57584761D01*
X33659939Y-57600759D01*
X33754242Y-57663771D01*
X33881211Y-57748609D01*
X34069391Y-57936789D01*
X34217242Y-58158063D01*
X34319082Y-58403928D01*
X34352716Y-58573015D01*
X34371000Y-58664938D01*
X34371000Y-58931062D01*
X34319082Y-59192072D01*
X34217241Y-59437939D01*
X34069390Y-59659212D01*
X33881212Y-59847390D01*
X33659939Y-59995241D01*
X33659938Y-59995242D01*
X33659937Y-59995242D01*
X33414072Y-60097082D01*
X33153063Y-60149000D01*
X32886937Y-60149000D01*
X32625928Y-60097082D01*
X32380063Y-59995242D01*
X32380062Y-59995242D01*
X32380061Y-59995241D01*
X32158788Y-59847390D01*
X31970610Y-59659212D01*
X31822759Y-59437939D01*
X31720918Y-59192072D01*
X31669000Y-58931062D01*
X31669000Y-58664938D01*
X31687285Y-58573015D01*
X31720918Y-58403928D01*
X31822758Y-58158063D01*
X31970609Y-57936789D01*
X32158789Y-57748609D01*
X32285758Y-57663771D01*
X32380061Y-57600759D01*
X32418684Y-57584761D01*
X32625928Y-57498918D01*
X32886937Y-57447000D01*
X33153063Y-57447000D01*
X33414072Y-57498918D01*
X33414072Y-57498918D01*
G37*
G36*
X122086823Y-57073313D02*
G01*
X122247242Y-57121976D01*
X122314361Y-57157852D01*
X122395078Y-57200996D01*
X122524659Y-57307341D01*
X122631004Y-57436922D01*
X122631005Y-57436924D01*
X122710024Y-57584758D01*
X122758687Y-57745177D01*
X122775117Y-57912000D01*
X122758687Y-58078823D01*
X122710024Y-58239242D01*
X122669477Y-58315100D01*
X122631004Y-58387078D01*
X122524659Y-58516659D01*
X122395078Y-58623004D01*
X122395076Y-58623005D01*
X122247242Y-58702024D01*
X122086823Y-58750687D01*
X121961804Y-58763000D01*
X121878196Y-58763000D01*
X121753177Y-58750687D01*
X121592758Y-58702024D01*
X121444924Y-58623005D01*
X121444922Y-58623004D01*
X121315341Y-58516659D01*
X121208996Y-58387078D01*
X121170523Y-58315100D01*
X121129976Y-58239242D01*
X121081313Y-58078823D01*
X121064883Y-57912000D01*
X121081313Y-57745177D01*
X121129976Y-57584758D01*
X121208995Y-57436924D01*
X121208996Y-57436922D01*
X121315341Y-57307341D01*
X121444922Y-57200996D01*
X121525639Y-57157852D01*
X121592758Y-57121976D01*
X121753177Y-57073313D01*
X121878196Y-57061000D01*
X121961804Y-57061000D01*
X122086823Y-57073313D01*
X122086823Y-57073313D01*
G37*
G36*
X114548228Y-57093703D02*
G01*
X114703100Y-57157853D01*
X114842481Y-57250985D01*
X114961015Y-57369519D01*
X115054147Y-57508900D01*
X115118297Y-57663772D01*
X115151000Y-57828184D01*
X115151000Y-57995816D01*
X115118297Y-58160228D01*
X115054147Y-58315100D01*
X114961015Y-58454481D01*
X114842481Y-58573015D01*
X114703100Y-58666147D01*
X114548228Y-58730297D01*
X114383816Y-58763000D01*
X114216184Y-58763000D01*
X114051772Y-58730297D01*
X113896900Y-58666147D01*
X113757519Y-58573015D01*
X113638985Y-58454481D01*
X113545853Y-58315100D01*
X113481703Y-58160228D01*
X113449000Y-57995816D01*
X113449000Y-57828184D01*
X113481703Y-57663772D01*
X113545853Y-57508900D01*
X113638985Y-57369519D01*
X113757519Y-57250985D01*
X113896900Y-57157853D01*
X114051772Y-57093703D01*
X114216184Y-57061000D01*
X114383816Y-57061000D01*
X114548228Y-57093703D01*
X114548228Y-57093703D01*
G37*
G36*
X72810823Y-57073313D02*
G01*
X72971242Y-57121976D01*
X73038361Y-57157852D01*
X73119078Y-57200996D01*
X73248659Y-57307341D01*
X73355004Y-57436922D01*
X73355005Y-57436924D01*
X73434024Y-57584758D01*
X73482687Y-57745177D01*
X73499117Y-57912000D01*
X73482687Y-58078823D01*
X73434024Y-58239242D01*
X73393477Y-58315100D01*
X73355004Y-58387078D01*
X73248659Y-58516659D01*
X73119078Y-58623004D01*
X73119076Y-58623005D01*
X72971242Y-58702024D01*
X72810823Y-58750687D01*
X72685804Y-58763000D01*
X72602196Y-58763000D01*
X72477177Y-58750687D01*
X72316758Y-58702024D01*
X72168924Y-58623005D01*
X72168922Y-58623004D01*
X72039341Y-58516659D01*
X71932996Y-58387078D01*
X71894523Y-58315100D01*
X71853976Y-58239242D01*
X71805313Y-58078823D01*
X71788883Y-57912000D01*
X71805313Y-57745177D01*
X71853976Y-57584758D01*
X71932995Y-57436924D01*
X71932996Y-57436922D01*
X72039341Y-57307341D01*
X72168922Y-57200996D01*
X72249639Y-57157852D01*
X72316758Y-57121976D01*
X72477177Y-57073313D01*
X72602196Y-57061000D01*
X72685804Y-57061000D01*
X72810823Y-57073313D01*
X72810823Y-57073313D01*
G37*
G36*
X65272228Y-57093703D02*
G01*
X65427100Y-57157853D01*
X65566481Y-57250985D01*
X65685015Y-57369519D01*
X65778147Y-57508900D01*
X65842297Y-57663772D01*
X65875000Y-57828184D01*
X65875000Y-57995816D01*
X65842297Y-58160228D01*
X65778147Y-58315100D01*
X65685015Y-58454481D01*
X65566481Y-58573015D01*
X65427100Y-58666147D01*
X65272228Y-58730297D01*
X65107816Y-58763000D01*
X64940184Y-58763000D01*
X64775772Y-58730297D01*
X64620900Y-58666147D01*
X64481519Y-58573015D01*
X64362985Y-58454481D01*
X64269853Y-58315100D01*
X64205703Y-58160228D01*
X64173000Y-57995816D01*
X64173000Y-57828184D01*
X64205703Y-57663772D01*
X64269853Y-57508900D01*
X64362985Y-57369519D01*
X64481519Y-57250985D01*
X64620900Y-57157853D01*
X64775772Y-57093703D01*
X64940184Y-57061000D01*
X65107816Y-57061000D01*
X65272228Y-57093703D01*
X65272228Y-57093703D01*
G37*
G36*
X60192228Y-50235703D02*
G01*
X60347100Y-50299853D01*
X60486481Y-50392985D01*
X60605015Y-50511519D01*
X60698147Y-50650900D01*
X60762297Y-50805772D01*
X60795000Y-50970184D01*
X60795000Y-51137816D01*
X60762297Y-51302228D01*
X60698147Y-51457100D01*
X60605015Y-51596481D01*
X60486481Y-51715015D01*
X60347100Y-51808147D01*
X60192228Y-51872297D01*
X60027816Y-51905000D01*
X59860184Y-51905000D01*
X59695772Y-51872297D01*
X59540900Y-51808147D01*
X59401519Y-51715015D01*
X59282985Y-51596481D01*
X59189853Y-51457100D01*
X59125703Y-51302228D01*
X59093000Y-51137816D01*
X59093000Y-50970184D01*
X59125703Y-50805772D01*
X59189853Y-50650900D01*
X59282985Y-50511519D01*
X59401519Y-50392985D01*
X59540900Y-50299853D01*
X59695772Y-50235703D01*
X59860184Y-50203000D01*
X60027816Y-50203000D01*
X60192228Y-50235703D01*
X60192228Y-50235703D01*
G37*
G36*
X109468228Y-50235703D02*
G01*
X109623100Y-50299853D01*
X109762481Y-50392985D01*
X109881015Y-50511519D01*
X109974147Y-50650900D01*
X110038297Y-50805772D01*
X110071000Y-50970184D01*
X110071000Y-51137816D01*
X110038297Y-51302228D01*
X109974147Y-51457100D01*
X109881015Y-51596481D01*
X109762481Y-51715015D01*
X109623100Y-51808147D01*
X109468228Y-51872297D01*
X109303816Y-51905000D01*
X109136184Y-51905000D01*
X108971772Y-51872297D01*
X108816900Y-51808147D01*
X108677519Y-51715015D01*
X108558985Y-51596481D01*
X108465853Y-51457100D01*
X108401703Y-51302228D01*
X108369000Y-51137816D01*
X108369000Y-50970184D01*
X108401703Y-50805772D01*
X108465853Y-50650900D01*
X108558985Y-50511519D01*
X108677519Y-50392985D01*
X108816900Y-50299853D01*
X108971772Y-50235703D01*
X109136184Y-50203000D01*
X109303816Y-50203000D01*
X109468228Y-50235703D01*
X109468228Y-50235703D01*
G37*
G36*
X104706823Y-50215313D02*
G01*
X104867242Y-50263976D01*
X104934361Y-50299852D01*
X105015078Y-50342996D01*
X105144659Y-50449341D01*
X105251004Y-50578922D01*
X105251005Y-50578924D01*
X105330024Y-50726758D01*
X105378687Y-50887177D01*
X105395117Y-51054000D01*
X105378687Y-51220823D01*
X105330024Y-51381242D01*
X105289477Y-51457100D01*
X105251004Y-51529078D01*
X105144659Y-51658659D01*
X105015078Y-51765004D01*
X105015076Y-51765005D01*
X104867242Y-51844024D01*
X104706823Y-51892687D01*
X104581804Y-51905000D01*
X103698196Y-51905000D01*
X103573177Y-51892687D01*
X103412758Y-51844024D01*
X103264924Y-51765005D01*
X103264922Y-51765004D01*
X103135341Y-51658659D01*
X103028996Y-51529078D01*
X102990523Y-51457100D01*
X102949976Y-51381242D01*
X102901313Y-51220823D01*
X102884883Y-51054000D01*
X102901313Y-50887177D01*
X102949976Y-50726758D01*
X103028995Y-50578924D01*
X103028996Y-50578922D01*
X103135341Y-50449341D01*
X103264922Y-50342996D01*
X103345639Y-50299852D01*
X103412758Y-50263976D01*
X103573177Y-50215313D01*
X103698196Y-50203000D01*
X104581804Y-50203000D01*
X104706823Y-50215313D01*
X104706823Y-50215313D01*
G37*
G36*
X97086823Y-50215313D02*
G01*
X97247242Y-50263976D01*
X97314361Y-50299852D01*
X97395078Y-50342996D01*
X97524659Y-50449341D01*
X97631004Y-50578922D01*
X97631005Y-50578924D01*
X97710024Y-50726758D01*
X97758687Y-50887177D01*
X97775117Y-51054000D01*
X97758687Y-51220823D01*
X97710024Y-51381242D01*
X97669477Y-51457100D01*
X97631004Y-51529078D01*
X97524659Y-51658659D01*
X97395078Y-51765004D01*
X97395076Y-51765005D01*
X97247242Y-51844024D01*
X97086823Y-51892687D01*
X96961804Y-51905000D01*
X96078196Y-51905000D01*
X95953177Y-51892687D01*
X95792758Y-51844024D01*
X95644924Y-51765005D01*
X95644922Y-51765004D01*
X95515341Y-51658659D01*
X95408996Y-51529078D01*
X95370523Y-51457100D01*
X95329976Y-51381242D01*
X95281313Y-51220823D01*
X95264883Y-51054000D01*
X95281313Y-50887177D01*
X95329976Y-50726758D01*
X95408995Y-50578924D01*
X95408996Y-50578922D01*
X95515341Y-50449341D01*
X95644922Y-50342996D01*
X95725639Y-50299852D01*
X95792758Y-50263976D01*
X95953177Y-50215313D01*
X96078196Y-50203000D01*
X96961804Y-50203000D01*
X97086823Y-50215313D01*
X97086823Y-50215313D01*
G37*
G36*
X47810823Y-50215313D02*
G01*
X47971242Y-50263976D01*
X48038361Y-50299852D01*
X48119078Y-50342996D01*
X48248659Y-50449341D01*
X48355004Y-50578922D01*
X48355005Y-50578924D01*
X48434024Y-50726758D01*
X48482687Y-50887177D01*
X48499117Y-51054000D01*
X48482687Y-51220823D01*
X48434024Y-51381242D01*
X48393477Y-51457100D01*
X48355004Y-51529078D01*
X48248659Y-51658659D01*
X48119078Y-51765004D01*
X48119076Y-51765005D01*
X47971242Y-51844024D01*
X47810823Y-51892687D01*
X47685804Y-51905000D01*
X46802196Y-51905000D01*
X46677177Y-51892687D01*
X46516758Y-51844024D01*
X46368924Y-51765005D01*
X46368922Y-51765004D01*
X46239341Y-51658659D01*
X46132996Y-51529078D01*
X46094523Y-51457100D01*
X46053976Y-51381242D01*
X46005313Y-51220823D01*
X45988883Y-51054000D01*
X46005313Y-50887177D01*
X46053976Y-50726758D01*
X46132995Y-50578924D01*
X46132996Y-50578922D01*
X46239341Y-50449341D01*
X46368922Y-50342996D01*
X46449639Y-50299852D01*
X46516758Y-50263976D01*
X46677177Y-50215313D01*
X46802196Y-50203000D01*
X47685804Y-50203000D01*
X47810823Y-50215313D01*
X47810823Y-50215313D01*
G37*
G36*
X55430823Y-50215313D02*
G01*
X55591242Y-50263976D01*
X55658361Y-50299852D01*
X55739078Y-50342996D01*
X55868659Y-50449341D01*
X55975004Y-50578922D01*
X55975005Y-50578924D01*
X56054024Y-50726758D01*
X56102687Y-50887177D01*
X56119117Y-51054000D01*
X56102687Y-51220823D01*
X56054024Y-51381242D01*
X56013477Y-51457100D01*
X55975004Y-51529078D01*
X55868659Y-51658659D01*
X55739078Y-51765004D01*
X55739076Y-51765005D01*
X55591242Y-51844024D01*
X55430823Y-51892687D01*
X55305804Y-51905000D01*
X54422196Y-51905000D01*
X54297177Y-51892687D01*
X54136758Y-51844024D01*
X53988924Y-51765005D01*
X53988922Y-51765004D01*
X53859341Y-51658659D01*
X53752996Y-51529078D01*
X53714523Y-51457100D01*
X53673976Y-51381242D01*
X53625313Y-51220823D01*
X53608883Y-51054000D01*
X53625313Y-50887177D01*
X53673976Y-50726758D01*
X53752995Y-50578924D01*
X53752996Y-50578922D01*
X53859341Y-50449341D01*
X53988922Y-50342996D01*
X54069639Y-50299852D01*
X54136758Y-50263976D01*
X54297177Y-50215313D01*
X54422196Y-50203000D01*
X55305804Y-50203000D01*
X55430823Y-50215313D01*
X55430823Y-50215313D01*
G37*
G36*
X83647000Y-50881000D02*
G01*
X80945000Y-50881000D01*
X80945000Y-48179000D01*
X83647000Y-48179000D01*
X83647000Y-50881000D01*
X83647000Y-50881000D01*
G37*
G36*
X34371000Y-50881000D02*
G01*
X31669000Y-50881000D01*
X31669000Y-48179000D01*
X34371000Y-48179000D01*
X34371000Y-50881000D01*
X34371000Y-50881000D01*
G37*
G36*
X43723000Y-50279500D02*
G01*
X41621000Y-50279500D01*
X41621000Y-48272500D01*
X43723000Y-48272500D01*
X43723000Y-50279500D01*
X43723000Y-50279500D01*
G37*
G36*
X92999000Y-50279500D02*
G01*
X90897000Y-50279500D01*
X90897000Y-48272500D01*
X92999000Y-48272500D01*
X92999000Y-50279500D01*
X92999000Y-50279500D01*
G37*
G36*
X120517183Y-48514000D02*
G01*
X120620893Y-48534629D01*
X120761206Y-48592748D01*
X120887484Y-48677125D01*
X120994875Y-48784516D01*
X121079252Y-48910794D01*
X121137371Y-49051107D01*
X121167000Y-49200063D01*
X121167000Y-49351937D01*
X121137371Y-49500893D01*
X121079252Y-49641206D01*
X120994875Y-49767484D01*
X120887484Y-49874875D01*
X120761206Y-49959252D01*
X120620893Y-50017371D01*
X120521589Y-50037124D01*
X120471938Y-50047000D01*
X120320062Y-50047000D01*
X120270411Y-50037124D01*
X120171107Y-50017371D01*
X120030794Y-49959252D01*
X119904516Y-49874875D01*
X119797125Y-49767484D01*
X119712748Y-49641206D01*
X119654629Y-49500893D01*
X119625000Y-49351937D01*
X119625000Y-49200063D01*
X119654629Y-49051107D01*
X119712748Y-48910794D01*
X119797125Y-48784516D01*
X119904516Y-48677125D01*
X120030794Y-48592748D01*
X120171107Y-48534629D01*
X120274817Y-48514000D01*
X120320062Y-48505000D01*
X120471938Y-48505000D01*
X120517183Y-48514000D01*
X120517183Y-48514000D01*
G37*
G36*
X66161183Y-48514000D02*
G01*
X66264893Y-48534629D01*
X66405206Y-48592748D01*
X66531484Y-48677125D01*
X66638875Y-48784516D01*
X66723252Y-48910794D01*
X66781371Y-49051107D01*
X66811000Y-49200063D01*
X66811000Y-49351937D01*
X66781371Y-49500893D01*
X66723252Y-49641206D01*
X66638875Y-49767484D01*
X66531484Y-49874875D01*
X66405206Y-49959252D01*
X66264893Y-50017371D01*
X66165589Y-50037124D01*
X66115938Y-50047000D01*
X65964062Y-50047000D01*
X65914411Y-50037124D01*
X65815107Y-50017371D01*
X65674794Y-49959252D01*
X65548516Y-49874875D01*
X65441125Y-49767484D01*
X65356748Y-49641206D01*
X65298629Y-49500893D01*
X65269000Y-49351937D01*
X65269000Y-49200063D01*
X65298629Y-49051107D01*
X65356748Y-48910794D01*
X65441125Y-48784516D01*
X65548516Y-48677125D01*
X65674794Y-48592748D01*
X65815107Y-48534629D01*
X65918817Y-48514000D01*
X65964062Y-48505000D01*
X66115938Y-48505000D01*
X66161183Y-48514000D01*
X66161183Y-48514000D01*
G37*
G36*
X68701183Y-48514000D02*
G01*
X68804893Y-48534629D01*
X68945206Y-48592748D01*
X69071484Y-48677125D01*
X69178875Y-48784516D01*
X69263252Y-48910794D01*
X69321371Y-49051107D01*
X69351000Y-49200063D01*
X69351000Y-49351937D01*
X69321371Y-49500893D01*
X69263252Y-49641206D01*
X69178875Y-49767484D01*
X69071484Y-49874875D01*
X68945206Y-49959252D01*
X68804893Y-50017371D01*
X68705589Y-50037124D01*
X68655938Y-50047000D01*
X68504062Y-50047000D01*
X68454411Y-50037124D01*
X68355107Y-50017371D01*
X68214794Y-49959252D01*
X68088516Y-49874875D01*
X67981125Y-49767484D01*
X67896748Y-49641206D01*
X67838629Y-49500893D01*
X67809000Y-49351937D01*
X67809000Y-49200063D01*
X67838629Y-49051107D01*
X67896748Y-48910794D01*
X67981125Y-48784516D01*
X68088516Y-48677125D01*
X68214794Y-48592748D01*
X68355107Y-48534629D01*
X68458817Y-48514000D01*
X68504062Y-48505000D01*
X68655938Y-48505000D01*
X68701183Y-48514000D01*
X68701183Y-48514000D01*
G37*
G36*
X71241183Y-48514000D02*
G01*
X71344893Y-48534629D01*
X71485206Y-48592748D01*
X71611484Y-48677125D01*
X71718875Y-48784516D01*
X71803252Y-48910794D01*
X71861371Y-49051107D01*
X71891000Y-49200063D01*
X71891000Y-49351937D01*
X71861371Y-49500893D01*
X71803252Y-49641206D01*
X71718875Y-49767484D01*
X71611484Y-49874875D01*
X71485206Y-49959252D01*
X71344893Y-50017371D01*
X71245589Y-50037124D01*
X71195938Y-50047000D01*
X71044062Y-50047000D01*
X70994411Y-50037124D01*
X70895107Y-50017371D01*
X70754794Y-49959252D01*
X70628516Y-49874875D01*
X70521125Y-49767484D01*
X70436748Y-49641206D01*
X70378629Y-49500893D01*
X70349000Y-49351937D01*
X70349000Y-49200063D01*
X70378629Y-49051107D01*
X70436748Y-48910794D01*
X70521125Y-48784516D01*
X70628516Y-48677125D01*
X70754794Y-48592748D01*
X70895107Y-48534629D01*
X70998817Y-48514000D01*
X71044062Y-48505000D01*
X71195938Y-48505000D01*
X71241183Y-48514000D01*
X71241183Y-48514000D01*
G37*
G36*
X115437183Y-48514000D02*
G01*
X115540893Y-48534629D01*
X115681206Y-48592748D01*
X115807484Y-48677125D01*
X115914875Y-48784516D01*
X115999252Y-48910794D01*
X116057371Y-49051107D01*
X116087000Y-49200063D01*
X116087000Y-49351937D01*
X116057371Y-49500893D01*
X115999252Y-49641206D01*
X115914875Y-49767484D01*
X115807484Y-49874875D01*
X115681206Y-49959252D01*
X115540893Y-50017371D01*
X115441589Y-50037124D01*
X115391938Y-50047000D01*
X115240062Y-50047000D01*
X115190411Y-50037124D01*
X115091107Y-50017371D01*
X114950794Y-49959252D01*
X114824516Y-49874875D01*
X114717125Y-49767484D01*
X114632748Y-49641206D01*
X114574629Y-49500893D01*
X114545000Y-49351937D01*
X114545000Y-49200063D01*
X114574629Y-49051107D01*
X114632748Y-48910794D01*
X114717125Y-48784516D01*
X114824516Y-48677125D01*
X114950794Y-48592748D01*
X115091107Y-48534629D01*
X115194817Y-48514000D01*
X115240062Y-48505000D01*
X115391938Y-48505000D01*
X115437183Y-48514000D01*
X115437183Y-48514000D01*
G37*
G36*
X117977183Y-48514000D02*
G01*
X118080893Y-48534629D01*
X118221206Y-48592748D01*
X118347484Y-48677125D01*
X118454875Y-48784516D01*
X118539252Y-48910794D01*
X118597371Y-49051107D01*
X118627000Y-49200063D01*
X118627000Y-49351937D01*
X118597371Y-49500893D01*
X118539252Y-49641206D01*
X118454875Y-49767484D01*
X118347484Y-49874875D01*
X118221206Y-49959252D01*
X118080893Y-50017371D01*
X117981589Y-50037124D01*
X117931938Y-50047000D01*
X117780062Y-50047000D01*
X117730411Y-50037124D01*
X117631107Y-50017371D01*
X117490794Y-49959252D01*
X117364516Y-49874875D01*
X117257125Y-49767484D01*
X117172748Y-49641206D01*
X117114629Y-49500893D01*
X117085000Y-49351937D01*
X117085000Y-49200063D01*
X117114629Y-49051107D01*
X117172748Y-48910794D01*
X117257125Y-48784516D01*
X117364516Y-48677125D01*
X117490794Y-48592748D01*
X117631107Y-48534629D01*
X117734817Y-48514000D01*
X117780062Y-48505000D01*
X117931938Y-48505000D01*
X117977183Y-48514000D01*
X117977183Y-48514000D01*
G37*
G36*
X104706823Y-47675313D02*
G01*
X104867242Y-47723976D01*
X104999906Y-47794886D01*
X105015078Y-47802996D01*
X105144659Y-47909341D01*
X105251004Y-48038922D01*
X105251005Y-48038924D01*
X105330024Y-48186758D01*
X105378687Y-48347177D01*
X105395117Y-48514000D01*
X105378687Y-48680823D01*
X105330024Y-48841242D01*
X105259114Y-48973906D01*
X105251004Y-48989078D01*
X105144659Y-49118659D01*
X105015078Y-49225004D01*
X105015076Y-49225005D01*
X104867242Y-49304024D01*
X104706823Y-49352687D01*
X104581804Y-49365000D01*
X103698196Y-49365000D01*
X103573177Y-49352687D01*
X103412758Y-49304024D01*
X103264924Y-49225005D01*
X103264922Y-49225004D01*
X103135341Y-49118659D01*
X103028996Y-48989078D01*
X103020886Y-48973906D01*
X102949976Y-48841242D01*
X102901313Y-48680823D01*
X102884883Y-48514000D01*
X102901313Y-48347177D01*
X102949976Y-48186758D01*
X103028995Y-48038924D01*
X103028996Y-48038922D01*
X103135341Y-47909341D01*
X103264922Y-47802996D01*
X103280094Y-47794886D01*
X103412758Y-47723976D01*
X103573177Y-47675313D01*
X103698196Y-47663000D01*
X104581804Y-47663000D01*
X104706823Y-47675313D01*
X104706823Y-47675313D01*
G37*
G36*
X97086823Y-47675313D02*
G01*
X97247242Y-47723976D01*
X97379906Y-47794886D01*
X97395078Y-47802996D01*
X97524659Y-47909341D01*
X97631004Y-48038922D01*
X97631005Y-48038924D01*
X97710024Y-48186758D01*
X97758687Y-48347177D01*
X97775117Y-48514000D01*
X97758687Y-48680823D01*
X97710024Y-48841242D01*
X97639114Y-48973906D01*
X97631004Y-48989078D01*
X97524659Y-49118659D01*
X97395078Y-49225004D01*
X97395076Y-49225005D01*
X97247242Y-49304024D01*
X97086823Y-49352687D01*
X96961804Y-49365000D01*
X96078196Y-49365000D01*
X95953177Y-49352687D01*
X95792758Y-49304024D01*
X95644924Y-49225005D01*
X95644922Y-49225004D01*
X95515341Y-49118659D01*
X95408996Y-48989078D01*
X95400886Y-48973906D01*
X95329976Y-48841242D01*
X95281313Y-48680823D01*
X95264883Y-48514000D01*
X95281313Y-48347177D01*
X95329976Y-48186758D01*
X95408995Y-48038924D01*
X95408996Y-48038922D01*
X95515341Y-47909341D01*
X95644922Y-47802996D01*
X95660094Y-47794886D01*
X95792758Y-47723976D01*
X95953177Y-47675313D01*
X96078196Y-47663000D01*
X96961804Y-47663000D01*
X97086823Y-47675313D01*
X97086823Y-47675313D01*
G37*
G36*
X47810823Y-47675313D02*
G01*
X47971242Y-47723976D01*
X48103906Y-47794886D01*
X48119078Y-47802996D01*
X48248659Y-47909341D01*
X48355004Y-48038922D01*
X48355005Y-48038924D01*
X48434024Y-48186758D01*
X48482687Y-48347177D01*
X48499117Y-48514000D01*
X48482687Y-48680823D01*
X48434024Y-48841242D01*
X48363114Y-48973906D01*
X48355004Y-48989078D01*
X48248659Y-49118659D01*
X48119078Y-49225004D01*
X48119076Y-49225005D01*
X47971242Y-49304024D01*
X47810823Y-49352687D01*
X47685804Y-49365000D01*
X46802196Y-49365000D01*
X46677177Y-49352687D01*
X46516758Y-49304024D01*
X46368924Y-49225005D01*
X46368922Y-49225004D01*
X46239341Y-49118659D01*
X46132996Y-48989078D01*
X46124886Y-48973906D01*
X46053976Y-48841242D01*
X46005313Y-48680823D01*
X45988883Y-48514000D01*
X46005313Y-48347177D01*
X46053976Y-48186758D01*
X46132995Y-48038924D01*
X46132996Y-48038922D01*
X46239341Y-47909341D01*
X46368922Y-47802996D01*
X46384094Y-47794886D01*
X46516758Y-47723976D01*
X46677177Y-47675313D01*
X46802196Y-47663000D01*
X47685804Y-47663000D01*
X47810823Y-47675313D01*
X47810823Y-47675313D01*
G37*
G36*
X55430823Y-47675313D02*
G01*
X55591242Y-47723976D01*
X55723906Y-47794886D01*
X55739078Y-47802996D01*
X55868659Y-47909341D01*
X55975004Y-48038922D01*
X55975005Y-48038924D01*
X56054024Y-48186758D01*
X56102687Y-48347177D01*
X56119117Y-48514000D01*
X56102687Y-48680823D01*
X56054024Y-48841242D01*
X55983114Y-48973906D01*
X55975004Y-48989078D01*
X55868659Y-49118659D01*
X55739078Y-49225004D01*
X55739076Y-49225005D01*
X55591242Y-49304024D01*
X55430823Y-49352687D01*
X55305804Y-49365000D01*
X54422196Y-49365000D01*
X54297177Y-49352687D01*
X54136758Y-49304024D01*
X53988924Y-49225005D01*
X53988922Y-49225004D01*
X53859341Y-49118659D01*
X53752996Y-48989078D01*
X53744886Y-48973906D01*
X53673976Y-48841242D01*
X53625313Y-48680823D01*
X53608883Y-48514000D01*
X53625313Y-48347177D01*
X53673976Y-48186758D01*
X53752995Y-48038924D01*
X53752996Y-48038922D01*
X53859341Y-47909341D01*
X53988922Y-47802996D01*
X54004094Y-47794886D01*
X54136758Y-47723976D01*
X54297177Y-47675313D01*
X54422196Y-47663000D01*
X55305804Y-47663000D01*
X55430823Y-47675313D01*
X55430823Y-47675313D01*
G37*
G36*
X92093936Y-45737340D02*
G01*
X92192220Y-45747020D01*
X92381381Y-45804401D01*
X92555712Y-45897583D01*
X92708515Y-46022985D01*
X92833917Y-46175788D01*
X92927099Y-46350119D01*
X92984480Y-46539280D01*
X93003855Y-46736000D01*
X92984480Y-46932720D01*
X92927099Y-47121881D01*
X92833917Y-47296212D01*
X92708515Y-47449015D01*
X92555712Y-47574417D01*
X92381381Y-47667599D01*
X92192220Y-47724980D01*
X92093936Y-47734660D01*
X92044795Y-47739500D01*
X91851205Y-47739500D01*
X91802064Y-47734660D01*
X91703780Y-47724980D01*
X91514619Y-47667599D01*
X91340288Y-47574417D01*
X91187485Y-47449015D01*
X91062083Y-47296212D01*
X90968901Y-47121881D01*
X90911520Y-46932720D01*
X90892145Y-46736000D01*
X90911520Y-46539280D01*
X90968901Y-46350119D01*
X91062083Y-46175788D01*
X91187485Y-46022985D01*
X91340288Y-45897583D01*
X91514619Y-45804401D01*
X91703780Y-45747020D01*
X91802064Y-45737340D01*
X91851205Y-45732500D01*
X92044795Y-45732500D01*
X92093936Y-45737340D01*
X92093936Y-45737340D01*
G37*
G36*
X42817936Y-45737340D02*
G01*
X42916220Y-45747020D01*
X43105381Y-45804401D01*
X43279712Y-45897583D01*
X43432515Y-46022985D01*
X43557917Y-46175788D01*
X43651099Y-46350119D01*
X43708480Y-46539280D01*
X43727855Y-46736000D01*
X43708480Y-46932720D01*
X43651099Y-47121881D01*
X43557917Y-47296212D01*
X43432515Y-47449015D01*
X43279712Y-47574417D01*
X43105381Y-47667599D01*
X42916220Y-47724980D01*
X42817936Y-47734660D01*
X42768795Y-47739500D01*
X42575205Y-47739500D01*
X42526064Y-47734660D01*
X42427780Y-47724980D01*
X42238619Y-47667599D01*
X42064288Y-47574417D01*
X41911485Y-47449015D01*
X41786083Y-47296212D01*
X41692901Y-47121881D01*
X41635520Y-46932720D01*
X41616145Y-46736000D01*
X41635520Y-46539280D01*
X41692901Y-46350119D01*
X41786083Y-46175788D01*
X41911485Y-46022985D01*
X42064288Y-45897583D01*
X42238619Y-45804401D01*
X42427780Y-45747020D01*
X42526064Y-45737340D01*
X42575205Y-45732500D01*
X42768795Y-45732500D01*
X42817936Y-45737340D01*
X42817936Y-45737340D01*
G37*
G36*
X55430823Y-45135313D02*
G01*
X55591242Y-45183976D01*
X55723906Y-45254886D01*
X55739078Y-45262996D01*
X55868659Y-45369341D01*
X55975004Y-45498922D01*
X55975005Y-45498924D01*
X56054024Y-45646758D01*
X56102687Y-45807177D01*
X56119117Y-45974000D01*
X56102687Y-46140823D01*
X56054024Y-46301242D01*
X55983114Y-46433906D01*
X55975004Y-46449078D01*
X55868659Y-46578659D01*
X55739078Y-46685004D01*
X55739076Y-46685005D01*
X55591242Y-46764024D01*
X55430823Y-46812687D01*
X55305804Y-46825000D01*
X54422196Y-46825000D01*
X54297177Y-46812687D01*
X54136758Y-46764024D01*
X53988924Y-46685005D01*
X53988922Y-46685004D01*
X53859341Y-46578659D01*
X53752996Y-46449078D01*
X53744886Y-46433906D01*
X53673976Y-46301242D01*
X53625313Y-46140823D01*
X53608883Y-45974000D01*
X53625313Y-45807177D01*
X53673976Y-45646758D01*
X53752995Y-45498924D01*
X53752996Y-45498922D01*
X53859341Y-45369341D01*
X53988922Y-45262996D01*
X54004094Y-45254886D01*
X54136758Y-45183976D01*
X54297177Y-45135313D01*
X54422196Y-45123000D01*
X55305804Y-45123000D01*
X55430823Y-45135313D01*
X55430823Y-45135313D01*
G37*
G36*
X47810823Y-45135313D02*
G01*
X47971242Y-45183976D01*
X48103906Y-45254886D01*
X48119078Y-45262996D01*
X48248659Y-45369341D01*
X48355004Y-45498922D01*
X48355005Y-45498924D01*
X48434024Y-45646758D01*
X48482687Y-45807177D01*
X48499117Y-45974000D01*
X48482687Y-46140823D01*
X48434024Y-46301242D01*
X48363114Y-46433906D01*
X48355004Y-46449078D01*
X48248659Y-46578659D01*
X48119078Y-46685004D01*
X48119076Y-46685005D01*
X47971242Y-46764024D01*
X47810823Y-46812687D01*
X47685804Y-46825000D01*
X46802196Y-46825000D01*
X46677177Y-46812687D01*
X46516758Y-46764024D01*
X46368924Y-46685005D01*
X46368922Y-46685004D01*
X46239341Y-46578659D01*
X46132996Y-46449078D01*
X46124886Y-46433906D01*
X46053976Y-46301242D01*
X46005313Y-46140823D01*
X45988883Y-45974000D01*
X46005313Y-45807177D01*
X46053976Y-45646758D01*
X46132995Y-45498924D01*
X46132996Y-45498922D01*
X46239341Y-45369341D01*
X46368922Y-45262996D01*
X46384094Y-45254886D01*
X46516758Y-45183976D01*
X46677177Y-45135313D01*
X46802196Y-45123000D01*
X47685804Y-45123000D01*
X47810823Y-45135313D01*
X47810823Y-45135313D01*
G37*
G36*
X104706823Y-45135313D02*
G01*
X104867242Y-45183976D01*
X104999906Y-45254886D01*
X105015078Y-45262996D01*
X105144659Y-45369341D01*
X105251004Y-45498922D01*
X105251005Y-45498924D01*
X105330024Y-45646758D01*
X105378687Y-45807177D01*
X105395117Y-45974000D01*
X105378687Y-46140823D01*
X105330024Y-46301242D01*
X105259114Y-46433906D01*
X105251004Y-46449078D01*
X105144659Y-46578659D01*
X105015078Y-46685004D01*
X105015076Y-46685005D01*
X104867242Y-46764024D01*
X104706823Y-46812687D01*
X104581804Y-46825000D01*
X103698196Y-46825000D01*
X103573177Y-46812687D01*
X103412758Y-46764024D01*
X103264924Y-46685005D01*
X103264922Y-46685004D01*
X103135341Y-46578659D01*
X103028996Y-46449078D01*
X103020886Y-46433906D01*
X102949976Y-46301242D01*
X102901313Y-46140823D01*
X102884883Y-45974000D01*
X102901313Y-45807177D01*
X102949976Y-45646758D01*
X103028995Y-45498924D01*
X103028996Y-45498922D01*
X103135341Y-45369341D01*
X103264922Y-45262996D01*
X103280094Y-45254886D01*
X103412758Y-45183976D01*
X103573177Y-45135313D01*
X103698196Y-45123000D01*
X104581804Y-45123000D01*
X104706823Y-45135313D01*
X104706823Y-45135313D01*
G37*
G36*
X97086823Y-45135313D02*
G01*
X97247242Y-45183976D01*
X97379906Y-45254886D01*
X97395078Y-45262996D01*
X97524659Y-45369341D01*
X97631004Y-45498922D01*
X97631005Y-45498924D01*
X97710024Y-45646758D01*
X97758687Y-45807177D01*
X97775117Y-45974000D01*
X97758687Y-46140823D01*
X97710024Y-46301242D01*
X97639114Y-46433906D01*
X97631004Y-46449078D01*
X97524659Y-46578659D01*
X97395078Y-46685004D01*
X97395076Y-46685005D01*
X97247242Y-46764024D01*
X97086823Y-46812687D01*
X96961804Y-46825000D01*
X96078196Y-46825000D01*
X95953177Y-46812687D01*
X95792758Y-46764024D01*
X95644924Y-46685005D01*
X95644922Y-46685004D01*
X95515341Y-46578659D01*
X95408996Y-46449078D01*
X95400886Y-46433906D01*
X95329976Y-46301242D01*
X95281313Y-46140823D01*
X95264883Y-45974000D01*
X95281313Y-45807177D01*
X95329976Y-45646758D01*
X95408995Y-45498924D01*
X95408996Y-45498922D01*
X95515341Y-45369341D01*
X95644922Y-45262996D01*
X95660094Y-45254886D01*
X95792758Y-45183976D01*
X95953177Y-45135313D01*
X96078196Y-45123000D01*
X96961804Y-45123000D01*
X97086823Y-45135313D01*
X97086823Y-45135313D01*
G37*
G36*
X82690072Y-43150918D02*
G01*
X82815576Y-43202903D01*
X82935939Y-43252759D01*
X83047328Y-43327187D01*
X83157211Y-43400609D01*
X83345391Y-43588789D01*
X83493242Y-43810063D01*
X83595082Y-44055928D01*
X83628519Y-44224025D01*
X83647000Y-44316938D01*
X83647000Y-44583062D01*
X83595082Y-44844072D01*
X83493241Y-45089939D01*
X83345390Y-45311212D01*
X83157212Y-45499390D01*
X82935939Y-45647241D01*
X82935938Y-45647242D01*
X82935937Y-45647242D01*
X82690072Y-45749082D01*
X82429063Y-45801000D01*
X82162937Y-45801000D01*
X81901928Y-45749082D01*
X81656063Y-45647242D01*
X81656062Y-45647242D01*
X81656061Y-45647241D01*
X81434788Y-45499390D01*
X81246610Y-45311212D01*
X81098759Y-45089939D01*
X80996918Y-44844072D01*
X80945000Y-44583062D01*
X80945000Y-44316938D01*
X80963482Y-44224025D01*
X80996918Y-44055928D01*
X81098758Y-43810063D01*
X81246609Y-43588789D01*
X81434789Y-43400609D01*
X81544672Y-43327187D01*
X81656061Y-43252759D01*
X81776425Y-43202903D01*
X81901928Y-43150918D01*
X82162937Y-43099000D01*
X82429063Y-43099000D01*
X82690072Y-43150918D01*
X82690072Y-43150918D01*
G37*
G36*
X33414072Y-43150918D02*
G01*
X33539576Y-43202903D01*
X33659939Y-43252759D01*
X33771328Y-43327187D01*
X33881211Y-43400609D01*
X34069391Y-43588789D01*
X34217242Y-43810063D01*
X34319082Y-44055928D01*
X34352519Y-44224025D01*
X34371000Y-44316938D01*
X34371000Y-44583062D01*
X34319082Y-44844072D01*
X34217241Y-45089939D01*
X34069390Y-45311212D01*
X33881212Y-45499390D01*
X33659939Y-45647241D01*
X33659938Y-45647242D01*
X33659937Y-45647242D01*
X33414072Y-45749082D01*
X33153063Y-45801000D01*
X32886937Y-45801000D01*
X32625928Y-45749082D01*
X32380063Y-45647242D01*
X32380062Y-45647242D01*
X32380061Y-45647241D01*
X32158788Y-45499390D01*
X31970610Y-45311212D01*
X31822759Y-45089939D01*
X31720918Y-44844072D01*
X31669000Y-44583062D01*
X31669000Y-44316938D01*
X31687482Y-44224025D01*
X31720918Y-44055928D01*
X31822758Y-43810063D01*
X31970609Y-43588789D01*
X32158789Y-43400609D01*
X32268672Y-43327187D01*
X32380061Y-43252759D01*
X32500425Y-43202903D01*
X32625928Y-43150918D01*
X32886937Y-43099000D01*
X33153063Y-43099000D01*
X33414072Y-43150918D01*
X33414072Y-43150918D01*
G37*
G36*
X92093936Y-43197340D02*
G01*
X92192220Y-43207020D01*
X92381381Y-43264401D01*
X92555712Y-43357583D01*
X92708515Y-43482985D01*
X92833917Y-43635788D01*
X92927099Y-43810119D01*
X92984480Y-43999280D01*
X93003855Y-44196000D01*
X92984480Y-44392720D01*
X92927099Y-44581881D01*
X92833917Y-44756212D01*
X92708515Y-44909015D01*
X92555712Y-45034417D01*
X92381381Y-45127599D01*
X92192220Y-45184980D01*
X92093936Y-45194660D01*
X92044795Y-45199500D01*
X91851205Y-45199500D01*
X91802064Y-45194660D01*
X91703780Y-45184980D01*
X91514619Y-45127599D01*
X91340288Y-45034417D01*
X91187485Y-44909015D01*
X91062083Y-44756212D01*
X90968901Y-44581881D01*
X90911520Y-44392720D01*
X90892145Y-44196000D01*
X90911520Y-43999280D01*
X90968901Y-43810119D01*
X91062083Y-43635788D01*
X91187485Y-43482985D01*
X91340288Y-43357583D01*
X91514619Y-43264401D01*
X91703780Y-43207020D01*
X91802064Y-43197340D01*
X91851205Y-43192500D01*
X92044795Y-43192500D01*
X92093936Y-43197340D01*
X92093936Y-43197340D01*
G37*
G36*
X42817936Y-43197340D02*
G01*
X42916220Y-43207020D01*
X43105381Y-43264401D01*
X43279712Y-43357583D01*
X43432515Y-43482985D01*
X43557917Y-43635788D01*
X43651099Y-43810119D01*
X43708480Y-43999280D01*
X43727855Y-44196000D01*
X43708480Y-44392720D01*
X43651099Y-44581881D01*
X43557917Y-44756212D01*
X43432515Y-44909015D01*
X43279712Y-45034417D01*
X43105381Y-45127599D01*
X42916220Y-45184980D01*
X42817936Y-45194660D01*
X42768795Y-45199500D01*
X42575205Y-45199500D01*
X42526064Y-45194660D01*
X42427780Y-45184980D01*
X42238619Y-45127599D01*
X42064288Y-45034417D01*
X41911485Y-44909015D01*
X41786083Y-44756212D01*
X41692901Y-44581881D01*
X41635520Y-44392720D01*
X41616145Y-44196000D01*
X41635520Y-43999280D01*
X41692901Y-43810119D01*
X41786083Y-43635788D01*
X41911485Y-43482985D01*
X42064288Y-43357583D01*
X42238619Y-43264401D01*
X42427780Y-43207020D01*
X42526064Y-43197340D01*
X42575205Y-43192500D01*
X42768795Y-43192500D01*
X42817936Y-43197340D01*
X42817936Y-43197340D01*
G37*
G36*
X48495000Y-44285000D02*
G01*
X45993000Y-44285000D01*
X45993000Y-42583000D01*
X48495000Y-42583000D01*
X48495000Y-44285000D01*
X48495000Y-44285000D01*
G37*
G36*
X109386823Y-42595313D02*
G01*
X109547242Y-42643976D01*
X109679906Y-42714886D01*
X109695078Y-42722996D01*
X109824659Y-42829341D01*
X109931004Y-42958922D01*
X109931005Y-42958924D01*
X110010024Y-43106758D01*
X110058687Y-43267177D01*
X110075117Y-43434000D01*
X110058687Y-43600823D01*
X110010024Y-43761242D01*
X109939114Y-43893906D01*
X109931004Y-43909078D01*
X109824659Y-44038659D01*
X109695078Y-44145004D01*
X109695076Y-44145005D01*
X109547242Y-44224024D01*
X109386823Y-44272687D01*
X109261804Y-44285000D01*
X109178196Y-44285000D01*
X109053177Y-44272687D01*
X108892758Y-44224024D01*
X108744924Y-44145005D01*
X108744922Y-44145004D01*
X108615341Y-44038659D01*
X108508996Y-43909078D01*
X108500886Y-43893906D01*
X108429976Y-43761242D01*
X108381313Y-43600823D01*
X108364883Y-43434000D01*
X108381313Y-43267177D01*
X108429976Y-43106758D01*
X108508995Y-42958924D01*
X108508996Y-42958922D01*
X108615341Y-42829341D01*
X108744922Y-42722996D01*
X108760094Y-42714886D01*
X108892758Y-42643976D01*
X109053177Y-42595313D01*
X109178196Y-42583000D01*
X109261804Y-42583000D01*
X109386823Y-42595313D01*
X109386823Y-42595313D01*
G37*
G36*
X104706823Y-42595313D02*
G01*
X104867242Y-42643976D01*
X104999906Y-42714886D01*
X105015078Y-42722996D01*
X105144659Y-42829341D01*
X105251004Y-42958922D01*
X105251005Y-42958924D01*
X105330024Y-43106758D01*
X105378687Y-43267177D01*
X105395117Y-43434000D01*
X105378687Y-43600823D01*
X105330024Y-43761242D01*
X105259114Y-43893906D01*
X105251004Y-43909078D01*
X105144659Y-44038659D01*
X105015078Y-44145004D01*
X105015076Y-44145005D01*
X104867242Y-44224024D01*
X104706823Y-44272687D01*
X104581804Y-44285000D01*
X103698196Y-44285000D01*
X103573177Y-44272687D01*
X103412758Y-44224024D01*
X103264924Y-44145005D01*
X103264922Y-44145004D01*
X103135341Y-44038659D01*
X103028996Y-43909078D01*
X103020886Y-43893906D01*
X102949976Y-43761242D01*
X102901313Y-43600823D01*
X102884883Y-43434000D01*
X102901313Y-43267177D01*
X102949976Y-43106758D01*
X103028995Y-42958924D01*
X103028996Y-42958922D01*
X103135341Y-42829341D01*
X103264922Y-42722996D01*
X103280094Y-42714886D01*
X103412758Y-42643976D01*
X103573177Y-42595313D01*
X103698196Y-42583000D01*
X104581804Y-42583000D01*
X104706823Y-42595313D01*
X104706823Y-42595313D01*
G37*
G36*
X97771000Y-44285000D02*
G01*
X95269000Y-44285000D01*
X95269000Y-42583000D01*
X97771000Y-42583000D01*
X97771000Y-44285000D01*
X97771000Y-44285000D01*
G37*
G36*
X55430823Y-42595313D02*
G01*
X55591242Y-42643976D01*
X55723906Y-42714886D01*
X55739078Y-42722996D01*
X55868659Y-42829341D01*
X55975004Y-42958922D01*
X55975005Y-42958924D01*
X56054024Y-43106758D01*
X56102687Y-43267177D01*
X56119117Y-43434000D01*
X56102687Y-43600823D01*
X56054024Y-43761242D01*
X55983114Y-43893906D01*
X55975004Y-43909078D01*
X55868659Y-44038659D01*
X55739078Y-44145004D01*
X55739076Y-44145005D01*
X55591242Y-44224024D01*
X55430823Y-44272687D01*
X55305804Y-44285000D01*
X54422196Y-44285000D01*
X54297177Y-44272687D01*
X54136758Y-44224024D01*
X53988924Y-44145005D01*
X53988922Y-44145004D01*
X53859341Y-44038659D01*
X53752996Y-43909078D01*
X53744886Y-43893906D01*
X53673976Y-43761242D01*
X53625313Y-43600823D01*
X53608883Y-43434000D01*
X53625313Y-43267177D01*
X53673976Y-43106758D01*
X53752995Y-42958924D01*
X53752996Y-42958922D01*
X53859341Y-42829341D01*
X53988922Y-42722996D01*
X54004094Y-42714886D01*
X54136758Y-42643976D01*
X54297177Y-42595313D01*
X54422196Y-42583000D01*
X55305804Y-42583000D01*
X55430823Y-42595313D01*
X55430823Y-42595313D01*
G37*
G36*
X60110823Y-42595313D02*
G01*
X60271242Y-42643976D01*
X60403906Y-42714886D01*
X60419078Y-42722996D01*
X60548659Y-42829341D01*
X60655004Y-42958922D01*
X60655005Y-42958924D01*
X60734024Y-43106758D01*
X60782687Y-43267177D01*
X60799117Y-43434000D01*
X60782687Y-43600823D01*
X60734024Y-43761242D01*
X60663114Y-43893906D01*
X60655004Y-43909078D01*
X60548659Y-44038659D01*
X60419078Y-44145004D01*
X60419076Y-44145005D01*
X60271242Y-44224024D01*
X60110823Y-44272687D01*
X59985804Y-44285000D01*
X59902196Y-44285000D01*
X59777177Y-44272687D01*
X59616758Y-44224024D01*
X59468924Y-44145005D01*
X59468922Y-44145004D01*
X59339341Y-44038659D01*
X59232996Y-43909078D01*
X59224886Y-43893906D01*
X59153976Y-43761242D01*
X59105313Y-43600823D01*
X59088883Y-43434000D01*
X59105313Y-43267177D01*
X59153976Y-43106758D01*
X59232995Y-42958924D01*
X59232996Y-42958922D01*
X59339341Y-42829341D01*
X59468922Y-42722996D01*
X59484094Y-42714886D01*
X59616758Y-42643976D01*
X59777177Y-42595313D01*
X59902196Y-42583000D01*
X59985804Y-42583000D01*
X60110823Y-42595313D01*
X60110823Y-42595313D01*
G37*
G36*
X122109000Y-43623000D02*
G01*
X120207000Y-43623000D01*
X120207000Y-41721000D01*
X122109000Y-41721000D01*
X122109000Y-43623000D01*
X122109000Y-43623000D01*
G37*
G36*
X113470425Y-41734760D02*
G01*
X113470428Y-41734761D01*
X113470429Y-41734761D01*
X113649693Y-41789140D01*
X113649696Y-41789142D01*
X113649697Y-41789142D01*
X113814903Y-41877446D01*
X113959712Y-41996288D01*
X114078554Y-42141097D01*
X114166858Y-42306303D01*
X114166860Y-42306307D01*
X114221239Y-42485571D01*
X114221240Y-42485575D01*
X114239601Y-42672000D01*
X114221240Y-42858425D01*
X114221239Y-42858428D01*
X114221239Y-42858429D01*
X114166860Y-43037693D01*
X114166858Y-43037696D01*
X114166858Y-43037697D01*
X114078554Y-43202903D01*
X113959712Y-43347712D01*
X113814903Y-43466554D01*
X113649697Y-43554858D01*
X113649693Y-43554860D01*
X113470429Y-43609239D01*
X113470428Y-43609239D01*
X113470425Y-43609240D01*
X113330718Y-43623000D01*
X113237282Y-43623000D01*
X113097575Y-43609240D01*
X113097572Y-43609239D01*
X113097571Y-43609239D01*
X112918307Y-43554860D01*
X112918303Y-43554858D01*
X112753097Y-43466554D01*
X112608288Y-43347712D01*
X112489446Y-43202903D01*
X112401142Y-43037697D01*
X112401142Y-43037696D01*
X112401140Y-43037693D01*
X112346761Y-42858429D01*
X112346761Y-42858428D01*
X112346760Y-42858425D01*
X112328399Y-42672000D01*
X112346760Y-42485575D01*
X112346761Y-42485571D01*
X112401140Y-42306307D01*
X112401142Y-42306303D01*
X112489446Y-42141097D01*
X112608288Y-41996288D01*
X112753097Y-41877446D01*
X112918303Y-41789142D01*
X112918304Y-41789142D01*
X112918307Y-41789140D01*
X113097571Y-41734761D01*
X113097572Y-41734761D01*
X113097575Y-41734760D01*
X113237282Y-41721000D01*
X113330718Y-41721000D01*
X113470425Y-41734760D01*
X113470425Y-41734760D01*
G37*
G36*
X64194425Y-41734760D02*
G01*
X64194428Y-41734761D01*
X64194429Y-41734761D01*
X64373693Y-41789140D01*
X64373696Y-41789142D01*
X64373697Y-41789142D01*
X64538903Y-41877446D01*
X64683712Y-41996288D01*
X64802554Y-42141097D01*
X64890858Y-42306303D01*
X64890860Y-42306307D01*
X64945239Y-42485571D01*
X64945240Y-42485575D01*
X64963601Y-42672000D01*
X64945240Y-42858425D01*
X64945239Y-42858428D01*
X64945239Y-42858429D01*
X64890860Y-43037693D01*
X64890858Y-43037696D01*
X64890858Y-43037697D01*
X64802554Y-43202903D01*
X64683712Y-43347712D01*
X64538903Y-43466554D01*
X64373697Y-43554858D01*
X64373693Y-43554860D01*
X64194429Y-43609239D01*
X64194428Y-43609239D01*
X64194425Y-43609240D01*
X64054718Y-43623000D01*
X63961282Y-43623000D01*
X63821575Y-43609240D01*
X63821572Y-43609239D01*
X63821571Y-43609239D01*
X63642307Y-43554860D01*
X63642303Y-43554858D01*
X63477097Y-43466554D01*
X63332288Y-43347712D01*
X63213446Y-43202903D01*
X63125142Y-43037697D01*
X63125142Y-43037696D01*
X63125140Y-43037693D01*
X63070761Y-42858429D01*
X63070761Y-42858428D01*
X63070760Y-42858425D01*
X63052399Y-42672000D01*
X63070760Y-42485575D01*
X63070761Y-42485571D01*
X63125140Y-42306307D01*
X63125142Y-42306303D01*
X63213446Y-42141097D01*
X63332288Y-41996288D01*
X63477097Y-41877446D01*
X63642303Y-41789142D01*
X63642304Y-41789142D01*
X63642307Y-41789140D01*
X63821571Y-41734761D01*
X63821572Y-41734761D01*
X63821575Y-41734760D01*
X63961282Y-41721000D01*
X64054718Y-41721000D01*
X64194425Y-41734760D01*
X64194425Y-41734760D01*
G37*
G36*
X72833000Y-43623000D02*
G01*
X70931000Y-43623000D01*
X70931000Y-41721000D01*
X72833000Y-41721000D01*
X72833000Y-43623000D01*
X72833000Y-43623000D01*
G37*
G36*
X34371000Y-37543000D02*
G01*
X31669000Y-37543000D01*
X31669000Y-34841000D01*
X34371000Y-34841000D01*
X34371000Y-37543000D01*
X34371000Y-37543000D01*
G37*
G36*
X83647000Y-37543000D02*
G01*
X80945000Y-37543000D01*
X80945000Y-34841000D01*
X83647000Y-34841000D01*
X83647000Y-37543000D01*
X83647000Y-37543000D01*
G37*
G36*
X98546228Y-34487703D02*
G01*
X98701100Y-34551853D01*
X98840481Y-34644985D01*
X98959015Y-34763519D01*
X99052147Y-34902900D01*
X99116297Y-35057772D01*
X99149000Y-35222184D01*
X99149000Y-35389816D01*
X99116297Y-35554228D01*
X99052147Y-35709100D01*
X98959015Y-35848481D01*
X98840481Y-35967015D01*
X98701100Y-36060147D01*
X98546228Y-36124297D01*
X98381816Y-36157000D01*
X98214184Y-36157000D01*
X98049772Y-36124297D01*
X97894900Y-36060147D01*
X97755519Y-35967015D01*
X97636985Y-35848481D01*
X97543853Y-35709100D01*
X97479703Y-35554228D01*
X97447000Y-35389816D01*
X97447000Y-35222184D01*
X97479703Y-35057772D01*
X97543853Y-34902900D01*
X97636985Y-34763519D01*
X97755519Y-34644985D01*
X97894900Y-34551853D01*
X98049772Y-34487703D01*
X98214184Y-34455000D01*
X98381816Y-34455000D01*
X98546228Y-34487703D01*
X98546228Y-34487703D01*
G37*
G36*
X49270228Y-34487703D02*
G01*
X49425100Y-34551853D01*
X49564481Y-34644985D01*
X49683015Y-34763519D01*
X49776147Y-34902900D01*
X49840297Y-35057772D01*
X49873000Y-35222184D01*
X49873000Y-35389816D01*
X49840297Y-35554228D01*
X49776147Y-35709100D01*
X49683015Y-35848481D01*
X49564481Y-35967015D01*
X49425100Y-36060147D01*
X49270228Y-36124297D01*
X49105816Y-36157000D01*
X48938184Y-36157000D01*
X48773772Y-36124297D01*
X48618900Y-36060147D01*
X48479519Y-35967015D01*
X48360985Y-35848481D01*
X48267853Y-35709100D01*
X48203703Y-35554228D01*
X48171000Y-35389816D01*
X48171000Y-35222184D01*
X48203703Y-35057772D01*
X48267853Y-34902900D01*
X48360985Y-34763519D01*
X48479519Y-34644985D01*
X48618900Y-34551853D01*
X48773772Y-34487703D01*
X48938184Y-34455000D01*
X49105816Y-34455000D01*
X49270228Y-34487703D01*
X49270228Y-34487703D01*
G37*
G36*
X43777000Y-36157000D02*
G01*
X42075000Y-36157000D01*
X42075000Y-34455000D01*
X43777000Y-34455000D01*
X43777000Y-36157000D01*
X43777000Y-36157000D01*
G37*
G36*
X53334228Y-34487703D02*
G01*
X53489100Y-34551853D01*
X53628481Y-34644985D01*
X53747015Y-34763519D01*
X53840147Y-34902900D01*
X53904297Y-35057772D01*
X53937000Y-35222184D01*
X53937000Y-35389816D01*
X53904297Y-35554228D01*
X53840147Y-35709100D01*
X53747015Y-35848481D01*
X53628481Y-35967015D01*
X53489100Y-36060147D01*
X53334228Y-36124297D01*
X53169816Y-36157000D01*
X53002184Y-36157000D01*
X52837772Y-36124297D01*
X52682900Y-36060147D01*
X52543519Y-35967015D01*
X52424985Y-35848481D01*
X52331853Y-35709100D01*
X52267703Y-35554228D01*
X52235000Y-35389816D01*
X52235000Y-35222184D01*
X52267703Y-35057772D01*
X52331853Y-34902900D01*
X52424985Y-34763519D01*
X52543519Y-34644985D01*
X52682900Y-34551853D01*
X52837772Y-34487703D01*
X53002184Y-34455000D01*
X53169816Y-34455000D01*
X53334228Y-34487703D01*
X53334228Y-34487703D01*
G37*
G36*
X106674228Y-34487703D02*
G01*
X106829100Y-34551853D01*
X106968481Y-34644985D01*
X107087015Y-34763519D01*
X107180147Y-34902900D01*
X107244297Y-35057772D01*
X107277000Y-35222184D01*
X107277000Y-35389816D01*
X107244297Y-35554228D01*
X107180147Y-35709100D01*
X107087015Y-35848481D01*
X106968481Y-35967015D01*
X106829100Y-36060147D01*
X106674228Y-36124297D01*
X106509816Y-36157000D01*
X106342184Y-36157000D01*
X106177772Y-36124297D01*
X106022900Y-36060147D01*
X105883519Y-35967015D01*
X105764985Y-35848481D01*
X105671853Y-35709100D01*
X105607703Y-35554228D01*
X105575000Y-35389816D01*
X105575000Y-35222184D01*
X105607703Y-35057772D01*
X105671853Y-34902900D01*
X105764985Y-34763519D01*
X105883519Y-34644985D01*
X106022900Y-34551853D01*
X106177772Y-34487703D01*
X106342184Y-34455000D01*
X106509816Y-34455000D01*
X106674228Y-34487703D01*
X106674228Y-34487703D01*
G37*
G36*
X93053000Y-36157000D02*
G01*
X91351000Y-36157000D01*
X91351000Y-34455000D01*
X93053000Y-34455000D01*
X93053000Y-36157000D01*
X93053000Y-36157000D01*
G37*
G36*
X102610228Y-34487703D02*
G01*
X102765100Y-34551853D01*
X102904481Y-34644985D01*
X103023015Y-34763519D01*
X103116147Y-34902900D01*
X103180297Y-35057772D01*
X103213000Y-35222184D01*
X103213000Y-35389816D01*
X103180297Y-35554228D01*
X103116147Y-35709100D01*
X103023015Y-35848481D01*
X102904481Y-35967015D01*
X102765100Y-36060147D01*
X102610228Y-36124297D01*
X102445816Y-36157000D01*
X102278184Y-36157000D01*
X102113772Y-36124297D01*
X101958900Y-36060147D01*
X101819519Y-35967015D01*
X101700985Y-35848481D01*
X101607853Y-35709100D01*
X101543703Y-35554228D01*
X101511000Y-35389816D01*
X101511000Y-35222184D01*
X101543703Y-35057772D01*
X101607853Y-34902900D01*
X101700985Y-34763519D01*
X101819519Y-34644985D01*
X101958900Y-34551853D01*
X102113772Y-34487703D01*
X102278184Y-34455000D01*
X102445816Y-34455000D01*
X102610228Y-34487703D01*
X102610228Y-34487703D01*
G37*
G36*
X57398228Y-34487703D02*
G01*
X57553100Y-34551853D01*
X57692481Y-34644985D01*
X57811015Y-34763519D01*
X57904147Y-34902900D01*
X57968297Y-35057772D01*
X58001000Y-35222184D01*
X58001000Y-35389816D01*
X57968297Y-35554228D01*
X57904147Y-35709100D01*
X57811015Y-35848481D01*
X57692481Y-35967015D01*
X57553100Y-36060147D01*
X57398228Y-36124297D01*
X57233816Y-36157000D01*
X57066184Y-36157000D01*
X56901772Y-36124297D01*
X56746900Y-36060147D01*
X56607519Y-35967015D01*
X56488985Y-35848481D01*
X56395853Y-35709100D01*
X56331703Y-35554228D01*
X56299000Y-35389816D01*
X56299000Y-35222184D01*
X56331703Y-35057772D01*
X56395853Y-34902900D01*
X56488985Y-34763519D01*
X56607519Y-34644985D01*
X56746900Y-34551853D01*
X56901772Y-34487703D01*
X57066184Y-34455000D01*
X57233816Y-34455000D01*
X57398228Y-34487703D01*
X57398228Y-34487703D01*
G37*
G36*
X72068425Y-34114760D02*
G01*
X72068428Y-34114761D01*
X72068429Y-34114761D01*
X72247693Y-34169140D01*
X72247696Y-34169142D01*
X72247697Y-34169142D01*
X72412903Y-34257446D01*
X72557712Y-34376288D01*
X72676554Y-34521097D01*
X72692993Y-34551853D01*
X72764860Y-34686307D01*
X72788282Y-34763520D01*
X72819240Y-34865575D01*
X72837601Y-35052000D01*
X72819240Y-35238425D01*
X72819239Y-35238428D01*
X72819239Y-35238429D01*
X72764860Y-35417693D01*
X72764858Y-35417696D01*
X72764858Y-35417697D01*
X72676554Y-35582903D01*
X72557712Y-35727712D01*
X72412903Y-35846554D01*
X72247697Y-35934858D01*
X72247693Y-35934860D01*
X72068429Y-35989239D01*
X72068428Y-35989239D01*
X72068425Y-35989240D01*
X71928718Y-36003000D01*
X71835282Y-36003000D01*
X71695575Y-35989240D01*
X71695572Y-35989239D01*
X71695571Y-35989239D01*
X71516307Y-35934860D01*
X71516303Y-35934858D01*
X71351097Y-35846554D01*
X71206288Y-35727712D01*
X71087446Y-35582903D01*
X70999142Y-35417697D01*
X70999142Y-35417696D01*
X70999140Y-35417693D01*
X70944761Y-35238429D01*
X70944761Y-35238428D01*
X70944760Y-35238425D01*
X70926399Y-35052000D01*
X70944760Y-34865575D01*
X70975718Y-34763520D01*
X70999140Y-34686307D01*
X71071007Y-34551853D01*
X71087446Y-34521097D01*
X71206288Y-34376288D01*
X71351097Y-34257446D01*
X71516303Y-34169142D01*
X71516304Y-34169142D01*
X71516307Y-34169140D01*
X71695571Y-34114761D01*
X71695572Y-34114761D01*
X71695575Y-34114760D01*
X71835282Y-34101000D01*
X71928718Y-34101000D01*
X72068425Y-34114760D01*
X72068425Y-34114760D01*
G37*
G36*
X114235000Y-36003000D02*
G01*
X112333000Y-36003000D01*
X112333000Y-34101000D01*
X114235000Y-34101000D01*
X114235000Y-36003000D01*
X114235000Y-36003000D01*
G37*
G36*
X121344425Y-34114760D02*
G01*
X121344428Y-34114761D01*
X121344429Y-34114761D01*
X121523693Y-34169140D01*
X121523696Y-34169142D01*
X121523697Y-34169142D01*
X121688903Y-34257446D01*
X121833712Y-34376288D01*
X121952554Y-34521097D01*
X121968993Y-34551853D01*
X122040860Y-34686307D01*
X122064282Y-34763520D01*
X122095240Y-34865575D01*
X122113601Y-35052000D01*
X122095240Y-35238425D01*
X122095239Y-35238428D01*
X122095239Y-35238429D01*
X122040860Y-35417693D01*
X122040858Y-35417696D01*
X122040858Y-35417697D01*
X121952554Y-35582903D01*
X121833712Y-35727712D01*
X121688903Y-35846554D01*
X121523697Y-35934858D01*
X121523693Y-35934860D01*
X121344429Y-35989239D01*
X121344428Y-35989239D01*
X121344425Y-35989240D01*
X121204718Y-36003000D01*
X121111282Y-36003000D01*
X120971575Y-35989240D01*
X120971572Y-35989239D01*
X120971571Y-35989239D01*
X120792307Y-35934860D01*
X120792303Y-35934858D01*
X120627097Y-35846554D01*
X120482288Y-35727712D01*
X120363446Y-35582903D01*
X120275142Y-35417697D01*
X120275142Y-35417696D01*
X120275140Y-35417693D01*
X120220761Y-35238429D01*
X120220761Y-35238428D01*
X120220760Y-35238425D01*
X120202399Y-35052000D01*
X120220760Y-34865575D01*
X120251718Y-34763520D01*
X120275140Y-34686307D01*
X120347007Y-34551853D01*
X120363446Y-34521097D01*
X120482288Y-34376288D01*
X120627097Y-34257446D01*
X120792303Y-34169142D01*
X120792304Y-34169142D01*
X120792307Y-34169140D01*
X120971571Y-34114761D01*
X120971572Y-34114761D01*
X120971575Y-34114760D01*
X121111282Y-34101000D01*
X121204718Y-34101000D01*
X121344425Y-34114760D01*
X121344425Y-34114760D01*
G37*
G36*
X64959000Y-36003000D02*
G01*
X63057000Y-36003000D01*
X63057000Y-34101000D01*
X64959000Y-34101000D01*
X64959000Y-36003000D01*
X64959000Y-36003000D01*
G37*
G36*
X57398228Y-31987703D02*
G01*
X57553100Y-32051853D01*
X57692481Y-32144985D01*
X57811015Y-32263519D01*
X57904147Y-32402900D01*
X57968297Y-32557772D01*
X58001000Y-32722184D01*
X58001000Y-32889816D01*
X57968297Y-33054228D01*
X57904147Y-33209100D01*
X57811015Y-33348481D01*
X57692481Y-33467015D01*
X57553100Y-33560147D01*
X57398228Y-33624297D01*
X57233816Y-33657000D01*
X57066184Y-33657000D01*
X56901772Y-33624297D01*
X56746900Y-33560147D01*
X56607519Y-33467015D01*
X56488985Y-33348481D01*
X56395853Y-33209100D01*
X56331703Y-33054228D01*
X56299000Y-32889816D01*
X56299000Y-32722184D01*
X56331703Y-32557772D01*
X56395853Y-32402900D01*
X56488985Y-32263519D01*
X56607519Y-32144985D01*
X56746900Y-32051853D01*
X56901772Y-31987703D01*
X57066184Y-31955000D01*
X57233816Y-31955000D01*
X57398228Y-31987703D01*
X57398228Y-31987703D01*
G37*
G36*
X98546228Y-31987703D02*
G01*
X98701100Y-32051853D01*
X98840481Y-32144985D01*
X98959015Y-32263519D01*
X99052147Y-32402900D01*
X99116297Y-32557772D01*
X99149000Y-32722184D01*
X99149000Y-32889816D01*
X99116297Y-33054228D01*
X99052147Y-33209100D01*
X98959015Y-33348481D01*
X98840481Y-33467015D01*
X98701100Y-33560147D01*
X98546228Y-33624297D01*
X98381816Y-33657000D01*
X98214184Y-33657000D01*
X98049772Y-33624297D01*
X97894900Y-33560147D01*
X97755519Y-33467015D01*
X97636985Y-33348481D01*
X97543853Y-33209100D01*
X97479703Y-33054228D01*
X97447000Y-32889816D01*
X97447000Y-32722184D01*
X97479703Y-32557772D01*
X97543853Y-32402900D01*
X97636985Y-32263519D01*
X97755519Y-32144985D01*
X97894900Y-32051853D01*
X98049772Y-31987703D01*
X98214184Y-31955000D01*
X98381816Y-31955000D01*
X98546228Y-31987703D01*
X98546228Y-31987703D01*
G37*
G36*
X106674228Y-31987703D02*
G01*
X106829100Y-32051853D01*
X106968481Y-32144985D01*
X107087015Y-32263519D01*
X107180147Y-32402900D01*
X107244297Y-32557772D01*
X107277000Y-32722184D01*
X107277000Y-32889816D01*
X107244297Y-33054228D01*
X107180147Y-33209100D01*
X107087015Y-33348481D01*
X106968481Y-33467015D01*
X106829100Y-33560147D01*
X106674228Y-33624297D01*
X106509816Y-33657000D01*
X106342184Y-33657000D01*
X106177772Y-33624297D01*
X106022900Y-33560147D01*
X105883519Y-33467015D01*
X105764985Y-33348481D01*
X105671853Y-33209100D01*
X105607703Y-33054228D01*
X105575000Y-32889816D01*
X105575000Y-32722184D01*
X105607703Y-32557772D01*
X105671853Y-32402900D01*
X105764985Y-32263519D01*
X105883519Y-32144985D01*
X106022900Y-32051853D01*
X106177772Y-31987703D01*
X106342184Y-31955000D01*
X106509816Y-31955000D01*
X106674228Y-31987703D01*
X106674228Y-31987703D01*
G37*
G36*
X53334228Y-31987703D02*
G01*
X53489100Y-32051853D01*
X53628481Y-32144985D01*
X53747015Y-32263519D01*
X53840147Y-32402900D01*
X53904297Y-32557772D01*
X53937000Y-32722184D01*
X53937000Y-32889816D01*
X53904297Y-33054228D01*
X53840147Y-33209100D01*
X53747015Y-33348481D01*
X53628481Y-33467015D01*
X53489100Y-33560147D01*
X53334228Y-33624297D01*
X53169816Y-33657000D01*
X53002184Y-33657000D01*
X52837772Y-33624297D01*
X52682900Y-33560147D01*
X52543519Y-33467015D01*
X52424985Y-33348481D01*
X52331853Y-33209100D01*
X52267703Y-33054228D01*
X52235000Y-32889816D01*
X52235000Y-32722184D01*
X52267703Y-32557772D01*
X52331853Y-32402900D01*
X52424985Y-32263519D01*
X52543519Y-32144985D01*
X52682900Y-32051853D01*
X52837772Y-31987703D01*
X53002184Y-31955000D01*
X53169816Y-31955000D01*
X53334228Y-31987703D01*
X53334228Y-31987703D01*
G37*
G36*
X43174228Y-31987703D02*
G01*
X43329100Y-32051853D01*
X43468481Y-32144985D01*
X43587015Y-32263519D01*
X43680147Y-32402900D01*
X43744297Y-32557772D01*
X43777000Y-32722184D01*
X43777000Y-32889816D01*
X43744297Y-33054228D01*
X43680147Y-33209100D01*
X43587015Y-33348481D01*
X43468481Y-33467015D01*
X43329100Y-33560147D01*
X43174228Y-33624297D01*
X43009816Y-33657000D01*
X42842184Y-33657000D01*
X42677772Y-33624297D01*
X42522900Y-33560147D01*
X42383519Y-33467015D01*
X42264985Y-33348481D01*
X42171853Y-33209100D01*
X42107703Y-33054228D01*
X42075000Y-32889816D01*
X42075000Y-32722184D01*
X42107703Y-32557772D01*
X42171853Y-32402900D01*
X42264985Y-32263519D01*
X42383519Y-32144985D01*
X42522900Y-32051853D01*
X42677772Y-31987703D01*
X42842184Y-31955000D01*
X43009816Y-31955000D01*
X43174228Y-31987703D01*
X43174228Y-31987703D01*
G37*
G36*
X102610228Y-31987703D02*
G01*
X102765100Y-32051853D01*
X102904481Y-32144985D01*
X103023015Y-32263519D01*
X103116147Y-32402900D01*
X103180297Y-32557772D01*
X103213000Y-32722184D01*
X103213000Y-32889816D01*
X103180297Y-33054228D01*
X103116147Y-33209100D01*
X103023015Y-33348481D01*
X102904481Y-33467015D01*
X102765100Y-33560147D01*
X102610228Y-33624297D01*
X102445816Y-33657000D01*
X102278184Y-33657000D01*
X102113772Y-33624297D01*
X101958900Y-33560147D01*
X101819519Y-33467015D01*
X101700985Y-33348481D01*
X101607853Y-33209100D01*
X101543703Y-33054228D01*
X101511000Y-32889816D01*
X101511000Y-32722184D01*
X101543703Y-32557772D01*
X101607853Y-32402900D01*
X101700985Y-32263519D01*
X101819519Y-32144985D01*
X101958900Y-32051853D01*
X102113772Y-31987703D01*
X102278184Y-31955000D01*
X102445816Y-31955000D01*
X102610228Y-31987703D01*
X102610228Y-31987703D01*
G37*
G36*
X92450228Y-31987703D02*
G01*
X92605100Y-32051853D01*
X92744481Y-32144985D01*
X92863015Y-32263519D01*
X92956147Y-32402900D01*
X93020297Y-32557772D01*
X93053000Y-32722184D01*
X93053000Y-32889816D01*
X93020297Y-33054228D01*
X92956147Y-33209100D01*
X92863015Y-33348481D01*
X92744481Y-33467015D01*
X92605100Y-33560147D01*
X92450228Y-33624297D01*
X92285816Y-33657000D01*
X92118184Y-33657000D01*
X91953772Y-33624297D01*
X91798900Y-33560147D01*
X91659519Y-33467015D01*
X91540985Y-33348481D01*
X91447853Y-33209100D01*
X91383703Y-33054228D01*
X91351000Y-32889816D01*
X91351000Y-32722184D01*
X91383703Y-32557772D01*
X91447853Y-32402900D01*
X91540985Y-32263519D01*
X91659519Y-32144985D01*
X91798900Y-32051853D01*
X91953772Y-31987703D01*
X92118184Y-31955000D01*
X92285816Y-31955000D01*
X92450228Y-31987703D01*
X92450228Y-31987703D01*
G37*
G36*
X49270228Y-31987703D02*
G01*
X49425100Y-32051853D01*
X49564481Y-32144985D01*
X49683015Y-32263519D01*
X49776147Y-32402900D01*
X49840297Y-32557772D01*
X49873000Y-32722184D01*
X49873000Y-32889816D01*
X49840297Y-33054228D01*
X49776147Y-33209100D01*
X49683015Y-33348481D01*
X49564481Y-33467015D01*
X49425100Y-33560147D01*
X49270228Y-33624297D01*
X49105816Y-33657000D01*
X48938184Y-33657000D01*
X48773772Y-33624297D01*
X48618900Y-33560147D01*
X48479519Y-33467015D01*
X48360985Y-33348481D01*
X48267853Y-33209100D01*
X48203703Y-33054228D01*
X48171000Y-32889816D01*
X48171000Y-32722184D01*
X48203703Y-32557772D01*
X48267853Y-32402900D01*
X48360985Y-32263519D01*
X48479519Y-32144985D01*
X48618900Y-32051853D01*
X48773772Y-31987703D01*
X48938184Y-31955000D01*
X49105816Y-31955000D01*
X49270228Y-31987703D01*
X49270228Y-31987703D01*
G37*
G36*
X33414072Y-29812918D02*
G01*
X33621317Y-29898761D01*
X33659939Y-29914759D01*
X33754242Y-29977771D01*
X33881211Y-30062609D01*
X34069391Y-30250789D01*
X34217242Y-30472063D01*
X34319082Y-30717928D01*
X34352716Y-30887015D01*
X34371000Y-30978938D01*
X34371000Y-31245062D01*
X34319082Y-31506072D01*
X34217241Y-31751939D01*
X34069390Y-31973212D01*
X33881212Y-32161390D01*
X33659939Y-32309241D01*
X33659938Y-32309242D01*
X33659937Y-32309242D01*
X33414072Y-32411082D01*
X33153063Y-32463000D01*
X32886937Y-32463000D01*
X32625928Y-32411082D01*
X32380063Y-32309242D01*
X32380062Y-32309242D01*
X32380061Y-32309241D01*
X32158788Y-32161390D01*
X31970610Y-31973212D01*
X31822759Y-31751939D01*
X31720918Y-31506072D01*
X31669000Y-31245062D01*
X31669000Y-30978938D01*
X31687285Y-30887015D01*
X31720918Y-30717928D01*
X31822758Y-30472063D01*
X31970609Y-30250789D01*
X32158789Y-30062609D01*
X32285758Y-29977771D01*
X32380061Y-29914759D01*
X32418684Y-29898761D01*
X32625928Y-29812918D01*
X32886937Y-29761000D01*
X33153063Y-29761000D01*
X33414072Y-29812918D01*
X33414072Y-29812918D01*
G37*
G36*
X82690072Y-29812918D02*
G01*
X82897317Y-29898761D01*
X82935939Y-29914759D01*
X83030242Y-29977771D01*
X83157211Y-30062609D01*
X83345391Y-30250789D01*
X83493242Y-30472063D01*
X83595082Y-30717928D01*
X83628716Y-30887015D01*
X83647000Y-30978938D01*
X83647000Y-31245062D01*
X83595082Y-31506072D01*
X83493241Y-31751939D01*
X83345390Y-31973212D01*
X83157212Y-32161390D01*
X82935939Y-32309241D01*
X82935938Y-32309242D01*
X82935937Y-32309242D01*
X82690072Y-32411082D01*
X82429063Y-32463000D01*
X82162937Y-32463000D01*
X81901928Y-32411082D01*
X81656063Y-32309242D01*
X81656062Y-32309242D01*
X81656061Y-32309241D01*
X81434788Y-32161390D01*
X81246610Y-31973212D01*
X81098759Y-31751939D01*
X80996918Y-31506072D01*
X80945000Y-31245062D01*
X80945000Y-30978938D01*
X80963285Y-30887015D01*
X80996918Y-30717928D01*
X81098758Y-30472063D01*
X81246609Y-30250789D01*
X81434789Y-30062609D01*
X81561758Y-29977771D01*
X81656061Y-29914759D01*
X81694684Y-29898761D01*
X81901928Y-29812918D01*
X82162937Y-29761000D01*
X82429063Y-29761000D01*
X82690072Y-29812918D01*
X82690072Y-29812918D01*
G37*
G36*
X114548228Y-29407703D02*
G01*
X114703100Y-29471853D01*
X114842481Y-29564985D01*
X114961015Y-29683519D01*
X115054147Y-29822900D01*
X115118297Y-29977772D01*
X115151000Y-30142184D01*
X115151000Y-30309816D01*
X115118297Y-30474228D01*
X115054147Y-30629100D01*
X114961015Y-30768481D01*
X114842481Y-30887015D01*
X114703100Y-30980147D01*
X114548228Y-31044297D01*
X114383816Y-31077000D01*
X114216184Y-31077000D01*
X114051772Y-31044297D01*
X113896900Y-30980147D01*
X113757519Y-30887015D01*
X113638985Y-30768481D01*
X113545853Y-30629100D01*
X113481703Y-30474228D01*
X113449000Y-30309816D01*
X113449000Y-30142184D01*
X113481703Y-29977772D01*
X113545853Y-29822900D01*
X113638985Y-29683519D01*
X113757519Y-29564985D01*
X113896900Y-29471853D01*
X114051772Y-29407703D01*
X114216184Y-29375000D01*
X114383816Y-29375000D01*
X114548228Y-29407703D01*
X114548228Y-29407703D01*
G37*
G36*
X122086823Y-29387313D02*
G01*
X122247242Y-29435976D01*
X122314361Y-29471852D01*
X122395078Y-29514996D01*
X122524659Y-29621341D01*
X122631004Y-29750922D01*
X122631005Y-29750924D01*
X122710024Y-29898758D01*
X122758687Y-30059177D01*
X122775117Y-30226000D01*
X122758687Y-30392823D01*
X122710024Y-30553242D01*
X122669477Y-30629100D01*
X122631004Y-30701078D01*
X122524659Y-30830659D01*
X122395078Y-30937004D01*
X122395076Y-30937005D01*
X122247242Y-31016024D01*
X122086823Y-31064687D01*
X121961804Y-31077000D01*
X121878196Y-31077000D01*
X121753177Y-31064687D01*
X121592758Y-31016024D01*
X121444924Y-30937005D01*
X121444922Y-30937004D01*
X121315341Y-30830659D01*
X121208996Y-30701078D01*
X121170523Y-30629100D01*
X121129976Y-30553242D01*
X121081313Y-30392823D01*
X121064883Y-30226000D01*
X121081313Y-30059177D01*
X121129976Y-29898758D01*
X121208995Y-29750924D01*
X121208996Y-29750922D01*
X121315341Y-29621341D01*
X121444922Y-29514996D01*
X121525639Y-29471852D01*
X121592758Y-29435976D01*
X121753177Y-29387313D01*
X121878196Y-29375000D01*
X121961804Y-29375000D01*
X122086823Y-29387313D01*
X122086823Y-29387313D01*
G37*
G36*
X72810823Y-29387313D02*
G01*
X72971242Y-29435976D01*
X73038361Y-29471852D01*
X73119078Y-29514996D01*
X73248659Y-29621341D01*
X73355004Y-29750922D01*
X73355005Y-29750924D01*
X73434024Y-29898758D01*
X73482687Y-30059177D01*
X73499117Y-30226000D01*
X73482687Y-30392823D01*
X73434024Y-30553242D01*
X73393477Y-30629100D01*
X73355004Y-30701078D01*
X73248659Y-30830659D01*
X73119078Y-30937004D01*
X73119076Y-30937005D01*
X72971242Y-31016024D01*
X72810823Y-31064687D01*
X72685804Y-31077000D01*
X72602196Y-31077000D01*
X72477177Y-31064687D01*
X72316758Y-31016024D01*
X72168924Y-30937005D01*
X72168922Y-30937004D01*
X72039341Y-30830659D01*
X71932996Y-30701078D01*
X71894523Y-30629100D01*
X71853976Y-30553242D01*
X71805313Y-30392823D01*
X71788883Y-30226000D01*
X71805313Y-30059177D01*
X71853976Y-29898758D01*
X71932995Y-29750924D01*
X71932996Y-29750922D01*
X72039341Y-29621341D01*
X72168922Y-29514996D01*
X72249639Y-29471852D01*
X72316758Y-29435976D01*
X72477177Y-29387313D01*
X72602196Y-29375000D01*
X72685804Y-29375000D01*
X72810823Y-29387313D01*
X72810823Y-29387313D01*
G37*
G36*
X65272228Y-29407703D02*
G01*
X65427100Y-29471853D01*
X65566481Y-29564985D01*
X65685015Y-29683519D01*
X65778147Y-29822900D01*
X65842297Y-29977772D01*
X65875000Y-30142184D01*
X65875000Y-30309816D01*
X65842297Y-30474228D01*
X65778147Y-30629100D01*
X65685015Y-30768481D01*
X65566481Y-30887015D01*
X65427100Y-30980147D01*
X65272228Y-31044297D01*
X65107816Y-31077000D01*
X64940184Y-31077000D01*
X64775772Y-31044297D01*
X64620900Y-30980147D01*
X64481519Y-30887015D01*
X64362985Y-30768481D01*
X64269853Y-30629100D01*
X64205703Y-30474228D01*
X64173000Y-30309816D01*
X64173000Y-30142184D01*
X64205703Y-29977772D01*
X64269853Y-29822900D01*
X64362985Y-29683519D01*
X64481519Y-29564985D01*
X64620900Y-29471853D01*
X64775772Y-29407703D01*
X64940184Y-29375000D01*
X65107816Y-29375000D01*
X65272228Y-29407703D01*
X65272228Y-29407703D01*
G37*
M02*
