M48
; DRILL file {KiCad 5.1.4+dfsg1-1~bpo10+1} date Thu Jul 21 16:49:26 2022
; FORMAT={-:-/ absolute / metric / decimal}
; #@! TF.CreationDate,2022-07-21T16:49:26+05:30
; #@! TF.GenerationSoftware,Kicad,Pcbnew,5.1.4+dfsg1-1~bpo10+1
FMAT,2
METRIC
T1C0.800
T2C0.900
T3C1.100
T4C1.300
%
G90
G05
T1
X65.024Y-30.226
X72.644Y-30.226
X109.22Y-98.806
X109.22Y-106.426
X49.022Y-32.806
X49.022Y-35.306
X98.298Y-88.178
X98.298Y-90.678
X106.426Y-88.178
X106.426Y-90.678
X59.944Y-71.12
X59.944Y-78.74
X106.426Y-32.806
X106.426Y-35.306
X59.944Y-43.434
X59.944Y-51.054
X115.316Y-76.962
X117.856Y-76.962
X120.396Y-76.962
X47.244Y-43.434
X47.244Y-45.974
X47.244Y-48.514
X47.244Y-51.054
X54.864Y-43.434
X54.864Y-45.974
X54.864Y-48.514
X54.864Y-51.054
X114.3Y-85.598
X121.92Y-85.598
X53.086Y-88.178
X53.086Y-90.678
X57.15Y-60.492
X57.15Y-62.992
X92.202Y-32.806
X92.202Y-35.306
X66.04Y-104.648
X68.58Y-104.648
X71.12Y-104.648
X42.926Y-32.806
X42.926Y-35.306
X109.22Y-43.434
X109.22Y-51.054
X102.362Y-88.178
X102.362Y-90.678
X66.04Y-76.962
X68.58Y-76.962
X71.12Y-76.962
X57.15Y-88.178
X57.15Y-90.678
X115.316Y-104.648
X117.856Y-104.648
X120.396Y-104.648
X102.362Y-60.492
X102.362Y-62.992
X49.022Y-60.492
X49.022Y-62.992
X65.024Y-57.912
X72.644Y-57.912
X42.926Y-60.492
X42.926Y-62.992
X53.086Y-32.806
X53.086Y-35.306
X96.52Y-43.434
X96.52Y-45.974
X96.52Y-48.514
X96.52Y-51.054
X104.14Y-43.434
X104.14Y-45.974
X104.14Y-48.514
X104.14Y-51.054
X92.202Y-60.492
X92.202Y-62.992
X47.244Y-71.12
X47.244Y-73.66
X47.244Y-76.2
X47.244Y-78.74
X54.864Y-71.12
X54.864Y-73.66
X54.864Y-76.2
X54.864Y-78.74
X59.944Y-98.806
X59.944Y-106.426
X98.298Y-32.806
X98.298Y-35.306
X114.3Y-57.912
X121.92Y-57.912
X102.362Y-32.806
X102.362Y-35.306
X49.022Y-88.178
X49.022Y-90.678
X96.52Y-98.806
X96.52Y-101.346
X96.52Y-103.886
X96.52Y-106.426
X104.14Y-98.806
X104.14Y-101.346
X104.14Y-103.886
X104.14Y-106.426
X98.298Y-60.492
X98.298Y-62.992
X96.52Y-71.12
X96.52Y-73.66
X96.52Y-76.2
X96.52Y-78.74
X104.14Y-71.12
X104.14Y-73.66
X104.14Y-76.2
X104.14Y-78.74
X66.04Y-49.276
X68.58Y-49.276
X71.12Y-49.276
X57.15Y-32.806
X57.15Y-35.306
X42.926Y-88.178
X42.926Y-90.678
X106.426Y-60.492
X106.426Y-62.992
X92.202Y-88.178
X92.202Y-90.678
X47.244Y-98.806
X47.244Y-101.346
X47.244Y-103.886
X47.244Y-106.426
X54.864Y-98.806
X54.864Y-101.346
X54.864Y-103.886
X54.864Y-106.426
X114.3Y-30.226
X121.92Y-30.226
X65.024Y-85.598
X72.644Y-85.598
X115.316Y-49.276
X117.856Y-49.276
X120.396Y-49.276
X53.086Y-60.492
X53.086Y-62.992
X109.22Y-71.12
X109.22Y-78.74
T2
X121.158Y-90.424
X121.158Y-98.044
X121.158Y-62.738
X121.158Y-70.358
X113.284Y-90.424
X113.284Y-98.044
X71.882Y-62.738
X71.882Y-70.358
X71.882Y-35.052
X71.882Y-42.672
X113.284Y-35.052
X113.284Y-42.672
X121.158Y-35.052
X121.158Y-42.672
X64.008Y-62.738
X64.008Y-70.358
X71.882Y-90.424
X71.882Y-98.044
X113.284Y-62.738
X113.284Y-70.358
X64.008Y-35.052
X64.008Y-42.672
X64.008Y-90.424
X64.008Y-98.044
T3
X42.672Y-44.196
X42.672Y-46.736
X42.672Y-49.276
X42.672Y-99.568
X42.672Y-102.108
X42.672Y-104.648
X91.948Y-44.196
X91.948Y-46.736
X91.948Y-49.276
X91.948Y-99.568
X91.948Y-102.108
X91.948Y-104.648
X91.948Y-71.882
X91.948Y-74.422
X91.948Y-76.962
X42.672Y-71.882
X42.672Y-74.422
X42.672Y-76.962
T4
X33.02Y-99.822
X33.02Y-104.902
X33.02Y-58.798
X33.02Y-63.878
X82.296Y-31.112
X82.296Y-36.192
X82.296Y-99.822
X82.296Y-104.902
X82.296Y-44.45
X82.296Y-49.53
X82.296Y-58.798
X82.296Y-63.878
X33.02Y-31.112
X33.02Y-36.192
X33.02Y-44.45
X33.02Y-49.53
X82.296Y-72.136
X82.296Y-77.216
X82.296Y-86.484
X82.296Y-91.564
X33.02Y-72.136
X33.02Y-77.216
X33.02Y-86.484
X33.02Y-91.564
T0
M30
