G04 #@! TF.GenerationSoftware,KiCad,Pcbnew,5.1.4+dfsg1-1~bpo10+1*
G04 #@! TF.CreationDate,2022-08-06T21:23:58+05:30*
G04 #@! TF.ProjectId,esp2s,65737032-732e-46b6-9963-61645f706362,rev?*
G04 #@! TF.SameCoordinates,Original*
G04 #@! TF.FileFunction,Soldermask,Top*
G04 #@! TF.FilePolarity,Negative*
%FSLAX46Y46*%
G04 Gerber Fmt 4.6, Leading zero omitted, Abs format (unit mm)*
G04 Created by KiCad (PCBNEW 5.1.4+dfsg1-1~bpo10+1) date 2022-08-06 21:23:58*
%MOMM*%
%LPD*%
G04 APERTURE LIST*
%ADD10C,0.100000*%
G04 APERTURE END LIST*
D10*
G36*
X99525000Y-64019000D02*
G01*
X98423000Y-64019000D01*
X98423000Y-61417000D01*
X99525000Y-61417000D01*
X99525000Y-64019000D01*
X99525000Y-64019000D01*
G37*
G36*
X111525000Y-64019000D02*
G01*
X110423000Y-64019000D01*
X110423000Y-61417000D01*
X111525000Y-61417000D01*
X111525000Y-64019000D01*
X111525000Y-64019000D01*
G37*
G36*
X113525000Y-64019000D02*
G01*
X112423000Y-64019000D01*
X112423000Y-61417000D01*
X113525000Y-61417000D01*
X113525000Y-64019000D01*
X113525000Y-64019000D01*
G37*
G36*
X109525000Y-64019000D02*
G01*
X108423000Y-64019000D01*
X108423000Y-61417000D01*
X109525000Y-61417000D01*
X109525000Y-64019000D01*
X109525000Y-64019000D01*
G37*
G36*
X107525000Y-64019000D02*
G01*
X106423000Y-64019000D01*
X106423000Y-61417000D01*
X107525000Y-61417000D01*
X107525000Y-64019000D01*
X107525000Y-64019000D01*
G37*
G36*
X105525000Y-64019000D02*
G01*
X104423000Y-64019000D01*
X104423000Y-61417000D01*
X105525000Y-61417000D01*
X105525000Y-64019000D01*
X105525000Y-64019000D01*
G37*
G36*
X103525000Y-64019000D02*
G01*
X102423000Y-64019000D01*
X102423000Y-61417000D01*
X103525000Y-61417000D01*
X103525000Y-64019000D01*
X103525000Y-64019000D01*
G37*
G36*
X101525000Y-64019000D02*
G01*
X100423000Y-64019000D01*
X100423000Y-61417000D01*
X101525000Y-61417000D01*
X101525000Y-64019000D01*
X101525000Y-64019000D01*
G37*
G36*
X81977000Y-63689000D02*
G01*
X80075000Y-63689000D01*
X80075000Y-61787000D01*
X81977000Y-61787000D01*
X81977000Y-63689000D01*
X81977000Y-63689000D01*
G37*
G36*
X78763395Y-61823546D02*
G01*
X78936466Y-61895234D01*
X78936467Y-61895235D01*
X79092227Y-61999310D01*
X79224690Y-62131773D01*
X79224691Y-62131775D01*
X79328766Y-62287534D01*
X79400454Y-62460605D01*
X79437000Y-62644333D01*
X79437000Y-62831667D01*
X79400454Y-63015395D01*
X79328766Y-63188466D01*
X79328765Y-63188467D01*
X79224690Y-63344227D01*
X79092227Y-63476690D01*
X79013818Y-63529081D01*
X78936466Y-63580766D01*
X78763395Y-63652454D01*
X78579667Y-63689000D01*
X78392333Y-63689000D01*
X78208605Y-63652454D01*
X78035534Y-63580766D01*
X77958182Y-63529081D01*
X77879773Y-63476690D01*
X77747310Y-63344227D01*
X77643235Y-63188467D01*
X77643234Y-63188466D01*
X77571546Y-63015395D01*
X77535000Y-62831667D01*
X77535000Y-62644333D01*
X77571546Y-62460605D01*
X77643234Y-62287534D01*
X77747309Y-62131775D01*
X77747310Y-62131773D01*
X77879773Y-61999310D01*
X78035533Y-61895235D01*
X78035534Y-61895234D01*
X78208605Y-61823546D01*
X78392333Y-61787000D01*
X78579667Y-61787000D01*
X78763395Y-61823546D01*
X78763395Y-61823546D01*
G37*
G36*
X93691059Y-59983860D02*
G01*
X93827732Y-60040472D01*
X93950735Y-60122660D01*
X94055340Y-60227265D01*
X94137528Y-60350268D01*
X94194140Y-60486941D01*
X94223000Y-60632033D01*
X94223000Y-60779967D01*
X94194140Y-60925059D01*
X94137528Y-61061732D01*
X94055340Y-61184735D01*
X93950735Y-61289340D01*
X93827732Y-61371528D01*
X93827731Y-61371529D01*
X93827730Y-61371529D01*
X93691059Y-61428140D01*
X93545968Y-61457000D01*
X93398032Y-61457000D01*
X93252941Y-61428140D01*
X93116270Y-61371529D01*
X93116269Y-61371529D01*
X93116268Y-61371528D01*
X92993265Y-61289340D01*
X92888660Y-61184735D01*
X92806472Y-61061732D01*
X92749860Y-60925059D01*
X92721000Y-60779967D01*
X92721000Y-60632033D01*
X92749860Y-60486941D01*
X92806472Y-60350268D01*
X92888660Y-60227265D01*
X92993265Y-60122660D01*
X93116268Y-60040472D01*
X93252941Y-59983860D01*
X93398032Y-59955000D01*
X93545968Y-59955000D01*
X93691059Y-59983860D01*
X93691059Y-59983860D01*
G37*
G36*
X84229559Y-59983860D02*
G01*
X84366232Y-60040472D01*
X84489235Y-60122660D01*
X84593840Y-60227265D01*
X84676028Y-60350268D01*
X84732640Y-60486941D01*
X84761500Y-60632033D01*
X84761500Y-60779967D01*
X84732640Y-60925059D01*
X84676028Y-61061732D01*
X84593840Y-61184735D01*
X84489235Y-61289340D01*
X84366232Y-61371528D01*
X84366231Y-61371529D01*
X84366230Y-61371529D01*
X84229559Y-61428140D01*
X84084468Y-61457000D01*
X83936532Y-61457000D01*
X83791441Y-61428140D01*
X83654770Y-61371529D01*
X83654769Y-61371529D01*
X83654768Y-61371528D01*
X83531765Y-61289340D01*
X83427160Y-61184735D01*
X83344972Y-61061732D01*
X83288360Y-60925059D01*
X83259500Y-60779967D01*
X83259500Y-60632033D01*
X83288360Y-60486941D01*
X83344972Y-60350268D01*
X83427160Y-60227265D01*
X83531765Y-60122660D01*
X83654768Y-60040472D01*
X83791441Y-59983860D01*
X83936532Y-59955000D01*
X84084468Y-59955000D01*
X84229559Y-59983860D01*
X84229559Y-59983860D01*
G37*
G36*
X98425000Y-60669000D02*
G01*
X96523000Y-60669000D01*
X96523000Y-59567000D01*
X98425000Y-59567000D01*
X98425000Y-60669000D01*
X98425000Y-60669000D01*
G37*
G36*
X75403059Y-58205860D02*
G01*
X75539732Y-58262472D01*
X75662735Y-58344660D01*
X75767340Y-58449265D01*
X75849528Y-58572268D01*
X75906140Y-58708941D01*
X75935000Y-58854033D01*
X75935000Y-59001967D01*
X75906140Y-59147059D01*
X75849528Y-59283732D01*
X75767340Y-59406735D01*
X75662735Y-59511340D01*
X75539732Y-59593528D01*
X75539731Y-59593529D01*
X75539730Y-59593529D01*
X75403059Y-59650140D01*
X75257968Y-59679000D01*
X75110032Y-59679000D01*
X74964941Y-59650140D01*
X74828270Y-59593529D01*
X74828269Y-59593529D01*
X74828268Y-59593528D01*
X74705265Y-59511340D01*
X74600660Y-59406735D01*
X74518472Y-59283732D01*
X74461860Y-59147059D01*
X74433000Y-59001967D01*
X74433000Y-58854033D01*
X74461860Y-58708941D01*
X74518472Y-58572268D01*
X74600660Y-58449265D01*
X74705265Y-58344660D01*
X74828268Y-58262472D01*
X74964941Y-58205860D01*
X75110032Y-58177000D01*
X75257968Y-58177000D01*
X75403059Y-58205860D01*
X75403059Y-58205860D01*
G37*
G36*
X98425000Y-58669000D02*
G01*
X96523000Y-58669000D01*
X96523000Y-57567000D01*
X98425000Y-57567000D01*
X98425000Y-58669000D01*
X98425000Y-58669000D01*
G37*
G36*
X98425000Y-56669000D02*
G01*
X96523000Y-56669000D01*
X96523000Y-55567000D01*
X98425000Y-55567000D01*
X98425000Y-56669000D01*
X98425000Y-56669000D01*
G37*
G36*
X98425000Y-54669000D02*
G01*
X96523000Y-54669000D01*
X96523000Y-53567000D01*
X98425000Y-53567000D01*
X98425000Y-54669000D01*
X98425000Y-54669000D01*
G37*
G36*
X84084165Y-52338622D02*
G01*
X84157722Y-52345867D01*
X84299286Y-52388810D01*
X84429752Y-52458546D01*
X84451346Y-52476268D01*
X84544107Y-52552393D01*
X84593796Y-52612941D01*
X84637954Y-52666748D01*
X84707690Y-52797214D01*
X84750633Y-52938778D01*
X84765133Y-53086000D01*
X84750633Y-53233222D01*
X84707690Y-53374786D01*
X84637954Y-53505252D01*
X84613508Y-53535040D01*
X84544107Y-53619607D01*
X84459540Y-53689008D01*
X84429752Y-53713454D01*
X84299286Y-53783190D01*
X84157722Y-53826133D01*
X84084165Y-53833378D01*
X84047388Y-53837000D01*
X83973612Y-53837000D01*
X83936835Y-53833378D01*
X83863278Y-53826133D01*
X83721714Y-53783190D01*
X83591248Y-53713454D01*
X83561460Y-53689008D01*
X83476893Y-53619607D01*
X83407492Y-53535040D01*
X83383046Y-53505252D01*
X83313310Y-53374786D01*
X83270367Y-53233222D01*
X83255867Y-53086000D01*
X83270367Y-52938778D01*
X83313310Y-52797214D01*
X83383046Y-52666748D01*
X83427204Y-52612941D01*
X83476893Y-52552393D01*
X83569654Y-52476268D01*
X83591248Y-52458546D01*
X83721714Y-52388810D01*
X83863278Y-52345867D01*
X83936835Y-52338622D01*
X83973612Y-52335000D01*
X84047388Y-52335000D01*
X84084165Y-52338622D01*
X84084165Y-52338622D01*
G37*
G36*
X93545665Y-52338622D02*
G01*
X93619222Y-52345867D01*
X93760786Y-52388810D01*
X93891252Y-52458546D01*
X93912846Y-52476268D01*
X94005607Y-52552393D01*
X94055296Y-52612941D01*
X94099454Y-52666748D01*
X94169190Y-52797214D01*
X94212133Y-52938778D01*
X94226633Y-53086000D01*
X94212133Y-53233222D01*
X94169190Y-53374786D01*
X94099454Y-53505252D01*
X94075008Y-53535040D01*
X94005607Y-53619607D01*
X93921040Y-53689008D01*
X93891252Y-53713454D01*
X93760786Y-53783190D01*
X93619222Y-53826133D01*
X93545665Y-53833378D01*
X93508888Y-53837000D01*
X93435112Y-53837000D01*
X93398335Y-53833378D01*
X93324778Y-53826133D01*
X93183214Y-53783190D01*
X93052748Y-53713454D01*
X93022960Y-53689008D01*
X92938393Y-53619607D01*
X92868992Y-53535040D01*
X92844546Y-53505252D01*
X92774810Y-53374786D01*
X92731867Y-53233222D01*
X92717367Y-53086000D01*
X92731867Y-52938778D01*
X92774810Y-52797214D01*
X92844546Y-52666748D01*
X92888704Y-52612941D01*
X92938393Y-52552393D01*
X93031154Y-52476268D01*
X93052748Y-52458546D01*
X93183214Y-52388810D01*
X93324778Y-52345867D01*
X93398335Y-52338622D01*
X93435112Y-52335000D01*
X93508888Y-52335000D01*
X93545665Y-52338622D01*
X93545665Y-52338622D01*
G37*
G36*
X87087059Y-52109860D02*
G01*
X87223732Y-52166472D01*
X87346735Y-52248660D01*
X87451340Y-52353265D01*
X87533528Y-52476268D01*
X87590140Y-52612941D01*
X87619000Y-52758033D01*
X87619000Y-52905967D01*
X87590140Y-53051059D01*
X87533528Y-53187732D01*
X87451340Y-53310735D01*
X87346735Y-53415340D01*
X87223732Y-53497528D01*
X87223731Y-53497529D01*
X87223730Y-53497529D01*
X87087059Y-53554140D01*
X86941968Y-53583000D01*
X86794032Y-53583000D01*
X86648941Y-53554140D01*
X86512270Y-53497529D01*
X86512269Y-53497529D01*
X86512268Y-53497528D01*
X86389265Y-53415340D01*
X86284660Y-53310735D01*
X86202472Y-53187732D01*
X86145860Y-53051059D01*
X86117000Y-52905967D01*
X86117000Y-52758033D01*
X86145860Y-52612941D01*
X86202472Y-52476268D01*
X86284660Y-52353265D01*
X86389265Y-52248660D01*
X86512268Y-52166472D01*
X86648941Y-52109860D01*
X86794032Y-52081000D01*
X86941968Y-52081000D01*
X87087059Y-52109860D01*
X87087059Y-52109860D01*
G37*
G36*
X90897059Y-52109860D02*
G01*
X91033732Y-52166472D01*
X91156735Y-52248660D01*
X91261340Y-52353265D01*
X91343528Y-52476268D01*
X91400140Y-52612941D01*
X91429000Y-52758033D01*
X91429000Y-52905967D01*
X91400140Y-53051059D01*
X91343528Y-53187732D01*
X91261340Y-53310735D01*
X91156735Y-53415340D01*
X91033732Y-53497528D01*
X91033731Y-53497529D01*
X91033730Y-53497529D01*
X90897059Y-53554140D01*
X90751968Y-53583000D01*
X90604032Y-53583000D01*
X90458941Y-53554140D01*
X90322270Y-53497529D01*
X90322269Y-53497529D01*
X90322268Y-53497528D01*
X90199265Y-53415340D01*
X90094660Y-53310735D01*
X90012472Y-53187732D01*
X89955860Y-53051059D01*
X89927000Y-52905967D01*
X89927000Y-52758033D01*
X89955860Y-52612941D01*
X90012472Y-52476268D01*
X90094660Y-52353265D01*
X90199265Y-52248660D01*
X90322268Y-52166472D01*
X90458941Y-52109860D01*
X90604032Y-52081000D01*
X90751968Y-52081000D01*
X90897059Y-52109860D01*
X90897059Y-52109860D01*
G37*
G36*
X98425000Y-52669000D02*
G01*
X96523000Y-52669000D01*
X96523000Y-51567000D01*
X98425000Y-51567000D01*
X98425000Y-52669000D01*
X98425000Y-52669000D01*
G37*
G36*
X75257665Y-50560622D02*
G01*
X75331222Y-50567867D01*
X75472786Y-50610810D01*
X75603252Y-50680546D01*
X75633040Y-50704992D01*
X75717607Y-50774393D01*
X75787008Y-50858960D01*
X75811454Y-50888748D01*
X75881190Y-51019214D01*
X75924133Y-51160778D01*
X75938633Y-51308000D01*
X75924133Y-51455222D01*
X75881190Y-51596786D01*
X75811454Y-51727252D01*
X75787008Y-51757040D01*
X75717607Y-51841607D01*
X75633040Y-51911008D01*
X75603252Y-51935454D01*
X75472786Y-52005190D01*
X75331222Y-52048133D01*
X75257665Y-52055378D01*
X75220888Y-52059000D01*
X75147112Y-52059000D01*
X75110335Y-52055378D01*
X75036778Y-52048133D01*
X74895214Y-52005190D01*
X74764748Y-51935454D01*
X74734960Y-51911008D01*
X74650393Y-51841607D01*
X74580992Y-51757040D01*
X74556546Y-51727252D01*
X74486810Y-51596786D01*
X74443867Y-51455222D01*
X74429367Y-51308000D01*
X74443867Y-51160778D01*
X74486810Y-51019214D01*
X74556546Y-50888748D01*
X74580992Y-50858960D01*
X74650393Y-50774393D01*
X74734960Y-50704992D01*
X74764748Y-50680546D01*
X74895214Y-50610810D01*
X75036778Y-50567867D01*
X75110335Y-50560622D01*
X75147112Y-50557000D01*
X75220888Y-50557000D01*
X75257665Y-50560622D01*
X75257665Y-50560622D01*
G37*
G36*
X98425000Y-50669000D02*
G01*
X96523000Y-50669000D01*
X96523000Y-49567000D01*
X98425000Y-49567000D01*
X98425000Y-50669000D01*
X98425000Y-50669000D01*
G37*
G36*
X113525000Y-48819000D02*
G01*
X112423000Y-48819000D01*
X112423000Y-46217000D01*
X113525000Y-46217000D01*
X113525000Y-48819000D01*
X113525000Y-48819000D01*
G37*
G36*
X107525000Y-48819000D02*
G01*
X106423000Y-48819000D01*
X106423000Y-46217000D01*
X107525000Y-46217000D01*
X107525000Y-48819000D01*
X107525000Y-48819000D01*
G37*
G36*
X101525000Y-48819000D02*
G01*
X100423000Y-48819000D01*
X100423000Y-46217000D01*
X101525000Y-46217000D01*
X101525000Y-48819000D01*
X101525000Y-48819000D01*
G37*
G36*
X99525000Y-48819000D02*
G01*
X98423000Y-48819000D01*
X98423000Y-46217000D01*
X99525000Y-46217000D01*
X99525000Y-48819000D01*
X99525000Y-48819000D01*
G37*
G36*
X105525000Y-48819000D02*
G01*
X104423000Y-48819000D01*
X104423000Y-46217000D01*
X105525000Y-46217000D01*
X105525000Y-48819000D01*
X105525000Y-48819000D01*
G37*
G36*
X111525000Y-48819000D02*
G01*
X110423000Y-48819000D01*
X110423000Y-46217000D01*
X111525000Y-46217000D01*
X111525000Y-48819000D01*
X111525000Y-48819000D01*
G37*
G36*
X103525000Y-48819000D02*
G01*
X102423000Y-48819000D01*
X102423000Y-46217000D01*
X103525000Y-46217000D01*
X103525000Y-48819000D01*
X103525000Y-48819000D01*
G37*
G36*
X109525000Y-48819000D02*
G01*
X108423000Y-48819000D01*
X108423000Y-46217000D01*
X109525000Y-46217000D01*
X109525000Y-48819000D01*
X109525000Y-48819000D01*
G37*
G36*
X81303395Y-45821546D02*
G01*
X81476466Y-45893234D01*
X81553818Y-45944919D01*
X81632227Y-45997310D01*
X81764690Y-46129773D01*
X81764691Y-46129775D01*
X81868766Y-46285534D01*
X81940454Y-46458605D01*
X81977000Y-46642333D01*
X81977000Y-46829667D01*
X81940454Y-47013395D01*
X81868766Y-47186466D01*
X81868765Y-47186467D01*
X81764690Y-47342227D01*
X81632227Y-47474690D01*
X81553818Y-47527081D01*
X81476466Y-47578766D01*
X81303395Y-47650454D01*
X81119667Y-47687000D01*
X80932333Y-47687000D01*
X80748605Y-47650454D01*
X80575534Y-47578766D01*
X80498182Y-47527081D01*
X80419773Y-47474690D01*
X80287310Y-47342227D01*
X80183235Y-47186467D01*
X80183234Y-47186466D01*
X80111546Y-47013395D01*
X80075000Y-46829667D01*
X80075000Y-46642333D01*
X80111546Y-46458605D01*
X80183234Y-46285534D01*
X80287309Y-46129775D01*
X80287310Y-46129773D01*
X80419773Y-45997310D01*
X80498182Y-45944919D01*
X80575534Y-45893234D01*
X80748605Y-45821546D01*
X80932333Y-45785000D01*
X81119667Y-45785000D01*
X81303395Y-45821546D01*
X81303395Y-45821546D01*
G37*
G36*
X79437000Y-47687000D02*
G01*
X77535000Y-47687000D01*
X77535000Y-45785000D01*
X79437000Y-45785000D01*
X79437000Y-47687000D01*
X79437000Y-47687000D01*
G37*
G36*
X90751665Y-44464622D02*
G01*
X90825222Y-44471867D01*
X90966786Y-44514810D01*
X91097252Y-44584546D01*
X91127040Y-44608992D01*
X91211607Y-44678393D01*
X91281008Y-44762960D01*
X91305454Y-44792748D01*
X91375190Y-44923214D01*
X91418133Y-45064778D01*
X91432633Y-45212000D01*
X91418133Y-45359222D01*
X91375190Y-45500786D01*
X91305454Y-45631252D01*
X91281008Y-45661040D01*
X91211607Y-45745607D01*
X91127040Y-45815008D01*
X91097252Y-45839454D01*
X90966786Y-45909190D01*
X90825222Y-45952133D01*
X90751665Y-45959378D01*
X90714888Y-45963000D01*
X90641112Y-45963000D01*
X90604335Y-45959378D01*
X90530778Y-45952133D01*
X90389214Y-45909190D01*
X90258748Y-45839454D01*
X90228960Y-45815008D01*
X90144393Y-45745607D01*
X90074992Y-45661040D01*
X90050546Y-45631252D01*
X89980810Y-45500786D01*
X89937867Y-45359222D01*
X89923367Y-45212000D01*
X89937867Y-45064778D01*
X89980810Y-44923214D01*
X90050546Y-44792748D01*
X90074992Y-44762960D01*
X90144393Y-44678393D01*
X90228960Y-44608992D01*
X90258748Y-44584546D01*
X90389214Y-44514810D01*
X90530778Y-44471867D01*
X90604335Y-44464622D01*
X90641112Y-44461000D01*
X90714888Y-44461000D01*
X90751665Y-44464622D01*
X90751665Y-44464622D01*
G37*
G36*
X86941665Y-44464622D02*
G01*
X87015222Y-44471867D01*
X87156786Y-44514810D01*
X87287252Y-44584546D01*
X87317040Y-44608992D01*
X87401607Y-44678393D01*
X87471008Y-44762960D01*
X87495454Y-44792748D01*
X87565190Y-44923214D01*
X87608133Y-45064778D01*
X87622633Y-45212000D01*
X87608133Y-45359222D01*
X87565190Y-45500786D01*
X87495454Y-45631252D01*
X87471008Y-45661040D01*
X87401607Y-45745607D01*
X87317040Y-45815008D01*
X87287252Y-45839454D01*
X87156786Y-45909190D01*
X87015222Y-45952133D01*
X86941665Y-45959378D01*
X86904888Y-45963000D01*
X86831112Y-45963000D01*
X86794335Y-45959378D01*
X86720778Y-45952133D01*
X86579214Y-45909190D01*
X86448748Y-45839454D01*
X86418960Y-45815008D01*
X86334393Y-45745607D01*
X86264992Y-45661040D01*
X86240546Y-45631252D01*
X86170810Y-45500786D01*
X86127867Y-45359222D01*
X86113367Y-45212000D01*
X86127867Y-45064778D01*
X86170810Y-44923214D01*
X86240546Y-44792748D01*
X86264992Y-44762960D01*
X86334393Y-44678393D01*
X86418960Y-44608992D01*
X86448748Y-44584546D01*
X86579214Y-44514810D01*
X86720778Y-44471867D01*
X86794335Y-44464622D01*
X86831112Y-44461000D01*
X86904888Y-44461000D01*
X86941665Y-44464622D01*
X86941665Y-44464622D01*
G37*
M02*
