G04 #@! TF.GenerationSoftware,KiCad,Pcbnew,5.1.4+dfsg1-1~bpo10+1*
G04 #@! TF.CreationDate,2022-08-06T21:23:58+05:30*
G04 #@! TF.ProjectId,esp2s,65737032-732e-46b6-9963-61645f706362,rev?*
G04 #@! TF.SameCoordinates,Original*
G04 #@! TF.FileFunction,Copper,L1,Top*
G04 #@! TF.FilePolarity,Positive*
%FSLAX46Y46*%
G04 Gerber Fmt 4.6, Leading zero omitted, Abs format (unit mm)*
G04 Created by KiCad (PCBNEW 5.1.4+dfsg1-1~bpo10+1) date 2022-08-06 21:23:58*
%MOMM*%
%LPD*%
G04 APERTURE LIST*
%ADD10R,1.000000X2.500000*%
%ADD11R,1.800000X1.000000*%
%ADD12O,1.400000X1.400000*%
%ADD13C,1.400000*%
%ADD14C,1.800000*%
%ADD15R,1.800000X1.800000*%
%ADD16C,0.800000*%
%ADD17C,0.250000*%
%ADD18C,0.254000*%
G04 APERTURE END LIST*
D10*
X112974000Y-62718000D03*
X110974000Y-62718000D03*
X108974000Y-62718000D03*
X106974000Y-62718000D03*
X104974000Y-62718000D03*
X102974000Y-62718000D03*
X100974000Y-62718000D03*
X98974000Y-62718000D03*
D11*
X97474000Y-60118000D03*
X97474000Y-58118000D03*
X97474000Y-56118000D03*
X97474000Y-54118000D03*
X97474000Y-52118000D03*
X97474000Y-50118000D03*
D10*
X98974000Y-47518000D03*
X100974000Y-47518000D03*
X102974000Y-47518000D03*
X104974000Y-47518000D03*
X106974000Y-47518000D03*
X108974000Y-47518000D03*
X110974000Y-47518000D03*
X112974000Y-47518000D03*
D12*
X93472000Y-53086000D03*
D13*
X93472000Y-60706000D03*
D12*
X75184000Y-51308000D03*
D13*
X75184000Y-58928000D03*
D12*
X90678000Y-45212000D03*
D13*
X90678000Y-52832000D03*
D12*
X86868000Y-45212000D03*
D13*
X86868000Y-52832000D03*
D12*
X84010500Y-53086000D03*
D13*
X84010500Y-60706000D03*
D14*
X81026000Y-46736000D03*
D15*
X78486000Y-46736000D03*
D14*
X78486000Y-62738000D03*
D15*
X81026000Y-62738000D03*
D16*
X106997500Y-49466500D03*
X96012000Y-50101500D03*
X98996500Y-45529500D03*
X102997000Y-50038000D03*
D17*
X106974000Y-47518000D02*
X106974000Y-49443000D01*
X106974000Y-49443000D02*
X106997500Y-49466500D01*
X78486000Y-47886000D02*
X78486000Y-46736000D01*
X79368000Y-48768000D02*
X78486000Y-47886000D01*
X87947500Y-48768000D02*
X79368000Y-48768000D01*
X89978001Y-46737499D02*
X87947500Y-48768000D01*
X89978001Y-45911999D02*
X89978001Y-46737499D01*
X90678000Y-45212000D02*
X89978001Y-45911999D01*
X97474000Y-50118000D02*
X96028500Y-50118000D01*
X96028500Y-50118000D02*
X96012000Y-50101500D01*
X98974000Y-47518000D02*
X98974000Y-45552000D01*
X98974000Y-45552000D02*
X98996500Y-45529500D01*
X86868000Y-53821949D02*
X91148551Y-58102500D01*
X86868000Y-52832000D02*
X86868000Y-53821949D01*
X91148551Y-58102500D02*
X92138500Y-58102500D01*
X93472000Y-59436000D02*
X93472000Y-60706000D01*
X92138500Y-58102500D02*
X93472000Y-59436000D01*
X85344000Y-51308000D02*
X86868000Y-52832000D01*
X75184000Y-51308000D02*
X85344000Y-51308000D01*
X102997000Y-47541000D02*
X102974000Y-47518000D01*
X102997000Y-50038000D02*
X102997000Y-47541000D01*
D18*
G36*
X121260000Y-65634000D02*
G01*
X71780000Y-65634000D01*
X71780000Y-62586816D01*
X76951000Y-62586816D01*
X76951000Y-62889184D01*
X77009989Y-63185743D01*
X77125701Y-63465095D01*
X77293688Y-63716505D01*
X77507495Y-63930312D01*
X77758905Y-64098299D01*
X78038257Y-64214011D01*
X78334816Y-64273000D01*
X78637184Y-64273000D01*
X78933743Y-64214011D01*
X79213095Y-64098299D01*
X79464505Y-63930312D01*
X79530944Y-63863873D01*
X79536498Y-63882180D01*
X79595463Y-63992494D01*
X79674815Y-64089185D01*
X79771506Y-64168537D01*
X79881820Y-64227502D01*
X80001518Y-64263812D01*
X80126000Y-64276072D01*
X80740250Y-64273000D01*
X80899000Y-64114250D01*
X80899000Y-62865000D01*
X81153000Y-62865000D01*
X81153000Y-64114250D01*
X81311750Y-64273000D01*
X81926000Y-64276072D01*
X82050482Y-64263812D01*
X82170180Y-64227502D01*
X82280494Y-64168537D01*
X82377185Y-64089185D01*
X82456537Y-63992494D01*
X82469629Y-63968000D01*
X97835928Y-63968000D01*
X97848188Y-64092482D01*
X97884498Y-64212180D01*
X97943463Y-64322494D01*
X98022815Y-64419185D01*
X98119506Y-64498537D01*
X98229820Y-64557502D01*
X98349518Y-64593812D01*
X98474000Y-64606072D01*
X98688250Y-64603000D01*
X98847000Y-64444250D01*
X98847000Y-62845000D01*
X97997750Y-62845000D01*
X97839000Y-63003750D01*
X97835928Y-63968000D01*
X82469629Y-63968000D01*
X82515502Y-63882180D01*
X82551812Y-63762482D01*
X82564072Y-63638000D01*
X82561000Y-63023750D01*
X82402250Y-62865000D01*
X81153000Y-62865000D01*
X80899000Y-62865000D01*
X80879000Y-62865000D01*
X80879000Y-62611000D01*
X80899000Y-62611000D01*
X80899000Y-61361750D01*
X81153000Y-61361750D01*
X81153000Y-62611000D01*
X82402250Y-62611000D01*
X82561000Y-62452250D01*
X82564072Y-61838000D01*
X82551812Y-61713518D01*
X82515502Y-61593820D01*
X82456537Y-61483506D01*
X82377185Y-61386815D01*
X82280494Y-61307463D01*
X82170180Y-61248498D01*
X82050482Y-61212188D01*
X81926000Y-61199928D01*
X81311750Y-61203000D01*
X81153000Y-61361750D01*
X80899000Y-61361750D01*
X80740250Y-61203000D01*
X80126000Y-61199928D01*
X80001518Y-61212188D01*
X79881820Y-61248498D01*
X79771506Y-61307463D01*
X79674815Y-61386815D01*
X79595463Y-61483506D01*
X79536498Y-61593820D01*
X79530944Y-61612127D01*
X79464505Y-61545688D01*
X79213095Y-61377701D01*
X78933743Y-61261989D01*
X78637184Y-61203000D01*
X78334816Y-61203000D01*
X78038257Y-61261989D01*
X77758905Y-61377701D01*
X77507495Y-61545688D01*
X77293688Y-61759495D01*
X77125701Y-62010905D01*
X77009989Y-62290257D01*
X76951000Y-62586816D01*
X71780000Y-62586816D01*
X71780000Y-60574514D01*
X82675500Y-60574514D01*
X82675500Y-60837486D01*
X82726804Y-61095405D01*
X82827439Y-61338359D01*
X82973538Y-61557013D01*
X83159487Y-61742962D01*
X83378141Y-61889061D01*
X83621095Y-61989696D01*
X83879014Y-62041000D01*
X84141986Y-62041000D01*
X84399905Y-61989696D01*
X84642859Y-61889061D01*
X84861513Y-61742962D01*
X85047462Y-61557013D01*
X85193561Y-61338359D01*
X85294196Y-61095405D01*
X85345500Y-60837486D01*
X85345500Y-60574514D01*
X85294196Y-60316595D01*
X85193561Y-60073641D01*
X85047462Y-59854987D01*
X84861513Y-59669038D01*
X84642859Y-59522939D01*
X84399905Y-59422304D01*
X84141986Y-59371000D01*
X83879014Y-59371000D01*
X83621095Y-59422304D01*
X83378141Y-59522939D01*
X83159487Y-59669038D01*
X82973538Y-59854987D01*
X82827439Y-60073641D01*
X82726804Y-60316595D01*
X82675500Y-60574514D01*
X71780000Y-60574514D01*
X71780000Y-58796514D01*
X73849000Y-58796514D01*
X73849000Y-59059486D01*
X73900304Y-59317405D01*
X74000939Y-59560359D01*
X74147038Y-59779013D01*
X74332987Y-59964962D01*
X74551641Y-60111061D01*
X74794595Y-60211696D01*
X75052514Y-60263000D01*
X75315486Y-60263000D01*
X75573405Y-60211696D01*
X75816359Y-60111061D01*
X76035013Y-59964962D01*
X76220962Y-59779013D01*
X76367061Y-59560359D01*
X76467696Y-59317405D01*
X76519000Y-59059486D01*
X76519000Y-58796514D01*
X76467696Y-58538595D01*
X76367061Y-58295641D01*
X76220962Y-58076987D01*
X76035013Y-57891038D01*
X75816359Y-57744939D01*
X75573405Y-57644304D01*
X75315486Y-57593000D01*
X75052514Y-57593000D01*
X74794595Y-57644304D01*
X74551641Y-57744939D01*
X74332987Y-57891038D01*
X74147038Y-58076987D01*
X74000939Y-58295641D01*
X73900304Y-58538595D01*
X73849000Y-58796514D01*
X71780000Y-58796514D01*
X71780000Y-51308000D01*
X73842541Y-51308000D01*
X73868317Y-51569706D01*
X73944653Y-51821354D01*
X74068618Y-52053275D01*
X74235445Y-52256555D01*
X74438725Y-52423382D01*
X74670646Y-52547347D01*
X74922294Y-52623683D01*
X75118421Y-52643000D01*
X75249579Y-52643000D01*
X75445706Y-52623683D01*
X75697354Y-52547347D01*
X75929275Y-52423382D01*
X76132555Y-52256555D01*
X76287298Y-52068000D01*
X83146564Y-52068000D01*
X83061945Y-52137445D01*
X82895118Y-52340725D01*
X82771153Y-52572646D01*
X82694817Y-52824294D01*
X82669041Y-53086000D01*
X82694817Y-53347706D01*
X82771153Y-53599354D01*
X82895118Y-53831275D01*
X83061945Y-54034555D01*
X83265225Y-54201382D01*
X83497146Y-54325347D01*
X83748794Y-54401683D01*
X83944921Y-54421000D01*
X84076079Y-54421000D01*
X84272206Y-54401683D01*
X84523854Y-54325347D01*
X84755775Y-54201382D01*
X84959055Y-54034555D01*
X85125882Y-53831275D01*
X85249847Y-53599354D01*
X85326183Y-53347706D01*
X85351959Y-53086000D01*
X85326183Y-52824294D01*
X85249847Y-52572646D01*
X85125882Y-52340725D01*
X84959055Y-52137445D01*
X84874436Y-52068000D01*
X85029199Y-52068000D01*
X85554355Y-52593157D01*
X85533000Y-52700514D01*
X85533000Y-52963486D01*
X85584304Y-53221405D01*
X85684939Y-53464359D01*
X85831038Y-53683013D01*
X86016987Y-53868962D01*
X86115433Y-53934741D01*
X86118998Y-53970934D01*
X86162454Y-54114195D01*
X86233026Y-54246225D01*
X86304201Y-54332951D01*
X86328000Y-54361950D01*
X86356998Y-54385748D01*
X90584751Y-58613502D01*
X90608550Y-58642501D01*
X90724275Y-58737474D01*
X90856304Y-58808046D01*
X90999565Y-58851503D01*
X91111218Y-58862500D01*
X91111227Y-58862500D01*
X91148550Y-58866176D01*
X91185873Y-58862500D01*
X91823699Y-58862500D01*
X92626532Y-59665333D01*
X92620987Y-59669038D01*
X92435038Y-59854987D01*
X92288939Y-60073641D01*
X92188304Y-60316595D01*
X92137000Y-60574514D01*
X92137000Y-60837486D01*
X92188304Y-61095405D01*
X92288939Y-61338359D01*
X92435038Y-61557013D01*
X92620987Y-61742962D01*
X92839641Y-61889061D01*
X93082595Y-61989696D01*
X93340514Y-62041000D01*
X93603486Y-62041000D01*
X93861405Y-61989696D01*
X94104359Y-61889061D01*
X94323013Y-61742962D01*
X94508962Y-61557013D01*
X94655061Y-61338359D01*
X94755696Y-61095405D01*
X94807000Y-60837486D01*
X94807000Y-60574514D01*
X94755696Y-60316595D01*
X94655061Y-60073641D01*
X94508962Y-59854987D01*
X94323013Y-59669038D01*
X94232000Y-59608225D01*
X94232000Y-59473325D01*
X94235676Y-59436000D01*
X94232000Y-59398675D01*
X94232000Y-59398667D01*
X94221003Y-59287014D01*
X94177546Y-59143753D01*
X94106974Y-59011724D01*
X94012001Y-58895999D01*
X93983004Y-58872202D01*
X92702304Y-57591503D01*
X92678501Y-57562499D01*
X92562776Y-57467526D01*
X92430747Y-57396954D01*
X92287486Y-57353497D01*
X92175833Y-57342500D01*
X92175822Y-57342500D01*
X92138500Y-57338824D01*
X92101178Y-57342500D01*
X91463353Y-57342500D01*
X87854414Y-53733561D01*
X87904962Y-53683013D01*
X88051061Y-53464359D01*
X88151696Y-53221405D01*
X88203000Y-52963486D01*
X88203000Y-52700514D01*
X89343000Y-52700514D01*
X89343000Y-52963486D01*
X89394304Y-53221405D01*
X89494939Y-53464359D01*
X89641038Y-53683013D01*
X89826987Y-53868962D01*
X90045641Y-54015061D01*
X90288595Y-54115696D01*
X90546514Y-54167000D01*
X90809486Y-54167000D01*
X91067405Y-54115696D01*
X91310359Y-54015061D01*
X91529013Y-53868962D01*
X91714962Y-53683013D01*
X91861061Y-53464359D01*
X91961696Y-53221405D01*
X91988630Y-53086000D01*
X92130541Y-53086000D01*
X92156317Y-53347706D01*
X92232653Y-53599354D01*
X92356618Y-53831275D01*
X92523445Y-54034555D01*
X92726725Y-54201382D01*
X92958646Y-54325347D01*
X93210294Y-54401683D01*
X93406421Y-54421000D01*
X93537579Y-54421000D01*
X93733706Y-54401683D01*
X93985354Y-54325347D01*
X94217275Y-54201382D01*
X94420555Y-54034555D01*
X94587382Y-53831275D01*
X94711347Y-53599354D01*
X94787683Y-53347706D01*
X94813459Y-53086000D01*
X94787683Y-52824294D01*
X94711347Y-52572646D01*
X94587382Y-52340725D01*
X94420555Y-52137445D01*
X94217275Y-51970618D01*
X93985354Y-51846653D01*
X93733706Y-51770317D01*
X93537579Y-51751000D01*
X93406421Y-51751000D01*
X93210294Y-51770317D01*
X92958646Y-51846653D01*
X92726725Y-51970618D01*
X92523445Y-52137445D01*
X92356618Y-52340725D01*
X92232653Y-52572646D01*
X92156317Y-52824294D01*
X92130541Y-53086000D01*
X91988630Y-53086000D01*
X92013000Y-52963486D01*
X92013000Y-52700514D01*
X91961696Y-52442595D01*
X91861061Y-52199641D01*
X91714962Y-51980987D01*
X91529013Y-51795038D01*
X91310359Y-51648939D01*
X91067405Y-51548304D01*
X90809486Y-51497000D01*
X90546514Y-51497000D01*
X90288595Y-51548304D01*
X90045641Y-51648939D01*
X89826987Y-51795038D01*
X89641038Y-51980987D01*
X89494939Y-52199641D01*
X89394304Y-52442595D01*
X89343000Y-52700514D01*
X88203000Y-52700514D01*
X88151696Y-52442595D01*
X88051061Y-52199641D01*
X87904962Y-51980987D01*
X87719013Y-51795038D01*
X87500359Y-51648939D01*
X87257405Y-51548304D01*
X86999486Y-51497000D01*
X86736514Y-51497000D01*
X86629157Y-51518355D01*
X85907803Y-50797002D01*
X85884001Y-50767999D01*
X85768276Y-50673026D01*
X85636247Y-50602454D01*
X85492986Y-50558997D01*
X85381333Y-50548000D01*
X85381322Y-50548000D01*
X85344000Y-50544324D01*
X85306678Y-50548000D01*
X76287298Y-50548000D01*
X76132555Y-50359445D01*
X75929275Y-50192618D01*
X75697354Y-50068653D01*
X75469587Y-49999561D01*
X94977000Y-49999561D01*
X94977000Y-50203439D01*
X95016774Y-50403398D01*
X95094795Y-50591756D01*
X95208063Y-50761274D01*
X95352226Y-50905437D01*
X95521744Y-51018705D01*
X95710102Y-51096726D01*
X95910061Y-51136500D01*
X96113939Y-51136500D01*
X96174411Y-51124471D01*
X96122815Y-51166815D01*
X96043463Y-51263506D01*
X95984498Y-51373820D01*
X95948188Y-51493518D01*
X95935928Y-51618000D01*
X95935928Y-52618000D01*
X95948188Y-52742482D01*
X95984498Y-52862180D01*
X96043463Y-52972494D01*
X96122815Y-53069185D01*
X96182296Y-53118000D01*
X96122815Y-53166815D01*
X96043463Y-53263506D01*
X95984498Y-53373820D01*
X95948188Y-53493518D01*
X95935928Y-53618000D01*
X95935928Y-54618000D01*
X95948188Y-54742482D01*
X95984498Y-54862180D01*
X96043463Y-54972494D01*
X96122815Y-55069185D01*
X96182296Y-55118000D01*
X96122815Y-55166815D01*
X96043463Y-55263506D01*
X95984498Y-55373820D01*
X95948188Y-55493518D01*
X95935928Y-55618000D01*
X95935928Y-56618000D01*
X95948188Y-56742482D01*
X95984498Y-56862180D01*
X96043463Y-56972494D01*
X96122815Y-57069185D01*
X96182296Y-57118000D01*
X96122815Y-57166815D01*
X96043463Y-57263506D01*
X95984498Y-57373820D01*
X95948188Y-57493518D01*
X95935928Y-57618000D01*
X95935928Y-58618000D01*
X95948188Y-58742482D01*
X95984498Y-58862180D01*
X96043463Y-58972494D01*
X96122815Y-59069185D01*
X96182296Y-59118000D01*
X96122815Y-59166815D01*
X96043463Y-59263506D01*
X95984498Y-59373820D01*
X95948188Y-59493518D01*
X95935928Y-59618000D01*
X95935928Y-60618000D01*
X95948188Y-60742482D01*
X95984498Y-60862180D01*
X96043463Y-60972494D01*
X96122815Y-61069185D01*
X96219506Y-61148537D01*
X96329820Y-61207502D01*
X96449518Y-61243812D01*
X96574000Y-61256072D01*
X97874714Y-61256072D01*
X97848188Y-61343518D01*
X97835928Y-61468000D01*
X97839000Y-62432250D01*
X97997750Y-62591000D01*
X98847000Y-62591000D01*
X98847000Y-61042603D01*
X98888734Y-60991750D01*
X99101000Y-60991750D01*
X99101000Y-62591000D01*
X99121000Y-62591000D01*
X99121000Y-62845000D01*
X99101000Y-62845000D01*
X99101000Y-64444250D01*
X99259750Y-64603000D01*
X99474000Y-64606072D01*
X99598482Y-64593812D01*
X99718180Y-64557502D01*
X99828494Y-64498537D01*
X99925185Y-64419185D01*
X99974000Y-64359704D01*
X100022815Y-64419185D01*
X100119506Y-64498537D01*
X100229820Y-64557502D01*
X100349518Y-64593812D01*
X100474000Y-64606072D01*
X101474000Y-64606072D01*
X101598482Y-64593812D01*
X101718180Y-64557502D01*
X101828494Y-64498537D01*
X101925185Y-64419185D01*
X101974000Y-64359704D01*
X102022815Y-64419185D01*
X102119506Y-64498537D01*
X102229820Y-64557502D01*
X102349518Y-64593812D01*
X102474000Y-64606072D01*
X103474000Y-64606072D01*
X103598482Y-64593812D01*
X103718180Y-64557502D01*
X103828494Y-64498537D01*
X103925185Y-64419185D01*
X103974000Y-64359704D01*
X104022815Y-64419185D01*
X104119506Y-64498537D01*
X104229820Y-64557502D01*
X104349518Y-64593812D01*
X104474000Y-64606072D01*
X105474000Y-64606072D01*
X105598482Y-64593812D01*
X105718180Y-64557502D01*
X105828494Y-64498537D01*
X105925185Y-64419185D01*
X105974000Y-64359704D01*
X106022815Y-64419185D01*
X106119506Y-64498537D01*
X106229820Y-64557502D01*
X106349518Y-64593812D01*
X106474000Y-64606072D01*
X107474000Y-64606072D01*
X107598482Y-64593812D01*
X107718180Y-64557502D01*
X107828494Y-64498537D01*
X107925185Y-64419185D01*
X107974000Y-64359704D01*
X108022815Y-64419185D01*
X108119506Y-64498537D01*
X108229820Y-64557502D01*
X108349518Y-64593812D01*
X108474000Y-64606072D01*
X109474000Y-64606072D01*
X109598482Y-64593812D01*
X109718180Y-64557502D01*
X109828494Y-64498537D01*
X109925185Y-64419185D01*
X109974000Y-64359704D01*
X110022815Y-64419185D01*
X110119506Y-64498537D01*
X110229820Y-64557502D01*
X110349518Y-64593812D01*
X110474000Y-64606072D01*
X111474000Y-64606072D01*
X111598482Y-64593812D01*
X111718180Y-64557502D01*
X111828494Y-64498537D01*
X111925185Y-64419185D01*
X111974000Y-64359704D01*
X112022815Y-64419185D01*
X112119506Y-64498537D01*
X112229820Y-64557502D01*
X112349518Y-64593812D01*
X112474000Y-64606072D01*
X113474000Y-64606072D01*
X113598482Y-64593812D01*
X113718180Y-64557502D01*
X113828494Y-64498537D01*
X113925185Y-64419185D01*
X114004537Y-64322494D01*
X114063502Y-64212180D01*
X114099812Y-64092482D01*
X114112072Y-63968000D01*
X114112072Y-61468000D01*
X114099812Y-61343518D01*
X114063502Y-61223820D01*
X114004537Y-61113506D01*
X113925185Y-61016815D01*
X113828494Y-60937463D01*
X113718180Y-60878498D01*
X113598482Y-60842188D01*
X113474000Y-60829928D01*
X112474000Y-60829928D01*
X112349518Y-60842188D01*
X112229820Y-60878498D01*
X112119506Y-60937463D01*
X112022815Y-61016815D01*
X111974000Y-61076296D01*
X111925185Y-61016815D01*
X111828494Y-60937463D01*
X111718180Y-60878498D01*
X111598482Y-60842188D01*
X111474000Y-60829928D01*
X110474000Y-60829928D01*
X110349518Y-60842188D01*
X110229820Y-60878498D01*
X110119506Y-60937463D01*
X110022815Y-61016815D01*
X109974000Y-61076296D01*
X109925185Y-61016815D01*
X109828494Y-60937463D01*
X109718180Y-60878498D01*
X109598482Y-60842188D01*
X109474000Y-60829928D01*
X108474000Y-60829928D01*
X108349518Y-60842188D01*
X108229820Y-60878498D01*
X108119506Y-60937463D01*
X108022815Y-61016815D01*
X107974000Y-61076296D01*
X107925185Y-61016815D01*
X107828494Y-60937463D01*
X107718180Y-60878498D01*
X107598482Y-60842188D01*
X107474000Y-60829928D01*
X106474000Y-60829928D01*
X106349518Y-60842188D01*
X106229820Y-60878498D01*
X106119506Y-60937463D01*
X106022815Y-61016815D01*
X105974000Y-61076296D01*
X105925185Y-61016815D01*
X105828494Y-60937463D01*
X105718180Y-60878498D01*
X105598482Y-60842188D01*
X105474000Y-60829928D01*
X104474000Y-60829928D01*
X104349518Y-60842188D01*
X104229820Y-60878498D01*
X104119506Y-60937463D01*
X104022815Y-61016815D01*
X103974000Y-61076296D01*
X103925185Y-61016815D01*
X103828494Y-60937463D01*
X103718180Y-60878498D01*
X103598482Y-60842188D01*
X103474000Y-60829928D01*
X102474000Y-60829928D01*
X102349518Y-60842188D01*
X102229820Y-60878498D01*
X102119506Y-60937463D01*
X102022815Y-61016815D01*
X101974000Y-61076296D01*
X101925185Y-61016815D01*
X101828494Y-60937463D01*
X101718180Y-60878498D01*
X101598482Y-60842188D01*
X101474000Y-60829928D01*
X100474000Y-60829928D01*
X100349518Y-60842188D01*
X100229820Y-60878498D01*
X100119506Y-60937463D01*
X100022815Y-61016815D01*
X99974000Y-61076296D01*
X99925185Y-61016815D01*
X99828494Y-60937463D01*
X99718180Y-60878498D01*
X99598482Y-60842188D01*
X99474000Y-60829928D01*
X99259750Y-60833000D01*
X99101000Y-60991750D01*
X98888734Y-60991750D01*
X98904537Y-60972494D01*
X98963502Y-60862180D01*
X98999812Y-60742482D01*
X99012072Y-60618000D01*
X99012072Y-59618000D01*
X98999812Y-59493518D01*
X98963502Y-59373820D01*
X98904537Y-59263506D01*
X98825185Y-59166815D01*
X98765704Y-59118000D01*
X98825185Y-59069185D01*
X98904537Y-58972494D01*
X98963502Y-58862180D01*
X98999812Y-58742482D01*
X99012072Y-58618000D01*
X99012072Y-57618000D01*
X98999812Y-57493518D01*
X98963502Y-57373820D01*
X98904537Y-57263506D01*
X98825185Y-57166815D01*
X98765704Y-57118000D01*
X98825185Y-57069185D01*
X98904537Y-56972494D01*
X98963502Y-56862180D01*
X98999812Y-56742482D01*
X99012072Y-56618000D01*
X99012072Y-55618000D01*
X98999812Y-55493518D01*
X98963502Y-55373820D01*
X98904537Y-55263506D01*
X98825185Y-55166815D01*
X98765704Y-55118000D01*
X98825185Y-55069185D01*
X98904537Y-54972494D01*
X98963502Y-54862180D01*
X98999812Y-54742482D01*
X99012072Y-54618000D01*
X99012072Y-53618000D01*
X98999812Y-53493518D01*
X98963502Y-53373820D01*
X98904537Y-53263506D01*
X98825185Y-53166815D01*
X98765704Y-53118000D01*
X98825185Y-53069185D01*
X98904537Y-52972494D01*
X98963502Y-52862180D01*
X98999812Y-52742482D01*
X99012072Y-52618000D01*
X99012072Y-51618000D01*
X98999812Y-51493518D01*
X98963502Y-51373820D01*
X98904537Y-51263506D01*
X98825185Y-51166815D01*
X98765704Y-51118000D01*
X98825185Y-51069185D01*
X98904537Y-50972494D01*
X98963502Y-50862180D01*
X98999812Y-50742482D01*
X99012072Y-50618000D01*
X99012072Y-49618000D01*
X98999812Y-49493518D01*
X98973286Y-49406072D01*
X99474000Y-49406072D01*
X99598482Y-49393812D01*
X99718180Y-49357502D01*
X99828494Y-49298537D01*
X99925185Y-49219185D01*
X99974000Y-49159704D01*
X100022815Y-49219185D01*
X100119506Y-49298537D01*
X100229820Y-49357502D01*
X100349518Y-49393812D01*
X100474000Y-49406072D01*
X101474000Y-49406072D01*
X101598482Y-49393812D01*
X101718180Y-49357502D01*
X101828494Y-49298537D01*
X101925185Y-49219185D01*
X101974000Y-49159704D01*
X102022815Y-49219185D01*
X102119506Y-49298537D01*
X102219372Y-49351917D01*
X102193063Y-49378226D01*
X102079795Y-49547744D01*
X102001774Y-49736102D01*
X101962000Y-49936061D01*
X101962000Y-50139939D01*
X102001774Y-50339898D01*
X102079795Y-50528256D01*
X102193063Y-50697774D01*
X102337226Y-50841937D01*
X102506744Y-50955205D01*
X102695102Y-51033226D01*
X102895061Y-51073000D01*
X103098939Y-51073000D01*
X103298898Y-51033226D01*
X103487256Y-50955205D01*
X103656774Y-50841937D01*
X103800937Y-50697774D01*
X103914205Y-50528256D01*
X103992226Y-50339898D01*
X104032000Y-50139939D01*
X104032000Y-49936061D01*
X103992226Y-49736102D01*
X103914205Y-49547744D01*
X103800937Y-49378226D01*
X103758605Y-49335894D01*
X103828494Y-49298537D01*
X103925185Y-49219185D01*
X103974000Y-49159704D01*
X104022815Y-49219185D01*
X104119506Y-49298537D01*
X104229820Y-49357502D01*
X104349518Y-49393812D01*
X104474000Y-49406072D01*
X105474000Y-49406072D01*
X105598482Y-49393812D01*
X105718180Y-49357502D01*
X105828494Y-49298537D01*
X105925185Y-49219185D01*
X105974000Y-49159704D01*
X105997542Y-49188390D01*
X105962500Y-49364561D01*
X105962500Y-49568439D01*
X106002274Y-49768398D01*
X106080295Y-49956756D01*
X106193563Y-50126274D01*
X106337726Y-50270437D01*
X106507244Y-50383705D01*
X106695602Y-50461726D01*
X106895561Y-50501500D01*
X107099439Y-50501500D01*
X107299398Y-50461726D01*
X107487756Y-50383705D01*
X107657274Y-50270437D01*
X107801437Y-50126274D01*
X107914705Y-49956756D01*
X107992726Y-49768398D01*
X108032500Y-49568439D01*
X108032500Y-49364561D01*
X107997431Y-49188254D01*
X108022815Y-49219185D01*
X108119506Y-49298537D01*
X108229820Y-49357502D01*
X108349518Y-49393812D01*
X108474000Y-49406072D01*
X109474000Y-49406072D01*
X109598482Y-49393812D01*
X109718180Y-49357502D01*
X109828494Y-49298537D01*
X109925185Y-49219185D01*
X109974000Y-49159704D01*
X110022815Y-49219185D01*
X110119506Y-49298537D01*
X110229820Y-49357502D01*
X110349518Y-49393812D01*
X110474000Y-49406072D01*
X111474000Y-49406072D01*
X111598482Y-49393812D01*
X111718180Y-49357502D01*
X111828494Y-49298537D01*
X111925185Y-49219185D01*
X111974000Y-49159704D01*
X112022815Y-49219185D01*
X112119506Y-49298537D01*
X112229820Y-49357502D01*
X112349518Y-49393812D01*
X112474000Y-49406072D01*
X113474000Y-49406072D01*
X113598482Y-49393812D01*
X113718180Y-49357502D01*
X113828494Y-49298537D01*
X113925185Y-49219185D01*
X114004537Y-49122494D01*
X114063502Y-49012180D01*
X114099812Y-48892482D01*
X114112072Y-48768000D01*
X114112072Y-46268000D01*
X114099812Y-46143518D01*
X114063502Y-46023820D01*
X114004537Y-45913506D01*
X113925185Y-45816815D01*
X113828494Y-45737463D01*
X113718180Y-45678498D01*
X113598482Y-45642188D01*
X113474000Y-45629928D01*
X112474000Y-45629928D01*
X112349518Y-45642188D01*
X112229820Y-45678498D01*
X112119506Y-45737463D01*
X112022815Y-45816815D01*
X111974000Y-45876296D01*
X111925185Y-45816815D01*
X111828494Y-45737463D01*
X111718180Y-45678498D01*
X111598482Y-45642188D01*
X111474000Y-45629928D01*
X110474000Y-45629928D01*
X110349518Y-45642188D01*
X110229820Y-45678498D01*
X110119506Y-45737463D01*
X110022815Y-45816815D01*
X109974000Y-45876296D01*
X109925185Y-45816815D01*
X109828494Y-45737463D01*
X109718180Y-45678498D01*
X109598482Y-45642188D01*
X109474000Y-45629928D01*
X108474000Y-45629928D01*
X108349518Y-45642188D01*
X108229820Y-45678498D01*
X108119506Y-45737463D01*
X108022815Y-45816815D01*
X107974000Y-45876296D01*
X107925185Y-45816815D01*
X107828494Y-45737463D01*
X107718180Y-45678498D01*
X107598482Y-45642188D01*
X107474000Y-45629928D01*
X106474000Y-45629928D01*
X106349518Y-45642188D01*
X106229820Y-45678498D01*
X106119506Y-45737463D01*
X106022815Y-45816815D01*
X105974000Y-45876296D01*
X105925185Y-45816815D01*
X105828494Y-45737463D01*
X105718180Y-45678498D01*
X105598482Y-45642188D01*
X105474000Y-45629928D01*
X104474000Y-45629928D01*
X104349518Y-45642188D01*
X104229820Y-45678498D01*
X104119506Y-45737463D01*
X104022815Y-45816815D01*
X103974000Y-45876296D01*
X103925185Y-45816815D01*
X103828494Y-45737463D01*
X103718180Y-45678498D01*
X103598482Y-45642188D01*
X103474000Y-45629928D01*
X102474000Y-45629928D01*
X102349518Y-45642188D01*
X102229820Y-45678498D01*
X102119506Y-45737463D01*
X102022815Y-45816815D01*
X101974000Y-45876296D01*
X101925185Y-45816815D01*
X101828494Y-45737463D01*
X101718180Y-45678498D01*
X101598482Y-45642188D01*
X101474000Y-45629928D01*
X100474000Y-45629928D01*
X100349518Y-45642188D01*
X100229820Y-45678498D01*
X100119506Y-45737463D01*
X100022815Y-45816815D01*
X99974000Y-45876296D01*
X99973421Y-45875591D01*
X99991726Y-45831398D01*
X100031500Y-45631439D01*
X100031500Y-45427561D01*
X99991726Y-45227602D01*
X99913705Y-45039244D01*
X99800437Y-44869726D01*
X99656274Y-44725563D01*
X99486756Y-44612295D01*
X99298398Y-44534274D01*
X99098439Y-44494500D01*
X98894561Y-44494500D01*
X98694602Y-44534274D01*
X98506244Y-44612295D01*
X98336726Y-44725563D01*
X98192563Y-44869726D01*
X98079295Y-45039244D01*
X98001274Y-45227602D01*
X97961500Y-45427561D01*
X97961500Y-45631439D01*
X98001274Y-45831398D01*
X98004485Y-45839150D01*
X97943463Y-45913506D01*
X97884498Y-46023820D01*
X97848188Y-46143518D01*
X97835928Y-46268000D01*
X97835928Y-48768000D01*
X97848188Y-48892482D01*
X97874714Y-48979928D01*
X96574000Y-48979928D01*
X96449518Y-48992188D01*
X96329820Y-49028498D01*
X96219506Y-49087463D01*
X96219471Y-49087492D01*
X96113939Y-49066500D01*
X95910061Y-49066500D01*
X95710102Y-49106274D01*
X95521744Y-49184295D01*
X95352226Y-49297563D01*
X95208063Y-49441726D01*
X95094795Y-49611244D01*
X95016774Y-49799602D01*
X94977000Y-49999561D01*
X75469587Y-49999561D01*
X75445706Y-49992317D01*
X75249579Y-49973000D01*
X75118421Y-49973000D01*
X74922294Y-49992317D01*
X74670646Y-50068653D01*
X74438725Y-50192618D01*
X74235445Y-50359445D01*
X74068618Y-50562725D01*
X73944653Y-50794646D01*
X73868317Y-51046294D01*
X73842541Y-51308000D01*
X71780000Y-51308000D01*
X71780000Y-45836000D01*
X76947928Y-45836000D01*
X76947928Y-47636000D01*
X76960188Y-47760482D01*
X76996498Y-47880180D01*
X77055463Y-47990494D01*
X77134815Y-48087185D01*
X77231506Y-48166537D01*
X77341820Y-48225502D01*
X77461518Y-48261812D01*
X77586000Y-48274072D01*
X77831674Y-48274072D01*
X77851026Y-48310276D01*
X77890871Y-48358826D01*
X77945999Y-48426001D01*
X77975002Y-48449803D01*
X78804201Y-49279003D01*
X78827999Y-49308001D01*
X78943724Y-49402974D01*
X79075753Y-49473546D01*
X79219014Y-49517003D01*
X79330667Y-49528000D01*
X79330676Y-49528000D01*
X79367999Y-49531676D01*
X79405322Y-49528000D01*
X87910178Y-49528000D01*
X87947500Y-49531676D01*
X87984822Y-49528000D01*
X87984833Y-49528000D01*
X88096486Y-49517003D01*
X88239747Y-49473546D01*
X88371776Y-49402974D01*
X88487501Y-49308001D01*
X88511304Y-49278997D01*
X90489004Y-47301298D01*
X90518002Y-47277500D01*
X90560470Y-47225753D01*
X90612975Y-47161776D01*
X90683547Y-47029746D01*
X90721076Y-46906026D01*
X90727004Y-46886485D01*
X90738001Y-46774832D01*
X90738001Y-46774823D01*
X90741677Y-46737500D01*
X90738001Y-46700177D01*
X90738001Y-46547000D01*
X90743579Y-46547000D01*
X90939706Y-46527683D01*
X91191354Y-46451347D01*
X91423275Y-46327382D01*
X91626555Y-46160555D01*
X91793382Y-45957275D01*
X91917347Y-45725354D01*
X91993683Y-45473706D01*
X92019459Y-45212000D01*
X91993683Y-44950294D01*
X91917347Y-44698646D01*
X91793382Y-44466725D01*
X91626555Y-44263445D01*
X91423275Y-44096618D01*
X91191354Y-43972653D01*
X90939706Y-43896317D01*
X90743579Y-43877000D01*
X90612421Y-43877000D01*
X90416294Y-43896317D01*
X90164646Y-43972653D01*
X89932725Y-44096618D01*
X89729445Y-44263445D01*
X89562618Y-44466725D01*
X89438653Y-44698646D01*
X89362317Y-44950294D01*
X89336541Y-45212000D01*
X89361483Y-45465235D01*
X89343027Y-45487723D01*
X89334195Y-45504247D01*
X89272455Y-45619753D01*
X89228998Y-45763014D01*
X89218001Y-45874667D01*
X89218001Y-45874677D01*
X89214325Y-45911999D01*
X89218001Y-45949321D01*
X89218001Y-46422697D01*
X87632699Y-48008000D01*
X81885244Y-48008000D01*
X82004505Y-47928312D01*
X82218312Y-47714505D01*
X82386299Y-47463095D01*
X82502011Y-47183743D01*
X82561000Y-46887184D01*
X82561000Y-46584816D01*
X82502011Y-46288257D01*
X82386299Y-46008905D01*
X82218312Y-45757495D01*
X82004505Y-45543688D01*
X81753095Y-45375701D01*
X81473743Y-45259989D01*
X81232485Y-45212000D01*
X85526541Y-45212000D01*
X85552317Y-45473706D01*
X85628653Y-45725354D01*
X85752618Y-45957275D01*
X85919445Y-46160555D01*
X86122725Y-46327382D01*
X86354646Y-46451347D01*
X86606294Y-46527683D01*
X86802421Y-46547000D01*
X86933579Y-46547000D01*
X87129706Y-46527683D01*
X87381354Y-46451347D01*
X87613275Y-46327382D01*
X87816555Y-46160555D01*
X87983382Y-45957275D01*
X88107347Y-45725354D01*
X88183683Y-45473706D01*
X88209459Y-45212000D01*
X88183683Y-44950294D01*
X88107347Y-44698646D01*
X87983382Y-44466725D01*
X87816555Y-44263445D01*
X87613275Y-44096618D01*
X87381354Y-43972653D01*
X87129706Y-43896317D01*
X86933579Y-43877000D01*
X86802421Y-43877000D01*
X86606294Y-43896317D01*
X86354646Y-43972653D01*
X86122725Y-44096618D01*
X85919445Y-44263445D01*
X85752618Y-44466725D01*
X85628653Y-44698646D01*
X85552317Y-44950294D01*
X85526541Y-45212000D01*
X81232485Y-45212000D01*
X81177184Y-45201000D01*
X80874816Y-45201000D01*
X80578257Y-45259989D01*
X80298905Y-45375701D01*
X80047495Y-45543688D01*
X79981056Y-45610127D01*
X79975502Y-45591820D01*
X79916537Y-45481506D01*
X79837185Y-45384815D01*
X79740494Y-45305463D01*
X79630180Y-45246498D01*
X79510482Y-45210188D01*
X79386000Y-45197928D01*
X77586000Y-45197928D01*
X77461518Y-45210188D01*
X77341820Y-45246498D01*
X77231506Y-45305463D01*
X77134815Y-45384815D01*
X77055463Y-45481506D01*
X76996498Y-45591820D01*
X76960188Y-45711518D01*
X76947928Y-45836000D01*
X71780000Y-45836000D01*
X71780000Y-43840000D01*
X121260001Y-43840000D01*
X121260000Y-65634000D01*
X121260000Y-65634000D01*
G37*
X121260000Y-65634000D02*
X71780000Y-65634000D01*
X71780000Y-62586816D01*
X76951000Y-62586816D01*
X76951000Y-62889184D01*
X77009989Y-63185743D01*
X77125701Y-63465095D01*
X77293688Y-63716505D01*
X77507495Y-63930312D01*
X77758905Y-64098299D01*
X78038257Y-64214011D01*
X78334816Y-64273000D01*
X78637184Y-64273000D01*
X78933743Y-64214011D01*
X79213095Y-64098299D01*
X79464505Y-63930312D01*
X79530944Y-63863873D01*
X79536498Y-63882180D01*
X79595463Y-63992494D01*
X79674815Y-64089185D01*
X79771506Y-64168537D01*
X79881820Y-64227502D01*
X80001518Y-64263812D01*
X80126000Y-64276072D01*
X80740250Y-64273000D01*
X80899000Y-64114250D01*
X80899000Y-62865000D01*
X81153000Y-62865000D01*
X81153000Y-64114250D01*
X81311750Y-64273000D01*
X81926000Y-64276072D01*
X82050482Y-64263812D01*
X82170180Y-64227502D01*
X82280494Y-64168537D01*
X82377185Y-64089185D01*
X82456537Y-63992494D01*
X82469629Y-63968000D01*
X97835928Y-63968000D01*
X97848188Y-64092482D01*
X97884498Y-64212180D01*
X97943463Y-64322494D01*
X98022815Y-64419185D01*
X98119506Y-64498537D01*
X98229820Y-64557502D01*
X98349518Y-64593812D01*
X98474000Y-64606072D01*
X98688250Y-64603000D01*
X98847000Y-64444250D01*
X98847000Y-62845000D01*
X97997750Y-62845000D01*
X97839000Y-63003750D01*
X97835928Y-63968000D01*
X82469629Y-63968000D01*
X82515502Y-63882180D01*
X82551812Y-63762482D01*
X82564072Y-63638000D01*
X82561000Y-63023750D01*
X82402250Y-62865000D01*
X81153000Y-62865000D01*
X80899000Y-62865000D01*
X80879000Y-62865000D01*
X80879000Y-62611000D01*
X80899000Y-62611000D01*
X80899000Y-61361750D01*
X81153000Y-61361750D01*
X81153000Y-62611000D01*
X82402250Y-62611000D01*
X82561000Y-62452250D01*
X82564072Y-61838000D01*
X82551812Y-61713518D01*
X82515502Y-61593820D01*
X82456537Y-61483506D01*
X82377185Y-61386815D01*
X82280494Y-61307463D01*
X82170180Y-61248498D01*
X82050482Y-61212188D01*
X81926000Y-61199928D01*
X81311750Y-61203000D01*
X81153000Y-61361750D01*
X80899000Y-61361750D01*
X80740250Y-61203000D01*
X80126000Y-61199928D01*
X80001518Y-61212188D01*
X79881820Y-61248498D01*
X79771506Y-61307463D01*
X79674815Y-61386815D01*
X79595463Y-61483506D01*
X79536498Y-61593820D01*
X79530944Y-61612127D01*
X79464505Y-61545688D01*
X79213095Y-61377701D01*
X78933743Y-61261989D01*
X78637184Y-61203000D01*
X78334816Y-61203000D01*
X78038257Y-61261989D01*
X77758905Y-61377701D01*
X77507495Y-61545688D01*
X77293688Y-61759495D01*
X77125701Y-62010905D01*
X77009989Y-62290257D01*
X76951000Y-62586816D01*
X71780000Y-62586816D01*
X71780000Y-60574514D01*
X82675500Y-60574514D01*
X82675500Y-60837486D01*
X82726804Y-61095405D01*
X82827439Y-61338359D01*
X82973538Y-61557013D01*
X83159487Y-61742962D01*
X83378141Y-61889061D01*
X83621095Y-61989696D01*
X83879014Y-62041000D01*
X84141986Y-62041000D01*
X84399905Y-61989696D01*
X84642859Y-61889061D01*
X84861513Y-61742962D01*
X85047462Y-61557013D01*
X85193561Y-61338359D01*
X85294196Y-61095405D01*
X85345500Y-60837486D01*
X85345500Y-60574514D01*
X85294196Y-60316595D01*
X85193561Y-60073641D01*
X85047462Y-59854987D01*
X84861513Y-59669038D01*
X84642859Y-59522939D01*
X84399905Y-59422304D01*
X84141986Y-59371000D01*
X83879014Y-59371000D01*
X83621095Y-59422304D01*
X83378141Y-59522939D01*
X83159487Y-59669038D01*
X82973538Y-59854987D01*
X82827439Y-60073641D01*
X82726804Y-60316595D01*
X82675500Y-60574514D01*
X71780000Y-60574514D01*
X71780000Y-58796514D01*
X73849000Y-58796514D01*
X73849000Y-59059486D01*
X73900304Y-59317405D01*
X74000939Y-59560359D01*
X74147038Y-59779013D01*
X74332987Y-59964962D01*
X74551641Y-60111061D01*
X74794595Y-60211696D01*
X75052514Y-60263000D01*
X75315486Y-60263000D01*
X75573405Y-60211696D01*
X75816359Y-60111061D01*
X76035013Y-59964962D01*
X76220962Y-59779013D01*
X76367061Y-59560359D01*
X76467696Y-59317405D01*
X76519000Y-59059486D01*
X76519000Y-58796514D01*
X76467696Y-58538595D01*
X76367061Y-58295641D01*
X76220962Y-58076987D01*
X76035013Y-57891038D01*
X75816359Y-57744939D01*
X75573405Y-57644304D01*
X75315486Y-57593000D01*
X75052514Y-57593000D01*
X74794595Y-57644304D01*
X74551641Y-57744939D01*
X74332987Y-57891038D01*
X74147038Y-58076987D01*
X74000939Y-58295641D01*
X73900304Y-58538595D01*
X73849000Y-58796514D01*
X71780000Y-58796514D01*
X71780000Y-51308000D01*
X73842541Y-51308000D01*
X73868317Y-51569706D01*
X73944653Y-51821354D01*
X74068618Y-52053275D01*
X74235445Y-52256555D01*
X74438725Y-52423382D01*
X74670646Y-52547347D01*
X74922294Y-52623683D01*
X75118421Y-52643000D01*
X75249579Y-52643000D01*
X75445706Y-52623683D01*
X75697354Y-52547347D01*
X75929275Y-52423382D01*
X76132555Y-52256555D01*
X76287298Y-52068000D01*
X83146564Y-52068000D01*
X83061945Y-52137445D01*
X82895118Y-52340725D01*
X82771153Y-52572646D01*
X82694817Y-52824294D01*
X82669041Y-53086000D01*
X82694817Y-53347706D01*
X82771153Y-53599354D01*
X82895118Y-53831275D01*
X83061945Y-54034555D01*
X83265225Y-54201382D01*
X83497146Y-54325347D01*
X83748794Y-54401683D01*
X83944921Y-54421000D01*
X84076079Y-54421000D01*
X84272206Y-54401683D01*
X84523854Y-54325347D01*
X84755775Y-54201382D01*
X84959055Y-54034555D01*
X85125882Y-53831275D01*
X85249847Y-53599354D01*
X85326183Y-53347706D01*
X85351959Y-53086000D01*
X85326183Y-52824294D01*
X85249847Y-52572646D01*
X85125882Y-52340725D01*
X84959055Y-52137445D01*
X84874436Y-52068000D01*
X85029199Y-52068000D01*
X85554355Y-52593157D01*
X85533000Y-52700514D01*
X85533000Y-52963486D01*
X85584304Y-53221405D01*
X85684939Y-53464359D01*
X85831038Y-53683013D01*
X86016987Y-53868962D01*
X86115433Y-53934741D01*
X86118998Y-53970934D01*
X86162454Y-54114195D01*
X86233026Y-54246225D01*
X86304201Y-54332951D01*
X86328000Y-54361950D01*
X86356998Y-54385748D01*
X90584751Y-58613502D01*
X90608550Y-58642501D01*
X90724275Y-58737474D01*
X90856304Y-58808046D01*
X90999565Y-58851503D01*
X91111218Y-58862500D01*
X91111227Y-58862500D01*
X91148550Y-58866176D01*
X91185873Y-58862500D01*
X91823699Y-58862500D01*
X92626532Y-59665333D01*
X92620987Y-59669038D01*
X92435038Y-59854987D01*
X92288939Y-60073641D01*
X92188304Y-60316595D01*
X92137000Y-60574514D01*
X92137000Y-60837486D01*
X92188304Y-61095405D01*
X92288939Y-61338359D01*
X92435038Y-61557013D01*
X92620987Y-61742962D01*
X92839641Y-61889061D01*
X93082595Y-61989696D01*
X93340514Y-62041000D01*
X93603486Y-62041000D01*
X93861405Y-61989696D01*
X94104359Y-61889061D01*
X94323013Y-61742962D01*
X94508962Y-61557013D01*
X94655061Y-61338359D01*
X94755696Y-61095405D01*
X94807000Y-60837486D01*
X94807000Y-60574514D01*
X94755696Y-60316595D01*
X94655061Y-60073641D01*
X94508962Y-59854987D01*
X94323013Y-59669038D01*
X94232000Y-59608225D01*
X94232000Y-59473325D01*
X94235676Y-59436000D01*
X94232000Y-59398675D01*
X94232000Y-59398667D01*
X94221003Y-59287014D01*
X94177546Y-59143753D01*
X94106974Y-59011724D01*
X94012001Y-58895999D01*
X93983004Y-58872202D01*
X92702304Y-57591503D01*
X92678501Y-57562499D01*
X92562776Y-57467526D01*
X92430747Y-57396954D01*
X92287486Y-57353497D01*
X92175833Y-57342500D01*
X92175822Y-57342500D01*
X92138500Y-57338824D01*
X92101178Y-57342500D01*
X91463353Y-57342500D01*
X87854414Y-53733561D01*
X87904962Y-53683013D01*
X88051061Y-53464359D01*
X88151696Y-53221405D01*
X88203000Y-52963486D01*
X88203000Y-52700514D01*
X89343000Y-52700514D01*
X89343000Y-52963486D01*
X89394304Y-53221405D01*
X89494939Y-53464359D01*
X89641038Y-53683013D01*
X89826987Y-53868962D01*
X90045641Y-54015061D01*
X90288595Y-54115696D01*
X90546514Y-54167000D01*
X90809486Y-54167000D01*
X91067405Y-54115696D01*
X91310359Y-54015061D01*
X91529013Y-53868962D01*
X91714962Y-53683013D01*
X91861061Y-53464359D01*
X91961696Y-53221405D01*
X91988630Y-53086000D01*
X92130541Y-53086000D01*
X92156317Y-53347706D01*
X92232653Y-53599354D01*
X92356618Y-53831275D01*
X92523445Y-54034555D01*
X92726725Y-54201382D01*
X92958646Y-54325347D01*
X93210294Y-54401683D01*
X93406421Y-54421000D01*
X93537579Y-54421000D01*
X93733706Y-54401683D01*
X93985354Y-54325347D01*
X94217275Y-54201382D01*
X94420555Y-54034555D01*
X94587382Y-53831275D01*
X94711347Y-53599354D01*
X94787683Y-53347706D01*
X94813459Y-53086000D01*
X94787683Y-52824294D01*
X94711347Y-52572646D01*
X94587382Y-52340725D01*
X94420555Y-52137445D01*
X94217275Y-51970618D01*
X93985354Y-51846653D01*
X93733706Y-51770317D01*
X93537579Y-51751000D01*
X93406421Y-51751000D01*
X93210294Y-51770317D01*
X92958646Y-51846653D01*
X92726725Y-51970618D01*
X92523445Y-52137445D01*
X92356618Y-52340725D01*
X92232653Y-52572646D01*
X92156317Y-52824294D01*
X92130541Y-53086000D01*
X91988630Y-53086000D01*
X92013000Y-52963486D01*
X92013000Y-52700514D01*
X91961696Y-52442595D01*
X91861061Y-52199641D01*
X91714962Y-51980987D01*
X91529013Y-51795038D01*
X91310359Y-51648939D01*
X91067405Y-51548304D01*
X90809486Y-51497000D01*
X90546514Y-51497000D01*
X90288595Y-51548304D01*
X90045641Y-51648939D01*
X89826987Y-51795038D01*
X89641038Y-51980987D01*
X89494939Y-52199641D01*
X89394304Y-52442595D01*
X89343000Y-52700514D01*
X88203000Y-52700514D01*
X88151696Y-52442595D01*
X88051061Y-52199641D01*
X87904962Y-51980987D01*
X87719013Y-51795038D01*
X87500359Y-51648939D01*
X87257405Y-51548304D01*
X86999486Y-51497000D01*
X86736514Y-51497000D01*
X86629157Y-51518355D01*
X85907803Y-50797002D01*
X85884001Y-50767999D01*
X85768276Y-50673026D01*
X85636247Y-50602454D01*
X85492986Y-50558997D01*
X85381333Y-50548000D01*
X85381322Y-50548000D01*
X85344000Y-50544324D01*
X85306678Y-50548000D01*
X76287298Y-50548000D01*
X76132555Y-50359445D01*
X75929275Y-50192618D01*
X75697354Y-50068653D01*
X75469587Y-49999561D01*
X94977000Y-49999561D01*
X94977000Y-50203439D01*
X95016774Y-50403398D01*
X95094795Y-50591756D01*
X95208063Y-50761274D01*
X95352226Y-50905437D01*
X95521744Y-51018705D01*
X95710102Y-51096726D01*
X95910061Y-51136500D01*
X96113939Y-51136500D01*
X96174411Y-51124471D01*
X96122815Y-51166815D01*
X96043463Y-51263506D01*
X95984498Y-51373820D01*
X95948188Y-51493518D01*
X95935928Y-51618000D01*
X95935928Y-52618000D01*
X95948188Y-52742482D01*
X95984498Y-52862180D01*
X96043463Y-52972494D01*
X96122815Y-53069185D01*
X96182296Y-53118000D01*
X96122815Y-53166815D01*
X96043463Y-53263506D01*
X95984498Y-53373820D01*
X95948188Y-53493518D01*
X95935928Y-53618000D01*
X95935928Y-54618000D01*
X95948188Y-54742482D01*
X95984498Y-54862180D01*
X96043463Y-54972494D01*
X96122815Y-55069185D01*
X96182296Y-55118000D01*
X96122815Y-55166815D01*
X96043463Y-55263506D01*
X95984498Y-55373820D01*
X95948188Y-55493518D01*
X95935928Y-55618000D01*
X95935928Y-56618000D01*
X95948188Y-56742482D01*
X95984498Y-56862180D01*
X96043463Y-56972494D01*
X96122815Y-57069185D01*
X96182296Y-57118000D01*
X96122815Y-57166815D01*
X96043463Y-57263506D01*
X95984498Y-57373820D01*
X95948188Y-57493518D01*
X95935928Y-57618000D01*
X95935928Y-58618000D01*
X95948188Y-58742482D01*
X95984498Y-58862180D01*
X96043463Y-58972494D01*
X96122815Y-59069185D01*
X96182296Y-59118000D01*
X96122815Y-59166815D01*
X96043463Y-59263506D01*
X95984498Y-59373820D01*
X95948188Y-59493518D01*
X95935928Y-59618000D01*
X95935928Y-60618000D01*
X95948188Y-60742482D01*
X95984498Y-60862180D01*
X96043463Y-60972494D01*
X96122815Y-61069185D01*
X96219506Y-61148537D01*
X96329820Y-61207502D01*
X96449518Y-61243812D01*
X96574000Y-61256072D01*
X97874714Y-61256072D01*
X97848188Y-61343518D01*
X97835928Y-61468000D01*
X97839000Y-62432250D01*
X97997750Y-62591000D01*
X98847000Y-62591000D01*
X98847000Y-61042603D01*
X98888734Y-60991750D01*
X99101000Y-60991750D01*
X99101000Y-62591000D01*
X99121000Y-62591000D01*
X99121000Y-62845000D01*
X99101000Y-62845000D01*
X99101000Y-64444250D01*
X99259750Y-64603000D01*
X99474000Y-64606072D01*
X99598482Y-64593812D01*
X99718180Y-64557502D01*
X99828494Y-64498537D01*
X99925185Y-64419185D01*
X99974000Y-64359704D01*
X100022815Y-64419185D01*
X100119506Y-64498537D01*
X100229820Y-64557502D01*
X100349518Y-64593812D01*
X100474000Y-64606072D01*
X101474000Y-64606072D01*
X101598482Y-64593812D01*
X101718180Y-64557502D01*
X101828494Y-64498537D01*
X101925185Y-64419185D01*
X101974000Y-64359704D01*
X102022815Y-64419185D01*
X102119506Y-64498537D01*
X102229820Y-64557502D01*
X102349518Y-64593812D01*
X102474000Y-64606072D01*
X103474000Y-64606072D01*
X103598482Y-64593812D01*
X103718180Y-64557502D01*
X103828494Y-64498537D01*
X103925185Y-64419185D01*
X103974000Y-64359704D01*
X104022815Y-64419185D01*
X104119506Y-64498537D01*
X104229820Y-64557502D01*
X104349518Y-64593812D01*
X104474000Y-64606072D01*
X105474000Y-64606072D01*
X105598482Y-64593812D01*
X105718180Y-64557502D01*
X105828494Y-64498537D01*
X105925185Y-64419185D01*
X105974000Y-64359704D01*
X106022815Y-64419185D01*
X106119506Y-64498537D01*
X106229820Y-64557502D01*
X106349518Y-64593812D01*
X106474000Y-64606072D01*
X107474000Y-64606072D01*
X107598482Y-64593812D01*
X107718180Y-64557502D01*
X107828494Y-64498537D01*
X107925185Y-64419185D01*
X107974000Y-64359704D01*
X108022815Y-64419185D01*
X108119506Y-64498537D01*
X108229820Y-64557502D01*
X108349518Y-64593812D01*
X108474000Y-64606072D01*
X109474000Y-64606072D01*
X109598482Y-64593812D01*
X109718180Y-64557502D01*
X109828494Y-64498537D01*
X109925185Y-64419185D01*
X109974000Y-64359704D01*
X110022815Y-64419185D01*
X110119506Y-64498537D01*
X110229820Y-64557502D01*
X110349518Y-64593812D01*
X110474000Y-64606072D01*
X111474000Y-64606072D01*
X111598482Y-64593812D01*
X111718180Y-64557502D01*
X111828494Y-64498537D01*
X111925185Y-64419185D01*
X111974000Y-64359704D01*
X112022815Y-64419185D01*
X112119506Y-64498537D01*
X112229820Y-64557502D01*
X112349518Y-64593812D01*
X112474000Y-64606072D01*
X113474000Y-64606072D01*
X113598482Y-64593812D01*
X113718180Y-64557502D01*
X113828494Y-64498537D01*
X113925185Y-64419185D01*
X114004537Y-64322494D01*
X114063502Y-64212180D01*
X114099812Y-64092482D01*
X114112072Y-63968000D01*
X114112072Y-61468000D01*
X114099812Y-61343518D01*
X114063502Y-61223820D01*
X114004537Y-61113506D01*
X113925185Y-61016815D01*
X113828494Y-60937463D01*
X113718180Y-60878498D01*
X113598482Y-60842188D01*
X113474000Y-60829928D01*
X112474000Y-60829928D01*
X112349518Y-60842188D01*
X112229820Y-60878498D01*
X112119506Y-60937463D01*
X112022815Y-61016815D01*
X111974000Y-61076296D01*
X111925185Y-61016815D01*
X111828494Y-60937463D01*
X111718180Y-60878498D01*
X111598482Y-60842188D01*
X111474000Y-60829928D01*
X110474000Y-60829928D01*
X110349518Y-60842188D01*
X110229820Y-60878498D01*
X110119506Y-60937463D01*
X110022815Y-61016815D01*
X109974000Y-61076296D01*
X109925185Y-61016815D01*
X109828494Y-60937463D01*
X109718180Y-60878498D01*
X109598482Y-60842188D01*
X109474000Y-60829928D01*
X108474000Y-60829928D01*
X108349518Y-60842188D01*
X108229820Y-60878498D01*
X108119506Y-60937463D01*
X108022815Y-61016815D01*
X107974000Y-61076296D01*
X107925185Y-61016815D01*
X107828494Y-60937463D01*
X107718180Y-60878498D01*
X107598482Y-60842188D01*
X107474000Y-60829928D01*
X106474000Y-60829928D01*
X106349518Y-60842188D01*
X106229820Y-60878498D01*
X106119506Y-60937463D01*
X106022815Y-61016815D01*
X105974000Y-61076296D01*
X105925185Y-61016815D01*
X105828494Y-60937463D01*
X105718180Y-60878498D01*
X105598482Y-60842188D01*
X105474000Y-60829928D01*
X104474000Y-60829928D01*
X104349518Y-60842188D01*
X104229820Y-60878498D01*
X104119506Y-60937463D01*
X104022815Y-61016815D01*
X103974000Y-61076296D01*
X103925185Y-61016815D01*
X103828494Y-60937463D01*
X103718180Y-60878498D01*
X103598482Y-60842188D01*
X103474000Y-60829928D01*
X102474000Y-60829928D01*
X102349518Y-60842188D01*
X102229820Y-60878498D01*
X102119506Y-60937463D01*
X102022815Y-61016815D01*
X101974000Y-61076296D01*
X101925185Y-61016815D01*
X101828494Y-60937463D01*
X101718180Y-60878498D01*
X101598482Y-60842188D01*
X101474000Y-60829928D01*
X100474000Y-60829928D01*
X100349518Y-60842188D01*
X100229820Y-60878498D01*
X100119506Y-60937463D01*
X100022815Y-61016815D01*
X99974000Y-61076296D01*
X99925185Y-61016815D01*
X99828494Y-60937463D01*
X99718180Y-60878498D01*
X99598482Y-60842188D01*
X99474000Y-60829928D01*
X99259750Y-60833000D01*
X99101000Y-60991750D01*
X98888734Y-60991750D01*
X98904537Y-60972494D01*
X98963502Y-60862180D01*
X98999812Y-60742482D01*
X99012072Y-60618000D01*
X99012072Y-59618000D01*
X98999812Y-59493518D01*
X98963502Y-59373820D01*
X98904537Y-59263506D01*
X98825185Y-59166815D01*
X98765704Y-59118000D01*
X98825185Y-59069185D01*
X98904537Y-58972494D01*
X98963502Y-58862180D01*
X98999812Y-58742482D01*
X99012072Y-58618000D01*
X99012072Y-57618000D01*
X98999812Y-57493518D01*
X98963502Y-57373820D01*
X98904537Y-57263506D01*
X98825185Y-57166815D01*
X98765704Y-57118000D01*
X98825185Y-57069185D01*
X98904537Y-56972494D01*
X98963502Y-56862180D01*
X98999812Y-56742482D01*
X99012072Y-56618000D01*
X99012072Y-55618000D01*
X98999812Y-55493518D01*
X98963502Y-55373820D01*
X98904537Y-55263506D01*
X98825185Y-55166815D01*
X98765704Y-55118000D01*
X98825185Y-55069185D01*
X98904537Y-54972494D01*
X98963502Y-54862180D01*
X98999812Y-54742482D01*
X99012072Y-54618000D01*
X99012072Y-53618000D01*
X98999812Y-53493518D01*
X98963502Y-53373820D01*
X98904537Y-53263506D01*
X98825185Y-53166815D01*
X98765704Y-53118000D01*
X98825185Y-53069185D01*
X98904537Y-52972494D01*
X98963502Y-52862180D01*
X98999812Y-52742482D01*
X99012072Y-52618000D01*
X99012072Y-51618000D01*
X98999812Y-51493518D01*
X98963502Y-51373820D01*
X98904537Y-51263506D01*
X98825185Y-51166815D01*
X98765704Y-51118000D01*
X98825185Y-51069185D01*
X98904537Y-50972494D01*
X98963502Y-50862180D01*
X98999812Y-50742482D01*
X99012072Y-50618000D01*
X99012072Y-49618000D01*
X98999812Y-49493518D01*
X98973286Y-49406072D01*
X99474000Y-49406072D01*
X99598482Y-49393812D01*
X99718180Y-49357502D01*
X99828494Y-49298537D01*
X99925185Y-49219185D01*
X99974000Y-49159704D01*
X100022815Y-49219185D01*
X100119506Y-49298537D01*
X100229820Y-49357502D01*
X100349518Y-49393812D01*
X100474000Y-49406072D01*
X101474000Y-49406072D01*
X101598482Y-49393812D01*
X101718180Y-49357502D01*
X101828494Y-49298537D01*
X101925185Y-49219185D01*
X101974000Y-49159704D01*
X102022815Y-49219185D01*
X102119506Y-49298537D01*
X102219372Y-49351917D01*
X102193063Y-49378226D01*
X102079795Y-49547744D01*
X102001774Y-49736102D01*
X101962000Y-49936061D01*
X101962000Y-50139939D01*
X102001774Y-50339898D01*
X102079795Y-50528256D01*
X102193063Y-50697774D01*
X102337226Y-50841937D01*
X102506744Y-50955205D01*
X102695102Y-51033226D01*
X102895061Y-51073000D01*
X103098939Y-51073000D01*
X103298898Y-51033226D01*
X103487256Y-50955205D01*
X103656774Y-50841937D01*
X103800937Y-50697774D01*
X103914205Y-50528256D01*
X103992226Y-50339898D01*
X104032000Y-50139939D01*
X104032000Y-49936061D01*
X103992226Y-49736102D01*
X103914205Y-49547744D01*
X103800937Y-49378226D01*
X103758605Y-49335894D01*
X103828494Y-49298537D01*
X103925185Y-49219185D01*
X103974000Y-49159704D01*
X104022815Y-49219185D01*
X104119506Y-49298537D01*
X104229820Y-49357502D01*
X104349518Y-49393812D01*
X104474000Y-49406072D01*
X105474000Y-49406072D01*
X105598482Y-49393812D01*
X105718180Y-49357502D01*
X105828494Y-49298537D01*
X105925185Y-49219185D01*
X105974000Y-49159704D01*
X105997542Y-49188390D01*
X105962500Y-49364561D01*
X105962500Y-49568439D01*
X106002274Y-49768398D01*
X106080295Y-49956756D01*
X106193563Y-50126274D01*
X106337726Y-50270437D01*
X106507244Y-50383705D01*
X106695602Y-50461726D01*
X106895561Y-50501500D01*
X107099439Y-50501500D01*
X107299398Y-50461726D01*
X107487756Y-50383705D01*
X107657274Y-50270437D01*
X107801437Y-50126274D01*
X107914705Y-49956756D01*
X107992726Y-49768398D01*
X108032500Y-49568439D01*
X108032500Y-49364561D01*
X107997431Y-49188254D01*
X108022815Y-49219185D01*
X108119506Y-49298537D01*
X108229820Y-49357502D01*
X108349518Y-49393812D01*
X108474000Y-49406072D01*
X109474000Y-49406072D01*
X109598482Y-49393812D01*
X109718180Y-49357502D01*
X109828494Y-49298537D01*
X109925185Y-49219185D01*
X109974000Y-49159704D01*
X110022815Y-49219185D01*
X110119506Y-49298537D01*
X110229820Y-49357502D01*
X110349518Y-49393812D01*
X110474000Y-49406072D01*
X111474000Y-49406072D01*
X111598482Y-49393812D01*
X111718180Y-49357502D01*
X111828494Y-49298537D01*
X111925185Y-49219185D01*
X111974000Y-49159704D01*
X112022815Y-49219185D01*
X112119506Y-49298537D01*
X112229820Y-49357502D01*
X112349518Y-49393812D01*
X112474000Y-49406072D01*
X113474000Y-49406072D01*
X113598482Y-49393812D01*
X113718180Y-49357502D01*
X113828494Y-49298537D01*
X113925185Y-49219185D01*
X114004537Y-49122494D01*
X114063502Y-49012180D01*
X114099812Y-48892482D01*
X114112072Y-48768000D01*
X114112072Y-46268000D01*
X114099812Y-46143518D01*
X114063502Y-46023820D01*
X114004537Y-45913506D01*
X113925185Y-45816815D01*
X113828494Y-45737463D01*
X113718180Y-45678498D01*
X113598482Y-45642188D01*
X113474000Y-45629928D01*
X112474000Y-45629928D01*
X112349518Y-45642188D01*
X112229820Y-45678498D01*
X112119506Y-45737463D01*
X112022815Y-45816815D01*
X111974000Y-45876296D01*
X111925185Y-45816815D01*
X111828494Y-45737463D01*
X111718180Y-45678498D01*
X111598482Y-45642188D01*
X111474000Y-45629928D01*
X110474000Y-45629928D01*
X110349518Y-45642188D01*
X110229820Y-45678498D01*
X110119506Y-45737463D01*
X110022815Y-45816815D01*
X109974000Y-45876296D01*
X109925185Y-45816815D01*
X109828494Y-45737463D01*
X109718180Y-45678498D01*
X109598482Y-45642188D01*
X109474000Y-45629928D01*
X108474000Y-45629928D01*
X108349518Y-45642188D01*
X108229820Y-45678498D01*
X108119506Y-45737463D01*
X108022815Y-45816815D01*
X107974000Y-45876296D01*
X107925185Y-45816815D01*
X107828494Y-45737463D01*
X107718180Y-45678498D01*
X107598482Y-45642188D01*
X107474000Y-45629928D01*
X106474000Y-45629928D01*
X106349518Y-45642188D01*
X106229820Y-45678498D01*
X106119506Y-45737463D01*
X106022815Y-45816815D01*
X105974000Y-45876296D01*
X105925185Y-45816815D01*
X105828494Y-45737463D01*
X105718180Y-45678498D01*
X105598482Y-45642188D01*
X105474000Y-45629928D01*
X104474000Y-45629928D01*
X104349518Y-45642188D01*
X104229820Y-45678498D01*
X104119506Y-45737463D01*
X104022815Y-45816815D01*
X103974000Y-45876296D01*
X103925185Y-45816815D01*
X103828494Y-45737463D01*
X103718180Y-45678498D01*
X103598482Y-45642188D01*
X103474000Y-45629928D01*
X102474000Y-45629928D01*
X102349518Y-45642188D01*
X102229820Y-45678498D01*
X102119506Y-45737463D01*
X102022815Y-45816815D01*
X101974000Y-45876296D01*
X101925185Y-45816815D01*
X101828494Y-45737463D01*
X101718180Y-45678498D01*
X101598482Y-45642188D01*
X101474000Y-45629928D01*
X100474000Y-45629928D01*
X100349518Y-45642188D01*
X100229820Y-45678498D01*
X100119506Y-45737463D01*
X100022815Y-45816815D01*
X99974000Y-45876296D01*
X99973421Y-45875591D01*
X99991726Y-45831398D01*
X100031500Y-45631439D01*
X100031500Y-45427561D01*
X99991726Y-45227602D01*
X99913705Y-45039244D01*
X99800437Y-44869726D01*
X99656274Y-44725563D01*
X99486756Y-44612295D01*
X99298398Y-44534274D01*
X99098439Y-44494500D01*
X98894561Y-44494500D01*
X98694602Y-44534274D01*
X98506244Y-44612295D01*
X98336726Y-44725563D01*
X98192563Y-44869726D01*
X98079295Y-45039244D01*
X98001274Y-45227602D01*
X97961500Y-45427561D01*
X97961500Y-45631439D01*
X98001274Y-45831398D01*
X98004485Y-45839150D01*
X97943463Y-45913506D01*
X97884498Y-46023820D01*
X97848188Y-46143518D01*
X97835928Y-46268000D01*
X97835928Y-48768000D01*
X97848188Y-48892482D01*
X97874714Y-48979928D01*
X96574000Y-48979928D01*
X96449518Y-48992188D01*
X96329820Y-49028498D01*
X96219506Y-49087463D01*
X96219471Y-49087492D01*
X96113939Y-49066500D01*
X95910061Y-49066500D01*
X95710102Y-49106274D01*
X95521744Y-49184295D01*
X95352226Y-49297563D01*
X95208063Y-49441726D01*
X95094795Y-49611244D01*
X95016774Y-49799602D01*
X94977000Y-49999561D01*
X75469587Y-49999561D01*
X75445706Y-49992317D01*
X75249579Y-49973000D01*
X75118421Y-49973000D01*
X74922294Y-49992317D01*
X74670646Y-50068653D01*
X74438725Y-50192618D01*
X74235445Y-50359445D01*
X74068618Y-50562725D01*
X73944653Y-50794646D01*
X73868317Y-51046294D01*
X73842541Y-51308000D01*
X71780000Y-51308000D01*
X71780000Y-45836000D01*
X76947928Y-45836000D01*
X76947928Y-47636000D01*
X76960188Y-47760482D01*
X76996498Y-47880180D01*
X77055463Y-47990494D01*
X77134815Y-48087185D01*
X77231506Y-48166537D01*
X77341820Y-48225502D01*
X77461518Y-48261812D01*
X77586000Y-48274072D01*
X77831674Y-48274072D01*
X77851026Y-48310276D01*
X77890871Y-48358826D01*
X77945999Y-48426001D01*
X77975002Y-48449803D01*
X78804201Y-49279003D01*
X78827999Y-49308001D01*
X78943724Y-49402974D01*
X79075753Y-49473546D01*
X79219014Y-49517003D01*
X79330667Y-49528000D01*
X79330676Y-49528000D01*
X79367999Y-49531676D01*
X79405322Y-49528000D01*
X87910178Y-49528000D01*
X87947500Y-49531676D01*
X87984822Y-49528000D01*
X87984833Y-49528000D01*
X88096486Y-49517003D01*
X88239747Y-49473546D01*
X88371776Y-49402974D01*
X88487501Y-49308001D01*
X88511304Y-49278997D01*
X90489004Y-47301298D01*
X90518002Y-47277500D01*
X90560470Y-47225753D01*
X90612975Y-47161776D01*
X90683547Y-47029746D01*
X90721076Y-46906026D01*
X90727004Y-46886485D01*
X90738001Y-46774832D01*
X90738001Y-46774823D01*
X90741677Y-46737500D01*
X90738001Y-46700177D01*
X90738001Y-46547000D01*
X90743579Y-46547000D01*
X90939706Y-46527683D01*
X91191354Y-46451347D01*
X91423275Y-46327382D01*
X91626555Y-46160555D01*
X91793382Y-45957275D01*
X91917347Y-45725354D01*
X91993683Y-45473706D01*
X92019459Y-45212000D01*
X91993683Y-44950294D01*
X91917347Y-44698646D01*
X91793382Y-44466725D01*
X91626555Y-44263445D01*
X91423275Y-44096618D01*
X91191354Y-43972653D01*
X90939706Y-43896317D01*
X90743579Y-43877000D01*
X90612421Y-43877000D01*
X90416294Y-43896317D01*
X90164646Y-43972653D01*
X89932725Y-44096618D01*
X89729445Y-44263445D01*
X89562618Y-44466725D01*
X89438653Y-44698646D01*
X89362317Y-44950294D01*
X89336541Y-45212000D01*
X89361483Y-45465235D01*
X89343027Y-45487723D01*
X89334195Y-45504247D01*
X89272455Y-45619753D01*
X89228998Y-45763014D01*
X89218001Y-45874667D01*
X89218001Y-45874677D01*
X89214325Y-45911999D01*
X89218001Y-45949321D01*
X89218001Y-46422697D01*
X87632699Y-48008000D01*
X81885244Y-48008000D01*
X82004505Y-47928312D01*
X82218312Y-47714505D01*
X82386299Y-47463095D01*
X82502011Y-47183743D01*
X82561000Y-46887184D01*
X82561000Y-46584816D01*
X82502011Y-46288257D01*
X82386299Y-46008905D01*
X82218312Y-45757495D01*
X82004505Y-45543688D01*
X81753095Y-45375701D01*
X81473743Y-45259989D01*
X81232485Y-45212000D01*
X85526541Y-45212000D01*
X85552317Y-45473706D01*
X85628653Y-45725354D01*
X85752618Y-45957275D01*
X85919445Y-46160555D01*
X86122725Y-46327382D01*
X86354646Y-46451347D01*
X86606294Y-46527683D01*
X86802421Y-46547000D01*
X86933579Y-46547000D01*
X87129706Y-46527683D01*
X87381354Y-46451347D01*
X87613275Y-46327382D01*
X87816555Y-46160555D01*
X87983382Y-45957275D01*
X88107347Y-45725354D01*
X88183683Y-45473706D01*
X88209459Y-45212000D01*
X88183683Y-44950294D01*
X88107347Y-44698646D01*
X87983382Y-44466725D01*
X87816555Y-44263445D01*
X87613275Y-44096618D01*
X87381354Y-43972653D01*
X87129706Y-43896317D01*
X86933579Y-43877000D01*
X86802421Y-43877000D01*
X86606294Y-43896317D01*
X86354646Y-43972653D01*
X86122725Y-44096618D01*
X85919445Y-44263445D01*
X85752618Y-44466725D01*
X85628653Y-44698646D01*
X85552317Y-44950294D01*
X85526541Y-45212000D01*
X81232485Y-45212000D01*
X81177184Y-45201000D01*
X80874816Y-45201000D01*
X80578257Y-45259989D01*
X80298905Y-45375701D01*
X80047495Y-45543688D01*
X79981056Y-45610127D01*
X79975502Y-45591820D01*
X79916537Y-45481506D01*
X79837185Y-45384815D01*
X79740494Y-45305463D01*
X79630180Y-45246498D01*
X79510482Y-45210188D01*
X79386000Y-45197928D01*
X77586000Y-45197928D01*
X77461518Y-45210188D01*
X77341820Y-45246498D01*
X77231506Y-45305463D01*
X77134815Y-45384815D01*
X77055463Y-45481506D01*
X76996498Y-45591820D01*
X76960188Y-45711518D01*
X76947928Y-45836000D01*
X71780000Y-45836000D01*
X71780000Y-43840000D01*
X121260001Y-43840000D01*
X121260000Y-65634000D01*
M02*
