G04 #@! TF.GenerationSoftware,KiCad,Pcbnew,5.1.4+dfsg1-1~bpo10+1*
G04 #@! TF.CreationDate,2022-08-06T21:23:58+05:30*
G04 #@! TF.ProjectId,esp2s,65737032-732e-46b6-9963-61645f706362,rev?*
G04 #@! TF.SameCoordinates,Original*
G04 #@! TF.FileFunction,Copper,L2,Bot*
G04 #@! TF.FilePolarity,Positive*
%FSLAX46Y46*%
G04 Gerber Fmt 4.6, Leading zero omitted, Abs format (unit mm)*
G04 Created by KiCad (PCBNEW 5.1.4+dfsg1-1~bpo10+1) date 2022-08-06 21:23:58*
%MOMM*%
%LPD*%
G04 APERTURE LIST*
%ADD10O,1.400000X1.400000*%
%ADD11C,1.400000*%
%ADD12C,1.800000*%
%ADD13R,1.800000X1.800000*%
%ADD14C,0.800000*%
%ADD15C,0.250000*%
%ADD16C,0.254000*%
G04 APERTURE END LIST*
D10*
X93472000Y-53086000D03*
D11*
X93472000Y-60706000D03*
D10*
X75184000Y-51308000D03*
D11*
X75184000Y-58928000D03*
D10*
X90678000Y-45212000D03*
D11*
X90678000Y-52832000D03*
D10*
X86868000Y-45212000D03*
D11*
X86868000Y-52832000D03*
D10*
X84010500Y-53086000D03*
D11*
X84010500Y-60706000D03*
D12*
X81026000Y-46736000D03*
D13*
X78486000Y-46736000D03*
D12*
X78486000Y-62738000D03*
D13*
X81026000Y-62738000D03*
D14*
X106997500Y-49466500D03*
X96012000Y-50101500D03*
X98996500Y-45529500D03*
X102997000Y-50038000D03*
D15*
X78486000Y-60198000D02*
X78486000Y-62738000D01*
X81915000Y-56769000D02*
X78486000Y-60198000D01*
X106997500Y-49466500D02*
X99695000Y-56769000D01*
X99695000Y-56769000D02*
X81915000Y-56769000D01*
X81026000Y-53086000D02*
X75184000Y-58928000D01*
X81026000Y-46736000D02*
X81026000Y-53086000D01*
X84710499Y-52386001D02*
X84010500Y-53086000D01*
X85598000Y-51498500D02*
X84710499Y-52386001D01*
X94049315Y-51498500D02*
X85598000Y-51498500D01*
X96012000Y-50101500D02*
X95446315Y-50101500D01*
X95446315Y-50101500D02*
X94049315Y-51498500D01*
X93472000Y-53086000D02*
X99949000Y-53086000D01*
X99949000Y-53086000D02*
X102997000Y-50038000D01*
D16*
G36*
X121260000Y-65634000D02*
G01*
X71780000Y-65634000D01*
X71780000Y-62586816D01*
X76951000Y-62586816D01*
X76951000Y-62889184D01*
X77009989Y-63185743D01*
X77125701Y-63465095D01*
X77293688Y-63716505D01*
X77507495Y-63930312D01*
X77758905Y-64098299D01*
X78038257Y-64214011D01*
X78334816Y-64273000D01*
X78637184Y-64273000D01*
X78933743Y-64214011D01*
X79213095Y-64098299D01*
X79464505Y-63930312D01*
X79530944Y-63863873D01*
X79536498Y-63882180D01*
X79595463Y-63992494D01*
X79674815Y-64089185D01*
X79771506Y-64168537D01*
X79881820Y-64227502D01*
X80001518Y-64263812D01*
X80126000Y-64276072D01*
X81926000Y-64276072D01*
X82050482Y-64263812D01*
X82170180Y-64227502D01*
X82280494Y-64168537D01*
X82377185Y-64089185D01*
X82456537Y-63992494D01*
X82515502Y-63882180D01*
X82551812Y-63762482D01*
X82564072Y-63638000D01*
X82564072Y-61838000D01*
X82551812Y-61713518D01*
X82525649Y-61627269D01*
X83268836Y-61627269D01*
X83328297Y-61861037D01*
X83566742Y-61971934D01*
X83822240Y-62034183D01*
X84084973Y-62045390D01*
X84344844Y-62005125D01*
X84591866Y-61914935D01*
X84692703Y-61861037D01*
X84752164Y-61627269D01*
X84010500Y-60885605D01*
X83268836Y-61627269D01*
X82525649Y-61627269D01*
X82515502Y-61593820D01*
X82456537Y-61483506D01*
X82377185Y-61386815D01*
X82280494Y-61307463D01*
X82170180Y-61248498D01*
X82050482Y-61212188D01*
X81926000Y-61199928D01*
X80126000Y-61199928D01*
X80001518Y-61212188D01*
X79881820Y-61248498D01*
X79771506Y-61307463D01*
X79674815Y-61386815D01*
X79595463Y-61483506D01*
X79536498Y-61593820D01*
X79530944Y-61612127D01*
X79464505Y-61545688D01*
X79246000Y-61399687D01*
X79246000Y-60780473D01*
X82671110Y-60780473D01*
X82711375Y-61040344D01*
X82801565Y-61287366D01*
X82855463Y-61388203D01*
X83089231Y-61447664D01*
X83830895Y-60706000D01*
X84190105Y-60706000D01*
X84931769Y-61447664D01*
X85165537Y-61388203D01*
X85276434Y-61149758D01*
X85338683Y-60894260D01*
X85349890Y-60631527D01*
X85341057Y-60574514D01*
X92137000Y-60574514D01*
X92137000Y-60837486D01*
X92188304Y-61095405D01*
X92288939Y-61338359D01*
X92435038Y-61557013D01*
X92620987Y-61742962D01*
X92839641Y-61889061D01*
X93082595Y-61989696D01*
X93340514Y-62041000D01*
X93603486Y-62041000D01*
X93861405Y-61989696D01*
X94104359Y-61889061D01*
X94323013Y-61742962D01*
X94508962Y-61557013D01*
X94655061Y-61338359D01*
X94755696Y-61095405D01*
X94807000Y-60837486D01*
X94807000Y-60574514D01*
X94755696Y-60316595D01*
X94655061Y-60073641D01*
X94508962Y-59854987D01*
X94323013Y-59669038D01*
X94104359Y-59522939D01*
X93861405Y-59422304D01*
X93603486Y-59371000D01*
X93340514Y-59371000D01*
X93082595Y-59422304D01*
X92839641Y-59522939D01*
X92620987Y-59669038D01*
X92435038Y-59854987D01*
X92288939Y-60073641D01*
X92188304Y-60316595D01*
X92137000Y-60574514D01*
X85341057Y-60574514D01*
X85309625Y-60371656D01*
X85219435Y-60124634D01*
X85165537Y-60023797D01*
X84931769Y-59964336D01*
X84190105Y-60706000D01*
X83830895Y-60706000D01*
X83089231Y-59964336D01*
X82855463Y-60023797D01*
X82744566Y-60262242D01*
X82682317Y-60517740D01*
X82671110Y-60780473D01*
X79246000Y-60780473D01*
X79246000Y-60512801D01*
X79974070Y-59784731D01*
X83268836Y-59784731D01*
X84010500Y-60526395D01*
X84752164Y-59784731D01*
X84692703Y-59550963D01*
X84454258Y-59440066D01*
X84198760Y-59377817D01*
X83936027Y-59366610D01*
X83676156Y-59406875D01*
X83429134Y-59497065D01*
X83328297Y-59550963D01*
X83268836Y-59784731D01*
X79974070Y-59784731D01*
X82229802Y-57529000D01*
X99657678Y-57529000D01*
X99695000Y-57532676D01*
X99732322Y-57529000D01*
X99732333Y-57529000D01*
X99843986Y-57518003D01*
X99987247Y-57474546D01*
X100119276Y-57403974D01*
X100235001Y-57309001D01*
X100258804Y-57279997D01*
X107037302Y-50501500D01*
X107099439Y-50501500D01*
X107299398Y-50461726D01*
X107487756Y-50383705D01*
X107657274Y-50270437D01*
X107801437Y-50126274D01*
X107914705Y-49956756D01*
X107992726Y-49768398D01*
X108032500Y-49568439D01*
X108032500Y-49364561D01*
X107992726Y-49164602D01*
X107914705Y-48976244D01*
X107801437Y-48806726D01*
X107657274Y-48662563D01*
X107487756Y-48549295D01*
X107299398Y-48471274D01*
X107099439Y-48431500D01*
X106895561Y-48431500D01*
X106695602Y-48471274D01*
X106507244Y-48549295D01*
X106337726Y-48662563D01*
X106193563Y-48806726D01*
X106080295Y-48976244D01*
X106002274Y-49164602D01*
X105962500Y-49364561D01*
X105962500Y-49426698D01*
X99380199Y-56009000D01*
X81952322Y-56009000D01*
X81914999Y-56005324D01*
X81877676Y-56009000D01*
X81877667Y-56009000D01*
X81766014Y-56019997D01*
X81622753Y-56063454D01*
X81490724Y-56134026D01*
X81374999Y-56228999D01*
X81351201Y-56257997D01*
X77975003Y-59634196D01*
X77945999Y-59657999D01*
X77890871Y-59725174D01*
X77851026Y-59773724D01*
X77848199Y-59779013D01*
X77780454Y-59905754D01*
X77736997Y-60049015D01*
X77726000Y-60160668D01*
X77726000Y-60160678D01*
X77722324Y-60198000D01*
X77726000Y-60235323D01*
X77726000Y-61399687D01*
X77507495Y-61545688D01*
X77293688Y-61759495D01*
X77125701Y-62010905D01*
X77009989Y-62290257D01*
X76951000Y-62586816D01*
X71780000Y-62586816D01*
X71780000Y-58796514D01*
X73849000Y-58796514D01*
X73849000Y-59059486D01*
X73900304Y-59317405D01*
X74000939Y-59560359D01*
X74147038Y-59779013D01*
X74332987Y-59964962D01*
X74551641Y-60111061D01*
X74794595Y-60211696D01*
X75052514Y-60263000D01*
X75315486Y-60263000D01*
X75573405Y-60211696D01*
X75816359Y-60111061D01*
X76035013Y-59964962D01*
X76220962Y-59779013D01*
X76367061Y-59560359D01*
X76467696Y-59317405D01*
X76519000Y-59059486D01*
X76519000Y-58796514D01*
X76497645Y-58689156D01*
X81537003Y-53649799D01*
X81566001Y-53626001D01*
X81660974Y-53510276D01*
X81731546Y-53378247D01*
X81775003Y-53234986D01*
X81786000Y-53123333D01*
X81786000Y-53123325D01*
X81789676Y-53086000D01*
X82669041Y-53086000D01*
X82694817Y-53347706D01*
X82771153Y-53599354D01*
X82895118Y-53831275D01*
X83061945Y-54034555D01*
X83265225Y-54201382D01*
X83497146Y-54325347D01*
X83748794Y-54401683D01*
X83944921Y-54421000D01*
X84076079Y-54421000D01*
X84272206Y-54401683D01*
X84523854Y-54325347D01*
X84755775Y-54201382D01*
X84959055Y-54034555D01*
X85125882Y-53831275D01*
X85249847Y-53599354D01*
X85326183Y-53347706D01*
X85351959Y-53086000D01*
X85328050Y-52843251D01*
X85548448Y-52622853D01*
X85533000Y-52700514D01*
X85533000Y-52963486D01*
X85584304Y-53221405D01*
X85684939Y-53464359D01*
X85831038Y-53683013D01*
X86016987Y-53868962D01*
X86235641Y-54015061D01*
X86478595Y-54115696D01*
X86736514Y-54167000D01*
X86999486Y-54167000D01*
X87257405Y-54115696D01*
X87500359Y-54015061D01*
X87719013Y-53868962D01*
X87834706Y-53753269D01*
X89936336Y-53753269D01*
X89995797Y-53987037D01*
X90234242Y-54097934D01*
X90489740Y-54160183D01*
X90752473Y-54171390D01*
X91012344Y-54131125D01*
X91259366Y-54040935D01*
X91360203Y-53987037D01*
X91419664Y-53753269D01*
X90678000Y-53011605D01*
X89936336Y-53753269D01*
X87834706Y-53753269D01*
X87904962Y-53683013D01*
X88051061Y-53464359D01*
X88151696Y-53221405D01*
X88203000Y-52963486D01*
X88203000Y-52700514D01*
X88151696Y-52442595D01*
X88075441Y-52258500D01*
X89472407Y-52258500D01*
X89412066Y-52388242D01*
X89349817Y-52643740D01*
X89338610Y-52906473D01*
X89378875Y-53166344D01*
X89469065Y-53413366D01*
X89522963Y-53514203D01*
X89756731Y-53573664D01*
X90498395Y-52832000D01*
X90484253Y-52817858D01*
X90663858Y-52638253D01*
X90678000Y-52652395D01*
X90692143Y-52638253D01*
X90871748Y-52817858D01*
X90857605Y-52832000D01*
X91599269Y-53573664D01*
X91833037Y-53514203D01*
X91943934Y-53275758D01*
X92006183Y-53020260D01*
X92017390Y-52757527D01*
X91977125Y-52497656D01*
X91889807Y-52258500D01*
X92424098Y-52258500D01*
X92356618Y-52340725D01*
X92232653Y-52572646D01*
X92156317Y-52824294D01*
X92130541Y-53086000D01*
X92156317Y-53347706D01*
X92232653Y-53599354D01*
X92356618Y-53831275D01*
X92523445Y-54034555D01*
X92726725Y-54201382D01*
X92958646Y-54325347D01*
X93210294Y-54401683D01*
X93406421Y-54421000D01*
X93537579Y-54421000D01*
X93733706Y-54401683D01*
X93985354Y-54325347D01*
X94217275Y-54201382D01*
X94420555Y-54034555D01*
X94575298Y-53846000D01*
X99911678Y-53846000D01*
X99949000Y-53849676D01*
X99986322Y-53846000D01*
X99986333Y-53846000D01*
X100097986Y-53835003D01*
X100241247Y-53791546D01*
X100373276Y-53720974D01*
X100489001Y-53626001D01*
X100512804Y-53596997D01*
X103036802Y-51073000D01*
X103098939Y-51073000D01*
X103298898Y-51033226D01*
X103487256Y-50955205D01*
X103656774Y-50841937D01*
X103800937Y-50697774D01*
X103914205Y-50528256D01*
X103992226Y-50339898D01*
X104032000Y-50139939D01*
X104032000Y-49936061D01*
X103992226Y-49736102D01*
X103914205Y-49547744D01*
X103800937Y-49378226D01*
X103656774Y-49234063D01*
X103487256Y-49120795D01*
X103298898Y-49042774D01*
X103098939Y-49003000D01*
X102895061Y-49003000D01*
X102695102Y-49042774D01*
X102506744Y-49120795D01*
X102337226Y-49234063D01*
X102193063Y-49378226D01*
X102079795Y-49547744D01*
X102001774Y-49736102D01*
X101962000Y-49936061D01*
X101962000Y-49998198D01*
X99634199Y-52326000D01*
X94575298Y-52326000D01*
X94434461Y-52154390D01*
X94473591Y-52133474D01*
X94589316Y-52038501D01*
X94613119Y-52009497D01*
X95579845Y-51042771D01*
X95710102Y-51096726D01*
X95910061Y-51136500D01*
X96113939Y-51136500D01*
X96313898Y-51096726D01*
X96502256Y-51018705D01*
X96671774Y-50905437D01*
X96815937Y-50761274D01*
X96929205Y-50591756D01*
X97007226Y-50403398D01*
X97047000Y-50203439D01*
X97047000Y-49999561D01*
X97007226Y-49799602D01*
X96929205Y-49611244D01*
X96815937Y-49441726D01*
X96671774Y-49297563D01*
X96502256Y-49184295D01*
X96313898Y-49106274D01*
X96113939Y-49066500D01*
X95910061Y-49066500D01*
X95710102Y-49106274D01*
X95521744Y-49184295D01*
X95352226Y-49297563D01*
X95297276Y-49352513D01*
X95154068Y-49395954D01*
X95022039Y-49466526D01*
X94906314Y-49561499D01*
X94882516Y-49590497D01*
X93734514Y-50738500D01*
X85635323Y-50738500D01*
X85598000Y-50734824D01*
X85560677Y-50738500D01*
X85560667Y-50738500D01*
X85449014Y-50749497D01*
X85305753Y-50792954D01*
X85173723Y-50863526D01*
X85122655Y-50905437D01*
X85057999Y-50958499D01*
X85034201Y-50987497D01*
X84253249Y-51768450D01*
X84076079Y-51751000D01*
X83944921Y-51751000D01*
X83748794Y-51770317D01*
X83497146Y-51846653D01*
X83265225Y-51970618D01*
X83061945Y-52137445D01*
X82895118Y-52340725D01*
X82771153Y-52572646D01*
X82694817Y-52824294D01*
X82669041Y-53086000D01*
X81789676Y-53086000D01*
X81786000Y-53048675D01*
X81786000Y-48074313D01*
X82004505Y-47928312D01*
X82218312Y-47714505D01*
X82386299Y-47463095D01*
X82502011Y-47183743D01*
X82561000Y-46887184D01*
X82561000Y-46584816D01*
X82502011Y-46288257D01*
X82386299Y-46008905D01*
X82218312Y-45757495D01*
X82006147Y-45545330D01*
X85575278Y-45545330D01*
X85665147Y-45791123D01*
X85801241Y-46014660D01*
X85978330Y-46207351D01*
X86189608Y-46361792D01*
X86426956Y-46472047D01*
X86534671Y-46504716D01*
X86741000Y-46381374D01*
X86741000Y-45339000D01*
X86995000Y-45339000D01*
X86995000Y-46381374D01*
X87201329Y-46504716D01*
X87309044Y-46472047D01*
X87546392Y-46361792D01*
X87757670Y-46207351D01*
X87934759Y-46014660D01*
X88070853Y-45791123D01*
X88160722Y-45545330D01*
X88038201Y-45339000D01*
X86995000Y-45339000D01*
X86741000Y-45339000D01*
X85697799Y-45339000D01*
X85575278Y-45545330D01*
X82006147Y-45545330D01*
X82004505Y-45543688D01*
X81753095Y-45375701D01*
X81473743Y-45259989D01*
X81232485Y-45212000D01*
X89336541Y-45212000D01*
X89362317Y-45473706D01*
X89438653Y-45725354D01*
X89562618Y-45957275D01*
X89729445Y-46160555D01*
X89932725Y-46327382D01*
X90164646Y-46451347D01*
X90416294Y-46527683D01*
X90612421Y-46547000D01*
X90743579Y-46547000D01*
X90939706Y-46527683D01*
X91191354Y-46451347D01*
X91423275Y-46327382D01*
X91626555Y-46160555D01*
X91793382Y-45957275D01*
X91917347Y-45725354D01*
X91993683Y-45473706D01*
X92019459Y-45212000D01*
X91993683Y-44950294D01*
X91917347Y-44698646D01*
X91793382Y-44466725D01*
X91626555Y-44263445D01*
X91423275Y-44096618D01*
X91191354Y-43972653D01*
X90939706Y-43896317D01*
X90743579Y-43877000D01*
X90612421Y-43877000D01*
X90416294Y-43896317D01*
X90164646Y-43972653D01*
X89932725Y-44096618D01*
X89729445Y-44263445D01*
X89562618Y-44466725D01*
X89438653Y-44698646D01*
X89362317Y-44950294D01*
X89336541Y-45212000D01*
X81232485Y-45212000D01*
X81177184Y-45201000D01*
X80874816Y-45201000D01*
X80578257Y-45259989D01*
X80298905Y-45375701D01*
X80047495Y-45543688D01*
X79981056Y-45610127D01*
X79975502Y-45591820D01*
X79916537Y-45481506D01*
X79837185Y-45384815D01*
X79740494Y-45305463D01*
X79630180Y-45246498D01*
X79510482Y-45210188D01*
X79386000Y-45197928D01*
X77586000Y-45197928D01*
X77461518Y-45210188D01*
X77341820Y-45246498D01*
X77231506Y-45305463D01*
X77134815Y-45384815D01*
X77055463Y-45481506D01*
X76996498Y-45591820D01*
X76960188Y-45711518D01*
X76947928Y-45836000D01*
X76947928Y-47636000D01*
X76960188Y-47760482D01*
X76996498Y-47880180D01*
X77055463Y-47990494D01*
X77134815Y-48087185D01*
X77231506Y-48166537D01*
X77341820Y-48225502D01*
X77461518Y-48261812D01*
X77586000Y-48274072D01*
X79386000Y-48274072D01*
X79510482Y-48261812D01*
X79630180Y-48225502D01*
X79740494Y-48166537D01*
X79837185Y-48087185D01*
X79916537Y-47990494D01*
X79975502Y-47880180D01*
X79981056Y-47861873D01*
X80047495Y-47928312D01*
X80266000Y-48074313D01*
X80266001Y-52771197D01*
X75422844Y-57614355D01*
X75315486Y-57593000D01*
X75052514Y-57593000D01*
X74794595Y-57644304D01*
X74551641Y-57744939D01*
X74332987Y-57891038D01*
X74147038Y-58076987D01*
X74000939Y-58295641D01*
X73900304Y-58538595D01*
X73849000Y-58796514D01*
X71780000Y-58796514D01*
X71780000Y-51308000D01*
X73842541Y-51308000D01*
X73868317Y-51569706D01*
X73944653Y-51821354D01*
X74068618Y-52053275D01*
X74235445Y-52256555D01*
X74438725Y-52423382D01*
X74670646Y-52547347D01*
X74922294Y-52623683D01*
X75118421Y-52643000D01*
X75249579Y-52643000D01*
X75445706Y-52623683D01*
X75697354Y-52547347D01*
X75929275Y-52423382D01*
X76132555Y-52256555D01*
X76299382Y-52053275D01*
X76423347Y-51821354D01*
X76499683Y-51569706D01*
X76525459Y-51308000D01*
X76499683Y-51046294D01*
X76423347Y-50794646D01*
X76299382Y-50562725D01*
X76132555Y-50359445D01*
X75929275Y-50192618D01*
X75697354Y-50068653D01*
X75445706Y-49992317D01*
X75249579Y-49973000D01*
X75118421Y-49973000D01*
X74922294Y-49992317D01*
X74670646Y-50068653D01*
X74438725Y-50192618D01*
X74235445Y-50359445D01*
X74068618Y-50562725D01*
X73944653Y-50794646D01*
X73868317Y-51046294D01*
X73842541Y-51308000D01*
X71780000Y-51308000D01*
X71780000Y-44878670D01*
X85575278Y-44878670D01*
X85697799Y-45085000D01*
X86741000Y-45085000D01*
X86741000Y-44042626D01*
X86995000Y-44042626D01*
X86995000Y-45085000D01*
X88038201Y-45085000D01*
X88160722Y-44878670D01*
X88070853Y-44632877D01*
X87934759Y-44409340D01*
X87757670Y-44216649D01*
X87546392Y-44062208D01*
X87309044Y-43951953D01*
X87201329Y-43919284D01*
X86995000Y-44042626D01*
X86741000Y-44042626D01*
X86534671Y-43919284D01*
X86426956Y-43951953D01*
X86189608Y-44062208D01*
X85978330Y-44216649D01*
X85801241Y-44409340D01*
X85665147Y-44632877D01*
X85575278Y-44878670D01*
X71780000Y-44878670D01*
X71780000Y-43840000D01*
X121260001Y-43840000D01*
X121260000Y-65634000D01*
X121260000Y-65634000D01*
G37*
X121260000Y-65634000D02*
X71780000Y-65634000D01*
X71780000Y-62586816D01*
X76951000Y-62586816D01*
X76951000Y-62889184D01*
X77009989Y-63185743D01*
X77125701Y-63465095D01*
X77293688Y-63716505D01*
X77507495Y-63930312D01*
X77758905Y-64098299D01*
X78038257Y-64214011D01*
X78334816Y-64273000D01*
X78637184Y-64273000D01*
X78933743Y-64214011D01*
X79213095Y-64098299D01*
X79464505Y-63930312D01*
X79530944Y-63863873D01*
X79536498Y-63882180D01*
X79595463Y-63992494D01*
X79674815Y-64089185D01*
X79771506Y-64168537D01*
X79881820Y-64227502D01*
X80001518Y-64263812D01*
X80126000Y-64276072D01*
X81926000Y-64276072D01*
X82050482Y-64263812D01*
X82170180Y-64227502D01*
X82280494Y-64168537D01*
X82377185Y-64089185D01*
X82456537Y-63992494D01*
X82515502Y-63882180D01*
X82551812Y-63762482D01*
X82564072Y-63638000D01*
X82564072Y-61838000D01*
X82551812Y-61713518D01*
X82525649Y-61627269D01*
X83268836Y-61627269D01*
X83328297Y-61861037D01*
X83566742Y-61971934D01*
X83822240Y-62034183D01*
X84084973Y-62045390D01*
X84344844Y-62005125D01*
X84591866Y-61914935D01*
X84692703Y-61861037D01*
X84752164Y-61627269D01*
X84010500Y-60885605D01*
X83268836Y-61627269D01*
X82525649Y-61627269D01*
X82515502Y-61593820D01*
X82456537Y-61483506D01*
X82377185Y-61386815D01*
X82280494Y-61307463D01*
X82170180Y-61248498D01*
X82050482Y-61212188D01*
X81926000Y-61199928D01*
X80126000Y-61199928D01*
X80001518Y-61212188D01*
X79881820Y-61248498D01*
X79771506Y-61307463D01*
X79674815Y-61386815D01*
X79595463Y-61483506D01*
X79536498Y-61593820D01*
X79530944Y-61612127D01*
X79464505Y-61545688D01*
X79246000Y-61399687D01*
X79246000Y-60780473D01*
X82671110Y-60780473D01*
X82711375Y-61040344D01*
X82801565Y-61287366D01*
X82855463Y-61388203D01*
X83089231Y-61447664D01*
X83830895Y-60706000D01*
X84190105Y-60706000D01*
X84931769Y-61447664D01*
X85165537Y-61388203D01*
X85276434Y-61149758D01*
X85338683Y-60894260D01*
X85349890Y-60631527D01*
X85341057Y-60574514D01*
X92137000Y-60574514D01*
X92137000Y-60837486D01*
X92188304Y-61095405D01*
X92288939Y-61338359D01*
X92435038Y-61557013D01*
X92620987Y-61742962D01*
X92839641Y-61889061D01*
X93082595Y-61989696D01*
X93340514Y-62041000D01*
X93603486Y-62041000D01*
X93861405Y-61989696D01*
X94104359Y-61889061D01*
X94323013Y-61742962D01*
X94508962Y-61557013D01*
X94655061Y-61338359D01*
X94755696Y-61095405D01*
X94807000Y-60837486D01*
X94807000Y-60574514D01*
X94755696Y-60316595D01*
X94655061Y-60073641D01*
X94508962Y-59854987D01*
X94323013Y-59669038D01*
X94104359Y-59522939D01*
X93861405Y-59422304D01*
X93603486Y-59371000D01*
X93340514Y-59371000D01*
X93082595Y-59422304D01*
X92839641Y-59522939D01*
X92620987Y-59669038D01*
X92435038Y-59854987D01*
X92288939Y-60073641D01*
X92188304Y-60316595D01*
X92137000Y-60574514D01*
X85341057Y-60574514D01*
X85309625Y-60371656D01*
X85219435Y-60124634D01*
X85165537Y-60023797D01*
X84931769Y-59964336D01*
X84190105Y-60706000D01*
X83830895Y-60706000D01*
X83089231Y-59964336D01*
X82855463Y-60023797D01*
X82744566Y-60262242D01*
X82682317Y-60517740D01*
X82671110Y-60780473D01*
X79246000Y-60780473D01*
X79246000Y-60512801D01*
X79974070Y-59784731D01*
X83268836Y-59784731D01*
X84010500Y-60526395D01*
X84752164Y-59784731D01*
X84692703Y-59550963D01*
X84454258Y-59440066D01*
X84198760Y-59377817D01*
X83936027Y-59366610D01*
X83676156Y-59406875D01*
X83429134Y-59497065D01*
X83328297Y-59550963D01*
X83268836Y-59784731D01*
X79974070Y-59784731D01*
X82229802Y-57529000D01*
X99657678Y-57529000D01*
X99695000Y-57532676D01*
X99732322Y-57529000D01*
X99732333Y-57529000D01*
X99843986Y-57518003D01*
X99987247Y-57474546D01*
X100119276Y-57403974D01*
X100235001Y-57309001D01*
X100258804Y-57279997D01*
X107037302Y-50501500D01*
X107099439Y-50501500D01*
X107299398Y-50461726D01*
X107487756Y-50383705D01*
X107657274Y-50270437D01*
X107801437Y-50126274D01*
X107914705Y-49956756D01*
X107992726Y-49768398D01*
X108032500Y-49568439D01*
X108032500Y-49364561D01*
X107992726Y-49164602D01*
X107914705Y-48976244D01*
X107801437Y-48806726D01*
X107657274Y-48662563D01*
X107487756Y-48549295D01*
X107299398Y-48471274D01*
X107099439Y-48431500D01*
X106895561Y-48431500D01*
X106695602Y-48471274D01*
X106507244Y-48549295D01*
X106337726Y-48662563D01*
X106193563Y-48806726D01*
X106080295Y-48976244D01*
X106002274Y-49164602D01*
X105962500Y-49364561D01*
X105962500Y-49426698D01*
X99380199Y-56009000D01*
X81952322Y-56009000D01*
X81914999Y-56005324D01*
X81877676Y-56009000D01*
X81877667Y-56009000D01*
X81766014Y-56019997D01*
X81622753Y-56063454D01*
X81490724Y-56134026D01*
X81374999Y-56228999D01*
X81351201Y-56257997D01*
X77975003Y-59634196D01*
X77945999Y-59657999D01*
X77890871Y-59725174D01*
X77851026Y-59773724D01*
X77848199Y-59779013D01*
X77780454Y-59905754D01*
X77736997Y-60049015D01*
X77726000Y-60160668D01*
X77726000Y-60160678D01*
X77722324Y-60198000D01*
X77726000Y-60235323D01*
X77726000Y-61399687D01*
X77507495Y-61545688D01*
X77293688Y-61759495D01*
X77125701Y-62010905D01*
X77009989Y-62290257D01*
X76951000Y-62586816D01*
X71780000Y-62586816D01*
X71780000Y-58796514D01*
X73849000Y-58796514D01*
X73849000Y-59059486D01*
X73900304Y-59317405D01*
X74000939Y-59560359D01*
X74147038Y-59779013D01*
X74332987Y-59964962D01*
X74551641Y-60111061D01*
X74794595Y-60211696D01*
X75052514Y-60263000D01*
X75315486Y-60263000D01*
X75573405Y-60211696D01*
X75816359Y-60111061D01*
X76035013Y-59964962D01*
X76220962Y-59779013D01*
X76367061Y-59560359D01*
X76467696Y-59317405D01*
X76519000Y-59059486D01*
X76519000Y-58796514D01*
X76497645Y-58689156D01*
X81537003Y-53649799D01*
X81566001Y-53626001D01*
X81660974Y-53510276D01*
X81731546Y-53378247D01*
X81775003Y-53234986D01*
X81786000Y-53123333D01*
X81786000Y-53123325D01*
X81789676Y-53086000D01*
X82669041Y-53086000D01*
X82694817Y-53347706D01*
X82771153Y-53599354D01*
X82895118Y-53831275D01*
X83061945Y-54034555D01*
X83265225Y-54201382D01*
X83497146Y-54325347D01*
X83748794Y-54401683D01*
X83944921Y-54421000D01*
X84076079Y-54421000D01*
X84272206Y-54401683D01*
X84523854Y-54325347D01*
X84755775Y-54201382D01*
X84959055Y-54034555D01*
X85125882Y-53831275D01*
X85249847Y-53599354D01*
X85326183Y-53347706D01*
X85351959Y-53086000D01*
X85328050Y-52843251D01*
X85548448Y-52622853D01*
X85533000Y-52700514D01*
X85533000Y-52963486D01*
X85584304Y-53221405D01*
X85684939Y-53464359D01*
X85831038Y-53683013D01*
X86016987Y-53868962D01*
X86235641Y-54015061D01*
X86478595Y-54115696D01*
X86736514Y-54167000D01*
X86999486Y-54167000D01*
X87257405Y-54115696D01*
X87500359Y-54015061D01*
X87719013Y-53868962D01*
X87834706Y-53753269D01*
X89936336Y-53753269D01*
X89995797Y-53987037D01*
X90234242Y-54097934D01*
X90489740Y-54160183D01*
X90752473Y-54171390D01*
X91012344Y-54131125D01*
X91259366Y-54040935D01*
X91360203Y-53987037D01*
X91419664Y-53753269D01*
X90678000Y-53011605D01*
X89936336Y-53753269D01*
X87834706Y-53753269D01*
X87904962Y-53683013D01*
X88051061Y-53464359D01*
X88151696Y-53221405D01*
X88203000Y-52963486D01*
X88203000Y-52700514D01*
X88151696Y-52442595D01*
X88075441Y-52258500D01*
X89472407Y-52258500D01*
X89412066Y-52388242D01*
X89349817Y-52643740D01*
X89338610Y-52906473D01*
X89378875Y-53166344D01*
X89469065Y-53413366D01*
X89522963Y-53514203D01*
X89756731Y-53573664D01*
X90498395Y-52832000D01*
X90484253Y-52817858D01*
X90663858Y-52638253D01*
X90678000Y-52652395D01*
X90692143Y-52638253D01*
X90871748Y-52817858D01*
X90857605Y-52832000D01*
X91599269Y-53573664D01*
X91833037Y-53514203D01*
X91943934Y-53275758D01*
X92006183Y-53020260D01*
X92017390Y-52757527D01*
X91977125Y-52497656D01*
X91889807Y-52258500D01*
X92424098Y-52258500D01*
X92356618Y-52340725D01*
X92232653Y-52572646D01*
X92156317Y-52824294D01*
X92130541Y-53086000D01*
X92156317Y-53347706D01*
X92232653Y-53599354D01*
X92356618Y-53831275D01*
X92523445Y-54034555D01*
X92726725Y-54201382D01*
X92958646Y-54325347D01*
X93210294Y-54401683D01*
X93406421Y-54421000D01*
X93537579Y-54421000D01*
X93733706Y-54401683D01*
X93985354Y-54325347D01*
X94217275Y-54201382D01*
X94420555Y-54034555D01*
X94575298Y-53846000D01*
X99911678Y-53846000D01*
X99949000Y-53849676D01*
X99986322Y-53846000D01*
X99986333Y-53846000D01*
X100097986Y-53835003D01*
X100241247Y-53791546D01*
X100373276Y-53720974D01*
X100489001Y-53626001D01*
X100512804Y-53596997D01*
X103036802Y-51073000D01*
X103098939Y-51073000D01*
X103298898Y-51033226D01*
X103487256Y-50955205D01*
X103656774Y-50841937D01*
X103800937Y-50697774D01*
X103914205Y-50528256D01*
X103992226Y-50339898D01*
X104032000Y-50139939D01*
X104032000Y-49936061D01*
X103992226Y-49736102D01*
X103914205Y-49547744D01*
X103800937Y-49378226D01*
X103656774Y-49234063D01*
X103487256Y-49120795D01*
X103298898Y-49042774D01*
X103098939Y-49003000D01*
X102895061Y-49003000D01*
X102695102Y-49042774D01*
X102506744Y-49120795D01*
X102337226Y-49234063D01*
X102193063Y-49378226D01*
X102079795Y-49547744D01*
X102001774Y-49736102D01*
X101962000Y-49936061D01*
X101962000Y-49998198D01*
X99634199Y-52326000D01*
X94575298Y-52326000D01*
X94434461Y-52154390D01*
X94473591Y-52133474D01*
X94589316Y-52038501D01*
X94613119Y-52009497D01*
X95579845Y-51042771D01*
X95710102Y-51096726D01*
X95910061Y-51136500D01*
X96113939Y-51136500D01*
X96313898Y-51096726D01*
X96502256Y-51018705D01*
X96671774Y-50905437D01*
X96815937Y-50761274D01*
X96929205Y-50591756D01*
X97007226Y-50403398D01*
X97047000Y-50203439D01*
X97047000Y-49999561D01*
X97007226Y-49799602D01*
X96929205Y-49611244D01*
X96815937Y-49441726D01*
X96671774Y-49297563D01*
X96502256Y-49184295D01*
X96313898Y-49106274D01*
X96113939Y-49066500D01*
X95910061Y-49066500D01*
X95710102Y-49106274D01*
X95521744Y-49184295D01*
X95352226Y-49297563D01*
X95297276Y-49352513D01*
X95154068Y-49395954D01*
X95022039Y-49466526D01*
X94906314Y-49561499D01*
X94882516Y-49590497D01*
X93734514Y-50738500D01*
X85635323Y-50738500D01*
X85598000Y-50734824D01*
X85560677Y-50738500D01*
X85560667Y-50738500D01*
X85449014Y-50749497D01*
X85305753Y-50792954D01*
X85173723Y-50863526D01*
X85122655Y-50905437D01*
X85057999Y-50958499D01*
X85034201Y-50987497D01*
X84253249Y-51768450D01*
X84076079Y-51751000D01*
X83944921Y-51751000D01*
X83748794Y-51770317D01*
X83497146Y-51846653D01*
X83265225Y-51970618D01*
X83061945Y-52137445D01*
X82895118Y-52340725D01*
X82771153Y-52572646D01*
X82694817Y-52824294D01*
X82669041Y-53086000D01*
X81789676Y-53086000D01*
X81786000Y-53048675D01*
X81786000Y-48074313D01*
X82004505Y-47928312D01*
X82218312Y-47714505D01*
X82386299Y-47463095D01*
X82502011Y-47183743D01*
X82561000Y-46887184D01*
X82561000Y-46584816D01*
X82502011Y-46288257D01*
X82386299Y-46008905D01*
X82218312Y-45757495D01*
X82006147Y-45545330D01*
X85575278Y-45545330D01*
X85665147Y-45791123D01*
X85801241Y-46014660D01*
X85978330Y-46207351D01*
X86189608Y-46361792D01*
X86426956Y-46472047D01*
X86534671Y-46504716D01*
X86741000Y-46381374D01*
X86741000Y-45339000D01*
X86995000Y-45339000D01*
X86995000Y-46381374D01*
X87201329Y-46504716D01*
X87309044Y-46472047D01*
X87546392Y-46361792D01*
X87757670Y-46207351D01*
X87934759Y-46014660D01*
X88070853Y-45791123D01*
X88160722Y-45545330D01*
X88038201Y-45339000D01*
X86995000Y-45339000D01*
X86741000Y-45339000D01*
X85697799Y-45339000D01*
X85575278Y-45545330D01*
X82006147Y-45545330D01*
X82004505Y-45543688D01*
X81753095Y-45375701D01*
X81473743Y-45259989D01*
X81232485Y-45212000D01*
X89336541Y-45212000D01*
X89362317Y-45473706D01*
X89438653Y-45725354D01*
X89562618Y-45957275D01*
X89729445Y-46160555D01*
X89932725Y-46327382D01*
X90164646Y-46451347D01*
X90416294Y-46527683D01*
X90612421Y-46547000D01*
X90743579Y-46547000D01*
X90939706Y-46527683D01*
X91191354Y-46451347D01*
X91423275Y-46327382D01*
X91626555Y-46160555D01*
X91793382Y-45957275D01*
X91917347Y-45725354D01*
X91993683Y-45473706D01*
X92019459Y-45212000D01*
X91993683Y-44950294D01*
X91917347Y-44698646D01*
X91793382Y-44466725D01*
X91626555Y-44263445D01*
X91423275Y-44096618D01*
X91191354Y-43972653D01*
X90939706Y-43896317D01*
X90743579Y-43877000D01*
X90612421Y-43877000D01*
X90416294Y-43896317D01*
X90164646Y-43972653D01*
X89932725Y-44096618D01*
X89729445Y-44263445D01*
X89562618Y-44466725D01*
X89438653Y-44698646D01*
X89362317Y-44950294D01*
X89336541Y-45212000D01*
X81232485Y-45212000D01*
X81177184Y-45201000D01*
X80874816Y-45201000D01*
X80578257Y-45259989D01*
X80298905Y-45375701D01*
X80047495Y-45543688D01*
X79981056Y-45610127D01*
X79975502Y-45591820D01*
X79916537Y-45481506D01*
X79837185Y-45384815D01*
X79740494Y-45305463D01*
X79630180Y-45246498D01*
X79510482Y-45210188D01*
X79386000Y-45197928D01*
X77586000Y-45197928D01*
X77461518Y-45210188D01*
X77341820Y-45246498D01*
X77231506Y-45305463D01*
X77134815Y-45384815D01*
X77055463Y-45481506D01*
X76996498Y-45591820D01*
X76960188Y-45711518D01*
X76947928Y-45836000D01*
X76947928Y-47636000D01*
X76960188Y-47760482D01*
X76996498Y-47880180D01*
X77055463Y-47990494D01*
X77134815Y-48087185D01*
X77231506Y-48166537D01*
X77341820Y-48225502D01*
X77461518Y-48261812D01*
X77586000Y-48274072D01*
X79386000Y-48274072D01*
X79510482Y-48261812D01*
X79630180Y-48225502D01*
X79740494Y-48166537D01*
X79837185Y-48087185D01*
X79916537Y-47990494D01*
X79975502Y-47880180D01*
X79981056Y-47861873D01*
X80047495Y-47928312D01*
X80266000Y-48074313D01*
X80266001Y-52771197D01*
X75422844Y-57614355D01*
X75315486Y-57593000D01*
X75052514Y-57593000D01*
X74794595Y-57644304D01*
X74551641Y-57744939D01*
X74332987Y-57891038D01*
X74147038Y-58076987D01*
X74000939Y-58295641D01*
X73900304Y-58538595D01*
X73849000Y-58796514D01*
X71780000Y-58796514D01*
X71780000Y-51308000D01*
X73842541Y-51308000D01*
X73868317Y-51569706D01*
X73944653Y-51821354D01*
X74068618Y-52053275D01*
X74235445Y-52256555D01*
X74438725Y-52423382D01*
X74670646Y-52547347D01*
X74922294Y-52623683D01*
X75118421Y-52643000D01*
X75249579Y-52643000D01*
X75445706Y-52623683D01*
X75697354Y-52547347D01*
X75929275Y-52423382D01*
X76132555Y-52256555D01*
X76299382Y-52053275D01*
X76423347Y-51821354D01*
X76499683Y-51569706D01*
X76525459Y-51308000D01*
X76499683Y-51046294D01*
X76423347Y-50794646D01*
X76299382Y-50562725D01*
X76132555Y-50359445D01*
X75929275Y-50192618D01*
X75697354Y-50068653D01*
X75445706Y-49992317D01*
X75249579Y-49973000D01*
X75118421Y-49973000D01*
X74922294Y-49992317D01*
X74670646Y-50068653D01*
X74438725Y-50192618D01*
X74235445Y-50359445D01*
X74068618Y-50562725D01*
X73944653Y-50794646D01*
X73868317Y-51046294D01*
X73842541Y-51308000D01*
X71780000Y-51308000D01*
X71780000Y-44878670D01*
X85575278Y-44878670D01*
X85697799Y-45085000D01*
X86741000Y-45085000D01*
X86741000Y-44042626D01*
X86995000Y-44042626D01*
X86995000Y-45085000D01*
X88038201Y-45085000D01*
X88160722Y-44878670D01*
X88070853Y-44632877D01*
X87934759Y-44409340D01*
X87757670Y-44216649D01*
X87546392Y-44062208D01*
X87309044Y-43951953D01*
X87201329Y-43919284D01*
X86995000Y-44042626D01*
X86741000Y-44042626D01*
X86534671Y-43919284D01*
X86426956Y-43951953D01*
X86189608Y-44062208D01*
X85978330Y-44216649D01*
X85801241Y-44409340D01*
X85665147Y-44632877D01*
X85575278Y-44878670D01*
X71780000Y-44878670D01*
X71780000Y-43840000D01*
X121260001Y-43840000D01*
X121260000Y-65634000D01*
M02*
